<?xml version="1.0" encoding="UTF-8" standalone="no"?>
<!-- Created with Inkscape (http://www.inkscape.org/) -->

<svg
   xmlns:dc="http://purl.org/dc/elements/1.1/"
   xmlns:cc="http://creativecommons.org/ns#"
   xmlns:rdf="http://www.w3.org/1999/02/22-rdf-syntax-ns#"
   xmlns:svg="http://www.w3.org/2000/svg"
   xmlns="http://www.w3.org/2000/svg"
   xmlns:xlink="http://www.w3.org/1999/xlink"
   xmlns:sodipodi="http://sodipodi.sourceforge.net/DTD/sodipodi-0.dtd"
   xmlns:inkscape="http://www.inkscape.org/namespaces/inkscape"
   width="96"
   height="96"
   id="svg2408"
   sodipodi:version="0.32"
   inkscape:version="0.47 r22583"
   version="1.0"
   sodipodi:docname="distributor-logo-opensuse.svg"
   inkscape:output_extension="org.inkscape.output.svg.inkscape">
  <defs
     id="defs2410">
    <linearGradient
       id="linearGradient3907">
      <stop
         style="stop-color:#e1e1e1;stop-opacity:1;"
         offset="0"
         id="stop3909" />
      <stop
         style="stop-color:#ffffff;stop-opacity:1;"
         offset="1"
         id="stop3911" />
    </linearGradient>
    <linearGradient
       id="ButtonShadow"
       gradientTransform="scale(1.0058652,0.994169)"
       x1="45.447727"
       y1="92.539597"
       x2="45.447727"
       y2="7.0165396"
       gradientUnits="userSpaceOnUse">
      <stop
         style="stop-color:#000000;stop-opacity:1;"
         offset="0"
         id="stop3750" />
      <stop
         style="stop-color:#000000;stop-opacity:0.58823532;"
         offset="1"
         id="stop3752" />
    </linearGradient>
    <linearGradient
       inkscape:collect="always"
       id="linearGradient3737">
      <stop
         style="stop-color:#ffffff;stop-opacity:1;"
         offset="0"
         id="stop3739" />
      <stop
         style="stop-color:#ffffff;stop-opacity:0;"
         offset="1"
         id="stop3741" />
    </linearGradient>
    <linearGradient
       id="linearGradient3700">
      <stop
         style="stop-color:#6a9f37;stop-opacity:1;"
         offset="0"
         id="stop3702" />
      <stop
         style="stop-color:#92d74e;stop-opacity:1;"
         offset="1"
         id="stop3704" />
    </linearGradient>
    <inkscape:perspective
       sodipodi:type="inkscape:persp3d"
       inkscape:vp_x="0 : 526.18109 : 1"
       inkscape:vp_y="0 : 1000 : 0"
       inkscape:vp_z="744.09448 : 526.18109 : 1"
       inkscape:persp3d-origin="372.04724 : 350.78739 : 1"
       id="perspective2416" />
    <linearGradient
       inkscape:collect="always"
       xlink:href="#linearGradient3700"
       id="linearGradient3706"
       x1="48"
       y1="90"
       x2="48"
       y2="5.9877172"
       gradientUnits="userSpaceOnUse" />
    <linearGradient
       inkscape:collect="always"
       xlink:href="#linearGradient3737"
       id="linearGradient3743"
       x1="36.357143"
       y1="6"
       x2="36.357143"
       y2="63.893143"
       gradientUnits="userSpaceOnUse" />
    <filter
       inkscape:collect="always"
       id="filter3174">
      <feGaussianBlur
         inkscape:collect="always"
         stdDeviation="1.71"
         id="feGaussianBlur3176" />
    </filter>
    <linearGradient
       inkscape:collect="always"
       xlink:href="#linearGradient3737"
       id="linearGradient3188"
       gradientUnits="userSpaceOnUse"
       x1="36.357143"
       y1="6"
       x2="36.357143"
       y2="63.893143" />
    <filter
       inkscape:collect="always"
       id="filter3794"
       x="-0.192"
       width="1.384"
       y="-0.192"
       height="1.384">
      <feGaussianBlur
         inkscape:collect="always"
         stdDeviation="5.28"
         id="feGaussianBlur3796" />
    </filter>
    <linearGradient
       inkscape:collect="always"
       xlink:href="#linearGradient3737"
       id="linearGradient3613"
       x1="48"
       y1="20.220806"
       x2="48"
       y2="138.66119"
       gradientUnits="userSpaceOnUse" />
    <radialGradient
       inkscape:collect="always"
       xlink:href="#linearGradient3737"
       id="radialGradient3619"
       cx="48"
       cy="90.171875"
       fx="48"
       fy="90.171875"
       r="42"
       gradientTransform="matrix(1.1573129,0,0,0.99590774,-7.5510206,0.19713193)"
       gradientUnits="userSpaceOnUse" />
    <clipPath
       clipPathUnits="userSpaceOnUse"
       id="clipPath3613">
      <rect
         ry="6"
         rx="6"
         y="6"
         x="6"
         height="84"
         width="84"
         id="rect3615"
         style="fill:#ffffff;fill-opacity:1;fill-rule:nonzero;stroke:none" />
    </clipPath>
    <linearGradient
       inkscape:collect="always"
       xlink:href="#linearGradient3700"
       id="linearGradient3617"
       gradientUnits="userSpaceOnUse"
       x1="48"
       y1="90"
       x2="48"
       y2="5.9877172" />
    <inkscape:perspective
       id="perspective2985"
       inkscape:persp3d-origin="0.5 : 0.33333333 : 1"
       inkscape:vp_z="1 : 0.5 : 1"
       inkscape:vp_y="0 : 1000 : 0"
       inkscape:vp_x="0 : 0.5 : 1"
       sodipodi:type="inkscape:persp3d" />
    <linearGradient
       inkscape:collect="always"
       xlink:href="#ButtonShadow-0"
       id="linearGradient3788"
       gradientUnits="userSpaceOnUse"
       gradientTransform="matrix(1.0238095,0,0,1.0119048,-1.1428571,-98.071429)"
       x1="32.251034"
       y1="6.1317081"
       x2="32.251034"
       y2="90.238609" />
    <linearGradient
       id="ButtonShadow-0"
       gradientTransform="matrix(1.0058652,0,0,0.994169,100,0)"
       x1="45.447727"
       y1="92.539597"
       x2="45.447727"
       y2="7.0165396"
       gradientUnits="userSpaceOnUse">
      <stop
         style="stop-color:#000000;stop-opacity:1;"
         offset="0"
         id="stop3750-8" />
      <stop
         style="stop-color:#000000;stop-opacity:0.58823532;"
         offset="1"
         id="stop3752-5" />
    </linearGradient>
    <linearGradient
       inkscape:collect="always"
       xlink:href="#ButtonShadow-0"
       id="linearGradient3780"
       gradientUnits="userSpaceOnUse"
       gradientTransform="matrix(1.0238095,0,0,1.0119048,-1.1428571,-98.071429)"
       x1="32.251034"
       y1="6.1317081"
       x2="32.251034"
       y2="90.238609" />
    <linearGradient
       id="linearGradient2994"
       gradientTransform="matrix(1.0058652,0,0,0.994169,100,0)"
       x1="45.447727"
       y1="92.539597"
       x2="45.447727"
       y2="7.0165396"
       gradientUnits="userSpaceOnUse">
      <stop
         style="stop-color:#000000;stop-opacity:1;"
         offset="0"
         id="stop2996" />
      <stop
         style="stop-color:#000000;stop-opacity:0.58823532;"
         offset="1"
         id="stop2998" />
    </linearGradient>
    <linearGradient
       inkscape:collect="always"
       xlink:href="#ButtonShadow-0"
       id="linearGradient3772"
       gradientUnits="userSpaceOnUse"
       gradientTransform="matrix(1.0238095,0,0,1.0119048,-1.1428571,-98.071429)"
       x1="32.251034"
       y1="6.1317081"
       x2="32.251034"
       y2="90.238609" />
    <linearGradient
       id="linearGradient3001"
       gradientTransform="matrix(1.0058652,0,0,0.994169,100,0)"
       x1="45.447727"
       y1="92.539597"
       x2="45.447727"
       y2="7.0165396"
       gradientUnits="userSpaceOnUse">
      <stop
         style="stop-color:#000000;stop-opacity:1;"
         offset="0"
         id="stop3003" />
      <stop
         style="stop-color:#000000;stop-opacity:0.58823532;"
         offset="1"
         id="stop3005" />
    </linearGradient>
    <linearGradient
       inkscape:collect="always"
       xlink:href="#ButtonShadow-0"
       id="linearGradient3725"
       gradientUnits="userSpaceOnUse"
       gradientTransform="matrix(1.0238095,0,0,1.0119048,-1.1428571,-98.071429)"
       x1="32.251034"
       y1="6.1317081"
       x2="32.251034"
       y2="90.238609" />
    <linearGradient
       id="linearGradient3008"
       gradientTransform="matrix(1.0058652,0,0,0.994169,100,0)"
       x1="45.447727"
       y1="92.539597"
       x2="45.447727"
       y2="7.0165396"
       gradientUnits="userSpaceOnUse">
      <stop
         style="stop-color:#000000;stop-opacity:1;"
         offset="0"
         id="stop3010" />
      <stop
         style="stop-color:#000000;stop-opacity:0.58823532;"
         offset="1"
         id="stop3012" />
    </linearGradient>
    <linearGradient
       inkscape:collect="always"
       xlink:href="#ButtonShadow-0"
       id="linearGradient3721"
       gradientUnits="userSpaceOnUse"
       gradientTransform="translate(0,-97)"
       x1="32.251034"
       y1="6.1317081"
       x2="32.251034"
       y2="90.238609" />
    <linearGradient
       id="linearGradient3015"
       gradientTransform="matrix(1.0058652,0,0,0.994169,100,0)"
       x1="45.447727"
       y1="92.539597"
       x2="45.447727"
       y2="7.0165396"
       gradientUnits="userSpaceOnUse">
      <stop
         style="stop-color:#000000;stop-opacity:1;"
         offset="0"
         id="stop3017" />
      <stop
         style="stop-color:#000000;stop-opacity:0.58823532;"
         offset="1"
         id="stop3019" />
    </linearGradient>
    <linearGradient
       y2="90.238609"
       x2="32.251034"
       y1="6.1317081"
       x1="32.251034"
       gradientTransform="matrix(1.0238095,0,0,1.0119048,-1.1428571,-98.071429)"
       gradientUnits="userSpaceOnUse"
       id="linearGradient3026"
       xlink:href="#ButtonShadow-0"
       inkscape:collect="always" />
    <inkscape:perspective
       id="perspective3095"
       inkscape:persp3d-origin="70 : 28.333333 : 1"
       inkscape:vp_z="140 : 42.5 : 1"
       inkscape:vp_y="0 : 1000 : 0"
       inkscape:vp_x="0 : 42.5 : 1"
       sodipodi:type="inkscape:persp3d" />
    <linearGradient
       inkscape:collect="always"
       xlink:href="#linearGradient3907"
       id="linearGradient3913"
       x1="48"
       y1="67.218414"
       x2="48"
       y2="28.781588"
       gradientUnits="userSpaceOnUse" />
    <linearGradient
       inkscape:collect="always"
       xlink:href="#linearGradient3907"
       id="linearGradient3919"
       gradientUnits="userSpaceOnUse"
       x1="48"
       y1="67.218414"
       x2="48"
       y2="28.781588"
       gradientTransform="translate(0,1)" />
    <linearGradient
       inkscape:collect="always"
       xlink:href="#linearGradient3907"
       id="linearGradient3921"
       gradientUnits="userSpaceOnUse"
       x1="48"
       y1="67.218414"
       x2="48"
       y2="28.781588" />
    <linearGradient
       inkscape:collect="always"
       xlink:href="#linearGradient3907"
       id="linearGradient3928"
       gradientUnits="userSpaceOnUse"
       x1="48"
       y1="67.218414"
       x2="48"
       y2="28.781588"
       gradientTransform="translate(0,-1)" />
    <linearGradient
       inkscape:collect="always"
       xlink:href="#linearGradient3907"
       id="linearGradient3930"
       gradientUnits="userSpaceOnUse"
       x1="48"
       y1="67.218414"
       x2="48"
       y2="28.781588" />
  </defs>
  <sodipodi:namedview
     id="base"
     pagecolor="#ffffff"
     bordercolor="#666666"
     borderopacity="1.0"
     inkscape:pageopacity="0.0"
     inkscape:pageshadow="2"
     inkscape:zoom="11.13336"
     inkscape:cx="26.144165"
     inkscape:cy="52.120143"
     inkscape:document-units="px"
     inkscape:current-layer="layer1"
     showgrid="true"
     showborder="true"
     inkscape:showpageshadow="false"
     inkscape:window-width="1920"
     inkscape:window-height="1023"
     inkscape:window-x="0"
     inkscape:window-y="24"
     inkscape:window-maximized="1">
    <inkscape:grid
       type="xygrid"
       id="grid3732"
       visible="true"
       enabled="true" />
  </sodipodi:namedview>
  <metadata
     id="metadata2413">
    <rdf:RDF>
      <cc:Work
         rdf:about="">
        <dc:format>image/svg+xml</dc:format>
        <dc:type
           rdf:resource="http://purl.org/dc/dcmitype/StillImage" />
        <dc:title></dc:title>
      </cc:Work>
    </rdf:RDF>
  </metadata>
  <g
     inkscape:groupmode="layer"
     id="layer2"
     inkscape:label="Blur Shadow"
     style="display:none"
     sodipodi:insensitive="true">
    <rect
       style="opacity:0.9;fill:url(#ButtonShadow);fill-opacity:1;fill-rule:nonzero;stroke:none;filter:url(#filter3174)"
       id="rect3745"
       width="86"
       height="85"
       x="5"
       y="7"
       rx="6"
       ry="6" />
  </g>
  <g
     inkscape:groupmode="layer"
     id="layer3"
     inkscape:label="Shadow"
     sodipodi:insensitive="true">
    <path
       sodipodi:type="inkscape:offset"
       inkscape:radius="0.99097413"
       inkscape:original="M 12 -94.03125 C 7.028367 -94.03125 2.96875 -89.971633 2.96875 -85 L 2.96875 -14 C 2.96875 -9.0283671 7.0283671 -4.96875 12 -4.96875 L 84 -4.96875 C 88.971633 -4.96875 93.03125 -9.028367 93.03125 -14 L 93.03125 -85 C 93.03125 -89.971633 88.971633 -94.03125 84 -94.03125 L 12 -94.03125 z "
       style="opacity:0.07999998;fill:url(#linearGradient3026);fill-opacity:1;fill-rule:nonzero;stroke:none;display:inline"
       id="path3786"
       d="m 12,-95.03125 c -5.5110903,0 -10.03125,4.52016 -10.03125,10.03125 l 0,71 c 0,5.5110902 4.5201598,10.03125 10.03125,10.03125 l 72,0 c 5.51109,0 10.03125,-4.5201597 10.03125,-10.03125 l 0,-71 c 0,-5.51109 -4.52016,-10.03125 -10.03125,-10.03125 l -72,0 z"
       transform="scale(1,-1)" />
    <path
       sodipodi:type="inkscape:offset"
       inkscape:radius="1.0360184"
       inkscape:original="M 12 -93 C 7.5908667 -93 4 -89.409133 4 -85 L 4 -14 C 4 -9.5908667 7.5908667 -6 12 -6 L 84 -6 C 88.409133 -6 92 -9.5908667 92 -14 L 92 -85 C 92 -89.409133 88.409133 -93 84 -93 L 12 -93 z "
       style="opacity:0.1;fill:url(#linearGradient3780);fill-opacity:1;fill-rule:nonzero;stroke:none;display:inline"
       id="path3778"
       d="m 12,-94.03125 c -4.971633,0 -9.03125,4.059617 -9.03125,9.03125 l 0,71 c 0,4.9716329 4.0596171,9.03125 9.03125,9.03125 l 72,0 c 4.971633,0 9.03125,-4.059617 9.03125,-9.03125 l 0,-71 c 0,-4.971633 -4.059617,-9.03125 -9.03125,-9.03125 l -72,0 z"
       transform="scale(1,-1)" />
    <path
       sodipodi:type="inkscape:offset"
       inkscape:radius="0.98962283"
       inkscape:original="M 12 -92 C 8.122 -92 5 -88.878 5 -85 L 5 -14 C 5 -10.122 8.122 -7 12 -7 L 84 -7 C 87.878 -7 91 -10.122 91 -14 L 91 -85 C 91 -88.878 87.878 -92 84 -92 L 12 -92 z "
       style="opacity:0.2;fill:url(#linearGradient3772);fill-opacity:1;fill-rule:nonzero;stroke:none;display:inline"
       id="path3770"
       d="m 12,-93 c -4.4091333,0 -8,3.590867 -8,8 l 0,71 c 0,4.4091333 3.5908667,8 8,8 l 72,0 c 4.409133,0 8,-3.5908667 8,-8 l 0,-71 c 0,-4.409133 -3.590867,-8 -8,-8 l -72,0 z"
       transform="scale(1,-1)" />
    <rect
       style="opacity:0.3;fill:url(#linearGradient3725);fill-opacity:1;fill-rule:nonzero;stroke:none;display:inline"
       id="rect3723"
       width="86"
       height="85"
       x="5"
       y="-92"
       rx="7"
       ry="7"
       transform="scale(1,-1)" />
    <rect
       transform="scale(1,-1)"
       ry="6"
       rx="6"
       y="-91"
       x="6"
       height="84"
       width="84"
       id="rect3716"
       style="opacity:0.45;fill:url(#linearGradient3721);fill-opacity:1;fill-rule:nonzero;stroke:none;display:inline" />
  </g>
  <g
     inkscape:label="Button"
     inkscape:groupmode="layer"
     id="layer1">
    <rect
       style="fill:url(#linearGradient3617);fill-opacity:1;fill-rule:nonzero;stroke:none"
       id="rect2419"
       width="84"
       height="84"
       x="6"
       y="6"
       rx="6"
       ry="6" />
    <path
       style="opacity:0.45;fill:url(#linearGradient3188);fill-opacity:1;fill-rule:nonzero;stroke:none"
       d="M 12,6 C 8.676,6 6,8.676 6,12 l 0,2 0,68 0,2 c 0,0.334721 0.04135,0.6507 0.09375,0.96875 0.0487,0.295596 0.09704,0.596915 0.1875,0.875 0.00988,0.03038 0.020892,0.0636 0.03125,0.09375 0.098865,0.287771 0.2348802,0.547452 0.375,0.8125 0.1445918,0.273507 0.3156161,0.535615 0.5,0.78125 0.1843839,0.245635 0.3737765,0.473472 0.59375,0.6875 0.439947,0.428056 0.94291,0.814526 1.5,1.09375 0.278545,0.139612 0.5734731,0.246947 0.875,0.34375 -0.2562018,-0.100222 -0.4867109,-0.236272 -0.71875,-0.375 -0.00741,-0.0044 -0.023866,0.0045 -0.03125,0 -0.031933,-0.0193 -0.062293,-0.04251 -0.09375,-0.0625 -0.120395,-0.0767 -0.2310226,-0.163513 -0.34375,-0.25 -0.1061728,-0.0808 -0.2132809,-0.161112 -0.3125,-0.25 C 8.4783201,88.557317 8.3087904,88.373362 8.15625,88.1875 8.0486711,88.057245 7.9378561,87.922215 7.84375,87.78125 7.818661,87.74287 7.805304,87.69538 7.78125,87.65625 7.716487,87.553218 7.6510225,87.451733 7.59375,87.34375 7.4927417,87.149044 7.3880752,86.928049 7.3125,86.71875 7.30454,86.69694 7.288911,86.6782 7.28125,86.65625 7.2494249,86.5643 7.2454455,86.469419 7.21875,86.375 7.1884177,86.268382 7.1483606,86.171969 7.125,86.0625 7.0521214,85.720988 7,85.364295 7,85 L 7,83 7,15 7,13 C 7,10.218152 9.2181517,8 12,8 l 2,0 68,0 2,0 c 2.781848,0 5,2.218152 5,5 l 0,2 0,68 0,2 c 0,0.364295 -0.05212,0.720988 -0.125,1.0625 -0.04415,0.206893 -0.08838,0.397658 -0.15625,0.59375 -0.0077,0.02195 -0.0233,0.04069 -0.03125,0.0625 -0.06274,0.173739 -0.138383,0.367449 -0.21875,0.53125 -0.04158,0.0828 -0.07904,0.169954 -0.125,0.25 -0.0546,0.09721 -0.126774,0.18835 -0.1875,0.28125 -0.09411,0.140965 -0.204921,0.275995 -0.3125,0.40625 -0.143174,0.17445 -0.303141,0.346998 -0.46875,0.5 -0.01117,0.0102 -0.01998,0.02115 -0.03125,0.03125 -0.138386,0.125556 -0.285091,0.234436 -0.4375,0.34375 -0.102571,0.07315 -0.204318,0.153364 -0.3125,0.21875 -0.0074,0.0045 -0.02384,-0.0044 -0.03125,0 -0.232039,0.138728 -0.462548,0.274778 -0.71875,0.375 0.301527,-0.0968 0.596455,-0.204138 0.875,-0.34375 0.55709,-0.279224 1.060053,-0.665694 1.5,-1.09375 0.219973,-0.214028 0.409366,-0.441865 0.59375,-0.6875 0.184384,-0.245635 0.355408,-0.507743 0.5,-0.78125 0.14012,-0.265048 0.276135,-0.524729 0.375,-0.8125 0.01041,-0.03078 0.02133,-0.06274 0.03125,-0.09375 0.09046,-0.278085 0.1388,-0.579404 0.1875,-0.875 C 89.95865,84.6507 90,84.334721 90,84 l 0,-2 0,-68 0,-2 C 90,8.676 87.324,6 84,6 L 12,6 z"
       id="rect3728" />
    <path
       id="path3615"
       d="M 12,90 C 8.676,90 6,87.324 6,84 L 6,82 6,14 6,12 c 0,-0.334721 0.04135,-0.6507 0.09375,-0.96875 0.0487,-0.295596 0.09704,-0.596915 0.1875,-0.875 C 6.29113,10.12587 6.302142,10.09265 6.3125,10.0625 6.411365,9.774729 6.5473802,9.515048 6.6875,9.25 6.8320918,8.976493 7.0031161,8.714385 7.1875,8.46875 7.3718839,8.223115 7.5612765,7.995278 7.78125,7.78125 8.221197,7.353194 8.72416,6.966724 9.28125,6.6875 9.559795,6.547888 9.8547231,6.440553 10.15625,6.34375 9.9000482,6.443972 9.6695391,6.580022 9.4375,6.71875 c -0.00741,0.0044 -0.023866,-0.0045 -0.03125,0 -0.031933,0.0193 -0.062293,0.04251 -0.09375,0.0625 -0.120395,0.0767 -0.2310226,0.163513 -0.34375,0.25 -0.1061728,0.0808 -0.2132809,0.161112 -0.3125,0.25 C 8.4783201,7.442683 8.3087904,7.626638 8.15625,7.8125 8.0486711,7.942755 7.9378561,8.077785 7.84375,8.21875 7.818661,8.25713 7.805304,8.30462 7.78125,8.34375 7.716487,8.446782 7.6510225,8.548267 7.59375,8.65625 7.4927417,8.850956 7.3880752,9.071951 7.3125,9.28125 7.30454,9.30306 7.288911,9.3218 7.28125,9.34375 7.2494249,9.4357 7.2454455,9.530581 7.21875,9.625 7.1884177,9.731618 7.1483606,9.828031 7.125,9.9375 7.0521214,10.279012 7,10.635705 7,11 l 0,2 0,68 0,2 c 0,2.781848 2.2181517,5 5,5 l 2,0 68,0 2,0 c 2.781848,0 5,-2.218152 5,-5 l 0,-2 0,-68 0,-2 C 89,10.635705 88.94788,10.279012 88.875,9.9375 88.83085,9.730607 88.78662,9.539842 88.71875,9.34375 88.71105,9.3218 88.69545,9.30306 88.6875,9.28125 88.62476,9.107511 88.549117,8.913801 88.46875,8.75 88.42717,8.6672 88.38971,8.580046 88.34375,8.5 88.28915,8.40279 88.216976,8.31165 88.15625,8.21875 88.06214,8.077785 87.951329,7.942755 87.84375,7.8125 87.700576,7.63805 87.540609,7.465502 87.375,7.3125 87.36383,7.3023 87.35502,7.29135 87.34375,7.28125 87.205364,7.155694 87.058659,7.046814 86.90625,6.9375 86.803679,6.86435 86.701932,6.784136 86.59375,6.71875 c -0.0074,-0.0045 -0.02384,0.0044 -0.03125,0 -0.232039,-0.138728 -0.462548,-0.274778 -0.71875,-0.375 0.301527,0.0968 0.596455,0.204138 0.875,0.34375 0.55709,0.279224 1.060053,0.665694 1.5,1.09375 0.219973,0.214028 0.409366,0.441865 0.59375,0.6875 0.184384,0.245635 0.355408,0.507743 0.5,0.78125 0.14012,0.265048 0.276135,0.524729 0.375,0.8125 0.01041,0.03078 0.02133,0.06274 0.03125,0.09375 0.09046,0.278085 0.1388,0.579404 0.1875,0.875 C 89.95865,11.3493 90,11.665279 90,12 l 0,2 0,68 0,2 c 0,3.324 -2.676,6 -6,6 l -72,0 z"
       style="opacity:0.2;fill:url(#radialGradient3619);fill-opacity:1;fill-rule:nonzero;stroke:none" />
  </g>
  <g
     inkscape:groupmode="layer"
     id="layer5"
     inkscape:label="Highlight"
     sodipodi:insensitive="true">
    <rect
       style="opacity:0.1;fill:url(#linearGradient3613);fill-opacity:1;fill-rule:nonzero;stroke:#ffffff;stroke-width:0.5;stroke-linecap:round;stroke-linejoin:miter;stroke-miterlimit:4;stroke-opacity:1;stroke-dasharray:none;stroke-dashoffset:0;filter:url(#filter3794)"
       id="rect3171"
       width="66"
       height="66"
       x="15"
       y="15"
       rx="12"
       ry="12"
       clip-path="url(#clipPath3613)" />
  </g>
  <g
     inkscape:groupmode="layer"
     id="layer4"
     inkscape:label="Logo">
    <path
       sodipodi:type="inkscape:offset"
       inkscape:radius="1.1749461"
       inkscape:original="M 46.15625 27.78125 C 44.242857 27.782461 42.542086 27.787478 41.46875 27.90625 C 36.22705 28.486385 31.567398 29.938849 26.5 32.46875 C 18.359098 36.533106 12.938175 41.310087 9.90625 47.46875 C 8.5676411 50.187784 8.0158556 52.447618 8 55.34375 C 7.9903953 57.145609 8.1741317 58.419089 8.65625 59.9375 C 10.474478 65.663897 15.653441 69.741245 21.65625 70.1875 C 27.292703 70.606487 32.063596 68.123585 34.0625 63.40625 C 34.6139 62.105024 34.81219 60.812101 34.8125 59.46875 C 34.82301 59.500547 34.843706 59.53113 34.84375 59.53125 C 34.843821 59.531446 34.874918 59.656059 34.875 59.65625 C 34.875082 59.656441 34.906157 59.749814 34.90625 59.75 C 34.906343 59.750186 34.968646 59.843569 34.96875 59.84375 C 34.968854 59.843931 35.031136 59.937326 35.03125 59.9375 C 35.031364 59.937674 35.093626 60.031083 35.09375 60.03125 C 35.093874 60.031417 35.187367 60.12484 35.1875 60.125 C 35.187633 60.12516 35.249858 60.218598 35.25 60.21875 L 35.34375 60.3125 C 35.343901 60.312644 35.406091 60.374865 35.40625 60.375 C 35.406409 60.375135 35.499834 60.437375 35.5 60.4375 C 35.500166 60.437625 35.593577 60.531134 35.59375 60.53125 C 35.593923 60.531366 35.68732 60.593645 35.6875 60.59375 C 35.68768 60.593855 35.812315 60.624905 35.8125 60.625 A 0.99295346 0.99295346 0 0 0 35.8125 60.65625 L 40.6875 63.03125 L 40.6875 63 C 40.687743 63.000121 40.812249 63.062397 40.8125 63.0625 C 40.812751 63.062603 40.968492 63.124916 40.96875 63.125 C 40.969008 63.125084 41.093486 63.156186 41.09375 63.15625 C 41.094014 63.156314 41.249732 63.187456 41.25 63.1875 C 41.250268 63.187544 41.40598 63.218726 41.40625 63.21875 C 41.40652 63.218774 41.562229 63.218747 41.5625 63.21875 C 41.562771 63.218753 41.687229 63.218767 41.6875 63.21875 C 41.687771 63.218733 41.843481 63.218787 41.84375 63.21875 C 41.844019 63.218713 41.999735 63.187557 42 63.1875 C 42.000265 63.187443 42.15599 63.156327 42.15625 63.15625 C 42.15651 63.156173 42.280996 63.093847 42.28125 63.09375 C 42.281504 63.093653 42.406004 63.031365 42.40625 63.03125 C 42.406496 63.031135 42.562264 62.968883 42.5625 62.96875 C 42.562736 62.968617 42.687274 62.875151 42.6875 62.875 C 42.687726 62.874849 42.812286 62.812667 42.8125 62.8125 C 42.812714 62.812333 42.906049 62.687683 42.90625 62.6875 C 43.133275 62.479839 43.33481 62.269924 43.4375 62.03125 C 43.54019 61.792576 43.561291 61.532349 43.53125 61.65625 C 43.574116 61.479454 43.591016 61.317332 43.59375 61.28125 C 43.606603 61.111649 43.598673 60.968751 43.59375 60.875 C 43.578698 60.588361 43.515074 60.383385 43.46875 60.1875 C 43.485888 60.259958 43.454123 59.957754 43.4375 59.65625 C 43.420877 59.354746 43.379612 58.981145 43.375 58.59375 C 43.365777 57.81896 43.415219 56.908643 43.4375 56.78125 C 43.664305 55.484612 43.689362 55.461371 44.1875 54.96875 C 44.959128 54.205684 45.586406 53.93917 47.40625 53.9375 C 49.726166 53.935428 51.448011 54.660028 53.28125 56.5 C 53.700855 56.921144 54.778459 58.048181 55.53125 58.90625 C 55.93999 59.37214 56.3564 59.832115 56.6875 60.1875 C 56.836159 60.347063 56.942216 60.472079 57.09375 60.625 C 57.212982 60.745324 57.390103 60.897118 57.625 61.0625 C 57.882565 61.243828 58.073889 61.316298 58.25 61.40625 C 58.455908 61.511422 58.689541 61.662373 59 61.8125 C 59.596434 62.100914 60.368583 62.462965 61.125 62.8125 C 61.881216 63.161943 62.60047 63.474934 63.15625 63.71875 C 63.403467 63.827202 63.619514 63.928342 63.875 64.03125 C 63.975738 64.071827 64.08378 64.12116 64.1875 64.15625 C 64.410642 64.231746 64.430318 64.217124 64.4375 64.21875 C 64.362044 64.201668 64.582048 64.27113 64.78125 64.28125 C 64.647113 64.274436 64.983301 64.304569 65.28125 64.25 C 65.598783 64.191844 65.587365 64.157136 65.65625 64.125 C 65.725135 64.092864 65.718527 64.093847 65.71875 64.09375 C 65.71875 64.09375 65.809806 64.032861 65.8125 64.03125 C 65.815194 64.029639 65.839366 64.033876 65.84375 64.03125 C 65.852518 64.025997 65.860295 64.008817 65.875 64 C 65.90441 63.982366 65.929671 63.960945 65.96875 63.9375 C 66.007829 63.914055 66.064316 63.892671 66.09375 63.875 C 66.108467 63.866164 66.116149 63.849071 66.125 63.84375 L 65.625 63 L 66.3125 63.6875 C 66.3125 63.6875 66.404366 63.627415 66.40625 63.625 C 66.408134 63.622585 66.405238 63.59506 66.40625 63.59375 C 66.410738 63.587895 66.430626 63.571568 66.4375 63.5625 C 66.451248 63.544364 66.479502 63.527821 66.5 63.5 C 66.540995 63.444358 66.554855 63.400358 66.625 63.28125 C 66.671451 63.202375 66.748871 63.095208 66.8125 62.90625 C 66.919446 62.588654 66.908909 62.280226 66.90625 62.34375 C 66.917286 62.080124 66.844181 61.814348 66.84375 61.8125 C 66.823182 61.724339 66.833935 61.635235 66.71875 61.375 C 66.631731 61.1784 66.532995 61.056554 66.5 61 C 66.343675 60.732053 66.195879 60.537028 66.0625 60.34375 C 65.116825 58.973294 64.242821 56.986283 63.96875 55.75 C 63.915864 55.511429 63.878202 54.897943 63.90625 54.375 C 63.920274 54.113529 63.943679 53.869537 63.96875 53.6875 C 63.993821 53.505463 64.075395 53.326527 64 53.5 C 64.010037 53.476905 64.114498 53.345221 64.21875 53.25 C 64.323002 53.154779 64.452603 53.070664 64.375 53.09375 C 64.244627 53.132537 64.420828 53.106077 64.625 53.09375 C 64.829172 53.081423 65.126092 53.059943 65.46875 53.0625 C 66.154066 53.067615 67.04964 53.135371 68.0625 53.25 C 70.690105 53.547368 72.300723 53.606668 74.125 53.46875 C 78.142509 53.165035 81.052776 52.455472 84.09375 50.96875 C 84.865674 50.591347 85.473084 50.273648 86.03125 49.78125 C 86.641712 49.242718 86.996941 48.568258 87.21875 47.96875 C 87.406031 47.462608 87.542778 46.951695 87.625 46.46875 C 87.665687 46.229771 87.702632 45.966646 87.6875 45.6875 C 87.687966 45.696101 87.677089 45.264103 87.5 44.875 C 87.468788 44.806421 87.438918 44.804651 87.40625 44.75 C 87.474909 44.678067 87.543995 44.581955 87.625 44.46875 C 87.56801 44.548394 87.736594 44.370379 87.84375 44.125 C 87.950906 43.879621 88 43.597559 88 43.28125 C 88 42.917306 87.903614 42.613558 87.90625 42.625 C 87.893793 42.570938 87.877786 42.394399 87.8125 42.15625 C 87.71766 41.810293 87.572013 41.404885 87.4375 40.96875 C 87.162163 40.076014 86.846868 39.108337 86.59375 38.4375 C 85.99476 36.849966 85.430592 35.657719 84.65625 34.65625 C 83.874001 33.644555 82.905077 32.911089 81.78125 32.375 C 79.49708 31.285394 77.005755 30.570851 72.71875 29.59375 C 70.699819 29.165071 68.583858 28.677782 66.40625 28.40625 C 66.406064 28.406227 66.312687 28.406263 66.3125 28.40625 C 66.312313 28.406237 66.187688 28.406253 66.1875 28.40625 L 66.09375 28.40625 C 66.093562 28.406256 66.000187 28.406234 66 28.40625 C 65.999813 28.406266 65.875186 28.437474 65.875 28.4375 C 65.874814 28.437526 65.781434 28.437464 65.78125 28.4375 C 65.781066 28.437536 65.687682 28.468705 65.6875 28.46875 C 65.687318 28.468795 65.59393 28.499945 65.59375 28.5 C 65.59357 28.500055 65.468927 28.531186 65.46875 28.53125 C 65.468573 28.531314 65.375173 28.562427 65.375 28.5625 C 65.374827 28.562573 65.281419 28.593668 65.28125 28.59375 C 65.281081 28.593832 65.187665 28.656159 65.1875 28.65625 C 65.187335 28.656341 65.09391 28.718651 65.09375 28.71875 C 65.09359 28.718849 65.031404 28.749893 65.03125 28.75 C 65.031096 28.750107 64.937649 28.812385 64.9375 28.8125 C 64.937351 28.812615 64.843892 28.874877 64.84375 28.875 C 64.843608 28.875123 64.781386 28.96862 64.78125 28.96875 L 64.71875 29.03125 C 64.718621 29.031387 64.625122 29.124857 64.625 29.125 C 64.624878 29.125143 64.562614 29.187351 64.5625 29.1875 C 64.562386 29.187649 64.500106 29.281095 64.5 29.28125 C 64.499894 29.281405 64.468848 29.37484 64.46875 29.375 C 64.468652 29.37516 64.406339 29.437335 64.40625 29.4375 C 64.406161 29.437665 64.343831 29.53108 64.34375 29.53125 C 64.343669 29.53142 64.312572 29.624826 64.3125 29.625 C 64.312428 29.625174 64.281313 29.749823 64.28125 29.75 L 64.25 29.84375 C 64.249947 29.84393 64.218794 29.937317 64.21875 29.9375 C 64.218706 29.937683 64.187534 30.031065 64.1875 30.03125 C 64.187466 30.031435 64.187525 30.156064 64.1875 30.15625 C 64.187475 30.156436 64.156265 30.249813 64.15625 30.25 C 64.156235 30.250187 64.156255 30.343562 64.15625 30.34375 C 60.296557 29.240972 56.592949 28.375306 52.65625 27.96875 C 51.232204 27.821668 48.627697 27.779745 46.15625 27.78125 z "
       style="opacity:0.05;fill:#000000"
       id="path3905"
       d="m 46.15625,26.59375 c -1.915006,0.0012 -3.607898,0.02295 -4.8125,0.15625 -5.37915,0.595348 -10.21086,2.078051 -15.375,4.65625 -8.283585,4.13559 -13.954295,9.090688 -17.125,15.53125 -1.3960401,2.83569 -2.0145957,5.364233 -2.03125,8.40625 -0.010046,1.88468 0.205345,3.320553 0.71875,4.9375 1.9642964,6.18643 7.5506,10.580722 14.03125,11.0625 6.027541,0.448059 11.390601,-2.269404 13.59375,-7.46875 0.270743,-0.638914 0.42879,-1.297881 0.5625,-1.9375 l 4.4375,2.125 0.03125,0.03125 a 1.1750636,1.1750636 0 0 0 0.09375,0.03125 c 0.04064,0.01959 0.09365,0.03121 0.09375,0.03125 A 1.1750636,1.1750636 0 0 0 40.5,64.1875 c 0.0552,0.02146 0.09363,0.06246 0.09375,0.0625 2.58e-4,8.4e-5 0.218486,0.06244 0.21875,0.0625 2.64e-4,6.4e-5 0.249732,0.03121 0.25,0.03125 1.34e-4,2.2e-5 -0.0078,-0.0078 0.03125,0 0.01952,0.0039 0.04772,0.02829 0.0625,0.03125 0.0023,4.55e-4 0.02954,-3.4e-4 0.03125,0 2.7e-4,2.4e-5 0.374729,0.03125 0.375,0.03125 2.71e-4,3e-6 0.187229,1.7e-5 0.1875,0 0.01952,3e-6 0.04768,0 0.0625,0 0.0074,0 0.0266,2e-6 0.03125,0 2.69e-4,-3.7e-5 0.405985,-0.06244 0.40625,-0.0625 1.32e-4,-2.8e-5 0.02345,-0.02344 0.0625,-0.03125 0.03905,-0.0078 0.18737,-0.03121 0.1875,-0.03125 0,0 0.185645,-0.06158 0.1875,-0.0625 0.0039,-0.0019 -0.006,-0.02827 0,-0.03125 1.27e-4,-4.8e-5 0.156263,-0.04688 0.1875,-0.0625 0.03124,-0.01562 0.03113,-0.03119 0.03125,-0.03125 0.01952,-0.0078 0.04771,-0.02533 0.0625,-0.03125 0.0074,-0.003 0.02666,0.0018 0.03125,0 0,0 0.146772,-0.08451 0.21875,-0.125 0.0031,-0.0016 -0.0058,-0.02836 0,-0.03125 0.0058,-0.0029 0.02395,0.0036 0.03125,0 0.02209,-0.01287 0.04036,-0.01835 0.0625,-0.03125 0.006,-0.003 0.0273,0.002 0.03125,0 0,0 0.262467,-0.244454 0.34375,-0.3125 0.01189,-0.01 0.0623,-0.03099 0.0625,-0.03125 0.0015,-0.002 -0.0015,-0.02926 0,-0.03125 0.003,-0.004 0.02676,0.006 0.03125,0 0.009,-0.01197 0.01954,-0.01563 0.03125,-0.03125 0.01171,-0.01562 0.0226,-0.05096 0.03125,-0.0625 a 1.1750636,1.1750636 0 0 0 -0.0625,0.03125 c 0.244096,-0.226037 0.551419,-0.475955 0.75,-0.9375 0.09609,-0.223341 0.127508,-0.409359 0.15625,-0.5625 0.0015,-0.0079 -0.0014,-0.02346 0,-0.03125 0.01431,-0.07917 0.05255,0.01141 0.03125,-0.34375 0.0065,-0.05405 0.02781,-0.142082 0.03125,-0.1875 0.01936,-0.255499 0.03599,-0.472295 0.03125,-0.5625 -0.01718,-0.327096 -0.08197,-0.51686 -0.125,-0.6875 -0.0026,-0.07143 -0.02712,-0.101603 -0.03125,-0.15625 -0.0014,-0.01822 0.0015,-0.04269 0,-0.0625 -0.0075,-0.09903 0.006,-0.203148 0,-0.3125 -0.01957,-0.354952 -0.05877,-0.687032 -0.0625,-1 -0.0042,-0.356931 -0.01331,-0.770076 0,-1.09375 0.0067,-0.161837 0.02449,-0.303899 0.03125,-0.40625 0.0068,-0.102351 0.02264,-0.254433 0,-0.125 0.112342,-0.642259 0.176652,-0.911807 0.1875,-0.9375 0.01085,-0.02569 -0.03075,0.02799 0.21875,-0.21875 0.321258,-0.317694 0.493685,-0.434217 0.78125,-0.53125 0.287565,-0.09703 0.772311,-0.155468 1.625,-0.15625 2.074743,-0.0019 3.348782,0.530103 5.03125,2.21875 0.389753,0.391182 1.496183,1.520132 2.21875,2.34375 0.416797,0.475074 0.815391,0.946641 1.15625,1.3125 0.13,0.139536 0.25354,0.251856 0.4375,0.4375 0.180972,0.18263 0.403219,0.393598 0.6875,0.59375 0.361022,0.254163 0.684467,0.356816 0.78125,0.40625 0.120956,0.06178 0.400883,0.253568 0.78125,0.4375 0.607293,0.293665 1.364519,0.648587 2.125,1 0.771226,0.356379 1.509469,0.66364 2.0625,0.90625 0.231737,0.101661 0.459969,0.226928 0.75,0.34375 0.06466,0.02604 0.18924,0.09341 0.375,0.15625 0.05901,0.01997 0.106329,0.01654 0.15625,0.03125 0.06574,0.0278 0.0742,0.02489 0.09375,0.03125 0.05283,0.01718 0.09137,0.02301 0.125,0.03125 0.01614,0.004 0.04336,-0.0045 0.0625,0 0.06024,0.008 0.150507,0.03121 0.1875,0.03125 0.03058,0.0056 0.05915,0.02636 0.09375,0.03125 0.06705,0.0095 0.102547,0.02693 0.1875,0.03125 0.04512,0.0022 0.09428,8.3e-5 0.15625,0 0.148717,-1.99e-4 0.361301,-0.0142 0.625,-0.0625 0.403927,-0.07398 0.926179,-0.344676 0.65625,-0.21875 0.04333,-0.02021 0.069,-0.03218 0.125,-0.0625 0.014,-0.0076 0.03438,-0.014 0.0625,-0.03125 0.0062,-0.0038 0.0178,-0.0216 0.03125,-0.03125 0.03437,-0.02467 0.06815,-0.04319 0.09375,-0.0625 0.02228,-0.01336 0.01195,-0.01819 0.03125,-0.03125 0.03002,-0.02032 0.03915,-0.01237 0.0625,-0.03125 -0.118967,0.07137 -0.114552,0.08132 0.125,-0.0625 0.02145,-0.01288 0.01226,-0.01851 0.03125,-0.03125 0.09623,-0.05785 0.04708,-0.02428 0.09375,-0.0625 a 1.1750636,1.1750636 0 0 0 0.0625,-0.0625 c 0.01915,-0.02345 0.09537,-0.05715 0.09375,-0.0625 0,0 0.0052,-0.01403 0.03125,-0.03125 a 1.1750636,1.1750636 0 0 0 0.03125,-0.03125 c 0.0041,-0.0028 0.02505,0.0043 0.03125,0 0.0062,-0.0043 0.01468,-0.01903 0.03125,-0.03125 0.0083,-0.0061 0.04033,-0.01339 0.0625,-0.03125 0.01108,-0.0089 0.03118,-0.03118 0.03125,-0.03125 2.2e-5,-2e-5 0.01357,-0.04353 0.03125,-0.0625 -0.01236,0.0115 -0.06175,0.118629 0.125,-0.125 A 1.1750636,1.1750636 0 0 1 67.375,64.28125 1.1750636,1.1750636 0 0 1 67.40625,64.25 c 0.0063,-0.01087 -0.0068,-0.0195 0,-0.03125 0,0 0.01966,-0.01104 0.03125,-0.03125 0.0104,-0.01412 -0.009,-0.01851 0,-0.03125 0.0098,-0.01691 0.02395,-0.0186 0.03125,-0.03125 0,0 0,-0.03125 0,-0.03125 0,0 0.03125,-0.03125 0.03125,-0.03125 0.03981,-0.06864 0.100121,-0.145254 0.125,-0.1875 -0.0071,0.01203 0.19976,-0.258949 0.3125,-0.59375 0.09391,-0.278875 0.108394,-0.513699 0.125,-0.6875 0.0023,-0.02433 -0.0016,-0.0408 0,-0.0625 a 1.1750636,1.1750636 0 0 0 0.03125,-0.09375 c 6.84e-4,-0.0189 -2.23e-4,-0.04454 0,-0.0625 3.98e-4,-0.03207 -0.01078,0.02617 -0.03125,-0.15625 -0.0019,-0.0171 0.0047,-0.06666 0,-0.09375 -0.0014,-0.01346 0.0015,-0.01836 0,-0.03125 -0.02775,-0.234737 -0.06222,-0.561312 -0.0625,-0.5625 0.03982,0.17066 -0.05244,-0.249247 -0.21875,-0.625 C 67.633816,60.573155 67.389026,60.216039 67.5,60.40625 67.306291,60.074225 67.144029,59.850927 67.03125,59.6875 66.194895,58.475469 65.342409,56.48069 65.125,55.5 c 0.01372,0.06187 -0.05365,-0.644801 -0.03125,-1.0625 0.0039,-0.07265 -0.0054,-0.119148 0,-0.1875 0.123161,-0.0055 0.236743,-0.001 0.375,0 0.615519,0.0046 1.481383,0.04451 2.46875,0.15625 2.663571,0.301438 4.37989,0.362496 6.28125,0.21875 4.112145,-0.310869 7.232064,-1.041901 10.40625,-2.59375 0.787175,-0.384859 1.500236,-0.768715 2.1875,-1.375 0.805851,-0.710898 1.236044,-1.567826 1.5,-2.28125 0.211986,-0.572909 0.373363,-1.158479 0.46875,-1.71875 0.04354,-0.255715 0.11146,-0.594352 0.09375,-1 -5.49e-4,-0.01257 6.88e-4,-0.01856 0,-0.03125 -0.0012,-0.02351 -0.02835,-0.05833 -0.03125,-0.09375 -6.38e-4,-0.0078 7.43e-4,-0.02292 0,-0.03125 A 1.1750636,1.1750636 0 0 0 88.8125,45.40625 c -0.0057,-0.04986 0.0098,-0.09458 0,-0.15625 -0.01284,-0.08058 -0.07109,-0.214933 -0.09375,-0.3125 0.06604,-0.101783 0.120859,-0.191146 0.1875,-0.34375 0.186639,-0.427388 0.28125,-0.874616 0.28125,-1.3125 0,-0.285695 -0.05904,-0.512269 -0.09375,-0.6875 -0.01735,-0.08762 -0.01653,-0.16345 -0.03125,-0.21875 0.02438,0.1058 -0.01696,-0.01624 -0.03125,-0.09375 -0.0034,-0.01118 0.0072,-0.0096 0,-0.03125 -0.0042,-0.02494 -0.02578,-0.06471 -0.03125,-0.09375 -0.01772,-0.09404 -0.02755,-0.185016 -0.0625,-0.3125 -0.114053,-0.416044 -0.250449,-0.814915 -0.375,-1.21875 -0.279315,-0.905633 -0.603903,-1.875264 -0.875,-2.59375 -0.616421,-1.633733 -1.21231,-2.953769 -2.09375,-4.09375 -0.901341,-1.165719 -2.049656,-2.022597 -3.3125,-2.625 -2.403653,-1.146603 -5.000649,-1.892236 -9.3125,-2.875 -2.005129,-0.425748 -4.150107,-0.906175 -6.40625,-1.1875 0,0 -0.153301,-0.03125 -0.15625,-0.03125 -1.87e-4,-1.3e-5 -0.187312,3e-6 -0.1875,0 a 1.1750636,1.1750636 0 0 0 -0.03125,0 l -0.09375,0 a 1.1750636,1.1750636 0 0 0 -0.03125,0 c -0.02343,-3e-6 -0.156157,0.03124 -0.15625,0.03125 0,0 -0.02304,-0.0014 -0.03125,0 -0.0086,-2e-6 -0.01953,4e-6 -0.03125,0 -0.01172,-4e-6 -0.05344,0 -0.0625,0 0,0 -0.05711,0.0253 -0.09375,0.03125 -0.01346,0.0017 -0.02047,-0.0013 -0.03125,0 -0.02715,0.0044 -0.03211,-0.0049 -0.0625,0 -0.09372,0.01525 -0.186037,0.03076 -0.1875,0.03125 -0.009,0.003 -0.01954,0.02734 -0.03125,0.03125 -0.03213,0.0096 -0.07583,0.02528 -0.09375,0.03125 -0.02343,0.0078 -0.03116,-2.8e-5 -0.03125,0 -0.01562,0.0039 -0.01943,-0.003 -0.03125,0 -0.0059,0.0015 -0.0276,-9.13e-4 -0.03125,0 -0.0036,9.13e-4 0,0.03125 0,0.03125 -8.9e-5,3.2e-5 -0.101569,0.02344 -0.125,0.03125 -0.02343,0.0078 -0.156163,0.03121 -0.15625,0.03125 0,0 -0.278389,0.154345 -0.28125,0.15625 -0.0089,0.0059 -0.01954,0.02344 -0.03125,0.03125 -0.01995,0.01241 -0.03803,0.01582 -0.0625,0.03125 -0.01557,0.0098 -0.02469,0.02688 -0.03125,0.03125 -0.01388,0.008 -0.03128,2e-5 -0.03125,0 -0.05603,0.03585 -0.24987,0.15615 -0.25,0.15625 -0.0045,0.003 -0.02841,0.02936 -0.03125,0.03125 0,0 -0.157282,0.125629 -0.25,0.21875 l -0.0625,0.0625 a 1.1750636,1.1750636 0 0 0 0,0.03125 c -6.5e-5,6.8e-5 -0.0078,0.0078 -0.03125,0.03125 -0.006,0.009 0.0078,0.01953 0,0.03125 -0.01843,0.01899 -0.07182,0.0081 -0.09375,0.03125 0.0063,-0.0062 0.0069,0.02335 0,0.03125 -0.0085,0.009 -0.03124,0.03123 -0.03125,0.03125 -0.01918,0.02485 -0.07362,0.120928 -0.125,0.1875 -0.0059,0.0077 0.0046,0.02531 0,0.03125 -0.01069,0.01385 -0.06248,0.03122 -0.0625,0.03125 0,0 -0.0533,0.0746 -0.09375,0.15625 -0.01608,0.02056 -0.02756,0.05697 -0.03125,0.0625 -0.0078,0.01171 -0.0253,0.02232 -0.03125,0.03125 -0.002,0.0041 9.4e-5,0.03097 0,0.03125 -0.0018,0.0037 0.0033,0.02451 0,0.03125 -0.0098,-0.0027 -0.02141,0.0027 -0.03125,0 -3.498331,-0.962518 -6.923036,-1.74914 -10.5625,-2.125 -1.54698,-0.159779 -4.139763,-0.220263 -6.625,-0.21875 z" />
    <path
       sodipodi:type="inkscape:offset"
       inkscape:radius="0.99285418"
       inkscape:original="M 46.15625 28.78125 C 44.24875 28.782457 42.517828 28.800536 41.5625 28.90625 C 36.432538 29.474018 31.922096 30.855188 26.9375 33.34375 C 18.917413 37.347789 13.728955 41.982138 10.8125 47.90625 C 9.5183053 50.535068 9.0152141 52.564794 9 55.34375 C 8.9907037 57.087761 9.1372703 58.187337 9.59375 59.625 C 11.288476 64.962435 16.120447 68.771316 21.71875 69.1875 C 27.040299 69.583079 31.32669 67.348939 33.15625 63.03125 C 33.816928 61.472142 33.994125 59.995231 33.8125 58.3125 C 33.360635 54.125556 30.553012 50.808868 26.53125 49.75 C 25.176272 49.393242 23.478201 49.379565 22.125 49.75 C 18.699545 50.687785 16.069848 53.975208 17 57.84375 C 17.833023 61.308356 21.757367 63.396704 25.15625 62.03125 C 25.784008 61.779064 26.39489 61.46437 26.84375 60.875 C 27.29261 60.28563 27.403578 59.452312 27.1875 58.65625 C 26.972265 57.863391 26.458105 57.105492 25.6875 56.8125 C 24.916895 56.519508 24.099585 56.628069 23.21875 56.875 C 22.844165 56.980018 22.9992 57.000872 22.6875 56.71875 C 22.490959 56.540862 22.435588 56.408946 22.4375 56.25 C 22.439412 56.091054 22.488903 55.877727 22.71875 55.65625 C 23.261884 55.132931 24.582243 54.984117 25.90625 55.65625 C 26.448888 55.931728 27.027543 56.532188 27.40625 57.28125 C 27.784957 58.030312 27.964856 58.908668 27.875 59.5625 C 27.647438 61.218262 26.880247 62.153232 25.28125 62.6875 C 24.688675 62.885482 24.686994 62.878664 23.21875 62.875 C 21.625652 62.871007 21.780125 62.918645 20.90625 62.625 C 17.932703 61.625808 15.986921 58.935158 15.96875 55.8125 C 15.95718 53.821743 16.623333 52.355884 18.25 50.75 C 19.716293 49.302446 21.532478 48.592826 24.0625 48.59375 C 27.217992 48.594867 29.690245 49.657186 32 51.96875 C 33.707943 53.678047 35.066615 56.038749 35.5625 58.25 L 35.5625 58.28125 L 35.71875 59.03125 A 1.0036869 1.0036869 0 0 0 36.25 59.75 L 41.125 62.125 A 1.0036869 1.0036869 0 0 0 42.25 61.96875 C 42.556847 61.688076 42.538964 61.534571 42.5625 61.4375 C 42.586036 61.340429 42.589635 61.273049 42.59375 61.21875 C 42.60198 61.110152 42.598342 61.024948 42.59375 60.9375 C 42.584566 60.762604 42.546539 60.603044 42.5 60.40625 C 42.390297 59.942436 42.345436 57.330042 42.46875 56.625 C 42.705845 55.269535 42.907776 54.835664 43.5 54.25 C 44.430646 53.329681 45.454341 52.939291 47.40625 52.9375 C 49.959392 52.93522 52.027734 53.832991 54 55.8125 C 54.441711 56.255831 55.50341 57.363379 56.28125 58.25 C 56.684831 58.710009 57.085381 59.155596 57.40625 59.5 C 57.566684 59.672202 57.694744 59.818666 57.8125 59.9375 C 57.930256 60.056334 57.973859 60.099583 58.1875 60.25 C 58.389708 60.392356 58.481423 60.425992 58.6875 60.53125 C 58.893577 60.636508 59.137874 60.761362 59.4375 60.90625 C 60.036752 61.196027 60.787905 61.562755 61.53125 61.90625 C 62.274595 62.249745 63.00468 62.567789 63.5625 62.8125 C 63.84141 62.934855 64.069228 63.052186 64.25 63.125 C 64.340386 63.161407 64.419705 63.191585 64.5 63.21875 C 64.540147 63.232333 64.579832 63.232701 64.65625 63.25 C 64.694459 63.25865 64.739699 63.275964 64.84375 63.28125 C 64.895776 63.283893 64.976675 63.302692 65.09375 63.28125 C 65.152287 63.270529 65.312055 63.187694 65.3125 63.1875 C 65.312945 63.187306 65.624725 63.000276 65.625 63 C 65.625535 62.999464 65.741516 62.848719 65.78125 62.78125 C 65.820984 62.713781 65.855164 62.652657 65.875 62.59375 C 65.914672 62.475937 65.903172 62.386026 65.90625 62.3125 C 65.912406 62.165449 65.889462 62.093242 65.875 62.03125 C 65.846075 61.907266 65.836693 61.835909 65.8125 61.78125 C 65.764114 61.671932 65.709748 61.591697 65.65625 61.5 C 65.549255 61.316607 65.401966 61.126462 65.25 60.90625 C 64.221299 59.415474 63.317642 57.401573 63 55.96875 C 62.809633 55.10999 62.961957 53.396987 63.09375 53.09375 C 63.275421 52.675732 63.762804 52.254701 64.09375 52.15625 C 64.407271 52.062974 66.087324 52.012315 68.1875 52.25 C 70.786652 52.544148 72.302454 52.601812 74.0625 52.46875 C 78.001962 52.170935 80.722582 51.496761 83.65625 50.0625 C 84.416979 49.69057 84.934614 49.419746 85.375 49.03125 C 85.815386 48.642754 86.09535 48.127452 86.28125 47.625 C 86.454191 47.157614 86.590223 46.700319 86.65625 46.3125 C 86.689264 46.118591 86.699753 45.976036 86.6875 45.75 C 86.681373 45.636982 86.695007 45.503733 86.59375 45.28125 C 86.508489 45.093913 86.14314 44.844587 85.78125 44.75 C 86.004969 44.592871 86.206621 44.44935 86.375 44.3125 C 86.469189 44.235947 86.567704 44.18334 86.65625 44.09375 C 86.700523 44.048955 86.750511 43.99288 86.8125 43.90625 C 86.874489 43.81962 87 43.727847 87 43.28125 C 87 42.996085 86.96606 42.9677 86.9375 42.84375 C 86.90894 42.7198 86.888181 42.568324 86.84375 42.40625 C 86.754889 42.082102 86.633795 41.683808 86.5 41.25 C 86.232411 40.382384 85.90053 39.428664 85.65625 38.78125 C 85.070698 37.229332 84.55255 36.126286 83.875 35.25 C 83.19745 34.373714 82.368715 33.77018 81.34375 33.28125 C 79.156993 32.238112 76.764225 31.534409 72.5 30.5625 C 70.474579 30.132443 68.396698 29.670031 66.28125 29.40625 A 1.0036869 1.0036869 0 0 0 65.15625 30.375 L 65.125 31.625 C 60.825373 30.342083 56.851524 29.411692 52.5625 28.96875 C 51.246859 28.832865 48.612955 28.779754 46.15625 28.78125 z "
       style="opacity:0.1;fill:#000000"
       id="path3901"
       d="m 46.15625,27.78125 c -1.913393,0.0012 -3.614164,0.0062 -4.6875,0.125 -5.2417,0.580135 -9.901352,2.032599 -14.96875,4.5625 -8.140902,4.064356 -13.561825,8.841337 -16.59375,15 -1.3386089,2.719034 -1.8903944,4.978868 -1.90625,7.875 -0.0096,1.801859 0.1741317,3.075339 0.65625,4.59375 1.818228,5.726397 6.997191,9.803745 13,10.25 5.636453,0.418987 10.407346,-2.063915 12.40625,-6.78125 0.5514,-1.301226 0.74969,-2.594149 0.75,-3.9375 0.01051,0.0318 0.03121,0.06238 0.03125,0.0625 7.1e-5,1.96e-4 0.03117,0.124809 0.03125,0.125 8.2e-5,1.91e-4 0.03116,0.09356 0.03125,0.09375 9.3e-5,1.86e-4 0.0624,0.09357 0.0625,0.09375 1.04e-4,1.81e-4 0.06239,0.09358 0.0625,0.09375 1.14e-4,1.74e-4 0.06238,0.09358 0.0625,0.09375 1.24e-4,1.67e-4 0.09362,0.09359 0.09375,0.09375 1.33e-4,1.6e-4 0.06236,0.0936 0.0625,0.09375 1.42e-4,1.52e-4 0.0936,0.09361 0.09375,0.09375 1.51e-4,1.44e-4 0.06234,0.06236 0.0625,0.0625 1.59e-4,1.35e-4 0.09358,0.06238 0.09375,0.0625 1.66e-4,1.25e-4 0.09358,0.09363 0.09375,0.09375 1.73e-4,1.16e-4 0.09357,0.0624 0.09375,0.0625 1.8e-4,1.05e-4 0.124815,0.03115 0.125,0.03125 a 0.99295346,0.99295346 0 0 0 0,0.03125 l 4.875,2.375 0,-0.03125 c 2.43e-4,1.21e-4 0.124749,0.0624 0.125,0.0625 2.51e-4,1.03e-4 0.155992,0.06242 0.15625,0.0625 2.58e-4,8.4e-5 0.124736,0.03119 0.125,0.03125 2.64e-4,6.4e-5 0.155982,0.03121 0.15625,0.03125 2.68e-4,4.4e-5 0.15598,0.03123 0.15625,0.03125 2.7e-4,2.4e-5 0.155979,-3e-6 0.15625,0 2.71e-4,3e-6 0.124729,1.7e-5 0.125,0 2.71e-4,-1.7e-5 0.155981,3.7e-5 0.15625,0 2.69e-4,-3.7e-5 0.155985,-0.03119 0.15625,-0.03125 2.65e-4,-5.7e-5 0.15599,-0.03117 0.15625,-0.03125 2.6e-4,-7.7e-5 0.124746,-0.0624 0.125,-0.0625 2.54e-4,-9.7e-5 0.124754,-0.06238 0.125,-0.0625 2.46e-4,-1.15e-4 0.156014,-0.06237 0.15625,-0.0625 2.36e-4,-1.33e-4 0.124774,-0.0936 0.125,-0.09375 2.26e-4,-1.51e-4 0.124786,-0.06233 0.125,-0.0625 2.14e-4,-1.67e-4 0.09355,-0.124817 0.09375,-0.125 0.227025,-0.207661 0.42856,-0.417576 0.53125,-0.65625 0.10269,-0.238674 0.123791,-0.498901 0.09375,-0.375 0.04287,-0.176796 0.05977,-0.338918 0.0625,-0.375 0.01285,-0.169601 0.0049,-0.312499 0,-0.40625 -0.01505,-0.286639 -0.07868,-0.491615 -0.125,-0.6875 0.01714,0.07246 -0.01463,-0.229746 -0.03125,-0.53125 -0.01662,-0.301504 -0.05789,-0.675105 -0.0625,-1.0625 -0.0092,-0.77479 0.04022,-1.685107 0.0625,-1.8125 0.226805,-1.296638 0.251862,-1.319879 0.75,-1.8125 0.771628,-0.763066 1.398906,-1.02958 3.21875,-1.03125 2.319916,-0.0021 4.041761,0.722528 5.875,2.5625 0.419605,0.421144 1.497209,1.548181 2.25,2.40625 0.40874,0.46589 0.82515,0.925865 1.15625,1.28125 0.148659,0.159563 0.254716,0.284579 0.40625,0.4375 0.119232,0.120324 0.296353,0.272118 0.53125,0.4375 0.257565,0.181328 0.448889,0.253798 0.625,0.34375 0.205908,0.105172 0.439541,0.256123 0.75,0.40625 0.596434,0.288414 1.368583,0.650465 2.125,1 0.756216,0.349443 1.47547,0.662434 2.03125,0.90625 0.247217,0.108452 0.463264,0.209592 0.71875,0.3125 0.100738,0.04058 0.20878,0.08991 0.3125,0.125 0.223142,0.0755 0.242818,0.06087 0.25,0.0625 -0.07546,-0.01708 0.144548,0.05238 0.34375,0.0625 -0.134137,-0.0068 0.202051,0.02332 0.5,-0.03125 0.317533,-0.05816 0.306115,-0.09286 0.375,-0.125 0.06888,-0.03214 0.06228,-0.03115 0.0625,-0.03125 0,0 0.09106,-0.06089 0.09375,-0.0625 0.0027,-0.0016 0.02687,0.0026 0.03125,0 0.0088,-0.0053 0.01654,-0.02243 0.03125,-0.03125 0.02941,-0.01763 0.05467,-0.03905 0.09375,-0.0625 0.03908,-0.02345 0.09557,-0.04483 0.125,-0.0625 0.01472,-0.0088 0.0224,-0.02593 0.03125,-0.03125 L 65.625,63 l 0.6875,0.6875 c 0,0 0.09187,-0.06009 0.09375,-0.0625 0.0019,-0.0024 -0.001,-0.02994 0,-0.03125 0.0045,-0.0059 0.02438,-0.02218 0.03125,-0.03125 0.01375,-0.01814 0.042,-0.03468 0.0625,-0.0625 0.04099,-0.05564 0.05486,-0.09964 0.125,-0.21875 0.04645,-0.07887 0.123871,-0.186042 0.1875,-0.375 0.106946,-0.317596 0.09641,-0.626024 0.09375,-0.5625 0.01104,-0.263626 -0.06207,-0.529402 -0.0625,-0.53125 -0.02057,-0.08816 -0.0098,-0.177265 -0.125,-0.4375 C 66.631731,61.1784 66.532995,61.056554 66.5,61 66.343675,60.732053 66.195879,60.537028 66.0625,60.34375 65.116825,58.973294 64.242821,56.986283 63.96875,55.75 c -0.05289,-0.238571 -0.09055,-0.852057 -0.0625,-1.375 0.01402,-0.261471 0.03743,-0.505463 0.0625,-0.6875 C 63.993821,53.505463 64.075395,53.326527 64,53.5 c 0.01004,-0.02309 0.114498,-0.154779 0.21875,-0.25 0.104252,-0.09522 0.233853,-0.179336 0.15625,-0.15625 -0.130373,0.03879 0.04583,0.01233 0.25,0 0.204172,-0.01233 0.501092,-0.03381 0.84375,-0.03125 0.685316,0.0051 1.58089,0.07287 2.59375,0.1875 2.627605,0.297368 4.238223,0.356668 6.0625,0.21875 4.017509,-0.303715 6.927776,-1.013278 9.96875,-2.5 0.771924,-0.377403 1.379334,-0.695102 1.9375,-1.1875 0.610462,-0.538532 0.965691,-1.212992 1.1875,-1.8125 0.187281,-0.506142 0.324028,-1.017055 0.40625,-1.5 0.04069,-0.238979 0.07763,-0.502104 0.0625,-0.78125 4.66e-4,0.0086 -0.01041,-0.423397 -0.1875,-0.8125 -0.03121,-0.06858 -0.06108,-0.07035 -0.09375,-0.125 0.06866,-0.07193 0.137745,-0.168045 0.21875,-0.28125 -0.05699,0.07964 0.111594,-0.09837 0.21875,-0.34375 C 87.950906,43.879621 88,43.597559 88,43.28125 c 0,-0.363944 -0.09639,-0.667692 -0.09375,-0.65625 -0.01246,-0.05406 -0.02846,-0.230601 -0.09375,-0.46875 -0.09484,-0.345957 -0.240487,-0.751365 -0.375,-1.1875 -0.275337,-0.892736 -0.590632,-1.860413 -0.84375,-2.53125 -0.59899,-1.587534 -1.163158,-2.779781 -1.9375,-3.78125 -0.782249,-1.011695 -1.751173,-1.745161 -2.875,-2.28125 -2.28417,-1.089606 -4.775495,-1.804149 -9.0625,-2.78125 -2.018931,-0.428679 -4.134892,-0.915968 -6.3125,-1.1875 -1.86e-4,-2.3e-5 -0.09356,1.3e-5 -0.09375,0 -1.87e-4,-1.3e-5 -0.124812,3e-6 -0.125,0 -1.88e-4,-3e-6 -0.09356,-6e-6 -0.09375,0 -1.88e-4,6e-6 -0.09356,-1.6e-5 -0.09375,0 -1.87e-4,1.6e-5 -0.124814,0.03122 -0.125,0.03125 -1.86e-4,2.6e-5 -0.09357,-3.6e-5 -0.09375,0 -1.84e-4,3.6e-5 -0.09357,0.0312 -0.09375,0.03125 -1.82e-4,4.5e-5 -0.09357,0.0312 -0.09375,0.03125 -1.8e-4,5.5e-5 -0.124823,0.03119 -0.125,0.03125 -1.77e-4,6.4e-5 -0.09358,0.03118 -0.09375,0.03125 -1.73e-4,7.3e-5 -0.09358,0.03117 -0.09375,0.03125 -1.69e-4,8.2e-5 -0.09359,0.06241 -0.09375,0.0625 -1.65e-4,9.1e-5 -0.09359,0.0624 -0.09375,0.0625 -1.6e-4,9.9e-5 -0.06235,0.03114 -0.0625,0.03125 -1.54e-4,1.07e-4 -0.0936,0.06238 -0.09375,0.0625 -1.49e-4,1.15e-4 -0.09361,0.06238 -0.09375,0.0625 -1.42e-4,1.23e-4 -0.06236,0.09362 -0.0625,0.09375 -1.36e-4,1.3e-4 -0.06237,0.06236 -0.0625,0.0625 -1.29e-4,1.37e-4 -0.09363,0.09361 -0.09375,0.09375 -1.22e-4,1.43e-4 -0.06239,0.06235 -0.0625,0.0625 -1.14e-4,1.49e-4 -0.06239,0.0936 -0.0625,0.09375 -1.06e-4,1.55e-4 -0.03115,0.09359 -0.03125,0.09375 -9.8e-5,1.6e-4 -0.06241,0.06234 -0.0625,0.0625 -8.9e-5,1.65e-4 -0.06242,0.09358 -0.0625,0.09375 -8.1e-5,1.7e-4 -0.03118,0.09358 -0.03125,0.09375 -7.2e-5,1.74e-4 -0.03119,0.124823 -0.03125,0.125 -6.3e-5,1.77e-4 -0.0312,0.09357 -0.03125,0.09375 -5.3e-5,1.8e-4 -0.03121,0.09357 -0.03125,0.09375 -4.4e-5,1.83e-4 -0.03122,0.09357 -0.03125,0.09375 -3.4e-5,1.85e-4 2.5e-5,0.124814 0,0.125 -2.5e-5,1.86e-4 -0.03123,0.09356 -0.03125,0.09375 -1.5e-5,1.87e-4 5e-6,0.09356 0,0.09375 -3.859693,-1.102778 -7.563301,-1.968444 -11.5,-2.375 -1.424046,-0.147082 -4.028553,-0.189005 -6.5,-0.1875 z" />
    <path
       sodipodi:type="inkscape:offset"
       inkscape:radius="1.0035865"
       inkscape:original="M 46.15625 29.78125 C 44.259725 29.78245 42.515167 29.814663 41.6875 29.90625 C 36.669495 30.461627 32.27631 31.803018 27.375 34.25 C 19.47538 38.193895 14.51983 42.653996 11.71875 48.34375 C 10.46454 50.89135 10.01461 52.675145 10 55.34375 C 9.991 57.032174 10.12645 57.93918 10.5625 59.3125 C 12.1332 64.259324 16.59366 67.801849 21.78125 68.1875 C 26.80111 68.560653 30.55254 66.557189 32.21875 62.625 C 32.82284 61.199432 32.98088 59.966268 32.8125 58.40625 C 32.40079 54.591381 29.92777 51.678823 26.28125 50.71875 C 25.16467 50.424761 23.47092 50.418745 22.375 50.71875 C 19.37022 51.541367 17.16495 54.250711 17.96875 57.59375 C 18.65071 60.430072 21.97873 62.219624 24.78125 61.09375 C 25.90037 60.644171 26.54291 60.100499 26.21875 58.90625 C 25.88835 57.689157 25.06516 57.404977 23.5 57.84375 C 22.88393 58.016471 22.46096 57.885969 22 57.46875 C 21.22665 56.768797 21.23869 55.701197 22.03125 54.9375 C 22.99605 54.007899 24.76437 53.932362 26.375 54.75 C 27.96898 55.559208 29.12665 57.856389 28.875 59.6875 C 28.60485 61.65314 27.48435 62.9933 25.59375 63.625 C 24.96255 63.835887 24.70654 63.878713 23.21875 63.875 C 21.6229 63.871 21.49132 63.864107 20.59375 63.5625 C 17.22672 62.431087 14.98936 59.354389 14.96875 55.8125 C 14.95575 53.575776 15.7676 51.772367 17.53125 50.03125 C 19.18912 48.394567 21.33556 47.592754 24.0625 47.59375 C 27.45237 47.59495 30.25413 48.78345 32.71875 51.25 C 34.57355 53.10627 35.99154 55.623764 36.53125 58.0625 L 36.6875 58.84375 L 41.5625 61.21875 C 41.60154 61.18304 41.58403 60.848186 41.53125 60.625 C 41.331762 59.781584 41.295004 57.430881 41.46875 56.4375 C 41.721446 54.992845 42.052541 54.251888 42.78125 53.53125 C 43.904749 52.420218 45.301888 51.939431 47.40625 51.9375 C 50.205339 51.935 52.594619 52.961818 54.71875 55.09375 C 55.195382 55.572131 56.236272 56.687594 57.03125 57.59375 C 57.826236 58.499888 58.601136 59.33269 58.75 59.4375 C 59.167668 59.731542 64.835832 62.351782 64.90625 62.28125 C 64.94047 62.24696 64.720013 61.878137 64.4375 61.46875 C 63.331748 59.866312 62.390228 57.80678 62.03125 56.1875 C 61.785676 55.079699 61.863668 53.432589 62.1875 52.6875 C 62.490678 51.989898 63.128908 51.390857 63.8125 51.1875 C 64.54474 50.969651 66.167624 51.007256 68.3125 51.25 C 70.884935 51.541124 72.30375 51.596989 74 51.46875 C 77.862968 51.176718 80.387539 50.54042 83.21875 49.15625 C 84.69839 48.432835 85.023722 48.146226 85.34375 47.28125 C 85.648908 46.456536 85.78057 45.65625 85.625 45.65625 C 85.56996 45.65625 85.049358 45.88188 84.46875 46.15625 C 82.290098 47.185779 80.410668 47.651211 78.75 47.5625 C 77.023642 47.47028 74.199309 46.5198 70.84375 44.90625 L 69.3125 44.15625 L 68.0625 41.1875 L 69.25 41.90625 C 71.165996 43.178534 74.267756 44.715254 76.15625 45.3125 C 79.04134 46.224911 81.333075 46.089667 83.65625 44.90625 C 84.475097 44.48914 86 43.427004 86 43.28125 C 86 43.006515 85.176038 40.336947 84.71875 39.125 C 83.575218 36.094241 82.790792 35.086466 80.90625 34.1875 C 78.814018 33.189453 76.520719 32.497517 72.28125 31.53125 C 70.254359 31.100881 68.213341 30.662754 66.15625 30.40625 L 66.09375 32.9375 C 61.301137 31.447043 57.111583 30.448231 52.46875 29.96875 C 51.268999 29.844835 48.594654 29.779765 46.15625 29.78125 z M 77.9375 34.9375 C 79.48576 34.9336 80.948318 35.716094 81.8125 37.15625 C 83.286034 39.611951 82.069018 42.788457 79.3125 43.71875 C 77.493344 44.332699 75.350719 43.601993 74.25 42 C 73.34657 40.685164 73.187634 38.986121 73.84375 37.5625 C 74.216558 36.753572 75.091257 35.805549 75.8125 35.4375 C 76.49302 35.090189 77.233734 34.939291 77.9375 34.9375 z M 77.875 36.25 C 77.149449 36.26535 76.405337 36.528878 75.78125 37.09375 C 74.828378 37.956149 74.512603 39.497926 75.0625 40.6875 C 75.513966 41.66418 76.377363 42.336923 77.375 42.5 C 78.789713 42.731276 80.131338 42.095149 80.71875 40.875 C 81.120561 40.040318 81.20119 39.44299 81 38.65625 C 80.600641 37.094589 79.260115 36.220649 77.875 36.25 z M 78.625 37.84375 C 79.162853 37.84375 79.793987 38.176694 79.875 38.5 C 79.985061 38.939349 79.832643 39.250822 79.40625 39.46875 C 78.747831 39.805273 77.901854 39.716423 77.40625 39.25 C 76.795248 38.674942 77.519665 37.84375 78.625 37.84375 z "
       style="opacity:0.15;fill:#000000"
       id="path3897"
       d="m 46.15625,28.78125 c -1.9075,0.0012 -3.638422,0.01929 -4.59375,0.125 -5.129962,0.567768 -9.640404,1.948938 -14.625,4.4375 -8.020087,4.004039 -13.208545,8.638388 -16.125,14.5625 -1.2941947,2.628818 -1.7972859,4.658544 -1.8125,7.4375 -0.0093,1.744011 0.1372703,2.843587 0.59375,4.28125 1.694726,5.337435 6.526697,9.146316 12.125,9.5625 5.321549,0.395579 9.60794,-1.838561 11.4375,-6.15625 0.660678,-1.559108 0.837875,-3.036019 0.65625,-4.71875 -0.451865,-4.186944 -3.259488,-7.503632 -7.28125,-8.5625 -1.354978,-0.356758 -3.053049,-0.370435 -4.40625,0 -3.425455,0.937785 -6.055152,4.225208 -5.125,8.09375 0.833023,3.464606 4.757367,5.552954 8.15625,4.1875 0.627758,-0.252186 1.23864,-0.56688 1.6875,-1.15625 0.44886,-0.58937 0.559828,-1.422688 0.34375,-2.21875 -0.215235,-0.792859 -0.729395,-1.550758 -1.5,-1.84375 -0.770605,-0.292992 -1.587915,-0.184431 -2.46875,0.0625 -0.374585,0.105018 -0.21955,0.125872 -0.53125,-0.15625 -0.196541,-0.177888 -0.251912,-0.309804 -0.25,-0.46875 0.0019,-0.158946 0.0514,-0.372273 0.28125,-0.59375 0.543134,-0.523319 1.863493,-0.672133 3.1875,0 0.542638,0.275478 1.121293,0.875938 1.5,1.625 0.378707,0.749062 0.558606,1.627418 0.46875,2.28125 -0.227562,1.655762 -0.994753,2.590732 -2.59375,3.125 -0.592575,0.197982 -0.594256,0.191164 -2.0625,0.1875 -1.593098,-0.004 -1.438625,0.04364 -2.3125,-0.25 -2.973547,-0.999192 -4.919329,-3.689842 -4.9375,-6.8125 -0.01157,-1.990757 0.654583,-3.456616 2.28125,-5.0625 1.466293,-1.447554 3.282478,-2.157174 5.8125,-2.15625 3.155492,0.0011 5.627745,1.063436 7.9375,3.375 1.707943,1.709297 3.066615,4.069999 3.5625,6.28125 l 0,0.03125 0.15625,0.75 A 1.0036869,1.0036869 0 0 0 36.25,59.75 l 4.875,2.375 a 1.0036869,1.0036869 0 0 0 1.125,-0.15625 c 0.306847,-0.280674 0.288964,-0.434179 0.3125,-0.53125 0.02354,-0.09707 0.02714,-0.164451 0.03125,-0.21875 0.0082,-0.108598 0.0046,-0.193802 0,-0.28125 C 42.584566,60.762604 42.546539,60.603044 42.5,60.40625 42.390297,59.942436 42.345436,57.330042 42.46875,56.625 42.705845,55.269535 42.907776,54.835664 43.5,54.25 c 0.930646,-0.920319 1.954341,-1.310709 3.90625,-1.3125 2.553142,-0.0023 4.621484,0.895491 6.59375,2.875 0.441711,0.443331 1.50341,1.550879 2.28125,2.4375 0.403581,0.460009 0.804131,0.905596 1.125,1.25 0.160434,0.172202 0.288494,0.318666 0.40625,0.4375 0.117756,0.118834 0.161359,0.162083 0.375,0.3125 0.202208,0.142356 0.293923,0.175992 0.5,0.28125 0.206077,0.105258 0.450374,0.230112 0.75,0.375 0.599252,0.289777 1.350405,0.656505 2.09375,1 0.743345,0.343495 1.47343,0.661539 2.03125,0.90625 0.27891,0.122355 0.506728,0.239686 0.6875,0.3125 0.09039,0.03641 0.169705,0.06659 0.25,0.09375 0.04015,0.01358 0.07983,0.01395 0.15625,0.03125 0.03821,0.0087 0.08345,0.02596 0.1875,0.03125 0.05203,0.0026 0.132925,0.02144 0.25,0 0.05854,-0.01072 0.218305,-0.09356 0.21875,-0.09375 4.45e-4,-1.94e-4 0.312225,-0.187224 0.3125,-0.1875 5.35e-4,-5.36e-4 0.116516,-0.151281 0.15625,-0.21875 0.03973,-0.06747 0.07391,-0.128593 0.09375,-0.1875 0.03967,-0.117813 0.02817,-0.207724 0.03125,-0.28125 0.0062,-0.147051 -0.01679,-0.219258 -0.03125,-0.28125 -0.02893,-0.123984 -0.03831,-0.195341 -0.0625,-0.25 C 65.764114,61.671932 65.709748,61.591697 65.65625,61.5 65.549255,61.316607 65.401966,61.126462 65.25,60.90625 64.221299,59.415474 63.317642,57.401573 63,55.96875 c -0.190367,-0.85876 -0.03804,-2.571763 0.09375,-2.875 0.181671,-0.418018 0.669054,-0.839049 1,-0.9375 0.313521,-0.09328 1.993574,-0.143935 4.09375,0.09375 2.599152,0.294148 4.114954,0.351812 5.875,0.21875 3.939462,-0.297815 6.660082,-0.971989 9.59375,-2.40625 0.760729,-0.37193 1.278364,-0.642754 1.71875,-1.03125 0.440386,-0.388496 0.72035,-0.903798 0.90625,-1.40625 0.172941,-0.467386 0.308973,-0.924681 0.375,-1.3125 0.03301,-0.193909 0.0435,-0.336464 0.03125,-0.5625 -0.0061,-0.113018 0.0075,-0.246267 -0.09375,-0.46875 -0.08526,-0.187337 -0.45061,-0.436663 -0.8125,-0.53125 0.223719,-0.157129 0.425371,-0.30065 0.59375,-0.4375 0.09419,-0.07655 0.192704,-0.12916 0.28125,-0.21875 0.04427,-0.0448 0.09426,-0.10087 0.15625,-0.1875 C 86.874489,43.81962 87,43.727847 87,43.28125 87,42.996085 86.96606,42.9677 86.9375,42.84375 86.90894,42.7198 86.888181,42.568324 86.84375,42.40625 86.754889,42.082102 86.633795,41.683808 86.5,41.25 86.232411,40.382384 85.90053,39.428664 85.65625,38.78125 85.070698,37.229332 84.55255,36.126286 83.875,35.25 83.19745,34.373714 82.368715,33.77018 81.34375,33.28125 79.156993,32.238112 76.764225,31.534409 72.5,30.5625 70.474579,30.132443 68.396698,29.670031 66.28125,29.40625 a 1.0036869,1.0036869 0 0 0 -1.125,0.96875 l -0.03125,1.25 c -4.299627,-1.282917 -8.273476,-2.213308 -12.5625,-2.65625 -1.315641,-0.135885 -3.949545,-0.188996 -6.40625,-0.1875 z" />
    <path
       style="fill:#000000;opacity:0.3"
       id="path3889"
       d="m 46.170834,29.781644 c -1.896525,0.0012 -3.654064,0.04475 -4.481731,0.136337 -5.018005,0.555377 -9.423765,1.890706 -14.325075,4.337688 -7.89962,3.943895 -12.85966,8.407717 -15.66074,14.097471 -1.25421,2.5476 -1.6882,4.332578 -1.70281,7.001183 -0.009,1.688424 0.11466,2.583853 0.55071,3.957173 1.5707,4.946824 6.04839,8.476806 11.23598,8.862457 5.01986,0.373153 8.75001,-1.613593 10.41622,-5.545782 0.60409,-1.425568 0.78557,-2.663503 0.61719,-4.223521 -0.41171,-3.814869 -2.87983,-6.71648 -6.52635,-7.676553 -1.11658,-0.293989 -2.83509,-0.303205 -3.93101,-0.0032 -3.00478,0.822617 -5.19059,3.531292 -4.38679,6.874331 0.68196,2.836322 3.99605,4.613778 6.79857,3.487904 1.11912,-0.449579 1.7706,-0.993608 1.44644,-2.187857 -0.3304,-1.217093 -1.14732,-1.504171 -2.71248,-1.065398 -0.61607,0.172721 -1.05192,0.06209 -1.51288,-0.355129 -0.77335,-0.699953 -0.76096,-1.769796 0.0316,-2.533493 0.9648,-0.929601 2.72866,-1.007891 4.33929,-0.190253 1.59398,0.809208 2.75839,3.099526 2.50674,4.930637 -0.27015,1.96564 -1.3979,3.32231 -3.2885,3.95401 -0.6312,0.210887 -0.89236,0.23519 -2.38015,0.231477 -1.59585,-0.004 -1.71361,-0.01865 -2.61118,-0.320257 -3.36703,-1.131413 -5.59104,-4.198084 -5.61165,-7.739973 -0.013,-2.236724 0.78108,-4.042467 2.54473,-5.783584 1.65787,-1.636683 3.7994,-2.436167 6.52634,-2.435171 3.38987,0.0012 6.2045,1.18622 8.66912,3.65277 1.8548,1.85627 3.25521,4.372185 3.79492,6.810921 l 0.17091,0.77368 4.867874,2.387632 c 0.03904,-0.03571 0.02746,-0.363429 -0.02532,-0.586615 -0.199488,-0.843416 -0.230726,-3.19208 -0.05698,-4.185461 0.252696,-1.444655 0.594286,-2.196532 1.322995,-2.91717 1.123499,-1.111032 2.510298,-1.589824 4.61466,-1.591755 2.799089,-0.0025 5.17451,1.02304 7.298641,3.154972 0.476632,0.478381 1.515527,1.61148 2.310505,2.517636 0.794986,0.906138 1.566596,1.734268 1.71546,1.839078 0.417668,0.294042 6.091979,2.892561 6.162397,2.822029 0.03422,-0.03429 -0.166947,-0.395995 -0.44946,-0.805382 -1.105752,-1.602438 -2.043302,-3.666485 -2.40228,-5.285765 -0.245574,-1.107801 -0.178229,-2.742807 0.145603,-3.487896 0.303178,-0.697602 0.949567,-1.286933 1.633159,-1.49029 0.73224,-0.217849 2.330556,-0.204694 4.475432,0.03805 2.572435,0.291124 3.994528,0.347005 5.690778,0.218766 3.862968,-0.292032 6.391783,-0.927331 9.222994,-2.311501 1.47964,-0.723415 1.794228,-1.00265 2.114256,-1.867626 0.305158,-0.824714 0.44992,-1.613952 0.29435,-1.613952 -0.05504,0 -0.574632,0.223457 -1.15524,0.497827 -2.178652,1.029529 -4.049113,1.48704 -5.709781,1.398329 -1.726358,-0.09222 -4.553941,-1.040431 -7.9095,-2.653981 l -1.528739,-0.735637 -1.247015,-2.986889 1.164734,0.72609 c 1.915996,1.272284 5.014514,2.795543 6.903008,3.392789 2.88509,0.912411 5.181184,0.793406 7.504359,-0.390011 0.818847,-0.41711 2.354836,-1.471369 2.354836,-1.617123 0,-0.274735 -0.821414,-2.944992 -1.278702,-4.156939 -1.143532,-3.030759 -1.923027,-4.041175 -3.807569,-4.940141 -2.092232,-0.998047 -4.397995,-1.713084 -8.637464,-2.679351 -2.026891,-0.430369 -4.064145,-0.846937 -6.121236,-1.103441 l -0.05065,2.511294 C 61.31174,31.436621 57.118435,30.451346 52.475602,29.971865 51.275851,29.84795 48.609203,29.780126 46.170799,29.781611 z m 31.755102,5.14307 c 1.54826,-0.0039 3.025687,0.792104 3.889869,2.23226 1.473534,2.455701 0.265606,5.64599 -2.490912,6.576283 -1.819156,0.613949 -3.985545,-0.119766 -5.086264,-1.721759 -0.90343,-1.314836 -1.054913,-3.012353 -0.398797,-4.435974 0.372808,-0.808928 1.260094,-1.765908 1.981337,-2.133957 0.68052,-0.347311 1.401001,-0.515062 2.104767,-0.516853 z m -0.05065,1.31273 c -0.725551,0.01535 -1.46484,0.284904 -2.088927,0.849776 -0.952872,0.862399 -1.258883,2.42199 -0.708986,3.611564 0.451466,0.97668 1.306541,1.650626 2.304178,1.813703 1.414713,0.231276 2.754888,-0.428668 3.3423,-1.648817 0.401811,-0.834682 0.473387,-1.407468 0.272197,-2.194208 -0.399359,-1.561661 -1.735647,-2.461369 -3.120762,-2.432018 z m 0.740629,1.613943 c 0.537853,0 1.185018,0.336218 1.266031,0.659524 0.110061,0.439349 -0.03887,0.742834 -0.465263,0.960762 -0.658419,0.336523 -1.504729,0.241305 -2.000333,-0.225118 -0.611002,-0.575058 0.09423,-1.395168 1.199565,-1.395168 z" />
    <path
       d="m 46.170834,28.781644 c -1.896525,0.0012 -3.654064,0.04475 -4.481731,0.136337 -5.018005,0.555377 -9.423765,1.890706 -14.325075,4.337688 -7.89962,3.943895 -12.85966,8.407717 -15.66074,14.097471 -1.25421,2.5476 -1.6882,4.332578 -1.70281,7.001183 -0.009,1.688424 0.11466,2.583853 0.55071,3.957173 1.5707,4.946824 6.04839,8.476806 11.23598,8.862457 5.01986,0.373153 8.75001,-1.613593 10.41622,-5.545782 0.60409,-1.425568 0.78557,-2.663503 0.61719,-4.223521 -0.41171,-3.814869 -2.87983,-6.71648 -6.52635,-7.676553 -1.11658,-0.293989 -2.83509,-0.303205 -3.93101,-0.0032 -3.00478,0.822617 -5.19059,3.531292 -4.38679,6.874331 0.68196,2.836322 3.99605,4.613778 6.79857,3.487904 1.11912,-0.449579 1.7706,-0.993608 1.44644,-2.187857 -0.3304,-1.217093 -1.14732,-1.504171 -2.71248,-1.065398 -0.61607,0.172721 -1.05192,0.06209 -1.51288,-0.355129 -0.77335,-0.699953 -0.76096,-1.769796 0.0316,-2.533493 0.9648,-0.929601 2.72866,-1.007891 4.33929,-0.190253 1.59398,0.809208 2.75839,3.099526 2.50674,4.930637 -0.27015,1.96564 -1.3979,3.32231 -3.2885,3.95401 -0.6312,0.210887 -0.89236,0.23519 -2.38015,0.231477 -1.59585,-0.004 -1.71361,-0.01865 -2.61118,-0.320257 -3.36703,-1.131413 -5.59104,-4.198084 -5.61165,-7.739973 -0.013,-2.236724 0.78108,-4.042467 2.54473,-5.783584 1.65787,-1.636683 3.7994,-2.436167 6.52634,-2.435171 3.38987,0.0012 6.2045,1.18622 8.66912,3.65277 1.8548,1.85627 3.25521,4.372185 3.79492,6.810921 l 0.17091,0.77368 4.867874,2.387632 c 0.03904,-0.03571 0.02746,-0.363429 -0.02532,-0.586615 -0.199488,-0.843416 -0.230726,-3.19208 -0.05698,-4.185461 0.252696,-1.444655 0.594286,-2.196532 1.322995,-2.91717 1.123499,-1.111032 2.510298,-1.589824 4.61466,-1.591755 2.799089,-0.0025 5.17451,1.02304 7.298641,3.154972 0.476632,0.478381 1.515527,1.61148 2.310505,2.517636 0.794986,0.906138 1.566596,1.734268 1.71546,1.839078 0.417668,0.294042 6.091979,2.892561 6.162397,2.822029 0.03422,-0.03429 -0.166947,-0.395995 -0.44946,-0.805382 -1.105752,-1.602438 -2.043302,-3.666485 -2.40228,-5.285765 -0.245574,-1.107801 -0.178229,-2.742807 0.145603,-3.487896 0.303178,-0.697602 0.949567,-1.286933 1.633159,-1.49029 0.73224,-0.217849 2.330556,-0.204694 4.475432,0.03805 2.572435,0.291124 3.994528,0.347005 5.690778,0.218766 3.862968,-0.292032 6.391783,-0.927331 9.222994,-2.311501 1.47964,-0.723415 1.794228,-1.00265 2.114256,-1.867626 0.305158,-0.824714 0.44992,-1.613952 0.29435,-1.613952 -0.05504,0 -0.574632,0.223457 -1.15524,0.497827 -2.178652,1.029529 -4.049113,1.48704 -5.709781,1.398329 -1.726358,-0.09222 -4.553941,-1.040431 -7.9095,-2.653981 l -1.528739,-0.735637 -1.247015,-2.986889 1.164734,0.72609 c 1.915996,1.272284 5.014514,2.795543 6.903008,3.392789 2.88509,0.912411 5.181184,0.793406 7.504359,-0.390011 0.818847,-0.41711 2.354836,-1.471369 2.354836,-1.617123 0,-0.274735 -0.821414,-2.944992 -1.278702,-4.156939 -1.143532,-3.030759 -1.923027,-4.041175 -3.807569,-4.940141 -2.092232,-0.998047 -4.397995,-1.713084 -8.637464,-2.679351 -2.026891,-0.430369 -4.064145,-0.846937 -6.121236,-1.103441 l -0.05065,2.511294 C 61.31174,30.436621 57.118435,29.451346 52.475602,28.971865 51.275851,28.84795 48.609203,28.780126 46.170799,28.781611 z m 31.755102,5.14307 c 1.54826,-0.0039 3.025687,0.792104 3.889869,2.23226 1.473534,2.455701 0.265606,5.64599 -2.490912,6.576283 -1.819156,0.613949 -3.985545,-0.119766 -5.086264,-1.721759 -0.90343,-1.314836 -1.054913,-3.012353 -0.398797,-4.435974 0.372808,-0.808928 1.260094,-1.765908 1.981337,-2.133957 0.68052,-0.347311 1.401001,-0.515062 2.104767,-0.516853 z m -0.05065,1.31273 c -0.725551,0.01535 -1.46484,0.284904 -2.088927,0.849776 -0.952872,0.862399 -1.258883,2.42199 -0.708986,3.611564 0.451466,0.97668 1.306541,1.650626 2.304178,1.813703 1.414713,0.231276 2.754888,-0.428668 3.3423,-1.648817 0.401811,-0.834682 0.473387,-1.407468 0.272197,-2.194208 -0.399359,-1.561661 -1.735647,-2.461369 -3.120762,-2.432018 z m 0.740629,1.613943 c 0.537853,0 1.185018,0.336218 1.266031,0.659524 0.110061,0.439349 -0.03887,0.742834 -0.465263,0.960762 -0.658419,0.336523 -1.504729,0.241305 -2.000333,-0.225118 -0.611002,-0.575058 0.09423,-1.395168 1.199565,-1.395168 z"
       id="Geeko"
       style="fill:url(#linearGradient3913);fill-opacity:1" />
    <path
       style="fill:#ffffff;fill-opacity:1"
       d="M 46.15625 28.78125 C 44.259725 28.78245 42.515167 28.814663 41.6875 28.90625 C 36.669495 29.461627 32.27631 30.803018 27.375 33.25 C 19.47538 37.193895 14.51983 41.653996 11.71875 47.34375 C 10.46454 49.89135 10.01461 51.675145 10 54.34375 C 9.9987223 54.583457 10.026666 54.788623 10.03125 55 C 10.083356 52.531293 10.523118 50.772365 11.71875 48.34375 C 14.51983 42.653996 19.47538 38.193895 27.375 34.25 C 32.27631 31.803018 36.669495 30.461627 41.6875 29.90625 C 42.515167 29.814663 44.259725 29.78245 46.15625 29.78125 C 48.594654 29.779765 51.268999 29.844835 52.46875 29.96875 C 57.111583 30.448231 61.301137 31.447043 66.09375 32.9375 L 66.15625 30.40625 C 68.213341 30.662754 70.254359 31.100881 72.28125 31.53125 C 76.520719 32.497517 78.814018 33.189453 80.90625 34.1875 C 82.790792 35.086466 83.575218 36.094241 84.71875 39.125 C 85.042514 39.98307 85.544439 41.547655 85.8125 42.5 C 85.909221 42.41639 86 42.309144 86 42.28125 C 86 42.006515 85.176038 39.336947 84.71875 38.125 C 83.575218 35.094241 82.790792 34.086466 80.90625 33.1875 C 78.814018 32.189453 76.520719 31.497517 72.28125 30.53125 C 70.254359 30.100881 68.213341 29.662754 66.15625 29.40625 L 66.09375 31.9375 C 61.301137 30.447043 57.111583 29.448231 52.46875 28.96875 C 51.268999 28.844835 48.594654 28.779765 46.15625 28.78125 z M 77.875 35.25 C 77.149449 35.26535 76.405337 35.528878 75.78125 36.09375 C 75.014907 36.78733 74.664555 37.928424 74.84375 38.96875 C 74.941554 38.249875 75.256962 37.568258 75.78125 37.09375 C 76.405337 36.528878 77.149449 36.26535 77.875 36.25 C 79.260115 36.220649 80.600641 37.094589 81 38.65625 C 81.025375 38.755478 81.045918 38.844124 81.0625 38.9375 C 81.143941 38.52697 81.118075 38.117976 81 37.65625 C 80.600641 36.094589 79.260115 35.220649 77.875 35.25 z M 77.4375 38.28125 C 77.146592 38.566663 77.077387 38.940483 77.40625 39.25 C 77.901854 39.716423 78.747831 39.805273 79.40625 39.46875 C 79.832643 39.250822 79.985061 38.939349 79.875 38.5 C 79.853387 38.413749 79.776875 38.36271 79.6875 38.28125 C 79.615296 38.347213 79.512848 38.414268 79.40625 38.46875 C 78.761499 38.798287 77.936847 38.722874 77.4375 38.28125 z M 73.46875 38.90625 C 73.343586 39.978189 73.616497 41.078011 74.25 42 C 75.350719 43.601993 77.493344 44.332699 79.3125 43.71875 C 81.444826 42.999115 82.651646 40.944446 82.40625 38.90625 C 82.22276 40.585404 81.092497 42.118022 79.3125 42.71875 C 77.493344 43.332699 75.350719 42.601993 74.25 41 C 73.81068 40.360621 73.546047 39.651113 73.46875 38.90625 z M 68.0625 41.1875 L 69.3125 44.15625 L 70.84375 44.90625 C 74.199309 46.5198 77.023642 47.47028 78.75 47.5625 C 80.410668 47.651211 82.290098 47.185779 84.46875 46.15625 C 84.985044 45.912272 85.363943 45.760888 85.5 45.71875 C 85.66216 45.148851 85.741678 44.65625 85.625 44.65625 C 85.56996 44.65625 85.049358 44.88188 84.46875 45.15625 C 82.290098 46.185779 80.410668 46.651211 78.75 46.5625 C 77.023642 46.47028 74.199309 45.5198 70.84375 43.90625 L 69.3125 43.15625 L 68.625 41.53125 L 68.0625 41.1875 z M 24.3125 49.5 C 23.60631 49.498448 22.92296 49.568748 22.375 49.71875 C 19.666582 50.460232 17.631762 52.735454 17.84375 55.625 C 18.106504 53.215674 19.986065 51.372768 22.375 50.71875 C 23.47092 50.418745 25.16467 50.424761 26.28125 50.71875 C 29.92777 51.678823 32.40079 54.591381 32.8125 58.40625 C 32.834713 58.612052 32.833882 58.804238 32.84375 59 C 32.878559 58.493337 32.873736 57.973594 32.8125 57.40625 C 32.40079 53.591381 29.92777 50.678823 26.28125 49.71875 C 25.72296 49.571755 25.01869 49.501552 24.3125 49.5 z M 61.90625 54.3125 C 61.879632 54.952863 61.908463 55.6336 62.03125 56.1875 C 62.354968 57.647731 63.161224 59.449819 64.125 60.96875 C 64.527916 61.140772 64.89158 61.295944 64.90625 61.28125 C 64.94047 61.24696 64.720013 60.878137 64.4375 60.46875 C 63.331748 58.866312 62.390228 56.80678 62.03125 55.1875 C 61.971934 54.919921 61.929849 54.621625 61.90625 54.3125 z M 15 55.25 C 14.988916 55.437464 14.967624 55.61881 14.96875 55.8125 C 14.98936 59.354389 17.22672 62.431087 20.59375 63.5625 C 21.49132 63.864107 21.6229 63.871 23.21875 63.875 C 24.70654 63.878713 24.96255 63.835887 25.59375 63.625 C 27.48435 62.9933 28.60485 61.65314 28.875 59.6875 C 28.918735 59.369268 28.911627 59.023287 28.875 58.6875 C 28.60485 60.65314 27.48435 61.9933 25.59375 62.625 C 24.96255 62.835887 24.70654 62.878713 23.21875 62.875 C 21.6229 62.871 21.49132 62.864107 20.59375 62.5625 C 17.367172 61.478283 15.194139 58.603716 15 55.25 z M 21.53125 55.75 C 21.328852 56.357378 21.472203 56.991045 22 57.46875 C 22.46096 57.885969 22.88393 58.016471 23.5 57.84375 C 25.06516 57.404977 25.88835 57.689157 26.21875 58.90625 C 26.311798 58.630128 26.328042 58.308898 26.21875 57.90625 C 25.88835 56.689157 25.06516 56.404977 23.5 56.84375 C 22.88393 57.016471 22.46096 56.885969 22 56.46875 C 21.763533 56.254726 21.620951 56.013863 21.53125 55.75 z M 41.375 57.59375 C 41.340952 58.494477 41.376909 59.499488 41.46875 60.1875 L 41.5625 60.21875 C 41.60154 60.18304 41.58403 59.848186 41.53125 59.625 C 41.431506 59.203292 41.386027 58.410516 41.375 57.59375 z "
       id="path3915" />
    <path
       style="fill:#000000;fill-opacity:1;opacity:0.15"
       d="M 77.9375 32.9375 C 77.233734 32.939291 76.49302 33.090189 75.8125 33.4375 C 75.091257 33.805549 74.216558 34.753572 73.84375 35.5625 C 73.515692 36.27431 73.399965 37.077064 73.46875 37.84375 C 73.525822 37.408627 73.656717 36.968319 73.84375 36.5625 C 74.216558 35.753572 75.091257 34.805549 75.8125 34.4375 C 76.49302 34.090189 77.233734 33.939291 77.9375 33.9375 C 79.48576 33.9336 80.948318 34.716094 81.8125 36.15625 C 82.14617 36.712325 82.334416 37.309612 82.40625 37.90625 C 82.506914 36.985053 82.334512 36.026204 81.8125 35.15625 C 80.948318 33.716094 79.48576 32.9336 77.9375 32.9375 z M 78.625 35.84375 C 77.519665 35.84375 76.795248 36.674942 77.40625 37.25 C 77.416538 37.259682 77.426915 37.271888 77.4375 37.28125 C 77.687077 37.036388 78.114595 36.84375 78.625 36.84375 C 79.019365 36.84375 79.44186 37.057363 79.6875 37.28125 C 79.904112 37.083362 79.957546 36.829512 79.875 36.5 C 79.793987 36.176694 79.162853 35.84375 78.625 35.84375 z M 81.0625 37.9375 C 81.005172 38.226476 80.884744 38.530181 80.71875 38.875 C 80.131338 40.095149 78.789713 40.731276 77.375 40.5 C 76.377363 40.336923 75.513966 39.66418 75.0625 38.6875 C 74.954855 38.454635 74.887366 38.221967 74.84375 37.96875 C 74.763799 38.556402 74.815166 39.152451 75.0625 39.6875 C 75.513966 40.66418 76.377363 41.336923 77.375 41.5 C 78.789713 41.731276 80.131338 41.095149 80.71875 39.875 C 81.069882 39.145593 81.177388 38.584463 81.0625 37.9375 z M 68.0625 39.1875 L 68.625 40.53125 L 69.25 40.90625 C 71.165996 42.178534 74.267756 43.715254 76.15625 44.3125 C 79.04134 45.224911 81.333075 45.089667 83.65625 43.90625 C 84.475097 43.48914 86 42.427004 86 42.28125 C 86 42.20103 85.923051 41.892756 85.8125 41.5 C 85.403831 41.853271 84.318387 42.568966 83.65625 42.90625 C 81.333075 44.089667 79.04134 44.224911 76.15625 43.3125 C 74.267756 42.715254 71.165996 41.178534 69.25 39.90625 L 68.0625 39.1875 z M 85.625 44.65625 C 85.618903 44.65625 85.516948 44.713501 85.5 44.71875 C 85.445947 44.908716 85.42004 45.075071 85.34375 45.28125 C 85.023722 46.146226 84.69839 46.432835 83.21875 47.15625 C 80.387539 48.54042 77.862968 49.176718 74 49.46875 C 72.30375 49.596989 70.884935 49.541124 68.3125 49.25 C 66.167624 49.007256 64.54474 48.969651 63.8125 49.1875 C 63.128908 49.390857 62.490678 49.989898 62.1875 50.6875 C 61.944626 51.246317 61.836769 52.319125 61.90625 53.28125 C 61.934799 52.653382 62.028346 52.053689 62.1875 51.6875 C 62.490678 50.989898 63.128908 50.390857 63.8125 50.1875 C 64.54474 49.969651 66.167624 50.007256 68.3125 50.25 C 70.884935 50.541124 72.30375 50.596989 74 50.46875 C 77.862968 50.176718 80.387539 49.54042 83.21875 48.15625 C 84.69839 47.432835 85.023722 47.146226 85.34375 46.28125 C 85.648908 45.456536 85.78057 44.65625 85.625 44.65625 z M 24.0625 45.59375 C 21.33556 45.592754 19.18912 46.394567 17.53125 48.03125 C 15.7676 49.772367 14.95575 51.575776 14.96875 53.8125 C 14.96961 53.960246 14.991549 54.104014 15 54.25 C 15.116913 52.272635 15.920324 50.621594 17.53125 49.03125 C 19.18912 47.394567 21.33556 46.592754 24.0625 46.59375 C 27.45237 46.59495 30.25413 47.78345 32.71875 50.25 C 34.57355 52.10627 35.99154 54.623764 36.53125 57.0625 L 36.6875 57.84375 L 41.5625 60.21875 C 41.60154 60.18304 41.58403 59.848186 41.53125 59.625 C 41.506314 59.519573 41.488356 59.334379 41.46875 59.1875 L 36.6875 56.84375 L 36.53125 56.0625 C 35.99154 53.623764 34.57355 51.10627 32.71875 49.25 C 30.25413 46.78345 27.45237 45.59495 24.0625 45.59375 z M 47.40625 49.9375 C 45.301888 49.939431 43.904749 50.420218 42.78125 51.53125 C 42.052541 52.251888 41.721446 52.992845 41.46875 54.4375 C 41.388735 54.894978 41.371655 55.653292 41.375 56.40625 C 41.393387 56.03319 41.425314 55.685845 41.46875 55.4375 C 41.721446 53.992845 42.052541 53.251888 42.78125 52.53125 C 43.904749 51.420218 45.301888 50.939431 47.40625 50.9375 C 50.205339 50.935 52.594619 51.961818 54.71875 54.09375 C 55.195382 54.572131 56.236272 55.687594 57.03125 56.59375 C 57.826236 57.499888 58.601136 58.33269 58.75 58.4375 C 59.167668 58.731542 64.835832 61.351782 64.90625 61.28125 C 64.94047 61.24696 64.720013 60.878137 64.4375 60.46875 C 64.328891 60.311355 64.229975 60.134193 64.125 59.96875 C 62.59392 59.315065 59.080654 57.670283 58.75 57.4375 C 58.601136 57.33269 57.826236 56.499888 57.03125 55.59375 C 56.236272 54.687594 55.195382 53.572131 54.71875 53.09375 C 52.594619 50.961818 50.205339 49.935 47.40625 49.9375 z M 23.96875 52.1875 C 23.205856 52.221068 22.51365 52.4727 22.03125 52.9375 C 21.48103 53.467682 21.32759 54.150914 21.53125 54.75 C 21.625414 54.467423 21.779598 54.179988 22.03125 53.9375 C 22.99605 53.007899 24.76437 52.932362 26.375 53.75 C 27.691959 54.418574 28.700874 56.091167 28.875 57.6875 C 29.12665 55.856389 27.96898 53.559208 26.375 52.75 C 25.569685 52.341181 24.731644 52.153932 23.96875 52.1875 z M 10.03125 54 C 10.028697 54.12095 10.000682 54.219113 10 54.34375 C 9.991 56.032174 10.12645 56.93918 10.5625 58.3125 C 12.1332 63.259324 16.59366 66.801849 21.78125 67.1875 C 26.80111 67.560653 30.55254 65.557189 32.21875 61.625 C 32.743147 60.387497 32.908686 59.288147 32.84375 58 C 32.782845 58.886502 32.603146 59.71788 32.21875 60.625 C 30.55254 64.557189 26.80111 66.560653 21.78125 66.1875 C 16.59366 65.801849 12.1332 62.259324 10.5625 57.3125 C 10.188356 56.134151 10.058956 55.277499 10.03125 54 z M 17.84375 54.625 C 17.776014 55.246101 17.804007 55.908578 17.96875 56.59375 C 18.65071 59.430072 21.97873 61.219624 24.78125 60.09375 C 25.90037 59.644171 26.54291 59.100499 26.21875 57.90625 C 26.035819 58.449102 25.523052 58.795749 24.78125 59.09375 C 21.97873 60.219624 18.65071 58.430072 17.96875 55.59375 C 17.889471 55.264026 17.866946 54.941181 17.84375 54.625 z "
       id="path3924" />
  </g>
</svg>
