<?xml version="1.0" encoding="UTF-8" standalone="no"?>
<!-- Created with Inkscape (http://www.inkscape.org/) -->

<svg
   xmlns:dc="http://purl.org/dc/elements/1.1/"
   xmlns:cc="http://creativecommons.org/ns#"
   xmlns:rdf="http://www.w3.org/1999/02/22-rdf-syntax-ns#"
   xmlns:svg="http://www.w3.org/2000/svg"
   xmlns="http://www.w3.org/2000/svg"
   xmlns:xlink="http://www.w3.org/1999/xlink"
   xmlns:sodipodi="http://sodipodi.sourceforge.net/DTD/sodipodi-0.dtd"
   xmlns:inkscape="http://www.inkscape.org/namespaces/inkscape"
   width="96"
   height="96"
   id="svg2408"
   sodipodi:version="0.32"
   inkscape:version="0.47 r22583"
   version="1.0"
   sodipodi:docname="distributor-logo-ubuntu.svg"
   inkscape:output_extension="org.inkscape.output.svg.inkscape">
  <defs
     id="defs2410">
    <linearGradient
       id="ButtonShadow"
       gradientTransform="scale(1.0058652,0.994169)"
       x1="45.447727"
       y1="92.539597"
       x2="45.447727"
       y2="7.0165396"
       gradientUnits="userSpaceOnUse">
      <stop
         style="stop-color:#000000;stop-opacity:1;"
         offset="0"
         id="stop3750" />
      <stop
         style="stop-color:#000000;stop-opacity:0.58823532;"
         offset="1"
         id="stop3752" />
    </linearGradient>
    <linearGradient
       inkscape:collect="always"
       id="linearGradient3737">
      <stop
         style="stop-color:#ffffff;stop-opacity:1;"
         offset="0"
         id="stop3739" />
      <stop
         style="stop-color:#ffffff;stop-opacity:0;"
         offset="1"
         id="stop3741" />
    </linearGradient>
    <linearGradient
       id="linearGradient3700">
      <stop
         style="stop-color:#2276c5;stop-opacity:1;"
         offset="0"
         id="stop3702" />
      <stop
         style="stop-color:#68baf4;stop-opacity:1;"
         offset="1"
         id="stop3704" />
    </linearGradient>
    <inkscape:perspective
       sodipodi:type="inkscape:persp3d"
       inkscape:vp_x="0 : 526.18109 : 1"
       inkscape:vp_y="0 : 1000 : 0"
       inkscape:vp_z="744.09448 : 526.18109 : 1"
       inkscape:persp3d-origin="372.04724 : 350.78739 : 1"
       id="perspective2416" />
    <linearGradient
       inkscape:collect="always"
       xlink:href="#linearGradient3700"
       id="linearGradient3706"
       x1="48"
       y1="90"
       x2="48"
       y2="5.9877172"
       gradientUnits="userSpaceOnUse" />
    <linearGradient
       inkscape:collect="always"
       xlink:href="#linearGradient3737"
       id="linearGradient3743"
       x1="36.357143"
       y1="6"
       x2="36.357143"
       y2="63.893143"
       gradientUnits="userSpaceOnUse" />
    <filter
       inkscape:collect="always"
       id="filter3174">
      <feGaussianBlur
         inkscape:collect="always"
         stdDeviation="1.71"
         id="feGaussianBlur3176" />
    </filter>
    <linearGradient
       inkscape:collect="always"
       xlink:href="#linearGradient3737"
       id="linearGradient3188"
       gradientUnits="userSpaceOnUse"
       x1="36.357143"
       y1="6"
       x2="36.357143"
       y2="63.893143" />
    <filter
       inkscape:collect="always"
       id="filter3794"
       x="-0.192"
       width="1.384"
       y="-0.192"
       height="1.384">
      <feGaussianBlur
         inkscape:collect="always"
         stdDeviation="5.28"
         id="feGaussianBlur3796" />
    </filter>
    <linearGradient
       inkscape:collect="always"
       xlink:href="#linearGradient3737"
       id="linearGradient3613"
       x1="48"
       y1="20.220806"
       x2="48"
       y2="138.66119"
       gradientUnits="userSpaceOnUse" />
    <radialGradient
       inkscape:collect="always"
       xlink:href="#linearGradient3737"
       id="radialGradient3619"
       cx="48"
       cy="90.171875"
       fx="48"
       fy="90.171875"
       r="42"
       gradientTransform="matrix(1.1573129,0,0,0.99590774,-7.5510206,0.19713193)"
       gradientUnits="userSpaceOnUse" />
    <clipPath
       clipPathUnits="userSpaceOnUse"
       id="clipPath3613">
      <rect
         ry="6"
         rx="6"
         y="6"
         x="6"
         height="84"
         width="84"
         id="rect3615"
         style="fill:#ffffff;fill-opacity:1;fill-rule:nonzero;stroke:none" />
    </clipPath>
    <linearGradient
       inkscape:collect="always"
       xlink:href="#linearGradient4057"
       id="linearGradient3617"
       gradientUnits="userSpaceOnUse"
       x1="48"
       y1="90"
       x2="48"
       y2="5.9877172" />
    <inkscape:perspective
       id="perspective2985"
       inkscape:persp3d-origin="0.5 : 0.33333333 : 1"
       inkscape:vp_z="1 : 0.5 : 1"
       inkscape:vp_y="0 : 1000 : 0"
       inkscape:vp_x="0 : 0.5 : 1"
       sodipodi:type="inkscape:persp3d" />
    <linearGradient
       inkscape:collect="always"
       xlink:href="#ButtonShadow-0"
       id="linearGradient3788"
       gradientUnits="userSpaceOnUse"
       gradientTransform="matrix(1.0238095,0,0,1.0119048,-1.1428571,-98.071429)"
       x1="32.251034"
       y1="6.1317081"
       x2="32.251034"
       y2="90.238609" />
    <linearGradient
       id="ButtonShadow-0"
       gradientTransform="matrix(1.0058652,0,0,0.994169,100,0)"
       x1="45.447727"
       y1="92.539597"
       x2="45.447727"
       y2="7.0165396"
       gradientUnits="userSpaceOnUse">
      <stop
         style="stop-color:#000000;stop-opacity:1;"
         offset="0"
         id="stop3750-8" />
      <stop
         style="stop-color:#000000;stop-opacity:0.58823532;"
         offset="1"
         id="stop3752-5" />
    </linearGradient>
    <linearGradient
       inkscape:collect="always"
       xlink:href="#ButtonShadow-0"
       id="linearGradient3780"
       gradientUnits="userSpaceOnUse"
       gradientTransform="matrix(1.0238095,0,0,1.0119048,-1.1428571,-98.071429)"
       x1="32.251034"
       y1="6.1317081"
       x2="32.251034"
       y2="90.238609" />
    <linearGradient
       id="linearGradient2994"
       gradientTransform="matrix(1.0058652,0,0,0.994169,100,0)"
       x1="45.447727"
       y1="92.539597"
       x2="45.447727"
       y2="7.0165396"
       gradientUnits="userSpaceOnUse">
      <stop
         style="stop-color:#000000;stop-opacity:1;"
         offset="0"
         id="stop2996" />
      <stop
         style="stop-color:#000000;stop-opacity:0.58823532;"
         offset="1"
         id="stop2998" />
    </linearGradient>
    <linearGradient
       inkscape:collect="always"
       xlink:href="#ButtonShadow-0"
       id="linearGradient3772"
       gradientUnits="userSpaceOnUse"
       gradientTransform="matrix(1.0238095,0,0,1.0119048,-1.1428571,-98.071429)"
       x1="32.251034"
       y1="6.1317081"
       x2="32.251034"
       y2="90.238609" />
    <linearGradient
       id="linearGradient3001"
       gradientTransform="matrix(1.0058652,0,0,0.994169,100,0)"
       x1="45.447727"
       y1="92.539597"
       x2="45.447727"
       y2="7.0165396"
       gradientUnits="userSpaceOnUse">
      <stop
         style="stop-color:#000000;stop-opacity:1;"
         offset="0"
         id="stop3003" />
      <stop
         style="stop-color:#000000;stop-opacity:0.58823532;"
         offset="1"
         id="stop3005" />
    </linearGradient>
    <linearGradient
       inkscape:collect="always"
       xlink:href="#ButtonShadow-0"
       id="linearGradient3725"
       gradientUnits="userSpaceOnUse"
       gradientTransform="matrix(1.0238095,0,0,1.0119048,-1.1428571,-98.071429)"
       x1="32.251034"
       y1="6.1317081"
       x2="32.251034"
       y2="90.238609" />
    <linearGradient
       id="linearGradient3008"
       gradientTransform="matrix(1.0058652,0,0,0.994169,100,0)"
       x1="45.447727"
       y1="92.539597"
       x2="45.447727"
       y2="7.0165396"
       gradientUnits="userSpaceOnUse">
      <stop
         style="stop-color:#000000;stop-opacity:1;"
         offset="0"
         id="stop3010" />
      <stop
         style="stop-color:#000000;stop-opacity:0.58823532;"
         offset="1"
         id="stop3012" />
    </linearGradient>
    <linearGradient
       inkscape:collect="always"
       xlink:href="#ButtonShadow-0"
       id="linearGradient3721"
       gradientUnits="userSpaceOnUse"
       gradientTransform="translate(0,-97)"
       x1="32.251034"
       y1="6.1317081"
       x2="32.251034"
       y2="90.238609" />
    <linearGradient
       id="linearGradient3015"
       gradientTransform="matrix(1.0058652,0,0,0.994169,100,0)"
       x1="45.447727"
       y1="92.539597"
       x2="45.447727"
       y2="7.0165396"
       gradientUnits="userSpaceOnUse">
      <stop
         style="stop-color:#000000;stop-opacity:1;"
         offset="0"
         id="stop3017" />
      <stop
         style="stop-color:#000000;stop-opacity:0.58823532;"
         offset="1"
         id="stop3019" />
    </linearGradient>
    <linearGradient
       y2="90.238609"
       x2="32.251034"
       y1="6.1317081"
       x1="32.251034"
       gradientTransform="matrix(1.0238095,0,0,1.0119048,-1.1428571,-98.071429)"
       gradientUnits="userSpaceOnUse"
       id="linearGradient3026"
       xlink:href="#ButtonShadow-0"
       inkscape:collect="always" />
    <inkscape:perspective
       id="perspective2885"
       inkscape:persp3d-origin="0.5 : 0.33333333 : 1"
       inkscape:vp_z="1 : 0.5 : 1"
       inkscape:vp_y="0 : 1000 : 0"
       inkscape:vp_x="0 : 0.5 : 1"
       sodipodi:type="inkscape:persp3d" />
    <linearGradient
       inkscape:collect="always"
       xlink:href="#linearGradient4057"
       id="linearGradient4063"
       x1="9.17138"
       y1="21.000002"
       x2="9.17138"
       y2="0.97239029"
       gradientUnits="userSpaceOnUse" />
    <linearGradient
       id="linearGradient4057">
      <stop
         style="stop-color:#dd481f;stop-opacity:0.94117647;"
         offset="0"
         id="stop4059" />
      <stop
         style="stop-color:#ec6829;stop-opacity:0.94117647;"
         offset="1"
         id="stop4061" />
    </linearGradient>
    <inkscape:perspective
       id="perspective4254"
       inkscape:persp3d-origin="0.5 : 0.33333333 : 1"
       inkscape:vp_z="1 : 0.5 : 1"
       inkscape:vp_y="0 : 1000 : 0"
       inkscape:vp_x="0 : 0.5 : 1"
       sodipodi:type="inkscape:persp3d" />
    <linearGradient
       inkscape:collect="always"
       xlink:href="#XMLID_3_"
       id="linearGradient3464"
       gradientUnits="userSpaceOnUse"
       gradientTransform="translate(-72.993029,33.016313)"
       x1="75.503899"
       y1="11.96"
       x2="85.596901"
       y2="36.3307" />
    <linearGradient
       id="XMLID_3_"
       gradientUnits="userSpaceOnUse"
       x1="75.503899"
       y1="11.96"
       x2="85.596901"
       y2="36.3307"
       gradientTransform="translate(-72.993029,33.016313)">
      <stop
         offset="0"
         style="stop-color:#F99D77"
         id="stop3347" />
      <stop
         offset="1"
         style="stop-color:#F7804E"
         id="stop3349" />
    </linearGradient>
    <linearGradient
       inkscape:collect="always"
       xlink:href="#XMLID_4_"
       id="linearGradient3466"
       gradientUnits="userSpaceOnUse"
       gradientTransform="translate(-72.993029,33.016313)"
       x1="37.674301"
       y1="25.6035"
       x2="37.674301"
       y2="47.500599" />
    <linearGradient
       id="XMLID_4_"
       gradientUnits="userSpaceOnUse"
       x1="37.674301"
       y1="25.6035"
       x2="37.674301"
       y2="47.500599"
       gradientTransform="translate(-72.993029,33.016313)">
      <stop
         offset="0"
         style="stop-color:#FCB462"
         id="stop3354" />
      <stop
         offset="1"
         style="stop-color:#FCAF55"
         id="stop3356" />
    </linearGradient>
    <linearGradient
       inkscape:collect="always"
       xlink:href="#XMLID_4_"
       id="linearGradient4336"
       gradientUnits="userSpaceOnUse"
       gradientTransform="matrix(0.7147956,0,0,0.7147956,-97.204766,6.7525163)"
       x1="37.674301"
       y1="25.6035"
       x2="37.674301"
       y2="47.500599" />
    <linearGradient
       inkscape:collect="always"
       xlink:href="#XMLID_3_"
       id="linearGradient4339"
       gradientUnits="userSpaceOnUse"
       gradientTransform="matrix(0.7147956,0,0,0.7147956,-97.204766,6.7525163)"
       x1="75.503899"
       y1="11.96"
       x2="85.596901"
       y2="36.3307" />
  </defs>
  <sodipodi:namedview
     id="base"
     pagecolor="#ffffff"
     bordercolor="#666666"
     borderopacity="1.0"
     inkscape:pageopacity="0.0"
     inkscape:pageshadow="2"
     inkscape:zoom="11.13336"
     inkscape:cx="31.338316"
     inkscape:cy="50.365057"
     inkscape:document-units="px"
     inkscape:current-layer="layer1"
     showgrid="false"
     showborder="true"
     inkscape:showpageshadow="false"
     inkscape:window-width="1920"
     inkscape:window-height="1023"
     inkscape:window-x="0"
     inkscape:window-y="24"
     inkscape:window-maximized="1">
    <inkscape:grid
       type="xygrid"
       id="grid3732"
       visible="true"
       enabled="true" />
  </sodipodi:namedview>
  <metadata
     id="metadata2413">
    <rdf:RDF>
      <cc:Work
         rdf:about="">
        <dc:format>image/svg+xml</dc:format>
        <dc:type
           rdf:resource="http://purl.org/dc/dcmitype/StillImage" />
      </cc:Work>
    </rdf:RDF>
  </metadata>
  <g
     inkscape:groupmode="layer"
     id="layer2"
     inkscape:label="Blur Shadow"
     style="display:none"
     sodipodi:insensitive="true">
    <rect
       style="opacity:0.9;fill:url(#ButtonShadow);fill-opacity:1;fill-rule:nonzero;stroke:none;filter:url(#filter3174)"
       id="rect3745"
       width="86"
       height="85"
       x="5"
       y="7"
       rx="6"
       ry="6" />
  </g>
  <g
     inkscape:groupmode="layer"
     id="layer3"
     inkscape:label="Shadow"
     sodipodi:insensitive="true">
    <path
       sodipodi:type="inkscape:offset"
       inkscape:radius="0.99097413"
       inkscape:original="M 12 -94.03125 C 7.028367 -94.03125 2.96875 -89.971633 2.96875 -85 L 2.96875 -14 C 2.96875 -9.0283671 7.0283671 -4.96875 12 -4.96875 L 84 -4.96875 C 88.971633 -4.96875 93.03125 -9.028367 93.03125 -14 L 93.03125 -85 C 93.03125 -89.971633 88.971633 -94.03125 84 -94.03125 L 12 -94.03125 z "
       style="opacity:0.07999998;fill:url(#linearGradient3026);fill-opacity:1;fill-rule:nonzero;stroke:none;display:inline"
       id="path3786"
       d="m 12,-95.03125 c -5.5110903,0 -10.03125,4.52016 -10.03125,10.03125 l 0,71 c 0,5.5110902 4.5201598,10.03125 10.03125,10.03125 l 72,0 c 5.51109,0 10.03125,-4.5201597 10.03125,-10.03125 l 0,-71 c 0,-5.51109 -4.52016,-10.03125 -10.03125,-10.03125 l -72,0 z"
       transform="scale(1,-1)" />
    <path
       sodipodi:type="inkscape:offset"
       inkscape:radius="1.0360184"
       inkscape:original="M 12 -93 C 7.5908667 -93 4 -89.409133 4 -85 L 4 -14 C 4 -9.5908667 7.5908667 -6 12 -6 L 84 -6 C 88.409133 -6 92 -9.5908667 92 -14 L 92 -85 C 92 -89.409133 88.409133 -93 84 -93 L 12 -93 z "
       style="opacity:0.1;fill:url(#linearGradient3780);fill-opacity:1;fill-rule:nonzero;stroke:none;display:inline"
       id="path3778"
       d="m 12,-94.03125 c -4.971633,0 -9.03125,4.059617 -9.03125,9.03125 l 0,71 c 0,4.9716329 4.0596171,9.03125 9.03125,9.03125 l 72,0 c 4.971633,0 9.03125,-4.059617 9.03125,-9.03125 l 0,-71 c 0,-4.971633 -4.059617,-9.03125 -9.03125,-9.03125 l -72,0 z"
       transform="scale(1,-1)" />
    <path
       sodipodi:type="inkscape:offset"
       inkscape:radius="0.98962283"
       inkscape:original="M 12 -92 C 8.122 -92 5 -88.878 5 -85 L 5 -14 C 5 -10.122 8.122 -7 12 -7 L 84 -7 C 87.878 -7 91 -10.122 91 -14 L 91 -85 C 91 -88.878 87.878 -92 84 -92 L 12 -92 z "
       style="opacity:0.2;fill:url(#linearGradient3772);fill-opacity:1;fill-rule:nonzero;stroke:none;display:inline"
       id="path3770"
       d="m 12,-93 c -4.4091333,0 -8,3.590867 -8,8 l 0,71 c 0,4.4091333 3.5908667,8 8,8 l 72,0 c 4.409133,0 8,-3.5908667 8,-8 l 0,-71 c 0,-4.409133 -3.590867,-8 -8,-8 l -72,0 z"
       transform="scale(1,-1)" />
    <rect
       style="opacity:0.3;fill:url(#linearGradient3725);fill-opacity:1;fill-rule:nonzero;stroke:none;display:inline"
       id="rect3723"
       width="86"
       height="85"
       x="5"
       y="-92"
       rx="7"
       ry="7"
       transform="scale(1,-1)" />
    <rect
       transform="scale(1,-1)"
       ry="6"
       rx="6"
       y="-91"
       x="6"
       height="84"
       width="84"
       id="rect3716"
       style="opacity:0.45;fill:url(#linearGradient3721);fill-opacity:1;fill-rule:nonzero;stroke:none;display:inline" />
  </g>
  <g
     inkscape:label="Button"
     inkscape:groupmode="layer"
     id="layer1">
    <rect
       style="fill:url(#linearGradient3617);fill-opacity:1.0;fill-rule:nonzero;stroke:none"
       id="rect2419"
       width="84"
       height="84"
       x="6"
       y="6"
       rx="6"
       ry="6" />
    <path
       style="opacity:0.35;fill:url(#linearGradient3188);fill-opacity:1;fill-rule:nonzero;stroke:none"
       d="M 12,6 C 8.676,6 6,8.676 6,12 l 0,2 0,68 0,2 c 0,0.334721 0.04135,0.6507 0.09375,0.96875 0.0487,0.295596 0.09704,0.596915 0.1875,0.875 0.00988,0.03038 0.020892,0.0636 0.03125,0.09375 0.098865,0.287771 0.2348802,0.547452 0.375,0.8125 0.1445918,0.273507 0.3156161,0.535615 0.5,0.78125 0.1843839,0.245635 0.3737765,0.473472 0.59375,0.6875 0.439947,0.428056 0.94291,0.814526 1.5,1.09375 0.278545,0.139612 0.5734731,0.246947 0.875,0.34375 -0.2562018,-0.100222 -0.4867109,-0.236272 -0.71875,-0.375 -0.00741,-0.0044 -0.023866,0.0045 -0.03125,0 -0.031933,-0.0193 -0.062293,-0.04251 -0.09375,-0.0625 -0.120395,-0.0767 -0.2310226,-0.163513 -0.34375,-0.25 -0.1061728,-0.0808 -0.2132809,-0.161112 -0.3125,-0.25 C 8.4783201,88.557317 8.3087904,88.373362 8.15625,88.1875 8.0486711,88.057245 7.9378561,87.922215 7.84375,87.78125 7.818661,87.74287 7.805304,87.69538 7.78125,87.65625 7.716487,87.553218 7.6510225,87.451733 7.59375,87.34375 7.4927417,87.149044 7.3880752,86.928049 7.3125,86.71875 7.30454,86.69694 7.288911,86.6782 7.28125,86.65625 7.2494249,86.5643 7.2454455,86.469419 7.21875,86.375 7.1884177,86.268382 7.1483606,86.171969 7.125,86.0625 7.0521214,85.720988 7,85.364295 7,85 L 7,83 7,15 7,13 C 7,10.218152 9.2181517,8 12,8 l 2,0 68,0 2,0 c 2.781848,0 5,2.218152 5,5 l 0,2 0,68 0,2 c 0,0.364295 -0.05212,0.720988 -0.125,1.0625 -0.04415,0.206893 -0.08838,0.397658 -0.15625,0.59375 -0.0077,0.02195 -0.0233,0.04069 -0.03125,0.0625 -0.06274,0.173739 -0.138383,0.367449 -0.21875,0.53125 -0.04158,0.0828 -0.07904,0.169954 -0.125,0.25 -0.0546,0.09721 -0.126774,0.18835 -0.1875,0.28125 -0.09411,0.140965 -0.204921,0.275995 -0.3125,0.40625 -0.143174,0.17445 -0.303141,0.346998 -0.46875,0.5 -0.01117,0.0102 -0.01998,0.02115 -0.03125,0.03125 -0.138386,0.125556 -0.285091,0.234436 -0.4375,0.34375 -0.102571,0.07315 -0.204318,0.153364 -0.3125,0.21875 -0.0074,0.0045 -0.02384,-0.0044 -0.03125,0 -0.232039,0.138728 -0.462548,0.274778 -0.71875,0.375 0.301527,-0.0968 0.596455,-0.204138 0.875,-0.34375 0.55709,-0.279224 1.060053,-0.665694 1.5,-1.09375 0.219973,-0.214028 0.409366,-0.441865 0.59375,-0.6875 0.184384,-0.245635 0.355408,-0.507743 0.5,-0.78125 0.14012,-0.265048 0.276135,-0.524729 0.375,-0.8125 0.01041,-0.03078 0.02133,-0.06274 0.03125,-0.09375 0.09046,-0.278085 0.1388,-0.579404 0.1875,-0.875 C 89.95865,84.6507 90,84.334721 90,84 l 0,-2 0,-68 0,-2 C 90,8.676 87.324,6 84,6 L 12,6 z"
       id="rect3728" />
    <path
       id="path3615"
       d="M 12,90 C 8.676,90 6,87.324 6,84 L 6,82 6,14 6,12 c 0,-0.334721 0.04135,-0.6507 0.09375,-0.96875 0.0487,-0.295596 0.09704,-0.596915 0.1875,-0.875 C 6.29113,10.12587 6.302142,10.09265 6.3125,10.0625 6.411365,9.774729 6.5473802,9.515048 6.6875,9.25 6.8320918,8.976493 7.0031161,8.714385 7.1875,8.46875 7.3718839,8.223115 7.5612765,7.995278 7.78125,7.78125 8.221197,7.353194 8.72416,6.966724 9.28125,6.6875 9.559795,6.547888 9.8547231,6.440553 10.15625,6.34375 9.9000482,6.443972 9.6695391,6.580022 9.4375,6.71875 c -0.00741,0.0044 -0.023866,-0.0045 -0.03125,0 -0.031933,0.0193 -0.062293,0.04251 -0.09375,0.0625 -0.120395,0.0767 -0.2310226,0.163513 -0.34375,0.25 -0.1061728,0.0808 -0.2132809,0.161112 -0.3125,0.25 C 8.4783201,7.442683 8.3087904,7.626638 8.15625,7.8125 8.0486711,7.942755 7.9378561,8.077785 7.84375,8.21875 7.818661,8.25713 7.805304,8.30462 7.78125,8.34375 7.716487,8.446782 7.6510225,8.548267 7.59375,8.65625 7.4927417,8.850956 7.3880752,9.071951 7.3125,9.28125 7.30454,9.30306 7.288911,9.3218 7.28125,9.34375 7.2494249,9.4357 7.2454455,9.530581 7.21875,9.625 7.1884177,9.731618 7.1483606,9.828031 7.125,9.9375 7.0521214,10.279012 7,10.635705 7,11 l 0,2 0,68 0,2 c 0,2.781848 2.2181517,5 5,5 l 2,0 68,0 2,0 c 2.781848,0 5,-2.218152 5,-5 l 0,-2 0,-68 0,-2 C 89,10.635705 88.94788,10.279012 88.875,9.9375 88.83085,9.730607 88.78662,9.539842 88.71875,9.34375 88.71105,9.3218 88.69545,9.30306 88.6875,9.28125 88.62476,9.107511 88.549117,8.913801 88.46875,8.75 88.42717,8.6672 88.38971,8.580046 88.34375,8.5 88.28915,8.40279 88.216976,8.31165 88.15625,8.21875 88.06214,8.077785 87.951329,7.942755 87.84375,7.8125 87.700576,7.63805 87.540609,7.465502 87.375,7.3125 87.36383,7.3023 87.35502,7.29135 87.34375,7.28125 87.205364,7.155694 87.058659,7.046814 86.90625,6.9375 86.803679,6.86435 86.701932,6.784136 86.59375,6.71875 c -0.0074,-0.0045 -0.02384,0.0044 -0.03125,0 -0.232039,-0.138728 -0.462548,-0.274778 -0.71875,-0.375 0.301527,0.0968 0.596455,0.204138 0.875,0.34375 0.55709,0.279224 1.060053,0.665694 1.5,1.09375 0.219973,0.214028 0.409366,0.441865 0.59375,0.6875 0.184384,0.245635 0.355408,0.507743 0.5,0.78125 0.14012,0.265048 0.276135,0.524729 0.375,0.8125 0.01041,0.03078 0.02133,0.06274 0.03125,0.09375 0.09046,0.278085 0.1388,0.579404 0.1875,0.875 C 89.95865,11.3493 90,11.665279 90,12 l 0,2 0,68 0,2 c 0,3.324 -2.676,6 -6,6 l -72,0 z"
       style="opacity:0.2;fill:url(#radialGradient3619);fill-opacity:1;fill-rule:nonzero;stroke:none" />
    <path
       sodipodi:type="inkscape:offset"
       inkscape:radius="1.0815778"
       inkscape:original="M 61.1875 16.5625 C 57.568166 16.5625 54.616737 19.018888 53.59375 22.3125 C 53.339012 22.161342 53.142031 21.926943 52.84375 21.875 C 51.314699 21.608821 49.774962 21.40625 48.21875 21.40625 C 44.108153 21.406785 39.997749 22.405219 36.28125 24.25 C 35.629854 24.574513 35.175493 25.151374 35 25.78125 C 34.803884 26.4759 35.000056 27.204465 35.3125 27.71875 C 34.908931 27.077792 34.234575 26.721616 33.6875 26.625 C 33.613539 26.611953 33.355061 26.663905 33.1875 26.65625 C 33.167246 26.651375 33.140993 26.659216 33.125 26.65625 C 33.107008 26.652913 33.077089 26.627012 33.0625 26.625 C 33.007388 26.6174 32.972972 26.625764 32.9375 26.625 C 32.842582 26.622956 32.7639 26.643013 32.6875 26.65625 C 32.649694 26.6628 32.602408 26.646615 32.5625 26.65625 C 32.321391 26.714459 32.056105 26.847515 31.78125 27.0625 C 27.390746 30.459168 24.104343 35.214417 22.5 40.5 C 22.469441 40.600674 22.517024 40.70874 22.5 40.8125 C 21.516733 40.392835 20.445103 40.15625 19.3125 40.15625 C 14.783024 40.15625 11.0625 43.862841 11.0625 48.40625 C 11.0625 52.949659 14.783024 56.65625 19.3125 56.65625 C 20.445103 56.65625 21.516733 56.419665 22.5 56 C 22.505561 56.020311 22.493895 56.042335 22.5 56.0625 C 24.092398 61.306444 27.353936 66.019217 31.6875 69.40625 C 32.01528 69.663336 32.733625 70.03916 33.5625 69.90625 C 33.57281 69.904467 33.583533 69.90817 33.59375 69.90625 C 34.467462 69.742084 35.011398 69.05786 35.1875 68.78125 C 34.729128 69.507463 34.766005 70.175464 34.90625 70.6875 A 1.0043202 1.0043202 0 0 0 34.90625 70.71875 C 35.030932 71.1724 35.35229 71.84784 36.15625 72.25 C 39.910667 74.137992 44.069694 75.125 48.21875 75.125 C 49.802974 75.125 51.399899 74.935863 52.96875 74.65625 C 53.15966 74.62264 53.268675 74.476018 53.4375 74.40625 C 54.044897 78.350256 57.334551 81.4375 61.4375 81.4375 C 65.963202 81.4375 69.65625 77.739201 69.65625 73.21875 C 69.65625 70.837441 68.601378 68.724419 66.96875 67.21875 C 67.106562 67.127072 67.286683 67.122461 67.40625 67 C 71.641228 62.661928 74.336114 56.960625 74.9375 50.9375 C 75.020716 50.110704 74.726845 49.552007 74.3125 49.09375 C 73.829696 48.559777 73.135695 48.317843 72.53125 48.3125 C 73.124216 48.302147 73.829347 48.097152 74.3125 47.5625 C 74.759406 47.067993 75.002945 46.39041 74.9375 45.6875 C 74.390565 40.043014 71.973341 34.635388 68.1875 30.40625 C 67.930581 30.117727 67.577969 30.034525 67.25 29.90625 C 68.473944 28.487353 69.28125 26.699414 69.28125 24.6875 C 69.28125 20.228618 65.644353 16.5625 61.1875 16.5625 z M 48.21875 35.59375 C 54.370908 35.59375 59.753219 40.230669 60.71875 46.3125 C 60.904304 47.48475 61.90774 48.329061 63.09375 48.34375 C 61.916953 48.367444 60.870419 49.243934 60.6875 50.375 C 59.70985 56.404952 54.36256 60.96875 48.21875 60.96875 C 46.50762 60.96875 44.835598 60.633164 43.21875 59.9375 C 42.208415 59.505494 40.907709 59.769899 40.21875 60.84375 C 40.785193 59.926047 40.755909 58.614616 39.8125 57.78125 C 37.072135 55.35935 35.5 51.886349 35.5 48.28125 C 35.5 44.640774 37.07985 41.137036 39.84375 38.71875 C 40.724684 37.945399 40.88565 36.648759 40.28125 35.65625 C 40.910488 36.659657 42.145233 37.091328 43.25 36.625 A 1.0043202 1.0043202 0 0 0 43.28125 36.625 C 44.886382 35.943401 46.53608 35.59375 48.21875 35.59375 z "
       style="opacity:0.07;fill:#000000;overflow:visible"
       id="path4365"
       d="m 61.1875,15.46875 c -3.649987,0 -6.615932,2.280027 -8.0625,5.375 -0.05383,-0.0134 -0.03458,-0.02095 -0.09375,-0.03125 -1.558572,-0.271318 -3.162429,-0.5 -4.8125,-0.5 -4.285641,5.58e-4 -8.544484,1.051862 -12.40625,2.96875 -0.929624,0.463121 -1.584537,1.288389 -1.84375,2.21875 -0.0094,0.03327 0.0083,0.06062 0,0.09375 -0.03048,-0.0062 -0.06341,-0.02589 -0.09375,-0.03125 -0.245561,-0.04332 -0.276778,-0.0052 -0.34375,0 -0.06697,0.0052 -0.142371,-0.005 -0.1875,0 -0.09026,0.0099 -0.146729,-0.0024 -0.09375,0 -0.02882,-0.0047 0.0023,0.0046 -0.03125,0 -0.221856,-0.03059 -0.399485,-0.03447 -0.25,-0.03125 -0.260039,-0.0056 -0.450353,0.05931 -0.46875,0.0625 -0.06756,7.94e-4 -0.07258,-0.02774 -0.1875,0 -0.430676,0.103975 -0.817205,0.335365 -1.1875,0.625 -4.391217,3.39722 -7.670243,8.097687 -9.40625,13.34375 -0.782185,-0.218431 -1.554306,-0.5 -2.40625,-0.5 -5.119532,0 -9.34375,4.209883 -9.34375,9.34375 0,5.133867 4.224218,9.34375 9.34375,9.34375 0.885964,0 1.69007,-0.295858 2.5,-0.53125 1.743805,5.11269 4.949911,9.694805 9.21875,13.03125 0.528815,0.414763 1.447447,0.917592 2.6875,0.71875 a 1.0816859,1.0816859 0 0 0 0.03125,0 c -0.361554,0.06253 -0.362043,0.07391 0.03125,0 0.027,-0.0051 0.03603,-0.02564 0.0625,-0.03125 a 1.0816859,1.0816859 0 0 0 0.03125,0.03125 1.0816859,1.0816859 0 0 0 0,0.03125 c 0.175485,0.638493 0.678634,1.616571 1.78125,2.1875 l 0,0.03125 c 0.0081,0.0041 0.02305,-0.0041 0.03125,0 3.898735,1.955404 8.220408,3 12.53125,3 1.543678,0 3.067355,-0.21644 4.5625,-0.46875 1.128131,3.83518 4.453661,6.78125 8.65625,6.78125 5.114929,0 9.3125,-4.202975 9.3125,-9.3125 0,-2.248359 -0.975756,-4.184807 -2.3125,-5.78125 C 72.682483,62.962289 75.386899,57.171705 76,51.03125 76.113486,49.903709 75.662022,48.968936 75.125,48.375 c -0.02053,-0.0227 -0.04158,-0.04055 -0.0625,-0.0625 0.01706,-0.01803 0.04569,-0.01265 0.0625,-0.03125 0.645383,-0.714125 0.969354,-1.674096 0.875,-2.6875 -0.570043,-5.88297 -3.061161,-11.506199 -7,-15.90625 -0.106601,-0.119714 -0.171036,-0.07206 -0.28125,-0.15625 0.9357,-1.405768 1.65625,-3.003508 1.65625,-4.84375 0,-5.04701 -4.137524,-9.21875 -9.1875,-9.21875 z M 48.21875,36.6875 c 5.608697,0 10.556214,4.230074 11.4375,9.78125 0.117419,0.741804 0.532181,1.372774 1.03125,1.875 -0.516111,0.503101 -0.940604,1.090012 -1.0625,1.84375 -0.891735,5.500044 -5.798058,9.6875 -11.40625,9.6875 -1.569718,0 -3.078323,-0.298919 -4.5625,-0.9375 -0.675182,-0.288699 -1.462568,-0.316943 -2.1875,-0.15625 -0.148685,-0.651111 -0.374622,-1.315278 -0.9375,-1.8125 -2.509722,-2.21806 -3.9375,-5.396842 -3.9375,-8.6875 0,-3.327563 1.440766,-6.53813 3.96875,-8.75 0.554364,-0.486663 0.810912,-1.139772 0.96875,-1.8125 0.549945,0.134262 1.118308,0.09093 1.6875,-0.0625 l 0,0.0625 c -8.01e-4,-1.2e-5 0.09455,-1.2e-5 0.09375,0 a 1.0816859,1.0816859 0 0 0 0.34375,-0.09375 1.0816859,1.0816859 0 0 0 0.0625,0 c 1.482216,-0.629404 2.967161,-0.9375 4.5,-0.9375 z" />
    <path
       sodipodi:type="inkscape:offset"
       inkscape:radius="1.0042198"
       inkscape:original="M 61.1875 17.5625 C 57.28099 17.5625 54.125 20.779542 54.125 24.6875 C 54.125 28.59546 57.28672 31.78125 61.1875 31.78125 C 65.088279 31.78125 68.28125 28.601168 68.28125 24.6875 C 68.28125 20.773834 65.094009 17.5625 61.1875 17.5625 z M 48.21875 22.40625 C 44.272876 22.406764 40.300911 23.378151 36.71875 25.15625 C 36.327101 25.351362 36.072508 25.690094 35.96875 26.0625 C 35.8467 26.494806 35.938676 26.870245 36.15625 27.21875 L 41.125 35.125 C 41.486421 35.701336 42.248266 35.952048 42.875 35.6875 C 44.60238 34.95399 46.403239 34.59375 48.21875 34.59375 C 54.872867 34.59375 60.675178 39.582842 61.71875 46.15625 C 61.823295 46.816721 62.441259 47.34375 63.125 47.34375 L 72.5 47.34375 C 72.88501 47.34375 73.251174 47.21951 73.5625 46.875 C 73.828477 46.580693 73.974669 46.180464 73.9375 45.78125 C 73.412098 40.358989 71.080348 35.131901 67.4375 31.0625 C 66.949742 30.514743 66.169684 30.490209 65.625 30.84375 C 64.35093 31.670235 62.9362 32.09375 61.5 32.09375 C 57.293006 32.09375 53.878663 28.691426 53.84375 24.5 C 53.843757 24.499878 53.843584 24.473735 53.84375 24.46875 C 53.844082 24.45878 53.843691 24.441104 53.84375 24.4375 C 53.843805 24.429217 53.843737 24.415624 53.84375 24.40625 C 53.843775 24.387501 53.843781 24.366957 53.84375 24.34375 C 53.843687 24.297335 53.84375 24.234565 53.84375 24.25 C 53.84375 23.555277 53.304697 22.987921 52.65625 22.875 C 51.148112 22.612462 49.680518 22.40625 48.21875 22.40625 z M 32.9375 27.625 C 32.98049 27.614408 32.741343 27.581648 32.40625 27.84375 C 28.183288 31.110801 25.010735 35.701107 23.46875 40.78125 C 23.304183 41.323402 23.45627 41.930458 23.9375 42.3125 C 25.756228 43.759475 26.84375 46.007838 26.84375 48.28125 C 26.84375 50.554782 25.75662 52.803063 23.9375 54.25 C 23.457515 54.631747 23.304014 55.237163 23.46875 55.78125 C 24.998808 60.819903 28.142983 65.366183 32.3125 68.625 C 32.532167 68.79729 32.88476 68.998016 33.40625 68.90625 C 33.955798 68.811231 34.200416 68.47514 34.34375 68.25 L 39.375 60.34375 C 39.714607 59.809193 39.707392 59.018105 39.15625 58.53125 C 36.202545 55.920802 34.5 52.178795 34.5 48.28125 C 34.5 44.350327 36.20539 40.57796 39.1875 37.96875 C 39.702643 37.516518 39.807679 36.746298 39.4375 36.15625 L 34.46875 28.25 C 34.217696 27.85127 33.879344 27.691994 33.5 27.625 C 33.382935 27.60435 33.158907 27.570455 32.9375 27.625 z M 19.3125 41.15625 C 15.330052 41.15625 12.0625 44.410283 12.0625 48.40625 C 12.0625 52.402217 15.330052 55.65625 19.3125 55.65625 C 23.294948 55.65625 26.53125 52.39664 26.53125 48.40625 C 26.53125 44.41586 23.294948 41.15625 19.3125 41.15625 z M 63.125 49.3125 C 62.355431 49.314107 61.805168 49.80366 61.6875 50.53125 C 60.630206 57.052433 54.858284 61.96875 48.21875 61.96875 C 46.383049 61.96875 44.560697 61.627178 42.8125 60.875 C 42.249952 60.634462 41.447267 60.77528 41.0625 61.375 L 36.03125 69.3125 C 35.783498 69.705021 35.805306 70.183047 35.875 70.4375 C 35.942984 70.684856 36.147781 71.120666 36.59375 71.34375 C 40.208223 73.161368 44.231493 74.125 48.21875 74.125 C 49.715822 74.125 51.244658 73.930114 52.78125 73.65625 C 53.36423 73.553616 53.871552 72.997313 53.9375 72.4375 C 54.383776 68.565872 57.624739 65.6875 61.5 65.6875 C 62.685283 65.6875 63.916068 65.978528 65.03125 66.5625 C 65.578149 66.849286 66.269624 66.740488 66.6875 66.3125 C 70.763208 62.137575 73.359393 56.633722 73.9375 50.84375 C 73.976935 50.451941 73.763602 50.003665 73.5625 49.78125 C 73.252948 49.438891 72.887433 49.311103 72.5 49.3125 L 63.125 49.3125 z M 61.4375 66 C 57.457425 66 54.1875 69.238162 54.1875 73.21875 C 54.1875 77.199339 57.457425 80.4375 61.4375 80.4375 C 65.417575 80.4375 68.65625 77.193733 68.65625 73.21875 C 68.65625 69.243768 65.417575 66 61.4375 66 z "
       style="opacity:0.1;fill:#000000;overflow:visible"
       id="path4361"
       d="m 61.1875,16.5625 c -3.619334,0 -6.570763,2.456388 -7.59375,5.75 -0.254738,-0.151158 -0.451719,-0.385557 -0.75,-0.4375 -1.529051,-0.266179 -3.068788,-0.46875 -4.625,-0.46875 -4.110597,5.35e-4 -8.221001,0.998969 -11.9375,2.84375 -0.651396,0.324513 -1.105757,0.901374 -1.28125,1.53125 -0.196116,0.69465 5.6e-5,1.423215 0.3125,1.9375 -0.403569,-0.640958 -1.077925,-0.997134 -1.625,-1.09375 -0.07396,-0.01305 -0.332439,0.0389 -0.5,0.03125 -0.02025,-0.0049 -0.04651,0.003 -0.0625,0 -0.01799,-0.0033 -0.04791,-0.02924 -0.0625,-0.03125 -0.05511,-0.0076 -0.08953,7.64e-4 -0.125,0 -0.09492,-0.002 -0.1736,0.01801 -0.25,0.03125 -0.03781,0.0066 -0.08509,-0.0096 -0.125,0 -0.241109,0.05821 -0.506395,0.191265 -0.78125,0.40625 C 27.390746,30.459168 24.104343,35.214417 22.5,40.5 c -0.03056,0.100674 0.01702,0.20874 0,0.3125 -0.983267,-0.419665 -2.054897,-0.65625 -3.1875,-0.65625 -4.529476,0 -8.25,3.706591 -8.25,8.25 0,4.543409 3.720524,8.25 8.25,8.25 1.132603,0 2.204233,-0.236585 3.1875,-0.65625 0.0056,0.02031 -0.0061,0.04234 0,0.0625 1.592398,5.243944 4.853936,9.956717 9.1875,13.34375 0.32778,0.257086 1.046125,0.63291 1.875,0.5 0.01031,-0.0018 0.02103,0.0019 0.03125,0 0.873712,-0.164166 1.417648,-0.84839 1.59375,-1.125 -0.458372,0.726213 -0.421495,1.394214 -0.28125,1.90625 a 1.0043202,1.0043202 0 0 0 0,0.03125 c 0.124682,0.45365 0.44604,1.12909 1.25,1.53125 3.754417,1.887992 7.913444,2.875 12.0625,2.875 1.584224,0 3.181149,-0.189137 4.75,-0.46875 0.19091,-0.03361 0.299925,-0.180232 0.46875,-0.25 0.607397,3.944006 3.897051,7.03125 8,7.03125 4.525702,0 8.21875,-3.698299 8.21875,-8.21875 0,-2.381309 -1.054872,-4.494331 -2.6875,-6 0.137812,-0.09168 0.317933,-0.09629 0.4375,-0.21875 4.234978,-4.338072 6.929864,-10.039375 7.53125,-16.0625 0.08322,-0.826796 -0.210655,-1.385493 -0.625,-1.84375 -0.482804,-0.533973 -1.176805,-0.775907 -1.78125,-0.78125 0.592966,-0.01035 1.298097,-0.215348 1.78125,-0.75 0.446906,-0.494507 0.690445,-1.17209 0.625,-1.875 -0.546935,-5.644486 -2.964159,-11.052112 -6.75,-15.28125 -0.256919,-0.288523 -0.609531,-0.371725 -0.9375,-0.5 1.223944,-1.418897 2.03125,-3.206836 2.03125,-5.21875 0,-4.458882 -3.636897,-8.125 -8.09375,-8.125 z M 48.21875,35.59375 c 6.152158,0 11.534469,4.636919 12.5,10.71875 0.185554,1.17225 1.18899,2.016561 2.375,2.03125 -1.176797,0.02369 -2.223331,0.900184 -2.40625,2.03125 -0.97765,6.029952 -6.32494,10.59375 -12.46875,10.59375 -1.71113,0 -3.383152,-0.335586 -5,-1.03125 -1.010335,-0.432006 -2.311041,-0.167601 -3,0.90625 0.566443,-0.917703 0.537159,-2.229134 -0.40625,-3.0625 -2.740365,-2.4219 -4.3125,-5.894901 -4.3125,-9.5 0,-3.640476 1.57985,-7.144214 4.34375,-9.5625 0.880934,-0.773351 1.0419,-2.069991 0.4375,-3.0625 0.629238,1.003407 1.863983,1.435078 2.96875,0.96875 a 1.0043202,1.0043202 0 0 0 0.03125,0 c 1.605132,-0.681599 3.25483,-1.03125 4.9375,-1.03125 z" />
    <path
       sodipodi:type="inkscape:offset"
       inkscape:radius="0.9342373"
       inkscape:original="M 61.1875 18.5 C 57.79025 18.5 55.0625 21.2778 55.0625 24.6875 C 55.0625 28.097202 57.79025 30.84375 61.1875 30.84375 C 64.584749 30.84375 67.34375 28.097202 67.34375 24.6875 C 67.34375 21.2778 64.584749 18.5 61.1875 18.5 z M 48.21875 23.34375 C 44.427192 23.344244 40.581705 24.284174 37.125 26 C 37.002073 26.06124 36.911879 26.180134 36.875 26.3125 C 36.83763 26.444866 36.86473 26.602189 36.9375 26.71875 L 41.90625 34.625 C 42.032619 34.826513 42.28119 34.904861 42.5 34.8125 C 44.345871 34.028674 46.283388 33.65625 48.21875 33.65625 C 55.337694 33.65625 61.540074 38.969266 62.65625 46 C 62.69362 46.236088 62.887505 46.40625 63.125 46.40625 L 72.5 46.40625 C 72.636694 46.40625 72.78305 46.351751 72.875 46.25 C 72.96695 46.148256 73.012784 46.012306 73 45.875 C 72.494524 40.658378 70.258333 35.606635 66.75 31.6875 C 66.59167 31.509694 66.325125 31.495104 66.125 31.625 C 64.710357 32.542674 63.123619 33.03125 61.5 33.03125 C 56.763379 33.03125 52.906742 29.166144 52.90625 24.4375 C 52.906742 24.4351 52.90625 24.257903 52.90625 24.25 C 52.90625 24.014407 52.732577 23.821751 52.5 23.78125 C 51.018976 23.523432 49.599465 23.34375 48.21875 23.34375 z M 33.15625 28.53125 C 33.09135 28.54724 33.022101 28.55202 32.96875 28.59375 C 28.903311 31.738935 25.859466 36.171855 24.375 41.0625 C 24.31698 41.253642 24.374472 41.469286 24.53125 41.59375 C 26.574295 43.219191 27.78125 45.714921 27.78125 48.28125 C 27.78125 50.847579 26.574788 53.34331 24.53125 54.96875 C 24.375379 55.092719 24.316978 55.308366 24.375 55.5 C 25.847665 60.349651 28.859716 64.736729 32.875 67.875 C 32.982685 67.95946 33.115272 68.023708 33.25 68 C 33.384237 67.97679 33.489235 67.86508 33.5625 67.75 L 38.59375 59.84375 C 38.722086 59.641743 38.71073 59.377295 38.53125 59.21875 C 35.379895 56.433622 33.5625 52.4503 33.5625 48.28125 C 33.5625 44.081084 35.378201 40.067366 38.5625 37.28125 C 38.741974 37.123694 38.783603 36.859245 38.65625 36.65625 L 33.6875 28.75 C 33.61473 28.634425 33.477987 28.554957 33.34375 28.53125 C 33.27663 28.51941 33.221156 28.51526 33.15625 28.53125 z M 19.3125 42.09375 C 15.835683 42.09375 13 44.916353 13 48.40625 C 13 51.896147 15.835683 54.71875 19.3125 54.71875 C 22.789317 54.71875 25.59375 51.896147 25.59375 48.40625 C 25.59375 44.916353 22.789317 42.09375 19.3125 42.09375 z M 63.125 50.25 C 62.88849 50.250494 62.662861 50.453389 62.625 50.6875 C 61.49358 57.66588 55.318026 62.90625 48.21875 62.90625 C 46.260769 62.90625 44.304022 62.521838 42.4375 61.71875 C 42.219182 61.6254 41.972086 61.674968 41.84375 61.875 L 36.8125 69.8125 C 36.73924 69.928568 36.74486 70.05464 36.78125 70.1875 C 36.81763 70.319866 36.877565 70.438755 37 70.5 C 40.483749 72.25188 44.38343 73.1875 48.21875 73.1875 C 49.64126 73.1875 51.125783 73.017203 52.625 72.75 C 52.835451 72.71295 52.974923 72.556622 53 72.34375 C 53.499575 68.009736 57.157238 64.75 61.5 64.75 C 62.846296 64.75 64.223746 65.098046 65.46875 65.75 C 65.658057 65.84927 65.881279 65.80985 66.03125 65.65625 C 69.957537 61.634384 72.443387 56.324702 73 50.75 C 73.01377 50.613188 72.967441 50.508488 72.875 50.40625 C 72.78256 50.304013 72.636695 50.249507 72.5 50.25 L 63.125 50.25 z M 61.4375 66.9375 C 57.960683 66.9375 55.125 69.746857 55.125 73.21875 C 55.125 76.690644 57.960683 79.5 61.4375 79.5 C 64.914317 79.5 67.71875 76.690644 67.71875 73.21875 C 67.71875 69.746857 64.914317 66.9375 61.4375 66.9375 z "
       style="opacity:0.15;fill:#000000;overflow:visible"
       id="path4357"
       d="m 61.1875,17.5625 c -3.90651,0 -7.0625,3.217042 -7.0625,7.125 0,3.90796 3.16172,7.09375 7.0625,7.09375 3.900779,0 7.09375,-3.180082 7.09375,-7.09375 0,-3.913666 -3.187241,-7.125 -7.09375,-7.125 z m -12.96875,4.84375 c -3.945874,5.14e-4 -7.917839,0.971901 -11.5,2.75 -0.391649,0.195112 -0.646242,0.533844 -0.75,0.90625 -0.12205,0.432306 -0.03007,0.807745 0.1875,1.15625 L 41.125,35.125 c 0.361421,0.576336 1.123266,0.827048 1.75,0.5625 1.72738,-0.73351 3.528239,-1.09375 5.34375,-1.09375 6.654117,0 12.456428,4.989092 13.5,11.5625 0.104545,0.660471 0.722509,1.1875 1.40625,1.1875 l 9.375,0 c 0.38501,0 0.751174,-0.12424 1.0625,-0.46875 0.265977,-0.294307 0.412169,-0.694536 0.375,-1.09375 -0.525402,-5.422261 -2.857152,-10.649349 -6.5,-14.71875 -0.487758,-0.547757 -1.267816,-0.572291 -1.8125,-0.21875 -1.27407,0.826485 -2.6888,1.25 -4.125,1.25 -4.206994,0 -7.621337,-3.402324 -7.65625,-7.59375 7e-6,-1.22e-4 -1.66e-4,-0.02626 0,-0.03125 3.32e-4,-0.01 -5.9e-5,-0.02765 0,-0.03125 5.5e-5,-0.0083 -1.3e-5,-0.02188 0,-0.03125 2.5e-5,-0.01875 3.1e-5,-0.03929 0,-0.0625 -6.3e-5,-0.04641 0,-0.109185 0,-0.09375 0,-0.694723 -0.539053,-1.262079 -1.1875,-1.375 -1.508138,-0.262538 -2.975732,-0.46875 -4.4375,-0.46875 z M 32.9375,27.625 c 0.04299,-0.01059 -0.196157,-0.04335 -0.53125,0.21875 -4.222962,3.267051 -7.395515,7.857357 -8.9375,12.9375 -0.164567,0.542152 -0.01248,1.149208 0.46875,1.53125 1.818728,1.446975 2.90625,3.695338 2.90625,5.96875 0,2.273532 -1.08713,4.521813 -2.90625,5.96875 -0.479985,0.381747 -0.633486,0.987163 -0.46875,1.53125 1.530058,5.038653 4.674233,9.584933 8.84375,12.84375 0.219667,0.17229 0.57226,0.373016 1.09375,0.28125 0.549548,-0.09502 0.794166,-0.43111 0.9375,-0.65625 L 39.375,60.34375 c 0.339607,-0.534557 0.332392,-1.325645 -0.21875,-1.8125 C 36.202545,55.920802 34.5,52.178795 34.5,48.28125 c 0,-3.930923 1.70539,-7.70329 4.6875,-10.3125 0.515143,-0.452232 0.620179,-1.222452 0.25,-1.8125 L 34.46875,28.25 C 34.217696,27.85127 33.879344,27.691994 33.5,27.625 c -0.117065,-0.02065 -0.341093,-0.05455 -0.5625,0 z m -13.625,13.53125 c -3.982448,0 -7.25,3.254033 -7.25,7.25 0,3.995967 3.267552,7.25 7.25,7.25 3.982448,0 7.21875,-3.25961 7.21875,-7.25 0,-3.99039 -3.236302,-7.25 -7.21875,-7.25 z M 63.125,49.3125 c -0.769569,0.0016 -1.319832,0.49116 -1.4375,1.21875 -1.057294,6.521183 -6.829216,11.4375 -13.46875,11.4375 -1.835701,0 -3.658053,-0.341572 -5.40625,-1.09375 -0.562548,-0.240538 -1.365233,-0.09972 -1.75,0.5 l -5.03125,7.9375 c -0.247752,0.392521 -0.225944,0.870547 -0.15625,1.125 0.06798,0.247356 0.272781,0.683166 0.71875,0.90625 3.614473,1.817618 7.637743,2.78125 11.625,2.78125 1.497072,0 3.025908,-0.194886 4.5625,-0.46875 0.58298,-0.102634 1.090302,-0.658937 1.15625,-1.21875 0.446276,-3.871628 3.687239,-6.75 7.5625,-6.75 1.185283,0 2.416068,0.291028 3.53125,0.875 0.546899,0.286786 1.238374,0.177988 1.65625,-0.25 4.075708,-4.174925 6.671893,-9.678778 7.25,-15.46875 0.03943,-0.391809 -0.173898,-0.840085 -0.375,-1.0625 C 73.252948,49.438891 72.887433,49.311103 72.5,49.3125 l -9.375,0 z M 61.4375,66 c -3.980075,0 -7.25,3.238162 -7.25,7.21875 0,3.980589 3.269925,7.21875 7.25,7.21875 3.980075,0 7.21875,-3.243767 7.21875,-7.21875 C 68.65625,69.243768 65.417575,66 61.4375,66 z" />
    <path
       id="path4353"
       d="m 61.195972,18.5 c -3.39725,0 -6.148105,2.765875 -6.148105,6.175575 0,3.409702 2.750855,6.175576 6.148105,6.175576 3.397249,0 6.148104,-2.765874 6.148104,-6.175576 0,-3.4097 -2.750855,-6.175575 -6.148104,-6.175575 z m -12.984108,4.836815 c -3.791558,4.94e-4 -7.635678,0.961696 -11.092383,2.677522 -0.122927,0.06124 -0.199587,0.169934 -0.236466,0.3023 -0.03737,0.132366 -0.02978,0.272112 0.04299,0.388673 l 4.987273,7.924602 c 0.126369,0.201513 0.383102,0.286697 0.601912,0.194336 1.845871,-0.783826 3.761308,-1.166017 5.69667,-1.166017 7.118944,0 13.329718,5.298822 14.445894,12.329556 0.03737,0.236088 0.235436,0.410267 0.472931,0.410267 l 9.372634,0 c 0.136694,0 0.273497,-0.0494 0.365447,-0.151151 0.09195,-0.101744 0.141765,-0.229774 0.128981,-0.36708 -0.505476,-5.216622 -2.725758,-10.267413 -6.234091,-14.186548 -0.15833,-0.177806 -0.423285,-0.194676 -0.62341,-0.06478 -1.414643,0.917674 -3.019703,1.403539 -4.643322,1.403539 -4.736621,0 -8.576759,-3.865338 -8.577251,-8.593982 4.92e-4,-0.0024 0,-0.16484 0,-0.172743 0,-0.235593 -0.175862,-0.456137 -0.408439,-0.496638 -1.481024,-0.257818 -2.918659,-0.431858 -4.299374,-0.431858 z m -15.047807,5.1823 c -0.0649,0.01599 -0.14012,0.04464 -0.193471,0.08637 -4.065439,3.145185 -7.114281,7.56847 -8.598747,12.459115 -0.05802,0.191142 -0.0063,0.393766 0.150478,0.51823 2.043045,1.625441 3.267524,4.127476 3.267524,6.693805 0,2.566329 -1.223986,5.068365 -3.267524,6.693805 -0.155871,0.123969 -0.2085,0.326596 -0.150478,0.51823 1.472665,4.849651 4.497475,9.256065 8.512759,12.394336 0.107685,0.08446 0.230719,0.131672 0.365447,0.107964 0.134237,-0.02321 0.249188,-0.122441 0.322453,-0.237521 l 5.030267,-7.903009 c 0.128336,-0.202007 0.09349,-0.467651 -0.08599,-0.626196 -3.151355,-2.785128 -4.965777,-6.77856 -4.965777,-10.94761 0,-4.200166 1.824471,-8.204679 5.00877,-10.990795 0.179474,-0.157556 0.234837,-0.423201 0.107484,-0.626196 l -4.987273,-7.9246 c -0.07277,-0.115575 -0.188216,-0.192223 -0.322453,-0.21593 -0.06712,-0.01184 -0.128566,-0.01599 -0.193472,0 z M 19.298579,42.07947 c -3.476817,0 -6.298582,2.836828 -6.298582,6.326725 0,3.489897 2.821765,6.305132 6.298582,6.305132 3.476817,0 6.298582,-2.815235 6.298582,-6.305132 0,-3.489897 -2.821765,-6.326725 -6.298582,-6.326725 z m 53.204744,8.162122 -9.372634,0.0216 c -0.23651,4.94e-4 -0.456566,0.176154 -0.494427,0.410265 -1.13142,6.97838 -7.325122,12.243187 -14.424398,12.243187 -1.957981,0 -3.894638,-0.406116 -5.76116,-1.209204 -0.218318,-0.09335 -0.473576,-0.02729 -0.601912,0.172742 l -5.030267,7.924603 c -0.07326,0.116068 -0.07938,0.255812 -0.04299,0.388672 0.03638,0.132366 0.114031,0.241056 0.236466,0.302301 3.483749,1.75188 7.364547,2.677521 11.199867,2.677521 1.42251,0 2.907641,-0.143062 4.406858,-0.410265 0.210451,-0.03705 0.361867,-0.197393 0.386944,-0.410265 0.499575,-4.334014 4.1485,-7.600708 8.491262,-7.600708 1.346296,0 2.731916,0.34132 3.97692,0.993274 0.189307,0.09927 0.408947,0.06723 0.558918,-0.08637 3.926287,-4.021866 6.408372,-9.324414 6.964985,-14.899116 0.01377,-0.136812 -0.03654,-0.264841 -0.128981,-0.367079 -0.09244,-0.102237 -0.228752,-0.151644 -0.365447,-0.151151 z M 61.432437,66.932921 c -3.476817,0 -6.298582,2.811646 -6.298582,6.283539 0,3.471894 2.821765,6.28354 6.298582,6.28354 3.476817,0 6.298582,-2.811646 6.298582,-6.28354 0,-3.471893 -2.821765,-6.283539 -6.298582,-6.283539 z"
       style="fill:#000000;overflow:visible;opacity:0.3" />
    <path
       style="fill:#ffffff;overflow:visible"
       d="m 61.195972,17.5 c -3.39725,0 -6.148105,2.765875 -6.148105,6.175575 0,3.409702 2.750855,6.175576 6.148105,6.175576 3.397249,0 6.148104,-2.765874 6.148104,-6.175576 0,-3.4097 -2.750855,-6.175575 -6.148104,-6.175575 z m -12.984108,4.836815 c -3.791558,4.94e-4 -7.635678,0.961696 -11.092383,2.677522 -0.122927,0.06124 -0.199587,0.169934 -0.236466,0.3023 -0.03737,0.132366 -0.02978,0.272112 0.04299,0.388673 l 4.987273,7.924602 c 0.126369,0.201513 0.383102,0.286697 0.601912,0.194336 1.845871,-0.783826 3.761308,-1.166017 5.69667,-1.166017 7.118944,0 13.329718,5.298822 14.445894,12.329556 0.03737,0.236088 0.235436,0.410267 0.472931,0.410267 l 9.372634,0 c 0.136694,0 0.273497,-0.0494 0.365447,-0.151151 0.09195,-0.101744 0.141765,-0.229774 0.128981,-0.36708 -0.505476,-5.216622 -2.725758,-10.267413 -6.234091,-14.186548 -0.15833,-0.177806 -0.423285,-0.194676 -0.62341,-0.06478 -1.414643,0.917674 -3.019703,1.403539 -4.643322,1.403539 -4.736621,0 -8.576759,-3.865338 -8.577251,-8.593982 4.92e-4,-0.0024 0,-0.16484 0,-0.172743 0,-0.235593 -0.175862,-0.456137 -0.408439,-0.496638 -1.481024,-0.257818 -2.918659,-0.431858 -4.299374,-0.431858 z m -15.047807,5.1823 c -0.0649,0.01599 -0.14012,0.04464 -0.193471,0.08637 -4.065439,3.145185 -7.114281,7.56847 -8.598747,12.459115 -0.05802,0.191142 -0.0063,0.393766 0.150478,0.51823 2.043045,1.625441 3.267524,4.127476 3.267524,6.693805 0,2.566329 -1.223986,5.068365 -3.267524,6.693805 -0.155871,0.123969 -0.2085,0.326596 -0.150478,0.51823 1.472665,4.849651 4.497475,9.256065 8.512759,12.394336 0.107685,0.08446 0.230719,0.131672 0.365447,0.107964 0.134237,-0.02321 0.249188,-0.122441 0.322453,-0.237521 l 5.030267,-7.903009 c 0.128336,-0.202007 0.09349,-0.467651 -0.08599,-0.626196 -3.151355,-2.785128 -4.965777,-6.77856 -4.965777,-10.94761 0,-4.200166 1.824471,-8.204679 5.00877,-10.990795 0.179474,-0.157556 0.234837,-0.423201 0.107484,-0.626196 l -4.987273,-7.9246 c -0.07277,-0.115575 -0.188216,-0.192223 -0.322453,-0.21593 -0.06712,-0.01184 -0.128566,-0.01599 -0.193472,0 z M 19.298579,41.07947 c -3.476817,0 -6.298582,2.836828 -6.298582,6.326725 0,3.489897 2.821765,6.305132 6.298582,6.305132 3.476817,0 6.298582,-2.815235 6.298582,-6.305132 0,-3.489897 -2.821765,-6.326725 -6.298582,-6.326725 z m 53.204744,8.162122 -9.372634,0.0216 c -0.23651,4.94e-4 -0.456566,0.176154 -0.494427,0.410265 -1.13142,6.97838 -7.325122,12.243187 -14.424398,12.243187 -1.957981,0 -3.894638,-0.406116 -5.76116,-1.209204 -0.218318,-0.09335 -0.473576,-0.02729 -0.601912,0.172742 l -5.030267,7.924603 c -0.07326,0.116068 -0.07938,0.255812 -0.04299,0.388672 0.03638,0.132366 0.114031,0.241056 0.236466,0.302301 3.483749,1.75188 7.364547,2.677521 11.199867,2.677521 1.42251,0 2.907641,-0.143062 4.406858,-0.410265 0.210451,-0.03705 0.361867,-0.197393 0.386944,-0.410265 0.499575,-4.334014 4.1485,-7.600708 8.491262,-7.600708 1.346296,0 2.731916,0.34132 3.97692,0.993274 0.189307,0.09927 0.408947,0.06723 0.558918,-0.08637 3.926287,-4.021866 6.408372,-9.324414 6.964985,-14.899116 0.01377,-0.136812 -0.03654,-0.264841 -0.128981,-0.367079 -0.09244,-0.102237 -0.228752,-0.151644 -0.365447,-0.151151 z M 61.432437,65.932921 c -3.476817,0 -6.298582,2.811646 -6.298582,6.283539 0,3.471894 2.821765,6.28354 6.298582,6.28354 3.476817,0 6.298582,-2.811646 6.298582,-6.28354 0,-3.471893 -2.821765,-6.283539 -6.298582,-6.283539 z"
       id="path3324" />
  </g>
  <g
     inkscape:groupmode="layer"
     id="layer5"
     inkscape:label="Highlight"
     sodipodi:insensitive="true">
    <rect
       style="opacity:0.1;fill:url(#linearGradient3613);fill-opacity:1;fill-rule:nonzero;stroke:#ffffff;stroke-width:0.5;stroke-linecap:round;stroke-linejoin:miter;stroke-miterlimit:4;stroke-opacity:1;stroke-dasharray:none;stroke-dashoffset:0;filter:url(#filter3794)"
       id="rect3171"
       width="66"
       height="66"
       x="15"
       y="15"
       rx="12"
       ry="12"
       clip-path="url(#clipPath3613)" />
  </g>
</svg>
