<?xml version="1.0" encoding="UTF-8" standalone="no"?>
<!-- Created with Inkscape (http://www.inkscape.org/) -->

<svg
   xmlns:dc="http://purl.org/dc/elements/1.1/"
   xmlns:cc="http://creativecommons.org/ns#"
   xmlns:rdf="http://www.w3.org/1999/02/22-rdf-syntax-ns#"
   xmlns:svg="http://www.w3.org/2000/svg"
   xmlns="http://www.w3.org/2000/svg"
   xmlns:xlink="http://www.w3.org/1999/xlink"
   xmlns:sodipodi="http://sodipodi.sourceforge.net/DTD/sodipodi-0.dtd"
   xmlns:inkscape="http://www.inkscape.org/namespaces/inkscape"
   width="96"
   height="96"
   id="svg2408"
   sodipodi:version="0.32"
   inkscape:version="0.48.0 r9654"
   version="1.0"
   sodipodi:docname="start-here-gnome.svg"
   inkscape:output_extension="org.inkscape.output.svg.inkscape">
  <defs
     id="defs2410">
    <linearGradient
       id="linearGradient3637">
      <stop
         style="stop-color:#f0f0f0;stop-opacity:1;"
         offset="0"
         id="stop3639" />
      <stop
         style="stop-color:#dcdcdc;stop-opacity:1;"
         offset="1"
         id="stop3641" />
    </linearGradient>
    <linearGradient
       id="ButtonShadow"
       gradientTransform="scale(1.0058652,0.994169)"
       x1="45.447727"
       y1="92.539597"
       x2="45.447727"
       y2="7.0165396"
       gradientUnits="userSpaceOnUse">
      <stop
         style="stop-color:#000000;stop-opacity:1;"
         offset="0"
         id="stop3750" />
      <stop
         style="stop-color:#000000;stop-opacity:0.58823532;"
         offset="1"
         id="stop3752" />
    </linearGradient>
    <linearGradient
       inkscape:collect="always"
       id="linearGradient3737">
      <stop
         style="stop-color:#ffffff;stop-opacity:1;"
         offset="0"
         id="stop3739" />
      <stop
         style="stop-color:#ffffff;stop-opacity:0;"
         offset="1"
         id="stop3741" />
    </linearGradient>
    <linearGradient
       id="linearGradient3700">
      <stop
         style="stop-color:#2276c5;stop-opacity:1;"
         offset="0"
         id="stop3702" />
      <stop
         style="stop-color:#68baf4;stop-opacity:1;"
         offset="1"
         id="stop3704" />
    </linearGradient>
    <inkscape:perspective
       sodipodi:type="inkscape:persp3d"
       inkscape:vp_x="0 : 526.18109 : 1"
       inkscape:vp_y="0 : 1000 : 0"
       inkscape:vp_z="744.09448 : 526.18109 : 1"
       inkscape:persp3d-origin="372.04724 : 350.78739 : 1"
       id="perspective2416" />
    <linearGradient
       inkscape:collect="always"
       xlink:href="#linearGradient3700"
       id="linearGradient3706"
       x1="48"
       y1="90"
       x2="48"
       y2="5.9877172"
       gradientUnits="userSpaceOnUse" />
    <linearGradient
       inkscape:collect="always"
       xlink:href="#linearGradient3737"
       id="linearGradient3743"
       x1="36.357143"
       y1="6"
       x2="36.357143"
       y2="63.893143"
       gradientUnits="userSpaceOnUse" />
    <filter
       inkscape:collect="always"
       id="filter3174">
      <feGaussianBlur
         inkscape:collect="always"
         stdDeviation="1.71"
         id="feGaussianBlur3176" />
    </filter>
    <linearGradient
       inkscape:collect="always"
       xlink:href="#linearGradient3737"
       id="linearGradient3188"
       gradientUnits="userSpaceOnUse"
       x1="36.357143"
       y1="6"
       x2="36.357143"
       y2="63.893143" />
    <filter
       inkscape:collect="always"
       id="filter3794"
       x="-0.192"
       width="1.384"
       y="-0.192"
       height="1.384">
      <feGaussianBlur
         inkscape:collect="always"
         stdDeviation="5.28"
         id="feGaussianBlur3796" />
    </filter>
    <linearGradient
       inkscape:collect="always"
       xlink:href="#linearGradient3737"
       id="linearGradient3613"
       x1="48"
       y1="20.220806"
       x2="48"
       y2="138.66119"
       gradientUnits="userSpaceOnUse" />
    <radialGradient
       inkscape:collect="always"
       xlink:href="#linearGradient3737"
       id="radialGradient3619"
       cx="48"
       cy="90.171875"
       fx="48"
       fy="90.171875"
       r="42"
       gradientTransform="matrix(1.1573129,0,0,0.99590774,-7.5510206,0.19713193)"
       gradientUnits="userSpaceOnUse" />
    <clipPath
       clipPathUnits="userSpaceOnUse"
       id="clipPath3613">
      <rect
         ry="6"
         rx="6"
         y="6"
         x="6"
         height="84"
         width="84"
         id="rect3615"
         style="fill:#ffffff;fill-opacity:1;fill-rule:nonzero;stroke:none" />
    </clipPath>
    <linearGradient
       inkscape:collect="always"
       xlink:href="#linearGradient3700"
       id="linearGradient2843"
       gradientUnits="userSpaceOnUse"
       x1="48"
       y1="90"
       x2="48"
       y2="5.9877172"
       gradientTransform="translate(0,100)" />
    <linearGradient
       inkscape:collect="always"
       xlink:href="#linearGradient3700"
       id="linearGradient2848"
       gradientUnits="userSpaceOnUse"
       x1="48"
       y1="90"
       x2="48"
       y2="5.9877172" />
    <clipPath
       clipPathUnits="userSpaceOnUse"
       id="clipPath3625">
      <path
         style="fill:#ffffff;fill-opacity:1;stroke:none"
         d="M 0,0 0,96 96,96 96,0 0,0 z m 12,6 72,0 c 3.324,0 6,2.676 6,6 l 0,72 c 0,3.324 -2.676,6 -6,6 L 12,90 C 8.676,90 6,87.324 6,84 L 6,12 C 6,8.676 8.676,6 12,6 z"
         id="path3627" />
    </clipPath>
    <linearGradient
       inkscape:collect="always"
       xlink:href="#linearGradient3637"
       id="linearGradient3643"
       x1="44.512066"
       y1="6"
       x2="44.512066"
       y2="90.015434"
       gradientUnits="userSpaceOnUse" />
    <clipPath
       clipPathUnits="userSpaceOnUse"
       id="clipPath3649">
      <rect
         style="fill:#ffffff;fill-opacity:1;fill-rule:nonzero;stroke:none"
         id="rect3651"
         width="76"
         height="76"
         x="10"
         y="10"
         rx="4"
         ry="4" />
    </clipPath>
    <filter
       inkscape:collect="always"
       id="filter3657">
      <feGaussianBlur
         inkscape:collect="always"
         stdDeviation="1.14"
         id="feGaussianBlur3659" />
    </filter>
    <clipPath
       clipPathUnits="userSpaceOnUse"
       id="clipPath3697">
      <rect
         style="fill:#ff0000;fill-opacity:1;fill-rule:nonzero;stroke:none"
         id="rect3699"
         width="76"
         height="76"
         x="10"
         y="10"
         rx="4"
         ry="4" />
    </clipPath>
    <inkscape:perspective
       id="perspective2867"
       inkscape:persp3d-origin="0.5 : 0.33333333 : 1"
       inkscape:vp_z="1 : 0.5 : 1"
       inkscape:vp_y="0 : 1000 : 0"
       inkscape:vp_x="0 : 0.5 : 1"
       sodipodi:type="inkscape:persp3d" />
    <inkscape:perspective
       id="perspective2882"
       inkscape:persp3d-origin="0.5 : 0.33333333 : 1"
       inkscape:vp_z="1 : 0.5 : 1"
       inkscape:vp_y="0 : 1000 : 0"
       inkscape:vp_x="0 : 0.5 : 1"
       sodipodi:type="inkscape:persp3d" />
    <inkscape:perspective
       id="perspective2936"
       inkscape:persp3d-origin="0.5 : 0.33333333 : 1"
       inkscape:vp_z="1 : 0.5 : 1"
       inkscape:vp_y="0 : 1000 : 0"
       inkscape:vp_x="0 : 0.5 : 1"
       sodipodi:type="inkscape:persp3d" />
    <linearGradient
       inkscape:collect="always"
       xlink:href="#linearGradient4081"
       id="linearGradient3702"
       x1="27"
       y1="48"
       x2="69"
       y2="48"
       gradientUnits="userSpaceOnUse"
       gradientTransform="matrix(0,-1,1,0,0,96)" />
    <linearGradient
       id="linearGradient4081">
      <stop
         style="stop-color:#aaaaaa;stop-opacity:1;"
         offset="0"
         id="stop4083" />
      <stop
         style="stop-color:#f0f0f0;stop-opacity:1;"
         offset="1"
         id="stop4085" />
    </linearGradient>
    <linearGradient
       y2="48"
       x2="69"
       y1="48"
       x1="27"
       gradientTransform="matrix(0,-1,1,0,17.500795,102.10789)"
       gradientUnits="userSpaceOnUse"
       id="linearGradient2945"
       xlink:href="#linearGradient4081"
       inkscape:collect="always" />
    <linearGradient
       inkscape:collect="always"
       xlink:href="#linearGradient4081"
       id="linearGradient3680"
       x1="50.578938"
       y1="79.951607"
       x2="50.578938"
       y2="16.361158"
       gradientUnits="userSpaceOnUse" />
    <linearGradient
       inkscape:collect="always"
       xlink:href="#linearGradient4081"
       id="linearGradient3686"
       gradientUnits="userSpaceOnUse"
       x1="50.578938"
       y1="79.951607"
       x2="50.578938"
       y2="16.361158"
       gradientTransform="translate(0,1)" />
    <linearGradient
       inkscape:collect="always"
       xlink:href="#linearGradient4081"
       id="linearGradient3688"
       gradientUnits="userSpaceOnUse"
       x1="50.578938"
       y1="79.951607"
       x2="50.578938"
       y2="16.361158" />
    <linearGradient
       inkscape:collect="always"
       xlink:href="#linearGradient4081"
       id="linearGradient3695"
       gradientUnits="userSpaceOnUse"
       x1="50.578938"
       y1="79.951607"
       x2="50.578938"
       y2="16.361158"
       gradientTransform="translate(0,-1)" />
    <linearGradient
       inkscape:collect="always"
       xlink:href="#linearGradient4081"
       id="linearGradient3697"
       gradientUnits="userSpaceOnUse"
       x1="50.578938"
       y1="79.951607"
       x2="50.578938"
       y2="16.361158" />
    <inkscape:perspective
       id="perspective3775"
       inkscape:persp3d-origin="0.5 : 0.33333333 : 1"
       inkscape:vp_z="1 : 0.5 : 1"
       inkscape:vp_y="0 : 1000 : 0"
       inkscape:vp_x="0 : 0.5 : 1"
       sodipodi:type="inkscape:persp3d" />
    <linearGradient
       inkscape:collect="always"
       xlink:href="#linearGradient4081-9"
       id="linearGradient3680-4"
       x1="50.578938"
       y1="79.951607"
       x2="50.578938"
       y2="16.361158"
       gradientUnits="userSpaceOnUse" />
    <linearGradient
       id="linearGradient4081-9">
      <stop
         style="stop-color:#aaaaaa;stop-opacity:1;"
         offset="0"
         id="stop4083-8" />
      <stop
         style="stop-color:#f0f0f0;stop-opacity:1;"
         offset="1"
         id="stop4085-0" />
    </linearGradient>
    <linearGradient
       y2="90.238609"
       x2="32.251034"
       y1="6.1317081"
       x1="32.251034"
       gradientTransform="matrix(1.0238095,0,0,-1.0119048,-1.1428571,98.071429)"
       gradientUnits="userSpaceOnUse"
       id="linearGradient3199"
       xlink:href="#ButtonShadow-0"
       inkscape:collect="always" />
    <linearGradient
       id="ButtonShadow-0"
       gradientTransform="matrix(1.0058652,0,0,0.994169,100,0)"
       x1="45.447727"
       y1="92.539597"
       x2="45.447727"
       y2="7.0165396"
       gradientUnits="userSpaceOnUse">
      <stop
         style="stop-color:#000000;stop-opacity:1;"
         offset="0"
         id="stop3750-8" />
      <stop
         style="stop-color:#000000;stop-opacity:0.58823532;"
         offset="1"
         id="stop3752-5" />
    </linearGradient>
    <linearGradient
       inkscape:collect="always"
       xlink:href="#ButtonShadow-0"
       id="linearGradient3780"
       gradientUnits="userSpaceOnUse"
       gradientTransform="matrix(1.0238095,0,0,-1.0119048,-1.1428571,98.071429)"
       x1="32.251034"
       y1="6.1317081"
       x2="32.251034"
       y2="90.238609" />
    <linearGradient
       id="linearGradient3079"
       gradientTransform="matrix(1.0058652,0,0,0.994169,100,0)"
       x1="45.447727"
       y1="92.539597"
       x2="45.447727"
       y2="7.0165396"
       gradientUnits="userSpaceOnUse">
      <stop
         style="stop-color:#000000;stop-opacity:1;"
         offset="0"
         id="stop3081" />
      <stop
         style="stop-color:#000000;stop-opacity:0.58823532;"
         offset="1"
         id="stop3083" />
    </linearGradient>
    <linearGradient
       inkscape:collect="always"
       xlink:href="#ButtonShadow-0"
       id="linearGradient3772"
       gradientUnits="userSpaceOnUse"
       gradientTransform="matrix(1.0238095,0,0,-1.0119048,-1.1428571,98.071429)"
       x1="32.251034"
       y1="6.1317081"
       x2="32.251034"
       y2="90.238609" />
    <linearGradient
       id="linearGradient3086"
       gradientTransform="matrix(1.0058652,0,0,0.994169,100,0)"
       x1="45.447727"
       y1="92.539597"
       x2="45.447727"
       y2="7.0165396"
       gradientUnits="userSpaceOnUse">
      <stop
         style="stop-color:#000000;stop-opacity:1;"
         offset="0"
         id="stop3088" />
      <stop
         style="stop-color:#000000;stop-opacity:0.58823532;"
         offset="1"
         id="stop3090" />
    </linearGradient>
    <linearGradient
       inkscape:collect="always"
       xlink:href="#ButtonShadow-0"
       id="linearGradient3725"
       gradientUnits="userSpaceOnUse"
       gradientTransform="matrix(1.0238095,0,0,-1.0119048,-1.1428571,98.071429)"
       x1="32.251034"
       y1="6.1317081"
       x2="32.251034"
       y2="90.238609" />
    <linearGradient
       id="linearGradient3093"
       gradientTransform="matrix(1.0058652,0,0,0.994169,100,0)"
       x1="45.447727"
       y1="92.539597"
       x2="45.447727"
       y2="7.0165396"
       gradientUnits="userSpaceOnUse">
      <stop
         style="stop-color:#000000;stop-opacity:1;"
         offset="0"
         id="stop3095" />
      <stop
         style="stop-color:#000000;stop-opacity:0.58823532;"
         offset="1"
         id="stop3097" />
    </linearGradient>
    <linearGradient
       inkscape:collect="always"
       xlink:href="#ButtonShadow-0"
       id="linearGradient3721"
       gradientUnits="userSpaceOnUse"
       gradientTransform="matrix(1,0,0,-1,0,97)"
       x1="32.251034"
       y1="6.1317081"
       x2="32.251034"
       y2="90.238609" />
    <linearGradient
       id="linearGradient3100"
       gradientTransform="matrix(1.0058652,0,0,0.994169,100,0)"
       x1="45.447727"
       y1="92.539597"
       x2="45.447727"
       y2="7.0165396"
       gradientUnits="userSpaceOnUse">
      <stop
         style="stop-color:#000000;stop-opacity:1;"
         offset="0"
         id="stop3102" />
      <stop
         style="stop-color:#000000;stop-opacity:0.58823532;"
         offset="1"
         id="stop3104" />
    </linearGradient>
    <linearGradient
       y2="90.238609"
       x2="32.251034"
       y1="6.1317081"
       x1="32.251034"
       gradientTransform="matrix(1.0238095,0,0,-1.0119048,-1.1428571,98.071429)"
       gradientUnits="userSpaceOnUse"
       id="linearGradient3111"
       xlink:href="#ButtonShadow-0"
       inkscape:collect="always" />
    <linearGradient
       inkscape:collect="always"
       xlink:href="#linearGradient3737-3"
       id="linearGradient3188-8"
       gradientUnits="userSpaceOnUse"
       x1="36.357143"
       y1="6"
       x2="36.357143"
       y2="63.893143" />
    <linearGradient
       inkscape:collect="always"
       id="linearGradient3737-3">
      <stop
         style="stop-color:#ffffff;stop-opacity:1;"
         offset="0"
         id="stop3739-6" />
      <stop
         style="stop-color:#ffffff;stop-opacity:0;"
         offset="1"
         id="stop3741-1" />
    </linearGradient>
    <radialGradient
       inkscape:collect="always"
       xlink:href="#linearGradient3737-3"
       id="radialGradient3619-3"
       cx="48"
       cy="90.171875"
       fx="48"
       fy="90.171875"
       r="42"
       gradientTransform="matrix(1.1573129,0,0,0.99590774,-7.551021,0.1971319)"
       gradientUnits="userSpaceOnUse" />
  </defs>
  <sodipodi:namedview
     id="base"
     pagecolor="#ffffff"
     bordercolor="#666666"
     borderopacity="1.0"
     inkscape:pageopacity="0.0"
     inkscape:pageshadow="2"
     inkscape:zoom="4.3634718"
     inkscape:cx="87.862025"
     inkscape:cy="27.828237"
     inkscape:document-units="px"
     inkscape:current-layer="layer6"
     showgrid="true"
     showborder="true"
     inkscape:showpageshadow="false"
     inkscape:window-width="1920"
     inkscape:window-height="1029"
     inkscape:window-x="0"
     inkscape:window-y="25"
     inkscape:window-maximized="1"
     inkscape:snap-global="false">
    <inkscape:grid
       type="xygrid"
       id="grid3732"
       visible="true"
       enabled="true" />
  </sodipodi:namedview>
  <metadata
     id="metadata2413">
    <rdf:RDF>
      <cc:Work
         rdf:about="">
        <dc:format>image/svg+xml</dc:format>
        <dc:type
           rdf:resource="http://purl.org/dc/dcmitype/StillImage" />
      </cc:Work>
    </rdf:RDF>
  </metadata>
  <g
     inkscape:groupmode="layer"
     id="layer2"
     inkscape:label="Blur Shadow"
     style="display:none"
     sodipodi:insensitive="true">
    <rect
       style="opacity:0.9;fill:url(#ButtonShadow);fill-opacity:1;fill-rule:nonzero;stroke:none;filter:url(#filter3174)"
       id="rect3745"
       width="86"
       height="85"
       x="5"
       y="7"
       rx="6"
       ry="6"
       clip-path="url(#clipPath3625)" />
  </g>
  <g
     inkscape:groupmode="layer"
     id="layer4"
     inkscape:label="Shadow"
     style="display:inline"
     sodipodi:insensitive="true">
    <path
       style="opacity:0.07999998;fill:url(#linearGradient3111);fill-opacity:1;fill-rule:nonzero;stroke:none;display:inline"
       d="M 12,3.96875 C 6.4889098,3.96875 1.96875,8.4889098 1.96875,14 l 0,71 c 0,5.51109 4.5201597,10.03125 10.03125,10.03125 l 72,0 c 5.51109,0 10.03125,-4.52016 10.03125,-10.03125 l 0,-71 C 94.03125,8.4889097 89.51109,3.96875 84,3.96875 l -72,0 z M 12,6 84,6 c 3.324,0 6,2.676 6,6 l 0,72 c 0,3.324 -2.676,6 -6,6 L 12,90 C 8.676,90 6,87.324 6,84 L 6,12 C 6,8.676 8.676,6 12,6 z"
       id="path3786"
       inkscape:connector-curvature="0" />
    <path
       style="opacity:0.1;fill:url(#linearGradient3780);fill-opacity:1;fill-rule:nonzero;stroke:none;display:inline"
       d="M 12,4.96875 C 7.0283671,4.96875 2.96875,9.0283671 2.96875,14 l 0,71 c 0,4.971633 4.059617,9.03125 9.03125,9.03125 l 72,0 c 4.971633,0 9.03125,-4.059617 9.03125,-9.03125 l 0,-71 C 93.03125,9.028367 88.971633,4.96875 84,4.96875 l -72,0 z M 12,6 84,6 c 3.324,0 6,2.676 6,6 l 0,72 c 0,3.324 -2.676,6 -6,6 L 12,90 C 8.676,90 6,87.324 6,84 L 6,12 C 6,8.676 8.676,6 12,6 z"
       id="path3778"
       inkscape:connector-curvature="0" />
    <path
       style="opacity:0.2;fill:url(#linearGradient3772);fill-opacity:1;fill-rule:nonzero;stroke:none;display:inline"
       d="M 11.1875,6.03125 C 7.159982,6.4419011 4,9.8664375 4,14 l 0,71 c 0,4.409133 3.590867,8 8,8 l 72,0 c 4.409133,0 8,-3.590867 8,-8 L 92,14 C 92,9.8029382 88.741028,6.3539584 84.625,6.03125 87.657886,6.337417 90,8.88375 90,12 l 0,72 c 0,3.324 -2.676,6 -6,6 L 12,90 C 8.676,90 6,87.324 6,84 L 6,12 c 0,-3.11625 2.342114,-5.662583 5.375,-5.96875 -0.06227,0.00488 -0.12563,-0.00631 -0.1875,0 z"
       id="path3770"
       inkscape:connector-curvature="0" />
    <path
       style="opacity:0.3;fill:url(#linearGradient3725);fill-opacity:1;fill-rule:nonzero;stroke:none;display:inline"
       d="M 6.4375,9.75 C 5.5380109,10.927446 5,12.397277 5,14 l 0,71 c 0,3.878 3.122,7 7,7 l 72,0 c 3.878,0 7,-3.122 7,-7 L 91,14 C 91,12.397277 90.461989,10.927446 89.5625,9.75 89.841816,10.444095 90,11.203625 90,12 l 0,72 c 0,3.324 -2.676,6 -6,6 L 12,90 C 8.676,90 6,87.324 6,84 L 6,12 C 6,11.203625 6.1581836,10.444095 6.4375,9.75 z"
       id="rect3723"
       inkscape:connector-curvature="0" />
    <path
       style="opacity:0.45;fill:url(#linearGradient3721);fill-opacity:1;fill-rule:nonzero;stroke:none;display:inline"
       d="m 6,84 0,1 c 0,3.324 2.676,6 6,6 l 72,0 c 3.324,0 6,-2.676 6,-6 l 0,-1 c 0,3.324 -2.676,6 -6,6 L 12,90 C 8.676,90 6,87.324 6,84 z"
       id="rect3716"
       inkscape:connector-curvature="0" />
  </g>
  <g
     inkscape:label="Button with borders"
     inkscape:groupmode="layer"
     id="layer1"
     sodipodi:insensitive="true"
     style="display:none">
    <rect
       style="opacity:0.8;fill:#000000;fill-opacity:1;fill-rule:nonzero;stroke:none"
       id="rect2419"
       width="84"
       height="84"
       x="6"
       y="6"
       rx="6"
       ry="6" />
    <path
       style="opacity:0.07999998;fill:#000000;fill-opacity:1;fill-rule:nonzero;stroke:none"
       d="m 14,10 c -2.216,0 -4,1.784 -4,4 l 0,68 c 0,2.216 1.784,4 4,4 l 68,0 c 2.216,0 4,-1.784 4,-4 l 0,-68 c 0,-2.216 -1.784,-4 -4,-4 l -68,0 z m 0,3.0625 68,0 c 0.578769,0 0.9375,0.358731 0.9375,0.9375 l 0,68 c 0,0.578769 -0.358731,0.9375 -0.9375,0.9375 l -68,0 c -0.578769,0 -0.9375,-0.358731 -0.9375,-0.9375 l 0,-68 c 0,-0.578769 0.358731,-0.9375 0.9375,-0.9375 z"
       id="rect3726"
       inkscape:connector-curvature="0" />
    <path
       style="fill:url(#linearGradient3643);fill-opacity:1;fill-rule:nonzero;stroke:none"
       d="M 12,6 C 8.676,6 6,8.676 6,12 l 0,72 c 0,3.324 2.676,6 6,6 l 72,0 c 3.324,0 6,-2.676 6,-6 L 90,12 C 90,8.676 87.324,6 84,6 L 12,6 z m 2,4 68,0 c 2.216,0 4,1.784 4,4 l 0,68 c 0,2.216 -1.784,4 -4,4 l -68,0 c -2.216,0 -4,-1.784 -4,-4 l 0,-68 c 0,-2.216 1.784,-4 4,-4 z"
       id="rect3629"
       inkscape:connector-curvature="0" />
    <path
       style="fill:url(#linearGradient3188);fill-opacity:1;fill-rule:nonzero;stroke:none"
       d="M 12,6 C 8.676,6 6,8.676 6,12 l 0,2 0,68 0,2 c 0,0.334721 0.04135,0.6507 0.09375,0.96875 0.0487,0.295596 0.09704,0.596915 0.1875,0.875 0.00988,0.03038 0.020892,0.0636 0.03125,0.09375 0.098865,0.287771 0.2348802,0.547452 0.375,0.8125 0.1445918,0.273507 0.3156161,0.535615 0.5,0.78125 0.1843839,0.245635 0.3737765,0.473472 0.59375,0.6875 0.439947,0.428056 0.94291,0.814526 1.5,1.09375 0.278545,0.139612 0.5734731,0.246947 0.875,0.34375 -0.2562018,-0.100222 -0.4867109,-0.236272 -0.71875,-0.375 -0.00741,-0.0044 -0.023866,0.0045 -0.03125,0 -0.031933,-0.0193 -0.062293,-0.04251 -0.09375,-0.0625 -0.120395,-0.0767 -0.2310226,-0.163513 -0.34375,-0.25 -0.1061728,-0.0808 -0.2132809,-0.161112 -0.3125,-0.25 C 8.4783201,88.557317 8.3087904,88.373362 8.15625,88.1875 8.0486711,88.057245 7.9378561,87.922215 7.84375,87.78125 7.818661,87.74287 7.805304,87.69538 7.78125,87.65625 7.716487,87.553218 7.6510225,87.451733 7.59375,87.34375 7.4927417,87.149044 7.3880752,86.928049 7.3125,86.71875 7.30454,86.69694 7.288911,86.6782 7.28125,86.65625 7.2494249,86.5643 7.2454455,86.469419 7.21875,86.375 7.1884177,86.268382 7.1483606,86.171969 7.125,86.0625 7.0521214,85.720988 7,85.364295 7,85 L 7,83 7,15 7,13 C 7,10.218152 9.2181517,8 12,8 l 2,0 68,0 2,0 c 2.781848,0 5,2.218152 5,5 l 0,2 0,68 0,2 c 0,0.364295 -0.05212,0.720988 -0.125,1.0625 -0.04415,0.206893 -0.08838,0.397658 -0.15625,0.59375 -0.0077,0.02195 -0.0233,0.04069 -0.03125,0.0625 -0.06274,0.173739 -0.138383,0.367449 -0.21875,0.53125 -0.04158,0.0828 -0.07904,0.169954 -0.125,0.25 -0.0546,0.09721 -0.126774,0.18835 -0.1875,0.28125 -0.09411,0.140965 -0.204921,0.275995 -0.3125,0.40625 -0.143174,0.17445 -0.303141,0.346998 -0.46875,0.5 -0.01117,0.0102 -0.01998,0.02115 -0.03125,0.03125 -0.138386,0.125556 -0.285091,0.234436 -0.4375,0.34375 -0.102571,0.07315 -0.204318,0.153364 -0.3125,0.21875 -0.0074,0.0045 -0.02384,-0.0044 -0.03125,0 -0.232039,0.138728 -0.462548,0.274778 -0.71875,0.375 0.301527,-0.0968 0.596455,-0.204138 0.875,-0.34375 0.55709,-0.279224 1.060053,-0.665694 1.5,-1.09375 0.219973,-0.214028 0.409366,-0.441865 0.59375,-0.6875 0.184384,-0.245635 0.355408,-0.507743 0.5,-0.78125 0.14012,-0.265048 0.276135,-0.524729 0.375,-0.8125 0.01041,-0.03078 0.02133,-0.06274 0.03125,-0.09375 0.09046,-0.278085 0.1388,-0.579404 0.1875,-0.875 C 89.95865,84.6507 90,84.334721 90,84 l 0,-2 0,-68 0,-2 C 90,8.676 87.324,6 84,6 L 12,6 z"
       id="rect3728"
       inkscape:connector-curvature="0" />
    <path
       id="path3615"
       d="M 12,90 C 8.676,90 6,87.324 6,84 L 6,82 6,14 6,12 c 0,-0.334721 0.04135,-0.6507 0.09375,-0.96875 0.0487,-0.295596 0.09704,-0.596915 0.1875,-0.875 C 6.29113,10.12587 6.302142,10.09265 6.3125,10.0625 6.411365,9.774729 6.5473802,9.515048 6.6875,9.25 6.8320918,8.976493 7.0031161,8.714385 7.1875,8.46875 7.3718839,8.223115 7.5612765,7.995278 7.78125,7.78125 8.221197,7.353194 8.72416,6.966724 9.28125,6.6875 9.559795,6.547888 9.8547231,6.440553 10.15625,6.34375 9.9000482,6.443972 9.6695391,6.580022 9.4375,6.71875 c -0.00741,0.0044 -0.023866,-0.0045 -0.03125,0 -0.031933,0.0193 -0.062293,0.04251 -0.09375,0.0625 -0.120395,0.0767 -0.2310226,0.163513 -0.34375,0.25 -0.1061728,0.0808 -0.2132809,0.161112 -0.3125,0.25 C 8.4783201,7.442683 8.3087904,7.626638 8.15625,7.8125 8.0486711,7.942755 7.9378561,8.077785 7.84375,8.21875 7.818661,8.25713 7.805304,8.30462 7.78125,8.34375 7.716487,8.446782 7.6510225,8.548267 7.59375,8.65625 7.4927417,8.850956 7.3880752,9.071951 7.3125,9.28125 7.30454,9.30306 7.288911,9.3218 7.28125,9.34375 7.2494249,9.4357 7.2454455,9.530581 7.21875,9.625 7.1884177,9.731618 7.1483606,9.828031 7.125,9.9375 7.0521214,10.279012 7,10.635705 7,11 l 0,2 0,68 0,2 c 0,2.781848 2.2181517,5 5,5 l 2,0 68,0 2,0 c 2.781848,0 5,-2.218152 5,-5 l 0,-2 0,-68 0,-2 C 89,10.635705 88.94788,10.279012 88.875,9.9375 88.83085,9.730607 88.78662,9.539842 88.71875,9.34375 88.71105,9.3218 88.69545,9.30306 88.6875,9.28125 88.62476,9.107511 88.549117,8.913801 88.46875,8.75 88.42717,8.6672 88.38971,8.580046 88.34375,8.5 88.28915,8.40279 88.216976,8.31165 88.15625,8.21875 88.06214,8.077785 87.951329,7.942755 87.84375,7.8125 87.700576,7.63805 87.540609,7.465502 87.375,7.3125 87.36383,7.3023 87.35502,7.29135 87.34375,7.28125 87.205364,7.155694 87.058659,7.046814 86.90625,6.9375 86.803679,6.86435 86.701932,6.784136 86.59375,6.71875 c -0.0074,-0.0045 -0.02384,0.0044 -0.03125,0 -0.232039,-0.138728 -0.462548,-0.274778 -0.71875,-0.375 0.301527,0.0968 0.596455,0.204138 0.875,0.34375 0.55709,0.279224 1.060053,0.665694 1.5,1.09375 0.219973,0.214028 0.409366,0.441865 0.59375,0.6875 0.184384,0.245635 0.355408,0.507743 0.5,0.78125 0.14012,0.265048 0.276135,0.524729 0.375,0.8125 0.01041,0.03078 0.02133,0.06274 0.03125,0.09375 0.09046,0.278085 0.1388,0.579404 0.1875,0.875 C 89.95865,11.3493 90,11.665279 90,12 l 0,2 0,68 0,2 c 0,3.324 -2.676,6 -6,6 l -72,0 z"
       style="opacity:0.6;fill:url(#radialGradient3619);fill-opacity:1;fill-rule:nonzero;stroke:none"
       inkscape:connector-curvature="0" />
    <rect
       ry="6"
       rx="6"
       y="106"
       x="6"
       height="84"
       width="84"
       id="rect2841"
       style="fill:url(#linearGradient2843);fill-opacity:1;fill-rule:nonzero;stroke:none" />
    <rect
       ry="4"
       rx="4"
       y="110"
       x="10"
       height="76"
       width="76"
       id="rect3634"
       style="fill:#ff0000;fill-opacity:1;fill-rule:nonzero;stroke:none" />
    <path
       style="font-size:medium;font-style:normal;font-variant:normal;font-weight:normal;font-stretch:normal;text-indent:0;text-align:start;text-decoration:none;line-height:normal;letter-spacing:normal;word-spacing:normal;text-transform:none;direction:ltr;block-progression:tb;writing-mode:lr-tb;text-anchor:start;color:#000000;fill:#000000;fill-opacity:1;stroke:none;stroke-width:2;marker:none;visibility:visible;display:inline;overflow:visible;filter:url(#filter3657);enable-background:accumulate;font-family:Abandoned Bitplane;-inkscape-font-specification:Abandoned Bitplane"
       d="m 14,9 c -2.752703,0 -5,2.247297 -5,5 l 0,68 c 0,2.752703 2.247297,5 5,5 l 68,0 c 2.752703,0 5,-2.247297 5,-5 L 87,14 C 87,11.247297 84.752703,9 82,9 L 14,9 z m 0,2 68,0 c 1.679297,0 3,1.320703 3,3 l 0,68 c 0,1.679297 -1.320703,3 -3,3 l -68,0 c -1.679297,0 -3,-1.320703 -3,-3 l 0,-68 c 0,-1.679297 1.320703,-3 3,-3 z"
       clip-path="url(#clipPath3649)"
       id="rect3647"
       transform="translate(-110,0)"
       inkscape:connector-curvature="0" />
    <path
       style="opacity:0.16000001;fill:#000000;fill-opacity:1;fill-rule:nonzero;stroke:none"
       d="m 14.089286,10 c -2.216,0 -4,1.784 -4,4 l 0,68 c 0,2.216 1.784,4 4,4 l 68,0 c 2.216,0 4,-1.784 4,-4 l 0,-68 c 0,-2.216 -1.784,-4 -4,-4 l -68,0 z m 0,2 68,0 c 1.140301,0 2,0.859699 2,2 l 0,68 c 0,1.140301 -0.859699,2 -2,2 l -68,0 c -1.140301,0 -2,-0.859699 -2,-2 l 0,-68 c 0,-1.140301 0.859699,-2 2,-2 z"
       id="path3709"
       inkscape:connector-curvature="0" />
    <path
       style="opacity:0.36000001;fill:#000000;fill-opacity:1;fill-rule:nonzero;stroke:none"
       d="m 14,10 c -2.216,0 -4,1.784 -4,4 l 0,68 c 0,2.216 1.784,4 4,4 l 68,0 c 2.216,0 4,-1.784 4,-4 l 0,-68 c 0,-2.216 -1.784,-4 -4,-4 l -68,0 z m 0,1 68,0 c 1.673848,0 3,1.326152 3,3 l 0,68 c 0,1.673848 -1.326152,3 -3,3 l -68,0 c -1.673848,0 -3,-1.326152 -3,-3 l 0,-68 c 0,-1.673848 1.326152,-3 3,-3 z"
       id="path3707"
       inkscape:connector-curvature="0" />
  </g>
  <g
     inkscape:groupmode="layer"
     id="layer6"
     inkscape:label="Button"
     style="display:inline">
    <rect
       style="opacity:0.6;fill:#000000;fill-opacity:1;fill-rule:nonzero;stroke:none;display:inline"
       id="rect2419-9"
       width="84"
       height="84"
       x="6"
       y="6"
       rx="6"
       ry="6" />
    <path
       style="opacity:0.01000001;fill:url(#linearGradient3188-8);fill-opacity:1;fill-rule:nonzero;stroke:none;display:inline"
       d="M 12,6 C 8.676,6 6,8.676 6,12 l 0,2 0,68 0,2 c 0,0.334721 0.04135,0.6507 0.09375,0.96875 0.0487,0.295596 0.09704,0.596915 0.1875,0.875 0.00988,0.03038 0.020892,0.0636 0.03125,0.09375 0.098865,0.287771 0.2348802,0.547452 0.375,0.8125 0.1445918,0.273507 0.3156161,0.535615 0.5,0.78125 0.1843839,0.245635 0.3737765,0.473472 0.59375,0.6875 0.439947,0.428056 0.94291,0.814526 1.5,1.09375 0.278545,0.139612 0.5734731,0.246947 0.875,0.34375 -0.2562018,-0.100222 -0.4867109,-0.236272 -0.71875,-0.375 -0.00741,-0.0044 -0.023866,0.0045 -0.03125,0 -0.031933,-0.0193 -0.062293,-0.04251 -0.09375,-0.0625 -0.120395,-0.0767 -0.2310226,-0.163513 -0.34375,-0.25 -0.1061728,-0.0808 -0.2132809,-0.161112 -0.3125,-0.25 C 8.4783201,88.557317 8.3087904,88.373362 8.15625,88.1875 8.0486711,88.057245 7.9378561,87.922215 7.84375,87.78125 7.818661,87.74287 7.805304,87.69538 7.78125,87.65625 7.716487,87.553218 7.6510225,87.451733 7.59375,87.34375 7.4927417,87.149044 7.3880752,86.928049 7.3125,86.71875 7.30454,86.69694 7.288911,86.6782 7.28125,86.65625 7.2494249,86.5643 7.2454455,86.469419 7.21875,86.375 7.1884177,86.268382 7.1483606,86.171969 7.125,86.0625 7.0521214,85.720988 7,85.364295 7,85 L 7,83 7,15 7,13 C 7,10.218152 9.2181517,8 12,8 l 2,0 68,0 2,0 c 2.781848,0 5,2.218152 5,5 l 0,2 0,68 0,2 c 0,0.364295 -0.05212,0.720988 -0.125,1.0625 -0.04415,0.206893 -0.08838,0.397658 -0.15625,0.59375 -0.0077,0.02195 -0.0233,0.04069 -0.03125,0.0625 -0.06274,0.173739 -0.138383,0.367449 -0.21875,0.53125 -0.04158,0.0828 -0.07904,0.169954 -0.125,0.25 -0.0546,0.09721 -0.126774,0.18835 -0.1875,0.28125 -0.09411,0.140965 -0.204921,0.275995 -0.3125,0.40625 -0.143174,0.17445 -0.303141,0.346998 -0.46875,0.5 -0.01117,0.0102 -0.01998,0.02115 -0.03125,0.03125 -0.138386,0.125556 -0.285091,0.234436 -0.4375,0.34375 -0.102571,0.07315 -0.204318,0.153364 -0.3125,0.21875 -0.0074,0.0045 -0.02384,-0.0044 -0.03125,0 -0.232039,0.138728 -0.462548,0.274778 -0.71875,0.375 0.301527,-0.0968 0.596455,-0.204138 0.875,-0.34375 0.55709,-0.279224 1.060053,-0.665694 1.5,-1.09375 0.219973,-0.214028 0.409366,-0.441865 0.59375,-0.6875 0.184384,-0.245635 0.355408,-0.507743 0.5,-0.78125 0.14012,-0.265048 0.276135,-0.524729 0.375,-0.8125 0.01041,-0.03078 0.02133,-0.06274 0.03125,-0.09375 0.09046,-0.278085 0.1388,-0.579404 0.1875,-0.875 C 89.95865,84.6507 90,84.334721 90,84 l 0,-2 0,-68 0,-2 C 90,8.676 87.324,6 84,6 L 12,6 z"
       id="rect3728-4"
       inkscape:connector-curvature="0" />
    <path
       id="path3615-6"
       d="M 12,90 C 8.676,90 6,87.324 6,84 L 6,82 6,14 6,12 c 0,-0.334721 0.04135,-0.6507 0.09375,-0.96875 0.0487,-0.295596 0.09704,-0.596915 0.1875,-0.875 C 6.29113,10.12587 6.302142,10.09265 6.3125,10.0625 6.411365,9.774729 6.5473802,9.515048 6.6875,9.25 6.8320918,8.976493 7.0031161,8.714385 7.1875,8.46875 7.3718839,8.223115 7.5612765,7.995278 7.78125,7.78125 8.221197,7.353194 8.72416,6.966724 9.28125,6.6875 9.559795,6.547888 9.8547231,6.440553 10.15625,6.34375 9.9000482,6.443972 9.6695391,6.580022 9.4375,6.71875 c -0.00741,0.0044 -0.023866,-0.0045 -0.03125,0 -0.031933,0.0193 -0.062293,0.04251 -0.09375,0.0625 -0.120395,0.0767 -0.2310226,0.163513 -0.34375,0.25 -0.1061728,0.0808 -0.2132809,0.161112 -0.3125,0.25 C 8.4783201,7.442683 8.3087904,7.626638 8.15625,7.8125 8.0486711,7.942755 7.9378561,8.077785 7.84375,8.21875 7.818661,8.25713 7.805304,8.30462 7.78125,8.34375 7.716487,8.446782 7.6510225,8.548267 7.59375,8.65625 7.4927417,8.850956 7.3880752,9.071951 7.3125,9.28125 7.30454,9.30306 7.288911,9.3218 7.28125,9.34375 7.2494249,9.4357 7.2454455,9.530581 7.21875,9.625 7.1884177,9.731618 7.1483606,9.828031 7.125,9.9375 7.0521214,10.279012 7,10.635705 7,11 l 0,2 0,68 0,2 c 0,2.781848 2.2181517,5 5,5 l 2,0 68,0 2,0 c 2.781848,0 5,-2.218152 5,-5 l 0,-2 0,-68 0,-2 C 89,10.635705 88.94788,10.279012 88.875,9.9375 88.83085,9.730607 88.78662,9.539842 88.71875,9.34375 88.71105,9.3218 88.69545,9.30306 88.6875,9.28125 88.62476,9.107511 88.549117,8.913801 88.46875,8.75 88.42717,8.6672 88.38971,8.580046 88.34375,8.5 88.28915,8.40279 88.216976,8.31165 88.15625,8.21875 88.06214,8.077785 87.951329,7.942755 87.84375,7.8125 87.700576,7.63805 87.540609,7.465502 87.375,7.3125 87.36383,7.3023 87.35502,7.29135 87.34375,7.28125 87.205364,7.155694 87.058659,7.046814 86.90625,6.9375 86.803679,6.86435 86.701932,6.784136 86.59375,6.71875 c -0.0074,-0.0045 -0.02384,0.0044 -0.03125,0 -0.232039,-0.138728 -0.462548,-0.274778 -0.71875,-0.375 0.301527,0.0968 0.596455,0.204138 0.875,0.34375 0.55709,0.279224 1.060053,0.665694 1.5,1.09375 0.219973,0.214028 0.409366,0.441865 0.59375,0.6875 0.184384,0.245635 0.355408,0.507743 0.5,0.78125 0.14012,0.265048 0.276135,0.524729 0.375,0.8125 0.01041,0.03078 0.02133,0.06274 0.03125,0.09375 0.09046,0.278085 0.1388,0.579404 0.1875,0.875 C 89.95865,11.3493 90,11.665279 90,12 l 0,2 0,68 0,2 c 0,3.324 -2.676,6 -6,6 l -72,0 z"
       style="opacity:0.15;fill:url(#radialGradient3619-3);fill-opacity:1;fill-rule:nonzero;stroke:none;display:inline"
       inkscape:connector-curvature="0" />
  </g>
  <g
     inkscape:groupmode="layer"
     id="layer5"
     inkscape:label="Highlight"
     sodipodi:insensitive="true"
     style="display:none">
    <rect
       style="opacity:0.1;fill:url(#linearGradient3613);fill-opacity:1;fill-rule:nonzero;stroke:#ffffff;stroke-width:0.5;stroke-linecap:round;stroke-linejoin:miter;stroke-miterlimit:4;stroke-opacity:1;stroke-dasharray:none;stroke-dashoffset:0;filter:url(#filter3794)"
       id="rect3171"
       width="66"
       height="66"
       x="15"
       y="15"
       rx="12"
       ry="12"
       clip-path="url(#clipPath3613)" />
  </g>
  <g
     inkscape:groupmode="layer"
     id="layer3"
     inkscape:label="Symbol"
     style="display:inline"
     sodipodi:insensitive="true">
    <path
       sodipodi:type="inkscape:offset"
       inkscape:radius="1.0839186"
       inkscape:original="M 68.03125 15.96875 C 65.31736 16.149108 62.283728 17.230874 59.8125 19.25 C 58.175729 20.587328 56.869966 22.743576 55.96875 25.03125 C 55.067534 27.318924 54.565347 29.709496 54.9375 31.6875 C 55.130863 32.715238 55.597338 33.73768 56.1875 34.625 C 56.777662 35.51232 57.473436 36.294005 58.34375 36.75 C 59.919362 37.575502 61.860799 37.248858 63.8125 36.34375 C 65.764201 35.438642 67.812099 33.892011 69.78125 31.8125 C 71.90934 29.565142 73.482356 27.160961 74.34375 24.90625 C 75.205144 22.651539 75.40868 20.470861 74.5 18.71875 C 73.366142 16.532463 70.74255 15.788564 68.03125 15.96875 z M 47.9375 18.5 C 45.964723 18.501768 44.241005 19.267118 43.15625 20.71875 C 42.071495 22.170382 41.617993 24.155651 41.625 26.59375 C 41.629852 28.283425 41.907 29.870489 42.40625 31.1875 C 42.9055 32.504511 43.586533 33.611428 44.71875 34.15625 C 45.254592 34.414103 45.683727 34.637542 46.28125 34.65625 C 46.878773 34.674958 47.28943 34.517374 47.96875 34.28125 C 49.686193 33.684278 50.765307 31.942828 51.59375 29.96875 C 52.422193 27.994672 52.909633 25.709654 52.65625 23.6875 C 52.462147 22.138455 52.056536 20.845107 51.25 19.90625 C 50.443464 18.967393 49.226701 18.498893 47.9375 18.5 z M 34.09375 23.1875 C 33.154414 23.322817 32.341308 23.848264 31.625 24.5625 C 30.947522 25.238017 30.455971 25.909891 30.25 26.71875 C 30.044029 27.527609 30.086253 28.330912 30.09375 29.5 C 30.112457 32.417422 30.921767 34.446142 32.90625 36.53125 C 33.692058 37.356902 34.517198 37.948105 35.53125 38 C 36.545302 38.051895 37.418052 37.497157 38.15625 36.71875 C 39.828569 34.955339 40.353095 32.309833 39.84375 29.5625 C 39.465311 27.521258 38.755304 25.882016 37.78125 24.75 C 36.807196 23.617984 35.462833 22.990274 34.09375 23.1875 z M 24.5625 31.5 C 23.635837 31.650176 22.785443 32.154241 22.03125 32.90625 C 20.767446 34.166403 20.734203 36.066375 21.1875 37.90625 C 21.640797 39.746125 22.639756 41.641105 24.15625 42.96875 C 25.053632 43.754381 25.983647 44.245007 26.9375 44.34375 C 27.891353 44.442493 28.848015 44.063811 29.5 43.40625 C 30.80397 42.091128 31.112842 39.922574 30.53125 37.3125 C 30.118219 35.458903 29.361119 33.950892 28.34375 32.90625 C 27.326381 31.861608 25.943442 31.276203 24.5625 31.5 z M 53.34375 37.46875 C 51.054466 37.429506 48.516065 37.619593 45.875 38.15625 C 39.123224 39.52819 33.659628 42.111551 30.0625 45.71875 C 28.018318 47.768653 26.793356 49.768461 25.8125 52.65625 C 23.292085 60.076763 27.810899 70.022109 36.15625 76.78125 C 39.218795 79.2617 41.226156 80.38666 44.375 81.4375 C 46.079393 82.006339 47.573209 82.131297 50.5625 82.03125 C 53.963708 81.9174 55.020319 81.719486 57.25 80.625 C 60.74059 78.91156 64.424788 75.256153 66.125 71.8125 C 67.101032 69.835641 67.348942 68.639281 67.25 66.9375 C 67.162798 65.437756 66.77357 64.131771 65.71875 63.34375 C 64.66393 62.555729 63.314475 62.420709 61.5 62.4375 C 58.941896 62.461162 56.992794 62.755282 55.46875 63.65625 C 53.944706 64.557218 52.99043 66.040994 52.4375 67.9375 C 52.075673 69.178538 51.706638 69.930441 51.375 70.28125 C 51.043362 70.632059 50.766462 70.75 50.09375 70.75 C 49.016503 70.75 47.85052 70.262484 47 69.5625 C 46.14948 68.862516 45.65625 67.980307 45.65625 67.28125 C 45.65625 67.054394 46.00863 66.231902 47.34375 65 C 48.67887 63.768098 50.866564 62.163123 54.03125 60.03125 C 58.553618 56.984776 61.631701 54.512456 63.59375 52.1875 C 65.555799 49.862544 66.38888 47.55312 66.125 45.21875 C 65.846701 42.756834 64.298874 40.757688 62.03125 39.46875 C 59.763626 38.179812 56.789156 37.527812 53.34375 37.46875 z "
       style="opacity:0.1;fill:#000000;fill-opacity:1;stroke:none"
       id="path3816"
       d="m 67.96875,14.875 c -2.946701,0.19583 -6.182842,1.357145 -8.84375,3.53125 -1.86011,1.519808 -3.2093,3.814984 -4.15625,6.21875 -0.94527,2.399503 -1.528009,4.941903 -1.09375,7.25 0.22778,1.210668 0.749312,2.356032 1.40625,3.34375 0.3501,0.526382 0.752614,1.045643 1.21875,1.5 -1.025805,-0.141726 -2.009247,-0.324623 -3.125,-0.34375 -2.362988,-0.04051 -4.993816,0.165051 -7.71875,0.71875 -6.349392,1.290177 -11.575692,3.695 -15.34375,7.03125 1.635381,-1.678373 1.904321,-4.266274 1.28125,-7.0625 -0.103788,-0.46578 -0.292811,-0.85101 -0.4375,-1.28125 0.345267,0.488815 0.523842,1.032533 0.96875,1.5 0.868904,0.912962 1.94003,1.740663 3.34375,1.8125 1.439513,0.07367 2.61396,-0.723651 3.46875,-1.625 1.966911,-2.074049 2.525143,-5.092646 1.96875,-8.09375 -0.403774,-2.177897 -1.170868,-4.01698 -2.3125,-5.34375 -1.166452,-1.355615 -2.866792,-2.164034 -4.65625,-1.90625 -1.243914,0.179193 -2.24399,0.840108 -3.0625,1.65625 -0.746314,0.744154 -1.415183,1.586847 -1.6875,2.65625 C 28.930438,27.446997 28.99265,28.353825 29,29.5 c 0.008,1.245858 0.300611,2.318165 0.625,3.375 -0.178566,-0.229608 -0.301065,-0.514482 -0.5,-0.71875 -1.218696,-1.251366 -2.96161,-2.008578 -4.75,-1.71875 -1.201371,0.194696 -2.222566,0.818838 -3.09375,1.6875 -1.642828,1.638082 -1.653955,4.011129 -1.15625,6.03125 0.500428,2.031173 1.5889,4.11604 3.3125,5.625 1.008364,0.882792 2.127137,1.527071 3.375,1.65625 1.279721,0.132477 2.530991,-0.370486 3.40625,-1.21875 -0.292417,0.262066 -0.664092,0.475826 -0.9375,0.75 -2.14019,2.14618 -3.479769,4.340035 -4.5,7.34375 -2.74215,8.073338 2.086755,18.346508 10.6875,25.3125 3.118002,2.525366 5.324524,3.763165 8.5625,4.84375 1.839583,0.613959 3.530988,0.75771 6.5625,0.65625 3.435684,-0.115004 4.820124,-0.399853 7.125,-1.53125 3.767171,-1.849206 7.534412,-5.584527 9.375,-9.3125 1.020629,-2.067186 1.35674,-3.570347 1.25,-5.40625 -0.09593,-1.649933 -0.556341,-3.351086 -1.96875,-4.40625 -1.362359,-1.017774 -3.001788,-1.142335 -4.875,-1.125 -2.636084,0.02438 -4.810162,0.320598 -6.59375,1.375 -1.802191,1.0654 -2.895793,2.833868 -3.5,4.90625 -0.339324,1.163853 -0.736255,1.825597 -0.8125,1.90625 -0.20804,0.220066 0.04602,0.125 -0.5,0.125 -0.750223,0 -1.740367,-0.389474 -2.40625,-0.9375 -0.637378,-0.524567 -0.884024,-1.154208 -0.90625,-1.375 0.02969,-0.05915 0.0577,-0.116348 0.125,-0.21875 0.194747,-0.296313 0.57337,-0.777098 1.1875,-1.34375 1.246258,-1.149909 3.383661,-2.723394 6.53125,-4.84375 4.558719,-3.070962 7.734352,-5.599971 9.8125,-8.0625 2.092688,-2.479758 3.051444,-5.114575 2.75,-7.78125 -0.32133,-2.842578 -2.122999,-5.14034 -4.625,-6.5625 C 62.24704,38.35194 61.836334,38.280587 61.5,38.125 c 0.927562,-0.151969 1.887642,-0.398086 2.78125,-0.8125 2.116708,-0.98163 4.238614,-2.592885 6.28125,-4.75 2.210101,-2.333965 3.854529,-4.855544 4.78125,-7.28125 0.924232,-2.41919 1.233358,-4.925372 0.125,-7.0625 -1.402202,-2.703704 -4.54558,-3.540093 -7.5,-3.34375 z M 47.9375,17.40625 c -2.252552,0.002 -4.351264,0.909902 -5.65625,2.65625 -1.281702,1.715189 -1.757398,3.957051 -1.75,6.53125 0.0052,1.806251 0.320573,3.506184 0.875,4.96875 0.543705,1.434283 1.347662,2.842583 2.84375,3.5625 0.519133,0.249812 1.148883,0.598352 2,0.625 0.803343,0.02515 1.396487,-0.206001 2.0625,-0.4375 2.201931,-0.765377 3.410859,-2.863465 4.28125,-4.9375 0.885229,-2.109391 1.412229,-4.520231 1.125,-6.8125 -0.20801,-1.660033 -0.646137,-3.199166 -1.65625,-4.375 -1.041521,-1.212394 -2.572614,-1.782583 -4.125,-1.78125 z" />
    <path
       sodipodi:type="inkscape:offset"
       inkscape:radius="1.0764945"
       inkscape:original="M 68.09375 17.03125 C 65.62345 17.19542 62.783259 18.228205 60.5 20.09375 C 57.702418 22.379521 55.391055 28.263437 56 31.5 C 56.31397 33.168773 57.633555 35.147176 58.84375 35.78125 C 61.097403 36.961995 65.212348 35.062428 69 31.0625 C 73.091612 26.741574 74.929317 21.914493 73.53125 19.21875 C 72.672045 17.562045 70.56405 16.86708 68.09375 17.03125 z M 47.9375 19.5625 C 44.500867 19.56558 42.67431 22.004266 42.6875 26.59375 C 42.696524 29.736578 43.740238 32.491078 45.1875 33.1875 C 46.263544 33.705305 46.274386 33.719459 47.625 33.25 C 49.862167 32.472375 52.029335 27.288738 51.59375 23.8125 C 51.237257 20.967491 50.033979 19.5607 47.9375 19.5625 z M 34.25 24.25 C 33.606959 24.342634 32.982938 24.706321 32.375 25.3125 C 31.149599 26.534354 31.14128 27.165625 31.15625 29.5 C 31.173903 32.25308 31.814389 33.813161 33.6875 35.78125 C 35.088621 37.253415 36.106161 37.306701 37.375 35.96875 C 38.749493 34.519388 39.244201 32.247092 38.78125 29.75 C 38.075216 25.941759 36.179122 23.972097 34.25 24.25 z M 24.75 32.5625 C 24.082806 32.670626 23.408649 33.030668 22.78125 33.65625 C 21.134789 35.297955 22.261129 39.867884 24.875 42.15625 C 27.994774 44.887518 30.535209 42.317315 29.46875 37.53125 C 28.709826 34.125356 26.751583 32.238122 24.75 32.5625 z M 53.3125 38.53125 C 51.103186 38.493377 48.657758 38.697751 46.09375 39.21875 C 39.488723 40.560871 34.201416 43.070346 30.8125 46.46875 C 28.860753 48.425959 27.790192 50.213531 26.84375 53 C 24.552858 59.74476 28.758219 69.388795 36.84375 75.9375 C 39.856147 78.377334 41.651003 79.382474 44.71875 80.40625 C 46.309503 80.937162 47.583986 81.06739 50.53125 80.96875 C 53.909912 80.855655 54.601599 80.726178 56.78125 79.65625 C 59.975471 78.08829 63.606678 74.482294 65.15625 71.34375 C 66.101576 69.429083 66.28055 68.600437 66.1875 67 C 66.028607 64.267275 64.961191 63.46797 61.5 63.5 C 56.558895 63.545705 54.483164 64.770641 53.46875 68.25 C 52.702558 70.877976 51.826281 71.8125 50.09375 71.8125 C 47.348013 71.8125 44.59375 69.550438 44.59375 67.28125 C 44.59375 65.702604 47.068271 63.415595 53.4375 59.125 C 62.409925 53.080765 65.521051 49.400246 65.0625 45.34375 C 64.58881 41.153346 59.940442 38.644868 53.3125 38.53125 z "
       style="opacity:0.15;fill:#000000;fill-opacity:1;stroke:none"
       id="path3812"
       d="m 68.03125,15.96875 c -2.71389,0.180358 -5.747522,1.262124 -8.21875,3.28125 -1.636771,1.337328 -2.942534,3.493576 -3.84375,5.78125 -0.901216,2.287674 -1.403403,4.678246 -1.03125,6.65625 0.193363,1.027738 0.659838,2.05018 1.25,2.9375 0.590162,0.88732 1.285936,1.669005 2.15625,2.125 1.575612,0.825502 3.517049,0.498858 5.46875,-0.40625 1.951701,-0.905108 3.999599,-2.451739 5.96875,-4.53125 2.12809,-2.247358 3.701106,-4.651539 4.5625,-6.90625 0.861394,-2.254711 1.06493,-4.435389 0.15625,-6.1875 -1.133858,-2.186287 -3.75745,-2.930186 -6.46875,-2.75 z M 47.9375,18.5 c -1.972777,0.0018 -3.696495,0.767118 -4.78125,2.21875 -1.084755,1.451632 -1.538257,3.436901 -1.53125,5.875 0.0049,1.689675 0.282,3.276739 0.78125,4.59375 0.49925,1.317011 1.180283,2.423928 2.3125,2.96875 0.535842,0.257853 0.964977,0.481292 1.5625,0.5 0.597523,0.01871 1.00818,-0.138876 1.6875,-0.375 1.717443,-0.596972 2.796557,-2.338422 3.625,-4.3125 0.828443,-1.974078 1.315883,-4.259096 1.0625,-6.28125 C 52.462147,22.138455 52.056536,20.845107 51.25,19.90625 50.443464,18.967393 49.226701,18.498893 47.9375,18.5 z m -13.84375,4.6875 c -0.939336,0.135317 -1.752442,0.660764 -2.46875,1.375 -0.677478,0.675517 -1.169029,1.347391 -1.375,2.15625 -0.205971,0.808859 -0.163747,1.612162 -0.15625,2.78125 0.01871,2.917422 0.828017,4.946142 2.8125,7.03125 0.785808,0.825652 1.610948,1.416855 2.625,1.46875 1.014052,0.0519 1.886802,-0.502843 2.625,-1.28125 1.672319,-1.763411 2.196845,-4.408917 1.6875,-7.15625 -0.378439,-2.041242 -1.088446,-3.680484 -2.0625,-4.8125 -0.974054,-1.132016 -2.318417,-1.759726 -3.6875,-1.5625 z M 24.5625,31.5 c -0.926663,0.150176 -1.777057,0.654241 -2.53125,1.40625 -1.263804,1.260153 -1.297047,3.160125 -0.84375,5 0.453297,1.839875 1.452256,3.734855 2.96875,5.0625 0.897382,0.785631 1.827397,1.276257 2.78125,1.375 0.953853,0.09874 1.910515,-0.279939 2.5625,-0.9375 1.30397,-1.315122 1.612842,-3.483676 1.03125,-6.09375 -0.413031,-1.853597 -1.170131,-3.361608 -2.1875,-4.40625 C 27.326381,31.861608 25.943442,31.276203 24.5625,31.5 z m 28.78125,5.96875 c -2.289284,-0.03924 -4.827685,0.150843 -7.46875,0.6875 -6.751776,1.37194 -12.215372,3.955301 -15.8125,7.5625 -2.044182,2.049903 -3.269144,4.049711 -4.25,6.9375 -2.520415,7.420513 1.998399,17.365859 10.34375,24.125 3.062545,2.48045 5.069906,3.60541 8.21875,4.65625 1.704393,0.568839 3.198209,0.693797 6.1875,0.59375 3.401208,-0.11385 4.457819,-0.311764 6.6875,-1.40625 3.49059,-1.71344 7.174788,-5.368847 8.875,-8.8125 0.976032,-1.976859 1.223942,-3.173219 1.125,-4.875 -0.0872,-1.499744 -0.47643,-2.805729 -1.53125,-3.59375 C 64.66393,62.555729 63.314475,62.420709 61.5,62.4375 c -2.558104,0.02366 -4.507206,0.317782 -6.03125,1.21875 -1.524044,0.900968 -2.47832,2.384744 -3.03125,4.28125 -0.361827,1.241038 -0.730862,1.992941 -1.0625,2.34375 C 51.043362,70.632059 50.766462,70.75 50.09375,70.75 49.016503,70.75 47.85052,70.262484 47,69.5625 c -0.85052,-0.699984 -1.34375,-1.582193 -1.34375,-2.28125 0,-0.226856 0.35238,-1.049348 1.6875,-2.28125 1.33512,-1.231902 3.522814,-2.836877 6.6875,-4.96875 4.522368,-3.046474 7.600451,-5.518794 9.5625,-7.84375 1.962049,-2.324956 2.79513,-4.63438 2.53125,-6.96875 -0.278299,-2.461916 -1.826126,-4.461062 -4.09375,-5.75 -2.267624,-1.288938 -5.242094,-1.940938 -8.6875,-2 z" />
    <path
       sodipodi:nodetypes="cssssssssssssssccssccssssccssssccssssc"
       style="opacity:0.3;fill:#000000;fill-opacity:1;stroke:none"
       d="M 44.711143,80.413429 C 41.643396,79.389653 39.859509,78.373445 36.847112,75.933611 28.761581,69.384906 24.552941,59.729866 26.843833,52.985106 c 0.946442,-2.786469 2.025188,-4.552138 3.976935,-6.509347 3.388916,-3.398404 8.673481,-5.905092 15.278508,-7.247213 10.25603,-2.083997 18.332735,0.514772 18.964322,6.101978 0.458551,4.056496 -2.653731,7.74886 -11.626156,13.793095 -6.369229,4.290595 -8.85019,6.576814 -8.85019,8.15546 0,2.269188 2.753014,4.544427 5.498751,4.544427 1.732531,0 2.622442,-0.935953 3.388634,-3.563929 1.014414,-3.479359 3.087612,-4.70648 8.028717,-4.752185 3.461191,-0.03203 4.536127,0.769924 4.69502,3.502649 0.09305,1.600437 -0.102706,2.407838 -1.048032,4.322505 -1.549572,3.138544 -5.181757,6.742147 -8.375978,8.310107 -2.179651,1.069928 -2.852527,1.213153 -6.231189,1.326248 -2.947264,0.09864 -4.241279,-0.02456 -5.832032,-0.555472 z M 24.863338,42.157209 c -2.613871,-2.288366 -3.738455,-6.856961 -2.091994,-8.498666 2.509598,-2.502328 5.693292,-0.659047 6.70519,3.882145 1.066459,4.786065 -1.493422,7.347789 -4.613196,4.616521 z m 8.811312,-6.376996 c -1.873111,-1.968089 -2.497028,-3.525983 -2.514681,-6.279063 -0.01497,-2.334375 -0.01781,-2.978056 1.207591,-4.19991 2.431751,-2.424716 5.48633,-0.622018 6.427709,4.455637 0.462951,2.497092 -0.05956,4.759289 -1.434053,6.208651 -1.268839,1.337951 -2.285445,1.28685 -3.686566,-0.185315 z m 25.172289,0.007 c -1.210195,-0.634074 -2.532972,-2.632624 -2.846942,-4.301397 -0.608945,-3.236563 1.715935,-9.102684 4.513517,-11.388455 4.566519,-3.73109 11.305254,-4.178931 13.023663,-0.865522 1.398067,2.695743 -0.444664,7.49606 -4.536276,11.816986 -3.787652,3.999928 -7.900309,5.919108 -10.153962,4.738363 z M 45.182993,33.199986 c -1.447262,-0.696422 -2.491709,-3.449913 -2.500733,-6.592741 -0.01319,-4.589484 1.811591,-7.037412 5.248224,-7.040492 2.096479,-0.0018 3.316227,1.411874 3.67272,4.256883 0.435585,3.476238 -1.754356,8.647098 -3.991523,9.424723 -1.350614,0.469459 -1.352644,0.469425 -2.428688,-0.04838 z"
       id="path3700"
       inkscape:connector-curvature="0" />
    <path
       id="path3456"
       d="M 44.711143,79.413429 C 41.643396,78.389653 39.859509,77.373445 36.847112,74.933611 28.761581,68.384906 24.552941,58.729866 26.843833,51.985106 c 0.946442,-2.786469 2.025188,-4.552138 3.976935,-6.509347 3.388916,-3.398404 8.673481,-5.905092 15.278508,-7.247213 10.25603,-2.083997 18.332735,0.514772 18.964322,6.101978 0.458551,4.056496 -2.653731,7.74886 -11.626156,13.793095 -6.369229,4.290595 -8.85019,6.576814 -8.85019,8.15546 0,2.269188 2.753014,4.544427 5.498751,4.544427 1.732531,0 2.622442,-0.935953 3.388634,-3.563929 1.014414,-3.479359 3.087612,-4.70648 8.028717,-4.752185 3.461191,-0.03203 4.536127,0.769924 4.69502,3.502649 0.09305,1.600437 -0.102706,2.407838 -1.048032,4.322505 -1.549572,3.138544 -5.181757,6.742147 -8.375978,8.310107 -2.179651,1.069928 -2.852527,1.213153 -6.231189,1.326248 -2.947264,0.09864 -4.241279,-0.02456 -5.832032,-0.555472 z M 24.863338,41.157209 c -2.613871,-2.288366 -3.738455,-6.856961 -2.091994,-8.498666 2.509598,-2.502328 5.693292,-0.659047 6.70519,3.882145 1.066459,4.786065 -1.493422,7.347789 -4.613196,4.616521 z m 8.811312,-6.376996 c -1.873111,-1.968089 -2.497028,-3.525983 -2.514681,-6.279063 -0.01497,-2.334375 -0.01781,-2.978056 1.207591,-4.19991 2.431751,-2.424716 5.48633,-0.622018 6.427709,4.455637 0.462951,2.497092 -0.05956,4.759289 -1.434053,6.208651 -1.268839,1.337951 -2.285445,1.28685 -3.686566,-0.185315 z m 25.172289,0.007 c -1.210195,-0.634074 -2.532972,-2.632624 -2.846942,-4.301397 -0.608945,-3.236563 1.715935,-9.102684 4.513517,-11.388455 4.566519,-3.73109 11.305254,-4.178931 13.023663,-0.865522 1.398067,2.695743 -0.444664,7.49606 -4.536276,11.816986 -3.787652,3.999928 -7.900309,5.919108 -10.153962,4.738363 z M 45.182993,32.199986 c -1.447262,-0.696422 -2.491709,-3.449913 -2.500733,-6.592741 -0.01319,-4.589484 1.811591,-7.037412 5.248224,-7.040492 2.096479,-0.0018 3.316227,1.411874 3.67272,4.256883 0.435585,3.476238 -1.754356,8.647098 -3.991523,9.424723 -1.350614,0.469459 -1.352644,0.469425 -2.428688,-0.04838 z"
       style="fill:url(#linearGradient3680-4);fill-opacity:1;stroke:none"
       sodipodi:nodetypes="cssssssssssssssccssccssssccssssccssssc"
       inkscape:connector-curvature="0" />
    <path
       style="opacity:0.75;fill:#ffffff;fill-opacity:1;stroke:none"
       d="m 69,16 c -2.663154,-0.06402 -5.931333,0.995012 -8.5,3.09375 -2.622733,2.14291 -4.829841,7.430312 -4.59375,10.75 0.192217,-3.300692 2.221744,-7.811947 4.59375,-9.75 4.566519,-3.73109 11.312841,-4.188409 13.03125,-0.875 0.240133,0.463022 0.383559,1.019645 0.4375,1.59375 0.07547,-0.983747 -0.06005,-1.865955 -0.4375,-2.59375 C 72.779446,16.769134 71.071342,16.049791 69,16 z m -21.0625,2.5625 c -3.436633,0.0031 -5.26319,2.441766 -5.25,7.03125 5.8e-4,0.201875 0.02229,0.39553 0.03125,0.59375 0.100564,-4.310424 1.891779,-6.622018 5.21875,-6.625 2.096479,-0.0018 3.299757,1.404991 3.65625,4.25 0.01975,0.157606 0.02206,0.335995 0.03125,0.5 0.03123,-0.519337 0.0279,-1.027921 -0.03125,-1.5 -0.356493,-2.845009 -1.559771,-4.2518 -3.65625,-4.25 z M 34.25,23.25 c -0.643041,0.09263 -1.267062,0.456321 -1.875,1.0625 -1.12763,1.124366 -1.22362,1.805603 -1.21875,3.71875 0.05033,-1.223124 0.299699,-1.80236 1.21875,-2.71875 2.431751,-2.424716 5.464871,-0.640155 6.40625,4.4375 0.07232,0.390071 0.131517,0.779845 0.15625,1.15625 C 38.97183,30.216707 38.91975,29.497068 38.78125,28.75 38.075216,24.941759 36.179122,22.972097 34.25,23.25 z m -9,8.28125 c -0.829059,-0.01649 -1.684501,0.343023 -2.46875,1.125 -0.594626,0.592908 -0.817862,1.576358 -0.75,2.6875 0.08526,-0.694926 0.338385,-1.277074 0.75,-1.6875 2.509598,-2.502328 5.675602,-0.666192 6.6875,3.875 0.123188,0.552843 0.218857,1.073744 0.25,1.5625 0.05049,-0.751463 -0.03802,-1.611172 -0.25,-2.5625 -0.69568,-3.12207 -2.39482,-4.963721 -4.21875,-5 z m 26.34375,6 c -1.735061,0.07266 -3.576994,0.296751 -5.5,0.6875 -6.605027,1.342121 -11.892334,3.851596 -15.28125,7.25 C 28.860753,47.425959 27.790192,49.213531 26.84375,52 26.374572,53.381338 26.196478,54.86371 26.25,56.4375 26.292658,55.225 26.474684,54.086591 26.84375,53 c 0.946442,-2.786469 2.017003,-4.574041 3.96875,-6.53125 3.388916,-3.398404 8.676223,-5.907879 15.28125,-7.25 10.25603,-2.083997 18.337163,0.537794 18.96875,6.125 0.0095,0.08436 -0.0064,0.165927 0,0.25 0.03235,-0.417864 0.04778,-0.827302 0,-1.25 -0.513164,-4.539605 -5.950153,-7.127365 -13.46875,-6.8125 z M 61.5,62.5 c -4.941105,0.0457 -7.016836,1.270641 -8.03125,4.75 -0.766192,2.627976 -1.642469,3.5625 -3.375,3.5625 -2.50857,0 -5.021804,-1.878912 -5.4375,-3.9375 -0.03366,0.138618 -0.0625,0.277713 -0.0625,0.40625 0,2.269188 2.754263,4.53125 5.5,4.53125 1.732531,0 2.608808,-0.934524 3.375,-3.5625 1.014414,-3.479359 3.090145,-4.704295 8.03125,-4.75 3.461191,-0.03203 4.528607,0.767275 4.6875,3.5 0.0053,0.09138 -0.0033,0.163438 0,0.25 0.03303,-0.377743 0.02704,-0.784964 0,-1.25 C 66.028607,63.267275 64.961191,62.46797 61.5,62.5 z"
       id="path3682"
       inkscape:connector-curvature="0" />
    <path
       style="opacity:0.15;fill:#000000;fill-opacity:1;stroke:none"
       d="M 73.96875,19.8125 C 73.764686,22.472537 71.986961,25.908135 69,29.0625 65.212348,33.062428 61.097403,34.961995 58.84375,33.78125 57.633555,33.147176 56.31397,31.168773 56,29.5 55.96549,29.316595 55.92236,29.105413 55.90625,28.90625 55.87708,29.474621 55.91065,30.025202 56,30.5 c 0.31397,1.668773 1.633555,3.647176 2.84375,4.28125 2.253653,1.180745 6.368598,-0.718822 10.15625,-4.71875 3.388835,-3.578762 5.228858,-7.481628 4.96875,-10.25 z m -22.34375,3.5 c -0.198738,3.304893 -2.066644,7.265478 -4,7.9375 -1.350614,0.469459 -1.361456,0.455305 -2.4375,-0.0625 -1.354299,-0.651688 -2.338274,-3.11229 -2.46875,-6 -0.0033,0.142078 -0.03167,0.259801 -0.03125,0.40625 0.009,3.142828 1.052738,5.897328 2.5,6.59375 1.076044,0.517805 1.086886,0.531959 2.4375,0.0625 2.135738,-0.742369 4.193617,-5.484119 4,-8.9375 z M 31.15625,27.5 c -0.0042,0.310562 -0.0025,0.60266 0,1 0.01765,2.75308 0.658139,4.313161 2.53125,6.28125 1.401121,1.472165 2.418661,1.525451 3.6875,0.1875 1.159783,-1.222957 1.696097,-3.029301 1.5625,-5.0625 -0.08042,1.615271 -0.599221,3.046751 -1.5625,4.0625 -1.268839,1.337951 -2.286379,1.284665 -3.6875,-0.1875 C 31.814389,31.813161 31.173903,30.25308 31.15625,27.5 z m -9.125,6.96875 c -0.201287,2.078685 0.919539,5.002911 2.84375,6.6875 2.759406,2.415777 5.082217,0.679994 4.84375,-3.0625 -0.203517,3.029094 -2.344095,4.250873 -4.84375,2.0625 -1.633669,-1.430229 -2.686515,-3.747112 -2.84375,-5.6875 z m 43.03125,10.125 c -0.278134,3.592236 -3.587527,7.116841 -11.625,12.53125 -6.369229,4.290595 -8.84375,6.577604 -8.84375,8.15625 0,0.196004 0.0232,0.399126 0.0625,0.59375 0.379685,-1.563849 2.930616,-3.808754 8.78125,-7.75 8.785823,-5.918532 11.927607,-9.572798 11.625,-13.53125 z M 26.25,55.4375 c -0.222132,6.313808 3.81081,14.006301 10.59375,19.5 3.012397,2.439834 4.807253,3.444974 7.875,4.46875 1.590753,0.530912 2.865236,0.66114 5.8125,0.5625 3.378662,-0.113095 4.070349,-0.242572 6.25,-1.3125 3.194221,-1.56796 6.825428,-5.173956 8.375,-8.3125 0.891351,-1.805347 1.086474,-2.664239 1.03125,-4.09375 -0.08065,0.922274 -0.360605,1.735424 -1.03125,3.09375 -1.549572,3.138544 -5.180779,6.74454 -8.375,8.3125 -2.179651,1.069928 -2.871338,1.199405 -6.25,1.3125 -2.947264,0.09864 -4.221747,-0.03159 -5.8125,-0.5625 -3.067747,-1.023776 -4.862603,-2.028916 -7.875,-4.46875 C 30.414149,68.72998 26.457812,61.548171 26.25,55.4375 z"
       id="path3691"
       inkscape:connector-curvature="0" />
  </g>
</svg>
