/* XPM */
static char * icon_xpm[] = {
"64 64 255 2",
"  	c None",
". 	c #BAD0E3",
"+ 	c #BAD1E4",
"@ 	c #B8D0E3",
"# 	c #B9D0E3",
"$ 	c #C5D6E7",
"% 	c #DAE2EF",
"& 	c #E7EAF4",
"* 	c #EBECF5",
"= 	c #EFEEF7",
"- 	c #F6F3F9",
"; 	c #E9EBF5",
"> 	c #E8EAF4",
", 	c #DBE3EF",
"' 	c #CFDCEB",
") 	c #BDD2E5",
"! 	c #B8CFE3",
"~ 	c #D0DCEB",
"{ 	c #F2F0F8",
"] 	c #FBF6FC",
"^ 	c #FCF7FC",
"/ 	c #FBF7FC",
"( 	c #FBF7FB",
"_ 	c #FAF6FB",
": 	c #F9F5FA",
"< 	c #F7F4FA",
"[ 	c #F6F4F9",
"} 	c #F3F1F8",
"| 	c #DFE4F0",
"1 	c #C6D7E7",
"2 	c #B6CFE2",
"3 	c #B7CFE2",
"4 	c #C6D7E8",
"5 	c #EFEEF6",
"6 	c #F9F5FB",
"7 	c #FAF7FB",
"8 	c #F9F6FB",
"9 	c #F8F6FB",
"0 	c #F8F5FA",
"a 	c #F6F4FA",
"b 	c #F5F4F9",
"c 	c #F4F2F9",
"d 	c #F0EFF7",
"e 	c #DBE2EF",
"f 	c #BFD3E5",
"g 	c #B6CEE2",
"h 	c #D7E0ED",
"i 	c #FAF8FC",
"j 	c #FAF7FC",
"k 	c #F9F7FB",
"l 	c #F7F5FB",
"m 	c #F6F5FA",
"n 	c #F5F4FA",
"o 	c #F4F3F9",
"p 	c #F3F2F8",
"q 	c #EFEFF7",
"r 	c #E5E7F2",
"s 	c #B5CEE2",
"t 	c #D9E1EE",
"u 	c #F8F7FB",
"v 	c #F7F6FB",
"w 	c #F7F5FA",
"x 	c #F2F2F9",
"y 	c #F1F1F8",
"z 	c #ECEDF6",
"A 	c #E5E6F2",
"B 	c #C8D8E9",
"C 	c #B7CFE3",
"D 	c #B4CDE2",
"E 	c #D7E0EE",
"F 	c #EEEBF5",
"G 	c #F4F3F8",
"H 	c #F9F7FC",
"I 	c #F7F6FA",
"J 	c #F3F3F9",
"K 	c #F2F2F8",
"L 	c #F0F1F8",
"M 	c #EEF0F7",
"N 	c #E5E7F3",
"O 	c #E3E5F1",
"P 	c #C7D7E8",
"Q 	c #B3CDE1",
"R 	c #CBD9E9",
"S 	c #EBEAF4",
"T 	c #EEECF5",
"U 	c #F4F2F8",
"V 	c #F5F3F9",
"W 	c #F9F8FB",
"X 	c #F9F8FC",
"Y 	c #F6F5F9",
"Z 	c #F4F4F9",
"` 	c #F3F3F8",
" .	c #F0F0F8",
"..	c #EEEFF7",
"+.	c #E7E9F3",
"@.	c #E2E5F1",
"#.	c #E0E4F1",
"$.	c #C0D4E6",
"%.	c #B2CDE1",
"&.	c #BCD2E4",
"*.	c #E8E8F3",
"=.	c #E9E9F4",
"-.	c #ECEBF5",
";.	c #EFF0F7",
">.	c #EDEFF7",
",.	c #E6E9F3",
"'.	c #E1E5F1",
").	c #B1CCE1",
"!.	c #D9E0EE",
"~.	c #E7E8F3",
"{.	c #EAEAF4",
"].	c #F1F0F8",
"^.	c #F2F1F8",
"/.	c #F3F2F9",
"(.	c #F6F6FA",
"_.	c #F5F5F9",
":.	c #ECEEF6",
"<.	c #E3E6F2",
"[.	c #E0E4F0",
"}.	c #DEE3F0",
"|.	c #DDE3EF",
"1.	c #CDDAEA",
"2.	c #B4CEE2",
"3.	c #B1CCE0",
"4.	c #C4D6E7",
"5.	c #E6E7F3",
"6.	c #EEEEF6",
"7.	c #E8EBF4",
"8.	c #DDE3F0",
"9.	c #DCE2EF",
"0.	c #DBE1EF",
"a.	c #B0CBE0",
"b.	c #B0CCE0",
"c.	c #E4E6F2",
"d.	c #EEEFF6",
"e.	c #F0F0F7",
"f.	c #F1F1F7",
"g.	c #EAECF5",
"h.	c #E2E6F1",
"i.	c #DAE1EE",
"j.	c #CFDBEB",
"k.	c #AECBE0",
"l.	c #AFCBE0",
"m.	c #C1D4E6",
"n.	c #E6E8F3",
"o.	c #EFF0F8",
"p.	c #ECEEF7",
"q.	c #EBEDF6",
"r.	c #E9EBF4",
"s.	c #D8E0EE",
"t.	c #D7DFED",
"u.	c #CCDAEA",
"v.	c #D2DDEC",
"w.	c #D3DDEC",
"x.	c #D1DDEB",
"y.	c #CAD9E9",
"z.	c #ADCADF",
"A.	c #AECADF",
"B.	c #BCD2E5",
"C.	c #CEDBEA",
"D.	c #EEEEF7",
"E.	c #EDEEF6",
"F.	c #ECEDF5",
"G.	c #E4E7F2",
"H.	c #DAE1EF",
"I.	c #D6DFED",
"J.	c #D4DEED",
"K.	c #D8E0ED",
"L.	c #CDDBEA",
"M.	c #B3CDE2",
"N.	c #ACCADF",
"O.	c #C2D5E6",
"P.	c #EAEBF5",
"Q.	c #D5DEED",
"R.	c #C3D5E7",
"S.	c #ABC9DF",
"T.	c #D4DEEC",
"U.	c #BED2E5",
"V.	c #AAC9DE",
"W.	c #ABC9DE",
"X.	c #C0D4E5",
"Y.	c #E6E7F2",
"Z.	c #CEDBEB",
"`.	c #A9C8DE",
" +	c #AAC8DE",
".+	c #E1E4F1",
"++	c #D5DFED",
"@+	c #C9D8E9",
"#+	c #BBD1E4",
"$+	c #D3DEEC",
"%+	c #CBDAEA",
"&+	c #BED3E5",
"*+	c #A8C7DE",
"=+	c #D1DCEB",
"-+	c #C5D7E8",
";+	c #C1D5E6",
">+	c #A7C7DD",
",+	c #C3D6E7",
"'+	c #C8D8E8",
")+	c #ACC9DF",
"!+	c #A6C6DD",
"~+	c #B0CCE1",
"{+	c #CBDAE9",
"]+	c #BFD4E6",
"^+	c #B7D0E3",
"/+	c #B6CFE3",
"(+	c #A5C6DD",
"_+	c #BDD3E5",
":+	c #A4C6DC",
"<+	c #C5D7E7",
"[+	c #A4C5DC",
"}+	c #C0D3E5",
"|+	c #C9D9E9",
"1+	c #A3C5DC",
"2+	c #AECAE0",
"3+	c #BAD1E3",
"4+	c #B4CDE1",
"5+	c #A9C8DD",
"6+	c #A8C7DD",
"7+	c #A2C5DC",
"8+	c #AAC9DF",
"9+	c #BAD0E4",
"0+	c #B3CCE1",
"a+	c #A8C8DE",
"b+	c #A2C4DB",
"c+	c #C5D6E8",
"d+	c #A1C4DB",
"e+	c #B2CCE1",
"f+	c #AFCAE0",
"g+	c #A0C4DB",
"h+	c #BDD2E4",
"i+	c #C2D4E6",
"j+	c #A5C6DC",
"k+	c #A0C3DB",
"l+	c #B4CEE1",
"m+	c #BCD1E4",
"n+	c #BBD2E4",
"o+	c #B9D1E4",
"p+	c #9FC3DA",
"q+	c #A0C4DA",
"r+	c #B9D0E4",
"s+	c #B5CFE2",
"t+	c #9EC2DA",
"u+	c #A0C3DA",
"v+	c #B3CEE2",
"w+	c #AECBDF",
"x+	c #B1CDE1",
"y+	c #AFCCE0",
"z+	c #ADCAE0",
"A+	c #ABCADF",
"B+	c #A9C9DE",
"C+	c #A6C7DD",
"D+	c #9DC2DA",
"E+	c #9EC3DA",
"F+	c #9CC1DA",
"                                                                                                                                ",
"                                                                                                                                ",
"                                                                                                                                ",
"                                                                                                                                ",
"                                                                                                                                ",
"                                                                                                                                ",
"                                                                                                                                ",
"                                                                                                                                ",
"                                                  . . + + + + + + + + +                                                         ",
"                                            @ # # $ % & * = - ; > , ' ) + +                                                     ",
"                                          ! ! ~ { ] ^ ^ / ( _ _ : < [ } | 1 . .                                                 ",
"                                      2 3 4 5 6 _ 7 ( ( ( ( 7 8 9 0 a b c d e f # #                                             ",
"                                    g g h - 0 : _ _ ( ( i j j k 9 l m n o p q r 4 @ @                                           ",
"                                  s s t { [ < 0 8 k 7 j i i i k u v w n o x y z A B C C                                         ",
"                                D D E F G - < 0 9 8 H i i i i k u I m b J K L M N O P 3 3                                       ",
"                                Q R S T U V a m l 9 k k W X X u 9 I Y Z ` y  ...+.@.#.$.g                                       ",
"                              %.&.*.=.-.} c o n m l 9 u u u u 9 w m b G K L ;.>.,.'.| e C s                                     ",
"                            ).).!.~.*.{.].^./.o n a m (.(.I m m _.b G K y ;...:.<.[.}.|.1.2.                                    ",
"                            3.4.A r 5.*.6. .^.p o o V b b b b Z G ` K y ;...:.7.[.| 8.9.0.) D                                   ",
"                          a.b.9.<.c.r 5.~.d.e.f.^./././././.p K y y  .q >.:.g.h.| 8.9.e i.j.Q Q Q Q Q Q Q                       ",
"                    k.l.l.l.m.'.@.O c.A r n.z q e.e.y y y L L  .o.M ..p.q.r.h.| }.9.e i.s.t.u.v.w.x.y.4.# %.%.                  ",
"                z.A.A.B.C.i.}.| #.'.@.<.c.A r > z D.............E.E.F.g.G.[.| 8.9.e H.!.E I.J.K.t.w.j.L.u.4.M.).                ",
"            N.N.l.O.w.t 0.9.|.}.| [.'.@.@.O <.c.c.n.> P.P.P.P.; > ,.<.#.| }.8.9.e H.!.E I.Q.I.@.O @.8.J.u.y.R.%.3.              ",
"          S.S.g ' I.H.| 9.0.9.9.8.}.| [.'.'.@.@.O O O O O @.@.'.'.#.[.| }.|.9.e i.!.s.I.Q.T.w.x.w.s.9.H.Q.R P U.a.              ",
"        V.W.X.v.I.'.Y.O 0.t H.e 9.|.8.}.| | [.#.'.'.'.'.'.'.#.[.| | }.8.9.9.0.i.!.E I.Q.T.w.x.~ j.L.Z.I.J.~ P O.M.l.            ",
"      `. +m.~ t..+@.e ++t.s.!.i.0.9.9.9.8.}.}.| | | | | | | }.}.8.|.9.9.e H.t s.E I.Q.T.w.v.~ j.L.u.R u.~ Z.@+m.+ k.            ",
"      `.#+1.$+e |.t.w.T.++I.E s.t i.0.e 9.9.9.|.8.8.8.8.8.|.|.9.9.9.0.H.t !.s.t.I.Q.T.w.x.~ j.C.u.R y.@+@+%+B O.&+l.z.          ",
"    *+l.4.1.I.s.++=+v.w.T.Q.I.t.E s.!.i.H.0.e e 9.9.9.9.9.9.e 0.H.i.t !.s.E I.++J.T.v.x.~ j.C.u.R y.@+P 4 P -+;+) Q z.          ",
"    >+#+,+u.w.J.j.' ~ v.w.T.J.Q.I.t.E s.s.!.t i.i.H.H.H.H.i.t t !.s.E t.I.++Q.T.w.v.x.~ j.C.u.%+y.@+'+4 $ 4.O.f #+s )+)+        ",
"  !+S.$.;+'+' j.1.C.j.~ x.v.w.T.J.Q.++I.I.E s.s.s.s.s.s.s.s.s.E t.I.I.++J.T.w.v.v.=+~ Z.L.u.R y.@+'+4 $ 4.O.X.#++ @ a.S.W.      ",
"  !+~+f $.O.y.{+%+u.L.j.~ ~ x.v.w.T.T.J.Z.$+I.I.I.I.t.I.I.I.I.I.++Q.J.T.w.w.v.=+~ ' Z.1.u.R y.@+'+4 $ 4.O.m.]+@ @ ^+/+k.V.      ",
"  (+2._+&+f R.@+y.R u.1.C.j.~ =+x.v.v.w.1.L.w.J.J.Q.Q.Q.Q.J.J.T.T.w.w.v.v.=+~ ' Z.L.u.%+R y.@+P 4 $ 4.O.O.$.f # ^+2 s 2.W.`.    ",
"  :+s &.) &.&+<+@+y.R %+u.L.Z.j.~ ~ =+x.u.%+1.v.w.w.w.w.w.w.w.v.v.v.x.~ ~ ' Z.C.1.u.R y.@+'+P 4 $ 4.O.O.$.f &.C 2 s 2.%.k.`.    ",
"  [+s #+#+# #+}+1 '+@+y.R u.u.L.C.Z.j.~ u.|+y.%+=+x.v.x.x.x.=+=+~ ~ ' j.Z.L.1.u.%+R y.@+'+P 4 $ R.O.O.$.f &+! 2 s D %.).l.*+    ",
"  1+2+. #+g 3+U.f $ '+@+y.y.R %+u.1.L.C.u.'+'+B y.' ~ ~ ~ ' ' j.Z.Z.C.1.u.u.%+R y.@+'+P 4 $ 4.R.O.m.$.f &+. g s 4+Q ).b.k.5+6+  ",
"  7+8+! # 9+#+&.) &+4.P '+@+y.y.R R %+u.u.4 4 4 P B u.C.C.C.L.L.1.u.u.%+R R y.@+'+'+P 4 $ 4.R.O.m.$.f &++ g s 4+0+3.a.l.z.a+>+  ",
"  b+[+2 ! # . #+#+&.) m.4 P '+'+@+y.y.R R 4 4.$ $ c+-+@+u.u.%+%+R R y.y.@+@+'+P P 4 $ 4.R.O.O.m.$.f ) + g s 4+0+3.a.l.z.)+>+!+  ",
"    d+A.2 C @ # + #+#+&.U.m.4.4 P '+'+@+@+P R.R.R.4.4.4.$ @+y.y.y.@+@+'+'+P 4 4 $ 4.R.R.O.m.$.f &+) # s 2.Q e+3.a.f+z.)+W.!+(+  ",
"    g+1+Q s 2 C @ # + #+#+&.h+) &+$.m.i+O.O.m.m.i+O.O.O.O.O.R.-+P P P 4 4 $ $ 4.R.R.O.m.m.$.f &++ 2 2.4+Q e+b.l.2+z.)+W. +j+    ",
"      k+>+l+s 2 3 C @ # 3+#+#+m+&.h+) U.&+f f }+}+$.$.$.$.$.$.]+]+$.O.O.R.4.R.O.O.m.m.$.) &.+ C s 2.Q %.).b.l.2+z.)+W.`.>+[+    ",
"        k+>+Q l+s 2 3 C @ # # + #+#+#+&.&.h+) U.U.&+&+&+&+&+&+_+_+_+B.B.&.n+n++ + o+# @ C 2 2 s 2.Q %.3.a.l.2+N.S.V.`.6+[+1+    ",
"          p+:+b.Q l+s 2 2 3 @ @ # # 3++ #+#+#+m+m+&.&.&.&.&.&.&.n+n+n+#++ + o+# @ @ C C 2 s 2.4+Q e+3.l.k.z.N.S.V.`.6+:+1+      ",
"            p+q+`.).Q l+s s 2 3 3 @ @ @ # # . + + #+#+#+#+#+#++ + + o+r+@ @ ^+^+/+2 s+s 2.4+Q e+).b.l.2+z.N.S.V.`.>+1+b+        ",
"              t+t+u+`.b.Q l+l+s s 2 2 3 3 C @ @ @ # # # # # # @ @ @ ^+C C /+/+s+2.2.v+Q %.%.).b.l.k.z.N.S.W. +>+:+d+d+          ",
"                  t+t+t+b+a+w+Q l+l+2.s s 2 2 2 2 3 3 3 3 C C 3 2 2 2 s+s+2.2.v+v+%.%.x+~+b.a.l.2+z.N.S.V.6+d+d+d+d+            ",
"                        t+t+t+t+b+[+`.`.z.l+l+2.2.2.s s s s s s s 2.2.v+v+Q Q %.x+).~+y+l.k.k.z.N.S.W. +>+d+k+                  ",
"                                t+t+t+t+t+W.%.%.%.Q Q Q Q Q Q Q Q Q %.%.e+).).b.b.l.k.k.z+N.N.A+8+V.*+1+k+k+                    ",
"                                        t+t+!+a.3.3.3.3.3.3.3.3.3.3.3.b.a.a.l.S.8+8+B+`.C+(+(+:+:+d+p+p+p+                      ",
"                                          D+D+E+(+)+l.l.l.l.l.l.l.)+S.6+(+d+t+t+t+t+t+p+p+p+t+t+t+t+                            ",
"                                              D+D+D+D+D+D+D+D+D+D+D+D+D+t+t+                                                    ",
"                                                      F+F+D+D+                                                                  ",
"                                                                                                                                ",
"                                                                                                                                ",
"                                                                                                                                ",
"                                                                                                                                ",
"                                                                                                                                ",
"                                                                                                                                ",
"                                                                                                                                ",
"                                                                                                                                ",
"                                                                                                                                ",
"                                                                                                                                ",
"                                                                                                                                ",
"                                                                                                                                ",
"                                                                                                                                "};
