/* XPM */
static char * icon_xpm[] = {
"32 32 61 1",
" 	c None",
".	c #4D4D4D",
"+	c #616161",
"@	c #F1F1F1",
"#	c #888888",
"$	c #FFFFFF",
"%	c #C2C2C2",
"&	c #585858",
"*	c #E9E9E9",
"=	c #7B7B7B",
"-	c #6A6A6A",
";	c #A5A5A5",
">	c #D7D7D7",
",	c #DDDDDD",
"'	c #B2B2B2",
")	c #535353",
"!	c #707070",
"~	c #D1D1D1",
"{	c #E1E1E1",
"]	c #6E6E6E",
"^	c #A3A3A3",
"/	c #FBFBFB",
"(	c #4F4F4F",
"_	c #BCBCBC",
":	c #E7E7E7",
"<	c #9F9F9F",
"[	c #FDFDFD",
"}	c #A1A1A1",
"|	c #EFEFEF",
"1	c #BEBEBE",
"2	c #5E5E5E",
"3	c #727272",
"4	c #D9D9D9",
"5	c #515151",
"6	c #ADADAD",
"7	c #F7F7F7",
"8	c #D2D2D2",
"9	c #E3E3E3",
"0	c #686868",
"a	c #B4B4B4",
"b	c #CDCDCD",
"c	c #8E8E8E",
"d	c #DFDFDF",
"e	c #ABABAB",
"f	c #F9F9F9",
"g	c #5A5A5A",
"h	c #CBCBCB",
"i	c #B8B8B8",
"j	c #787878",
"k	c #909090",
"l	c #636363",
"m	c #EDEDED",
"n	c #A8A8A8",
"o	c #7D7D7D",
"p	c #838383",
"q	c #767676",
"r	c #929292",
"s	c #CFCFCF",
"t	c #C9C9C9",
"u	c #B6B6B6",
"v	c #818181",
"                ...             ",
"               .....            ",
"              ...+....          ",
"             ....@#....         ",
"           ......$$%&....       ",
"         ........$$$*=....      ",
"       .....-;>,@$$$$$')....    ",
"      ....!~$$$$$$$$$$${]....   ",
"     ....^$$$$$$$$$$$$$$/;(..   ",
"     ..._$$$$$$$$$$$$$$$$$^..   ",
"    ...^$$$$$$:%<$$$$$$$[}...   ",
"    ..![$$$$*=...$$$$$$|=....   ",
"   ...~$$$$1)....$$$$$>2....    ",
"   ..3$$$$45.....$$$$'(...      ",
"  ...6$$$$!......$$7#....       ",
"  ...8$$${... ...$90....        ",
"  $$$$$$$a... ...%)... ......   ",
"  $$$$$$$^..   ...............  ",
"  $$$$$$$6...  ..... .......... ",
"  $$$$$$$b...    .   ..c$$$d... ",
"   ..e$$$fg...      ...h$$$i... ",
"   ..]$$$$i....    ...=$$$$j..  ",
"   ...>$$$$k.........lm$$$d(..  ",
"   ...j$$$$$n5......o|$$$$p...  ",
"    ...6$$$$$*nq33rs$$$$$i...   ",
"     ..(t$$$$$$$$$$$$$$$~5..    ",
"     ...(6$$$$$$$$$$$$$u5...    ",
"      ....=,$$$$$$$$${v....     ",
"       .....=6,|$@,_p.....      ",
"         ...............        ",
"          .............         ",
"             .......            "};
