<?xml version="1.0" encoding="UTF-8" standalone="no"?>
<!-- Created with Inkscape (http://www.inkscape.org/) -->

<svg
   xmlns:dc="http://purl.org/dc/elements/1.1/"
   xmlns:cc="http://creativecommons.org/ns#"
   xmlns:rdf="http://www.w3.org/1999/02/22-rdf-syntax-ns#"
   xmlns:svg="http://www.w3.org/2000/svg"
   xmlns="http://www.w3.org/2000/svg"
   xmlns:xlink="http://www.w3.org/1999/xlink"
   xmlns:sodipodi="http://sodipodi.sourceforge.net/DTD/sodipodi-0.dtd"
   xmlns:inkscape="http://www.inkscape.org/namespaces/inkscape"
   width="96"
   height="96"
   id="svg2408"
   sodipodi:version="0.32"
   inkscape:version="0.47 r22583"
   version="1.0"
   sodipodi:docname="gnome-mime-application-x-archive.svg"
   inkscape:output_extension="org.inkscape.output.svg.inkscape"
   style="display:inline">
  <defs
     id="defs2410">
    <linearGradient
       id="linearGradient3604">
      <stop
         id="stop3606"
         offset="0"
         style="stop-color:#2f2f2f;stop-opacity:1" />
      <stop
         id="stop3608"
         offset="0.43731192"
         style="stop-color:#ffffff;stop-opacity:1" />
      <stop
         style="stop-color:#979797;stop-opacity:1"
         offset="0.62138397"
         id="stop3610" />
      <stop
         id="stop3612"
         offset="0.7723214"
         style="stop-color:#505050;stop-opacity:1;" />
      <stop
         id="stop3614"
         offset="1"
         style="stop-color:#e6e6e6;stop-opacity:1;" />
    </linearGradient>
    <linearGradient
       id="linearGradient3590">
      <stop
         style="stop-color:#2f2f2f;stop-opacity:1"
         offset="0"
         id="stop3592" />
      <stop
         style="stop-color:#e6e6e6;stop-opacity:1;"
         offset="0.50044644"
         id="stop3594" />
      <stop
         id="stop3596"
         offset="0.62138397"
         style="stop-color:#979797;stop-opacity:1" />
      <stop
         style="stop-color:#505050;stop-opacity:1;"
         offset="0.7723214"
         id="stop3598" />
      <stop
         style="stop-color:#e6e6e6;stop-opacity:1;"
         offset="1"
         id="stop3600" />
    </linearGradient>
    <linearGradient
       id="linearGradient3576">
      <stop
         id="stop3578"
         offset="0"
         style="stop-color:#2f2f2f;stop-opacity:1" />
      <stop
         id="stop3580"
         offset="0.50044644"
         style="stop-color:#e6e6e6;stop-opacity:1;" />
      <stop
         style="stop-color:#979797;stop-opacity:1"
         offset="0.62138397"
         id="stop3582" />
      <stop
         id="stop3584"
         offset="0.7723214"
         style="stop-color:#505050;stop-opacity:1;" />
      <stop
         id="stop3586"
         offset="1"
         style="stop-color:#e6e6e6;stop-opacity:1;" />
    </linearGradient>
    <linearGradient
       id="linearGradient3562">
      <stop
         style="stop-color:#2f2f2f;stop-opacity:1"
         offset="0"
         id="stop3564" />
      <stop
         style="stop-color:#e6e6e6;stop-opacity:1;"
         offset="0.50044644"
         id="stop3566" />
      <stop
         id="stop3568"
         offset="0.62138397"
         style="stop-color:#979797;stop-opacity:1" />
      <stop
         style="stop-color:#505050;stop-opacity:1;"
         offset="0.7723214"
         id="stop3570" />
      <stop
         style="stop-color:#e6e6e6;stop-opacity:1;"
         offset="1"
         id="stop3572" />
    </linearGradient>
    <linearGradient
       id="linearGradient3548">
      <stop
         id="stop3550"
         offset="0"
         style="stop-color:#2f2f2f;stop-opacity:1" />
      <stop
         id="stop3552"
         offset="0.50044644"
         style="stop-color:#e6e6e6;stop-opacity:1;" />
      <stop
         style="stop-color:#979797;stop-opacity:1"
         offset="0.62138397"
         id="stop3554" />
      <stop
         id="stop3556"
         offset="0.7723214"
         style="stop-color:#505050;stop-opacity:1;" />
      <stop
         id="stop3558"
         offset="1"
         style="stop-color:#e6e6e6;stop-opacity:1;" />
    </linearGradient>
    <linearGradient
       id="linearGradient3534">
      <stop
         style="stop-color:#2f2f2f;stop-opacity:1"
         offset="0"
         id="stop3536" />
      <stop
         style="stop-color:#e6e6e6;stop-opacity:1;"
         offset="0.50044644"
         id="stop3538" />
      <stop
         id="stop3540"
         offset="0.62138397"
         style="stop-color:#979797;stop-opacity:1" />
      <stop
         style="stop-color:#505050;stop-opacity:1;"
         offset="0.7723214"
         id="stop3542" />
      <stop
         style="stop-color:#e6e6e6;stop-opacity:1;"
         offset="1"
         id="stop3544" />
    </linearGradient>
    <linearGradient
       id="linearGradient3435">
      <stop
         style="stop-color:#ededed;stop-opacity:1;"
         offset="0"
         id="stop3437" />
      <stop
         style="stop-color:#b0b0b0;stop-opacity:1;"
         offset="1"
         id="stop3439" />
    </linearGradient>
    <linearGradient
       id="linearGradient3387">
      <stop
         style="stop-color:#a2a2a2;stop-opacity:1;"
         offset="0"
         id="stop3389" />
      <stop
         style="stop-color:#ffffff;stop-opacity:1;"
         offset="1"
         id="stop3391" />
    </linearGradient>
    <linearGradient
       id="linearGradient3354">
      <stop
         style="stop-color:#b4b4b4;stop-opacity:1"
         offset="0"
         id="stop3356" />
      <stop
         id="stop3362"
         offset="0.20467032"
         style="stop-color:#646464;stop-opacity:1" />
      <stop
         style="stop-color:#ffffff;stop-opacity:1;"
         offset="0.49567693"
         id="stop3364" />
      <stop
         style="stop-color:#3c3c3c;stop-opacity:1"
         offset="1"
         id="stop3358" />
    </linearGradient>
    <linearGradient
       id="linearGradient3326">
      <stop
         id="stop3328"
         offset="0"
         style="stop-color:#2f2f2f;stop-opacity:1" />
      <stop
         id="stop3332"
         offset="0.50044644"
         style="stop-color:#e6e6e6;stop-opacity:1;" />
      <stop
         style="stop-color:#979797;stop-opacity:1"
         offset="0.62138397"
         id="stop3334" />
      <stop
         id="stop3336"
         offset="0.7723214"
         style="stop-color:#505050;stop-opacity:1;" />
      <stop
         id="stop3338"
         offset="1"
         style="stop-color:#ffffff;stop-opacity:1;" />
    </linearGradient>
    <linearGradient
       id="linearGradient3290">
      <stop
         style="stop-color:#ffffff;stop-opacity:1"
         offset="0"
         id="stop3292" />
      <stop
         id="stop3304"
         offset="0.48973215"
         style="stop-color:#8c8c8c;stop-opacity:1;" />
      <stop
         style="stop-color:#cfcfcf;stop-opacity:1;"
         offset="0.50044644"
         id="stop3306" />
      <stop
         id="stop3298"
         offset="0.62276787"
         style="stop-color:#ffffff;stop-opacity:1;" />
      <stop
         style="stop-color:#c8c8c8;stop-opacity:1"
         offset="0.81696427"
         id="stop3300" />
      <stop
         style="stop-color:#505050;stop-opacity:1;"
         offset="1"
         id="stop3294" />
    </linearGradient>
    <linearGradient
       id="linearGradient3236">
      <stop
         id="stop3238"
         offset="0"
         style="stop-color:#818181;stop-opacity:1;" />
      <stop
         style="stop-color:#f9f9f9;stop-opacity:1;"
         offset="0.2"
         id="stop3242" />
      <stop
         id="stop3240"
         offset="1"
         style="stop-color:#dcdcdc;stop-opacity:0;" />
    </linearGradient>
    <linearGradient
       id="linearGradient3199">
      <stop
         style="stop-color:#dcdcdc;stop-opacity:1;"
         offset="0"
         id="stop3201" />
      <stop
         style="stop-color:#fafafa;stop-opacity:1;"
         offset="1"
         id="stop3203" />
    </linearGradient>
    <linearGradient
       id="linearGradient3210">
      <stop
         style="stop-color:#ffffff;stop-opacity:0.39024389;"
         offset="0"
         id="stop3212" />
      <stop
         style="stop-color:#000000;stop-opacity:0.2682927;"
         offset="1"
         id="stop3214" />
    </linearGradient>
    <linearGradient
       id="linearGradient3174">
      <stop
         style="stop-color:#c30000;stop-opacity:1;"
         offset="0"
         id="stop3176" />
      <stop
         style="stop-color:#f12300;stop-opacity:1;"
         offset="1"
         id="stop3178" />
    </linearGradient>
    <linearGradient
       id="ButtonShadow"
       gradientTransform="scale(1.0058652,0.994169)"
       x1="45.447727"
       y1="92.539597"
       x2="45.447727"
       y2="7.0165396"
       gradientUnits="userSpaceOnUse">
      <stop
         style="stop-color:#000000;stop-opacity:1;"
         offset="0"
         id="stop3750" />
      <stop
         style="stop-color:#000000;stop-opacity:0.58823532;"
         offset="1"
         id="stop3752" />
    </linearGradient>
    <linearGradient
       inkscape:collect="always"
       id="linearGradient3737">
      <stop
         style="stop-color:#ffffff;stop-opacity:1;"
         offset="0"
         id="stop3739" />
      <stop
         style="stop-color:#ffffff;stop-opacity:0;"
         offset="1"
         id="stop3741" />
    </linearGradient>
    <linearGradient
       id="linearGradient3700">
      <stop
         style="stop-color:#b4b4b4;stop-opacity:1;"
         offset="0"
         id="stop3702" />
      <stop
         style="stop-color:#dcdcdc;stop-opacity:1;"
         offset="1"
         id="stop3704" />
    </linearGradient>
    <inkscape:perspective
       sodipodi:type="inkscape:persp3d"
       inkscape:vp_x="0 : 526.18109 : 1"
       inkscape:vp_y="0 : 1000 : 0"
       inkscape:vp_z="744.09448 : 526.18109 : 1"
       inkscape:persp3d-origin="372.04724 : 350.78739 : 1"
       id="perspective2416" />
    <linearGradient
       inkscape:collect="always"
       xlink:href="#linearGradient3737"
       id="linearGradient3743"
       x1="36.357143"
       y1="6"
       x2="36.357143"
       y2="63.893143"
       gradientUnits="userSpaceOnUse" />
    <filter
       inkscape:collect="always"
       id="filter3174">
      <feGaussianBlur
         inkscape:collect="always"
         stdDeviation="1.71"
         id="feGaussianBlur3176" />
    </filter>
    <linearGradient
       inkscape:collect="always"
       xlink:href="#ButtonShadow"
       id="linearGradient3195"
       x1="49.142857"
       y1="84"
       x2="49.142857"
       y2="11.990931"
       gradientUnits="userSpaceOnUse"
       gradientTransform="translate(0,1)" />
    <linearGradient
       inkscape:collect="always"
       xlink:href="#linearGradient3737"
       id="linearGradient3220"
       x1="19.035713"
       y1="74"
       x2="87.5"
       y2="27.428572"
       gradientUnits="userSpaceOnUse" />
    <radialGradient
       inkscape:collect="always"
       xlink:href="#linearGradient3700"
       id="radialGradient3226"
       gradientUnits="userSpaceOnUse"
       gradientTransform="matrix(0,-1.085034,2,0,-90,187.65306)"
       cx="90"
       cy="90"
       fx="90"
       fy="90"
       r="42" />
    <radialGradient
       inkscape:collect="always"
       xlink:href="#linearGradient3700"
       id="radialGradient3231"
       gradientUnits="userSpaceOnUse"
       gradientTransform="matrix(0,-1.085034,2,0,-90,187.65306)"
       cx="90"
       cy="90"
       fx="90"
       fy="90"
       r="42" />
    <linearGradient
       inkscape:collect="always"
       xlink:href="#linearGradient3236"
       id="linearGradient3234"
       x1="6"
       y1="73"
       x2="24"
       y2="73"
       gradientUnits="userSpaceOnUse" />
    <linearGradient
       inkscape:collect="always"
       xlink:href="#linearGradient3236"
       id="linearGradient3246"
       gradientUnits="userSpaceOnUse"
       x1="6"
       y1="73"
       x2="24"
       y2="73"
       gradientTransform="matrix(-1,0,0,1,96,0)" />
    <linearGradient
       inkscape:collect="always"
       xlink:href="#linearGradient3199"
       id="linearGradient3223"
       gradientUnits="userSpaceOnUse"
       x1="38.748035"
       y1="65.59034"
       x2="38.748035"
       y2="5.8331571" />
    <radialGradient
       inkscape:collect="always"
       xlink:href="#linearGradient3700"
       id="radialGradient3229"
       gradientUnits="userSpaceOnUse"
       gradientTransform="matrix(0,-1.085034,2,0,-90,187.65306)"
       cx="90"
       cy="90"
       fx="90"
       fy="90"
       r="42" />
    <clipPath
       clipPathUnits="userSpaceOnUse"
       id="clipPath3235">
      <path
         id="path3237"
         d="M 66,6 L 66,61 C 66,62.662 67.338,64 69,64 L 75,64 C 76.662,64 78,62.662 78,61 L 78,6 L 74,6 L 74,8 L 70,8 L 70,6 L 66,6 z"
         style="opacity:1;fill:#ffffff;fill-opacity:1;fill-rule:nonzero;stroke:none;stroke-width:2;stroke-linecap:square;stroke-linejoin:miter;stroke-miterlimit:4;stroke-dasharray:none;stroke-dashoffset:0;stroke-opacity:1" />
    </clipPath>
    <filter
       inkscape:collect="always"
       id="filter3243"
       x="-0.16615385"
       width="1.3323077"
       y="-0.036610169"
       height="1.0732203">
      <feGaussianBlur
         inkscape:collect="always"
         stdDeviation="0.9"
         id="feGaussianBlur3245" />
    </filter>
    <linearGradient
       inkscape:collect="always"
       xlink:href="#linearGradient3354"
       id="linearGradient3360"
       x1="68.75"
       y1="59"
       x2="75.25"
       y2="59"
       gradientUnits="userSpaceOnUse"
       gradientTransform="translate(0,-1)" />
    <linearGradient
       inkscape:collect="always"
       xlink:href="#linearGradient3290"
       id="linearGradient3372"
       gradientUnits="userSpaceOnUse"
       x1="69"
       y1="54"
       x2="73"
       y2="54"
       gradientTransform="translate(0,-1)" />
    <linearGradient
       inkscape:collect="always"
       xlink:href="#linearGradient3387"
       id="linearGradient3393"
       x1="63.484772"
       y1="64.163078"
       x2="79"
       y2="65"
       gradientUnits="userSpaceOnUse" />
    <linearGradient
       inkscape:collect="always"
       xlink:href="#linearGradient3354"
       id="linearGradient3397"
       gradientUnits="userSpaceOnUse"
       gradientTransform="translate(0,-49)"
       x1="68.75"
       y1="59"
       x2="75.25"
       y2="59" />
    <linearGradient
       inkscape:collect="always"
       xlink:href="#linearGradient3354"
       id="linearGradient3401"
       gradientUnits="userSpaceOnUse"
       gradientTransform="translate(1.5,-48)"
       x1="68.75"
       y1="59"
       x2="72.250572"
       y2="59" />
    <filter
       inkscape:collect="always"
       id="filter3429"
       x="-0.16182839"
       width="1.3236568"
       y="-0.095353599"
       height="1.1907072">
      <feGaussianBlur
         inkscape:collect="always"
         stdDeviation="0.53551312"
         id="feGaussianBlur3431" />
    </filter>
    <linearGradient
       inkscape:collect="always"
       xlink:href="#linearGradient3435"
       id="linearGradient3441"
       x1="68.029027"
       y1="17.763245"
       x2="75.970968"
       y2="17.763245"
       gradientUnits="userSpaceOnUse" />
    <linearGradient
       inkscape:collect="always"
       xlink:href="#linearGradient3354"
       id="linearGradient3449"
       gradientUnits="userSpaceOnUse"
       gradientTransform="translate(1.5,-48)"
       x1="68.75"
       y1="59"
       x2="72.250572"
       y2="59" />
    <linearGradient
       inkscape:collect="always"
       xlink:href="#linearGradient3354"
       id="linearGradient3453"
       gradientUnits="userSpaceOnUse"
       gradientTransform="translate(1.5,-48)"
       x1="68.75"
       y1="59"
       x2="72.250572"
       y2="59" />
    <linearGradient
       inkscape:collect="always"
       xlink:href="#linearGradient3435"
       id="linearGradient3489"
       x1="68.96875"
       y1="17.5"
       x2="75.0625"
       y2="17.5"
       gradientUnits="userSpaceOnUse"
       gradientTransform="matrix(-1,0,0,1,144.03125,-2)" />
    <linearGradient
       inkscape:collect="always"
       xlink:href="#linearGradient3387"
       id="linearGradient3499"
       gradientUnits="userSpaceOnUse"
       gradientTransform="translate(1.5,-48)"
       x1="68.75"
       y1="59"
       x2="72.250572"
       y2="59" />
    <linearGradient
       inkscape:collect="always"
       xlink:href="#linearGradient3354"
       id="linearGradient3514"
       gradientUnits="userSpaceOnUse"
       gradientTransform="matrix(1.1262691,0,0,1,-7.4019692,-49.747462)"
       x1="68.75"
       y1="59"
       x2="72.250572"
       y2="59" />
    <linearGradient
       inkscape:collect="always"
       xlink:href="#linearGradient3435"
       id="linearGradient3516"
       gradientUnits="userSpaceOnUse"
       x1="68.029027"
       y1="17.763245"
       x2="75.970968"
       y2="17.763245"
       gradientTransform="translate(0,-2)" />
    <linearGradient
       inkscape:collect="always"
       xlink:href="#linearGradient3354"
       id="linearGradient3530"
       gradientUnits="userSpaceOnUse"
       gradientTransform="matrix(1.1262691,0,0,1,-7.4019692,-49.5)"
       x1="68.75"
       y1="59"
       x2="72.250572"
       y2="59" />
    <linearGradient
       inkscape:collect="always"
       xlink:href="#linearGradient3604"
       id="linearGradient3602"
       gradientUnits="userSpaceOnUse"
       gradientTransform="matrix(-1,0,0,1,144,-4)"
       x1="69"
       y1="54"
       x2="73"
       y2="54" />
    <inkscape:perspective
       id="perspective3719"
       inkscape:persp3d-origin="0.5 : 0.33333333 : 1"
       inkscape:vp_z="1 : 0.5 : 1"
       inkscape:vp_y="0 : 1000 : 0"
       inkscape:vp_x="0 : 0.5 : 1"
       sodipodi:type="inkscape:persp3d" />
    <linearGradient
       y2="90.238609"
       x2="32.251034"
       y1="6.1317081"
       x1="32.251034"
       gradientTransform="matrix(1.0238095,0,0,1.0119048,-1.1428571,-98.071429)"
       gradientUnits="userSpaceOnUse"
       id="linearGradient3026"
       xlink:href="#ButtonShadow-0"
       inkscape:collect="always" />
    <linearGradient
       id="ButtonShadow-0"
       gradientTransform="matrix(1.0058652,0,0,0.994169,100,0)"
       x1="45.447727"
       y1="92.539597"
       x2="45.447727"
       y2="7.0165396"
       gradientUnits="userSpaceOnUse">
      <stop
         style="stop-color:#000000;stop-opacity:1;"
         offset="0"
         id="stop3750-8" />
      <stop
         style="stop-color:#000000;stop-opacity:0.58823532;"
         offset="1"
         id="stop3752-5" />
    </linearGradient>
    <linearGradient
       inkscape:collect="always"
       xlink:href="#ButtonShadow-0"
       id="linearGradient3780"
       gradientUnits="userSpaceOnUse"
       gradientTransform="matrix(1.0238095,0,0,1.0119048,-1.1428571,-98.071429)"
       x1="32.251034"
       y1="6.1317081"
       x2="32.251034"
       y2="90.238609" />
    <linearGradient
       id="linearGradient3728"
       gradientTransform="matrix(1.0058652,0,0,0.994169,100,0)"
       x1="45.447727"
       y1="92.539597"
       x2="45.447727"
       y2="7.0165396"
       gradientUnits="userSpaceOnUse">
      <stop
         style="stop-color:#000000;stop-opacity:1;"
         offset="0"
         id="stop3730" />
      <stop
         style="stop-color:#000000;stop-opacity:0.58823532;"
         offset="1"
         id="stop3732" />
    </linearGradient>
    <linearGradient
       inkscape:collect="always"
       xlink:href="#ButtonShadow-0"
       id="linearGradient3772"
       gradientUnits="userSpaceOnUse"
       gradientTransform="matrix(1.0238095,0,0,1.0119048,-1.1428571,-98.071429)"
       x1="32.251034"
       y1="6.1317081"
       x2="32.251034"
       y2="90.238609" />
    <linearGradient
       id="linearGradient3735"
       gradientTransform="matrix(1.0058652,0,0,0.994169,100,0)"
       x1="45.447727"
       y1="92.539597"
       x2="45.447727"
       y2="7.0165396"
       gradientUnits="userSpaceOnUse">
      <stop
         style="stop-color:#000000;stop-opacity:1;"
         offset="0"
         id="stop3737" />
      <stop
         style="stop-color:#000000;stop-opacity:0.58823532;"
         offset="1"
         id="stop3739-2" />
    </linearGradient>
    <linearGradient
       inkscape:collect="always"
       xlink:href="#ButtonShadow-0"
       id="linearGradient3725"
       gradientUnits="userSpaceOnUse"
       gradientTransform="matrix(1.0238095,0,0,1.0119048,-1.1428571,-98.071429)"
       x1="32.251034"
       y1="6.1317081"
       x2="32.251034"
       y2="90.238609" />
    <linearGradient
       id="linearGradient3742"
       gradientTransform="matrix(1.0058652,0,0,0.994169,100,0)"
       x1="45.447727"
       y1="92.539597"
       x2="45.447727"
       y2="7.0165396"
       gradientUnits="userSpaceOnUse">
      <stop
         style="stop-color:#000000;stop-opacity:1;"
         offset="0"
         id="stop3744" />
      <stop
         style="stop-color:#000000;stop-opacity:0.58823532;"
         offset="1"
         id="stop3746" />
    </linearGradient>
    <linearGradient
       inkscape:collect="always"
       xlink:href="#ButtonShadow-0"
       id="linearGradient3721"
       gradientUnits="userSpaceOnUse"
       gradientTransform="translate(0,-97)"
       x1="32.251034"
       y1="6.1317081"
       x2="32.251034"
       y2="90.238609" />
    <linearGradient
       id="linearGradient3749"
       gradientTransform="matrix(1.0058652,0,0,0.994169,100,0)"
       x1="45.447727"
       y1="92.539597"
       x2="45.447727"
       y2="7.0165396"
       gradientUnits="userSpaceOnUse">
      <stop
         style="stop-color:#000000;stop-opacity:1;"
         offset="0"
         id="stop3751" />
      <stop
         style="stop-color:#000000;stop-opacity:0.58823532;"
         offset="1"
         id="stop3753" />
    </linearGradient>
    <linearGradient
       y2="90.238609"
       x2="32.251034"
       y1="6.1317081"
       x1="32.251034"
       gradientTransform="matrix(1.0238095,0,0,1.0119048,-1.1428571,-98.071429)"
       gradientUnits="userSpaceOnUse"
       id="linearGradient3760"
       xlink:href="#ButtonShadow-0"
       inkscape:collect="always" />
  </defs>
  <sodipodi:namedview
     id="base"
     pagecolor="#ffffff"
     bordercolor="#666666"
     borderopacity="1.0"
     inkscape:pageopacity="0.0"
     inkscape:pageshadow="2"
     inkscape:zoom="2.02773"
     inkscape:cx="-146.07315"
     inkscape:cy="-18.055077"
     inkscape:document-units="px"
     inkscape:current-layer="layer5"
     showgrid="true"
     showborder="true"
     inkscape:showpageshadow="false"
     inkscape:window-width="1920"
     inkscape:window-height="1023"
     inkscape:window-x="0"
     inkscape:window-y="24"
     inkscape:window-maximized="1">
    <inkscape:grid
       type="xygrid"
       id="grid3732"
       visible="true"
       enabled="true" />
  </sodipodi:namedview>
  <metadata
     id="metadata2413">
    <rdf:RDF>
      <cc:Work
         rdf:about="">
        <dc:format>image/svg+xml</dc:format>
        <dc:type
           rdf:resource="http://purl.org/dc/dcmitype/StillImage" />
      </cc:Work>
    </rdf:RDF>
  </metadata>
  <g
     inkscape:groupmode="layer"
     id="layer2"
     inkscape:label="Blur Shadow"
     sodipodi:insensitive="true"
     style="display:none">
    <rect
       style="opacity:0.9;fill:url(#ButtonShadow);fill-opacity:1;fill-rule:nonzero;stroke:none;filter:url(#filter3174)"
       id="rect3745"
       width="86"
       height="85"
       x="5"
       y="7"
       rx="6"
       ry="6" />
  </g>
  <g
     inkscape:groupmode="layer"
     id="layer5"
     inkscape:label="Shadow"
     style="display:inline"
     sodipodi:insensitive="true">
    <path
       sodipodi:type="inkscape:offset"
       inkscape:radius="0.99097413"
       inkscape:original="M 12 -94.03125 C 7.028367 -94.03125 2.96875 -89.971633 2.96875 -85 L 2.96875 -14 C 2.96875 -9.0283671 7.0283671 -4.96875 12 -4.96875 L 84 -4.96875 C 88.971633 -4.96875 93.03125 -9.028367 93.03125 -14 L 93.03125 -85 C 93.03125 -89.971633 88.971633 -94.03125 84 -94.03125 L 12 -94.03125 z "
       style="opacity:0.07999998;fill:url(#linearGradient3760);fill-opacity:1;fill-rule:nonzero;stroke:none;display:inline"
       id="path3786"
       d="m 12,-95.03125 c -5.5110903,0 -10.03125,4.52016 -10.03125,10.03125 l 0,71 c 0,5.5110902 4.5201598,10.03125 10.03125,10.03125 l 72,0 c 5.51109,0 10.03125,-4.5201597 10.03125,-10.03125 l 0,-71 c 0,-5.51109 -4.52016,-10.03125 -10.03125,-10.03125 l -72,0 z"
       transform="scale(1,-1)" />
    <path
       sodipodi:type="inkscape:offset"
       inkscape:radius="1.0360184"
       inkscape:original="M 12 -93 C 7.5908667 -93 4 -89.409133 4 -85 L 4 -14 C 4 -9.5908667 7.5908667 -6 12 -6 L 84 -6 C 88.409133 -6 92 -9.5908667 92 -14 L 92 -85 C 92 -89.409133 88.409133 -93 84 -93 L 12 -93 z "
       style="opacity:0.1;fill:url(#linearGradient3780);fill-opacity:1;fill-rule:nonzero;stroke:none;display:inline"
       id="path3778"
       d="m 12,-94.03125 c -4.971633,0 -9.03125,4.059617 -9.03125,9.03125 l 0,71 c 0,4.9716329 4.0596171,9.03125 9.03125,9.03125 l 72,0 c 4.971633,0 9.03125,-4.059617 9.03125,-9.03125 l 0,-71 c 0,-4.971633 -4.059617,-9.03125 -9.03125,-9.03125 l -72,0 z"
       transform="scale(1,-1)" />
    <path
       sodipodi:type="inkscape:offset"
       inkscape:radius="0.98962283"
       inkscape:original="M 12 -92 C 8.122 -92 5 -88.878 5 -85 L 5 -14 C 5 -10.122 8.122 -7 12 -7 L 84 -7 C 87.878 -7 91 -10.122 91 -14 L 91 -85 C 91 -88.878 87.878 -92 84 -92 L 12 -92 z "
       style="opacity:0.2;fill:url(#linearGradient3772);fill-opacity:1;fill-rule:nonzero;stroke:none;display:inline"
       id="path3770"
       d="m 12,-93 c -4.4091333,0 -8,3.590867 -8,8 l 0,71 c 0,4.4091333 3.5908667,8 8,8 l 72,0 c 4.409133,0 8,-3.5908667 8,-8 l 0,-71 c 0,-4.409133 -3.590867,-8 -8,-8 l -72,0 z"
       transform="scale(1,-1)" />
    <rect
       style="opacity:0.3;fill:url(#linearGradient3725);fill-opacity:1;fill-rule:nonzero;stroke:none;display:inline"
       id="rect3723"
       width="86"
       height="85"
       x="5"
       y="-92"
       rx="7"
       ry="7"
       transform="scale(1,-1)" />
    <rect
       transform="scale(1,-1)"
       ry="6"
       rx="6"
       y="-91"
       x="6"
       height="84"
       width="84"
       id="rect3716"
       style="opacity:0.45;fill:url(#linearGradient3721);fill-opacity:1;fill-rule:nonzero;stroke:none;display:inline" />
  </g>
  <g
     inkscape:label="Button"
     inkscape:groupmode="layer"
     id="layer1"
     style="display:inline">
    <path
       style="opacity:1;fill:url(#radialGradient3229);fill-opacity:1;fill-rule:nonzero;stroke:none;stroke-width:1;stroke-linecap:square;stroke-linejoin:round;stroke-miterlimit:4;stroke-dasharray:none;stroke-dashoffset:0;stroke-opacity:0.69658119"
       d="M 12,6 C 8.676,6 6,8.676 6,12 L 6,84 C 6,87.324 8.676,90 12,90 L 84,90 C 87.324,90 90,87.324 90,84 L 90,12 C 90,8.676 87.324,6 84,6 L 75,6 L 75,9 L 69,9 L 69,6 L 12,6 z"
       id="rect2419" />
    <path
       style="opacity:1;fill:url(#linearGradient3234);fill-opacity:1;fill-rule:nonzero;stroke:none;stroke-width:1;stroke-linecap:square;stroke-linejoin:round;stroke-miterlimit:4;stroke-dasharray:none;stroke-dashoffset:0;stroke-opacity:0.69658119"
       d="M 6,56 L 6,84 C 6,87.324 8.676,90 12,90 L 24,90 L 24,56 L 6,56 z"
       id="rect3222" />
    <path
       id="path3244"
       d="M 90,56 L 90,84 C 90,87.324 87.324,90 84,90 L 72,90 L 72,56 L 90,56 z"
       style="opacity:1;fill:url(#linearGradient3246);fill-opacity:1;fill-rule:nonzero;stroke:none;stroke-width:1;stroke-linecap:square;stroke-linejoin:round;stroke-miterlimit:4;stroke-dasharray:none;stroke-dashoffset:0;stroke-opacity:0.69658119" />
    <path
       style="opacity:0.15;fill:#000000;fill-opacity:1;fill-rule:nonzero;stroke:none;stroke-width:1;stroke-linecap:square;stroke-linejoin:round;stroke-miterlimit:4;stroke-dasharray:none;stroke-dashoffset:0;stroke-opacity:0.69658119"
       d="M 6,82 L 6,84 C 6,87.324 8.676,90 12,90 L 84,90 C 87.324,90 90,87.324 90,84 L 90,82 C 90,85.324 87.324,88 84,88 L 12,88 C 8.676,88 6,85.324 6,82 z"
       id="rect2412" />
    <path
       id="path3187"
       d="M 6,78 L 6,80 C 6,83.324 8.676,86 12,86 L 84,86 C 87.324,86 90,83.324 90,80 L 90,78 C 90,81.324 87.324,84 84,84 L 12,84 C 8.676,84 6,81.324 6,78 z"
       style="opacity:0.8;fill:#ffffff;fill-opacity:1;fill-rule:nonzero;stroke:none;stroke-width:1;stroke-linecap:square;stroke-linejoin:round;stroke-miterlimit:4;stroke-dasharray:none;stroke-dashoffset:0;stroke-opacity:0.69658119" />
    <path
       id="path3189"
       d="M 6,76 L 6,78 C 6,81.324 8.676,84 12,84 L 84,84 C 87.324,84 90,81.324 90,78 L 90,76 C 90,79.324 87.324,82 84,82 L 12,82 C 8.676,82 6,79.324 6,76 z"
       style="opacity:0.15;fill:#000000;fill-opacity:1;fill-rule:nonzero;stroke:none;stroke-width:1;stroke-linecap:square;stroke-linejoin:round;stroke-miterlimit:4;stroke-dasharray:none;stroke-dashoffset:0;stroke-opacity:0.69658119" />
    <path
       style="opacity:0.8;fill:#ffffff;fill-opacity:1;fill-rule:nonzero;stroke:none;stroke-width:1;stroke-linecap:square;stroke-linejoin:round;stroke-miterlimit:4;stroke-dasharray:none;stroke-dashoffset:0;stroke-opacity:0.69658119"
       d="M 6,72 L 6,74 C 6,77.324 8.676,80 12,80 L 84,80 C 87.324,80 90,77.324 90,74 L 90,72 C 90,75.324 87.324,78 84,78 L 12,78 C 8.676,78 6,75.324 6,72 z"
       id="path3191" />
    <path
       style="opacity:0.15;fill:#000000;fill-opacity:1;fill-rule:nonzero;stroke:none;stroke-width:1;stroke-linecap:square;stroke-linejoin:round;stroke-miterlimit:4;stroke-dasharray:none;stroke-dashoffset:0;stroke-opacity:0.69658119"
       d="M 6,70 L 6,72 C 6,75.324 8.676,78 12,78 L 84,78 C 87.324,78 90,75.324 90,72 L 90,70 C 90,73.324 87.324,76 84,76 L 12,76 C 8.676,76 6,73.324 6,70 z"
       id="path3193" />
    <path
       style="opacity:1;fill:url(#linearGradient3223);fill-opacity:1;fill-rule:nonzero;stroke:none;stroke-width:1;stroke-linecap:square;stroke-linejoin:round;stroke-miterlimit:4;stroke-dasharray:none;stroke-dashoffset:0;stroke-opacity:0.69658118999999996"
       d="M 12 6 C 8.676 6 6 8.676 6 12 L 6 68 C 6 71.324 8.676 74 12 74 L 84 74 C 87.324 74 90 71.324 90 68 L 90 12 C 90 8.676 87.324 6 84 6 L 75 6 L 75 9 L 69 9 L 69 6 L 12 6 z "
       id="rect3195" />
    <path
       style="opacity:1;fill:url(#linearGradient3220);fill-opacity:1;fill-rule:nonzero;stroke:none;stroke-width:1;stroke-linecap:square;stroke-linejoin:round;stroke-miterlimit:4;stroke-dasharray:none;stroke-dashoffset:0;stroke-opacity:0.69658118999999996"
       d="M 12 6 C 8.676 6 6 8.676 6 12 L 6 68 C 6 71.324 8.676 74 12 74 L 84 74 C 87.324 74 90 71.324 90 68 L 90 12 C 90 8.676 87.324 6 84 6 L 75 6 L 75 8 L 84 8 C 86.245802 8 88 9.7541975 88 12 L 88 68 C 88 70.245802 86.245802 72 84 72 L 12 72 C 9.7541975 72 8 70.245802 8 68 L 8 12 C 8 9.7541975 9.7541975 8 12 8 L 69 8 L 69 6 L 12 6 z "
       id="rect3207" />
  </g>
  <g
     inkscape:groupmode="layer"
     id="layer3"
     inkscape:label="Zip">
    <path
       style="opacity:1;fill:#252525;fill-opacity:1;fill-rule:nonzero;stroke:none;stroke-width:2;stroke-linecap:square;stroke-linejoin:miter;stroke-miterlimit:4;stroke-dasharray:none;stroke-dashoffset:0;stroke-opacity:1"
       d="M 66 6 L 66 61 C 66 62.662 67.338 64 69 64 L 75 64 C 76.662 64 78 62.662 78 61 L 78 6 L 74 6 L 74 8 L 70 8 L 70 6 L 66 6 z "
       id="rect3201" />
    <rect
       style="opacity:1;fill:#4d4d4d;fill-opacity:1;fill-rule:nonzero;stroke:none;stroke-width:2;stroke-linecap:square;stroke-linejoin:miter;stroke-miterlimit:4;stroke-dasharray:none;stroke-dashoffset:0;stroke-opacity:1"
       id="rect3247"
       width="4"
       height="49"
       x="70"
       y="8" />
    <rect
       style="opacity:1;fill:url(#linearGradient3360);fill-opacity:1;fill-rule:nonzero;stroke:#000000;stroke-width:0.5;stroke-linecap:square;stroke-linejoin:miter;stroke-miterlimit:4;stroke-dasharray:none;stroke-dashoffset:0;stroke-opacity:0.56363639"
       id="rect3211"
       width="6"
       height="4"
       x="69"
       y="56"
       rx="1"
       ry="1" />
    <path
       id="path3231"
       d="M 66 6 L 66 61 C 66 62.662 67.338 64 69 64 L 75 64 C 76.662 64 78 62.662 78 61 L 78 6 L 74 6 L 74 8 L 70 8 L 70 6 L 66 6 z "
       style="opacity:1;fill:none;fill-opacity:1;fill-rule:nonzero;stroke:#000000;stroke-width:2;stroke-linecap:square;stroke-linejoin:miter;stroke-miterlimit:4;stroke-dasharray:none;stroke-dashoffset:0;stroke-opacity:1;filter:url(#filter3243)"
       clip-path="url(#clipPath3235)" />
    <path
       style="opacity:1;fill:url(#linearGradient3372);fill-opacity:1;fill-rule:nonzero;stroke:#000000;stroke-width:0.5;stroke-linecap:square;stroke-linejoin:miter;stroke-miterlimit:4;stroke-dasharray:none;stroke-dashoffset:0;stroke-opacity:0.56363639"
       d="M 69.5,51 C 69.230226,51 69,51.217964 69,51.5 L 69,54.5 C 69,54.782036 69.230229,55 69.5,55 L 70.5,55 C 70.769774,55 71,54.782036 71,54.5 L 71,54 L 72.5,54 C 72.777,54 73,53.777 73,53.5 L 73,52.5 C 73,52.223 72.777,52 72.5,52 L 71,52 L 71,51.5 C 71,51.217964 70.769771,51 70.5,51 L 69.5,51 z"
       id="rect3249" />
    <use
       x="0"
       y="0"
       xlink:href="#rect3249"
       id="use3308"
       transform="translate(0,-6)"
       width="96"
       height="96" />
    <use
       x="0"
       y="0"
       xlink:href="#use3308"
       id="use3310"
       transform="translate(0,-6)"
       width="96"
       height="96" />
    <use
       x="0"
       y="0"
       xlink:href="#use3310"
       id="use3312"
       transform="translate(0,-6)"
       width="96"
       height="96" />
    <use
       x="0"
       y="0"
       xlink:href="#use3312"
       id="use3314"
       transform="translate(0,-6)"
       width="96"
       height="96" />
    <use
       x="0"
       y="0"
       xlink:href="#use3314"
       id="use3316"
       transform="translate(0,-6)"
       width="96"
       height="96" />
    <use
       x="0"
       y="0"
       xlink:href="#use3316"
       id="use3318"
       transform="translate(0,-6)"
       width="96"
       height="96" />
    <use
       x="0"
       y="0"
       xlink:href="#use3318"
       id="use3320"
       transform="translate(0,-6)"
       width="96"
       height="96" />
    <path
       id="path3322"
       d="M 74.5,48 C 74.769774,48 75,48.217964 75,48.5 L 75,51.5 C 75,51.782036 74.769771,52 74.5,52 L 73.5,52 C 73.230226,52 73,51.782036 73,51.5 L 73,51 L 71.5,51 C 71.223,51 71,50.777 71,50.5 L 71,49.5 C 71,49.223 71.223,49 71.5,49 L 73,49 L 73,48.5 C 73,48.217964 73.230229,48 73.5,48 L 74.5,48 z"
       style="opacity:1;fill:url(#linearGradient3602);fill-opacity:1;fill-rule:nonzero;stroke:#000000;stroke-width:0.50000000000000000;stroke-linecap:square;stroke-linejoin:miter;stroke-miterlimit:4;stroke-dasharray:none;stroke-dashoffset:0;stroke-opacity:0.56363638999999999" />
    <use
       x="0"
       y="0"
       xlink:href="#path3322"
       id="use3340"
       transform="translate(0,-6)"
       width="96"
       height="96" />
    <use
       x="0"
       y="0"
       xlink:href="#use3340"
       id="use3342"
       transform="translate(0,-6)"
       width="96"
       height="96" />
    <use
       x="0"
       y="0"
       xlink:href="#use3342"
       id="use3344"
       transform="translate(0,-6)"
       width="96"
       height="96" />
    <use
       x="0"
       y="0"
       xlink:href="#use3344"
       id="use3346"
       transform="translate(0,-6)"
       width="96"
       height="96" />
    <use
       x="0"
       y="0"
       xlink:href="#use3346"
       id="use3348"
       transform="translate(0,-6)"
       width="96"
       height="96" />
    <use
       x="0"
       y="0"
       xlink:href="#use3348"
       id="use3350"
       transform="translate(0,-6)"
       width="96"
       height="96" />
    <path
       style="opacity:1;fill:url(#linearGradient3393);fill-opacity:1;fill-rule:nonzero;stroke:none;stroke-width:2;stroke-linecap:square;stroke-linejoin:miter;stroke-miterlimit:4;stroke-dasharray:none;stroke-dashoffset:0;stroke-opacity:1"
       d="M 65,6 L 65,61 C 65,63.202295 66.797705,65 69,65 L 75,65 C 77.202295,65 79,63.202295 79,61 L 79,6 L 78,6 L 78,61 C 78,62.662 76.662,64 75,64 L 69,64 C 67.338,64 66,62.662 66,61 L 66,6 L 65,6 z"
       id="path3376" />
    <path
       sodipodi:type="inkscape:offset"
       inkscape:radius="0.75761443"
       inkscape:original="M 69.5 11.28125 C 68.812859 11.28125 68.28125 11.744572 68.28125 12.34375 L 68.28125 23.15625 C 68.281247 23.755429 68.812863 24.25 69.5 24.25 L 74.5 24.25 C 75.187136 24.25 75.71875 23.755429 75.71875 23.15625 L 75.71875 12.34375 C 75.718748 11.744572 75.187137 11.28125 74.5 11.28125 L 69.5 11.28125 z M 69.8125 18.84375 L 74.1875 18.84375 L 74.1875 22.09375 L 69.8125 22.09375 L 69.8125 18.84375 z "
       style="opacity:1;fill:#000000;fill-opacity:1;fill-rule:nonzero;stroke:#000000;stroke-width:0.49999994;stroke-linecap:square;stroke-linejoin:miter;stroke-miterlimit:4;stroke-dasharray:none;stroke-dashoffset:0;stroke-opacity:0.56363639;filter:url(#filter3429)"
       id="path3433"
       d="M 69.5,10.53125 C 68.472299,10.53125 67.53125,11.296453 67.53125,12.34375 L 67.53125,23.15625 C 67.531245,24.203555 68.449331,25 69.5,25 L 74.5,25 C 75.550668,25 76.46875,24.203552 76.46875,23.15625 L 76.46875,12.34375 C 76.468747,11.296453 75.527699,10.53125 74.5,10.53125 L 69.5,10.53125 z M 70.5625,19.59375 L 73.4375,19.59375 L 73.4375,21.34375 L 70.5625,21.34375 L 70.5625,19.59375 z"
       transform="translate(0,-2)" />
    <path
       style="opacity:1;fill:url(#linearGradient3516);fill-opacity:1;fill-rule:nonzero;stroke:none;stroke-width:0.49999994;stroke-linecap:square;stroke-linejoin:miter;stroke-miterlimit:4;stroke-dasharray:none;stroke-dashoffset:0;stroke-opacity:0.56363639"
       d="M 69.229249,9.021415 C 68.54211,9.021415 68,9.503785 68,10.102963 L 67.994922,20.918451 C 67.994922,21.51763 68.537034,22 69.224171,22 L 74.807392,22 C 75.494531,22 76.036641,21.51763 76.036641,20.918451 L 76.041719,10.102963 C 76.041719,9.503785 75.499607,9.021415 74.81247,9.021415 L 69.229249,9.021415 z M 69.933552,16.971063 L 74.034876,16.971063 L 74.034876,20.089441 L 69.933552,20.089441 L 69.933552,16.971063 z"
       id="rect3403"
       sodipodi:nodetypes="cccccccccccccc" />
    <path
       style="opacity:1;fill:url(#linearGradient3489);fill-opacity:1;fill-rule:nonzero;stroke:none;stroke-width:0.5;stroke-linecap:square;stroke-linejoin:miter;stroke-miterlimit:4;stroke-dasharray:none;stroke-dashoffset:0;stroke-opacity:0.56363639"
       d="M 74.5625,9.96875 C 74.8395,9.96875 75.0625,10.19175 75.0625,10.46875 L 75.0625,20.53125 C 75.0625,20.80825 74.8395,21.03125 74.5625,21.03125 L 69.46875,21.03125 C 69.19175,21.03125 68.968751,20.80825 68.96875,20.53125 L 68.96875,10.46875 C 68.96875,10.19175 69.191751,9.96875 69.46875,9.96875 L 74.5625,9.96875 z M 74.125,16.9375 L 70,16.9375 L 70,20.0625 L 74.125,20.0625 L 74.125,16.9375 z"
       id="rect3470" />
    <rect
       style="opacity:1;fill:url(#linearGradient3530);fill-opacity:1;fill-rule:nonzero;stroke:#000000;stroke-width:1;stroke-linecap:square;stroke-linejoin:miter;stroke-miterlimit:4;stroke-dasharray:none;stroke-dashoffset:0;stroke-opacity:0.56363639"
       id="rect3399"
       width="3.3788073"
       height="5"
       x="70.3106"
       y="7.5"
       rx="0.56313455"
       ry="0.5" />
    <rect
       style="opacity:0.3;fill:#000000;fill-opacity:1;fill-rule:nonzero;stroke:none;stroke-width:0.50000000000000000;stroke-linecap:square;stroke-linejoin:miter;stroke-miterlimit:4;stroke-dasharray:none;stroke-dashoffset:0;stroke-opacity:0.56363638999999999"
       id="rect3518"
       width="4"
       height="1"
       x="69.984634"
       y="16" />
  </g>
</svg>
