<?xml version="1.0" encoding="UTF-8" standalone="no"?>
<!-- Created with Inkscape (http://www.inkscape.org/) -->

<svg
   xmlns:dc="http://purl.org/dc/elements/1.1/"
   xmlns:cc="http://creativecommons.org/ns#"
   xmlns:rdf="http://www.w3.org/1999/02/22-rdf-syntax-ns#"
   xmlns:svg="http://www.w3.org/2000/svg"
   xmlns="http://www.w3.org/2000/svg"
   xmlns:xlink="http://www.w3.org/1999/xlink"
   xmlns:sodipodi="http://sodipodi.sourceforge.net/DTD/sodipodi-0.dtd"
   xmlns:inkscape="http://www.inkscape.org/namespaces/inkscape"
   width="96"
   height="96"
   id="svg2408"
   sodipodi:version="0.32"
   inkscape:version="0.47 r22583"
   version="1.0"
   sodipodi:docname="application-x-rar.svg"
   inkscape:output_extension="org.inkscape.output.svg.inkscape"
   style="display:inline">
  <defs
     id="defs2410">
    <inkscape:perspective
       sodipodi:type="inkscape:persp3d"
       inkscape:vp_x="0 : 48 : 1"
       inkscape:vp_y="0 : 1000 : 0"
       inkscape:vp_z="96 : 48 : 1"
       inkscape:persp3d-origin="48 : 32 : 1"
       id="perspective135" />
    <linearGradient
       id="linearGradient3424">
      <stop
         style="stop-color:#002255;stop-opacity:1"
         offset="0"
         id="stop3426" />
      <stop
         id="stop3428"
         offset="0.2"
         style="stop-color:#2b81ff;stop-opacity:1;" />
      <stop
         style="stop-color:#003380;stop-opacity:0;"
         offset="1"
         id="stop3430" />
    </linearGradient>
    <linearGradient
       id="linearGradient3412">
      <stop
         id="stop3414"
         offset="0"
         style="stop-color:#0d350d;stop-opacity:1;" />
      <stop
         style="stop-color:#66d566;stop-opacity:0.99215686;"
         offset="0.2"
         id="stop3416" />
      <stop
         id="stop3418"
         offset="1"
         style="stop-color:#217821;stop-opacity:0;" />
    </linearGradient>
    <linearGradient
       id="linearGradient3377">
      <stop
         style="stop-color:#461552;stop-opacity:1;"
         offset="0"
         id="stop3379" />
      <stop
         id="stop3381"
         offset="0.2"
         style="stop-color:#e27ffb;stop-opacity:0.88627452;" />
      <stop
         style="stop-color:#892ca0;stop-opacity:0;"
         offset="1"
         id="stop3383" />
    </linearGradient>
    <linearGradient
       id="linearGradient3361">
      <stop
         id="stop3363"
         offset="0"
         style="stop-color:#c978e0;stop-opacity:1;" />
      <stop
         id="stop3365"
         offset="1"
         style="stop-color:#dab4e4;stop-opacity:0;" />
    </linearGradient>
    <linearGradient
       id="linearGradient3305">
      <stop
         id="stop3307"
         offset="0"
         style="stop-color:#6c257e;stop-opacity:1" />
      <stop
         id="stop3309"
         offset="1"
         style="stop-color:#be66d4;stop-opacity:1" />
    </linearGradient>
    <linearGradient
       id="linearGradient3604">
      <stop
         id="stop3606"
         offset="0"
         style="stop-color:#2f2f2f;stop-opacity:1" />
      <stop
         id="stop3608"
         offset="0.43731192"
         style="stop-color:#ffffff;stop-opacity:1" />
      <stop
         style="stop-color:#979797;stop-opacity:1"
         offset="0.62138397"
         id="stop3610" />
      <stop
         id="stop3612"
         offset="0.7723214"
         style="stop-color:#505050;stop-opacity:1;" />
      <stop
         id="stop3614"
         offset="1"
         style="stop-color:#e6e6e6;stop-opacity:1;" />
    </linearGradient>
    <linearGradient
       id="linearGradient3435">
      <stop
         style="stop-color:#ededed;stop-opacity:1;"
         offset="0"
         id="stop3437" />
      <stop
         style="stop-color:#b0b0b0;stop-opacity:1;"
         offset="1"
         id="stop3439" />
    </linearGradient>
    <linearGradient
       id="linearGradient3354">
      <stop
         style="stop-color:#b4b4b4;stop-opacity:1"
         offset="0"
         id="stop3356" />
      <stop
         id="stop3362"
         offset="0.20467032"
         style="stop-color:#646464;stop-opacity:1" />
      <stop
         style="stop-color:#ffffff;stop-opacity:1;"
         offset="0.49567693"
         id="stop3364" />
      <stop
         style="stop-color:#3c3c3c;stop-opacity:1"
         offset="1"
         id="stop3358" />
    </linearGradient>
    <linearGradient
       id="linearGradient3290">
      <stop
         style="stop-color:#ffffff;stop-opacity:1"
         offset="0"
         id="stop3292" />
      <stop
         id="stop3304"
         offset="0.48973215"
         style="stop-color:#8c8c8c;stop-opacity:1;" />
      <stop
         style="stop-color:#cfcfcf;stop-opacity:1;"
         offset="0.50044644"
         id="stop3306" />
      <stop
         id="stop3298"
         offset="0.62276787"
         style="stop-color:#ffffff;stop-opacity:1;" />
      <stop
         style="stop-color:#c8c8c8;stop-opacity:1"
         offset="0.81696427"
         id="stop3300" />
      <stop
         style="stop-color:#505050;stop-opacity:1;"
         offset="1"
         id="stop3294" />
    </linearGradient>
    <linearGradient
       id="linearGradient3236">
      <stop
         id="stop3238"
         offset="0"
         style="stop-color:#000000;stop-opacity:0.75609756;" />
      <stop
         style="stop-color:#ffffff;stop-opacity:0.37398374;"
         offset="0.2"
         id="stop3242" />
      <stop
         id="stop3240"
         offset="1"
         style="stop-color:#161616;stop-opacity:0;" />
    </linearGradient>
    <linearGradient
       id="linearGradient3199">
      <stop
         style="stop-color:#853798;stop-opacity:1;"
         offset="0"
         id="stop3201" />
      <stop
         style="stop-color:#c78bd5;stop-opacity:1;"
         offset="1"
         id="stop3203" />
    </linearGradient>
    <linearGradient
       id="ButtonShadow"
       gradientTransform="scale(1.0058652,0.994169)"
       x1="45.447727"
       y1="92.539597"
       x2="45.447727"
       y2="7.0165396"
       gradientUnits="userSpaceOnUse">
      <stop
         style="stop-color:#000000;stop-opacity:1;"
         offset="0"
         id="stop3750" />
      <stop
         style="stop-color:#000000;stop-opacity:0.58823532;"
         offset="1"
         id="stop3752" />
    </linearGradient>
    <filter
       inkscape:collect="always"
       id="filter3174">
      <feGaussianBlur
         inkscape:collect="always"
         stdDeviation="1.71"
         id="feGaussianBlur3176" />
    </filter>
    <linearGradient
       inkscape:collect="always"
       xlink:href="#linearGradient3361"
       id="linearGradient3220"
       x1="19.035713"
       y1="74"
       x2="87.5"
       y2="27.428572"
       gradientUnits="userSpaceOnUse" />
    <linearGradient
       inkscape:collect="always"
       xlink:href="#linearGradient3236"
       id="linearGradient3246"
       gradientUnits="userSpaceOnUse"
       x1="6"
       y1="73"
       x2="24"
       y2="73"
       gradientTransform="matrix(-1,0,0,1,96,0)" />
    <linearGradient
       inkscape:collect="always"
       xlink:href="#linearGradient3199"
       id="linearGradient3223"
       gradientUnits="userSpaceOnUse"
       x1="38.748035"
       y1="74.004211"
       x2="38.748035"
       y2="5.8331571" />
    <clipPath
       clipPathUnits="userSpaceOnUse"
       id="clipPath3235">
      <path
         id="path3237"
         d="M 66,6 L 66,61 C 66,62.662 67.338,64 69,64 L 75,64 C 76.662,64 78,62.662 78,61 L 78,6 L 74,6 L 74,8 L 70,8 L 70,6 L 66,6 z"
         style="opacity:1;fill:#ffffff;fill-opacity:1;fill-rule:nonzero;stroke:none;stroke-width:2;stroke-linecap:square;stroke-linejoin:miter;stroke-miterlimit:4;stroke-dasharray:none;stroke-dashoffset:0;stroke-opacity:1" />
    </clipPath>
    <filter
       inkscape:collect="always"
       id="filter3243"
       x="-0.16615385"
       width="1.3323077"
       y="-0.036610169"
       height="1.0732203">
      <feGaussianBlur
         inkscape:collect="always"
         stdDeviation="0.9"
         id="feGaussianBlur3245" />
    </filter>
    <linearGradient
       inkscape:collect="always"
       xlink:href="#linearGradient3354"
       id="linearGradient3360"
       x1="68.75"
       y1="59"
       x2="75.25"
       y2="59"
       gradientUnits="userSpaceOnUse"
       gradientTransform="translate(0,-1)" />
    <linearGradient
       inkscape:collect="always"
       xlink:href="#linearGradient3290"
       id="linearGradient3372"
       gradientUnits="userSpaceOnUse"
       x1="69"
       y1="54"
       x2="73"
       y2="54"
       gradientTransform="translate(0,-1)" />
    <linearGradient
       inkscape:collect="always"
       xlink:href="#linearGradient3305"
       id="linearGradient3393"
       x1="63.484772"
       y1="64.163078"
       x2="79"
       y2="65"
       gradientUnits="userSpaceOnUse" />
    <filter
       inkscape:collect="always"
       id="filter3429"
       x="-0.16182839"
       width="1.3236568"
       y="-0.095353599"
       height="1.1907072">
      <feGaussianBlur
         inkscape:collect="always"
         stdDeviation="0.53551312"
         id="feGaussianBlur3431" />
    </filter>
    <linearGradient
       inkscape:collect="always"
       xlink:href="#linearGradient3435"
       id="linearGradient3489"
       x1="68.96875"
       y1="17.5"
       x2="75.0625"
       y2="17.5"
       gradientUnits="userSpaceOnUse"
       gradientTransform="matrix(-1,0,0,1,144.03125,-2)" />
    <linearGradient
       inkscape:collect="always"
       xlink:href="#linearGradient3435"
       id="linearGradient3516"
       gradientUnits="userSpaceOnUse"
       x1="68.029027"
       y1="17.763245"
       x2="75.970968"
       y2="17.763245"
       gradientTransform="translate(0,-2)" />
    <linearGradient
       inkscape:collect="always"
       xlink:href="#linearGradient3354"
       id="linearGradient3530"
       gradientUnits="userSpaceOnUse"
       gradientTransform="matrix(1.1262691,0,0,1,-7.4019692,-49.5)"
       x1="68.75"
       y1="59"
       x2="72.250572"
       y2="59" />
    <linearGradient
       inkscape:collect="always"
       xlink:href="#linearGradient3604"
       id="linearGradient3602"
       gradientUnits="userSpaceOnUse"
       gradientTransform="matrix(-1,0,0,1,144,-4)"
       x1="69"
       y1="54"
       x2="73"
       y2="54" />
    <clipPath
       clipPathUnits="userSpaceOnUse"
       id="clipPath3353">
      <path
         style="opacity:1;fill:#ffffff;fill-opacity:1;fill-rule:nonzero;stroke:none;stroke-width:1;stroke-linecap:square;stroke-linejoin:miter;stroke-miterlimit:4;stroke-dasharray:none;stroke-dashoffset:0;stroke-opacity:1"
         d="M 7.03125,60.09375 C 4.81525,60.09375 3.03125,61.87775 3.03125,64.09375 L 3.03125,109.375 C 3.03125,111.591 4.81525,113.375 7.03125,113.375 L 62.40625,113.375 C 64.62225,113.375 66.406247,111.591 66.40625,109.375 L 66.40625,64.09375 C 66.40625,61.87775 64.622251,60.09375 62.40625,60.09375 L 7.03125,60.09375 z M 18,80 L 22.90625,80 C 23.283603,80.000014 23.62912,80.024778 23.96875,80.0625 C 24.308365,80.10025 24.648184,80.186729 24.9375,80.3125 C 25.239379,80.4383 25.498419,80.604768 25.75,80.84375 C 26.001563,81.070178 26.217562,81.391326 26.40625,81.78125 C 26.720706,82.422771 26.874991,83.107715 26.875,83.875 C 26.87499,84.856141 26.634228,85.670996 26.15625,86.3125 C 25.690833,86.941437 25.036744,87.386013 24.15625,87.625 C 24.558759,87.952049 24.89209,88.316239 25.15625,88.71875 C 25.432971,89.108692 25.679825,89.528504 25.90625,89.96875 L 27.9375,94 L 25.71875,94 C 25.655848,93.874214 25.557184,93.645635 25.40625,93.34375 C 25.255299,93.041864 25.057579,92.721108 24.84375,92.34375 C 24.642485,91.953814 24.426486,91.552676 24.1875,91.125 C 23.961078,90.684752 23.726408,90.252361 23.5,89.875 C 23.273579,89.485068 23.076252,89.164311 22.875,88.875 C 22.673737,88.573118 22.482108,88.363213 22.34375,88.25 C 22.129908,88.073905 21.938674,87.975242 21.75,87.9375 C 21.573895,87.887192 21.333131,87.843755 21.03125,87.84375 L 19.8125,87.84375 L 19.8125,94 L 18,94 L 18,80 z M 33.78125,80 L 35.59375,80 L 40.125,94 L 38.0625,94 L 36.8125,89.875 L 32.6875,89.875 L 31.5,94 L 29.53125,94 L 33.78125,80 z M 42,80 L 46.90625,80 C 47.283603,80.000014 47.660371,80.024778 48,80.0625 C 48.339615,80.10025 48.648186,80.186729 48.9375,80.3125 C 49.239379,80.4383 49.498417,80.604768 49.75,80.84375 C 50.001563,81.070178 50.217564,81.391326 50.40625,81.78125 C 50.720706,82.422771 50.906241,83.107715 50.90625,83.875 C 50.90624,84.856141 50.665478,85.670996 50.1875,86.3125 C 49.722083,86.941437 49.036744,87.386013 48.15625,87.625 C 48.558758,87.952049 48.89209,88.316239 49.15625,88.71875 C 49.432971,89.108692 49.679827,89.528504 49.90625,89.96875 L 51.9375,94 L 49.71875,94 C 49.655848,93.874214 49.557186,93.645635 49.40625,93.34375 C 49.255299,93.041864 49.057579,92.721108 48.84375,92.34375 C 48.642485,91.953814 48.426486,91.552676 48.1875,91.125 C 47.961078,90.684752 47.726408,90.252361 47.5,89.875 C 47.273579,89.485068 47.076252,89.164311 46.875,88.875 C 46.673737,88.573118 46.51336,88.363213 46.375,88.25 C 46.161159,88.073905 45.938672,87.975242 45.75,87.9375 C 45.573895,87.887192 45.333133,87.843755 45.03125,87.84375 L 43.8125,87.84375 L 43.8125,94 L 42,94 L 42,80 z M 19.84375,81.6875 L 19.84375,86.09375 L 22.65625,86.09375 C 23.436118,86.093757 24.0224,85.93338 24.4375,85.59375 C 24.865165,85.241557 25.093742,84.667461 25.09375,83.875 C 25.093742,83.183186 24.914693,82.62737 24.5625,82.25 C 24.210291,81.872654 23.691817,81.687512 23,81.6875 L 19.84375,81.6875 z M 43.84375,81.6875 L 43.84375,86.09375 L 46.65625,86.09375 C 47.436118,86.093757 48.053648,85.93338 48.46875,85.59375 C 48.896415,85.241557 49.093744,84.667461 49.09375,83.875 C 49.093742,83.183186 48.914695,82.62737 48.5625,82.25 C 48.210291,81.872654 47.691817,81.687512 47,81.6875 L 43.84375,81.6875 z M 34.6875,82.84375 C 34.498817,83.74942 34.295399,84.632083 34.03125,85.5 C 33.767095,86.355353 33.482897,87.225833 33.21875,88.09375 L 36.21875,88.09375 C 35.967172,87.225832 35.714224,86.367934 35.4375,85.5 C 35.173344,84.632085 34.913912,83.736841 34.6875,82.84375 z"
         id="path3355" />
    </clipPath>
    <linearGradient
       inkscape:collect="always"
       xlink:href="#linearGradient3236"
       id="linearGradient3369"
       gradientUnits="userSpaceOnUse"
       x1="6"
       y1="73"
       x2="24"
       y2="73"
       gradientTransform="translate(-30,0)" />
    <linearGradient
       inkscape:collect="always"
       xlink:href="#linearGradient3377"
       id="linearGradient3374"
       gradientUnits="userSpaceOnUse"
       x1="6"
       y1="73"
       x2="24"
       y2="73" />
    <linearGradient
       inkscape:collect="always"
       xlink:href="#linearGradient3412"
       id="linearGradient3398"
       gradientUnits="userSpaceOnUse"
       gradientTransform="translate(0,6)"
       x1="6"
       y1="73"
       x2="24"
       y2="73" />
    <linearGradient
       inkscape:collect="always"
       xlink:href="#linearGradient3424"
       id="linearGradient3422"
       gradientUnits="userSpaceOnUse"
       gradientTransform="translate(0,12)"
       x1="6"
       y1="73"
       x2="24"
       y2="73" />
    <linearGradient
       inkscape:collect="always"
       xlink:href="#linearGradient3424"
       id="linearGradient3452"
       gradientUnits="userSpaceOnUse"
       gradientTransform="translate(0,12)"
       x1="6"
       y1="73"
       x2="24"
       y2="73" />
    <linearGradient
       inkscape:collect="always"
       xlink:href="#linearGradient3412"
       id="linearGradient3454"
       gradientUnits="userSpaceOnUse"
       gradientTransform="translate(0,6)"
       x1="6"
       y1="73"
       x2="24"
       y2="73" />
    <linearGradient
       inkscape:collect="always"
       xlink:href="#linearGradient3377"
       id="linearGradient3456"
       gradientUnits="userSpaceOnUse"
       x1="6"
       y1="73"
       x2="24"
       y2="73" />
    <inkscape:perspective
       id="perspective3719"
       inkscape:persp3d-origin="0.5 : 0.33333333 : 1"
       inkscape:vp_z="1 : 0.5 : 1"
       inkscape:vp_y="0 : 1000 : 0"
       inkscape:vp_x="0 : 0.5 : 1"
       sodipodi:type="inkscape:persp3d" />
    <linearGradient
       y2="90.238609"
       x2="32.251034"
       y1="6.1317081"
       x1="32.251034"
       gradientTransform="matrix(1.0238095,0,0,1.0119048,-1.1428571,-98.071429)"
       gradientUnits="userSpaceOnUse"
       id="linearGradient3026"
       xlink:href="#ButtonShadow-0"
       inkscape:collect="always" />
    <linearGradient
       id="ButtonShadow-0"
       gradientTransform="matrix(1.0058652,0,0,0.994169,100,0)"
       x1="45.447727"
       y1="92.539597"
       x2="45.447727"
       y2="7.0165396"
       gradientUnits="userSpaceOnUse">
      <stop
         style="stop-color:#000000;stop-opacity:1;"
         offset="0"
         id="stop3750-8" />
      <stop
         style="stop-color:#000000;stop-opacity:0.58823532;"
         offset="1"
         id="stop3752-5" />
    </linearGradient>
    <linearGradient
       inkscape:collect="always"
       xlink:href="#ButtonShadow-0"
       id="linearGradient3780"
       gradientUnits="userSpaceOnUse"
       gradientTransform="matrix(1.0238095,0,0,1.0119048,-1.1428571,-98.071429)"
       x1="32.251034"
       y1="6.1317081"
       x2="32.251034"
       y2="90.238609" />
    <linearGradient
       id="linearGradient3728"
       gradientTransform="matrix(1.0058652,0,0,0.994169,100,0)"
       x1="45.447727"
       y1="92.539597"
       x2="45.447727"
       y2="7.0165396"
       gradientUnits="userSpaceOnUse">
      <stop
         style="stop-color:#000000;stop-opacity:1;"
         offset="0"
         id="stop3730" />
      <stop
         style="stop-color:#000000;stop-opacity:0.58823532;"
         offset="1"
         id="stop3732" />
    </linearGradient>
    <linearGradient
       inkscape:collect="always"
       xlink:href="#ButtonShadow-0"
       id="linearGradient3772"
       gradientUnits="userSpaceOnUse"
       gradientTransform="matrix(1.0238095,0,0,1.0119048,-1.1428571,-98.071429)"
       x1="32.251034"
       y1="6.1317081"
       x2="32.251034"
       y2="90.238609" />
    <linearGradient
       id="linearGradient3735"
       gradientTransform="matrix(1.0058652,0,0,0.994169,100,0)"
       x1="45.447727"
       y1="92.539597"
       x2="45.447727"
       y2="7.0165396"
       gradientUnits="userSpaceOnUse">
      <stop
         style="stop-color:#000000;stop-opacity:1;"
         offset="0"
         id="stop3737" />
      <stop
         style="stop-color:#000000;stop-opacity:0.58823532;"
         offset="1"
         id="stop3739" />
    </linearGradient>
    <linearGradient
       inkscape:collect="always"
       xlink:href="#ButtonShadow-0"
       id="linearGradient3725"
       gradientUnits="userSpaceOnUse"
       gradientTransform="matrix(1.0238095,0,0,1.0119048,-1.1428571,-98.071429)"
       x1="32.251034"
       y1="6.1317081"
       x2="32.251034"
       y2="90.238609" />
    <linearGradient
       id="linearGradient3742"
       gradientTransform="matrix(1.0058652,0,0,0.994169,100,0)"
       x1="45.447727"
       y1="92.539597"
       x2="45.447727"
       y2="7.0165396"
       gradientUnits="userSpaceOnUse">
      <stop
         style="stop-color:#000000;stop-opacity:1;"
         offset="0"
         id="stop3744" />
      <stop
         style="stop-color:#000000;stop-opacity:0.58823532;"
         offset="1"
         id="stop3746" />
    </linearGradient>
    <linearGradient
       inkscape:collect="always"
       xlink:href="#ButtonShadow-0"
       id="linearGradient3721"
       gradientUnits="userSpaceOnUse"
       gradientTransform="translate(0,-97)"
       x1="32.251034"
       y1="6.1317081"
       x2="32.251034"
       y2="90.238609" />
    <linearGradient
       id="linearGradient3749"
       gradientTransform="matrix(1.0058652,0,0,0.994169,100,0)"
       x1="45.447727"
       y1="92.539597"
       x2="45.447727"
       y2="7.0165396"
       gradientUnits="userSpaceOnUse">
      <stop
         style="stop-color:#000000;stop-opacity:1;"
         offset="0"
         id="stop3751" />
      <stop
         style="stop-color:#000000;stop-opacity:0.58823532;"
         offset="1"
         id="stop3753" />
    </linearGradient>
    <linearGradient
       y2="90.238609"
       x2="32.251034"
       y1="6.1317081"
       x1="32.251034"
       gradientTransform="matrix(1.0238095,0,0,1.0119048,-1.1428571,-98.071429)"
       gradientUnits="userSpaceOnUse"
       id="linearGradient3760"
       xlink:href="#ButtonShadow-0"
       inkscape:collect="always" />
  </defs>
  <sodipodi:namedview
     id="base"
     pagecolor="#ffffff"
     bordercolor="#666666"
     borderopacity="1.0"
     inkscape:pageopacity="0.0"
     inkscape:pageshadow="2"
     inkscape:zoom="8.4651065"
     inkscape:cx="45.184195"
     inkscape:cy="31.117049"
     inkscape:document-units="px"
     inkscape:current-layer="layer3"
     showgrid="true"
     showborder="true"
     inkscape:showpageshadow="false"
     inkscape:window-width="1920"
     inkscape:window-height="1023"
     inkscape:window-x="0"
     inkscape:window-y="24"
     inkscape:window-maximized="1">
    <inkscape:grid
       type="xygrid"
       id="grid3732"
       visible="true"
       enabled="true" />
  </sodipodi:namedview>
  <metadata
     id="metadata2413">
    <rdf:RDF>
      <cc:Work
         rdf:about="">
        <dc:format>image/svg+xml</dc:format>
        <dc:type
           rdf:resource="http://purl.org/dc/dcmitype/StillImage" />
      </cc:Work>
    </rdf:RDF>
  </metadata>
  <g
     inkscape:groupmode="layer"
     id="layer2"
     inkscape:label="Blur Shadow"
     sodipodi:insensitive="true"
     style="display:none">
    <rect
       style="opacity:0.9;fill:url(#ButtonShadow);fill-opacity:1;fill-rule:nonzero;stroke:none;filter:url(#filter3174)"
       id="rect3745"
       width="86"
       height="85"
       x="5"
       y="7"
       rx="6"
       ry="6" />
  </g>
  <g
     inkscape:groupmode="layer"
     id="layer7"
     inkscape:label="Shadow"
     style="display:inline"
     sodipodi:insensitive="true">
    <path
       sodipodi:type="inkscape:offset"
       inkscape:radius="0.99097413"
       inkscape:original="M 12 -94.03125 C 7.028367 -94.03125 2.96875 -89.971633 2.96875 -85 L 2.96875 -14 C 2.96875 -9.0283671 7.0283671 -4.96875 12 -4.96875 L 84 -4.96875 C 88.971633 -4.96875 93.03125 -9.028367 93.03125 -14 L 93.03125 -85 C 93.03125 -89.971633 88.971633 -94.03125 84 -94.03125 L 12 -94.03125 z "
       style="opacity:0.07999998;fill:url(#linearGradient3760);fill-opacity:1;fill-rule:nonzero;stroke:none;display:inline"
       id="path3786"
       d="m 12,-95.03125 c -5.5110903,0 -10.03125,4.52016 -10.03125,10.03125 l 0,71 c 0,5.5110902 4.5201598,10.03125 10.03125,10.03125 l 72,0 c 5.51109,0 10.03125,-4.5201597 10.03125,-10.03125 l 0,-71 c 0,-5.51109 -4.52016,-10.03125 -10.03125,-10.03125 l -72,0 z"
       transform="scale(1,-1)" />
    <path
       sodipodi:type="inkscape:offset"
       inkscape:radius="1.0360184"
       inkscape:original="M 12 -93 C 7.5908667 -93 4 -89.409133 4 -85 L 4 -14 C 4 -9.5908667 7.5908667 -6 12 -6 L 84 -6 C 88.409133 -6 92 -9.5908667 92 -14 L 92 -85 C 92 -89.409133 88.409133 -93 84 -93 L 12 -93 z "
       style="opacity:0.1;fill:url(#linearGradient3780);fill-opacity:1;fill-rule:nonzero;stroke:none;display:inline"
       id="path3778"
       d="m 12,-94.03125 c -4.971633,0 -9.03125,4.059617 -9.03125,9.03125 l 0,71 c 0,4.9716329 4.0596171,9.03125 9.03125,9.03125 l 72,0 c 4.971633,0 9.03125,-4.059617 9.03125,-9.03125 l 0,-71 c 0,-4.971633 -4.059617,-9.03125 -9.03125,-9.03125 l -72,0 z"
       transform="scale(1,-1)" />
    <path
       sodipodi:type="inkscape:offset"
       inkscape:radius="0.98962283"
       inkscape:original="M 12 -92 C 8.122 -92 5 -88.878 5 -85 L 5 -14 C 5 -10.122 8.122 -7 12 -7 L 84 -7 C 87.878 -7 91 -10.122 91 -14 L 91 -85 C 91 -88.878 87.878 -92 84 -92 L 12 -92 z "
       style="opacity:0.2;fill:url(#linearGradient3772);fill-opacity:1;fill-rule:nonzero;stroke:none;display:inline"
       id="path3770"
       d="m 12,-93 c -4.4091333,0 -8,3.590867 -8,8 l 0,71 c 0,4.4091333 3.5908667,8 8,8 l 72,0 c 4.409133,0 8,-3.5908667 8,-8 l 0,-71 c 0,-4.409133 -3.590867,-8 -8,-8 l -72,0 z"
       transform="scale(1,-1)" />
    <rect
       style="opacity:0.3;fill:url(#linearGradient3725);fill-opacity:1;fill-rule:nonzero;stroke:none;display:inline"
       id="rect3723"
       width="86"
       height="85"
       x="5"
       y="-92"
       rx="7"
       ry="7"
       transform="scale(1,-1)" />
    <rect
       transform="scale(1,-1)"
       ry="6"
       rx="6"
       y="-91"
       x="6"
       height="84"
       width="84"
       id="rect3716"
       style="opacity:0.45;fill:url(#linearGradient3721);fill-opacity:1;fill-rule:nonzero;stroke:none;display:inline" />
  </g>
  <g
     inkscape:label="Button"
     inkscape:groupmode="layer"
     id="layer1"
     style="display:inline"
     sodipodi:insensitive="true">
    <path
       style="fill:#235299;fill-opacity:1;fill-rule:nonzero;stroke:none"
       d="m 12,18 c -3.324,0 -6,2.676 -6,6 l 0,60 c 0,3.324 2.676,6 6,6 l 72,0 c 3.324,0 6,-2.676 6,-6 l 0,-60 c 0,-3.324 -2.676,-6 -6,-6 l -9,0 0,3 -6,0 0,-3 -57,0 z"
       id="path3303"
       sodipodi:nodetypes="ccccccccccccc" />
    <path
       sodipodi:nodetypes="ccccccccccccc"
       id="path3301"
       d="m 12,12 c -3.324,0 -6,2.676 -6,6 l 0,60 c 0,3.324 2.676,6 6,6 l 72,0 c 3.324,0 6,-2.676 6,-6 l 0,-60 c 0,-3.324 -2.676,-6 -6,-6 l -9,0 0,3 -6,0 0,-3 -57,0 z"
       style="fill:#217821;fill-opacity:1;fill-rule:nonzero;stroke:none" />
    <path
       style="fill:#892ca0;fill-opacity:1;fill-rule:nonzero;stroke:none"
       d="M 12,6 C 8.676,6 6,8.676 6,12 l 0,60 c 0,3.324 2.676,6 6,6 l 72,0 c 3.324,0 6,-2.676 6,-6 L 90,12 C 90,8.676 87.324,6 84,6 l -9,0 0,3 -6,0 0,-3 -57,0 z"
       id="rect2419"
       sodipodi:nodetypes="ccccccccccccc" />
    <g
       id="g3444"
       transform="matrix(-1,0,0,1,96,0)">
      <path
         id="path3446"
         d="m 6,78 0,6 c 0,3.324 2.676,6 6,6 l 12,0 0,-6 -12,0 C 8.676,84 6,81.324 6,78 z"
         style="fill:url(#linearGradient3452);fill-opacity:1;fill-rule:nonzero;stroke:none" />
      <path
         style="fill:url(#linearGradient3454);fill-opacity:1;fill-rule:nonzero;stroke:none"
         d="m 6,72 0,6 c 0,3.324 2.676,6 6,6 l 12,0 0,-6 -12,0 C 8.676,78 6,75.324 6,72 z"
         id="path3448" />
      <path
         style="fill:url(#linearGradient3456);fill-opacity:1;fill-rule:nonzero;stroke:none"
         d="m 6,56 0,16 c 0,3.324 2.676,6 6,6 l 12,0 0,-22 -18,0 z"
         id="path3450" />
    </g>
    <g
       id="g3432">
      <path
         style="fill:url(#linearGradient3422);fill-opacity:1;fill-rule:nonzero;stroke:none"
         d="m 6,78 0,6 c 0,3.324 2.676,6 6,6 l 12,0 0,-6 -12,0 C 8.676,84 6,81.324 6,78 z"
         id="path3420" />
      <path
         id="path3385"
         d="m 6,72 0,6 c 0,3.324 2.676,6 6,6 l 12,0 0,-6 -12,0 C 8.676,78 6,75.324 6,72 z"
         style="fill:url(#linearGradient3398);fill-opacity:1;fill-rule:nonzero;stroke:none" />
      <path
         id="rect3222"
         d="m 6,56 0,16 c 0,3.324 2.676,6 6,6 l 12,0 0,-22 -18,0 z"
         style="fill:url(#linearGradient3374);fill-opacity:1;fill-rule:nonzero;stroke:none" />
    </g>
    <path
       style="opacity:0.5;fill:#081323;fill-opacity:1;fill-rule:nonzero;stroke:none"
       d="m 6,82 0,2 c 0,3.324 2.676,6 6,6 l 72,0 c 3.324,0 6,-2.676 6,-6 l 0,-2 c 0,3.324 -2.676,6 -6,6 L 12,88 C 8.676,88 6,85.324 6,82 z"
       id="rect2412" />
    <path
       id="path3187"
       d="m 6,78 0,2 c 0,3.324 2.676,6 6,6 l 72,0 c 3.324,0 6,-2.676 6,-6 l 0,-2 c 0,3.324 -2.676,6 -6,6 L 12,84 C 8.676,84 6,81.324 6,78 z"
       style="opacity:0.3;fill:#ffffff;fill-opacity:1;fill-rule:nonzero;stroke:none" />
    <path
       id="path3189"
       d="m 6,76 0,2 c 0,3.324 2.676,6 6,6 l 72,0 c 3.324,0 6,-2.676 6,-6 l 0,-2 c 0,3.324 -2.676,6 -6,6 L 12,82 C 8.676,82 6,79.324 6,76 z"
       style="opacity:0.5;fill:#0b280b;fill-opacity:1;fill-rule:nonzero;stroke:none" />
    <path
       style="opacity:0.3;fill:#ffffff;fill-opacity:1;fill-rule:nonzero;stroke:none"
       d="m 6,72 0,2 c 0,3.324 2.676,6 6,6 l 72,0 c 3.324,0 6,-2.676 6,-6 l 0,-2 c 0,3.324 -2.676,6 -6,6 L 12,78 C 8.676,78 6,75.324 6,72 z"
       id="path3191" />
    <path
       style="opacity:0.5;fill:#210e26;fill-opacity:1;fill-rule:nonzero;stroke:none"
       d="m 6,70 0,2 c 0,3.324 2.676,6 6,6 l 72,0 c 3.324,0 6,-2.676 6,-6 l 0,-2 c 0,3.324 -2.676,6 -6,6 L 12,76 C 8.676,76 6,73.324 6,70 z"
       id="path3193" />
    <path
       style="fill:url(#linearGradient3223);fill-opacity:1;fill-rule:nonzero;stroke:none"
       d="M 12,6 C 8.676,6 6,8.676 6,12 l 0,56 c 0,3.324 2.676,6 6,6 l 72,0 c 3.324,0 6,-2.676 6,-6 L 90,12 C 90,8.676 87.324,6 84,6 l -9,0 0,3 -6,0 0,-3 -57,0 z"
       id="rect3195" />
    <path
       style="fill:url(#linearGradient3220);fill-opacity:1;fill-rule:nonzero;stroke:none"
       d="M 12,6 C 8.676,6 6,8.676 6,12 l 0,56 c 0,3.324 2.676,6 6,6 l 72,0 c 3.324,0 6,-2.676 6,-6 L 90,12 C 90,8.676 87.324,6 84,6 l -9,0 0,2 9,0 c 2.245802,0 4,1.7541975 4,4 l 0,56 c 0,2.245802 -1.754198,4 -4,4 L 12,72 C 9.7541975,72 8,70.245802 8,68 L 8,12 C 8,9.7541975 9.7541975,8 12,8 L 69,8 69,6 12,6 z"
       id="rect3207" />
  </g>
  <g
     inkscape:groupmode="layer"
     id="layer3"
     inkscape:label="Zip">
    <path
       id="path3742"
       d="m 18,80 0,14 1.8125,0 0,-6.15625 1.21875,0 c 0.301881,5e-6 0.542645,0.04344 0.71875,0.09375 0.188674,0.03774 0.379908,0.136405 0.59375,0.3125 0.138358,0.113213 0.329987,0.323118 0.53125,0.625 0.201252,0.289311 0.398579,0.610068 0.625,1 0.226408,0.377361 0.461078,0.809752 0.6875,1.25 0.238986,0.427676 0.454985,0.828814 0.65625,1.21875 0.213829,0.377358 0.411549,0.698114 0.5625,1 0.150934,0.301885 0.249598,0.530464 0.3125,0.65625 l 2.21875,0 -2.03125,-4.03125 c -0.226425,-0.440246 -0.473279,-0.860058 -0.75,-1.25 -0.26416,-0.402511 -0.597491,-0.766701 -1,-1.09375 0.880494,-0.238987 1.534583,-0.683563 2,-1.3125 0.477978,-0.641504 0.71874,-1.456359 0.71875,-2.4375 -9e-6,-0.767285 -0.154294,-1.452229 -0.46875,-2.09375 C 26.217562,81.391326 26.001563,81.070178 25.75,80.84375 25.498419,80.604768 25.239379,80.4383 24.9375,80.3125 24.648184,80.186729 24.308365,80.10025 23.96875,80.0625 23.62912,80.024778 23.283603,80.000014 22.90625,80 L 18,80 z m 15.78125,0 -4.25,14 1.96875,0 1.1875,-4.125 4.125,0 1.25,4.125 2.0625,0 -4.53125,-14 -1.8125,0 z M 42,80 l 0,14 1.8125,0 0,-6.15625 1.21875,0 c 0.301883,5e-6 0.542645,0.04344 0.71875,0.09375 0.188672,0.03774 0.411159,0.136405 0.625,0.3125 0.13836,0.113213 0.298737,0.323118 0.5,0.625 0.201252,0.289311 0.398579,0.610068 0.625,1 0.226408,0.377361 0.461078,0.809752 0.6875,1.25 0.238986,0.427676 0.454985,0.828814 0.65625,1.21875 0.213829,0.377358 0.411549,0.698114 0.5625,1 0.150936,0.301885 0.249598,0.530464 0.3125,0.65625 l 2.21875,0 -2.03125,-4.03125 c -0.226423,-0.440246 -0.473279,-0.860058 -0.75,-1.25 -0.26416,-0.402511 -0.597492,-0.766701 -1,-1.09375 0.880494,-0.238987 1.565833,-0.683563 2.03125,-1.3125 0.477978,-0.641504 0.71874,-1.456359 0.71875,-2.4375 -9e-6,-0.767285 -0.185544,-1.452229 -0.5,-2.09375 C 50.217564,81.391326 50.001563,81.070178 49.75,80.84375 49.498417,80.604768 49.239379,80.4383 48.9375,80.3125 48.648186,80.186729 48.339615,80.10025 48,80.0625 47.660371,80.024778 47.283603,80.000014 46.90625,80 L 42,80 z m -22.15625,1.6875 3.15625,0 c 0.691817,1.2e-5 1.210291,0.185154 1.5625,0.5625 0.352193,0.37737 0.531242,0.933186 0.53125,1.625 -8e-6,0.792461 -0.228585,1.366557 -0.65625,1.71875 -0.4151,0.33963 -1.001382,0.500007 -1.78125,0.5 l -2.8125,0 0,-4.40625 z m 24,0 3.15625,0 c 0.691817,1.2e-5 1.210291,0.185154 1.5625,0.5625 0.352195,0.37737 0.531242,0.933186 0.53125,1.625 -6e-6,0.792461 -0.197335,1.366557 -0.625,1.71875 -0.415102,0.33963 -1.032632,0.500007 -1.8125,0.5 l -2.8125,0 0,-4.40625 z m -9.15625,1.15625 c 0.226412,0.893091 0.485844,1.788335 0.75,2.65625 0.276724,0.867934 0.529672,1.725832 0.78125,2.59375 l -3,0 c 0.264147,-0.867917 0.548345,-1.738397 0.8125,-2.59375 0.264149,-0.867917 0.467567,-1.75058 0.65625,-2.65625 z"
       style="font-size:18.86792373999999839px;font-style:normal;font-variant:normal;font-weight:bold;font-stretch:normal;text-align:start;line-height:120.00000476999998966%;writing-mode:lr-tb;text-anchor:start;opacity:0.05;fill:none;stroke:#ffffff;stroke-width:6;stroke-linecap:butt;stroke-linejoin:miter;stroke-opacity:1;font-family:BabelSans;-inkscape-font-specification:BabelSans Bold;stroke-miterlimit:4;stroke-dasharray:none"
       clip-path="url(#clipPath3353)"
       transform="translate(0,-30)" />
    <path
       transform="translate(0,-30)"
       clip-path="url(#clipPath3353)"
       style="font-size:18.86792373999999839px;font-style:normal;font-variant:normal;font-weight:bold;font-stretch:normal;text-align:start;line-height:120.00000476999998966%;writing-mode:lr-tb;text-anchor:start;opacity:0.08;fill:none;stroke:#ffffff;stroke-width:4;stroke-linecap:butt;stroke-linejoin:miter;stroke-opacity:1;font-family:BabelSans;-inkscape-font-specification:BabelSans Bold;stroke-miterlimit:4;stroke-dasharray:none"
       d="m 18,80 0,14 1.8125,0 0,-6.15625 1.21875,0 c 0.301881,5e-6 0.542645,0.04344 0.71875,0.09375 0.188674,0.03774 0.379908,0.136405 0.59375,0.3125 0.138358,0.113213 0.329987,0.323118 0.53125,0.625 0.201252,0.289311 0.398579,0.610068 0.625,1 0.226408,0.377361 0.461078,0.809752 0.6875,1.25 0.238986,0.427676 0.454985,0.828814 0.65625,1.21875 0.213829,0.377358 0.411549,0.698114 0.5625,1 0.150934,0.301885 0.249598,0.530464 0.3125,0.65625 l 2.21875,0 -2.03125,-4.03125 c -0.226425,-0.440246 -0.473279,-0.860058 -0.75,-1.25 -0.26416,-0.402511 -0.597491,-0.766701 -1,-1.09375 0.880494,-0.238987 1.534583,-0.683563 2,-1.3125 0.477978,-0.641504 0.71874,-1.456359 0.71875,-2.4375 -9e-6,-0.767285 -0.154294,-1.452229 -0.46875,-2.09375 C 26.217562,81.391326 26.001563,81.070178 25.75,80.84375 25.498419,80.604768 25.239379,80.4383 24.9375,80.3125 24.648184,80.186729 24.308365,80.10025 23.96875,80.0625 23.62912,80.024778 23.283603,80.000014 22.90625,80 L 18,80 z m 15.78125,0 -4.25,14 1.96875,0 1.1875,-4.125 4.125,0 1.25,4.125 2.0625,0 -4.53125,-14 -1.8125,0 z M 42,80 l 0,14 1.8125,0 0,-6.15625 1.21875,0 c 0.301883,5e-6 0.542645,0.04344 0.71875,0.09375 0.188672,0.03774 0.411159,0.136405 0.625,0.3125 0.13836,0.113213 0.298737,0.323118 0.5,0.625 0.201252,0.289311 0.398579,0.610068 0.625,1 0.226408,0.377361 0.461078,0.809752 0.6875,1.25 0.238986,0.427676 0.454985,0.828814 0.65625,1.21875 0.213829,0.377358 0.411549,0.698114 0.5625,1 0.150936,0.301885 0.249598,0.530464 0.3125,0.65625 l 2.21875,0 -2.03125,-4.03125 c -0.226423,-0.440246 -0.473279,-0.860058 -0.75,-1.25 -0.26416,-0.402511 -0.597492,-0.766701 -1,-1.09375 0.880494,-0.238987 1.565833,-0.683563 2.03125,-1.3125 0.477978,-0.641504 0.71874,-1.456359 0.71875,-2.4375 -9e-6,-0.767285 -0.185544,-1.452229 -0.5,-2.09375 C 50.217564,81.391326 50.001563,81.070178 49.75,80.84375 49.498417,80.604768 49.239379,80.4383 48.9375,80.3125 48.648186,80.186729 48.339615,80.10025 48,80.0625 47.660371,80.024778 47.283603,80.000014 46.90625,80 L 42,80 z m -22.15625,1.6875 3.15625,0 c 0.691817,1.2e-5 1.210291,0.185154 1.5625,0.5625 0.352193,0.37737 0.531242,0.933186 0.53125,1.625 -8e-6,0.792461 -0.228585,1.366557 -0.65625,1.71875 -0.4151,0.33963 -1.001382,0.500007 -1.78125,0.5 l -2.8125,0 0,-4.40625 z m 24,0 3.15625,0 c 0.691817,1.2e-5 1.210291,0.185154 1.5625,0.5625 0.352195,0.37737 0.531242,0.933186 0.53125,1.625 -6e-6,0.792461 -0.197335,1.366557 -0.625,1.71875 -0.415102,0.33963 -1.032632,0.500007 -1.8125,0.5 l -2.8125,0 0,-4.40625 z m -9.15625,1.15625 c 0.226412,0.893091 0.485844,1.788335 0.75,2.65625 0.276724,0.867934 0.529672,1.725832 0.78125,2.59375 l -3,0 c 0.264147,-0.867917 0.548345,-1.738397 0.8125,-2.59375 0.264149,-0.867917 0.467567,-1.75058 0.65625,-2.65625 z"
       id="path3740" />
    <path
       id="path3346"
       d="m 18,80 0,14 1.8125,0 0,-6.15625 1.21875,0 c 0.301881,5e-6 0.542645,0.04344 0.71875,0.09375 0.188674,0.03774 0.379908,0.136405 0.59375,0.3125 0.138358,0.113213 0.329987,0.323118 0.53125,0.625 0.201252,0.289311 0.398579,0.610068 0.625,1 0.226408,0.377361 0.461078,0.809752 0.6875,1.25 0.238986,0.427676 0.454985,0.828814 0.65625,1.21875 0.213829,0.377358 0.411549,0.698114 0.5625,1 0.150934,0.301885 0.249598,0.530464 0.3125,0.65625 l 2.21875,0 -2.03125,-4.03125 c -0.226425,-0.440246 -0.473279,-0.860058 -0.75,-1.25 -0.26416,-0.402511 -0.597491,-0.766701 -1,-1.09375 0.880494,-0.238987 1.534583,-0.683563 2,-1.3125 0.477978,-0.641504 0.71874,-1.456359 0.71875,-2.4375 -9e-6,-0.767285 -0.154294,-1.452229 -0.46875,-2.09375 C 26.217562,81.391326 26.001563,81.070178 25.75,80.84375 25.498419,80.604768 25.239379,80.4383 24.9375,80.3125 24.648184,80.186729 24.308365,80.10025 23.96875,80.0625 23.62912,80.024778 23.283603,80.000014 22.90625,80 L 18,80 z m 15.78125,0 -4.25,14 1.96875,0 1.1875,-4.125 4.125,0 1.25,4.125 2.0625,0 -4.53125,-14 -1.8125,0 z M 42,80 l 0,14 1.8125,0 0,-6.15625 1.21875,0 c 0.301883,5e-6 0.542645,0.04344 0.71875,0.09375 0.188672,0.03774 0.411159,0.136405 0.625,0.3125 0.13836,0.113213 0.298737,0.323118 0.5,0.625 0.201252,0.289311 0.398579,0.610068 0.625,1 0.226408,0.377361 0.461078,0.809752 0.6875,1.25 0.238986,0.427676 0.454985,0.828814 0.65625,1.21875 0.213829,0.377358 0.411549,0.698114 0.5625,1 0.150936,0.301885 0.249598,0.530464 0.3125,0.65625 l 2.21875,0 -2.03125,-4.03125 c -0.226423,-0.440246 -0.473279,-0.860058 -0.75,-1.25 -0.26416,-0.402511 -0.597492,-0.766701 -1,-1.09375 0.880494,-0.238987 1.565833,-0.683563 2.03125,-1.3125 0.477978,-0.641504 0.71874,-1.456359 0.71875,-2.4375 -9e-6,-0.767285 -0.185544,-1.452229 -0.5,-2.09375 C 50.217564,81.391326 50.001563,81.070178 49.75,80.84375 49.498417,80.604768 49.239379,80.4383 48.9375,80.3125 48.648186,80.186729 48.339615,80.10025 48,80.0625 47.660371,80.024778 47.283603,80.000014 46.90625,80 L 42,80 z m -22.15625,1.6875 3.15625,0 c 0.691817,1.2e-5 1.210291,0.185154 1.5625,0.5625 0.352193,0.37737 0.531242,0.933186 0.53125,1.625 -8e-6,0.792461 -0.228585,1.366557 -0.65625,1.71875 -0.4151,0.33963 -1.001382,0.500007 -1.78125,0.5 l -2.8125,0 0,-4.40625 z m 24,0 3.15625,0 c 0.691817,1.2e-5 1.210291,0.185154 1.5625,0.5625 0.352195,0.37737 0.531242,0.933186 0.53125,1.625 -6e-6,0.792461 -0.197335,1.366557 -0.625,1.71875 -0.415102,0.33963 -1.032632,0.500007 -1.8125,0.5 l -2.8125,0 0,-4.40625 z m -9.15625,1.15625 c 0.226412,0.893091 0.485844,1.788335 0.75,2.65625 0.276724,0.867934 0.529672,1.725832 0.78125,2.59375 l -3,0 c 0.264147,-0.867917 0.548345,-1.738397 0.8125,-2.59375 0.264149,-0.867917 0.467567,-1.75058 0.65625,-2.65625 z"
       style="font-size:18.86792373999999839px;font-style:normal;font-variant:normal;font-weight:bold;font-stretch:normal;text-align:start;line-height:120.00000476999998966%;writing-mode:lr-tb;text-anchor:start;opacity:0.15;fill:none;stroke:#ffffff;stroke-width:2;stroke-linecap:butt;stroke-linejoin:miter;stroke-opacity:1;font-family:BabelSans;-inkscape-font-specification:BabelSans Bold;stroke-miterlimit:4;stroke-dasharray:none"
       clip-path="url(#clipPath3353)"
       transform="translate(0,-30)" />
    <path
       style="fill:#252525;fill-opacity:1;fill-rule:nonzero;stroke:none"
       d="m 66,6 0,55 c 0,1.662 1.338,3 3,3 l 6,0 c 1.662,0 3,-1.338 3,-3 l 0,-55 -4,0 0,2 -4,0 0,-2 -4,0 z"
       id="rect3201" />
    <rect
       style="fill:#4d4d4d;fill-opacity:1;fill-rule:nonzero;stroke:none"
       id="rect3247"
       width="4"
       height="49"
       x="70"
       y="8" />
    <rect
       style="fill:url(#linearGradient3360);fill-opacity:1;fill-rule:nonzero;stroke:#000000;stroke-width:0.5;stroke-linecap:square;stroke-linejoin:miter;stroke-miterlimit:4;stroke-opacity:0.56363639;stroke-dasharray:none;stroke-dashoffset:0"
       id="rect3211"
       width="6"
       height="4"
       x="69"
       y="56"
       rx="1"
       ry="1" />
    <path
       id="path3231"
       d="m 66,6 0,55 c 0,1.662 1.338,3 3,3 l 6,0 c 1.662,0 3,-1.338 3,-3 l 0,-55 -4,0 0,2 -4,0 0,-2 -4,0 z"
       style="fill:none;stroke:#000000;stroke-width:2;stroke-linecap:square;stroke-linejoin:miter;stroke-miterlimit:4;stroke-opacity:1;stroke-dasharray:none;stroke-dashoffset:0;filter:url(#filter3243)"
       clip-path="url(#clipPath3235)" />
    <path
       style="fill:url(#linearGradient3372);fill-opacity:1;fill-rule:nonzero;stroke:#000000;stroke-width:0.5;stroke-linecap:square;stroke-linejoin:miter;stroke-miterlimit:4;stroke-opacity:0.56363639;stroke-dasharray:none;stroke-dashoffset:0"
       d="M 69.5,51 C 69.230226,51 69,51.217964 69,51.5 l 0,3 c 0,0.282036 0.230229,0.5 0.5,0.5 l 1,0 c 0.269774,0 0.5,-0.217964 0.5,-0.5 l 0,-0.5 1.5,0 c 0.277,0 0.5,-0.223 0.5,-0.5 l 0,-1 C 73,52.223 72.777,52 72.5,52 L 71,52 71,51.5 C 71,51.217964 70.769771,51 70.5,51 l -1,0 z"
       id="rect3249" />
    <use
       x="0"
       y="0"
       xlink:href="#rect3249"
       id="use3308"
       transform="translate(0,-6)"
       width="96"
       height="96" />
    <use
       x="0"
       y="0"
       xlink:href="#use3308"
       id="use3310"
       transform="translate(0,-6)"
       width="96"
       height="96" />
    <use
       x="0"
       y="0"
       xlink:href="#use3310"
       id="use3312"
       transform="translate(0,-6)"
       width="96"
       height="96" />
    <use
       x="0"
       y="0"
       xlink:href="#use3312"
       id="use3314"
       transform="translate(0,-6)"
       width="96"
       height="96" />
    <use
       x="0"
       y="0"
       xlink:href="#use3314"
       id="use3316"
       transform="translate(0,-6)"
       width="96"
       height="96" />
    <use
       x="0"
       y="0"
       xlink:href="#use3316"
       id="use3318"
       transform="translate(0,-6)"
       width="96"
       height="96" />
    <use
       x="0"
       y="0"
       xlink:href="#use3318"
       id="use3320"
       transform="translate(0,-6)"
       width="96"
       height="96" />
    <path
       id="path3322"
       d="m 74.5,48 c 0.269774,0 0.5,0.217964 0.5,0.5 l 0,3 c 0,0.282036 -0.230229,0.5 -0.5,0.5 l -1,0 C 73.230226,52 73,51.782036 73,51.5 L 73,51 71.5,51 C 71.223,51 71,50.777 71,50.5 l 0,-1 C 71,49.223 71.223,49 71.5,49 l 1.5,0 0,-0.5 C 73,48.217964 73.230229,48 73.5,48 l 1,0 z"
       style="fill:url(#linearGradient3602);fill-opacity:1;fill-rule:nonzero;stroke:#000000;stroke-width:0.5;stroke-linecap:square;stroke-linejoin:miter;stroke-miterlimit:4;stroke-opacity:0.56363639;stroke-dasharray:none;stroke-dashoffset:0" />
    <use
       x="0"
       y="0"
       xlink:href="#path3322"
       id="use3340"
       transform="translate(0,-6)"
       width="96"
       height="96" />
    <use
       x="0"
       y="0"
       xlink:href="#use3340"
       id="use3342"
       transform="translate(0,-6)"
       width="96"
       height="96" />
    <use
       x="0"
       y="0"
       xlink:href="#use3342"
       id="use3344"
       transform="translate(0,-6)"
       width="96"
       height="96" />
    <use
       x="0"
       y="0"
       xlink:href="#use3344"
       id="use3346"
       transform="translate(0,-6)"
       width="96"
       height="96" />
    <use
       x="0"
       y="0"
       xlink:href="#use3346"
       id="use3348"
       transform="translate(0,-6)"
       width="96"
       height="96" />
    <use
       x="0"
       y="0"
       xlink:href="#use3348"
       id="use3350"
       transform="translate(0,-6)"
       width="96"
       height="96" />
    <path
       style="fill:url(#linearGradient3393);fill-opacity:1;fill-rule:nonzero;stroke:none"
       d="m 65,6 0,55 c 0,2.202295 1.797705,4 4,4 l 6,0 c 2.202295,0 4,-1.797705 4,-4 l 0,-55 -1,0 0,55 c 0,1.662 -1.338,3 -3,3 l -6,0 c -1.662,0 -3,-1.338 -3,-3 L 66,6 65,6 z"
       id="path3376" />
    <path
       sodipodi:type="inkscape:offset"
       inkscape:radius="0.75761443"
       inkscape:original="M 69.5 11.28125 C 68.812859 11.28125 68.28125 11.744572 68.28125 12.34375 L 68.28125 23.15625 C 68.281247 23.755429 68.812863 24.25 69.5 24.25 L 74.5 24.25 C 75.187136 24.25 75.71875 23.755429 75.71875 23.15625 L 75.71875 12.34375 C 75.718748 11.744572 75.187137 11.28125 74.5 11.28125 L 69.5 11.28125 z M 69.8125 18.84375 L 74.1875 18.84375 L 74.1875 22.09375 L 69.8125 22.09375 L 69.8125 18.84375 z "
       style="fill:#000000;fill-opacity:1;fill-rule:nonzero;stroke:#000000;stroke-width:0.49999994;stroke-linecap:square;stroke-linejoin:miter;stroke-miterlimit:4;stroke-opacity:0.56363639;stroke-dasharray:none;stroke-dashoffset:0;filter:url(#filter3429)"
       id="path3433"
       d="m 69.5,10.53125 c -1.027701,0 -1.96875,0.765203 -1.96875,1.8125 l 0,10.8125 C 67.531245,24.203555 68.449331,25 69.5,25 l 5,0 c 1.050668,0 1.96875,-0.796448 1.96875,-1.84375 l 0,-10.8125 c -3e-6,-1.047297 -0.941051,-1.8125 -1.96875,-1.8125 l -5,0 z m 1.0625,9.0625 2.875,0 0,1.75 -2.875,0 0,-1.75 z"
       transform="translate(0,-2)" />
    <path
       style="fill:url(#linearGradient3516);fill-opacity:1;fill-rule:nonzero;stroke:none"
       d="M 69.229249,9.021415 C 68.54211,9.021415 68,9.503785 68,10.102963 L 67.9949,20.918451 C 67.994922,21.51763 68.537034,22 69.224171,22 l 5.583221,0 c 0.687139,0 1.229249,-0.48237 1.229249,-1.081549 l 0.0051,-10.815488 c 0,-0.599178 -0.542112,-1.081548 -1.229249,-1.081548 l -5.583221,0 z m 0.704303,7.949648 4.101324,0 0,3.118378 -4.101324,0 0,-3.118378 z"
       id="rect3403"
       sodipodi:nodetypes="cccccccccccccc" />
    <path
       style="fill:url(#linearGradient3489);fill-opacity:1;fill-rule:nonzero;stroke:none"
       d="m 74.5625,9.96875 c 0.277,0 0.5,0.223 0.5,0.5 l 0,10.0625 c 0,0.277 -0.223,0.5 -0.5,0.5 l -5.09375,0 c -0.277,0 -0.499999,-0.223 -0.5,-0.5 l 0,-10.0625 c 0,-0.277 0.223001,-0.5 0.5,-0.5 l 5.09375,0 z m -0.4375,6.96875 -4.125,0 0,3.125 4.125,0 0,-3.125 z"
       id="rect3470" />
    <rect
       style="fill:url(#linearGradient3530);fill-opacity:1;fill-rule:nonzero;stroke:#000000;stroke-width:1;stroke-linecap:square;stroke-linejoin:miter;stroke-miterlimit:4;stroke-opacity:0.56363639;stroke-dasharray:none;stroke-dashoffset:0"
       id="rect3399"
       width="3.3788073"
       height="5"
       x="70.3106"
       y="7.5"
       rx="0.56313455"
       ry="0.5" />
    <rect
       style="opacity:0.3;fill:#000000;fill-opacity:1;fill-rule:nonzero;stroke:none"
       id="rect3518"
       width="4"
       height="1"
       x="69.984634"
       y="16" />
    <path
       style="font-size:18.86792374px;font-style:normal;font-variant:normal;font-weight:bold;font-stretch:normal;text-align:start;line-height:120.00000477%;writing-mode:lr-tb;text-anchor:start;fill:#43134e;fill-opacity:1;stroke:none;font-family:BabelSans;-inkscape-font-specification:BabelSans Bold"
       d="m 18,50 0,14 1.8125,0 0,-6.15625 1.21875,0 c 0.301881,5e-6 0.542645,0.04344 0.71875,0.09375 0.188674,0.03774 0.379908,0.136405 0.59375,0.3125 0.138358,0.113213 0.329987,0.323118 0.53125,0.625 0.201252,0.289311 0.398579,0.610068 0.625,1 0.226408,0.377361 0.461078,0.809752 0.6875,1.25 0.238986,0.427676 0.454985,0.828814 0.65625,1.21875 0.213829,0.377358 0.411549,0.698114 0.5625,1 0.150934,0.301885 0.249598,0.530464 0.3125,0.65625 l 2.21875,0 -2.03125,-4.03125 c -0.226425,-0.440246 -0.473279,-0.860058 -0.75,-1.25 -0.26416,-0.402511 -0.597491,-0.766701 -1,-1.09375 0.880494,-0.238987 1.534583,-0.683563 2,-1.3125 0.477978,-0.641504 0.71874,-1.456359 0.71875,-2.4375 -9e-6,-0.767285 -0.154294,-1.452229 -0.46875,-2.09375 C 26.217562,51.391326 26.001563,51.070178 25.75,50.84375 25.498419,50.604768 25.239379,50.4383 24.9375,50.3125 24.648184,50.186729 24.308365,50.10025 23.96875,50.0625 23.62912,50.024778 23.283603,50.000014 22.90625,50 L 18,50 z m 15.78125,0 -4.25,14 1.96875,0 1.1875,-4.125 4.125,0 1.25,4.125 2.0625,0 -4.53125,-14 -1.8125,0 z M 42,50 l 0,14 1.8125,0 0,-6.15625 1.21875,0 c 0.301883,5e-6 0.542645,0.04344 0.71875,0.09375 0.188672,0.03774 0.411159,0.136405 0.625,0.3125 0.13836,0.113213 0.298737,0.323118 0.5,0.625 0.201252,0.289311 0.398579,0.610068 0.625,1 0.226408,0.377361 0.461078,0.809752 0.6875,1.25 0.238986,0.427676 0.454985,0.828814 0.65625,1.21875 0.213829,0.377358 0.411549,0.698114 0.5625,1 0.150936,0.301885 0.249598,0.530464 0.3125,0.65625 l 2.21875,0 -2.03125,-4.03125 c -0.226423,-0.440246 -0.473279,-0.860058 -0.75,-1.25 -0.26416,-0.402511 -0.597492,-0.766701 -1,-1.09375 0.880494,-0.238987 1.565833,-0.683563 2.03125,-1.3125 0.477978,-0.641504 0.71874,-1.456359 0.71875,-2.4375 -9e-6,-0.767285 -0.185544,-1.452229 -0.5,-2.09375 C 50.217564,51.391326 50.001563,51.070178 49.75,50.84375 49.498417,50.604768 49.239379,50.4383 48.9375,50.3125 48.648186,50.186729 48.339615,50.10025 48,50.0625 47.660371,50.024778 47.283603,50.000014 46.90625,50 L 42,50 z m -22.15625,1.6875 3.15625,0 c 0.691817,1.2e-5 1.210291,0.185154 1.5625,0.5625 0.352193,0.37737 0.531242,0.933186 0.53125,1.625 -8e-6,0.792461 -0.228585,1.366557 -0.65625,1.71875 -0.4151,0.33963 -1.001382,0.500007 -1.78125,0.5 l -2.8125,0 0,-4.40625 z m 24,0 3.15625,0 c 0.691817,1.2e-5 1.210291,0.185154 1.5625,0.5625 0.352195,0.37737 0.531242,0.933186 0.53125,1.625 -6e-6,0.792461 -0.197335,1.366557 -0.625,1.71875 -0.415102,0.33963 -1.032632,0.500007 -1.8125,0.5 l -2.8125,0 0,-4.40625 z m -9.15625,1.15625 c 0.226412,0.893091 0.485844,1.788335 0.75,2.65625 0.276724,0.867934 0.529672,1.725832 0.78125,2.59375 l -3,0 c 0.264147,-0.867917 0.548345,-1.738397 0.8125,-2.59375 0.264149,-0.867917 0.467567,-1.75058 0.65625,-2.65625 z"
       id="path3335" />
    <path
       style="font-size:18.86792374px;font-style:normal;font-variant:normal;font-weight:bold;font-stretch:normal;text-align:start;line-height:120.00000477%;writing-mode:lr-tb;text-anchor:start;opacity:0.4;fill:#000000;fill-opacity:1;stroke:none;font-family:BabelSans;-inkscape-font-specification:BabelSans Bold"
       d="m 18,50 0,1 4.90625,0 c 0.377353,1.4e-5 0.72287,0.02478 1.0625,0.0625 0.339615,0.03775 0.679434,0.124229 0.96875,0.25 0.301879,0.1258 0.560919,0.292268 0.8125,0.53125 0.251563,0.226428 0.467562,0.547576 0.65625,0.9375 0.235842,0.481141 0.379363,0.98484 0.4375,1.53125 0.01117,-0.14174 0.03125,-0.288015 0.03125,-0.4375 -9e-6,-0.767285 -0.154294,-1.452229 -0.46875,-2.09375 C 26.217562,51.391326 26.001563,51.070178 25.75,50.84375 25.498419,50.604768 25.239379,50.4383 24.9375,50.3125 24.648184,50.186729 24.308365,50.10025 23.96875,50.0625 23.62912,50.024778 23.283603,50.000014 22.90625,50 L 18,50 z m 15.78125,0 -4.25,14 0.3125,0 3.9375,-13 1.8125,0 4.21875,13 0.3125,0 -4.53125,-14 -1.8125,0 z M 42,50 l 0,1 4.90625,0 c 0.377353,1.4e-5 0.754121,0.02478 1.09375,0.0625 0.339615,0.03775 0.648186,0.124229 0.9375,0.25 0.301879,0.1258 0.560917,0.292268 0.8125,0.53125 0.251563,0.226428 0.467564,0.547576 0.65625,0.9375 0.235842,0.481141 0.401824,0.98484 0.46875,1.53125 0.01117,-0.14174 0.03125,-0.288015 0.03125,-0.4375 -9e-6,-0.767285 -0.185544,-1.452229 -0.5,-2.09375 C 50.217564,51.391326 50.001563,51.070178 49.75,50.84375 49.498417,50.604768 49.239379,50.4383 48.9375,50.3125 48.648186,50.186729 48.339615,50.10025 48,50.0625 47.660371,50.024778 47.283603,50.000014 46.90625,50 L 42,50 z m -16.9375,4.4375 c -0.08434,0.512293 -0.304251,0.892105 -0.625,1.15625 -0.4151,0.33963 -1.001382,0.500007 -1.78125,0.5 l -2.8125,0 0,1 2.8125,0 c 0.779868,7e-6 1.36615,-0.16037 1.78125,-0.5 0.427665,-0.352193 0.656242,-0.926289 0.65625,-1.71875 -2e-6,-0.151418 -0.01416,-0.299557 -0.03125,-0.4375 z m 24,0 c -0.07555,0.512293 -0.273001,0.892105 -0.59375,1.15625 -0.415102,0.33963 -1.032632,0.500007 -1.8125,0.5 l -2.8125,0 0,1 2.8125,0 c 0.779868,7e-6 1.397398,-0.16037 1.8125,-0.5 0.427665,-0.352193 0.624994,-0.926289 0.625,-1.71875 -2e-6,-0.151418 -0.01416,-0.299557 -0.03125,-0.4375 z m -15.53125,3.65625 c -0.10548,0.334295 -0.210682,0.665453 -0.3125,1 l 3,0 c -0.0973,-0.335663 -0.213498,-0.666175 -0.3125,-1 l -2.375,0 z m -8.65625,0.25 c -0.222318,0.106512 -0.457576,0.210361 -0.71875,0.28125 0.402509,0.327049 0.73584,0.691239 1,1.09375 0.276721,0.389942 0.523575,0.809754 0.75,1.25 L 27.4375,64 l 0.5,0 -2.03125,-4.03125 c -0.226425,-0.440246 -0.473279,-0.860058 -0.75,-1.25 -0.08687,-0.132364 -0.179421,-0.250882 -0.28125,-0.375 z m 24,0 c -0.226186,0.106512 -0.457576,0.210361 -0.71875,0.28125 0.402508,0.327049 0.73584,0.691239 1,1.09375 0.276721,0.389942 0.523577,0.809754 0.75,1.25 L 51.4375,64 l 0.5,0 -2.03125,-4.03125 c -0.226423,-0.440246 -0.473279,-0.860058 -0.75,-1.25 -0.08687,-0.132364 -0.179421,-0.250882 -0.28125,-0.375 z"
       id="path3341" />
  </g>
</svg>
