<?xml version="1.0" encoding="UTF-8" standalone="no"?>
<!-- Created with Inkscape (http://www.inkscape.org/) -->

<svg
   xmlns:dc="http://purl.org/dc/elements/1.1/"
   xmlns:cc="http://creativecommons.org/ns#"
   xmlns:rdf="http://www.w3.org/1999/02/22-rdf-syntax-ns#"
   xmlns:svg="http://www.w3.org/2000/svg"
   xmlns="http://www.w3.org/2000/svg"
   xmlns:xlink="http://www.w3.org/1999/xlink"
   xmlns:sodipodi="http://sodipodi.sourceforge.net/DTD/sodipodi-0.dtd"
   xmlns:inkscape="http://www.inkscape.org/namespaces/inkscape"
   width="96"
   height="96"
   id="svg2408"
   sodipodi:version="0.32"
   inkscape:version="0.48.1 r9760"
   version="1.0"
   sodipodi:docname="authors.svg"
   inkscape:output_extension="org.inkscape.output.svg.inkscape"
   style="display:inline">
  <defs
     id="defs2410">
    <linearGradient
       id="linearGradient3210">
      <stop
         style="stop-color:#ffffff;stop-opacity:0.39024389;"
         offset="0"
         id="stop3212" />
      <stop
         style="stop-color:#000000;stop-opacity:0.2682927;"
         offset="1"
         id="stop3214" />
    </linearGradient>
    <linearGradient
       id="linearGradient3174">
      <stop
         style="stop-color:#c30000;stop-opacity:1;"
         offset="0"
         id="stop3176" />
      <stop
         style="stop-color:#f12300;stop-opacity:1;"
         offset="1"
         id="stop3178" />
    </linearGradient>
    <linearGradient
       id="ButtonShadow"
       gradientTransform="scale(1.0058652,0.994169)"
       x1="45.447727"
       y1="92.539597"
       x2="45.447727"
       y2="7.0165396"
       gradientUnits="userSpaceOnUse">
      <stop
         style="stop-color:#000000;stop-opacity:1;"
         offset="0"
         id="stop3750" />
      <stop
         style="stop-color:#000000;stop-opacity:0.58823532;"
         offset="1"
         id="stop3752" />
    </linearGradient>
    <linearGradient
       inkscape:collect="always"
       id="linearGradient3737">
      <stop
         style="stop-color:#ffffff;stop-opacity:1;"
         offset="0"
         id="stop3739" />
      <stop
         style="stop-color:#ffffff;stop-opacity:0;"
         offset="1"
         id="stop3741" />
    </linearGradient>
    <linearGradient
       id="linearGradient3700">
      <stop
         style="stop-color:#e6e6e6;stop-opacity:1;"
         offset="0"
         id="stop3702" />
      <stop
         style="stop-color:#f5f5f5;stop-opacity:1;"
         offset="1"
         id="stop3704" />
    </linearGradient>
    <inkscape:perspective
       sodipodi:type="inkscape:persp3d"
       inkscape:vp_x="0 : 526.18109 : 1"
       inkscape:vp_y="0 : 1000 : 0"
       inkscape:vp_z="744.09448 : 526.18109 : 1"
       inkscape:persp3d-origin="372.04724 : 350.78739 : 1"
       id="perspective2416" />
    <linearGradient
       inkscape:collect="always"
       xlink:href="#linearGradient3700"
       id="linearGradient3706"
       x1="48"
       y1="90"
       x2="48"
       y2="5.9877172"
       gradientUnits="userSpaceOnUse" />
    <linearGradient
       inkscape:collect="always"
       xlink:href="#linearGradient3737"
       id="linearGradient3743"
       x1="36.357143"
       y1="6"
       x2="36.357143"
       y2="63.893143"
       gradientUnits="userSpaceOnUse" />
    <filter
       inkscape:collect="always"
       id="filter3174"
       color-interpolation-filters="sRGB">
      <feGaussianBlur
         inkscape:collect="always"
         stdDeviation="1.71"
         id="feGaussianBlur3176" />
    </filter>
    <linearGradient
       inkscape:collect="always"
       xlink:href="#linearGradient3737"
       id="linearGradient3188"
       gradientUnits="userSpaceOnUse"
       x1="36.357143"
       y1="6"
       x2="36.357143"
       y2="63.893143" />
    <linearGradient
       inkscape:collect="always"
       xlink:href="#linearGradient3174"
       id="linearGradient3180"
       x1="48"
       y1="84"
       x2="48"
       y2="12"
       gradientUnits="userSpaceOnUse" />
    <linearGradient
       inkscape:collect="always"
       xlink:href="#ButtonShadow"
       id="linearGradient3195"
       x1="49.142857"
       y1="84"
       x2="49.142857"
       y2="11.990931"
       gradientUnits="userSpaceOnUse"
       gradientTransform="translate(0,1)" />
    <linearGradient
       inkscape:collect="always"
       xlink:href="#linearGradient3210"
       id="linearGradient3216"
       x1="12"
       y1="48"
       x2="84"
       y2="48"
       gradientUnits="userSpaceOnUse"
       gradientTransform="matrix(0,1,-1,0,96,0)" />
    <inkscape:perspective
       id="perspective3719"
       inkscape:persp3d-origin="0.5 : 0.33333333 : 1"
       inkscape:vp_z="1 : 0.5 : 1"
       inkscape:vp_y="0 : 1000 : 0"
       inkscape:vp_x="0 : 0.5 : 1"
       sodipodi:type="inkscape:persp3d" />
    <linearGradient
       y2="90.238609"
       x2="32.251034"
       y1="6.1317081"
       x1="32.251034"
       gradientTransform="matrix(1.0238095,0,0,1.0119048,-1.1428571,-98.071429)"
       gradientUnits="userSpaceOnUse"
       id="linearGradient3026"
       xlink:href="#ButtonShadow-0"
       inkscape:collect="always" />
    <linearGradient
       id="ButtonShadow-0"
       gradientTransform="matrix(1.0058652,0,0,0.994169,100,0)"
       x1="45.447727"
       y1="92.539597"
       x2="45.447727"
       y2="7.0165396"
       gradientUnits="userSpaceOnUse">
      <stop
         style="stop-color:#000000;stop-opacity:1;"
         offset="0"
         id="stop3750-8" />
      <stop
         style="stop-color:#000000;stop-opacity:0.58823532;"
         offset="1"
         id="stop3752-5" />
    </linearGradient>
    <linearGradient
       inkscape:collect="always"
       xlink:href="#ButtonShadow-0"
       id="linearGradient3780"
       gradientUnits="userSpaceOnUse"
       gradientTransform="matrix(1.0238095,0,0,1.0119048,-1.1428571,-98.071429)"
       x1="32.251034"
       y1="6.1317081"
       x2="32.251034"
       y2="90.238609" />
    <linearGradient
       id="linearGradient3728"
       gradientTransform="matrix(1.0058652,0,0,0.994169,100,0)"
       x1="45.447727"
       y1="92.539597"
       x2="45.447727"
       y2="7.0165396"
       gradientUnits="userSpaceOnUse">
      <stop
         style="stop-color:#000000;stop-opacity:1;"
         offset="0"
         id="stop3730" />
      <stop
         style="stop-color:#000000;stop-opacity:0.58823532;"
         offset="1"
         id="stop3732" />
    </linearGradient>
    <linearGradient
       inkscape:collect="always"
       xlink:href="#ButtonShadow-0"
       id="linearGradient3772"
       gradientUnits="userSpaceOnUse"
       gradientTransform="matrix(1.0238095,0,0,1.0119048,-1.1428571,-98.071429)"
       x1="32.251034"
       y1="6.1317081"
       x2="32.251034"
       y2="90.238609" />
    <linearGradient
       id="linearGradient3735"
       gradientTransform="matrix(1.0058652,0,0,0.994169,100,0)"
       x1="45.447727"
       y1="92.539597"
       x2="45.447727"
       y2="7.0165396"
       gradientUnits="userSpaceOnUse">
      <stop
         style="stop-color:#000000;stop-opacity:1;"
         offset="0"
         id="stop3737" />
      <stop
         style="stop-color:#000000;stop-opacity:0.58823532;"
         offset="1"
         id="stop3739-1" />
    </linearGradient>
    <linearGradient
       inkscape:collect="always"
       xlink:href="#ButtonShadow-0"
       id="linearGradient3725"
       gradientUnits="userSpaceOnUse"
       gradientTransform="matrix(1.0238095,0,0,1.0119048,-1.1428571,-98.071429)"
       x1="32.251034"
       y1="6.1317081"
       x2="32.251034"
       y2="90.238609" />
    <linearGradient
       id="linearGradient3742"
       gradientTransform="matrix(1.0058652,0,0,0.994169,100,0)"
       x1="45.447727"
       y1="92.539597"
       x2="45.447727"
       y2="7.0165396"
       gradientUnits="userSpaceOnUse">
      <stop
         style="stop-color:#000000;stop-opacity:1;"
         offset="0"
         id="stop3744" />
      <stop
         style="stop-color:#000000;stop-opacity:0.58823532;"
         offset="1"
         id="stop3746" />
    </linearGradient>
    <linearGradient
       inkscape:collect="always"
       xlink:href="#ButtonShadow-0"
       id="linearGradient3721"
       gradientUnits="userSpaceOnUse"
       gradientTransform="translate(0,-97)"
       x1="32.251034"
       y1="6.1317081"
       x2="32.251034"
       y2="90.238609" />
    <linearGradient
       id="linearGradient3749"
       gradientTransform="matrix(1.0058652,0,0,0.994169,100,0)"
       x1="45.447727"
       y1="92.539597"
       x2="45.447727"
       y2="7.0165396"
       gradientUnits="userSpaceOnUse">
      <stop
         style="stop-color:#000000;stop-opacity:1;"
         offset="0"
         id="stop3751" />
      <stop
         style="stop-color:#000000;stop-opacity:0.58823532;"
         offset="1"
         id="stop3753" />
    </linearGradient>
    <linearGradient
       y2="90.238609"
       x2="32.251034"
       y1="6.1317081"
       x1="32.251034"
       gradientTransform="matrix(1.0238095,0,0,1.0119048,-1.1428571,-98.071429)"
       gradientUnits="userSpaceOnUse"
       id="linearGradient3760"
       xlink:href="#ButtonShadow-0"
       inkscape:collect="always" />
    <inkscape:perspective
       id="perspective3909"
       inkscape:persp3d-origin="0.5 : 0.33333333 : 1"
       inkscape:vp_z="1 : 0.5 : 1"
       inkscape:vp_y="0 : 1000 : 0"
       inkscape:vp_x="0 : 0.5 : 1"
       sodipodi:type="inkscape:persp3d" />
    <linearGradient
       inkscape:collect="always"
       xlink:href="#linearGradient3737-1"
       id="linearGradient3188-7"
       gradientUnits="userSpaceOnUse"
       x1="36.357143"
       y1="6"
       x2="36.357143"
       y2="63.893143" />
    <linearGradient
       inkscape:collect="always"
       id="linearGradient3737-1">
      <stop
         style="stop-color:#ffffff;stop-opacity:1;"
         offset="0"
         id="stop3739-9" />
      <stop
         style="stop-color:#ffffff;stop-opacity:0;"
         offset="1"
         id="stop3741-3" />
    </linearGradient>
    <radialGradient
       r="42"
       fy="90.171875"
       fx="48"
       cy="90.171875"
       cx="48"
       gradientTransform="matrix(1.1573129,0,0,0.99590774,-7.551021,0.1971319)"
       gradientUnits="userSpaceOnUse"
       id="radialGradient2886"
       xlink:href="#linearGradient3737-0"
       inkscape:collect="always" />
    <linearGradient
       inkscape:collect="always"
       id="linearGradient3737-0">
      <stop
         style="stop-color:#ffffff;stop-opacity:1;"
         offset="0"
         id="stop3739-6" />
      <stop
         style="stop-color:#ffffff;stop-opacity:0;"
         offset="1"
         id="stop3741-0" />
    </linearGradient>
    <linearGradient
       y2="63.893143"
       x2="36.357143"
       y1="6"
       x1="36.357143"
       gradientUnits="userSpaceOnUse"
       id="linearGradient3923"
       xlink:href="#linearGradient3737-1"
       inkscape:collect="always" />
    <inkscape:perspective
       id="perspective3819"
       inkscape:persp3d-origin="0.5 : 0.33333333 : 1"
       inkscape:vp_z="1 : 0.5 : 1"
       inkscape:vp_y="0 : 1000 : 0"
       inkscape:vp_x="0 : 0.5 : 1"
       sodipodi:type="inkscape:persp3d" />
    <inkscape:perspective
       id="perspective3151"
       inkscape:persp3d-origin="0.5 : 0.33333333 : 1"
       inkscape:vp_z="1 : 0.5 : 1"
       inkscape:vp_y="0 : 1000 : 0"
       inkscape:vp_x="0 : 0.5 : 1"
       sodipodi:type="inkscape:persp3d" />
    <inkscape:perspective
       id="perspective2913"
       inkscape:persp3d-origin="0.5 : 0.33333333 : 1"
       inkscape:vp_z="1 : 0.5 : 1"
       inkscape:vp_y="0 : 1000 : 0"
       inkscape:vp_x="0 : 0.5 : 1"
       sodipodi:type="inkscape:persp3d" />
    <linearGradient
       y2="26.413651"
       x2="71.671646"
       y1="62.025059"
       x1="71.671646"
       gradientTransform="matrix(1.3333333,0,0,1.3333333,-50.401545,-11.129853)"
       gradientUnits="userSpaceOnUse"
       id="linearGradient2937"
       xlink:href="#linearGradient3697"
       inkscape:collect="always" />
    <linearGradient
       id="linearGradient3697">
      <stop
         style="stop-color:#bababa;stop-opacity:1;"
         offset="0"
         id="stop3699" />
      <stop
         style="stop-color:#d2d2d2;stop-opacity:1;"
         offset="1"
         id="stop3701" />
    </linearGradient>
    <linearGradient
       y2="26.413651"
       x2="71.671646"
       y1="62.025059"
       x1="71.671646"
       gradientTransform="matrix(1.3333333,0,0,1.3333333,-82.401545,-3.129853)"
       gradientUnits="userSpaceOnUse"
       id="linearGradient2922"
       xlink:href="#linearGradient3697"
       inkscape:collect="always" />
    <linearGradient
       inkscape:collect="always"
       xlink:href="#linearGradient3697"
       id="linearGradient3713"
       x1="56"
       y1="72"
       x2="56"
       y2="24"
       gradientUnits="userSpaceOnUse"
       gradientTransform="translate(0,90)" />
    <linearGradient
       inkscape:collect="always"
       xlink:href="#linearGradient3697"
       id="linearGradient3717"
       gradientUnits="userSpaceOnUse"
       x1="56"
       y1="72"
       x2="56"
       y2="24"
       gradientTransform="translate(0,1)" />
    <linearGradient
       inkscape:collect="always"
       xlink:href="#linearGradient3697"
       id="linearGradient3722"
       gradientUnits="userSpaceOnUse"
       x1="56"
       y1="72"
       x2="56"
       y2="24" />
    <linearGradient
       inkscape:collect="always"
       xlink:href="#linearGradient3697"
       id="linearGradient3729"
       gradientUnits="userSpaceOnUse"
       x1="56"
       y1="72"
       x2="56"
       y2="24"
       gradientTransform="translate(0,1)" />
    <linearGradient
       inkscape:collect="always"
       xlink:href="#linearGradient3697"
       id="linearGradient3731"
       gradientUnits="userSpaceOnUse"
       x1="56"
       y1="72"
       x2="56"
       y2="24" />
    <linearGradient
       inkscape:collect="always"
       xlink:href="#linearGradient3697"
       id="linearGradient3736"
       gradientUnits="userSpaceOnUse"
       x1="56"
       y1="72"
       x2="56"
       y2="24"
       gradientTransform="translate(-100,0)" />
    <clipPath
       clipPathUnits="userSpaceOnUse"
       id="clipPath3743">
      <path
         style="fill:#ff00ff;fill-opacity:1;fill-rule:nonzero;stroke:none"
         d="m -88,6 c -3.324,0 -6,2.676 -6,6 l 0,72 c 0,3.324 2.676,6 6,6 l 72,0 c 3.324,0 6,-2.676 6,-6 l 0,-72 c 0,-3.324 -2.676,-6 -6,-6 l -72,0 z m 36,18 c 5.344692,0 9.687507,3.992831 9.6875,8.9375 -0.02133,0.621424 -0.07398,1.335406 -0.125,2.0625 0.730245,0.543315 0.778989,2.170384 0.0625,3.84375 -0.258603,0.603976 -0.555928,1.075565 -0.90625,1.5 -0.113311,0.524949 -0.197851,0.951157 -0.34375,1.5625 -0.396974,1.180487 -1.938671,3.498551 -3.125,5.3125 -0.07646,1.206398 -0.0877,2.400163 0.0625,3.625 3.709677,3.197549 13.39093,4.950832 13.40625,7.6875 L -32,66.84375 c 0,1.679322 -2.544846,3.197858 -6.53125,4.25 l -0.6875,2.375 A 1.4052899,1.3929762 0 0 1 -40.0625,74.375 c -0.18137,0.06953 -0.315419,0.200704 -0.8125,0.34375 C -43.493482,75.472297 -47.516862,76 -52,76 c -4.483138,0 -8.475268,-0.527703 -11.09375,-1.28125 -0.497081,-0.143046 -0.631128,-0.27418 -0.8125,-0.34375 a 1.4052899,1.3929762 0 0 1 -0.875,-0.9375 l -0.5625,-2.28125 C -69.429991,70.102441 -72,68.547059 -72,66.84375 l 1.28125,-8.3125 c -0.0144,-3.197542 9.588017,-4.598837 13.34375,-7.6875 0.261803,-1.513002 0.255123,-2.826115 0.125,-4.15625 -1.304823,-1.724246 -2.766418,-3.714925 -3.125,-4.78125 -0.11575,-0.525153 -0.18554,-0.878183 -0.28125,-1.34375 -0.01345,-0.01457 -0.04914,-0.04755 -0.0625,-0.0625 -0.400969,-0.447139 -0.802819,-0.976777 -1.09375,-1.65625 -0.754478,-1.762097 -0.627089,-3.521792 0.21875,-3.96875 -0.05944,-0.70484 -0.08077,-1.339582 -0.09375,-1.90625 C -61.6875,28.02408 -57.344692,24 -52,24 z"
         id="path3745" />
    </clipPath>
    <filter
       inkscape:collect="always"
       id="filter3747"
       x="-0.16559999"
       width="1.3312"
       y="-0.12738462"
       height="1.2547692">
      <feGaussianBlur
         inkscape:collect="always"
         stdDeviation="2.7599998"
         id="feGaussianBlur3749" />
    </filter>
    <inkscape:perspective
       id="perspective4039"
       inkscape:persp3d-origin="0.5 : 0.33333333 : 1"
       inkscape:vp_z="1 : 0.5 : 1"
       inkscape:vp_y="0 : 1000 : 0"
       inkscape:vp_x="0 : 0.5 : 1"
       sodipodi:type="inkscape:persp3d" />
    <linearGradient
       y2="138.66119"
       x2="48"
       y1="20.220806"
       x1="48"
       gradientUnits="userSpaceOnUse"
       id="linearGradient2890"
       xlink:href="#linearGradient3737-9"
       inkscape:collect="always" />
    <linearGradient
       inkscape:collect="always"
       id="linearGradient3737-9">
      <stop
         style="stop-color:#ffffff;stop-opacity:1;"
         offset="0"
         id="stop3739-2" />
      <stop
         style="stop-color:#ffffff;stop-opacity:0;"
         offset="1"
         id="stop3741-1" />
    </linearGradient>
    <clipPath
       clipPathUnits="userSpaceOnUse"
       id="clipPath3613">
      <rect
         ry="6"
         rx="6"
         y="6"
         x="6"
         height="84"
         width="84"
         id="rect3615"
         style="fill:#ffffff;fill-opacity:1;fill-rule:nonzero;stroke:none" />
    </clipPath>
    <filter
       color-interpolation-filters="sRGB"
       inkscape:collect="always"
       id="filter3794"
       x="-0.192"
       width="1.3839999"
       y="-0.192"
       height="1.3839999">
      <feGaussianBlur
         inkscape:collect="always"
         stdDeviation="5.28"
         id="feGaussianBlur3796" />
    </filter>
    <linearGradient
       y2="138.66119"
       x2="48"
       y1="20.220806"
       x1="48"
       gradientUnits="userSpaceOnUse"
       id="linearGradient4052"
       xlink:href="#linearGradient3737-9"
       inkscape:collect="always" />
    <linearGradient
       inkscape:collect="always"
       xlink:href="#linearGradient3697"
       id="linearGradient3871"
       x1="48"
       y1="72"
       x2="48"
       y2="24"
       gradientUnits="userSpaceOnUse" />
    <linearGradient
       inkscape:collect="always"
       xlink:href="#linearGradient3697"
       id="linearGradient3875"
       gradientUnits="userSpaceOnUse"
       x1="48"
       y1="72"
       x2="48"
       y2="24"
       gradientTransform="translate(0,1)" />
    <linearGradient
       inkscape:collect="always"
       xlink:href="#linearGradient3697"
       id="linearGradient3879"
       gradientUnits="userSpaceOnUse"
       x1="48"
       y1="72"
       x2="48"
       y2="24" />
    <linearGradient
       inkscape:collect="always"
       xlink:href="#linearGradient3697"
       id="linearGradient3886"
       gradientUnits="userSpaceOnUse"
       x1="48"
       y1="72"
       x2="48"
       y2="24"
       gradientTransform="translate(0,1)" />
    <linearGradient
       inkscape:collect="always"
       xlink:href="#linearGradient3697"
       id="linearGradient3888"
       gradientUnits="userSpaceOnUse"
       x1="48"
       y1="72"
       x2="48"
       y2="24" />
    <linearGradient
       inkscape:collect="always"
       xlink:href="#linearGradient3697"
       id="linearGradient3895"
       gradientUnits="userSpaceOnUse"
       x1="48"
       y1="72"
       x2="48"
       y2="24"
       gradientTransform="translate(-100,0)" />
    <clipPath
       clipPathUnits="userSpaceOnUse"
       id="clipPath3900">
      <path
         style="fill:#ff00ff;fill-opacity:1;fill-rule:nonzero;stroke:none"
         d="M 12,6 C 8.676,6 6,8.676 6,12 l 0,72 c 0,3.324 2.676,6 6,6 l 72,0 c 3.324,0 6,-2.676 6,-6 L 90,12 C 90,8.676 87.324,6 84,6 L 12,6 z m 36,18 c 7.115557,0 12.8125,5.35882 12.8125,12 -0.02737,0.804615 -0.06285,1.787246 -0.125,2.71875 1.05415,0.662894 1.106222,2.875584 0.125,5.1875 -0.349038,0.82239 -0.744935,1.488564 -1.21875,2.0625 -0.148869,0.694383 -0.215469,1.224809 -0.40625,2.03125 -0.530843,1.592528 -2.637523,4.778595 -4.21875,7.21875 -0.101571,1.619229 -0.07483,3.262268 0.125,4.90625 4.938806,4.294616 17.85451,6.574387 17.875,10.25 l 0.25,1.625 -50.4375,0 0.25,-1.625 c -0.01917,-4.294615 12.87488,-6.101614 17.875,-10.25 0.346674,-2.021237 0.170158,-3.817053 0,-5.59375 C 39.170963,52.217793 37.289098,49.429794 36.8125,48 c -0.170793,-0.781736 -0.143059,-1.09731 -0.28125,-1.78125 -0.568754,-0.612143 -1.090416,-1.347453 -1.5,-2.3125 -1.032864,-2.433596 -0.935549,-4.79607 0.28125,-5.3125 C 35.24502,37.732254 35.20355,36.7072 35.1875,36 35.1875,29.35882 40.884449,24 48,24 z"
         id="path3902"
         inkscape:connector-curvature="0" />
    </clipPath>
    <filter
       inkscape:collect="always"
       id="filter3904"
       x="-0.1404973"
       width="1.2809946"
       y="-0.14768182"
       height="1.2953636">
      <feGaussianBlur
         inkscape:collect="always"
         stdDeviation="2.9536363"
         id="feGaussianBlur3906" />
    </filter>
  </defs>
  <sodipodi:namedview
     id="base"
     pagecolor="#ffffff"
     bordercolor="#666666"
     borderopacity="1.0"
     inkscape:pageopacity="0.0"
     inkscape:pageshadow="2"
     inkscape:zoom="2.2198312"
     inkscape:cx="-114.80456"
     inkscape:cy="50.610999"
     inkscape:document-units="px"
     inkscape:current-layer="layer1"
     showgrid="true"
     showborder="true"
     inkscape:showpageshadow="false"
     inkscape:window-width="1920"
     inkscape:window-height="1030"
     inkscape:window-x="0"
     inkscape:window-y="25"
     inkscape:window-maximized="1">
    <inkscape:grid
       type="xygrid"
       id="grid3732"
       visible="true"
       enabled="true" />
  </sodipodi:namedview>
  <metadata
     id="metadata2413">
    <rdf:RDF>
      <cc:Work
         rdf:about="">
        <dc:format>image/svg+xml</dc:format>
        <dc:type
           rdf:resource="http://purl.org/dc/dcmitype/StillImage" />
        <dc:title />
      </cc:Work>
    </rdf:RDF>
  </metadata>
  <g
     inkscape:groupmode="layer"
     id="layer2"
     inkscape:label="Blur Shadow"
     sodipodi:insensitive="true"
     style="display:none">
    <rect
       style="opacity:0.9;fill:url(#ButtonShadow);fill-opacity:1;fill-rule:nonzero;stroke:none;filter:url(#filter3174)"
       id="rect3745"
       width="86"
       height="85"
       x="5"
       y="7"
       rx="6"
       ry="6" />
  </g>
  <g
     inkscape:groupmode="layer"
     id="layer6"
     inkscape:label="Shadow"
     style="display:inline"
     sodipodi:insensitive="true">
    <path
       sodipodi:type="inkscape:offset"
       inkscape:radius="0.99097413"
       inkscape:original="M 12 -94.03125 C 7.028367 -94.03125 2.96875 -89.971633 2.96875 -85 L 2.96875 -14 C 2.96875 -9.0283671 7.0283671 -4.96875 12 -4.96875 L 84 -4.96875 C 88.971633 -4.96875 93.03125 -9.028367 93.03125 -14 L 93.03125 -85 C 93.03125 -89.971633 88.971633 -94.03125 84 -94.03125 L 12 -94.03125 z "
       style="opacity:0.07999998;fill:url(#linearGradient3760);fill-opacity:1;fill-rule:nonzero;stroke:none;display:inline"
       id="path3786"
       d="m 12,-95.03125 c -5.5110903,0 -10.03125,4.52016 -10.03125,10.03125 l 0,71 c 0,5.5110902 4.5201598,10.03125 10.03125,10.03125 l 72,0 c 5.51109,0 10.03125,-4.5201597 10.03125,-10.03125 l 0,-71 c 0,-5.51109 -4.52016,-10.03125 -10.03125,-10.03125 l -72,0 z"
       transform="scale(1,-1)" />
    <path
       sodipodi:type="inkscape:offset"
       inkscape:radius="1.0360184"
       inkscape:original="M 12 -93 C 7.5908667 -93 4 -89.409133 4 -85 L 4 -14 C 4 -9.5908667 7.5908667 -6 12 -6 L 84 -6 C 88.409133 -6 92 -9.5908667 92 -14 L 92 -85 C 92 -89.409133 88.409133 -93 84 -93 L 12 -93 z "
       style="opacity:0.1;fill:url(#linearGradient3780);fill-opacity:1;fill-rule:nonzero;stroke:none;display:inline"
       id="path3778"
       d="m 12,-94.03125 c -4.971633,0 -9.03125,4.059617 -9.03125,9.03125 l 0,71 c 0,4.9716329 4.0596171,9.03125 9.03125,9.03125 l 72,0 c 4.971633,0 9.03125,-4.059617 9.03125,-9.03125 l 0,-71 c 0,-4.971633 -4.059617,-9.03125 -9.03125,-9.03125 l -72,0 z"
       transform="scale(1,-1)" />
    <path
       sodipodi:type="inkscape:offset"
       inkscape:radius="0.98962283"
       inkscape:original="M 12 -92 C 8.122 -92 5 -88.878 5 -85 L 5 -14 C 5 -10.122 8.122 -7 12 -7 L 84 -7 C 87.878 -7 91 -10.122 91 -14 L 91 -85 C 91 -88.878 87.878 -92 84 -92 L 12 -92 z "
       style="opacity:0.2;fill:url(#linearGradient3772);fill-opacity:1;fill-rule:nonzero;stroke:none;display:inline"
       id="path3770"
       d="m 12,-93 c -4.4091333,0 -8,3.590867 -8,8 l 0,71 c 0,4.4091333 3.5908667,8 8,8 l 72,0 c 4.409133,0 8,-3.5908667 8,-8 l 0,-71 c 0,-4.409133 -3.590867,-8 -8,-8 l -72,0 z"
       transform="scale(1,-1)" />
    <rect
       style="opacity:0.3;fill:url(#linearGradient3725);fill-opacity:1;fill-rule:nonzero;stroke:none;display:inline"
       id="rect3723"
       width="86"
       height="85"
       x="5"
       y="-92"
       rx="7"
       ry="7"
       transform="scale(1,-1)" />
    <rect
       transform="scale(1,-1)"
       ry="6"
       rx="6"
       y="-91"
       x="6"
       height="84"
       width="84"
       id="rect3716"
       style="opacity:0.45;fill:url(#linearGradient3721);fill-opacity:1;fill-rule:nonzero;stroke:none;display:inline" />
  </g>
  <g
     inkscape:label="Button"
     inkscape:groupmode="layer"
     id="layer1"
     style="display:inline">
    <rect
       style="fill:url(#linearGradient3706);fill-opacity:1;fill-rule:nonzero;stroke:none"
       id="rect2419"
       width="84"
       height="84"
       x="6"
       y="6"
       rx="6"
       ry="6" />
    <path
       style="opacity:0.5;fill:url(#linearGradient3923);fill-opacity:1;fill-rule:nonzero;stroke:none;display:inline"
       d="M 12,6 C 8.676,6 6,8.676 6,12 l 0,2 0,68 0,2 c 0,0.334721 0.04135,0.6507 0.09375,0.96875 0.0487,0.295596 0.09704,0.596915 0.1875,0.875 0.0099,0.03038 0.02089,0.0636 0.03125,0.09375 0.09886,0.287771 0.23488,0.547452 0.375,0.8125 0.144592,0.273507 0.315616,0.535615 0.5,0.78125 0.184384,0.245635 0.373776,0.473472 0.59375,0.6875 0.439947,0.428056 0.94291,0.814526 1.5,1.09375 0.278545,0.139612 0.573473,0.246947 0.875,0.34375 -0.256202,-0.100222 -0.486711,-0.236272 -0.71875,-0.375 -0.0074,-0.0044 -0.02387,0.0045 -0.03125,0 -0.03193,-0.0193 -0.06229,-0.04251 -0.09375,-0.0625 -0.120395,-0.0767 -0.231023,-0.163513 -0.34375,-0.25 -0.106173,-0.0808 -0.213281,-0.161112 -0.3125,-0.25 C 8.47832,88.557317 8.30879,88.373362 8.15625,88.1875 8.048671,88.057245 7.937856,87.922215 7.84375,87.78125 7.81866,87.74287 7.8053,87.69538 7.78125,87.65625 7.71649,87.553218 7.651022,87.451733 7.59375,87.34375 7.492742,87.149044 7.388075,86.928049 7.3125,86.71875 7.3045,86.69694 7.28891,86.6782 7.28125,86.65625 7.24942,86.5643 7.24545,86.469419 7.21875,86.375 7.188418,86.268382 7.148361,86.171969 7.125,86.0625 7.052121,85.720988 7,85.364295 7,85 L 7,83 7,15 7,13 C 7,10.218152 9.218152,8 12,8 l 2,0 68,0 2,0 c 2.781848,0 5,2.218152 5,5 l 0,2 0,68 0,2 c 0,0.364295 -0.05212,0.720988 -0.125,1.0625 -0.04415,0.206893 -0.08838,0.397658 -0.15625,0.59375 -0.0077,0.02195 -0.0233,0.04069 -0.03125,0.0625 -0.06274,0.173739 -0.138383,0.367449 -0.21875,0.53125 -0.04158,0.0828 -0.07904,0.169954 -0.125,0.25 -0.0546,0.09721 -0.126774,0.18835 -0.1875,0.28125 -0.09411,0.140965 -0.204921,0.275995 -0.3125,0.40625 -0.143174,0.17445 -0.303141,0.346998 -0.46875,0.5 -0.01117,0.0102 -0.01998,0.02115 -0.03125,0.03125 -0.138386,0.125556 -0.285091,0.234436 -0.4375,0.34375 -0.102571,0.07315 -0.204318,0.153364 -0.3125,0.21875 -0.0074,0.0045 -0.02384,-0.0044 -0.03125,0 -0.232039,0.138728 -0.462548,0.274778 -0.71875,0.375 0.301527,-0.0968 0.596455,-0.204138 0.875,-0.34375 0.55709,-0.279224 1.060053,-0.665694 1.5,-1.09375 0.219973,-0.214028 0.409366,-0.441865 0.59375,-0.6875 0.184384,-0.245635 0.355408,-0.507743 0.5,-0.78125 0.14012,-0.265048 0.276135,-0.524729 0.375,-0.8125 0.01041,-0.03078 0.02133,-0.06274 0.03125,-0.09375 0.09046,-0.278085 0.1388,-0.579404 0.1875,-0.875 C 89.95865,84.6507 90,84.334721 90,84 l 0,-2 0,-68 0,-2 C 90,8.676 87.324,6 84,6 L 12,6 z"
       id="rect3728" />
    <path
       id="path3615"
       d="M 12,90 C 8.676,90 6,87.324 6,84 L 6,82 6,14 6,12 c 0,-0.334721 0.04135,-0.6507 0.09375,-0.96875 0.0487,-0.295596 0.09704,-0.596915 0.1875,-0.875 C 6.29113,10.12587 6.302142,10.09265 6.3125,10.0625 6.411365,9.774729 6.5473802,9.515048 6.6875,9.25 6.8320918,8.976493 7.0031161,8.714385 7.1875,8.46875 7.3718839,8.223115 7.5612765,7.995278 7.78125,7.78125 8.221197,7.353194 8.72416,6.966724 9.28125,6.6875 9.559795,6.547888 9.8547231,6.440553 10.15625,6.34375 9.9000482,6.443972 9.6695391,6.580022 9.4375,6.71875 c -0.00741,0.0044 -0.023866,-0.0045 -0.03125,0 -0.031933,0.0193 -0.062293,0.04251 -0.09375,0.0625 -0.120395,0.0767 -0.2310226,0.163513 -0.34375,0.25 -0.1061728,0.0808 -0.2132809,0.161112 -0.3125,0.25 C 8.4783201,7.442683 8.3087904,7.626638 8.15625,7.8125 8.0486711,7.942755 7.9378561,8.077785 7.84375,8.21875 7.818661,8.25713 7.805304,8.30462 7.78125,8.34375 7.716487,8.446782 7.6510225,8.548267 7.59375,8.65625 7.4927417,8.850956 7.3880752,9.071951 7.3125,9.28125 7.30454,9.30306 7.288911,9.3218 7.28125,9.34375 7.2494249,9.4357 7.2454455,9.530581 7.21875,9.625 7.1884177,9.731618 7.1483606,9.828031 7.125,9.9375 7.0521214,10.279012 7,10.635705 7,11 l 0,2 0,68 0,2 c 0,2.781848 2.2181517,5 5,5 l 2,0 68,0 2,0 c 2.781848,0 5,-2.218152 5,-5 l 0,-2 0,-68 0,-2 C 89,10.635705 88.94788,10.279012 88.875,9.9375 88.83085,9.730607 88.78662,9.539842 88.71875,9.34375 88.71105,9.3218 88.69545,9.30306 88.6875,9.28125 88.62476,9.107511 88.549117,8.913801 88.46875,8.75 88.42717,8.6672 88.38971,8.580046 88.34375,8.5 88.28915,8.40279 88.216976,8.31165 88.15625,8.21875 88.06214,8.077785 87.951329,7.942755 87.84375,7.8125 87.700576,7.63805 87.540609,7.465502 87.375,7.3125 87.36383,7.3023 87.35502,7.29135 87.34375,7.28125 87.205364,7.155694 87.058659,7.046814 86.90625,6.9375 86.803679,6.86435 86.701932,6.784136 86.59375,6.71875 c -0.0074,-0.0045 -0.02384,0.0044 -0.03125,0 -0.232039,-0.138728 -0.462548,-0.274778 -0.71875,-0.375 0.301527,0.0968 0.596455,0.204138 0.875,0.34375 0.55709,0.279224 1.060053,0.665694 1.5,1.09375 0.219973,0.214028 0.409366,0.441865 0.59375,0.6875 0.184384,0.245635 0.355408,0.507743 0.5,0.78125 0.14012,0.265048 0.276135,0.524729 0.375,0.8125 0.01041,0.03078 0.02133,0.06274 0.03125,0.09375 0.09046,0.278085 0.1388,0.579404 0.1875,0.875 C 89.95865,11.3493 90,11.665279 90,12 l 0,2 0,68 0,2 c 0,3.324 -2.676,6 -6,6 l -72,0 z"
       style="opacity:0.4;fill:url(#radialGradient2886);fill-opacity:1;fill-rule:nonzero;stroke:none;display:inline" />
    <rect
       ry="6"
       rx="6"
       y="6"
       x="-94"
       height="84"
       width="84"
       id="rect3654"
       style="fill:#ff00ff;fill-opacity:1;fill-rule:nonzero;stroke:none" />
    <rect
       style="color:#000000;fill:#ffffff;stroke:#000000;stroke-width:0.5;stroke-linecap:round;stroke-linejoin:miter;stroke-miterlimit:4;stroke-opacity:1;stroke-dasharray:none;stroke-dashoffset:8.6;marker:none;visibility:visible;display:inline;overflow:visible;enable-background:accumulate"
       id="rect3797"
       width="16"
       height="16"
       x="112"
       y="8" />
    <text
       xml:space="preserve"
       style="font-size:4px;font-style:normal;font-variant:normal;font-weight:normal;font-stretch:normal;text-align:start;line-height:125%;writing-mode:lr-tb;text-anchor:start;fill:#000000;fill-opacity:1;stroke:none;display:inline;font-family:Liberation Sans;-inkscape-font-specification:Liberation Sans"
       x="131.39261"
       y="11.969256"
       id="text3799"
       sodipodi:linespacing="125%"><tspan
         sodipodi:role="line"
         id="tspan3801"
         x="131.39261"
         y="11.969256">Width: 2px</tspan><tspan
         sodipodi:role="line"
         x="131.39261"
         y="16.969257"
         id="tspan3803">Blur: 12</tspan><tspan
         sodipodi:role="line"
         x="131.39261"
         y="21.969257"
         id="tspan3807">Opacity: 60</tspan></text>
    <path
       style="fill:url(#linearGradient3871);fill-opacity:1;stroke:none"
       d="m 48,24 c -7.115551,0 -12.818183,5.358818 -12.818183,11.999998 0.01605,0.7072 0.06889,1.729415 0.136367,2.590911 -1.216799,0.51643 -1.305592,2.884584 -0.272728,5.31818 0.409584,0.965047 0.931246,1.706041 1.5,2.318184 0.138191,0.68394 0.101933,0.990991 0.272726,1.772727 0.476598,1.429794 2.35562,4.231998 4.090907,6.545455 0.170158,1.776697 0.346674,3.569672 0,5.590909 -5.00012,4.148386 -17.882799,5.932657 -17.863633,10.227272 L 22.772728,72 73.227272,72 72.954533,70.363636 C 72.934041,66.688023 60.029712,64.43098 55.090906,60.136364 54.891074,58.492382 54.852981,56.846502 54.954552,55.227273 56.535779,52.787118 58.650981,49.592528 59.181824,48 c 0.190781,-0.806441 0.260219,-1.351072 0.409088,-2.045455 0.473815,-0.573936 0.878237,-1.223066 1.227275,-2.045456 0.981222,-2.311916 0.917797,-4.518924 -0.136353,-5.181818 0.06215,-0.931504 0.108982,-1.922658 0.136353,-2.727273 C 60.818187,29.358818 55.115563,24 48.000006,24 z"
       id="path3159"
       inkscape:connector-curvature="0" />
    <path
       style="fill:#ffffff;fill-opacity:1;stroke:none"
       d="M 35.21875 36.5 C 35.211315 36.668627 35.1875 36.829616 35.1875 37 C 35.19756 37.443267 35.247738 38.051362 35.28125 38.625 C 35.294362 38.618874 35.299115 38.599431 35.3125 38.59375 C 35.25804 37.89844 35.242494 37.154581 35.21875 36.5 z M 60.78125 36.53125 C 60.753236 37.229659 60.737499 37.969371 60.6875 38.71875 C 60.700021 38.726624 60.706509 38.741693 60.71875 38.75 C 60.751406 38.142949 60.794876 37.518094 60.8125 37 C 60.8125 36.840231 60.787791 36.689478 60.78125 36.53125 z M 34.375 41.40625 C 34.300572 42.387743 34.490987 43.633302 35.03125 44.90625 C 35.440834 45.871297 35.962496 46.606607 36.53125 47.21875 C 36.669441 47.90269 36.641707 48.218264 36.8125 49 C 37.289098 50.429794 39.170963 53.217793 40.90625 55.53125 C 40.991329 56.419598 41.071686 57.327014 41.09375 58.25 C 41.137459 56.964835 41.021579 55.735456 40.90625 54.53125 C 39.170963 52.217793 37.289098 49.429794 36.8125 48 C 36.641707 47.218264 36.669441 46.90269 36.53125 46.21875 C 35.962496 45.606607 35.440834 44.871297 35.03125 43.90625 C 34.663336 43.039384 34.457986 42.175775 34.375 41.40625 z M 61.46875 41.4375 C 61.391755 42.199067 61.180458 43.039282 60.8125 43.90625 C 60.463462 44.72864 60.067565 45.394814 59.59375 45.96875 C 59.444881 46.663133 59.378281 47.193559 59.1875 48 C 58.656657 49.592528 56.549977 52.778595 54.96875 55.21875 C 54.923043 55.947403 54.893381 56.700655 54.90625 57.4375 C 54.91384 57.029807 54.943357 56.623557 54.96875 56.21875 C 56.549977 53.778595 58.656657 50.592528 59.1875 49 C 59.378281 48.193559 59.444881 47.663133 59.59375 46.96875 C 60.067565 46.394814 60.463462 45.72864 60.8125 44.90625 C 61.352294 43.63441 61.552275 42.406232 61.46875 41.4375 z M 22.9375 72 L 22.78125 73 L 73.21875 73 L 73.0625 72 L 22.9375 72 z "
       id="path3873" />
    <path
       style="fill:#000000;fill-opacity:1;stroke:none;opacity:0.2"
       d="M 48 24 C 40.884449 24 35.1875 29.35882 35.1875 36 C 35.190596 36.136421 35.213075 36.343549 35.21875 36.5 C 35.501102 30.09593 41.067004 25 48 25 C 54.944375 25 60.515893 30.112358 60.78125 36.53125 C 60.788058 36.361512 60.807148 36.157316 60.8125 36 C 60.8125 29.35882 55.115557 24 48 24 z M 35.28125 38.625 C 34.526972 38.977435 34.227577 40.039215 34.375 41.40625 C 34.442862 40.511345 34.732176 39.840049 35.3125 39.59375 C 35.287317 39.272233 35.301204 38.966559 35.28125 38.625 z M 60.71875 38.75 C 60.70069 39.085718 60.709631 39.387044 60.6875 39.71875 C 61.155214 40.012868 61.395812 40.629892 61.46875 41.40625 C 61.587093 40.17575 61.34528 39.175164 60.71875 38.75 z M 54.90625 57.6875 C 54.8952 58.830355 54.953868 59.974213 55.09375 61.125 C 60.032556 65.419616 72.948258 67.699387 72.96875 71.375 L 73.0625 72 L 73.21875 72 L 72.96875 70.375 C 72.948258 66.699387 60.032556 64.419616 55.09375 60.125 C 54.993834 59.303009 54.928056 58.506871 54.90625 57.6875 z M 41.09375 58.65625 C 41.064206 59.136339 40.992919 59.619691 40.90625 60.125 C 35.90613 64.273386 23.012084 66.080385 23.03125 70.375 L 22.78125 72 L 22.9375 72 L 23.03125 71.375 C 23.012084 67.080385 35.90613 65.273386 40.90625 61.125 C 41.054549 60.26036 41.095478 59.453943 41.09375 58.65625 z "
       id="path3882" />
    <path
       inkscape:connector-curvature="0"
       id="path3898"
       d="m 48,24 c -7.115551,0 -12.818183,5.358818 -12.818183,11.999998 0.01605,0.7072 0.06889,1.729415 0.136367,2.590911 -1.216799,0.51643 -1.305592,2.884584 -0.272728,5.31818 0.409584,0.965047 0.931246,1.706041 1.5,2.318184 0.138191,0.68394 0.101933,0.990991 0.272726,1.772727 0.476598,1.429794 2.35562,4.231998 4.090907,6.545455 0.170158,1.776697 0.346674,3.569672 0,5.590909 -5.00012,4.148386 -17.882799,5.932657 -17.863633,10.227272 L 22.772728,72 73.227272,72 72.954533,70.363636 C 72.934041,66.688023 60.029712,64.43098 55.090906,60.136364 54.891074,58.492382 54.852981,56.846502 54.954552,55.227273 56.535779,52.787118 58.650981,49.592528 59.181824,48 c 0.190781,-0.806441 0.260219,-1.351072 0.409088,-2.045455 0.473815,-0.573936 0.878237,-1.223066 1.227275,-2.045456 0.981222,-2.311916 0.917797,-4.518924 -0.136353,-5.181818 0.06215,-0.931504 0.108982,-1.922658 0.136353,-2.727273 C 60.818187,29.358818 55.115563,24 48.000006,24 z"
       style="fill:none;fill-opacity:1;stroke:#ffffff;filter:url(#filter3904);opacity:0.59999999999999998;stroke-width:2;stroke-miterlimit:4;stroke-dasharray:none;stroke-opacity:1"
       clip-path="url(#clipPath3900)" />
  </g>
  <g
     inkscape:groupmode="layer"
     id="layer3"
     inkscape:label="Highlight"
     sodipodi:insensitive="true">
    <rect
       style="opacity:0.5;fill:url(#linearGradient4052);fill-opacity:1;fill-rule:nonzero;stroke:#ffffff;stroke-width:0.5;stroke-linecap:round;stroke-linejoin:miter;stroke-miterlimit:4;stroke-opacity:1;stroke-dasharray:none;stroke-dashoffset:0;display:inline;filter:url(#filter3794)"
       id="rect3171"
       width="66"
       height="66"
       x="15"
       y="15"
       rx="12"
       ry="12"
       clip-path="url(#clipPath3613)" />
  </g>
</svg>
