<?xml version="1.0" encoding="UTF-8" standalone="no"?>
<!-- Created with Inkscape (http://www.inkscape.org/) -->

<svg
   xmlns:dc="http://purl.org/dc/elements/1.1/"
   xmlns:cc="http://creativecommons.org/ns#"
   xmlns:rdf="http://www.w3.org/1999/02/22-rdf-syntax-ns#"
   xmlns:svg="http://www.w3.org/2000/svg"
   xmlns="http://www.w3.org/2000/svg"
   xmlns:xlink="http://www.w3.org/1999/xlink"
   xmlns:sodipodi="http://sodipodi.sourceforge.net/DTD/sodipodi-0.dtd"
   xmlns:inkscape="http://www.inkscape.org/namespaces/inkscape"
   width="96"
   height="96"
   id="svg2408"
   sodipodi:version="0.32"
   inkscape:version="0.48.0 r9654"
   version="1.0"
   sodipodi:docname="text-x-install.svg"
   inkscape:output_extension="org.inkscape.output.svg.inkscape"
   style="display:inline">
  <defs
     id="defs2410">
    <linearGradient
       id="linearGradient3746">
      <stop
         id="stop3748"
         offset="0"
         style="stop-color:#000000;stop-opacity:1;" />
      <stop
         id="stop3754"
         offset="1"
         style="stop-color:#000000;stop-opacity:0;" />
    </linearGradient>
    <linearGradient
       id="linearGradient3210">
      <stop
         style="stop-color:#ffffff;stop-opacity:0.39024389;"
         offset="0"
         id="stop3212" />
      <stop
         style="stop-color:#000000;stop-opacity:0.2682927;"
         offset="1"
         id="stop3214" />
    </linearGradient>
    <linearGradient
       id="linearGradient3174">
      <stop
         style="stop-color:#c30000;stop-opacity:1;"
         offset="0"
         id="stop3176" />
      <stop
         style="stop-color:#f12300;stop-opacity:1;"
         offset="1"
         id="stop3178" />
    </linearGradient>
    <linearGradient
       id="ButtonShadow"
       gradientTransform="scale(1.0058652,0.994169)"
       x1="45.447727"
       y1="92.539597"
       x2="45.447727"
       y2="7.0165396"
       gradientUnits="userSpaceOnUse">
      <stop
         style="stop-color:#000000;stop-opacity:1;"
         offset="0"
         id="stop3750" />
      <stop
         style="stop-color:#000000;stop-opacity:0.58823532;"
         offset="1"
         id="stop3752" />
    </linearGradient>
    <linearGradient
       inkscape:collect="always"
       id="linearGradient3737">
      <stop
         style="stop-color:#ffffff;stop-opacity:1;"
         offset="0"
         id="stop3739" />
      <stop
         style="stop-color:#ffffff;stop-opacity:0;"
         offset="1"
         id="stop3741" />
    </linearGradient>
    <linearGradient
       id="linearGradient3700">
      <stop
         style="stop-color:#ebebeb;stop-opacity:1;"
         offset="0"
         id="stop3702" />
      <stop
         style="stop-color:#fafafa;stop-opacity:1;"
         offset="1"
         id="stop3704" />
    </linearGradient>
    <inkscape:perspective
       sodipodi:type="inkscape:persp3d"
       inkscape:vp_x="0 : 526.18109 : 1"
       inkscape:vp_y="0 : 1000 : 0"
       inkscape:vp_z="744.09448 : 526.18109 : 1"
       inkscape:persp3d-origin="372.04724 : 350.78739 : 1"
       id="perspective2416" />
    <linearGradient
       inkscape:collect="always"
       xlink:href="#linearGradient3700"
       id="linearGradient3706"
       x1="48"
       y1="90"
       x2="48"
       y2="5.9877172"
       gradientUnits="userSpaceOnUse" />
    <linearGradient
       inkscape:collect="always"
       xlink:href="#linearGradient3737"
       id="linearGradient3743"
       x1="36.357143"
       y1="6"
       x2="36.357143"
       y2="63.893143"
       gradientUnits="userSpaceOnUse" />
    <filter
       inkscape:collect="always"
       id="filter3174"
       color-interpolation-filters="sRGB">
      <feGaussianBlur
         inkscape:collect="always"
         stdDeviation="1.71"
         id="feGaussianBlur3176" />
    </filter>
    <linearGradient
       inkscape:collect="always"
       xlink:href="#linearGradient3737"
       id="linearGradient3188"
       gradientUnits="userSpaceOnUse"
       x1="36.357143"
       y1="6"
       x2="36.357143"
       y2="63.893143" />
    <linearGradient
       inkscape:collect="always"
       xlink:href="#linearGradient3174"
       id="linearGradient3180"
       x1="48"
       y1="84"
       x2="48"
       y2="12"
       gradientUnits="userSpaceOnUse" />
    <linearGradient
       inkscape:collect="always"
       xlink:href="#ButtonShadow"
       id="linearGradient3195"
       x1="49.142857"
       y1="84"
       x2="49.142857"
       y2="11.990931"
       gradientUnits="userSpaceOnUse"
       gradientTransform="translate(0,1)" />
    <linearGradient
       inkscape:collect="always"
       xlink:href="#linearGradient3210"
       id="linearGradient3216"
       x1="12"
       y1="48"
       x2="84"
       y2="48"
       gradientUnits="userSpaceOnUse"
       gradientTransform="matrix(0,1,-1,0,96,0)" />
    <inkscape:perspective
       id="perspective3719"
       inkscape:persp3d-origin="0.5 : 0.33333333 : 1"
       inkscape:vp_z="1 : 0.5 : 1"
       inkscape:vp_y="0 : 1000 : 0"
       inkscape:vp_x="0 : 0.5 : 1"
       sodipodi:type="inkscape:persp3d" />
    <linearGradient
       y2="90.238609"
       x2="32.251034"
       y1="6.1317081"
       x1="32.251034"
       gradientTransform="matrix(1.0238095,0,0,1.0119048,-1.1428571,-98.071429)"
       gradientUnits="userSpaceOnUse"
       id="linearGradient3026"
       xlink:href="#ButtonShadow-0"
       inkscape:collect="always" />
    <linearGradient
       id="ButtonShadow-0"
       gradientTransform="matrix(1.0058652,0,0,0.994169,100,0)"
       x1="45.447727"
       y1="92.539597"
       x2="45.447727"
       y2="7.0165396"
       gradientUnits="userSpaceOnUse">
      <stop
         style="stop-color:#000000;stop-opacity:1;"
         offset="0"
         id="stop3750-8" />
      <stop
         style="stop-color:#000000;stop-opacity:0.58823532;"
         offset="1"
         id="stop3752-5" />
    </linearGradient>
    <linearGradient
       inkscape:collect="always"
       xlink:href="#ButtonShadow-0"
       id="linearGradient3780"
       gradientUnits="userSpaceOnUse"
       gradientTransform="matrix(1.0238095,0,0,1.0119048,-1.1428571,-98.071429)"
       x1="32.251034"
       y1="6.1317081"
       x2="32.251034"
       y2="90.238609" />
    <linearGradient
       id="linearGradient3728"
       gradientTransform="matrix(1.0058652,0,0,0.994169,100,0)"
       x1="45.447727"
       y1="92.539597"
       x2="45.447727"
       y2="7.0165396"
       gradientUnits="userSpaceOnUse">
      <stop
         style="stop-color:#000000;stop-opacity:1;"
         offset="0"
         id="stop3730" />
      <stop
         style="stop-color:#000000;stop-opacity:0.58823532;"
         offset="1"
         id="stop3732" />
    </linearGradient>
    <linearGradient
       inkscape:collect="always"
       xlink:href="#ButtonShadow-0"
       id="linearGradient3772"
       gradientUnits="userSpaceOnUse"
       gradientTransform="matrix(1.0238095,0,0,1.0119048,-1.1428571,-98.071429)"
       x1="32.251034"
       y1="6.1317081"
       x2="32.251034"
       y2="90.238609" />
    <linearGradient
       id="linearGradient3735"
       gradientTransform="matrix(1.0058652,0,0,0.994169,100,0)"
       x1="45.447727"
       y1="92.539597"
       x2="45.447727"
       y2="7.0165396"
       gradientUnits="userSpaceOnUse">
      <stop
         style="stop-color:#000000;stop-opacity:1;"
         offset="0"
         id="stop3737" />
      <stop
         style="stop-color:#000000;stop-opacity:0.58823532;"
         offset="1"
         id="stop3739-1" />
    </linearGradient>
    <linearGradient
       inkscape:collect="always"
       xlink:href="#ButtonShadow-0"
       id="linearGradient3725"
       gradientUnits="userSpaceOnUse"
       gradientTransform="matrix(1.0238095,0,0,1.0119048,-1.1428571,-98.071429)"
       x1="32.251034"
       y1="6.1317081"
       x2="32.251034"
       y2="90.238609" />
    <linearGradient
       id="linearGradient3742"
       gradientTransform="matrix(1.0058652,0,0,0.994169,100,0)"
       x1="45.447727"
       y1="92.539597"
       x2="45.447727"
       y2="7.0165396"
       gradientUnits="userSpaceOnUse">
      <stop
         style="stop-color:#000000;stop-opacity:1;"
         offset="0"
         id="stop3744" />
      <stop
         style="stop-color:#000000;stop-opacity:0.58823532;"
         offset="1"
         id="stop3746" />
    </linearGradient>
    <linearGradient
       inkscape:collect="always"
       xlink:href="#ButtonShadow-0"
       id="linearGradient3721"
       gradientUnits="userSpaceOnUse"
       gradientTransform="translate(0,-97)"
       x1="32.251034"
       y1="6.1317081"
       x2="32.251034"
       y2="90.238609" />
    <linearGradient
       id="linearGradient3749"
       gradientTransform="matrix(1.0058652,0,0,0.994169,100,0)"
       x1="45.447727"
       y1="92.539597"
       x2="45.447727"
       y2="7.0165396"
       gradientUnits="userSpaceOnUse">
      <stop
         style="stop-color:#000000;stop-opacity:1;"
         offset="0"
         id="stop3751" />
      <stop
         style="stop-color:#000000;stop-opacity:0.58823532;"
         offset="1"
         id="stop3753" />
    </linearGradient>
    <linearGradient
       y2="90.238609"
       x2="32.251034"
       y1="6.1317081"
       x1="32.251034"
       gradientTransform="matrix(1.0238095,0,0,1.0119048,-1.1428571,-98.071429)"
       gradientUnits="userSpaceOnUse"
       id="linearGradient3760"
       xlink:href="#ButtonShadow-0"
       inkscape:collect="always" />
    <inkscape:perspective
       id="perspective3909"
       inkscape:persp3d-origin="0.5 : 0.33333333 : 1"
       inkscape:vp_z="1 : 0.5 : 1"
       inkscape:vp_y="0 : 1000 : 0"
       inkscape:vp_x="0 : 0.5 : 1"
       sodipodi:type="inkscape:persp3d" />
    <linearGradient
       inkscape:collect="always"
       xlink:href="#linearGradient3737-1"
       id="linearGradient3188-7"
       gradientUnits="userSpaceOnUse"
       x1="36.357143"
       y1="6"
       x2="36.357143"
       y2="63.893143" />
    <linearGradient
       inkscape:collect="always"
       id="linearGradient3737-1">
      <stop
         style="stop-color:#ffffff;stop-opacity:1;"
         offset="0"
         id="stop3739-9" />
      <stop
         style="stop-color:#ffffff;stop-opacity:0;"
         offset="1"
         id="stop3741-3" />
    </linearGradient>
    <radialGradient
       r="42"
       fy="90.171875"
       fx="48"
       cy="90.171875"
       cx="48"
       gradientTransform="matrix(1.1573129,0,0,0.99590774,-7.551021,0.1971319)"
       gradientUnits="userSpaceOnUse"
       id="radialGradient2886"
       xlink:href="#linearGradient3737-0"
       inkscape:collect="always" />
    <linearGradient
       inkscape:collect="always"
       id="linearGradient3737-0">
      <stop
         style="stop-color:#ffffff;stop-opacity:1;"
         offset="0"
         id="stop3739-6" />
      <stop
         style="stop-color:#ffffff;stop-opacity:0;"
         offset="1"
         id="stop3741-0" />
    </linearGradient>
    <linearGradient
       y2="63.893143"
       x2="36.357143"
       y1="6"
       x1="36.357143"
       gradientUnits="userSpaceOnUse"
       id="linearGradient3923"
       xlink:href="#linearGradient3737-1"
       inkscape:collect="always" />
    <inkscape:perspective
       id="perspective3819"
       inkscape:persp3d-origin="0.5 : 0.33333333 : 1"
       inkscape:vp_z="1 : 0.5 : 1"
       inkscape:vp_y="0 : 1000 : 0"
       inkscape:vp_x="0 : 0.5 : 1"
       sodipodi:type="inkscape:persp3d" />
    <inkscape:perspective
       id="perspective3174"
       inkscape:persp3d-origin="0.5 : 0.33333333 : 1"
       inkscape:vp_z="1 : 0.5 : 1"
       inkscape:vp_y="0 : 1000 : 0"
       inkscape:vp_x="0 : 0.5 : 1"
       sodipodi:type="inkscape:persp3d" />
    <linearGradient
       inkscape:collect="always"
       xlink:href="#linearGradient3778"
       id="linearGradient3844"
       x1="51.42857"
       y1="72.785713"
       x2="90.714287"
       y2="72.785713"
       gradientUnits="userSpaceOnUse" />
    <linearGradient
       id="linearGradient3778">
      <stop
         style="stop-color:#5e8a20;stop-opacity:1;"
         offset="0"
         id="stop3780" />
      <stop
         style="stop-color:#a2d625;stop-opacity:1;"
         offset="1"
         id="stop3782" />
    </linearGradient>
    <linearGradient
       inkscape:collect="always"
       xlink:href="#linearGradient3737-2"
       id="linearGradient3871"
       gradientUnits="userSpaceOnUse"
       gradientTransform="matrix(0.83333333,0,0,0.83333333,-8.6666651,-6.3333307)"
       x1="65.262688"
       y1="64.205269"
       x2="65.262688"
       y2="43.780487" />
    <linearGradient
       inkscape:collect="always"
       id="linearGradient3737-2">
      <stop
         style="stop-color:#ffffff;stop-opacity:1;"
         offset="0"
         id="stop3739-5" />
      <stop
         style="stop-color:#ffffff;stop-opacity:0;"
         offset="1"
         id="stop3741-1" />
    </linearGradient>
    <linearGradient
       y2="72.785713"
       x2="90.714287"
       y1="72.785713"
       x1="51.42857"
       gradientUnits="userSpaceOnUse"
       id="linearGradient3188-6"
       xlink:href="#linearGradient3778"
       inkscape:collect="always" />
    <linearGradient
       inkscape:collect="always"
       xlink:href="#linearGradient3746"
       id="linearGradient3744"
       gradientUnits="userSpaceOnUse"
       gradientTransform="matrix(0.83333333,0,0,0.83333333,-8.6666651,-5.3333307)"
       x1="65.262688"
       y1="86.849419"
       x2="65.262688"
       y2="43.591393" />
    <linearGradient
       inkscape:collect="always"
       xlink:href="#linearGradient3746"
       id="linearGradient3761"
       gradientUnits="userSpaceOnUse"
       gradientTransform="matrix(0.83333333,0,0,0.83333333,-8.6666651,-5.3333307)"
       x1="65.262688"
       y1="86.849419"
       x2="65.262688"
       y2="43.591393" />
    <linearGradient
       inkscape:collect="always"
       xlink:href="#linearGradient3746"
       id="linearGradient3765"
       gradientUnits="userSpaceOnUse"
       gradientTransform="matrix(0.83333333,0,0,0.83333333,-8.6666651,-5.3333307)"
       x1="65.262688"
       y1="86.849419"
       x2="65.599998"
       y2="42.399998" />
    <linearGradient
       inkscape:collect="always"
       xlink:href="#linearGradient3746"
       id="linearGradient3770"
       gradientUnits="userSpaceOnUse"
       gradientTransform="matrix(0.83333333,0,0,0.83333333,-8.6666651,-5.3333307)"
       x1="65.262688"
       y1="86.849419"
       x2="65.599998"
       y2="42.399998" />
    <linearGradient
       inkscape:collect="always"
       xlink:href="#linearGradient3746"
       id="linearGradient3774"
       gradientUnits="userSpaceOnUse"
       gradientTransform="matrix(0.83333333,0,0,0.83333333,-8.6666651,-5.3333307)"
       x1="65.262688"
       y1="86.849419"
       x2="65.599998"
       y2="42.399998" />
    <linearGradient
       inkscape:collect="always"
       xlink:href="#linearGradient3746"
       id="linearGradient3777"
       gradientUnits="userSpaceOnUse"
       gradientTransform="matrix(0.83333333,0,0,0.83333333,-8.6666651,-5.3333307)"
       x1="65.262688"
       y1="86.849419"
       x2="65.599998"
       y2="42.399998" />
    <linearGradient
       inkscape:collect="always"
       xlink:href="#linearGradient3746"
       id="linearGradient3781"
       gradientUnits="userSpaceOnUse"
       gradientTransform="matrix(0.83333333,0,0,0.83333333,-8.6666651,-5.3333307)"
       x1="65.262688"
       y1="86.849419"
       x2="65.599998"
       y2="42.399998" />
    <linearGradient
       inkscape:collect="always"
       xlink:href="#linearGradient3746"
       id="linearGradient3790"
       gradientUnits="userSpaceOnUse"
       gradientTransform="matrix(0.83333333,0,0,0.83333333,-8.6666651,-5.3333307)"
       x1="65.262688"
       y1="86.849419"
       x2="65.599998"
       y2="42.399998" />
    <linearGradient
       inkscape:collect="always"
       xlink:href="#linearGradient3778"
       id="linearGradient3815"
       gradientUnits="userSpaceOnUse"
       x1="51.42857"
       y1="72.785713"
       x2="90.714287"
       y2="72.785713" />
    <linearGradient
       inkscape:collect="always"
       xlink:href="#linearGradient3778"
       id="linearGradient3817"
       gradientUnits="userSpaceOnUse"
       x1="51.42857"
       y1="72.785713"
       x2="90.714287"
       y2="72.785713"
       gradientTransform="matrix(0,-1.2218182,1.2218182,0,-40.930909,134.83636)" />
    <linearGradient
       inkscape:collect="always"
       xlink:href="#linearGradient3778"
       id="linearGradient3822"
       gradientUnits="userSpaceOnUse"
       x1="51.42857"
       y1="72.785713"
       x2="90.714287"
       y2="72.785713" />
    <clipPath
       clipPathUnits="userSpaceOnUse"
       id="clipPath3827">
      <path
         style="fill:#ff00ff;fill-opacity:1;fill-rule:nonzero;stroke:none"
         d="m 105.44642,43.321429 c 0,-2.720536 -2.19017,-4.910715 -4.91071,-4.910715 l -58.928571,0 c -2.720535,0 -4.910714,2.190179 -4.910714,4.910715 l 0,58.928571 c 0,2.72053 2.190179,4.91071 4.910714,4.91071 l 58.928571,0 c 2.72054,0 4.91071,-2.19018 4.91071,-4.91071 l 0,-58.928571 z M 90.714281,72.785714 c 0,10.84845 -8.794406,19.642857 -19.642856,19.642857 -10.848451,0 -19.642857,-8.794407 -19.642857,-19.642857 0,-10.84845 8.794406,-19.642857 19.642857,-19.642857 10.84845,0 19.642856,8.794407 19.642856,19.642857 z"
         id="path3829" />
    </clipPath>
    <linearGradient
       inkscape:collect="always"
       xlink:href="#linearGradient3778"
       id="linearGradient3837"
       gradientUnits="userSpaceOnUse"
       x1="51.42857"
       y1="72.785713"
       x2="90.714287"
       y2="72.785713"
       gradientTransform="matrix(0,-1.2218182,1.2218182,0,-40.930909,135.83636)" />
    <linearGradient
       inkscape:collect="always"
       xlink:href="#linearGradient3778"
       id="linearGradient3841"
       gradientUnits="userSpaceOnUse"
       x1="51.42857"
       y1="72.785713"
       x2="90.714287"
       y2="72.785713" />
    <linearGradient
       inkscape:collect="always"
       xlink:href="#linearGradient3746"
       id="linearGradient3849"
       gradientUnits="userSpaceOnUse"
       gradientTransform="matrix(0.83333333,0,0,0.83333333,-8.6666651,-5.3333307)"
       x1="65.262688"
       y1="86.849419"
       x2="65.599998"
       y2="42.399998" />
    <linearGradient
       inkscape:collect="always"
       xlink:href="#linearGradient3746"
       id="linearGradient3851"
       gradientUnits="userSpaceOnUse"
       gradientTransform="matrix(0.83333333,0,0,0.83333333,-8.6666651,-5.3333307)"
       x1="65.262688"
       y1="86.849419"
       x2="65.599998"
       y2="42.399998" />
    <linearGradient
       inkscape:collect="always"
       xlink:href="#linearGradient3746"
       id="linearGradient3853"
       gradientUnits="userSpaceOnUse"
       gradientTransform="matrix(0.83333333,0,0,0.83333333,-8.6666651,-5.3333307)"
       x1="65.262688"
       y1="86.849419"
       x2="65.262688"
       y2="43.591393" />
    <linearGradient
       inkscape:collect="always"
       xlink:href="#linearGradient3737-2"
       id="linearGradient3855"
       gradientUnits="userSpaceOnUse"
       gradientTransform="matrix(0.83333333,0,0,0.83333333,-8.6666651,-6.3333307)"
       x1="65.262688"
       y1="64.205269"
       x2="65.262688"
       y2="43.780487" />
    <linearGradient
       inkscape:collect="always"
       xlink:href="#linearGradient3737-2"
       id="linearGradient3858"
       gradientUnits="userSpaceOnUse"
       gradientTransform="matrix(0.83333333,0,0,0.83333333,-8.6666651,-6.3333307)"
       x1="65.262688"
       y1="64.205269"
       x2="65.262688"
       y2="43.780487" />
    <linearGradient
       inkscape:collect="always"
       xlink:href="#linearGradient3746"
       id="linearGradient3861"
       gradientUnits="userSpaceOnUse"
       gradientTransform="matrix(0.83333333,0,0,0.83333333,-8.6666651,-5.3333307)"
       x1="65.262688"
       y1="86.849419"
       x2="65.262688"
       y2="43.591393" />
    <linearGradient
       inkscape:collect="always"
       xlink:href="#linearGradient3746"
       id="linearGradient3864"
       gradientUnits="userSpaceOnUse"
       gradientTransform="matrix(0.83333333,0,0,0.83333333,-8.6666651,-5.3333307)"
       x1="65.262688"
       y1="86.849419"
       x2="65.599998"
       y2="42.399998" />
    <linearGradient
       inkscape:collect="always"
       xlink:href="#linearGradient3778"
       id="linearGradient3874"
       gradientUnits="userSpaceOnUse"
       x1="51.42857"
       y1="72.785713"
       x2="90.714287"
       y2="72.785713"
       gradientTransform="matrix(0,-1.2727272,1.2726491,0,-44.630696,139.45454)" />
    <linearGradient
       inkscape:collect="always"
       xlink:href="#linearGradient3778"
       id="linearGradient3878"
       gradientUnits="userSpaceOnUse"
       x1="51.42857"
       y1="72.785713"
       x2="90.714287"
       y2="72.785713" />
    <linearGradient
       inkscape:collect="always"
       xlink:href="#linearGradient3778"
       id="linearGradient3889"
       gradientUnits="userSpaceOnUse"
       x1="51.42857"
       y1="72.785713"
       x2="90.714287"
       y2="72.785713" />
    <clipPath
       clipPathUnits="userSpaceOnUse"
       id="clipPath3894">
      <path
         style="fill:#ff00ff;fill-opacity:1;fill-rule:nonzero;stroke:none"
         d="m 104.07143,44.498283 c 0,-2.611875 -2.10257,-4.714575 -4.714286,-4.714575 l -56.571432,0 c -2.611714,0 -4.714286,2.1027 -4.714286,4.714575 l 0,56.574907 c 0,2.61187 2.102572,4.71457 4.714286,4.71457 l 56.571432,0 c 2.611716,0 4.714286,-2.1027 4.714286,-4.71457 l 0,-56.574907 z M 90.714287,72.785735 c 0,10.84845 -8.794408,19.644064 -19.642859,19.644064 -10.84845,0 -19.642858,-8.795614 -19.642858,-19.644064 0,-10.84845 8.794408,-19.644064 19.642858,-19.644064 10.848451,0 19.642859,8.795614 19.642859,19.644064 z"
         id="path3896" />
    </clipPath>
    <filter
       inkscape:collect="always"
       id="filter3898"
       x="-0.14400884"
       width="1.2880177"
       y="-0.14399116"
       height="1.2879823">
      <feGaussianBlur
         inkscape:collect="always"
         stdDeviation="2.3571428"
         id="feGaussianBlur3900" />
    </filter>
    <inkscape:perspective
       id="perspective2952"
       inkscape:persp3d-origin="0.5 : 0.33333333 : 1"
       inkscape:vp_z="1 : 0.5 : 1"
       inkscape:vp_y="0 : 1000 : 0"
       inkscape:vp_x="0 : 0.5 : 1"
       sodipodi:type="inkscape:persp3d" />
    <linearGradient
       y2="138.66119"
       x2="48"
       y1="20.220806"
       x1="48"
       gradientUnits="userSpaceOnUse"
       id="linearGradient2890"
       xlink:href="#linearGradient3737-9"
       inkscape:collect="always" />
    <linearGradient
       inkscape:collect="always"
       id="linearGradient3737-9">
      <stop
         style="stop-color:#ffffff;stop-opacity:1;"
         offset="0"
         id="stop3739-2" />
      <stop
         style="stop-color:#ffffff;stop-opacity:0;"
         offset="1"
         id="stop3741-1-8" />
    </linearGradient>
    <clipPath
       clipPathUnits="userSpaceOnUse"
       id="clipPath3613">
      <rect
         ry="6"
         rx="6"
         y="6"
         x="6"
         height="84"
         width="84"
         id="rect3615"
         style="fill:#ffffff;fill-opacity:1;fill-rule:nonzero;stroke:none" />
    </clipPath>
    <filter
       color-interpolation-filters="sRGB"
       inkscape:collect="always"
       id="filter3794"
       x="-0.192"
       width="1.3839999"
       y="-0.192"
       height="1.3839999">
      <feGaussianBlur
         inkscape:collect="always"
         stdDeviation="5.28"
         id="feGaussianBlur3796" />
    </filter>
    <linearGradient
       y2="138.66119"
       x2="48"
       y1="20.220806"
       x1="48"
       gradientUnits="userSpaceOnUse"
       id="linearGradient2965"
       xlink:href="#linearGradient3737-9"
       inkscape:collect="always" />
    <linearGradient
       inkscape:collect="always"
       xlink:href="#linearGradient3317"
       id="linearGradient4011"
       x1="80"
       y1="48"
       x2="80"
       y2="8"
       gradientUnits="userSpaceOnUse" />
    <linearGradient
       id="linearGradient3317">
      <stop
         id="stop3319"
         offset="0"
         style="stop-color:#6ab300;stop-opacity:1;" />
      <stop
         id="stop3321"
         offset="1"
         style="stop-color:#9dcf00;stop-opacity:1;" />
    </linearGradient>
    <linearGradient
       y2="8"
       x2="80"
       y1="48"
       x1="80"
       gradientUnits="userSpaceOnUse"
       id="linearGradient3283"
       xlink:href="#linearGradient3317"
       inkscape:collect="always"
       gradientTransform="translate(50,0)" />
  </defs>
  <sodipodi:namedview
     id="base"
     pagecolor="#ffffff"
     bordercolor="#666666"
     borderopacity="1.0"
     inkscape:pageopacity="0.0"
     inkscape:pageshadow="2"
     inkscape:zoom="4.5081953"
     inkscape:cx="2.3994526"
     inkscape:cy="32.808652"
     inkscape:document-units="px"
     inkscape:current-layer="layer3"
     showgrid="true"
     showborder="true"
     inkscape:showpageshadow="false"
     inkscape:window-width="1920"
     inkscape:window-height="1029"
     inkscape:window-x="0"
     inkscape:window-y="25"
     inkscape:window-maximized="1"
     showguides="true"
     inkscape:guide-bbox="true">
    <inkscape:grid
       type="xygrid"
       id="grid3732"
       visible="true"
       enabled="true" />
  </sodipodi:namedview>
  <metadata
     id="metadata2413">
    <rdf:RDF>
      <cc:Work
         rdf:about="">
        <dc:format>image/svg+xml</dc:format>
        <dc:type
           rdf:resource="http://purl.org/dc/dcmitype/StillImage" />
      </cc:Work>
    </rdf:RDF>
  </metadata>
  <g
     inkscape:groupmode="layer"
     id="layer2"
     inkscape:label="Blur Shadow"
     sodipodi:insensitive="true"
     style="display:none">
    <rect
       style="opacity:0.9;fill:url(#ButtonShadow);fill-opacity:1;fill-rule:nonzero;stroke:none;filter:url(#filter3174)"
       id="rect3745"
       width="86"
       height="85"
       x="5"
       y="7"
       rx="6"
       ry="6" />
  </g>
  <g
     inkscape:groupmode="layer"
     id="layer6"
     inkscape:label="Shadow"
     style="display:inline"
     sodipodi:insensitive="true">
    <path
       sodipodi:type="inkscape:offset"
       inkscape:radius="0.99097413"
       inkscape:original="M 12 -94.03125 C 7.028367 -94.03125 2.96875 -89.971633 2.96875 -85 L 2.96875 -14 C 2.96875 -9.0283671 7.0283671 -4.96875 12 -4.96875 L 84 -4.96875 C 88.971633 -4.96875 93.03125 -9.028367 93.03125 -14 L 93.03125 -85 C 93.03125 -89.971633 88.971633 -94.03125 84 -94.03125 L 12 -94.03125 z "
       style="opacity:0.07999998;fill:url(#linearGradient3760);fill-opacity:1;fill-rule:nonzero;stroke:none;display:inline"
       id="path3786"
       d="m 12,-95.03125 c -5.5110903,0 -10.03125,4.52016 -10.03125,10.03125 l 0,71 c 0,5.5110902 4.5201598,10.03125 10.03125,10.03125 l 72,0 c 5.51109,0 10.03125,-4.5201597 10.03125,-10.03125 l 0,-71 c 0,-5.51109 -4.52016,-10.03125 -10.03125,-10.03125 l -72,0 z"
       transform="scale(1,-1)" />
    <path
       sodipodi:type="inkscape:offset"
       inkscape:radius="1.0360184"
       inkscape:original="M 12 -93 C 7.5908667 -93 4 -89.409133 4 -85 L 4 -14 C 4 -9.5908667 7.5908667 -6 12 -6 L 84 -6 C 88.409133 -6 92 -9.5908667 92 -14 L 92 -85 C 92 -89.409133 88.409133 -93 84 -93 L 12 -93 z "
       style="opacity:0.1;fill:url(#linearGradient3780);fill-opacity:1;fill-rule:nonzero;stroke:none;display:inline"
       id="path3778"
       d="m 12,-94.03125 c -4.971633,0 -9.03125,4.059617 -9.03125,9.03125 l 0,71 c 0,4.9716329 4.0596171,9.03125 9.03125,9.03125 l 72,0 c 4.971633,0 9.03125,-4.059617 9.03125,-9.03125 l 0,-71 c 0,-4.971633 -4.059617,-9.03125 -9.03125,-9.03125 l -72,0 z"
       transform="scale(1,-1)" />
    <path
       sodipodi:type="inkscape:offset"
       inkscape:radius="0.98962283"
       inkscape:original="M 12 -92 C 8.122 -92 5 -88.878 5 -85 L 5 -14 C 5 -10.122 8.122 -7 12 -7 L 84 -7 C 87.878 -7 91 -10.122 91 -14 L 91 -85 C 91 -88.878 87.878 -92 84 -92 L 12 -92 z "
       style="opacity:0.2;fill:url(#linearGradient3772);fill-opacity:1;fill-rule:nonzero;stroke:none;display:inline"
       id="path3770"
       d="m 12,-93 c -4.4091333,0 -8,3.590867 -8,8 l 0,71 c 0,4.4091333 3.5908667,8 8,8 l 72,0 c 4.409133,0 8,-3.5908667 8,-8 l 0,-71 c 0,-4.409133 -3.590867,-8 -8,-8 l -72,0 z"
       transform="scale(1,-1)" />
    <rect
       style="opacity:0.3;fill:url(#linearGradient3725);fill-opacity:1;fill-rule:nonzero;stroke:none;display:inline"
       id="rect3723"
       width="86"
       height="85"
       x="5"
       y="-92"
       rx="7"
       ry="7"
       transform="scale(1,-1)" />
    <rect
       transform="scale(1,-1)"
       ry="6"
       rx="6"
       y="-91"
       x="6"
       height="84"
       width="84"
       id="rect3716"
       style="opacity:0.45;fill:url(#linearGradient3721);fill-opacity:1;fill-rule:nonzero;stroke:none;display:inline" />
  </g>
  <g
     inkscape:label="Button"
     inkscape:groupmode="layer"
     id="layer1"
     style="display:inline"
     sodipodi:insensitive="true">
    <rect
       style="fill:url(#linearGradient3706);fill-opacity:1;fill-rule:nonzero;stroke:none"
       id="rect2419"
       width="84"
       height="84"
       x="6"
       y="6"
       rx="6"
       ry="6" />
    <path
       style="opacity:0.5;fill:url(#linearGradient3923);fill-opacity:1;fill-rule:nonzero;stroke:none;display:inline"
       d="M 12,6 C 8.676,6 6,8.676 6,12 l 0,2 0,68 0,2 c 0,0.334721 0.04135,0.6507 0.09375,0.96875 0.0487,0.295596 0.09704,0.596915 0.1875,0.875 0.0099,0.03038 0.02089,0.0636 0.03125,0.09375 0.09886,0.287771 0.23488,0.547452 0.375,0.8125 0.144592,0.273507 0.315616,0.535615 0.5,0.78125 0.184384,0.245635 0.373776,0.473472 0.59375,0.6875 0.439947,0.428056 0.94291,0.814526 1.5,1.09375 0.278545,0.139612 0.573473,0.246947 0.875,0.34375 -0.256202,-0.100222 -0.486711,-0.236272 -0.71875,-0.375 -0.0074,-0.0044 -0.02387,0.0045 -0.03125,0 -0.03193,-0.0193 -0.06229,-0.04251 -0.09375,-0.0625 -0.120395,-0.0767 -0.231023,-0.163513 -0.34375,-0.25 -0.106173,-0.0808 -0.213281,-0.161112 -0.3125,-0.25 C 8.47832,88.557317 8.30879,88.373362 8.15625,88.1875 8.048671,88.057245 7.937856,87.922215 7.84375,87.78125 7.81866,87.74287 7.8053,87.69538 7.78125,87.65625 7.71649,87.553218 7.651022,87.451733 7.59375,87.34375 7.492742,87.149044 7.388075,86.928049 7.3125,86.71875 7.3045,86.69694 7.28891,86.6782 7.28125,86.65625 7.24942,86.5643 7.24545,86.469419 7.21875,86.375 7.188418,86.268382 7.148361,86.171969 7.125,86.0625 7.052121,85.720988 7,85.364295 7,85 L 7,83 7,15 7,13 C 7,10.218152 9.218152,8 12,8 l 2,0 68,0 2,0 c 2.781848,0 5,2.218152 5,5 l 0,2 0,68 0,2 c 0,0.364295 -0.05212,0.720988 -0.125,1.0625 -0.04415,0.206893 -0.08838,0.397658 -0.15625,0.59375 -0.0077,0.02195 -0.0233,0.04069 -0.03125,0.0625 -0.06274,0.173739 -0.138383,0.367449 -0.21875,0.53125 -0.04158,0.0828 -0.07904,0.169954 -0.125,0.25 -0.0546,0.09721 -0.126774,0.18835 -0.1875,0.28125 -0.09411,0.140965 -0.204921,0.275995 -0.3125,0.40625 -0.143174,0.17445 -0.303141,0.346998 -0.46875,0.5 -0.01117,0.0102 -0.01998,0.02115 -0.03125,0.03125 -0.138386,0.125556 -0.285091,0.234436 -0.4375,0.34375 -0.102571,0.07315 -0.204318,0.153364 -0.3125,0.21875 -0.0074,0.0045 -0.02384,-0.0044 -0.03125,0 -0.232039,0.138728 -0.462548,0.274778 -0.71875,0.375 0.301527,-0.0968 0.596455,-0.204138 0.875,-0.34375 0.55709,-0.279224 1.060053,-0.665694 1.5,-1.09375 0.219973,-0.214028 0.409366,-0.441865 0.59375,-0.6875 0.184384,-0.245635 0.355408,-0.507743 0.5,-0.78125 0.14012,-0.265048 0.276135,-0.524729 0.375,-0.8125 0.01041,-0.03078 0.02133,-0.06274 0.03125,-0.09375 0.09046,-0.278085 0.1388,-0.579404 0.1875,-0.875 C 89.95865,84.6507 90,84.334721 90,84 l 0,-2 0,-68 0,-2 C 90,8.676 87.324,6 84,6 L 12,6 z"
       id="rect3728" />
    <path
       id="path3615"
       d="M 12,90 C 8.676,90 6,87.324 6,84 L 6,82 6,14 6,12 c 0,-0.334721 0.04135,-0.6507 0.09375,-0.96875 0.0487,-0.295596 0.09704,-0.596915 0.1875,-0.875 C 6.29113,10.12587 6.302142,10.09265 6.3125,10.0625 6.411365,9.774729 6.5473802,9.515048 6.6875,9.25 6.8320918,8.976493 7.0031161,8.714385 7.1875,8.46875 7.3718839,8.223115 7.5612765,7.995278 7.78125,7.78125 8.221197,7.353194 8.72416,6.966724 9.28125,6.6875 9.559795,6.547888 9.8547231,6.440553 10.15625,6.34375 9.9000482,6.443972 9.6695391,6.580022 9.4375,6.71875 c -0.00741,0.0044 -0.023866,-0.0045 -0.03125,0 -0.031933,0.0193 -0.062293,0.04251 -0.09375,0.0625 -0.120395,0.0767 -0.2310226,0.163513 -0.34375,0.25 -0.1061728,0.0808 -0.2132809,0.161112 -0.3125,0.25 C 8.4783201,7.442683 8.3087904,7.626638 8.15625,7.8125 8.0486711,7.942755 7.9378561,8.077785 7.84375,8.21875 7.818661,8.25713 7.805304,8.30462 7.78125,8.34375 7.716487,8.446782 7.6510225,8.548267 7.59375,8.65625 7.4927417,8.850956 7.3880752,9.071951 7.3125,9.28125 7.30454,9.30306 7.288911,9.3218 7.28125,9.34375 7.2494249,9.4357 7.2454455,9.530581 7.21875,9.625 7.1884177,9.731618 7.1483606,9.828031 7.125,9.9375 7.0521214,10.279012 7,10.635705 7,11 l 0,2 0,68 0,2 c 0,2.781848 2.2181517,5 5,5 l 2,0 68,0 2,0 c 2.781848,0 5,-2.218152 5,-5 l 0,-2 0,-68 0,-2 C 89,10.635705 88.94788,10.279012 88.875,9.9375 88.83085,9.730607 88.78662,9.539842 88.71875,9.34375 88.71105,9.3218 88.69545,9.30306 88.6875,9.28125 88.62476,9.107511 88.549117,8.913801 88.46875,8.75 88.42717,8.6672 88.38971,8.580046 88.34375,8.5 88.28915,8.40279 88.216976,8.31165 88.15625,8.21875 88.06214,8.077785 87.951329,7.942755 87.84375,7.8125 87.700576,7.63805 87.540609,7.465502 87.375,7.3125 87.36383,7.3023 87.35502,7.29135 87.34375,7.28125 87.205364,7.155694 87.058659,7.046814 86.90625,6.9375 86.803679,6.86435 86.701932,6.784136 86.59375,6.71875 c -0.0074,-0.0045 -0.02384,0.0044 -0.03125,0 -0.232039,-0.138728 -0.462548,-0.274778 -0.71875,-0.375 0.301527,0.0968 0.596455,0.204138 0.875,0.34375 0.55709,0.279224 1.060053,0.665694 1.5,1.09375 0.219973,0.214028 0.409366,0.441865 0.59375,0.6875 0.184384,0.245635 0.355408,0.507743 0.5,0.78125 0.14012,0.265048 0.276135,0.524729 0.375,0.8125 0.01041,0.03078 0.02133,0.06274 0.03125,0.09375 0.09046,0.278085 0.1388,0.579404 0.1875,0.875 C 89.95865,11.3493 90,11.665279 90,12 l 0,2 0,68 0,2 c 0,3.324 -2.676,6 -6,6 l -72,0 z"
       style="opacity:0.4;fill:url(#radialGradient2886);fill-opacity:1;fill-rule:nonzero;stroke:none;display:inline" />
    <path
       transform="matrix(0,-1.2727272,1.2726491,0,-44.6307,138.45454)"
       d="m 90.714283,72.785713 a 19.642857,19.642857 0 1 1 -39.285713,0 19.642857,19.642857 0 1 1 39.285713,0 z"
       sodipodi:ry="19.642857"
       sodipodi:rx="19.642857"
       sodipodi:cy="72.785713"
       sodipodi:cx="71.071426"
       id="path3887"
       style="opacity:0.6;fill:#ffffff;stroke:#ffffff;stroke-width:1.57147694;stroke-miterlimit:4;stroke-dasharray:none;display:inline;filter:url(#filter3898)"
       sodipodi:type="arc"
       clip-path="url(#clipPath3894)" />
    <rect
       style="color:#000000;fill:#ffffff;stroke:#000000;stroke-width:0.5;stroke-linecap:round;stroke-linejoin:miter;stroke-miterlimit:4;stroke-opacity:1;stroke-dasharray:none;stroke-dashoffset:8.6;marker:none;visibility:visible;display:inline;overflow:visible;enable-background:accumulate"
       id="rect3797"
       width="16"
       height="16"
       x="112"
       y="8" />
    <text
       xml:space="preserve"
       style="font-size:4px;font-style:normal;font-variant:normal;font-weight:normal;font-stretch:normal;text-align:start;line-height:125%;writing-mode:lr-tb;text-anchor:start;fill:#000000;fill-opacity:1;stroke:none;display:inline;font-family:Liberation Sans;-inkscape-font-specification:Liberation Sans"
       x="131.39261"
       y="11.969256"
       id="text3799"
       sodipodi:linespacing="125%"><tspan
         sodipodi:role="line"
         id="tspan3801"
         x="131.39261"
         y="11.969256">Width: 2px</tspan><tspan
         sodipodi:role="line"
         x="131.39261"
         y="16.969257"
         id="tspan3803">Blur: 12</tspan><tspan
         sodipodi:role="line"
         x="131.39261"
         y="21.969257"
         id="tspan3807">Opacity: 60</tspan></text>
    <rect
       ry="6"
       rx="6"
       y="6"
       x="-94"
       height="84"
       width="84"
       id="rect3881"
       style="fill:#ff00ff;fill-opacity:1;fill-rule:nonzero;stroke:none" />
  </g>
  <g
     inkscape:groupmode="layer"
     id="layer4"
     inkscape:label="Highlight"
     sodipodi:insensitive="true">
    <rect
       style="opacity:0.5;fill:url(#linearGradient2965);fill-opacity:1;fill-rule:nonzero;stroke:#ffffff;stroke-width:0.5;stroke-linecap:round;stroke-linejoin:miter;stroke-miterlimit:4;stroke-opacity:1;stroke-dasharray:none;stroke-dashoffset:0;display:inline;filter:url(#filter3794)"
       id="rect3171"
       width="66"
       height="66"
       x="15"
       y="15"
       rx="12"
       ry="12"
       clip-path="url(#clipPath3613)" />
  </g>
  <g
     inkscape:groupmode="layer"
     id="layer3"
     inkscape:label="Symbol">
    <path
       sodipodi:type="arc"
       style="fill:url(#linearGradient3188-6);fill-opacity:1.0;stroke:none;display:inline"
       id="path3836"
       sodipodi:cx="71.071426"
       sodipodi:cy="72.785713"
       sodipodi:rx="19.642857"
       sodipodi:ry="19.642857"
       d="m 90.714283,72.785713 a 19.642857,19.642857 0 1 1 -39.285713,0 19.642857,19.642857 0 1 1 39.285713,0 z"
       transform="matrix(0,-1.2727272,1.2726491,0,-44.630696,138.45454)" />
    <path
       style="opacity:0.05;fill:#000000;fill-opacity:1;stroke:none;display:inline"
       d="m 47.999975,23.000004 c -13.806271,0 -24.998464,11.19288 -24.998464,24.999997 C 23.001511,61.80712 34.193704,73 47.999975,73 c 13.80627,0 24.998463,-11.19288 24.998463,-24.999999 0,-13.807117 -11.192193,-24.999997 -24.998463,-24.999997 z m 0,3.124999 c 12.080484,0 21.873655,9.793773 21.873655,21.874998 0,12.081227 -9.793171,21.874999 -21.873655,21.874999 -12.080485,0 -21.873656,-9.793772 -21.873656,-21.874999 0,-12.081225 9.793171,-21.874998 21.873656,-21.874998 z"
       id="path3802" />
    <path
       style="opacity:0.1;fill:#000000;fill-opacity:1;stroke:none;display:inline"
       d="m 47.999975,23.000004 c -13.806271,0 -24.998464,11.19288 -24.998464,24.999997 C 23.001511,61.80712 34.193704,73 47.999975,73 c 13.80627,0 24.998463,-11.19288 24.998463,-24.999999 0,-13.807117 -11.192193,-24.999997 -24.998463,-24.999997 z m 0,2.083332 c 12.655746,0 22.915258,10.260142 22.915258,22.916665 0,12.656524 -10.259512,22.916666 -22.915258,22.916666 -12.655747,0 -22.915259,-10.260142 -22.915259,-22.916666 0,-12.656523 10.259512,-22.916665 22.915259,-22.916665 z"
       id="path3798" />
    <path
       style="opacity:0.07999998;fill:#000000;fill-opacity:1;stroke:none;display:inline"
       d="m 47.999975,23.000004 c -13.806271,0 -24.998464,11.19288 -24.998464,24.999997 C 23.001511,61.80712 34.193704,73 47.999975,73 c 13.80627,0 24.998463,-11.19288 24.998463,-24.999999 0,-13.807117 -11.192193,-24.999997 -24.998463,-24.999997 z m 0,1.041667 c 13.231007,0 23.95686,10.726511 23.95686,23.95833 0,13.231821 -10.725853,23.958332 -23.95686,23.958332 -13.231008,0 -23.956861,-10.726511 -23.956861,-23.958332 0,-13.231819 10.725853,-23.95833 23.956861,-23.95833 z"
       id="path3794" />
    <g
       style="display:inline"
       id="g3866">
      <path
         id="path3763"
         d="M 39.90625,29.9375 A 1.0480634,1.0480634 0 0 0 38.9375,31 l 0,16.9375 -5.59375,0 a 1.0480634,1.0480634 0 0 0 -0.8125,1.71875 l 14.65625,18 a 1.0480634,1.0480634 0 0 0 1.625,0 l 14.65625,-18 a 1.0480634,1.0480634 0 0 0 -0.8125,-1.71875 l -5.59375,0 0,-16.9375 A 1.0480634,1.0480634 0 0 0 56,29.9375 l -16,0 a 1.0480634,1.0480634 0 0 0 -0.09375,0 z M 40,30 56,30 56,48 62.65625,48 48,66 33.34375,48 40,48 40,30 z"
         style="opacity:0.1;fill:url(#linearGradient3849);fill-opacity:1;fill-rule:nonzero;stroke:none;display:inline" />
      <path
         id="path3772"
         d="m 55.90625,29 c -0.141597,-0.0024 -0.296606,0.0059 -0.4375,0.03125 l -15.8125,0 c -1.219937,0.199362 -1.796456,1.466477 -1.625,2.59375 l 0,15.40625 C 36.294071,47.07162 34.536901,46.94959 32.8125,47.09375 31.340365,47.434111 30.885011,49.516423 32,50.5 c 4.876521,5.965328 9.725208,11.971747 14.625,17.90625 0.920978,0.93346 2.507698,0.60473 3.15625,-0.46875 L 64.1875,50.25 c 1.094987,-1.210834 0.01899,-3.42092 -1.625,-3.21875 l -4.59375,0 0,-16.3125 C 57.848228,29.687122 56.89743,29.016564 55.90625,29 z M 40,30 56,30 56,48 62.65625,48 48,66 33.34375,48 40,48 40,30 z"
         style="opacity:0.05;fill:url(#linearGradient3864);fill-opacity:1;fill-rule:nonzero;stroke:none;display:inline" />
      <path
         id="path3741"
         d="M 33.34375,49 48,67 62.65625,49 61.84375,49 48,66 34.15625,49 l -0.8125,0 z"
         style="opacity:0.3;fill:url(#linearGradient3861);fill-opacity:1;fill-rule:nonzero;stroke:none;display:inline" />
      <path
         style="fill:url(#linearGradient3858);fill-opacity:1;fill-rule:nonzero;stroke:none;display:inline"
         d="m 40.000003,30.000004 0,17.999996 -6.666667,0 14.666667,18 14.666666,-18 -6.666667,0 0,-17.999996 -15.999999,0 z"
         id="path3867"
         sodipodi:nodetypes="cccccccc" />
    </g>
    <path
       style="opacity:0.2;fill:#000000;fill-opacity:1;stroke:none;display:inline"
       d="m 47.999975,23.000004 c -13.806271,0 -24.998464,11.19288 -24.998464,24.999997 0,0.172482 -0.0034,0.349185 0,0.520834 0.274815,-13.568816 11.364664,-24.479164 24.998464,-24.479164 13.633799,0 24.723648,10.910348 24.998463,24.479164 0.0035,-0.171649 0,-0.348352 0,-0.520834 0,-13.807117 -11.192193,-24.999997 -24.998463,-24.999997 z"
       id="path3811" />
    <path
       style="fill:#ffffff;fill-opacity:1;stroke:none;display:inline"
       d="m 23,48.5 c -0.0033,0.167487 0,0.331721 0,0.5 0,13.807118 11.19373,25 25,25 13.80627,0 25,-11.192882 25,-25 0,-0.168279 0.0033,-0.332513 0,-0.5 C 72.731766,62.074632 61.638001,73 48,73 34.361999,73 23.268234,62.074632 23,48.5 z"
       id="path3872" />
  </g>
</svg>
