<?xml version="1.0" encoding="UTF-8" standalone="no"?>
<!-- Created with Inkscape (http://www.inkscape.org/) -->

<svg
   xmlns:dc="http://purl.org/dc/elements/1.1/"
   xmlns:cc="http://creativecommons.org/ns#"
   xmlns:rdf="http://www.w3.org/1999/02/22-rdf-syntax-ns#"
   xmlns:svg="http://www.w3.org/2000/svg"
   xmlns="http://www.w3.org/2000/svg"
   xmlns:xlink="http://www.w3.org/1999/xlink"
   xmlns:sodipodi="http://sodipodi.sourceforge.net/DTD/sodipodi-0.dtd"
   xmlns:inkscape="http://www.inkscape.org/namespaces/inkscape"
   width="96"
   height="96"
   id="svg2408"
   sodipodi:version="0.32"
   inkscape:version="0.47 r22583"
   version="1.0"
   sodipodi:docname="text-x-makefile.svg"
   inkscape:output_extension="org.inkscape.output.svg.inkscape"
   style="display:inline">
  <defs
     id="defs2410">
    <linearGradient
       id="linearGradient3210">
      <stop
         style="stop-color:#ffffff;stop-opacity:0.39024389;"
         offset="0"
         id="stop3212" />
      <stop
         style="stop-color:#000000;stop-opacity:0.2682927;"
         offset="1"
         id="stop3214" />
    </linearGradient>
    <linearGradient
       id="linearGradient3174">
      <stop
         style="stop-color:#c30000;stop-opacity:1;"
         offset="0"
         id="stop3176" />
      <stop
         style="stop-color:#f12300;stop-opacity:1;"
         offset="1"
         id="stop3178" />
    </linearGradient>
    <linearGradient
       id="ButtonShadow"
       gradientTransform="scale(1.0058652,0.994169)"
       x1="45.447727"
       y1="92.539597"
       x2="45.447727"
       y2="7.0165396"
       gradientUnits="userSpaceOnUse">
      <stop
         style="stop-color:#000000;stop-opacity:1;"
         offset="0"
         id="stop3750" />
      <stop
         style="stop-color:#000000;stop-opacity:0.58823532;"
         offset="1"
         id="stop3752" />
    </linearGradient>
    <linearGradient
       inkscape:collect="always"
       id="linearGradient3737">
      <stop
         style="stop-color:#ffffff;stop-opacity:1;"
         offset="0"
         id="stop3739" />
      <stop
         style="stop-color:#ffffff;stop-opacity:0;"
         offset="1"
         id="stop3741" />
    </linearGradient>
    <linearGradient
       id="linearGradient3700">
      <stop
         style="stop-color:#ebebeb;stop-opacity:1;"
         offset="0"
         id="stop3702" />
      <stop
         style="stop-color:#fafafa;stop-opacity:1;"
         offset="1"
         id="stop3704" />
    </linearGradient>
    <inkscape:perspective
       sodipodi:type="inkscape:persp3d"
       inkscape:vp_x="0 : 526.18109 : 1"
       inkscape:vp_y="0 : 1000 : 0"
       inkscape:vp_z="744.09448 : 526.18109 : 1"
       inkscape:persp3d-origin="372.04724 : 350.78739 : 1"
       id="perspective2416" />
    <linearGradient
       inkscape:collect="always"
       xlink:href="#linearGradient3700"
       id="linearGradient3706"
       x1="48"
       y1="90"
       x2="48"
       y2="5.9877172"
       gradientUnits="userSpaceOnUse" />
    <linearGradient
       inkscape:collect="always"
       xlink:href="#linearGradient3737"
       id="linearGradient3743"
       x1="36.357143"
       y1="6"
       x2="36.357143"
       y2="63.893143"
       gradientUnits="userSpaceOnUse" />
    <filter
       inkscape:collect="always"
       id="filter3174"
       color-interpolation-filters="sRGB">
      <feGaussianBlur
         inkscape:collect="always"
         stdDeviation="1.71"
         id="feGaussianBlur3176" />
    </filter>
    <linearGradient
       inkscape:collect="always"
       xlink:href="#linearGradient3737"
       id="linearGradient3188"
       gradientUnits="userSpaceOnUse"
       x1="36.357143"
       y1="6"
       x2="36.357143"
       y2="63.893143" />
    <linearGradient
       inkscape:collect="always"
       xlink:href="#linearGradient3174"
       id="linearGradient3180"
       x1="48"
       y1="84"
       x2="48"
       y2="12"
       gradientUnits="userSpaceOnUse" />
    <linearGradient
       inkscape:collect="always"
       xlink:href="#ButtonShadow"
       id="linearGradient3195"
       x1="49.142857"
       y1="84"
       x2="49.142857"
       y2="11.990931"
       gradientUnits="userSpaceOnUse"
       gradientTransform="translate(0,1)" />
    <linearGradient
       inkscape:collect="always"
       xlink:href="#linearGradient3210"
       id="linearGradient3216"
       x1="12"
       y1="48"
       x2="84"
       y2="48"
       gradientUnits="userSpaceOnUse"
       gradientTransform="matrix(0,1,-1,0,96,0)" />
    <inkscape:perspective
       id="perspective3719"
       inkscape:persp3d-origin="0.5 : 0.33333333 : 1"
       inkscape:vp_z="1 : 0.5 : 1"
       inkscape:vp_y="0 : 1000 : 0"
       inkscape:vp_x="0 : 0.5 : 1"
       sodipodi:type="inkscape:persp3d" />
    <linearGradient
       y2="90.238609"
       x2="32.251034"
       y1="6.1317081"
       x1="32.251034"
       gradientTransform="matrix(1.0238095,0,0,1.0119048,-1.1428571,-98.071429)"
       gradientUnits="userSpaceOnUse"
       id="linearGradient3026"
       xlink:href="#ButtonShadow-0"
       inkscape:collect="always" />
    <linearGradient
       id="ButtonShadow-0"
       gradientTransform="matrix(1.0058652,0,0,0.994169,100,0)"
       x1="45.447727"
       y1="92.539597"
       x2="45.447727"
       y2="7.0165396"
       gradientUnits="userSpaceOnUse">
      <stop
         style="stop-color:#000000;stop-opacity:1;"
         offset="0"
         id="stop3750-8" />
      <stop
         style="stop-color:#000000;stop-opacity:0.58823532;"
         offset="1"
         id="stop3752-5" />
    </linearGradient>
    <linearGradient
       inkscape:collect="always"
       xlink:href="#ButtonShadow-0"
       id="linearGradient3780"
       gradientUnits="userSpaceOnUse"
       gradientTransform="matrix(1.0238095,0,0,1.0119048,-1.1428571,-98.071429)"
       x1="32.251034"
       y1="6.1317081"
       x2="32.251034"
       y2="90.238609" />
    <linearGradient
       id="linearGradient3728"
       gradientTransform="matrix(1.0058652,0,0,0.994169,100,0)"
       x1="45.447727"
       y1="92.539597"
       x2="45.447727"
       y2="7.0165396"
       gradientUnits="userSpaceOnUse">
      <stop
         style="stop-color:#000000;stop-opacity:1;"
         offset="0"
         id="stop3730" />
      <stop
         style="stop-color:#000000;stop-opacity:0.58823532;"
         offset="1"
         id="stop3732" />
    </linearGradient>
    <linearGradient
       inkscape:collect="always"
       xlink:href="#ButtonShadow-0"
       id="linearGradient3772"
       gradientUnits="userSpaceOnUse"
       gradientTransform="matrix(1.0238095,0,0,1.0119048,-1.1428571,-98.071429)"
       x1="32.251034"
       y1="6.1317081"
       x2="32.251034"
       y2="90.238609" />
    <linearGradient
       id="linearGradient3735"
       gradientTransform="matrix(1.0058652,0,0,0.994169,100,0)"
       x1="45.447727"
       y1="92.539597"
       x2="45.447727"
       y2="7.0165396"
       gradientUnits="userSpaceOnUse">
      <stop
         style="stop-color:#000000;stop-opacity:1;"
         offset="0"
         id="stop3737" />
      <stop
         style="stop-color:#000000;stop-opacity:0.58823532;"
         offset="1"
         id="stop3739-1" />
    </linearGradient>
    <linearGradient
       inkscape:collect="always"
       xlink:href="#ButtonShadow-0"
       id="linearGradient3725"
       gradientUnits="userSpaceOnUse"
       gradientTransform="matrix(1.0238095,0,0,1.0119048,-1.1428571,-98.071429)"
       x1="32.251034"
       y1="6.1317081"
       x2="32.251034"
       y2="90.238609" />
    <linearGradient
       id="linearGradient3742"
       gradientTransform="matrix(1.0058652,0,0,0.994169,100,0)"
       x1="45.447727"
       y1="92.539597"
       x2="45.447727"
       y2="7.0165396"
       gradientUnits="userSpaceOnUse">
      <stop
         style="stop-color:#000000;stop-opacity:1;"
         offset="0"
         id="stop3744" />
      <stop
         style="stop-color:#000000;stop-opacity:0.58823532;"
         offset="1"
         id="stop3746" />
    </linearGradient>
    <linearGradient
       inkscape:collect="always"
       xlink:href="#ButtonShadow-0"
       id="linearGradient3721"
       gradientUnits="userSpaceOnUse"
       gradientTransform="translate(0,-97)"
       x1="32.251034"
       y1="6.1317081"
       x2="32.251034"
       y2="90.238609" />
    <linearGradient
       id="linearGradient3749"
       gradientTransform="matrix(1.0058652,0,0,0.994169,100,0)"
       x1="45.447727"
       y1="92.539597"
       x2="45.447727"
       y2="7.0165396"
       gradientUnits="userSpaceOnUse">
      <stop
         style="stop-color:#000000;stop-opacity:1;"
         offset="0"
         id="stop3751" />
      <stop
         style="stop-color:#000000;stop-opacity:0.58823532;"
         offset="1"
         id="stop3753" />
    </linearGradient>
    <linearGradient
       y2="90.238609"
       x2="32.251034"
       y1="6.1317081"
       x1="32.251034"
       gradientTransform="matrix(1.0238095,0,0,1.0119048,-1.1428571,-98.071429)"
       gradientUnits="userSpaceOnUse"
       id="linearGradient3760"
       xlink:href="#ButtonShadow-0"
       inkscape:collect="always" />
    <inkscape:perspective
       id="perspective3909"
       inkscape:persp3d-origin="0.5 : 0.33333333 : 1"
       inkscape:vp_z="1 : 0.5 : 1"
       inkscape:vp_y="0 : 1000 : 0"
       inkscape:vp_x="0 : 0.5 : 1"
       sodipodi:type="inkscape:persp3d" />
    <linearGradient
       inkscape:collect="always"
       xlink:href="#linearGradient3737-1"
       id="linearGradient3188-7"
       gradientUnits="userSpaceOnUse"
       x1="36.357143"
       y1="6"
       x2="36.357143"
       y2="63.893143" />
    <linearGradient
       inkscape:collect="always"
       id="linearGradient3737-1">
      <stop
         style="stop-color:#ffffff;stop-opacity:1;"
         offset="0"
         id="stop3739-9" />
      <stop
         style="stop-color:#ffffff;stop-opacity:0;"
         offset="1"
         id="stop3741-3" />
    </linearGradient>
    <radialGradient
       r="42"
       fy="90.171875"
       fx="48"
       cy="90.171875"
       cx="48"
       gradientTransform="matrix(1.1573129,0,0,0.99590774,-7.551021,0.1971319)"
       gradientUnits="userSpaceOnUse"
       id="radialGradient2886"
       xlink:href="#linearGradient3737-0"
       inkscape:collect="always" />
    <linearGradient
       inkscape:collect="always"
       id="linearGradient3737-0">
      <stop
         style="stop-color:#ffffff;stop-opacity:1;"
         offset="0"
         id="stop3739-6" />
      <stop
         style="stop-color:#ffffff;stop-opacity:0;"
         offset="1"
         id="stop3741-0" />
    </linearGradient>
    <linearGradient
       y2="63.893143"
       x2="36.357143"
       y1="6"
       x1="36.357143"
       gradientUnits="userSpaceOnUse"
       id="linearGradient3923"
       xlink:href="#linearGradient3737-1"
       inkscape:collect="always" />
    <inkscape:perspective
       id="perspective3819"
       inkscape:persp3d-origin="0.5 : 0.33333333 : 1"
       inkscape:vp_z="1 : 0.5 : 1"
       inkscape:vp_y="0 : 1000 : 0"
       inkscape:vp_x="0 : 0.5 : 1"
       sodipodi:type="inkscape:persp3d" />
    <inkscape:perspective
       id="perspective2928"
       inkscape:persp3d-origin="0.5 : 0.33333333 : 1"
       inkscape:vp_z="1 : 0.5 : 1"
       inkscape:vp_y="0 : 1000 : 0"
       inkscape:vp_x="0 : 0.5 : 1"
       sodipodi:type="inkscape:persp3d" />
    <linearGradient
       inkscape:collect="always"
       xlink:href="#linearGradient3697"
       id="linearGradient3661"
       gradientUnits="userSpaceOnUse"
       gradientTransform="translate(-125,0.65261)"
       x1="71.671646"
       y1="62.025059"
       x2="71.671646"
       y2="26.413651" />
    <linearGradient
       id="linearGradient3697">
      <stop
         style="stop-color:#bababa;stop-opacity:1;"
         offset="0"
         id="stop3699" />
      <stop
         style="stop-color:#d2d2d2;stop-opacity:1;"
         offset="1"
         id="stop3701" />
    </linearGradient>
    <linearGradient
       inkscape:collect="always"
       xlink:href="#linearGradient3697"
       id="linearGradient3707"
       gradientUnits="userSpaceOnUse"
       gradientTransform="matrix(1.3333333,0,0,1.3333333,-49.401545,-10.129853)"
       x1="71.671646"
       y1="62.025059"
       x2="71.671646"
       y2="26.413651" />
    <linearGradient
       inkscape:collect="always"
       xlink:href="#linearGradient3697"
       id="linearGradient3709"
       gradientUnits="userSpaceOnUse"
       gradientTransform="matrix(1.3333333,0,0,1.3333333,-49.401545,-11.129853)"
       x1="71.671646"
       y1="62.025059"
       x2="71.671646"
       y2="26.413651" />
    <linearGradient
       inkscape:collect="always"
       xlink:href="#linearGradient3697"
       id="linearGradient3714"
       gradientUnits="userSpaceOnUse"
       gradientTransform="matrix(1.3333333,0,0,1.3333333,-49.401545,-10.129853)"
       x1="71.671646"
       y1="62.025059"
       x2="71.671646"
       y2="26.413651" />
    <linearGradient
       inkscape:collect="always"
       xlink:href="#linearGradient3697"
       id="linearGradient3718"
       gradientUnits="userSpaceOnUse"
       gradientTransform="matrix(1.3333333,0,0,1.3333333,-49.401545,-11.129853)"
       x1="71.671646"
       y1="62.025059"
       x2="71.671646"
       y2="26.413651" />
    <linearGradient
       inkscape:collect="always"
       xlink:href="#linearGradient3697"
       id="linearGradient3723"
       gradientUnits="userSpaceOnUse"
       gradientTransform="matrix(1.3333333,0,0,1.3333333,-150.40155,-11.129853)"
       x1="71.671646"
       y1="62.025059"
       x2="71.671646"
       y2="26.413651" />
    <clipPath
       clipPathUnits="userSpaceOnUse"
       id="clipPath3730">
      <path
         style="fill:#ff00ff;fill-opacity:1;fill-rule:nonzero;stroke:none"
         d="m -88,6 c -3.324,0 -6,2.676 -6,6 l 0,72 c 0,3.324 2.676,6 6,6 l 72,0 c 3.324,0 6,-2.676 6,-6 l 0,-72 c 0,-3.324 -2.676,-6 -6,-6 l -72,0 z m 38.65625,18 c 1.645696,4.7e-5 3.029386,0.559154 4.1875,1.65625 1.178391,1.097186 1.74998,2.424666 1.75,3.96875 -2e-5,1.544168 -0.571609,2.871646 -1.75,3.96875 -1.158114,1.076862 -2.541804,1.625035 -4.1875,1.625 -1.645727,3.5e-5 -3.071601,-0.548138 -4.25,-1.625 -1.178423,-1.097104 -1.750011,-2.424582 -1.75,-3.96875 -1.1e-5,-1.544084 0.571577,-2.871564 1.75,-3.96875 1.178399,-1.097096 2.604273,-1.656203 4.25,-1.65625 z m -5.59375,16.25 c 2.417762,3.1e-5 4.293416,0.602866 5.59375,1.78125 1.320617,1.158121 1.93748,2.693322 1.9375,4.5625 -2.6e-5,0.386058 -0.02343,1.056035 -0.125,2.03125 -0.08128,0.975259 -0.256208,1.843571 -0.5,2.65625 l -2.5,8.875 c -0.203189,0.711117 -0.368725,1.523222 -0.53125,2.4375 -0.16256,0.914292 -0.250015,1.595204 -0.25,2.0625 -1.5e-5,1.178425 0.252982,2.01084 0.78125,2.4375 0.528239,0.426674 1.449666,0.625 2.75,0.625 0.609506,0 1.321667,-0.109304 2.09375,-0.3125 0.772042,-0.223499 1.31083,-0.399946 1.65625,-0.5625 l -0.65625,2.75 c -2.011448,0.792375 -3.645038,1.374901 -4.84375,1.78125 -1.198745,0.426673 -2.571501,0.625 -4.15625,0.625 -2.438104,0 -4.357487,-0.571587 -5.71875,-1.75 -1.340957,-1.198724 -2.000004,-2.702678 -2,-4.53125 -5e-6,-0.711104 0.0859,-1.456059 0.1875,-2.1875 0.101587,-0.751727 0.214004,-1.596634 0.4375,-2.53125 l 2.5,-8.875 c 0.223484,-0.853313 0.420271,-1.654483 0.5625,-2.40625 0.16253,-0.772041 0.249993,-1.463886 0.25,-2.09375 -8e-6,-1.137753 -0.251457,-1.927989 -0.71875,-2.375 -0.467307,-0.446959 -1.335622,-0.718724 -2.65625,-0.71875 -0.650163,2.6e-5 -1.30921,0.140615 -2,0.34375 -0.670477,0.203201 -1.262383,0.41092 -1.75,0.59375 l 0.65625,-2.75 c 1.645711,-0.670448 3.246504,-1.251419 4.75,-1.71875 1.503484,-0.487589 2.909037,-0.749969 4.25,-0.75 z"
         id="path3732" />
    </clipPath>
    <clipPath
       clipPathUnits="userSpaceOnUse"
       id="clipPath3820">
      <path
         style="fill:#ff00ff;fill-opacity:1;fill-rule:nonzero;stroke:none"
         d="m -88,6 c -3.324,0 -6,2.676 -6,6 l 0,72 c 0,3.324 2.676,6 6,6 l 72,0 c 3.324,0 6,-2.676 6,-6 l 0,-72 c 0,-3.324 -2.676,-6 -6,-6 l -72,0 z m 36,18 c 13.254834,0 24,10.745166 24,24 0,13.254834 -10.745166,24 -24,24 -13.254834,0 -24,-10.745166 -24,-24 0,-13.254834 10.745166,-24 24,-24 z m 0,4 c -11.045695,0 -20,8.954305 -20,20 0,11.045695 8.954305,20 20,20 11.045695,0 20,-8.954305 20,-20 0,-11.045695 -8.954305,-20 -20,-20 z m 0,6 c 3.865993,0 7.372748,1.560248 9.90625,4.09375 L -44.9375,40.9375 C -46.747144,39.127856 -49.238576,38 -52,38 c -5.522848,0 -10,4.477152 -10,10 0,5.522848 4.477152,10 10,10 2.761424,0 5.252856,-1.127856 7.0625,-2.9375 l 2.84375,2.84375 C -44.627252,60.439752 -48.134007,62 -52,62 c -7.731987,0 -14,-6.268013 -14,-14 0,-7.731987 6.268013,-14 14,-14 z"
         id="path3822" />
    </clipPath>
    <linearGradient
       inkscape:collect="always"
       xlink:href="#linearGradient3697"
       id="linearGradient3845"
       gradientUnits="userSpaceOnUse"
       x1="48"
       y1="72"
       x2="48"
       y2="23.989584" />
    <clipPath
       clipPathUnits="userSpaceOnUse"
       id="clipPath3875">
      <path
         style="fill:#ff00ff;fill-opacity:1;fill-rule:nonzero;stroke:none"
         d="m -88,6 c -3.324,0 -6,2.676 -6,6 l 0,72 c 0,3.324 2.676,6 6,6 l 72,0 c 3.324,0 6,-2.676 6,-6 l 0,-72 c 0,-3.324 -2.676,-6 -6,-6 l -72,0 z m 36,18 c 13.254834,0 24,10.745166 24,24 0,13.254834 -10.745166,24 -24,24 -13.254834,0 -24,-10.745166 -24,-24 0,-13.254834 10.745166,-24 24,-24 z m 0,6 c -9.941126,0 -18,8.058874 -18,18 0,9.941125 8.058874,18 18,18 9.941125,0 18,-8.058875 18,-18 0,-9.941126 -8.058875,-18 -18,-18 z m 0.46875,4 c 1.776535,2.8e-5 3.330255,0.189194 4.65625,0.5625 1.338829,0.37336 2.503211,0.911477 3.46875,1.59375 0.978367,0.66945 1.77542,1.448127 2.40625,2.375 0.643652,0.914045 1.139513,1.924145 1.5,3.03125 l -5,1.375 c -0.180252,-0.579291 -0.470438,-1.128414 -0.84375,-1.65625 -0.373354,-0.540669 -0.85821,-1.025525 -1.4375,-1.4375 -0.566456,-0.411932 -1.227605,-0.72413 -2,-0.96875 -0.772431,-0.257448 -1.646625,-0.406227 -2.625,-0.40625 -1.377485,2.3e-5 -2.571248,0.236948 -3.5625,0.6875 -0.991275,0.437723 -1.793832,1.082363 -2.4375,1.90625 -0.630813,0.823928 -1.097293,1.810148 -1.40625,2.96875 -0.296099,1.145764 -0.437507,2.4148 -0.4375,3.84375 -7e-6,1.416104 0.141401,2.721893 0.4375,3.90625 0.308957,1.171503 0.762563,2.181603 1.40625,3.03125 0.643668,0.849661 1.495851,1.523683 2.5,2 1.016999,0.476326 2.208894,0.718754 3.625,0.71875 1.068489,4e-6 2.008819,-0.172654 2.78125,-0.46875 0.785268,-0.308961 1.464794,-0.698299 2.03125,-1.1875 0.57929,-0.489189 1.032895,-1.038312 1.40625,-1.65625 0.386185,-0.617923 0.72413,-1.244187 0.96875,-1.875 l 4.9375,1.875 c -0.399108,0.978397 -0.918848,1.935235 -1.5625,2.875 -0.643703,0.939774 -1.440757,1.779083 -2.40625,2.5 -0.96554,0.720921 -2.098671,1.299426 -3.4375,1.75 C -47.888496,61.781451 -49.478968,62 -51.28125,62 c -2.355875,0 -4.399954,-0.336078 -6.125,-1.03125 -1.725065,-0.708045 -3.148383,-1.688762 -4.28125,-2.9375 -1.120004,-1.261604 -1.94644,-2.774936 -2.5,-4.5 -0.540692,-1.725048 -0.812502,-3.609342 -0.8125,-5.65625 -2e-6,-2.124122 0.271808,-4.037798 0.8125,-5.75 0.55356,-1.712163 1.39287,-3.177736 2.5,-4.375 1.10712,-1.21009 2.501056,-2.106296 4.1875,-2.75 1.699299,-0.656524 3.677243,-0.999972 5.96875,-1 z"
         id="path3877" />
    </clipPath>
    <inkscape:perspective
       id="perspective3010"
       inkscape:persp3d-origin="0.5 : 0.33333333 : 1"
       inkscape:vp_z="1 : 0.5 : 1"
       inkscape:vp_y="0 : 1000 : 0"
       inkscape:vp_x="0 : 0.5 : 1"
       sodipodi:type="inkscape:persp3d" />
    <linearGradient
       inkscape:collect="always"
       xlink:href="#linearGradient3697"
       id="linearGradient3919"
       x1="18.000002"
       y1="47.999897"
       x2="78.000175"
       y2="47.999897"
       gradientUnits="userSpaceOnUse"
       gradientTransform="matrix(0,-1,1,0,1.905e-4,95.999983)" />
    <linearGradient
       inkscape:collect="always"
       xlink:href="#linearGradient3697"
       id="linearGradient3925"
       gradientUnits="userSpaceOnUse"
       gradientTransform="matrix(0,-1,1,0,1.905e-4,96.999983)"
       x1="18.000002"
       y1="47.999897"
       x2="78.000175"
       y2="47.999897" />
    <linearGradient
       inkscape:collect="always"
       xlink:href="#linearGradient3697"
       id="linearGradient3927"
       gradientUnits="userSpaceOnUse"
       gradientTransform="matrix(0,-1,1,0,1.905e-4,95.999983)"
       x1="18.000002"
       y1="47.999897"
       x2="78.000175"
       y2="47.999897" />
    <linearGradient
       inkscape:collect="always"
       xlink:href="#linearGradient3697"
       id="linearGradient3932"
       gradientUnits="userSpaceOnUse"
       gradientTransform="matrix(0,-1,1,0,1.905e-4,96.999983)"
       x1="18.000002"
       y1="47.999897"
       x2="78.000175"
       y2="47.999897" />
    <linearGradient
       inkscape:collect="always"
       xlink:href="#linearGradient3697"
       id="linearGradient3936"
       gradientUnits="userSpaceOnUse"
       gradientTransform="matrix(0,-1,1,0,1.905e-4,95.999983)"
       x1="18.000002"
       y1="47.999897"
       x2="78.000175"
       y2="47.999897" />
    <linearGradient
       inkscape:collect="always"
       xlink:href="#linearGradient3697"
       id="linearGradient3941"
       gradientUnits="userSpaceOnUse"
       gradientTransform="matrix(0,-1,1,0,-99.999809,95.999983)"
       x1="18.000002"
       y1="47.999897"
       x2="78.000175"
       y2="47.999897" />
    <clipPath
       clipPathUnits="userSpaceOnUse"
       id="clipPath3948">
      <path
         style="fill:#ff00ff;fill-opacity:1;fill-rule:nonzero;stroke:none"
         d="m -88,6 c -3.324,0 -6,2.676 -6,6 l 0,72 c 0,3.324 2.676,6 6,6 l 72,0 c 3.324,0 6,-2.676 6,-6 l 0,-72 c 0,-3.324 -2.676,-6 -6,-6 l -72,0 z m 31.84375,12 8.3125,0 c 1.180648,0 2.125,0.986683 2.125,2.1875 l 0,4.21875 c 2.111082,0.562476 4.123141,1.426616 5.96875,2.5 l 3,-3.03125 c 0.849111,-0.849025 2.196406,-0.866085 3.03125,-0.03125 l 5.875,5.875 c 0.834848,0.834847 0.817863,2.18214 -0.03125,3.03125 l -3.03125,3 c 1.073391,1.845617 1.937528,3.857672 2.5,5.96875 l 4.21875,0 c 1.200827,0 2.1875,0.944356 2.1875,2.125 l 0,8.3125 c 0,1.180653 -0.986672,2.125 -2.1875,2.125 l -4.21875,0 c -0.562472,2.111079 -1.426609,4.123134 -2.5,5.96875 l 3.03125,3 c 0.849106,0.849111 0.866094,2.196416 0.03125,3.03125 l -5.875,5.875 c -0.834844,0.834921 -2.182138,0.81786 -3.03125,-0.03125 l -3,-3.03125 c -1.84561,1.073389 -3.857669,1.937515 -5.96875,2.5 l 0,4.21875 c 0,1.200828 -0.944354,2.1875 -2.125,2.1875 l -8.3125,0 c -1.180646,0 -2.125,-0.986673 -2.125,-2.1875 l 0,-4.21875 c -2.111081,-0.562485 -4.123141,-1.426613 -5.96875,-2.5 l -3,3.03125 c -0.849114,0.849022 -2.196407,0.866084 -3.03125,0.03125 l -5.875,-5.875 c -0.417421,-0.417418 -0.6298,-0.981833 -0.625,-1.53125 0.0047,-0.549422 0.231693,-1.075441 0.65625,-1.5 l 3.03125,-3 c -1.073391,-1.845614 -1.937528,-3.857673 -2.5,-5.96875 l -4.21875,0 c -1.200828,0 -2.1875,-0.944347 -2.1875,-2.125 l 0,-8.3125 c 0,-1.180643 0.986672,-2.125 2.1875,-2.125 l 4.21875,0 c 0.562472,-2.111076 1.426609,-4.123135 2.5,-5.96875 l -3.03125,-3 c -0.849107,-0.84911 -0.866093,-2.196403 -0.03125,-3.03125 l 5.875,-5.875 c 0.834843,-0.834932 2.182137,-0.817858 3.03125,0.03125 l 3,3.03125 c 1.845609,-1.073383 3.85767,-1.937533 5.96875,-2.5 l 0,-4.21875 c 0,-1.200817 0.944355,-2.1875 2.125,-2.1875 z M -52,38.9375 c -5.006511,0 -9.0625,4.055982 -9.0625,9.0625 0,5.006505 4.055989,9.0625 9.0625,9.0625 5.00651,0 9.0625,-4.055995 9.0625,-9.0625 0,-5.00652 -4.05599,-9.0625 -9.0625,-9.0625 z"
         id="path3950" />
    </clipPath>
    <filter
       inkscape:collect="always"
       id="filter3952"
       x="-0.14400021"
       width="1.2880004"
       y="-0.14399979"
       height="1.2879996">
      <feGaussianBlur
         inkscape:collect="always"
         stdDeviation="3.6000051"
         id="feGaussianBlur3954" />
    </filter>
    <inkscape:perspective
       id="perspective4468"
       inkscape:persp3d-origin="0.5 : 0.33333333 : 1"
       inkscape:vp_z="1 : 0.5 : 1"
       inkscape:vp_y="0 : 1000 : 0"
       inkscape:vp_x="0 : 0.5 : 1"
       sodipodi:type="inkscape:persp3d" />
    <linearGradient
       y2="138.66119"
       x2="48"
       y1="20.220806"
       x1="48"
       gradientUnits="userSpaceOnUse"
       id="linearGradient2890"
       xlink:href="#linearGradient3737-9"
       inkscape:collect="always" />
    <linearGradient
       inkscape:collect="always"
       id="linearGradient3737-9">
      <stop
         style="stop-color:#ffffff;stop-opacity:1;"
         offset="0"
         id="stop3739-2" />
      <stop
         style="stop-color:#ffffff;stop-opacity:0;"
         offset="1"
         id="stop3741-1" />
    </linearGradient>
    <clipPath
       clipPathUnits="userSpaceOnUse"
       id="clipPath3613">
      <rect
         ry="6"
         rx="6"
         y="6"
         x="6"
         height="84"
         width="84"
         id="rect3615"
         style="fill:#ffffff;fill-opacity:1;fill-rule:nonzero;stroke:none" />
    </clipPath>
    <filter
       color-interpolation-filters="sRGB"
       inkscape:collect="always"
       id="filter3794"
       x="-0.192"
       width="1.3839999"
       y="-0.192"
       height="1.3839999">
      <feGaussianBlur
         inkscape:collect="always"
         stdDeviation="5.28"
         id="feGaussianBlur3796" />
    </filter>
    <linearGradient
       y2="138.66119"
       x2="48"
       y1="20.220806"
       x1="48"
       gradientUnits="userSpaceOnUse"
       id="linearGradient4481"
       xlink:href="#linearGradient3737-9"
       inkscape:collect="always" />
  </defs>
  <sodipodi:namedview
     id="base"
     pagecolor="#ffffff"
     bordercolor="#666666"
     borderopacity="1.0"
     inkscape:pageopacity="0.0"
     inkscape:pageshadow="2"
     inkscape:zoom="2.4082824"
     inkscape:cx="-126.83594"
     inkscape:cy="11.129218"
     inkscape:document-units="px"
     inkscape:current-layer="layer1"
     showgrid="true"
     showborder="true"
     inkscape:showpageshadow="false"
     inkscape:window-width="1920"
     inkscape:window-height="1023"
     inkscape:window-x="0"
     inkscape:window-y="24"
     inkscape:window-maximized="1">
    <inkscape:grid
       type="xygrid"
       id="grid3732"
       visible="true"
       enabled="true" />
  </sodipodi:namedview>
  <metadata
     id="metadata2413">
    <rdf:RDF>
      <cc:Work
         rdf:about="">
        <dc:format>image/svg+xml</dc:format>
        <dc:type
           rdf:resource="http://purl.org/dc/dcmitype/StillImage" />
        <dc:title />
      </cc:Work>
    </rdf:RDF>
  </metadata>
  <g
     inkscape:groupmode="layer"
     id="layer2"
     inkscape:label="Blur Shadow"
     sodipodi:insensitive="true"
     style="display:none">
    <rect
       style="opacity:0.9;fill:url(#ButtonShadow);fill-opacity:1;fill-rule:nonzero;stroke:none;filter:url(#filter3174)"
       id="rect3745"
       width="86"
       height="85"
       x="5"
       y="7"
       rx="6"
       ry="6" />
  </g>
  <g
     inkscape:groupmode="layer"
     id="layer6"
     inkscape:label="Shadow"
     style="display:inline"
     sodipodi:insensitive="true">
    <path
       sodipodi:type="inkscape:offset"
       inkscape:radius="0.99097413"
       inkscape:original="M 12 -94.03125 C 7.028367 -94.03125 2.96875 -89.971633 2.96875 -85 L 2.96875 -14 C 2.96875 -9.0283671 7.0283671 -4.96875 12 -4.96875 L 84 -4.96875 C 88.971633 -4.96875 93.03125 -9.028367 93.03125 -14 L 93.03125 -85 C 93.03125 -89.971633 88.971633 -94.03125 84 -94.03125 L 12 -94.03125 z "
       style="opacity:0.07999998;fill:url(#linearGradient3760);fill-opacity:1;fill-rule:nonzero;stroke:none;display:inline"
       id="path3786"
       d="m 12,-95.03125 c -5.5110903,0 -10.03125,4.52016 -10.03125,10.03125 l 0,71 c 0,5.5110902 4.5201598,10.03125 10.03125,10.03125 l 72,0 c 5.51109,0 10.03125,-4.5201597 10.03125,-10.03125 l 0,-71 c 0,-5.51109 -4.52016,-10.03125 -10.03125,-10.03125 l -72,0 z"
       transform="scale(1,-1)" />
    <path
       sodipodi:type="inkscape:offset"
       inkscape:radius="1.0360184"
       inkscape:original="M 12 -93 C 7.5908667 -93 4 -89.409133 4 -85 L 4 -14 C 4 -9.5908667 7.5908667 -6 12 -6 L 84 -6 C 88.409133 -6 92 -9.5908667 92 -14 L 92 -85 C 92 -89.409133 88.409133 -93 84 -93 L 12 -93 z "
       style="opacity:0.1;fill:url(#linearGradient3780);fill-opacity:1;fill-rule:nonzero;stroke:none;display:inline"
       id="path3778"
       d="m 12,-94.03125 c -4.971633,0 -9.03125,4.059617 -9.03125,9.03125 l 0,71 c 0,4.9716329 4.0596171,9.03125 9.03125,9.03125 l 72,0 c 4.971633,0 9.03125,-4.059617 9.03125,-9.03125 l 0,-71 c 0,-4.971633 -4.059617,-9.03125 -9.03125,-9.03125 l -72,0 z"
       transform="scale(1,-1)" />
    <path
       sodipodi:type="inkscape:offset"
       inkscape:radius="0.98962283"
       inkscape:original="M 12 -92 C 8.122 -92 5 -88.878 5 -85 L 5 -14 C 5 -10.122 8.122 -7 12 -7 L 84 -7 C 87.878 -7 91 -10.122 91 -14 L 91 -85 C 91 -88.878 87.878 -92 84 -92 L 12 -92 z "
       style="opacity:0.2;fill:url(#linearGradient3772);fill-opacity:1;fill-rule:nonzero;stroke:none;display:inline"
       id="path3770"
       d="m 12,-93 c -4.4091333,0 -8,3.590867 -8,8 l 0,71 c 0,4.4091333 3.5908667,8 8,8 l 72,0 c 4.409133,0 8,-3.5908667 8,-8 l 0,-71 c 0,-4.409133 -3.590867,-8 -8,-8 l -72,0 z"
       transform="scale(1,-1)" />
    <rect
       style="opacity:0.3;fill:url(#linearGradient3725);fill-opacity:1;fill-rule:nonzero;stroke:none;display:inline"
       id="rect3723"
       width="86"
       height="85"
       x="5"
       y="-92"
       rx="7"
       ry="7"
       transform="scale(1,-1)" />
    <rect
       transform="scale(1,-1)"
       ry="6"
       rx="6"
       y="-91"
       x="6"
       height="84"
       width="84"
       id="rect3716"
       style="opacity:0.45;fill:url(#linearGradient3721);fill-opacity:1;fill-rule:nonzero;stroke:none;display:inline" />
  </g>
  <g
     inkscape:label="Button"
     inkscape:groupmode="layer"
     id="layer1"
     style="display:inline">
    <rect
       style="fill:url(#linearGradient3706);fill-opacity:1;fill-rule:nonzero;stroke:none"
       id="rect2419"
       width="84"
       height="84"
       x="6"
       y="6"
       rx="6"
       ry="6" />
    <path
       style="opacity:0.5;fill:url(#linearGradient3923);fill-opacity:1;fill-rule:nonzero;stroke:none;display:inline"
       d="M 12,6 C 8.676,6 6,8.676 6,12 l 0,2 0,68 0,2 c 0,0.334721 0.04135,0.6507 0.09375,0.96875 0.0487,0.295596 0.09704,0.596915 0.1875,0.875 0.0099,0.03038 0.02089,0.0636 0.03125,0.09375 0.09886,0.287771 0.23488,0.547452 0.375,0.8125 0.144592,0.273507 0.315616,0.535615 0.5,0.78125 0.184384,0.245635 0.373776,0.473472 0.59375,0.6875 0.439947,0.428056 0.94291,0.814526 1.5,1.09375 0.278545,0.139612 0.573473,0.246947 0.875,0.34375 -0.256202,-0.100222 -0.486711,-0.236272 -0.71875,-0.375 -0.0074,-0.0044 -0.02387,0.0045 -0.03125,0 -0.03193,-0.0193 -0.06229,-0.04251 -0.09375,-0.0625 -0.120395,-0.0767 -0.231023,-0.163513 -0.34375,-0.25 -0.106173,-0.0808 -0.213281,-0.161112 -0.3125,-0.25 C 8.47832,88.557317 8.30879,88.373362 8.15625,88.1875 8.048671,88.057245 7.937856,87.922215 7.84375,87.78125 7.81866,87.74287 7.8053,87.69538 7.78125,87.65625 7.71649,87.553218 7.651022,87.451733 7.59375,87.34375 7.492742,87.149044 7.388075,86.928049 7.3125,86.71875 7.3045,86.69694 7.28891,86.6782 7.28125,86.65625 7.24942,86.5643 7.24545,86.469419 7.21875,86.375 7.188418,86.268382 7.148361,86.171969 7.125,86.0625 7.052121,85.720988 7,85.364295 7,85 L 7,83 7,15 7,13 C 7,10.218152 9.218152,8 12,8 l 2,0 68,0 2,0 c 2.781848,0 5,2.218152 5,5 l 0,2 0,68 0,2 c 0,0.364295 -0.05212,0.720988 -0.125,1.0625 -0.04415,0.206893 -0.08838,0.397658 -0.15625,0.59375 -0.0077,0.02195 -0.0233,0.04069 -0.03125,0.0625 -0.06274,0.173739 -0.138383,0.367449 -0.21875,0.53125 -0.04158,0.0828 -0.07904,0.169954 -0.125,0.25 -0.0546,0.09721 -0.126774,0.18835 -0.1875,0.28125 -0.09411,0.140965 -0.204921,0.275995 -0.3125,0.40625 -0.143174,0.17445 -0.303141,0.346998 -0.46875,0.5 -0.01117,0.0102 -0.01998,0.02115 -0.03125,0.03125 -0.138386,0.125556 -0.285091,0.234436 -0.4375,0.34375 -0.102571,0.07315 -0.204318,0.153364 -0.3125,0.21875 -0.0074,0.0045 -0.02384,-0.0044 -0.03125,0 -0.232039,0.138728 -0.462548,0.274778 -0.71875,0.375 0.301527,-0.0968 0.596455,-0.204138 0.875,-0.34375 0.55709,-0.279224 1.060053,-0.665694 1.5,-1.09375 0.219973,-0.214028 0.409366,-0.441865 0.59375,-0.6875 0.184384,-0.245635 0.355408,-0.507743 0.5,-0.78125 0.14012,-0.265048 0.276135,-0.524729 0.375,-0.8125 0.01041,-0.03078 0.02133,-0.06274 0.03125,-0.09375 0.09046,-0.278085 0.1388,-0.579404 0.1875,-0.875 C 89.95865,84.6507 90,84.334721 90,84 l 0,-2 0,-68 0,-2 C 90,8.676 87.324,6 84,6 L 12,6 z"
       id="rect3728" />
    <path
       id="path3615"
       d="M 12,90 C 8.676,90 6,87.324 6,84 L 6,82 6,14 6,12 c 0,-0.334721 0.04135,-0.6507 0.09375,-0.96875 0.0487,-0.295596 0.09704,-0.596915 0.1875,-0.875 C 6.29113,10.12587 6.302142,10.09265 6.3125,10.0625 6.411365,9.774729 6.5473802,9.515048 6.6875,9.25 6.8320918,8.976493 7.0031161,8.714385 7.1875,8.46875 7.3718839,8.223115 7.5612765,7.995278 7.78125,7.78125 8.221197,7.353194 8.72416,6.966724 9.28125,6.6875 9.559795,6.547888 9.8547231,6.440553 10.15625,6.34375 9.9000482,6.443972 9.6695391,6.580022 9.4375,6.71875 c -0.00741,0.0044 -0.023866,-0.0045 -0.03125,0 -0.031933,0.0193 -0.062293,0.04251 -0.09375,0.0625 -0.120395,0.0767 -0.2310226,0.163513 -0.34375,0.25 -0.1061728,0.0808 -0.2132809,0.161112 -0.3125,0.25 C 8.4783201,7.442683 8.3087904,7.626638 8.15625,7.8125 8.0486711,7.942755 7.9378561,8.077785 7.84375,8.21875 7.818661,8.25713 7.805304,8.30462 7.78125,8.34375 7.716487,8.446782 7.6510225,8.548267 7.59375,8.65625 7.4927417,8.850956 7.3880752,9.071951 7.3125,9.28125 7.30454,9.30306 7.288911,9.3218 7.28125,9.34375 7.2494249,9.4357 7.2454455,9.530581 7.21875,9.625 7.1884177,9.731618 7.1483606,9.828031 7.125,9.9375 7.0521214,10.279012 7,10.635705 7,11 l 0,2 0,68 0,2 c 0,2.781848 2.2181517,5 5,5 l 2,0 68,0 2,0 c 2.781848,0 5,-2.218152 5,-5 l 0,-2 0,-68 0,-2 C 89,10.635705 88.94788,10.279012 88.875,9.9375 88.83085,9.730607 88.78662,9.539842 88.71875,9.34375 88.71105,9.3218 88.69545,9.30306 88.6875,9.28125 88.62476,9.107511 88.549117,8.913801 88.46875,8.75 88.42717,8.6672 88.38971,8.580046 88.34375,8.5 88.28915,8.40279 88.216976,8.31165 88.15625,8.21875 88.06214,8.077785 87.951329,7.942755 87.84375,7.8125 87.700576,7.63805 87.540609,7.465502 87.375,7.3125 87.36383,7.3023 87.35502,7.29135 87.34375,7.28125 87.205364,7.155694 87.058659,7.046814 86.90625,6.9375 86.803679,6.86435 86.701932,6.784136 86.59375,6.71875 c -0.0074,-0.0045 -0.02384,0.0044 -0.03125,0 -0.232039,-0.138728 -0.462548,-0.274778 -0.71875,-0.375 0.301527,0.0968 0.596455,0.204138 0.875,0.34375 0.55709,0.279224 1.060053,0.665694 1.5,1.09375 0.219973,0.214028 0.409366,0.441865 0.59375,0.6875 0.184384,0.245635 0.355408,0.507743 0.5,0.78125 0.14012,0.265048 0.276135,0.524729 0.375,0.8125 0.01041,0.03078 0.02133,0.06274 0.03125,0.09375 0.09046,0.278085 0.1388,0.579404 0.1875,0.875 C 89.95865,11.3493 90,11.665279 90,12 l 0,2 0,68 0,2 c 0,3.324 -2.676,6 -6,6 l -72,0 z"
       style="opacity:0.4;fill:url(#radialGradient2886);fill-opacity:1;fill-rule:nonzero;stroke:none;display:inline" />
    <rect
       ry="6"
       rx="6"
       y="6"
       x="-94"
       height="84"
       width="84"
       id="rect3654"
       style="fill:#ff00ff;fill-opacity:1;fill-rule:nonzero;stroke:none" />
    <rect
       style="color:#000000;fill:#ffffff;stroke:#000000;stroke-width:0.5;stroke-linecap:round;stroke-linejoin:miter;stroke-miterlimit:4;stroke-opacity:1;stroke-dasharray:none;stroke-dashoffset:8.6;marker:none;visibility:visible;display:inline;overflow:visible;enable-background:accumulate"
       id="rect3797"
       width="16"
       height="16"
       x="112"
       y="8" />
    <text
       xml:space="preserve"
       style="font-size:4px;font-style:normal;font-variant:normal;font-weight:normal;font-stretch:normal;text-align:start;line-height:125%;writing-mode:lr-tb;text-anchor:start;fill:#000000;fill-opacity:1;stroke:none;display:inline;font-family:Liberation Sans;-inkscape-font-specification:Liberation Sans"
       x="131.39261"
       y="11.969256"
       id="text3799"
       sodipodi:linespacing="125%"><tspan
         sodipodi:role="line"
         id="tspan3801"
         x="131.39261"
         y="11.969256">Width: 2px</tspan><tspan
         sodipodi:role="line"
         x="131.39261"
         y="16.969257"
         id="tspan3803">Blur: 12</tspan><tspan
         sodipodi:role="line"
         x="131.39261"
         y="21.969257"
         id="tspan3807">Opacity: 60</tspan></text>
    <path
       style="opacity:0.6;fill:none;stroke:#ffffff;stroke-width:2;stroke-miterlimit:4;stroke-dasharray:none;marker:none;visibility:visible;display:block;overflow:visible;filter:url(#filter3952);enable-background:accumulate"
       id="path3939"
       d="m -81.999911,52.142336 c 0,1.180653 0.979404,2.136636 2.180232,2.136636 l 4.22965,0 c 0.562472,2.111077 1.412074,4.128219 2.485465,5.973833 l -3.00872,3.008727 c -0.424557,0.424559 -0.649414,0.933132 -0.654072,1.482554 -0.0048,0.549417 0.193045,1.10874 0.610466,1.526158 l 5.886628,5.886633 c 0.834843,0.834834 2.159607,0.805502 3.008721,-0.04352 l 3.008721,-3.008725 c 1.845609,1.073387 3.862754,1.922985 5.973835,2.48547 l 0,4.229646 c 0,1.200827 0.955981,2.180234 2.136627,2.180234 l 8.284884,0 c 1.180646,0 2.136628,-0.979407 2.136628,-2.180235 l 0,-4.229645 c 2.111081,-0.562485 4.128226,-1.412083 5.973836,-2.485472 l 3.008721,3.008727 c 0.849112,0.84911 2.173875,0.878441 3.008719,0.04352 l 5.886628,-5.886633 c 0.834844,-0.834834 0.805506,-2.159603 -0.0436,-3.008714 l -3.00872,-3.008725 c 1.073391,-1.845616 1.922992,-3.862756 2.485464,-5.973835 l 4.229651,0 c 1.200828,0 2.180233,-0.955981 2.180233,-2.136634 l 0,-8.284881 c 0,-1.180644 -0.979405,-2.136624 -2.180232,-2.136624 l -4.229651,0 c -0.562472,-2.111078 -1.412073,-4.128218 -2.485464,-5.973835 l 3.00872,-3.008725 c 0.849113,-0.84911 0.878448,-2.173877 0.0436,-3.008724 l -5.886627,-5.886621 c -0.834844,-0.834835 -2.159609,-0.805505 -3.00872,0.04352 l -3.008721,3.008711 c -1.845609,-1.073384 -3.862754,-1.922981 -5.973836,-2.485457 l 0,-4.229657 c 0,-1.200817 -0.95598,-2.180232 -2.136628,-2.180232 l -8.284884,0 c -1.180645,0 -2.136628,0.979415 -2.136628,2.180232 l 0,4.229657 c -2.11108,0.562467 -4.128225,1.412068 -5.973834,2.485451 l -3.008722,-3.008713 c -0.849113,-0.849108 -2.173877,-0.878452 -3.00872,-0.04352 l -5.886628,5.886625 c -0.834843,0.834847 -0.805507,2.159615 0.0436,3.008725 l 3.008722,3.008725 c -1.073391,1.845615 -1.922994,3.862756 -2.485466,5.973832 l -4.22965,0 c -1.200828,0 -2.180231,0.955982 -2.180231,2.136625 l 0,8.284881 z m 20.930229,-4.142435 c 0,-5.006518 4.063256,-9.069769 9.069767,-9.069769 5.00651,0 9.069766,4.063249 9.069766,9.069769 0,5.006505 -4.063256,9.069769 -9.069766,9.069769 -5.006511,0 -9.069767,-4.063263 -9.069767,-9.069768 z"
       clip-path="url(#clipPath3948)"
       transform="translate(100,0)" />
    <path
       d="m 18.000089,52.142336 c 0,1.180653 0.979404,2.136636 2.180232,2.136636 l 4.22965,0 c 0.562472,2.111077 1.412074,4.128219 2.485465,5.973833 l -3.00872,3.008727 c -0.424557,0.424559 -0.649414,0.933132 -0.654072,1.482554 -0.0048,0.549417 0.193045,1.10874 0.610466,1.526158 l 5.886628,5.886633 c 0.834843,0.834834 2.159607,0.805502 3.008721,-0.04352 l 3.008721,-3.008725 c 1.845609,1.073387 3.862754,1.922985 5.973835,2.48547 l 0,4.229646 c 0,1.200827 0.955981,2.180234 2.136627,2.180234 l 8.284884,0 c 1.180646,0 2.136628,-0.979407 2.136628,-2.180235 l 0,-4.229645 c 2.111081,-0.562485 4.128226,-1.412083 5.973836,-2.485472 l 3.008721,3.008727 c 0.849112,0.84911 2.173875,0.878441 3.008719,0.04352 l 5.886628,-5.886633 c 0.834844,-0.834834 0.805506,-2.159603 -0.0436,-3.008714 l -3.00872,-3.008725 c 1.073391,-1.845616 1.922992,-3.862756 2.485464,-5.973835 l 4.229651,0 c 1.200828,0 2.180233,-0.955981 2.180233,-2.136634 l 0,-8.284881 c 0,-1.180644 -0.979405,-2.136624 -2.180232,-2.136624 l -4.229651,0 C 71.027731,39.609753 70.17813,37.592613 69.104739,35.746996 l 3.00872,-3.008725 c 0.849113,-0.84911 0.878448,-2.173877 0.0436,-3.008724 l -5.886627,-5.886621 c -0.834844,-0.834835 -2.159609,-0.805505 -3.00872,0.04352 l -3.008721,3.008711 C 58.407382,25.821773 56.390237,24.972176 54.279155,24.4097 l 0,-4.229657 c 0,-1.200817 -0.95598,-2.180232 -2.136628,-2.180232 l -8.284884,0 c -1.180645,0 -2.136628,0.979415 -2.136628,2.180232 l 0,4.229657 c -2.11108,0.562467 -4.128225,1.412068 -5.973834,2.485451 l -3.008722,-3.008713 c -0.849113,-0.849108 -2.173877,-0.878452 -3.00872,-0.04352 l -5.886628,5.886625 c -0.834843,0.834847 -0.805507,2.159615 0.0436,3.008725 l 3.008722,3.008725 c -1.073391,1.845615 -1.922994,3.862756 -2.485466,5.973832 l -4.22965,0 c -1.200828,0 -2.180231,0.955982 -2.180231,2.136625 l 0,8.284881 z m 20.930229,-4.142435 c 0,-5.006518 4.063256,-9.069769 9.069767,-9.069769 5.00651,0 9.069766,4.063249 9.069766,9.069769 0,5.006505 -4.063256,9.069769 -9.069766,9.069769 -5.006511,0 -9.069767,-4.063263 -9.069767,-9.069768 z"
       id="rect3267"
       style="fill:url(#linearGradient3919);fill-opacity:1;fill-rule:nonzero;stroke:none;stroke-width:1;marker:none;visibility:visible;display:block;overflow:visible;enable-background:accumulate" />
    <path
       style="opacity:0.2;fill:#000000;fill-opacity:1;fill-rule:nonzero;stroke:none;stroke-width:1;marker:none;visibility:visible;display:block;overflow:visible;enable-background:accumulate"
       d="m 43.84375,18 c -1.180645,0 -2.125,0.986683 -2.125,2.1875 l 0,1 c 0,-1.200817 0.944355,-2.1875 2.125,-2.1875 l 8.3125,0 c 1.180648,0 2.125,0.986683 2.125,2.1875 l 0,-1 C 54.28125,18.986683 53.336898,18 52.15625,18 l -8.3125,0 z m -12.625,5.21875 c -0.541685,-0.0091 -1.082579,0.207534 -1.5,0.625 l -5.875,5.875 c -0.546032,0.546035 -0.712161,1.304966 -0.53125,2 0.08476,-0.362825 0.244784,-0.713533 0.53125,-1 l 5.875,-5.875 C 30.553593,24.008818 31.900887,24.025892 32.75,24.875 l 3,3.03125 c 1.845609,-1.073383 3.85767,-1.937533 5.96875,-2.5 l 0,-1 c -2.11108,0.562467 -4.123141,1.426617 -5.96875,2.5 l -3,-3.03125 c -0.424557,-0.424554 -0.989565,-0.647142 -1.53125,-0.65625 z m 33.5625,0 C 64.239564,23.22785 63.674555,23.450488 63.25,23.875 l -3,3.03125 c -1.845609,-1.073384 -3.857668,-1.937524 -5.96875,-2.5 l 0,1 c 2.111082,0.562476 4.123141,1.426616 5.96875,2.5 l 3,-3.03125 c 0.849111,-0.849025 2.196406,-0.866085 3.03125,-0.03125 l 5.875,5.875 c 0.286467,0.286467 0.446492,0.637175 0.53125,1 0.180912,-0.695033 0.01479,-1.453965 -0.53125,-2 l -5.875,-5.875 c -0.417422,-0.417417 -0.958314,-0.634106 -1.5,-0.625 z M 26.5625,36.40625 c -0.903523,1.667225 -1.658515,3.444397 -2.15625,5.3125 l -4.21875,0 c -1.200828,0 -2.1875,0.944357 -2.1875,2.125 l 0,1 c 0,-1.180643 0.986672,-2.125 2.1875,-2.125 l 4.21875,0 c 0.562472,-2.111076 1.426609,-4.123135 2.5,-5.96875 L 26.5625,36.40625 z m 42.875,0 -0.34375,0.34375 c 1.073391,1.845617 1.937528,3.857672 2.5,5.96875 l 4.21875,0 c 1.200827,0 2.1875,0.944356 2.1875,2.125 l 0,-1 c 0,-1.180644 -0.986673,-2.125 -2.1875,-2.125 l -4.21875,0 C 71.096015,39.850645 70.341022,38.073476 69.4375,36.40625 z M 38.96875,48.5 c -0.0089,0.16483 -0.03125,0.332954 -0.03125,0.5 0,5.006505 4.055989,9.0625 9.0625,9.0625 5.00651,0 9.0625,-4.055995 9.0625,-9.0625 0,-0.167046 -0.02232,-0.33517 -0.03125,-0.5 -0.258742,4.775258 -4.191786,8.5625 -9.03125,8.5625 -4.839465,0 -8.772508,-3.787242 -9.03125,-8.5625 z M 26.5625,60.59375 23.875,63.25 c -0.424557,0.424559 -0.651592,0.950578 -0.65625,1.5 -0.0016,0.179795 0.05132,0.354653 0.09375,0.53125 0.09341,-0.36845 0.262657,-0.731405 0.5625,-1.03125 l 3.03125,-3 C 26.782709,61.03758 26.680016,60.810596 26.5625,60.59375 z m 42.875,0 c -0.117516,0.216846 -0.220209,0.44383 -0.34375,0.65625 l 3.03125,3 c 0.293745,0.293747 0.466811,0.663629 0.5625,1.03125 C 72.84975,64.586702 72.6827,63.807749 72.125,63.25 l -2.6875,-2.65625 z"
       id="path3921" />
    <path
       style="fill:#ffffff;fill-opacity:1;fill-rule:nonzero;stroke:none;stroke-width:1;marker:none;visibility:visible;display:block;overflow:visible;enable-background:accumulate"
       d="m 23.3125,31.71875 c -0.16225,0.694552 0.0048,1.473501 0.5625,2.03125 l 2.6875,2.65625 c 0.117516,-0.216846 0.220209,-0.44383 0.34375,-0.65625 l -3.03125,-3 c -0.293745,-0.293746 -0.466812,-0.663629 -0.5625,-1.03125 z m 49.375,0 C 72.59181,32.086371 72.418747,32.456254 72.125,32.75 l -3.03125,3 c 0.123541,0.21242 0.226234,0.439404 0.34375,0.65625 L 72.125,33.75 c 0.557751,-0.557749 0.724751,-1.336699 0.5625,-2.03125 z M 48,38.9375 c -5.006511,0 -9.0625,4.055982 -9.0625,9.0625 0,0.167046 0.02232,0.33517 0.03125,0.5 0.258742,-4.775269 4.191785,-8.5625 9.03125,-8.5625 4.839464,0 8.772508,3.787229 9.03125,8.5625 0.0089,-0.16483 0.03125,-0.332954 0.03125,-0.5 0,-5.00652 -4.05599,-9.0625 -9.0625,-9.0625 z m -30,13.21875 0,1 c 0,1.180653 0.986672,2.125 2.1875,2.125 l 4.21875,0 c 0.497735,1.868104 1.252727,3.645276 2.15625,5.3125 L 26.90625,60.25 c -1.073391,-1.845614 -1.937528,-3.857673 -2.5,-5.96875 l -4.21875,0 C 18.986672,54.28125 18,53.336903 18,52.15625 z m 60,0 c 0,1.180653 -0.986672,2.125 -2.1875,2.125 l -4.21875,0 c -0.562472,2.111079 -1.426609,4.123134 -2.5,5.96875 l 0.34375,0.34375 c 0.903522,-1.667225 1.658515,-3.444394 2.15625,-5.3125 l 4.21875,0 c 1.200828,0 2.1875,-0.944347 2.1875,-2.125 l 0,-1 z m -54.6875,13.125 c -0.03885,0.153249 -0.09238,0.307357 -0.09375,0.46875 -0.0048,0.549417 0.207579,1.113832 0.625,1.53125 l 5.875,5.875 c 0.834843,0.834834 2.182136,0.817772 3.03125,-0.03125 l 3,-3.03125 c 1.845609,1.073387 3.857669,1.937515 5.96875,2.5 l 0,-1 c -2.111081,-0.562485 -4.123141,-1.426613 -5.96875,-2.5 l -3,3.03125 c -0.849114,0.849022 -2.196407,0.866084 -3.03125,0.03125 l -5.875,-5.875 c -0.280821,-0.280819 -0.444032,-0.636954 -0.53125,-1 z m 49.375,0 c -0.08476,0.362824 -0.244784,0.713537 -0.53125,1 l -5.875,5.875 C 65.446406,72.991171 64.099112,72.97411 63.25,72.125 l -3,-3.03125 c -1.84561,1.073389 -3.857669,1.937515 -5.96875,2.5 l 0,1 c 2.111081,-0.562485 4.12314,-1.426611 5.96875,-2.5 l 3,3.03125 c 0.849112,0.84911 2.196406,0.866171 3.03125,0.03125 l 5.875,-5.875 c 0.546033,-0.546027 0.712161,-1.304967 0.53125,-2 z m -30.96875,10.53125 0,1 c 0,1.200827 0.944354,2.1875 2.125,2.1875 l 8.3125,0 c 1.180646,0 2.125,-0.986672 2.125,-2.1875 l 0,-1 c 0,1.200828 -0.944354,2.1875 -2.125,2.1875 l -8.3125,0 c -1.180646,0 -2.125,-0.986673 -2.125,-2.1875 z"
       id="path3930" />
  </g>
  <g
     inkscape:groupmode="layer"
     id="layer3"
     inkscape:label="Highlight"
     sodipodi:insensitive="true">
    <rect
       style="opacity:0.5;fill:url(#linearGradient4481);fill-opacity:1;fill-rule:nonzero;stroke:#ffffff;stroke-width:0.5;stroke-linecap:round;stroke-linejoin:miter;stroke-miterlimit:4;stroke-opacity:1;stroke-dasharray:none;stroke-dashoffset:0;display:inline;filter:url(#filter3794)"
       id="rect3171"
       width="66"
       height="66"
       x="15"
       y="15"
       rx="12"
       ry="12"
       clip-path="url(#clipPath3613)" />
  </g>
</svg>
