<?xml version="1.0" encoding="UTF-8" standalone="no"?>
<!-- Created with Inkscape (http://www.inkscape.org/) -->

<svg
   xmlns:dc="http://purl.org/dc/elements/1.1/"
   xmlns:cc="http://creativecommons.org/ns#"
   xmlns:rdf="http://www.w3.org/1999/02/22-rdf-syntax-ns#"
   xmlns:svg="http://www.w3.org/2000/svg"
   xmlns="http://www.w3.org/2000/svg"
   xmlns:xlink="http://www.w3.org/1999/xlink"
   xmlns:sodipodi="http://sodipodi.sourceforge.net/DTD/sodipodi-0.dtd"
   xmlns:inkscape="http://www.inkscape.org/namespaces/inkscape"
   width="16"
   height="16"
   id="svg2"
   sodipodi:version="0.32"
   inkscape:version="0.48.1 r9760"
   version="1.0"
   sodipodi:docname="folder-publicshare.svg"
   inkscape:output_extension="org.inkscape.output.svg.inkscape"
   style="display:inline">
  <defs
     id="defs4">
    <linearGradient
       id="linearGradient3191">
      <stop
         style="stop-color:#8b6429;stop-opacity:1;"
         offset="0"
         id="stop3193" />
      <stop
         style="stop-color:#cb9a4d;stop-opacity:1;"
         offset="1"
         id="stop3195" />
    </linearGradient>
    <linearGradient
       id="linearGradient3187">
      <stop
         style="stop-color:#c29657;stop-opacity:1;"
         offset="0"
         id="stop3189" />
      <stop
         style="stop-color:#e2c89a;stop-opacity:1;"
         offset="1"
         id="stop3191" />
    </linearGradient>
    <linearGradient
       inkscape:collect="always"
       xlink:href="#linearGradient3187"
       id="linearGradient3668"
       x1="10.871767"
       y1="26.306055"
       x2="10.871767"
       y2="8.1216478"
       gradientUnits="userSpaceOnUse"
       gradientTransform="matrix(0.6999999,0,0,0.6999999,-1.886778,-3.4141973)" />
    <linearGradient
       inkscape:collect="always"
       xlink:href="#linearGradient3191"
       id="linearGradient3197"
       x1="4.0625"
       y1="17.000139"
       x2="4.0625"
       y2="2.9996619"
       gradientUnits="userSpaceOnUse"
       gradientTransform="translate(0,-1.5)" />
  </defs>
  <sodipodi:namedview
     id="base"
     pagecolor="#ffffff"
     bordercolor="#dc0000"
     borderopacity="1"
     inkscape:pageopacity="0"
     inkscape:pageshadow="2"
     inkscape:zoom="22.695034"
     inkscape:cx="-9.7092084"
     inkscape:cy="12.862388"
     inkscape:document-units="px"
     inkscape:current-layer="layer2"
     showgrid="true"
     inkscape:showpageshadow="false"
     showguides="true"
     inkscape:guide-bbox="true"
     inkscape:window-width="1920"
     inkscape:window-height="1030"
     inkscape:window-x="0"
     inkscape:window-y="25"
     inkscape:window-maximized="1"
     borderlayer="true"
     inkscape:snap-global="false">
    <sodipodi:guide
       orientation="0,1"
       position="26.278146,128"
       id="guide2385" />
    <sodipodi:guide
       orientation="1,0"
       position="128,54.082119"
       id="guide2387" />
    <sodipodi:guide
       orientation="0,1"
       position="78.156291,0"
       id="guide2389" />
    <inkscape:grid
       type="xygrid"
       id="grid3672"
       visible="true"
       enabled="true"
       empspacing="8"
       snapvisiblegridlinesonly="true" />
  </sodipodi:namedview>
  <metadata
     id="metadata7">
    <rdf:RDF>
      <cc:Work
         rdf:about="">
        <dc:format>image/svg+xml</dc:format>
        <dc:type
           rdf:resource="http://purl.org/dc/dcmitype/StillImage" />
        <dc:title />
      </cc:Work>
    </rdf:RDF>
  </metadata>
  <g
     inkscape:label="Folder"
     inkscape:groupmode="layer"
     id="layer1"
     style="display:inline"
     sodipodi:insensitive="true">
    <rect
       style="fill:url(#linearGradient3197);fill-opacity:1;fill-rule:nonzero;stroke:none"
       id="rect2419"
       width="16"
       height="14.5"
       x="0"
       y="1.5"
       rx="2"
       ry="2" />
    <rect
       style="opacity:0;fill:#000000;fill-opacity:1;stroke:none;display:inline"
       id="rect3214"
       width="15"
       height="12.000001"
       x="0.5"
       y="4"
       rx="1.6666666"
       ry="1.627907" />
    <path
       style="fill:#9b6e2d;fill-opacity:1;fill-rule:nonzero;stroke:none"
       d="M 2.049999,0 C 1.4683,0 1,0.4683 1,1.05 L 1,2.1185435 1,3.577728 c 0,0.5816999 0.4683,1.0499999 1.049999,1.0499999 l 4.1756515,0 7.7000025,0 c 0.581699,0 1.049999,-0.4683 1.049999,-1.0499999 l 0,-1.4591845 c 0,-0.5816999 -0.4683,-1.0499999 -1.049999,-1.0499999 l -6.4643875,0 L 7.2756495,1.05 C 6.6968312,0.9921743 6.8073495,0 6.2256505,0 L 2.049999,0 z"
       id="rect2859"
       sodipodi:nodetypes="cccccccccccscc"
       inkscape:connector-curvature="0" />
    <path
       style="fill:#c39759;fill-opacity:1;fill-rule:nonzero;stroke:none"
       d="m 2.038152,1.027728 c -0.01345,0 0,-0.01913 0,0.03125 l 0,1.0625 0,3.46875 4.1875,0 7.6875,0 c 0.05038,0 0.03125,0.01345 0.03125,0 l 0,-3.46875 c 0,-0.01345 -0.0178,-0.03125 -0.03125,-0.03125 l -6.4375,0 -0.1875,0 c -0.03123,0.0014 -0.06252,0.0014 -0.09375,0 C 6.752915,2.046118 6.356927,1.740365 6.163152,1.496478 6.002471,1.294244 5.937954,1.151834 5.881902,1.027728 l -3.84375,0 z"
       id="path3218"
       sodipodi:nodetypes="cccccccccccsscc"
       inkscape:connector-curvature="0" />
    <rect
       style="fill:url(#linearGradient3668);fill-opacity:1;fill-rule:nonzero;stroke:none"
       id="rect3660"
       width="14"
       height="13.000002"
       x="1"
       y="2"
       rx="1"
       ry="1" />
    <path
       style="opacity:0.2;fill:#ffffff;fill-opacity:1;fill-rule:nonzero;stroke:none"
       d="M 2,2 C 1.446,2 1,2.446 1,3 L 1,4 C 1,3.446 1.446,3 2,3 l 12,0 c 0.554,0 1,0.446 1,1 L 15,3 C 15,2.446 14.554,2 14,2 L 2,2 z"
       id="rect3880"
       inkscape:connector-curvature="0" />
    <rect
       style="color:#000000;fill:#906d3b;fill-opacity:1;fill-rule:nonzero;stroke:none;stroke-width:2;marker:none;visibility:visible;display:inline;overflow:visible;enable-background:accumulate"
       id="rect3884"
       width="8"
       height="8"
       x="24"
       y="-8" />
    <rect
       style="color:#000000;fill:#bd8e48;fill-opacity:1;fill-rule:nonzero;stroke:none;stroke-width:2;marker:none;visibility:visible;display:inline;overflow:visible;enable-background:accumulate"
       id="rect3884-7"
       width="8"
       height="8"
       x="24"
       y="2" />
  </g>
  <g
     inkscape:groupmode="layer"
     id="layer2"
     inkscape:label="Symbol">
    <path
       style="color:#000000;fill:#ffffff;fill-opacity:1;fill-rule:evenodd;stroke:none;stroke-width:1;marker:none;visibility:visible;display:inline;overflow:visible;enable-background:accumulate;opacity:0.15"
       d="M 9.28125 2.8125 C 8.7270624 2.8242961 8.1088862 2.9709309 7.59375 3.40625 C 6.868489 4.0191384 6.6938342 4.9367345 6.65625 5.375 C 6.6186658 5.8132655 6.6918397 5.7080426 6.53125 5.84375 C 6.3645228 5.9846443 6.4409313 5.961233 6 5.9375 C 5.5590687 5.913767 4.6574092 5.9228854 3.9375 6.53125 C 3.6270946 6.7935552 3.3362162 7.1273716 3.15625 7.59375 A 1.0048802 1.0048802 0 0 0 3.15625 7.625 C 3.0993557 7.7738833 3.0687924 7.8629725 3.0625 7.90625 C 3.0573979 7.9181891 3.0708176 7.9318209 3.0625 7.96875 C 3.0563039 7.996933 3.0179413 8.0747525 3 8.21875 C 2.9864733 8.3311489 2.997593 8.3520614 3 8.375 C 2.9986762 8.3921578 3.0001018 8.4097781 3 8.4375 C 2.9996119 8.4468703 2.9996026 8.4518533 3 8.46875 C 2.9970899 8.5703798 2.9999807 8.523963 3 8.53125 C 2.9997437 8.5572635 2.9994598 8.5997041 3 8.625 C 2.9993088 8.5888819 2.9972207 8.5874458 3 8.65625 C 3.001468 8.6355442 2.994987 8.6845227 3 8.75 C 2.9996402 8.7950196 2.9929486 8.8193612 3 8.875 C 3.0179308 9.0185827 3.0562654 9.0966408 3.0625 9.125 C 3.0763184 9.1856133 3.0766182 9.1740588 3.09375 9.21875 C 3.1038111 9.2689475 3.1069215 9.3396828 3.15625 9.46875 A 1.0048802 1.0048802 0 0 0 3.15625 9.5 C 3.3362177 9.9663839 3.6271098 10.300201 3.9375 10.5625 C 4.6574092 11.170866 5.5590688 11.179983 6 11.15625 C 6.4409312 11.132517 6.3645228 11.109105 6.53125 11.25 C 6.6918403 11.385708 6.6186658 11.280485 6.65625 11.71875 C 6.6938342 12.157015 6.8684893 13.074612 7.59375 13.6875 C 8.7199359 14.639175 10.411216 14.469948 11.375 13.375 C 12.343512 12.274663 12.20265 10.562086 11.09375 9.625 C 10.373842 9.0166351 9.4721819 9.0075173 9.03125 9.03125 C 8.5903181 9.0549827 8.6667274 9.0783938 8.5 8.9375 C 8.3481254 8.809157 8.3810809 8.7607723 8.375 8.5625 C 8.3868977 8.3412792 8.3634382 8.2716527 8.5 8.15625 C 8.6667278 8.0153556 8.5903186 8.0387672 9.03125 8.0625 C 9.4721814 8.0862328 10.373842 8.0771145 11.09375 7.46875 C 12.202689 6.5316761 12.343534 4.819096 11.375 3.71875 C 10.824231 3.0930228 10.038112 2.796391 9.28125 2.8125 z M 9.3125 3.8125 C 9.7937845 3.8022564 10.286045 3.9899139 10.625 4.375 C 11.227589 5.0595976 11.13619 6.0970941 10.4375 6.6875 C 9.4544514 7.5182334 8.7010022 6.6505732 7.84375 7.375 C 7.4107 7.7409527 7.3837714 8.1478117 7.34375 8.5625 C 7.3837744 8.9771874 7.4107 9.3527972 7.84375 9.71875 C 8.7010022 10.443175 9.4544514 9.5755157 10.4375 10.40625 C 11.13619 10.996684 11.227585 12.034147 10.625 12.71875 C 10.022411 13.403347 8.9486923 13.496675 8.25 12.90625 C 7.2669506 12.075515 8.0447521 11.193178 7.1875 10.46875 C 6.330249 9.7443205 5.5767999 10.611985 4.59375 9.78125 C 4.3754095 9.5967387 4.189021 9.3718935 4.09375 9.125 C 4.074561 9.0747923 4.076514 9.020316 4.0625 8.96875 C 4.056178 8.945684 4.03655 8.929498 4.03125 8.90625 C 4.020536 8.8575156 4.00617 8.799407 4 8.75 C 3.99675 8.724356 4.00197 8.713231 4 8.6875 C 3.99873 8.670133 4.0007842 8.642391 4 8.625 C 3.9995212 8.613147 4.000227 8.605611 4 8.59375 C 3.9995047 8.570557 3.9995252 8.554425 4 8.53125 C 4.0000664 8.52832 3.9999161 8.50293 4 8.5 C 4.00016 8.491146 3.9996282 8.4776 4 8.46875 C 4.00072 8.451367 3.99866 8.454868 4 8.4375 C 4.00174 8.414394 3.99723 8.366767 4 8.34375 C 4.006156 8.2943417 4.020536 8.236233 4.03125 8.1875 C 4.036456 8.164386 4.05625 8.147898 4.0625 8.125 C 4.076514 8.0734299 4.074562 8.018962 4.09375 7.96875 C 4.1890213 7.7218565 4.3754095 7.4970066 4.59375 7.3125 C 5.5768006 6.4817658 6.330249 7.3494276 7.1875 6.625 C 8.0447522 5.9005732 7.2669502 5.0182351 8.25 4.1875 C 8.555677 3.9291857 8.9381679 3.8204678 9.3125 3.8125 z "
       id="path3812" />
    <path
       inkscape:connector-curvature="0"
       style="color:#000000;fill:#bd8e48;fill-opacity:1;fill-rule:evenodd;stroke:none;stroke-width:1;marker:none;visibility:visible;display:inline;overflow:visible;enable-background:accumulate"
       d="M 9.3108514,3.8038743 C 8.9365193,3.8118421 8.56196,3.941998 8.256283,4.2003123 7.2732332,5.0310474 8.0367778,5.8941603 7.1795256,6.6185871 6.3222746,7.3430147 5.5626975,6.4771442 4.5796469,7.3078784 l 0,0.00127 C 4.3613064,7.493655 4.2037561,7.7221291 4.1084848,7.9690226 c -6.401e-4,0.00159 -6.812e-4,0.00348 -0.00127,0.00515 -0.019188,0.050212 -0.035582,0.1006109 -0.049596,0.152181 -0.00625,0.022898 -0.013071,0.045947 -0.018277,0.069061 -5.775e-4,0.00254 -7.636e-4,0.00515 -0.00127,0.00767 -0.010714,0.048733 -0.018642,0.097658 -0.024798,0.1470663 -5.38e-5,4.123e-4 5.06e-5,8.705e-4 0,0.00127 -3.299e-4,0.00254 -0.00103,0.00506 -0.00127,0.00767 -0.00277,0.023017 -0.00475,0.045955 -0.00649,0.069061 -0.00134,0.017368 -0.00316,0.035045 -0.00388,0.052428 -3.718e-4,0.00885 -0.00111,0.018001 -0.00127,0.026855 -8.39e-5,0.00293 6.64e-5,0.00602 0,0.00895 -4.748e-4,0.023175 -4.953e-4,0.045868 0,0.069061 2.27e-4,0.011861 7.912e-4,0.023951 0.00127,0.035804 7.842e-4,0.017391 0.00261,0.035061 0.00388,0.052428 0.00197,0.025731 0.00459,0.051083 0.00784,0.076727 5.06e-5,4.13e-4 -5.38e-5,8.704e-4 0,0.00127 0.00617,0.049407 0.014084,0.098331 0.024798,0.1470654 5.57e-4,0.00254 7.429e-4,0.00515 0.00127,0.00767 0.0053,0.023248 0.011948,0.045995 0.01827,0.069061 0.014014,0.051566 0.030407,0.1019734 0.049596,0.1521811 6.401e-4,0.00166 6.813e-4,0.00348 0.00127,0.00515 0.095271,0.2468935 0.2528215,0.4753668 0.471162,0.6598781 l 0,0.00127 c 0.9830499,0.8307345 1.7426278,-0.035139 2.5998788,0.6892905 0.8572521,0.724428 0.093708,1.587541 1.0767574,2.418276 0.6986923,0.590425 1.753226,0.513225 2.355815,-0.171372 0.602585,-0.684603 0.525099,-1.717866 -0.173591,-2.3083 C 9.4555314,9.5911107 8.695955,10.458257 7.8387028,9.7338323 7.4056528,9.3678795 7.3866817,8.9655988 7.3466573,8.5509114 7.3866787,8.1362231 7.4056528,7.7339424 7.8387028,7.3679897 8.695955,6.6435629 9.4555314,7.5107113 10.43858,6.6799779 11.13727,6.089572 11.214756,5.0563096 10.612167,4.371712 10.273212,3.9866259 9.7922071,3.7936663 9.3109226,3.8039099 z"
       id="path3984-0-3-4-7" />
    <path
       style="color:#000000;fill:#000000;fill-opacity:1;fill-rule:evenodd;stroke:none;stroke-width:1;marker:none;visibility:visible;display:inline;overflow:visible;enable-background:accumulate;opacity:0.2"
       d="M 9.3125 3.8125 C 8.9381679 3.8204678 8.555677 3.9291857 8.25 4.1875 C 7.2669502 5.0182351 8.0447522 5.9005732 7.1875 6.625 C 6.330249 7.3494276 5.5768006 6.4817658 4.59375 7.3125 C 4.3754095 7.4970066 4.1890213 7.7218565 4.09375 7.96875 C 4.074562 8.018962 4.076514 8.0734299 4.0625 8.125 C 4.05625 8.147898 4.036456 8.164386 4.03125 8.1875 C 4.020536 8.236233 4.006156 8.2943417 4 8.34375 C 3.99723 8.366767 4.00174 8.414394 4 8.4375 C 3.99866 8.454868 4.00072 8.451367 4 8.46875 C 3.9996282 8.4776 4.00016 8.491146 4 8.5 C 3.9999161 8.50293 4.0000664 8.52832 4 8.53125 C 3.9995252 8.554425 3.9995047 8.570557 4 8.59375 C 4.000227 8.605611 3.9995212 8.613147 4 8.625 C 4.0007842 8.642391 3.99873 8.670133 4 8.6875 C 4.00197 8.713231 3.99675 8.724356 4 8.75 C 4.00617 8.799407 4.020536 8.8575156 4.03125 8.90625 C 4.03655 8.929498 4.056178 8.945684 4.0625 8.96875 C 4.070585 8.9984996 4.0527513 9.0333375 4.0625 9.0625 C 4.0722883 9.0312294 4.081942 8.9996497 4.09375 8.96875 C 4.1890213 8.7218565 4.3754095 8.4970066 4.59375 8.3125 C 5.5768006 7.4817658 6.330249 8.3494276 7.1875 7.625 C 8.0447522 6.9005732 7.2669502 6.0182351 8.25 5.1875 C 8.555677 4.9291857 8.9381679 4.8204678 9.3125 4.8125 C 9.7937845 4.8022564 10.286045 4.9899139 10.625 5.375 C 10.775647 5.5461494 10.870942 5.735135 10.9375 5.9375 C 11.107982 5.4133012 11.018702 4.8222822 10.625 4.375 C 10.286045 3.9899139 9.7937845 3.8022564 9.3125 3.8125 z M 7.40625 9.0625 C 7.3694434 9.2223115 7.3596998 9.397233 7.34375 9.5625 C 7.3837744 9.9771874 7.4107 10.352798 7.84375 10.71875 C 8.7010022 11.443175 9.4544514 10.606686 10.4375 11.4375 C 10.679701 11.642174 10.847047 11.87812 10.9375 12.15625 C 11.137172 11.549151 10.961518 10.849075 10.4375 10.40625 C 9.4544514 9.5755157 8.7010022 10.443175 7.84375 9.71875 C 7.5921128 9.5061018 7.4636305 9.2949874 7.40625 9.0625 z "
       id="path3791" />
    <path
       style="color:#000000;fill:#000000;fill-opacity:1;fill-rule:evenodd;stroke:none;stroke-width:1;marker:none;visibility:visible;display:inline;overflow:visible;enable-background:accumulate;opacity:0.2"
       d="M 9.3125 3.8125 C 8.9381679 3.8204678 8.555677 3.9291857 8.25 4.1875 C 7.2669502 5.0182351 8.0447522 5.9005732 7.1875 6.625 C 6.330249 7.3494276 5.5768006 6.4817658 4.59375 7.3125 C 4.3754095 7.4970066 4.1890213 7.7218565 4.09375 7.96875 C 4.074562 8.018962 4.076514 8.0734299 4.0625 8.125 C 4.05625 8.147898 4.036456 8.164386 4.03125 8.1875 C 4.020536 8.236233 4.006156 8.2943417 4 8.34375 C 3.99723 8.366767 4.00174 8.414394 4 8.4375 C 3.99866 8.454868 4.00072 8.451367 4 8.46875 C 3.9996282 8.4776 4.00016 8.491146 4 8.5 C 3.9999161 8.50293 4.0000664 8.52832 4 8.53125 C 3.9995252 8.554425 3.9995047 8.570557 4 8.59375 C 4.000227 8.605611 3.9995212 8.613147 4 8.625 C 4.0007842 8.642391 3.99873 8.670133 4 8.6875 C 4.00197 8.713231 3.99675 8.724356 4 8.75 C 4.00617 8.799407 4.020536 8.8575156 4.03125 8.90625 C 4.03655 8.929498 4.056178 8.945684 4.0625 8.96875 C 4.076514 9.020316 4.074561 9.0747923 4.09375 9.125 C 4.189021 9.3718935 4.3754095 9.5967387 4.59375 9.78125 C 5.5767999 10.611985 6.330249 9.7443205 7.1875 10.46875 C 8.0447521 11.193178 7.2669506 12.075515 8.25 12.90625 C 8.9486923 13.496675 10.022411 13.403347 10.625 12.71875 C 11.227585 12.034147 11.13619 10.996684 10.4375 10.40625 C 9.4544514 9.5755157 8.7010022 10.443175 7.84375 9.71875 C 7.4107 9.3527972 7.3837744 8.9771874 7.34375 8.5625 C 7.3837714 8.1478117 7.4107 7.7409527 7.84375 7.375 C 8.7010022 6.6505732 9.4544514 7.5182334 10.4375 6.6875 C 11.13619 6.0970941 11.227589 5.0595976 10.625 4.375 C 10.286045 3.9899139 9.7937845 3.8022564 9.3125 3.8125 z M 9.3125 4.375 C 9.6430366 4.3679649 9.9956626 4.4965508 10.21875 4.75 C 10.621157 5.2071725 10.568023 5.8804805 10.09375 6.28125 C 9.7271577 6.5910419 9.5310746 6.5531066 9.125 6.53125 C 8.7483264 6.5109759 8.1651635 6.5241835 7.625 6.90625 C 8.0806943 6.4357957 8.187054 5.8696048 8.21875 5.5 C 8.2532449 5.0977581 8.2300848 4.9010685 8.59375 4.59375 C 8.7848474 4.4322619 9.0365535 4.3808736 9.3125 4.375 z M 7.40625 7.09375 C 6.9473594 7.5657794 6.8170708 8.1288372 6.78125 8.5 A 0.5496955 0.5496955 0 0 0 6.78125 8.625 C 6.8173061 8.9985721 6.9549188 9.5389558 7.40625 10 C 6.8660868 9.617932 6.2829237 9.6047254 5.90625 9.625 C 5.5001753 9.6468572 5.3040928 9.6847925 4.9375 9.375 C 4.7837274 9.2450525 4.681623 9.0908841 4.625 8.96875 C 4.6263139 8.9466648 4.615298 8.891788 4.59375 8.8125 C 4.5871842 8.7885445 4.5697692 8.8003384 4.5625 8.78125 C 4.5585507 8.763286 4.5656585 8.7648656 4.5625 8.75 C 4.5627064 8.7470892 4.5667661 8.711971 4.5625 8.65625 C 4.5674794 8.7243417 4.5664148 8.6805684 4.5625 8.59375 C 4.5621278 8.5763198 4.5621256 8.5495265 4.5625 8.53125 A 0.5496955 0.5496955 0 0 0 4.5625 8.5 C 4.562898 8.4903922 4.5627264 8.4809791 4.5625 8.46875 C 4.5662758 8.4186097 4.563496 8.4208572 4.5625 8.40625 C 4.5629955 8.4040158 4.5604942 8.3846173 4.5625 8.375 C 4.5715297 8.3578705 4.5527727 8.3381241 4.5625 8.3125 C 4.5697955 8.293282 4.5871275 8.3055128 4.59375 8.28125 C 4.615292 8.2019776 4.6263154 8.1470827 4.625 8.125 C 4.681625 8.0028626 4.783735 7.8486877 4.9375 7.71875 C 5.3040934 7.4089575 5.5001755 7.4468932 5.90625 7.46875 C 6.2829235 7.4890243 6.8660869 7.475817 7.40625 7.09375 z M 7.625 10.1875 C 8.1651636 10.569566 8.7483267 10.582774 9.125 10.5625 C 9.5310743 10.540643 9.7271575 10.502708 10.09375 10.8125 C 10.568044 11.213307 10.621163 11.886564 10.21875 12.34375 C 9.8137439 12.803874 9.0585922 12.892812 8.59375 12.5 C 8.2300849 12.192681 8.253245 11.995992 8.21875 11.59375 C 8.1870539 11.224145 8.080694 10.657955 7.625 10.1875 z "
       id="path3796" />
    <path
       style="color:#000000;fill:#ffffff;fill-opacity:1;fill-rule:evenodd;stroke:none;stroke-width:1;marker:none;visibility:visible;display:inline;overflow:visible;enable-background:accumulate;opacity:0.15"
       d="M 10.9375 5.9375 C 10.847047 6.2156252 10.679701 6.4828361 10.4375 6.6875 C 9.4544514 7.5182334 8.7010022 6.6505732 7.84375 7.375 C 7.4107 7.7409527 7.3837714 8.1478117 7.34375 8.5625 C 7.360517 8.7362204 7.3648827 8.8948928 7.40625 9.0625 C 7.4617987 8.8213121 7.5832847 8.5951085 7.84375 8.375 C 8.7010022 7.6505732 9.4544514 8.5182334 10.4375 7.6875 C 10.961517 7.2446956 11.137173 6.5445949 10.9375 5.9375 z M 4.0625 9.0625 C 4.0563823 9.0820441 4.06789 9.1051653 4.0625 9.125 C 4.05625 9.147898 4.036456 9.164386 4.03125 9.1875 C 4.020536 9.236233 4.006156 9.2943417 4 9.34375 C 3.99723 9.366767 4.00174 9.414394 4 9.4375 C 3.99866 9.454868 4.00072 9.451367 4 9.46875 C 3.9996282 9.4776 4.00016 9.491146 4 9.5 C 3.9999161 9.50293 4.0000664 9.52832 4 9.53125 C 3.9995252 9.554425 3.9995047 9.570557 4 9.59375 C 4.000227 9.605611 3.9995212 9.613147 4 9.625 C 4.0007842 9.642391 3.99873 9.670133 4 9.6875 C 4.00197 9.713231 3.99675 9.724356 4 9.75 C 4.00617 9.799407 4.020536 9.8575156 4.03125 9.90625 C 4.03655 9.929498 4.056178 9.945684 4.0625 9.96875 C 4.076514 10.020316 4.074561 10.074793 4.09375 10.125 C 4.189021 10.371894 4.3754095 10.596739 4.59375 10.78125 C 5.5767999 11.611985 6.330249 10.744319 7.1875 11.46875 C 8.0447521 12.193178 7.2669506 13.075515 8.25 13.90625 C 8.9486923 14.496675 10.022411 14.403347 10.625 13.71875 C 11.018699 13.271464 11.107983 12.680457 10.9375 12.15625 C 10.870943 12.358616 10.775646 12.547599 10.625 12.71875 C 10.022411 13.403347 8.9486923 13.496675 8.25 12.90625 C 7.2669506 12.075515 8.0447521 11.193178 7.1875 10.46875 C 6.330249 9.744319 5.5767999 10.611985 4.59375 9.78125 C 4.3754095 9.596739 4.189021 9.371894 4.09375 9.125 C 4.0856316 9.1037586 4.0696491 9.0838858 4.0625 9.0625 z "
       id="path3803" />
  </g>
</svg>
