<?xml version="1.0" encoding="UTF-8" standalone="no"?>
<!-- Created with Inkscape (http://www.inkscape.org/) -->

<svg
   xmlns:dc="http://purl.org/dc/elements/1.1/"
   xmlns:cc="http://creativecommons.org/ns#"
   xmlns:rdf="http://www.w3.org/1999/02/22-rdf-syntax-ns#"
   xmlns:svg="http://www.w3.org/2000/svg"
   xmlns="http://www.w3.org/2000/svg"
   xmlns:xlink="http://www.w3.org/1999/xlink"
   xmlns:sodipodi="http://sodipodi.sourceforge.net/DTD/sodipodi-0.dtd"
   xmlns:inkscape="http://www.inkscape.org/namespaces/inkscape"
   width="16"
   height="16"
   id="svg2"
   sodipodi:version="0.32"
   inkscape:version="0.48.1 r9760"
   version="1.0"
   sodipodi:docname="folder-ubuntu.svg"
   inkscape:output_extension="org.inkscape.output.svg.inkscape"
   style="display:inline">
  <defs
     id="defs4">
    <linearGradient
       id="linearGradient3191">
      <stop
         style="stop-color:#8b6429;stop-opacity:1;"
         offset="0"
         id="stop3193" />
      <stop
         style="stop-color:#cb9a4d;stop-opacity:1;"
         offset="1"
         id="stop3195" />
    </linearGradient>
    <linearGradient
       id="linearGradient3187">
      <stop
         style="stop-color:#c29657;stop-opacity:1;"
         offset="0"
         id="stop3189" />
      <stop
         style="stop-color:#e2c89a;stop-opacity:1;"
         offset="1"
         id="stop3191" />
    </linearGradient>
    <linearGradient
       inkscape:collect="always"
       xlink:href="#linearGradient3187"
       id="linearGradient3668"
       x1="10.871767"
       y1="26.306055"
       x2="10.871767"
       y2="8.1216478"
       gradientUnits="userSpaceOnUse"
       gradientTransform="matrix(0.6999999,0,0,0.6999999,-1.886778,-3.4141973)" />
    <linearGradient
       inkscape:collect="always"
       xlink:href="#linearGradient3191"
       id="linearGradient3197"
       x1="4.0625"
       y1="17.000139"
       x2="4.0625"
       y2="2.9996619"
       gradientUnits="userSpaceOnUse"
       gradientTransform="translate(0,-1.5)" />
  </defs>
  <sodipodi:namedview
     id="base"
     pagecolor="#ffffff"
     bordercolor="#dc0000"
     borderopacity="1"
     inkscape:pageopacity="0"
     inkscape:pageshadow="2"
     inkscape:zoom="22.695034"
     inkscape:cx="0.83809544"
     inkscape:cy="6.4994067"
     inkscape:document-units="px"
     inkscape:current-layer="layer2"
     showgrid="true"
     inkscape:showpageshadow="false"
     showguides="true"
     inkscape:guide-bbox="true"
     inkscape:window-width="1920"
     inkscape:window-height="1030"
     inkscape:window-x="0"
     inkscape:window-y="25"
     inkscape:window-maximized="1"
     borderlayer="true"
     inkscape:snap-global="false">
    <sodipodi:guide
       orientation="0,1"
       position="26.278146,128"
       id="guide2385" />
    <sodipodi:guide
       orientation="1,0"
       position="128,54.082119"
       id="guide2387" />
    <sodipodi:guide
       orientation="0,1"
       position="78.156291,0"
       id="guide2389" />
    <inkscape:grid
       type="xygrid"
       id="grid3672"
       visible="true"
       enabled="true"
       empspacing="8"
       snapvisiblegridlinesonly="true" />
  </sodipodi:namedview>
  <metadata
     id="metadata7">
    <rdf:RDF>
      <cc:Work
         rdf:about="">
        <dc:format>image/svg+xml</dc:format>
        <dc:type
           rdf:resource="http://purl.org/dc/dcmitype/StillImage" />
        <dc:title></dc:title>
      </cc:Work>
    </rdf:RDF>
  </metadata>
  <g
     inkscape:label="Folder"
     inkscape:groupmode="layer"
     id="layer1"
     style="display:inline"
     sodipodi:insensitive="true">
    <rect
       style="fill:url(#linearGradient3197);fill-opacity:1;fill-rule:nonzero;stroke:none"
       id="rect2419"
       width="16"
       height="14.5"
       x="0"
       y="1.5"
       rx="2"
       ry="2" />
    <rect
       style="opacity:0;fill:#000000;fill-opacity:1;stroke:none;display:inline"
       id="rect3214"
       width="15"
       height="12.000001"
       x="0.5"
       y="4"
       rx="1.6666666"
       ry="1.627907" />
    <path
       style="fill:#9b6e2d;fill-opacity:1;fill-rule:nonzero;stroke:none"
       d="M 2.049999,0 C 1.4683,0 1,0.4683 1,1.05 L 1,2.1185435 1,3.577728 c 0,0.5816999 0.4683,1.0499999 1.049999,1.0499999 l 4.1756515,0 7.7000025,0 c 0.581699,0 1.049999,-0.4683 1.049999,-1.0499999 l 0,-1.4591845 c 0,-0.5816999 -0.4683,-1.0499999 -1.049999,-1.0499999 l -6.4643875,0 L 7.2756495,1.05 C 6.6968312,0.9921743 6.8073495,0 6.2256505,0 L 2.049999,0 z"
       id="rect2859"
       sodipodi:nodetypes="cccccccccccscc"
       inkscape:connector-curvature="0" />
    <path
       style="fill:#c39759;fill-opacity:1;fill-rule:nonzero;stroke:none"
       d="m 2.038152,1.027728 c -0.01345,0 0,-0.01913 0,0.03125 l 0,1.0625 0,3.46875 4.1875,0 7.6875,0 c 0.05038,0 0.03125,0.01345 0.03125,0 l 0,-3.46875 c 0,-0.01345 -0.0178,-0.03125 -0.03125,-0.03125 l -6.4375,0 -0.1875,0 c -0.03123,0.0014 -0.06252,0.0014 -0.09375,0 C 6.752915,2.046118 6.356927,1.740365 6.163152,1.496478 6.002471,1.294244 5.937954,1.151834 5.881902,1.027728 l -3.84375,0 z"
       id="path3218"
       sodipodi:nodetypes="cccccccccccsscc"
       inkscape:connector-curvature="0" />
    <rect
       style="fill:url(#linearGradient3668);fill-opacity:1;fill-rule:nonzero;stroke:none"
       id="rect3660"
       width="14"
       height="13.000002"
       x="1"
       y="2"
       rx="1"
       ry="1" />
    <path
       style="opacity:0.2;fill:#ffffff;fill-opacity:1;fill-rule:nonzero;stroke:none"
       d="M 2,2 C 1.446,2 1,2.446 1,3 L 1,4 C 1,3.446 1.446,3 2,3 l 12,0 c 0.554,0 1,0.446 1,1 L 15,3 C 15,2.446 14.554,2 14,2 L 2,2 z"
       id="rect3880"
       inkscape:connector-curvature="0" />
    <rect
       style="color:#000000;fill:#906d3b;fill-opacity:1;fill-rule:nonzero;stroke:none;stroke-width:2;marker:none;visibility:visible;display:inline;overflow:visible;enable-background:accumulate"
       id="rect3884"
       width="8"
       height="8"
       x="24"
       y="-8" />
    <rect
       style="color:#000000;fill:#bd8e48;fill-opacity:1;fill-rule:nonzero;stroke:none;stroke-width:2;marker:none;visibility:visible;display:inline;overflow:visible;enable-background:accumulate"
       id="rect3884-7"
       width="8"
       height="8"
       x="24"
       y="2" />
  </g>
  <g
     inkscape:groupmode="layer"
     id="layer2"
     inkscape:label="Symbol">
    <path
       style="fill:#ffffff;fill-opacity:1;display:inline;overflow:visible;opacity:0.15"
       d="M 10.4375 3.3125 C 9.8666059 3.3125 9.4093304 3.6171078 9.0625 4.03125 C 8.9082479 4.0106232 8.7714472 4 8.59375 4 C 7.8906669 4.0000905 7.1977127 4.1548553 6.5625 4.46875 C 6.3479635 4.5751882 6.3794449 4.6524691 6.3125 4.75 C 6.2735028 4.7535432 6.2355383 4.7703103 6.1875 4.78125 C 6.1642087 4.7865541 6.1502462 4.7735243 6.125 4.78125 C 6.0224372 4.8126356 5.7822039 4.9680069 5.78125 4.96875 C 5.1892768 5.4246788 4.8633887 6.0885191 4.5625 6.75 C 4.5146364 6.746215 4.4859277 6.6875 4.4375 6.6875 C 3.4322717 6.6875 2.5625 7.5577477 2.5625 8.5625 C 2.5625 9.5672523 3.3902907 10.46875 4.4375 10.46875 C 4.4979808 10.46875 4.5346415 10.411866 4.59375 10.40625 C 4.8876055 11.018383 5.1923105 11.636776 5.71875 12.0625 C 5.7418482 12.088536 5.75003 12.097201 5.78125 12.125 C 5.81247 12.152799 5.8030672 12.159167 5.84375 12.1875 C 5.952286 12.26309 6.0860812 12.254429 6.21875 12.28125 C 6.2888795 12.358947 6.3513165 12.49494 6.40625 12.53125 C 6.4968421 12.59113 6.5165877 12.608212 6.5625 12.625 C 6.5800834 12.631429 6.6122666 12.651901 6.625 12.65625 C 7.2482234 12.956286 7.9151787 13.09375 8.59375 13.09375 C 8.7247732 13.09375 8.8451822 13.074546 8.96875 13.0625 C 9.3089426 13.59017 9.7969231 14 10.46875 14 C 11.519401 14 12.375 13.140804 12.375 12.09375 C 12.375 11.81211 12.177283 11.613292 12.0625 11.375 C 12.625379 10.687257 13.035638 9.8909943 13.125 9 C 13.13244 8.940266 13.030204 8.7178028 13 8.5625 C 13.029923 8.4074489 13.132356 8.1841603 13.125 8.125 C 13.039689 7.2485482 12.665338 6.4230037 12.09375 5.71875 C 12.157367 5.5323596 12.3125 5.392861 12.3125 5.1875 C 12.3125 4.1665624 11.458945 3.3125 10.4375 3.3125 z M 10.4375 4.3125 C 10.923332 4.3125 11.3125 4.702067 11.3125 5.1875 C 11.3125 5.6729336 10.923332 6.0625 10.4375 6.0625 C 9.9516683 6.0625 9.5625 5.6729336 9.5625 5.1875 C 9.5625 4.702067 9.9516683 4.3125 10.4375 4.3125 z M 8.59375 5 C 8.7912023 5 8.975707 5.025793 9.1875 5.0625 C 9.220758 5.068266 9.25 5.091457 9.25 5.125 C 9.25 5.126128 9.2500707 5.1559006 9.25 5.15625 C 9.2500707 5.8294592 9.8226281 6.375 10.5 6.375 C 10.732189 6.375 10.953944 6.3181477 11.15625 6.1875 C 11.18486 6.169006 11.22736 6.162188 11.25 6.1875 C 11.751717 6.7454609 12.05271 7.4760675 12.125 8.21875 C 12.12684 8.238299 12.13815 8.266763 12.125 8.28125 C 12.11184 8.295763 12.08204 8.28125 12.0625 8.28125 L 10.71875 8.28125 C 10.68478 8.28125 10.66155 8.252364 10.65625 8.21875 C 10.496629 7.2177956 9.6118112 6.46875 8.59375 6.46875 C 8.3169786 6.46875 8.0452205 6.5134079 7.78125 6.625 C 7.749958 6.638154 7.705576 6.653689 7.6875 6.625 L 6.96875 5.46875 C 6.95838 5.452152 6.96339 5.456346 6.96875 5.4375 C 6.974028 5.418653 6.982424 5.38372 7 5.375 C 7.4943349 5.130721 8.0515291 5.0000698 8.59375 5 z M 6.40625 5.75 C 6.413881 5.744055 6.42822 5.75226 6.4375 5.75 C 6.446779 5.74774 6.45915 5.74828 6.46875 5.75 C 6.487945 5.753377 6.489593 5.764793 6.5 5.78125 L 7.21875 6.90625 C 7.236962 6.935153 7.244419 6.977568 7.21875 7 C 6.7633726 7.3966552 6.5 7.9645292 6.5 8.5625 C 6.5 9.1560413 6.7368332 9.7284812 7.1875 10.125 C 7.213155 10.14757 7.237098 10.15874 7.21875 10.1875 L 6.5 11.3125 C 6.48952 11.32888 6.456696 11.3717 6.4375 11.375 C 6.418231 11.37838 6.421652 11.35578 6.40625 11.34375 C 5.8320346 10.89696 5.3981021 10.284188 5.1875 9.59375 C 5.179201 9.566477 5.165209 9.517659 5.1875 9.5 C 5.4797406 9.2685885 5.65625 8.9278645 5.65625 8.5625 C 5.65625 8.1971357 5.4796702 7.8251609 5.1875 7.59375 C 5.1650643 7.576031 5.1792 7.558463 5.1875 7.53125 C 5.39979 6.8349769 5.824863 6.1977755 6.40625 5.75 z M 8.59375 7.46875 C 9.1203494 7.46875 9.5750673 7.8659179 9.65625 8.375 C 9.666533 8.4402177 9.7275789 8.4978008 9.75 8.5625 C 9.7275523 8.6265748 9.6668268 8.6849392 9.65625 8.75 C 9.5752337 9.2474579 9.1318325 9.625 8.59375 9.625 C 8.4137659 9.625 8.257572 9.6058953 8.15625 9.5625 A 1.0020515 1.0020515 0 0 0 8.15625 9.53125 C 8.1249233 9.5179137 8.0442139 9.5406851 8 9.53125 C 7.8902536 9.4001472 7.8090117 9.344439 7.84375 9.375 C 7.6214305 9.1793924 7.5 8.8895107 7.5 8.5625 C 7.5 8.2587314 7.6324856 7.9612415 7.875 7.75 C 7.9268432 7.7046945 7.8982574 7.6458092 7.9375 7.59375 C 8.0324002 7.5710421 8.1273481 7.5746493 8.15625 7.5625 C 8.281357 7.5096117 8.4247572 7.46875 8.59375 7.46875 z M 4.4375 7.6875 C 4.9347101 7.6875 5.34375 8.0656498 5.34375 8.5625 C 5.34375 9.0593511 4.9347101 9.46875 4.4375 9.46875 C 3.9402897 9.46875 3.5625 9.0593511 3.5625 8.5625 C 3.5625 8.0656498 3.9402897 7.6875 4.4375 7.6875 z M 10.71875 8.84375 L 12.0625 8.84375 C 12.08205 8.843671 12.11179 8.829195 12.125 8.84375 C 12.13823 8.858305 12.1269 8.886771 12.125 8.90625 C 12.0454 9.6999098 11.686488 10.458664 11.125 11.03125 C 11.10355 11.05314 11.08957 11.04539 11.0625 11.03125 C 10.884454 10.93844 10.69253 10.90625 10.5 10.90625 C 9.8789526 10.90625 9.352689 11.351723 9.28125 11.96875 C 9.277667 11.99906 9.248846 12.02595 9.21875 12.03125 C 9.0043506 12.06929 8.7971793 12.09375 8.59375 12.09375 C 8.0452712 12.09375 7.4982017 11.968162 7 11.71875 C 6.982496 11.71002 6.94272 11.70634 6.9375 11.6875 C 6.932295 11.66857 6.958268 11.64153 6.96875 11.625 L 7.6875 10.5 C 7.705857 10.47161 7.718782 10.45546 7.75 10.46875 C 8.0169261 10.583072 8.3137445 10.625 8.59375 10.625 C 9.6089995 10.625 10.494448 9.8997499 10.65625 8.90625 C 10.66167 8.87291 10.68493 8.8438213 10.71875 8.84375 z M 10.46875 11.21875 C 10.96596 11.21875 11.375 11.599463 11.375 12.09375 C 11.375 12.588039 10.96596 13 10.46875 13 C 9.9715385 13 9.5625 12.588039 9.5625 12.09375 C 9.5625 11.599463 9.9715385 11.21875 10.46875 11.21875 z "
       id="path4425" />
    <path
       style="fill:#b28440;fill-opacity:1;display:inline;overflow:visible"
       d="m 10.444378,4.3155315 c -0.4858317,0 -0.8792242,0.393773 -0.8792242,0.879206 0,0.4854336 0.3933925,0.8792065 0.8792242,0.8792065 0.485832,0 0.879224,-0.3937729 0.879224,-0.8792065 0,-0.485433 -0.393392,-0.879206 -0.879224,-0.879206 z M 8.5875552,5.0041408 c -0.5422209,6.98e-5 -1.0919574,0.136915 -1.5862923,0.381194 -0.017576,0.00872 -0.028544,0.024191 -0.033822,0.043038 -0.00536,0.018846 -0.00422,0.03874 0.00615,0.055338 l 0.713218,1.1282122 c 0.018076,0.028689 0.054786,0.040819 0.086078,0.027665 C 8.0368574,6.5279959 8.3107786,6.4735835 8.58755,6.4735835 c 1.0180612,0 1.906248,0.754385 2.065869,1.7553394 0.0053,0.033614 0.03367,0.058412 0.06764,0.058412 l 1.340356,0 c 0.01954,0 0.03911,-0.00701 0.05227,-0.021523 0.01315,-0.014487 0.02028,-0.032713 0.01844,-0.052262 -0.07229,-0.7426825 -0.389803,-1.4617554 -0.89152,-2.0197163 -0.02264,-0.025312 -0.06054,-0.027714 -0.08915,-0.00922 -0.202306,0.1306477 -0.431841,0.1998195 -0.66403,0.1998195 -0.6773719,0 -1.2265391,-0.5503017 -1.2266098,-1.2235109 7.07e-5,-3.494e-4 0,-0.023467 0,-0.024595 0,-0.033543 -0.025154,-0.064939 -0.058412,-0.070705 -0.211793,-0.036707 -0.417386,-0.061483 -0.6148383,-0.061483 z M 6.4356083,5.7419362 c -0.00928,0.00226 -0.020035,0.00635 -0.027666,0.012295 -0.581387,0.4477755 -1.0173936,1.0775107 -1.2296836,1.7737838 -0.0083,0.027213 -9.177e-4,0.05606 0.021518,0.073779 0.2921702,0.2314109 0.4672798,0.5876214 0.4672798,0.9529857 0,0.3653645 -0.1750392,0.7215745 -0.4672798,0.952986 -0.022291,0.017659 -0.029817,0.046501 -0.021518,0.073774 0.2106021,0.6904383 0.6431722,1.3177713 1.2173876,1.7645613 0.015402,0.01203 0.032992,0.01875 0.052261,0.01537 0.019196,-0.0033 0.035633,-0.01743 0.046113,-0.03381 l 0.7193649,-1.125139 c 0.018348,-0.02876 0.013364,-0.06658 -0.012291,-0.08915 -0.4506668,-0.3965188 -0.710142,-0.9650559 -0.710142,-1.5585972 0,-0.5979708 0.2609132,-1.1680867 0.7162906,-1.5647419 0.025669,-0.022432 0.033585,-0.060247 0.015373,-0.08915 L 6.5093927,5.772675 C 6.4989857,5.756218 6.4824737,5.74531 6.4632787,5.741933 c -0.0096,-0.00172 -0.018387,-0.00226 -0.027666,0 z M 4.4527436,7.6725013 c -0.4972103,0 -0.9007436,0.4038748 -0.9007436,0.900725 0,0.4968511 0.4035333,0.8976516 0.9007436,0.8976516 0.4972101,0 0.9007434,-0.4008005 0.9007434,-0.8976516 0,-0.4968502 -0.4035333,-0.900725 -0.9007434,-0.900725 z m 7.6086684,1.1620281 -1.340354,0.00304 c -0.03382,7.13e-5 -0.06529,0.025072 -0.07071,0.058412 -0.161802,0.9934999 -1.0475453,1.7430416 -2.0627948,1.7430416 -0.2800055,0 -0.556962,-0.05783 -0.8238881,-0.172152 -0.031218,-0.01329 -0.067722,-0.0038 -0.086079,0.02459 l -0.7193639,1.128212 c -0.010482,0.01653 -0.011355,0.03641 -0.00615,0.05534 0.00522,0.01884 0.01631,0.03431 0.033814,0.04304 0.4982017,0.249412 1.0531846,0.381194 1.6016634,0.381194 0.2034293,0 0.4158138,-0.02037 0.6302132,-0.05841 0.030096,-0.0053 0.051754,-0.0281 0.055337,-0.05841 0.071439,-0.617027 0.5932658,-1.0821 1.2143132,-1.0821 0.19253,0 0.390683,0.0486 0.568729,0.14141 0.02707,0.01414 0.05848,0.0096 0.07993,-0.01229 0.561488,-0.572586 0.916444,-1.3275016 0.996044,-2.1211614 0.0019,-0.019479 -0.0052,-0.037708 -0.01843,-0.052263 -0.01321,-0.014555 -0.03272,-0.021599 -0.05227,-0.02152 z m -1.583217,2.3763166 c -0.4972115,0 -0.900744,0.400289 -0.900744,0.894576 0,0.494289 0.4035325,0.894578 0.900744,0.894578 0.49721,0 0.900742,-0.400289 0.900742,-0.894578 0,-0.494287 -0.403532,-0.894576 -0.900742,-0.894576 z"
       id="path3324"
       inkscape:connector-curvature="0" />
    <path
       inkscape:connector-curvature="0"
       id="path4380"
       d="m -9.71875,2.28125 c -0.629207,0 -1.116652,0.3474995 -1.46875,0.8125 -0.199961,-0.025161 -0.394409,-0.03125 -0.59375,-0.03125 -0.748083,9.64e-5 -1.473482,0.1920345 -2.125,0.5 -0.05054,0.016054 -0.116187,0.033101 -0.25,0.125 -0.05184,0.035604 -0.09794,0.1533327 -0.15625,0.21875 -0.05132,0.00383 -0.06849,-0.013781 -0.125,0 -6.51e-4,1.587e-4 -0.139192,0.040488 -0.1875,0.0625 -0.04831,0.022012 -0.09197,0.041473 -0.125,0.0625 -0.04756,0.03028 -0.06603,0.038739 -0.09375,0.0625 -0.0069,0.00529 0.0068,0.025924 0,0.03125 -0.01637,0.012743 -0.0463,0.018316 -0.0625,0.03125 -0.634144,0.5062159 -1.05424,1.2236739 -1.375,1.96875 -0.0589,-0.00554 -0.09614,-0.0625 -0.15625,-0.0625 -1.070264,0 -1.96875,0.8989876 -1.96875,1.96875 0,1.069763 0.898488,1.96875 1.96875,1.96875 0.08503,0 0.136243,-0.08276 0.21875,-0.09375 0.330947,0.75117 0.720161,1.490478 1.375,2 0.174902,0.136595 0.311007,0.140642 0.46875,0.15625 0.06739,0.122125 0.108659,0.257724 0.34375,0.375 0.692767,0.346816 1.469014,0.53125 2.25,0.53125 0.178837,0 0.351523,-0.01083 0.53125,-0.03125 0.347577,0.572432 0.855107,1.03125 1.5625,1.03125 1.073592,0 2,-0.862809 2,-1.96875 0,-0.330021 -0.199405,-0.573433 -0.34375,-0.84375 C -7.395888,10.403045 -6.943361,9.493175 -6.84375,8.5 -6.80701,8.1175183 -6.911395,8.1058646 -7,8 -6.917342,7.8916392 -6.8099,7.8917835 -6.84375,7.53125 -6.940537,6.5368403 -7.360815,5.6007389 -8,4.84375 -7.922661,4.6380959 -7.75,4.4831584 -7.75,4.25 -7.75,3.1658607 -8.634075,2.28125 -9.71875,2.28125 z m 0,0.96875 c 0.545271,0 1,0.4551767 1,1 0,0.5448239 -0.454729,0.96875 -1,0.96875 -0.545271,0 -0.96875,-0.4239261 -0.96875,-0.96875 0,-0.5448233 0.423479,-1 0.96875,-1 z m -2.0625,0.78125 c 0.22161,0 0.449795,0.021302 0.6875,0.0625 0.03733,0.00647 0.0625,0.056103 0.0625,0.09375 7.9e-5,0.7555729 0.614755,1.375 1.375,1.375 0.260596,0 0.522944,-0.072118 0.75,-0.21875 0.03211,-0.020753 0.06834,0.00284 0.09375,0.03125 0.5631,0.6262246 0.91887,1.4164541 1,2.25 0.0021,0.021941 -0.01649,0.046241 -0.03125,0.0625 -0.01476,0.016286 -0.04057,0.03125 -0.0625,0.03125 l -1.5,0 c -0.03812,0 -0.0565,-0.024773 -0.0625,-0.0625 -0.17915,-1.123416 -1.169884,-1.96875 -2.3125,-1.96875 -0.310633,0 -0.641231,0.062256 -0.9375,0.1875 -0.03512,0.014763 -0.07346,9.49e-4 -0.09375,-0.03125 L -13.59375,4.5625 C -13.60539,4.543872 -13.63102,4.521152 -13.625,4.5 c 0.0059,-0.021153 0.04277,-0.02146 0.0625,-0.03125 0.554814,-0.2741653 1.172691,-0.4374216 1.78125,-0.4375 z m -2.4375,0.8125 c 0.01042,-0.00254 0.02048,-0.00193 0.03125,0 0.02154,0.00379 0.05082,0.01278 0.0625,0.03125 l 0.78125,1.28125 c 0.02044,0.032439 0.02881,0.068574 0,0.09375 -0.511091,0.4451839 -0.8125,1.0788706 -0.8125,1.75 0,0.666158 0.306697,1.30497 0.8125,1.75 0.02879,0.02534 0.02059,0.09272 0,0.125 l -0.8125,1.25 c -0.01176,0.01839 -0.0097,0.02755 -0.03125,0.03125 -0.02163,0.0038 -0.04521,0.0135 -0.0625,0 -0.644468,-0.501452 -1.138632,-1.225091 -1.375,-2 -0.0093,-0.03061 0.0062,-0.04268 0.03125,-0.0625 C -15.265755,8.8340265 -15.0625,8.410065 -15.0625,8 c 0,-0.4100648 -0.203334,-0.8027772 -0.53125,-1.0625 -0.02518,-0.019887 -0.04057,-0.063208 -0.03125,-0.09375 0.238263,-0.7814585 0.722483,-1.4661915 1.375,-1.96875 0.0086,-0.00667 0.02083,-0.02871 0.03125,-0.03125 z m 2.4375,1.8125 c 0.664565,0 1.240207,0.5069499 1.34375,1.15625 0.0088,0.055191 0.09962,0.1458714 0.125,0.21875 -0.02545,0.07236 -0.116014,0.163447 -0.125,0.21875 -0.103785,0.637264 -0.670689,1.125 -1.34375,1.125 -0.192568,0 -0.396003,-0.05369 -0.5625,-0.125 -0.09253,-0.03938 -0.184462,0.0091 -0.28125,0 -0.05121,-0.08281 0.0042,-0.132531 -0.09375,-0.21875 C -13.025086,8.7617209 -13.1875,8.3686642 -13.1875,8 c 0,-0.3809297 0.158845,-0.7613078 0.46875,-1.03125 0.05208,-0.045514 0.05148,-0.1252092 0.09375,-0.1875 0.09636,-0.00885 0.189965,0.038372 0.28125,0 0.164182,-0.069406 0.38137,-0.125 0.5625,-0.125 z m -4.65625,0.375 c 0.558041,0 1,0.4423627 1,1 0,0.5576383 -0.441959,1 -1,1 -0.558041,0 -1,-0.4423617 -1,-1 0,-0.5576373 0.441959,-1 1,-1 z m 8.53125,1.28125 c 0.02194,-8.8e-5 0.04767,0.014914 0.0625,0.03125 0.01489,0.016336 0.03335,0.040638 0.03125,0.0625 -0.08934,0.89076 -0.494817,1.732361 -1.125,2.375 -0.02407,0.02454 -0.06337,0.04712 -0.09375,0.03125 -0.199828,-0.104171 -0.408915,-0.15625 -0.625,-0.15625 -0.697029,0 -1.294821,0.494983 -1.375,1.1875 -0.004,0.03402 -0.02872,0.08785 -0.0625,0.09375 -0.24063,0.0427 -0.459182,0.0625 -0.6875,0.0625 -0.615582,0 -1.253346,-0.157574 -1.8125,-0.4375 -0.01965,-0.0098 -0.02539,-0.04135 -0.03125,-0.0625 -0.0058,-0.02124 -0.01177,-0.04395 0,-0.0625 l 0.8125,-1.25 c 0.0206,-0.0319 0.05871,-0.04616 0.09375,-0.03125 0.299583,0.128314 0.623237,0.1875 0.9375,0.1875 1.13946,0 2.130903,-0.822451 2.3125,-1.9375 0.0061,-0.037419 0.02454,-0.06242 0.0625,-0.0625 l 1.5,-0.03125 z M -9.6875,11 c 0.558041,0 1.03125,0.445239 1.03125,1 0,0.554763 -0.473209,1 -1.03125,1 -0.558042,0 -1,-0.445237 -1,-1 0,-0.554761 0.441958,-1 1,-1 z"
       style="opacity:0.15;fill:#ffffff;fill-opacity:1;display:inline;overflow:visible" />
    <path
       inkscape:connector-curvature="0"
       id="path4382"
       d="m -9.712375,3.2530314 c -0.545271,0 -0.986793,0.4419491 -0.986793,0.9867724 0,0.5448239 0.441522,0.9867729 0.986793,0.9867729 0.545271,0 0.986793,-0.441949 0.986793,-0.9867729 0,-0.5448233 -0.441522,-0.9867724 -0.986793,-0.9867724 z m -2.083996,0.7728571 c -0.608558,7.84e-5 -1.225552,0.1536659 -1.780367,0.4278312 -0.01973,0.00979 -0.03204,0.02715 -0.03796,0.048303 -0.006,0.021152 -0.0047,0.04348 0.0069,0.062108 l 0.800477,1.2662431 c 0.02029,0.032199 0.06149,0.045813 0.09661,0.03105 0.296269,-0.1252443 0.603703,-0.1863138 0.914336,-0.1863138 1.142615,0 2.139467,0.8466801 2.318617,1.9700961 0.006,0.037727 0.03779,0.065558 0.07591,0.065558 l 1.504342,0 c 0.02193,0 0.0439,-0.00787 0.05866,-0.024156 0.01476,-0.016259 0.02276,-0.036715 0.0207,-0.058656 -0.08113,-0.8335459 -0.437494,-1.6405936 -1.000594,-2.2668182 -0.02541,-0.028409 -0.06795,-0.031105 -0.100059,-0.010352 -0.227056,0.1466317 -0.484674,0.2242663 -0.74527,0.2242663 -0.760245,0 -1.3766,-0.6176282 -1.376679,-1.3732011 7.9e-5,-3.922e-4 0,-0.026338 0,-0.027604 0,-0.037647 -0.02823,-0.072884 -0.06556,-0.079355 -0.237705,-0.041198 -0.468452,-0.069005 -0.690061,-0.069005 z m -2.415226,0.8280609 c -0.01042,0.00254 -0.02249,0.00713 -0.03105,0.013799 -0.652517,0.5025585 -1.141867,1.2093386 -1.380129,1.9907971 -0.0093,0.030542 -0.001,0.062919 0.02415,0.082806 0.327916,0.2597228 0.524449,0.6595138 0.524449,1.0695786 0,0.410065 -0.196454,0.8098554 -0.524449,1.0695789 -0.02502,0.01982 -0.03347,0.05219 -0.02415,0.0828 0.236368,0.774909 0.721861,1.478994 1.366329,1.980446 0.01729,0.0135 0.03703,0.02104 0.05865,0.01725 0.02155,-0.0037 0.03999,-0.01956 0.05175,-0.03795 l 0.807375,-1.262793 c 0.02059,-0.03228 0.015,-0.07472 -0.0138,-0.100058 -0.505803,-0.44503 -0.797024,-1.0831247 -0.797024,-1.7492827 0,-0.6711294 0.292834,-1.3109961 0.803925,-1.75618 0.02881,-0.025176 0.03769,-0.067618 0.01725,-0.1000572 l -0.800482,-1.2662352 c -0.01168,-0.01847 -0.03021,-0.030713 -0.05176,-0.034503 -0.01077,-0.00193 -0.02064,-0.00254 -0.03105,0 z m -2.225458,2.1667598 c -0.558042,0 -1.010945,0.4532868 -1.010945,1.0109241 0,0.5576383 0.452903,1.0074747 1.010945,1.0074747 0.558041,0 1.010945,-0.4498364 1.010945,-1.0074747 0,-0.5576373 -0.452904,-1.0109241 -1.010945,-1.0109241 z m 8.53955,1.3041963 -1.50434,0.00341 c -0.03796,8e-5 -0.07328,0.028139 -0.07936,0.065558 -0.181597,1.1150495 -1.175707,1.9562935 -2.315167,1.9562935 -0.314263,0 -0.625103,-0.0649 -0.924686,-0.193214 -0.03504,-0.01491 -0.07601,-0.0043 -0.09661,0.0276 l -0.807375,1.266243 c -0.01177,0.01855 -0.01274,0.04087 -0.0069,0.06211 0.0059,0.02115 0.01831,0.03851 0.03795,0.04831 0.559154,0.279926 1.182037,0.427831 1.797619,0.427831 0.228318,0 0.466686,-0.02286 0.707317,-0.06556 0.03378,-0.0059 0.05809,-0.03154 0.06211,-0.06556 0.08018,-0.692517 0.665848,-1.21449 1.362878,-1.21449 0.216085,0 0.438481,0.05454 0.638309,0.158711 0.03038,0.01587 0.06564,0.01075 0.08971,-0.01379 0.630183,-0.642639 1.028566,-1.489915 1.117905,-2.380675 0.0021,-0.021862 -0.0058,-0.042321 -0.02069,-0.058657 -0.01483,-0.016336 -0.03672,-0.024241 -0.05866,-0.024153 z m -1.776916,2.6670465 c -0.558042,0 -1.010945,0.449262 -1.010945,1.004023 0,0.554763 0.452903,1.004025 1.010945,1.004025 0.558041,0 1.010944,-0.449262 1.010944,-1.004025 0,-0.554761 -0.452903,-1.004023 -1.010944,-1.004023 z"
       style="fill:#b28440;fill-opacity:1;display:inline;overflow:visible" />
    <path
       inkscape:connector-curvature="0"
       id="path4384"
       d="m -9.71875,3.25 c -0.545271,0 -0.96875,0.4551767 -0.96875,1 0,0.1855692 0.0359,0.3516982 0.125,0.5 0.169404,-0.2993021 0.475052,-0.5 0.84375,-0.5 0.366855,0 0.673685,0.2031642 0.84375,0.5 0.09152,-0.1497168 0.15625,-0.3117153 0.15625,-0.5 0,-0.5448233 -0.454729,-1 -1,-1 z m -2.0625,0.78125 c -0.608559,7.84e-5 -1.226436,0.1633347 -1.78125,0.4375 -0.01973,0.00979 -0.05658,0.010097 -0.0625,0.03125 -0.006,0.021152 0.01961,0.043872 0.03125,0.0625 l 0.4375,0.71875 c 0.436118,-0.1588636 0.918581,-0.2499412 1.375,-0.25 0.22161,0 0.449795,0.021302 0.6875,0.0625 0.03733,0.00647 0.0625,0.056103 0.0625,0.09375 2.5e-5,0.2412021 0.04598,0.4900185 0.15625,0.6875 0.343742,0.1482941 0.636539,0.3707138 0.875,0.65625 0.110776,0.02878 0.223985,0.03125 0.34375,0.03125 0.260596,0 0.522944,-0.072118 0.75,-0.21875 0.03211,-0.020753 0.06834,0.00284 0.09375,0.03125 0.355306,0.3951367 0.607771,0.8433972 0.78125,1.34375 l 0.125,0 c 0.02193,0 0.04774,-0.014964 0.0625,-0.03125 C -7.82899,7.671241 -7.81044,7.646941 -7.8125,7.625 -7.89079,6.8206282 -8.220654,6.0538389 -8.75,5.4375 c -0.090503,0.4514636 -0.490301,0.78125 -0.96875,0.78125 -0.545271,0 -0.96875,-0.4239261 -0.96875,-0.96875 0,-0.042515 0.02603,-0.083899 0.03125,-0.125 -0.231062,-0.2459276 -0.374962,-0.5754547 -0.375,-0.9375 0,-0.037647 -0.02517,-0.087279 -0.0625,-0.09375 -0.237705,-0.041198 -0.46589,-0.0625 -0.6875,-0.0625 z m -2.4375,0.8125 c -0.01042,0.00254 -0.02268,0.024581 -0.03125,0.03125 -0.652517,0.5025585 -1.136737,1.1872915 -1.375,1.96875 -0.0093,0.030542 0.0061,0.073863 0.03125,0.09375 0.09395,0.074415 0.17915,0.155641 0.25,0.25 0.266982,-0.5113604 0.634137,-0.9585128 1.09375,-1.3125 0.0086,-0.00667 0.02083,-0.02871 0.03125,-0.03125 0.01042,-0.00254 0.02048,-0.00193 0.03125,0 0.02154,0.00379 0.05082,0.01278 0.0625,0.03125 l 0.4375,0.75 c 0.09933,-0.1330779 0.215977,-0.263704 0.34375,-0.375 0.02881,-0.025176 0.02044,-0.061311 0,-0.09375 L -14.125,4.875 c -0.01168,-0.01847 -0.04096,-0.02746 -0.0625,-0.03125 -0.01077,-0.00193 -0.02083,-0.00254 -0.03125,0 z m -2.21875,2.1875 c -0.558041,0 -1,0.4423627 -1,1 0,0.1805775 0.04182,0.3536459 0.125,0.5 0.173679,-0.3066208 0.497667,-0.5 0.875,-0.5 0.377333,0 0.701321,0.1933792 0.875,0.5 0.07353,-0.1293732 0.115398,-0.2803313 0.125,-0.4375 -0.04981,-0.054573 -0.09769,-0.1098709 -0.15625,-0.15625 -0.02518,-0.019887 -0.04057,-0.063208 -0.03125,-0.09375 0.02635,-0.086421 0.06138,-0.1655805 0.09375,-0.25 -0.162556,-0.3408546 -0.503636,-0.5625 -0.90625,-0.5625 z m 8.5625,1.3125 c 0.01061,0.061522 0.02363,0.1255537 0.03125,0.1875 0.0057,-0.042662 0.02695,-0.082119 0.03125,-0.125 0.0021,-0.021862 -0.01636,-0.046164 -0.03125,-0.0625 -0.0059,-0.00653 -0.02351,0.00386 -0.03125,0 z M -15.1875,8.5 c -0.0617,0.1533924 -0.137093,0.3138013 -0.25,0.4375 0.0028,0.030702 0,0.062323 0,0.09375 0,0.13941 -0.01132,0.28566 -0.0625,0.40625 0.05021,0.127009 0.09301,0.253581 0.15625,0.375 0.168334,-0.231644 0.28125,-0.527195 0.28125,-0.8125 0,-0.1739953 -0.05921,-0.3396195 -0.125,-0.5 z m 1.09375,0.03125 c -0.03544,0.161321 -0.0625,0.3009677 -0.0625,0.46875 0,0.499619 0.173458,1.007813 0.46875,1.40625 L -13.34375,9.875 c 0.02059,-0.03228 0.02879,-0.09966 0,-0.125 -0.371766,-0.327097 -0.640511,-0.748573 -0.75,-1.21875 z m 4.59375,0 c -0.232968,1.05214 -1.184905,1.8125 -2.28125,1.8125 -0.314263,0 -0.637917,-0.05919 -0.9375,-0.1875 -0.03504,-0.01491 -0.07315,-6.5e-4 -0.09375,0.03125 l -0.8125,1.25 c -0.01177,0.01855 -0.0058,0.04126 0,0.0625 0.0059,0.02115 0.0116,0.0527 0.03125,0.0625 0.131353,0.06576 0.268784,0.136518 0.40625,0.1875 0.0088,0.0033 0.0224,-0.0032 0.03125,0 l 0.34375,-0.5625 c 0.0206,-0.0319 0.05871,-0.04616 0.09375,-0.03125 0.299583,0.128314 0.623237,0.1875 0.9375,0.1875 0.450395,0 0.854976,-0.115923 1.21875,-0.34375 0.556544,-0.348555 0.983933,-0.919447 1.09375,-1.59375 0.0061,-0.03742 0.02454,-0.06242 0.0625,-0.0625 l 1.375,-0.03125 C -7.95987,9.109568 -7.912425,8.8997887 -7.875,8.6875 -7.88662,8.69328 -7.89309,8.71875 -7.90625,8.71875 l -1.5,0 c -0.03812,0 -0.0565,-0.024773 -0.0625,-0.0625 C -9.47555,8.613742 -9.49092,8.572934 -9.5,8.53125 z m 0.75,3.0625 c -0.05807,0.06788 -0.124761,0.12352 -0.1875,0.1875 -0.02407,0.02454 -0.06337,0.04712 -0.09375,0.03125 -0.199828,-0.104171 -0.408915,-0.15625 -0.625,-0.15625 -0.40422,0 -0.747549,0.186205 -1,0.46875 0.01841,0.134747 0.05833,0.262784 0.125,0.375 0.173679,-0.30454 0.466416,-0.5 0.84375,-0.5 0.377333,0 0.701321,0.19546 0.875,0.5 0.08872,-0.14933 0.15625,-0.313991 0.15625,-0.5 0,-0.13869 -0.04257,-0.286118 -0.09375,-0.40625 z"
       style="opacity:0.2;fill:#000000;fill-opacity:1;display:inline;overflow:visible" />
    <path
       inkscape:connector-curvature="0"
       id="path4386"
       d="m -10.5625,4.75 c -0.06158,0.1087969 -0.07732,0.2455412 -0.09375,0.375 0.251155,0.2673126 0.604039,0.4375 1,0.4375 0.260596,0 0.522944,-0.072118 0.75,-0.21875 0.03211,-0.020753 0.06834,0.00284 0.09375,0.03125 0.01971,0.021918 0.0433,0.040146 0.0625,0.0625 0.01264,-0.063054 0.03125,-0.1207324 0.03125,-0.1875 0,-0.1782694 -0.07354,-0.3556372 -0.15625,-0.5 -0.173307,0.2835063 -0.486918,0.46875 -0.84375,0.46875 -0.359549,0 -0.671263,-0.1816435 -0.84375,-0.46875 z m -2.59375,0.53125 c -0.145373,0.052955 -0.267547,0.1189587 -0.40625,0.1875 -0.01973,0.00979 -0.05658,0.010097 -0.0625,0.03125 -0.006,0.021152 0.01961,0.043872 0.03125,0.0625 l 0.78125,1.28125 c 0.02029,0.032199 0.05863,0.046013 0.09375,0.03125 0.296269,-0.1252443 0.626867,-0.1875 0.9375,-0.1875 1.099382,0 2.050266,0.7837765 2.28125,1.84375 0.0092,-0.041376 0.02438,-0.082809 0.03125,-0.125 0.0061,-0.03742 0.02454,-0.06242 0.0625,-0.0625 l 1.5,-0.03125 c 0.01316,-5.4e-5 0.01964,0.025454 0.03125,0.03125 -0.03647,-0.2113811 -0.08586,-0.4219694 -0.15625,-0.625 l -1.375,0 c -0.03812,0 -0.0565,-0.024773 -0.0625,-0.0625 C -9.535931,7.234969 -9.738274,6.8446434 -10,6.53125 c -0.367932,-0.09559 -0.694271,-0.3325681 -0.875,-0.65625 -0.285054,-0.1229756 -0.582509,-0.1875 -0.90625,-0.1875 -0.310633,0 -0.641231,0.062256 -0.9375,0.1875 -0.03512,0.014763 -0.07346,9.49e-4 -0.09375,-0.03125 l -0.34375,-0.5625 z M -13.6875,6.625 c -0.297976,0.3992336 -0.46875,0.8716532 -0.46875,1.375 0,0.1665395 0.0273,0.3395465 0.0625,0.5 0.110224,-0.4726666 0.374348,-0.9227898 0.75,-1.25 0.02881,-0.025176 0.02044,-0.061311 0,-0.09375 L -13.6875,6.625 z m -1.65625,0.5625 c -0.07014,0.1343358 -0.133335,0.2649984 -0.1875,0.40625 0.06275,0.1315857 0.09375,0.282185 0.09375,0.4375 0,0.020952 0.0013,0.041871 0,0.0625 0.110762,0.1213621 0.188426,0.2561487 0.25,0.40625 0.06352,-0.157904 0.125,-0.3291396 0.125,-0.5 0,-0.2925743 -0.104819,-0.5775275 -0.28125,-0.8125 z m -1.96875,1.34375 c -0.08318,0.1468432 -0.125,0.3194229 -0.125,0.5 0,0.557639 0.441959,1 1,1 0.418531,0 0.783963,-0.23198 0.9375,-0.59375 -0.03799,-0.09611 -0.0949,-0.182569 -0.125,-0.28125 -0.0093,-0.03061 0.0062,-0.04268 0.03125,-0.0625 0.05857,-0.04638 0.106438,-0.1016771 0.15625,-0.15625 -0.01336,-0.1457072 -0.0563,-0.2849633 -0.125,-0.40625 -0.173679,0.3055996 -0.497667,0.5 -0.875,0.5 -0.377333,0 -0.701321,-0.1944004 -0.875,-0.5 z m 9.46875,0 c -0.0071,0.052842 -0.02201,0.1038062 -0.03125,0.15625 0.0077,-0.00386 0.02535,0.00651 0.03125,0 C -7.82899,8.671241 -7.81044,8.646941 -7.8125,8.625 -7.8156,8.59294 -7.83982,8.563222 -7.84375,8.53125 z m -0.1875,0.78125 c -0.192474,0.547214 -0.496088,1.050481 -0.90625,1.46875 -0.02407,0.02454 -0.06337,0.04712 -0.09375,0.03125 -0.199828,-0.104171 -0.408915,-0.15625 -0.625,-0.15625 -0.348515,0 -0.662682,0.126692 -0.90625,0.34375 -0.243569,0.217058 -0.42866,0.497491 -0.46875,0.84375 -0.004,0.03402 -0.02872,0.08785 -0.0625,0.09375 -0.24063,0.0427 -0.459182,0.0625 -0.6875,0.0625 -0.461687,0 -0.935066,-0.09031 -1.375,-0.25 -0.0089,-0.0032 -0.02242,0.0033 -0.03125,0 l -0.4375,0.6875 c -0.01177,0.01855 -0.0058,0.04126 0,0.0625 0.0059,0.02115 0.0116,0.0527 0.03125,0.0625 0.559154,0.279926 1.196918,0.4375 1.8125,0.4375 0.228318,0 0.44687,-0.0198 0.6875,-0.0625 0.03378,-0.0059 0.05848,-0.05973 0.0625,-0.09375 0.03368,-0.290914 0.192129,-0.514079 0.375,-0.71875 -0.0061,-0.04457 -0.03125,-0.07877 -0.03125,-0.125 0,-0.554761 0.441958,-1 1,-1 0.418531,0 0.783963,0.233355 0.9375,0.59375 0.525194,-0.613911 0.857055,-1.385422 0.9375,-2.1875 C -7.8104,9.38439 -7.82886,9.36009 -7.84375,9.34375 -7.85858,9.32741 -7.88431,9.31241 -7.90625,9.3125 l -0.125,0 z m -7.3125,0.5 c -0.07361,0.101295 -0.150209,0.202231 -0.25,0.28125 -0.02502,0.01982 -0.04056,0.03189 -0.03125,0.0625 0.236368,0.774909 0.730532,1.498548 1.375,2 0.01729,0.0135 0.04087,0.0038 0.0625,0 0.02154,-0.0037 0.01949,-0.01286 0.03125,-0.03125 l 0.8125,-1.25 c 0.02059,-0.03228 0.02879,-0.09966 0,-0.125 -0.126451,-0.111258 -0.245319,-0.210938 -0.34375,-0.34375 l -0.46875,0.71875 c -0.01176,0.01839 -0.0097,0.02755 -0.03125,0.03125 -0.02163,0.0038 -0.04521,0.0135 -0.0625,0 -0.453944,-0.353208 -0.829057,-0.835537 -1.09375,-1.34375 z m 4.8125,2.6875 c -0.08318,0.145847 -0.15625,0.320354 -0.15625,0.5 0,0.554763 0.441958,1 1,1 0.558041,0 1.03125,-0.445237 1.03125,-1 0,-0.179646 -0.07307,-0.354153 -0.15625,-0.5 -0.175891,0.296039 -0.504067,0.5 -0.875,0.5 -0.370934,0 -0.667859,-0.203961 -0.84375,-0.5 z"
       style="opacity:0.15;fill:#ffffff;fill-opacity:1;display:inline;overflow:visible" />
    <path
       style="fill:#000000;fill-opacity:1;display:inline;overflow:visible;opacity:0.2"
       d="M 10.4375 4.3125 C 9.951668 4.3125 9.5625 4.702067 9.5625 5.1875 C 9.5625 5.3742052 9.620254 5.5458681 9.71875 5.6875 C 9.876344 5.4608889 10.138526 5.3125 10.4375 5.3125 C 10.736474 5.3125 10.998656 5.4608889 11.15625 5.6875 C 11.25475 5.5458681 11.3125 5.3742052 11.3125 5.1875 C 11.3125 4.702067 10.923332 4.3125 10.4375 4.3125 z M 8.59375 5 C 8.051529 5.0000698 7.494335 5.130721 7 5.375 C 6.98242 5.38372 6.97403 5.418653 6.96875 5.4375 C 6.96335 5.456346 6.95845 5.452152 6.96875 5.46875 L 7.4375 6.21875 C 7.814491 6.0895517 8.203213 6.0000503 8.59375 6 C 8.791202 6 8.975707 6.025793 9.1875 6.0625 C 9.22076 6.068266 9.25 6.091457 9.25 6.125 C 9.25 6.12613 9.250071 6.155901 9.25 6.15625 C 9.250017 6.313438 9.287265 6.4558017 9.34375 6.59375 C 9.34774 6.6035 9.33951 6.615371 9.34375 6.625 C 9.704781 6.7685463 10.018113 7.0043636 10.25 7.3125 C 10.33624 7.331252 10.408815 7.375 10.5 7.375 C 10.732189 7.375 10.953944 7.318148 11.15625 7.1875 C 11.18486 7.169006 11.22736 7.162188 11.25 7.1875 C 11.538294 7.5081129 11.755815 7.8770924 11.90625 8.28125 L 12.0625 8.28125 C 12.08204 8.28125 12.11184 8.295763 12.125 8.28125 C 12.13815 8.266763 12.1268 8.238299 12.125 8.21875 C 12.05271 7.4760675 11.751717 6.7454609 11.25 6.1875 C 11.22736 6.162188 11.18486 6.169006 11.15625 6.1875 C 10.953944 6.3181477 10.732189 6.375 10.5 6.375 C 9.822628 6.375 9.250071 5.8294592 9.25 5.15625 C 9.250071 5.1559006 9.25 5.126128 9.25 5.125 C 9.25 5.091457 9.22076 5.068266 9.1875 5.0625 C 8.975707 5.025793 8.791202 5 8.59375 5 z M 6.40625 5.75 C 5.824863 6.1977755 5.39979 6.8349769 5.1875 7.53125 C 5.1792 7.558463 5.165062 7.576031 5.1875 7.59375 C 5.295012 7.678904 5.36433 7.7903624 5.4375 7.90625 C 5.671 7.4626569 6.007259 7.0572969 6.40625 6.75 C 6.41388 6.74406 6.4282 6.75226 6.4375 6.75 C 6.44678 6.74774 6.45915 6.74828 6.46875 6.75 C 6.48794 6.753377 6.48959 6.764793 6.5 6.78125 L 6.875 7.375 C 6.972559 7.2358184 7.087672 7.1141748 7.21875 7 C 7.24442 6.977568 7.23697 6.935153 7.21875 6.90625 L 6.5 5.78125 C 6.48959 5.764793 6.48794 5.753377 6.46875 5.75 C 6.45915 5.74828 6.44678 5.74774 6.4375 5.75 C 6.4282 5.75226 6.41388 5.744055 6.40625 5.75 z M 4.4375 7.6875 C 3.940289 7.6875 3.5625 8.0656498 3.5625 8.5625 C 3.5625 8.7535966 3.621678 8.9155943 3.71875 9.0625 C 3.874065 8.8365541 4.131524 8.6875 4.4375 8.6875 C 4.740607 8.6875 4.99137 8.8402144 5.15625 9.0625 C 5.261835 8.9143465 5.34375 8.756463 5.34375 8.5625 C 5.34375 8.0656498 4.93471 7.6875 4.4375 7.6875 z M 12.0625 8.84375 C 12.07481 8.904933 12.08457 8.9696204 12.09375 9.03125 C 12.09955 8.989365 12.12078 8.948354 12.125 8.90625 C 12.1269 8.886771 12.13823 8.858305 12.125 8.84375 C 12.11179 8.829195 12.08205 8.843671 12.0625 8.84375 z M 5.53125 9.0625 C 5.45042 9.232935 5.341627 9.3779542 5.1875 9.5 C 5.16521 9.517659 5.1792 9.566477 5.1875 9.59375 C 5.253571 9.810358 5.330031 10.020157 5.4375 10.21875 C 5.568158 10.02626 5.65625 9.7982588 5.65625 9.5625 C 5.65625 9.3898278 5.603692 9.2225898 5.53125 9.0625 z M 10.625 9.0625 C 10.397753 9.9709995 9.55238 10.625 8.59375 10.625 C 8.313745 10.625 8.016926 10.583072 7.75 10.46875 C 7.71878 10.45546 7.70586 10.47161 7.6875 10.5 L 6.96875 11.625 C 6.95827 11.64153 6.93225 11.66857 6.9375 11.6875 C 6.9427 11.70634 6.9825 11.71002 7 11.71875 C 7.13937 11.78852 7.291521 11.824647 7.4375 11.875 L 7.6875 11.5 C 7.70586 11.47165 7.71878 11.45546 7.75 11.46875 C 8.016926 11.58307 8.313745 11.625 8.59375 11.625 C 8.927531 11.625 9.246632 11.54679 9.53125 11.40625 C 9.669104 11.224254 9.84478 11.081224 10.0625 11 C 10.36058 10.706302 10.585462 10.340906 10.65625 9.90625 C 10.66165 9.87291 10.68493 9.843821 10.71875 9.84375 L 11.875 9.84375 C 11.94675 9.6622583 11.99044 9.4720479 12.03125 9.28125 L 10.71875 9.28125 C 10.68478 9.28125 10.66155 9.252364 10.65625 9.21875 C 10.64805 9.16723 10.63698 9.1126172 10.625 9.0625 z M 6.5625 9.125 C 6.530694 9.2685256 6.5 9.4130073 6.5 9.5625 C 6.5 9.9844932 6.612584 10.40498 6.84375 10.75 L 7.21875 10.1875 C 7.2371 10.15874 7.21315 10.14757 7.1875 10.125 C 6.882603 9.8567366 6.664525 9.5063645 6.5625 9.125 z M 10.46875 11.21875 C 9.971538 11.21875 9.5625 11.599463 9.5625 12.09375 C 9.5625 12.286713 9.644415 12.445492 9.75 12.59375 C 9.914879 12.371301 10.165642 12.21875 10.46875 12.21875 C 10.771857 12.21875 11.02262 12.371301 11.1875 12.59375 C 11.293085 12.445492 11.375 12.286713 11.375 12.09375 C 11.375 11.599463 10.96596 11.21875 10.46875 11.21875 z "
       id="path4405" />
    <path
       style="fill:#ffffff;fill-opacity:1;display:inline;overflow:visible;opacity:0.15"
       d="M 9.71875 5.6875 C 9.6545849 5.7795459 9.6189686 5.8869015 9.59375 6 C 9.8176044 6.2391057 10.146412 6.375 10.5 6.375 C 10.732189 6.375 10.953944 6.3181477 11.15625 6.1875 C 11.18486 6.169006 11.22736 6.162188 11.25 6.1875 C 11.269784 6.2095016 11.293293 6.2275058 11.3125 6.25 C 11.313998 6.2290216 11.3125 6.2088591 11.3125 6.1875 C 11.3125 6.000795 11.255515 5.8298977 11.15625 5.6875 C 10.997426 5.9153364 10.736474 6.0625 10.4375 6.0625 C 10.138527 6.0625 9.8775746 5.9153364 9.71875 5.6875 z M 7.4375 6.21875 C 7.2919185 6.2696285 7.1382877 6.3066642 7 6.375 C 6.982424 6.38372 6.974028 6.418653 6.96875 6.4375 C 6.96339 6.456346 6.95838 6.452152 6.96875 6.46875 L 7.21875 6.90625 L 7.6875 7.625 C 7.705576 7.653689 7.749958 7.638154 7.78125 7.625 C 8.0452205 7.5134079 8.3169786 7.46875 8.59375 7.46875 C 9.5550347 7.46875 10.399308 8.1448276 10.625 9.0625 C 10.638424 9.0086985 10.647226 8.9616567 10.65625 8.90625 C 10.66167 8.87291 10.68493 8.8438213 10.71875 8.84375 L 12.0625 8.84375 C 12.023088 8.654629 11.976072 8.4617614 11.90625 8.28125 L 10.71875 8.28125 C 10.68478 8.28125 10.66155 8.252364 10.65625 8.21875 C 10.606837 7.9088908 10.483789 7.6225373 10.3125 7.375 C 9.8861775 7.3097522 9.5067055 7.0089347 9.34375 6.625 C 9.3396505 6.6153413 9.3476057 6.6035321 9.34375 6.59375 C 9.1075793 6.5010789 8.8578532 6.46875 8.59375 6.46875 C 8.3169786 6.46875 8.0452205 6.5134079 7.78125 6.625 C 7.749958 6.638154 7.705576 6.653689 7.6875 6.625 L 7.4375 6.21875 z M 6.875 7.375 C 6.6358297 7.7193156 6.5 8.1380337 6.5 8.5625 C 6.5 8.7345964 6.5205363 8.8981915 6.5625 9.0625 C 6.6654456 8.6563191 6.8942163 8.2826841 7.21875 8 C 7.244419 7.977568 7.236962 7.935153 7.21875 7.90625 L 6.875 7.375 z M 5.46875 7.90625 C 5.4053046 8.0232733 5.3310108 8.1267851 5.28125 8.25 C 5.319532 8.3499305 5.34375 8.4492182 5.34375 8.5625 C 5.34375 8.614535 5.3209962 8.669172 5.3125 8.71875 C 5.4044784 8.8132885 5.4738938 8.9143575 5.53125 9.03125 C 5.5968704 8.8810816 5.65625 8.726914 5.65625 8.5625 C 5.65625 8.3292289 5.5964032 8.1019605 5.46875 7.90625 z M 3.71875 9.0625 C 3.616991 9.2083999 3.5625 9.3714038 3.5625 9.5625 C 3.5625 10.059351 3.9402897 10.46875 4.4375 10.46875 C 4.8305647 10.46875 5.1583579 10.225402 5.28125 9.875 C 5.243714 9.7819785 5.2167102 9.6895128 5.1875 9.59375 C 5.179201 9.56648 5.165209 9.51766 5.1875 9.5 C 5.2270384 9.4686913 5.2773954 9.441841 5.3125 9.40625 C 5.2886916 9.2786247 5.2590977 9.1651551 5.1875 9.0625 C 5.026611 9.3074453 4.7530372 9.46875 4.4375 9.46875 C 4.1219627 9.46875 3.879639 9.3074453 3.71875 9.0625 z M 12.09375 9.0625 C 12.083112 9.1349015 12.077658 9.2097748 12.0625 9.28125 C 12.08204 9.28125 12.11184 9.295763 12.125 9.28125 C 12.13815 9.266763 12.12684 9.238299 12.125 9.21875 C 12.119953 9.166896 12.101167 9.114077 12.09375 9.0625 z M 11.90625 9.84375 C 11.732915 10.286304 11.461065 10.688543 11.125 11.03125 C 11.10355 11.05314 11.08957 11.04539 11.0625 11.03125 C 10.884454 10.93844 10.69253 10.90625 10.5 10.90625 C 10.365078 10.90625 10.215705 10.92806 10.09375 10.96875 C 9.9274705 11.142721 9.7471549 11.296981 9.53125 11.40625 C 9.403641 11.575105 9.3071555 11.745001 9.28125 11.96875 C 9.277667 11.99906 9.248846 12.02595 9.21875 12.03125 C 9.0043506 12.06929 8.7971793 12.09375 8.59375 12.09375 C 8.1987054 12.09375 7.8156466 12.006441 7.4375 11.875 L 6.96875 12.625 C 6.958268 12.64153 6.932295 12.66857 6.9375 12.6875 C 6.94272 12.70634 6.982496 12.71002 7 12.71875 C 7.4982017 12.968162 8.0452712 13.09375 8.59375 13.09375 C 8.7971793 13.09375 9.0043506 13.06929 9.21875 13.03125 C 9.248846 13.02595 9.277667 12.99906 9.28125 12.96875 C 9.3124604 12.699183 9.4511452 12.497952 9.625 12.3125 C 9.6085316 12.24485 9.5625 12.16644 9.5625 12.09375 C 9.5625 11.599463 9.9715385 11.21875 10.46875 11.21875 C 10.863535 11.21875 11.190934 11.461106 11.3125 11.8125 C 11.765575 11.270686 12.054643 10.607752 12.125 9.90625 C 12.1269 9.886771 12.13823 9.858305 12.125 9.84375 C 12.11179 9.829195 12.08205 9.843671 12.0625 9.84375 L 11.90625 9.84375 z M 5.46875 10.21875 C 5.3964658 10.329574 5.2931562 10.416336 5.1875 10.5 C 5.165209 10.51766 5.179201 10.56648 5.1875 10.59375 C 5.3981021 11.284188 5.8320346 11.89696 6.40625 12.34375 C 6.421652 12.35578 6.418231 12.37838 6.4375 12.375 C 6.456696 12.3717 6.48952 12.32888 6.5 12.3125 L 7.21875 11.1875 C 7.237098 11.15874 7.213155 11.14757 7.1875 11.125 C 7.0567366 11.009948 6.9719025 10.859175 6.875 10.71875 L 6.5 11.3125 C 6.48952 11.32888 6.456696 11.3717 6.4375 11.375 C 6.418231 11.37838 6.421652 11.35578 6.40625 11.34375 C 6.0164028 11.040415 5.7028828 10.651772 5.46875 10.21875 z M 9.75 12.625 C 9.657367 12.765565 9.5625 12.913145 9.5625 13.09375 C 9.5625 13.588039 9.9715385 14 10.46875 14 C 10.96596 14 11.375 13.588039 11.375 13.09375 C 11.375 12.913145 11.311383 12.765565 11.21875 12.625 C 11.055936 12.856798 10.774725 13 10.46875 13 C 10.162774 13 9.9128143 12.856798 9.75 12.625 z "
       id="path4416" />
  </g>
</svg>
