<?xml version="1.0" encoding="UTF-8" standalone="no"?>
<!-- Created with Inkscape (http://www.inkscape.org/) -->

<svg
   xmlns:dc="http://purl.org/dc/elements/1.1/"
   xmlns:cc="http://creativecommons.org/ns#"
   xmlns:rdf="http://www.w3.org/1999/02/22-rdf-syntax-ns#"
   xmlns:svg="http://www.w3.org/2000/svg"
   xmlns="http://www.w3.org/2000/svg"
   xmlns:xlink="http://www.w3.org/1999/xlink"
   xmlns:sodipodi="http://sodipodi.sourceforge.net/DTD/sodipodi-0.dtd"
   xmlns:inkscape="http://www.inkscape.org/namespaces/inkscape"
   width="16"
   height="16"
   id="svg2"
   sodipodi:version="0.32"
   inkscape:version="0.48.1 r9760"
   version="1.0"
   sodipodi:docname="folder-templates.svg"
   inkscape:output_extension="org.inkscape.output.svg.inkscape"
   style="display:inline">
  <defs
     id="defs4">
    <linearGradient
       id="linearGradient3191">
      <stop
         style="stop-color:#8b6429;stop-opacity:1;"
         offset="0"
         id="stop3193" />
      <stop
         style="stop-color:#cb9a4d;stop-opacity:1;"
         offset="1"
         id="stop3195" />
    </linearGradient>
    <linearGradient
       id="linearGradient3187">
      <stop
         style="stop-color:#c29657;stop-opacity:1;"
         offset="0"
         id="stop3189" />
      <stop
         style="stop-color:#e2c89a;stop-opacity:1;"
         offset="1"
         id="stop3191" />
    </linearGradient>
    <linearGradient
       inkscape:collect="always"
       xlink:href="#linearGradient3187"
       id="linearGradient3668"
       x1="10.871767"
       y1="26.306055"
       x2="10.871767"
       y2="8.1216478"
       gradientUnits="userSpaceOnUse"
       gradientTransform="matrix(0.6999999,0,0,0.6999999,-1.886778,-3.4141973)" />
    <linearGradient
       inkscape:collect="always"
       xlink:href="#linearGradient3191"
       id="linearGradient3197"
       x1="4.0625"
       y1="17.000139"
       x2="4.0625"
       y2="2.9996619"
       gradientUnits="userSpaceOnUse"
       gradientTransform="translate(0,-1.5)" />
  </defs>
  <sodipodi:namedview
     id="base"
     pagecolor="#ffffff"
     bordercolor="#dc0000"
     borderopacity="1"
     inkscape:pageopacity="0"
     inkscape:pageshadow="2"
     inkscape:zoom="22.695034"
     inkscape:cx="-2.2185829"
     inkscape:cy="9.3373881"
     inkscape:document-units="px"
     inkscape:current-layer="layer2"
     showgrid="true"
     inkscape:showpageshadow="false"
     showguides="true"
     inkscape:guide-bbox="true"
     inkscape:window-width="1920"
     inkscape:window-height="1030"
     inkscape:window-x="0"
     inkscape:window-y="25"
     inkscape:window-maximized="1"
     borderlayer="true">
    <sodipodi:guide
       orientation="0,1"
       position="26.278146,128"
       id="guide2385" />
    <sodipodi:guide
       orientation="1,0"
       position="128,54.082119"
       id="guide2387" />
    <sodipodi:guide
       orientation="0,1"
       position="78.156291,0"
       id="guide2389" />
    <inkscape:grid
       type="xygrid"
       id="grid3672"
       visible="true"
       enabled="true"
       empspacing="8"
       snapvisiblegridlinesonly="true" />
  </sodipodi:namedview>
  <metadata
     id="metadata7">
    <rdf:RDF>
      <cc:Work
         rdf:about="">
        <dc:format>image/svg+xml</dc:format>
        <dc:type
           rdf:resource="http://purl.org/dc/dcmitype/StillImage" />
        <dc:title></dc:title>
      </cc:Work>
    </rdf:RDF>
  </metadata>
  <g
     inkscape:label="Folder"
     inkscape:groupmode="layer"
     id="layer1"
     style="display:inline"
     sodipodi:insensitive="true">
    <rect
       style="fill:url(#linearGradient3197);fill-opacity:1;fill-rule:nonzero;stroke:none"
       id="rect2419"
       width="16"
       height="14.5"
       x="0"
       y="1.5"
       rx="2"
       ry="2" />
    <rect
       style="opacity:0;fill:#000000;fill-opacity:1;stroke:none;display:inline"
       id="rect3214"
       width="15"
       height="12.000001"
       x="0.5"
       y="4"
       rx="1.6666666"
       ry="1.627907" />
    <path
       style="fill:#9b6e2d;fill-opacity:1;fill-rule:nonzero;stroke:none"
       d="M 2.049999,0 C 1.4683,0 1,0.4683 1,1.05 L 1,2.1185435 1,3.577728 c 0,0.5816999 0.4683,1.0499999 1.049999,1.0499999 l 4.1756515,0 7.7000025,0 c 0.581699,0 1.049999,-0.4683 1.049999,-1.0499999 l 0,-1.4591845 c 0,-0.5816999 -0.4683,-1.0499999 -1.049999,-1.0499999 l -6.4643875,0 L 7.2756495,1.05 C 6.6968312,0.9921743 6.8073495,0 6.2256505,0 L 2.049999,0 z"
       id="rect2859"
       sodipodi:nodetypes="cccccccccccscc"
       inkscape:connector-curvature="0" />
    <path
       style="fill:#c39759;fill-opacity:1;fill-rule:nonzero;stroke:none"
       d="m 2.038152,1.027728 c -0.01345,0 0,-0.01913 0,0.03125 l 0,1.0625 0,3.46875 4.1875,0 7.6875,0 c 0.05038,0 0.03125,0.01345 0.03125,0 l 0,-3.46875 c 0,-0.01345 -0.0178,-0.03125 -0.03125,-0.03125 l -6.4375,0 -0.1875,0 c -0.03123,0.0014 -0.06252,0.0014 -0.09375,0 C 6.752915,2.046118 6.356927,1.740365 6.163152,1.496478 6.002471,1.294244 5.937954,1.151834 5.881902,1.027728 l -3.84375,0 z"
       id="path3218"
       sodipodi:nodetypes="cccccccccccsscc"
       inkscape:connector-curvature="0" />
    <rect
       style="fill:url(#linearGradient3668);fill-opacity:1;fill-rule:nonzero;stroke:none"
       id="rect3660"
       width="14"
       height="13.000002"
       x="1"
       y="2"
       rx="1"
       ry="1" />
    <path
       style="opacity:0.2;fill:#ffffff;fill-opacity:1;fill-rule:nonzero;stroke:none"
       d="M 2,2 C 1.446,2 1,2.446 1,3 L 1,4 C 1,3.446 1.446,3 2,3 l 12,0 c 0.554,0 1,0.446 1,1 L 15,3 C 15,2.446 14.554,2 14,2 L 2,2 z"
       id="rect3880"
       inkscape:connector-curvature="0" />
    <rect
       style="color:#000000;fill:#906d3b;fill-opacity:1;fill-rule:nonzero;stroke:none;stroke-width:2;marker:none;visibility:visible;display:inline;overflow:visible;enable-background:accumulate"
       id="rect3884"
       width="8"
       height="8"
       x="24"
       y="-8" />
    <rect
       style="color:#000000;fill:#bd8e48;fill-opacity:1;fill-rule:nonzero;stroke:none;stroke-width:2;marker:none;visibility:visible;display:inline;overflow:visible;enable-background:accumulate"
       id="rect3884-7"
       width="8"
       height="8"
       x="24"
       y="2" />
  </g>
  <g
     inkscape:groupmode="layer"
     id="layer2"
     inkscape:label="Symbol">
    <path
       sodipodi:type="inkscape:offset"
       inkscape:radius="0.90976846"
       inkscape:original="M 8 4 C 6.8954307 4 6 4.8954307 6 6 C 6 6.3253906 6.0808821 6.6347026 6.21875 6.90625 L 5.6875 9 L 4 9 L 4 10 L 5.40625 10 L 5.28125 10.53125 C 4.787134 12.399291 4.961903 13.945878 5.6875 14 L 6.75 10 L 9.25 10 L 10.3125 14 C 11.038098 13.94588 11.212865 12.399291 10.71875 10.53125 L 10.5625 10 L 12 10 L 12 9 L 10.3125 9 L 9.75 6.9375 C 9.899946 6.6569455 10 6.340341 10 6 C 10 4.8954307 9.1045693 4 8 4 z M 8 5.03125 C 8.5301934 5.03125 8.96875 5.4698066 8.96875 6 C 8.96875 6.5301934 8.5301934 6.96875 8 6.96875 C 7.4698066 6.96875 7.03125 6.5301934 7.03125 6 C 7.03125 5.4698066 7.4698066 5.03125 8 5.03125 z M 7.3125 7.875 C 7.5269255 7.9535117 7.7583755 8 8 8 C 8.2416245 8 8.4730745 7.9535117 8.6875 7.875 L 9 9 L 7.03125 9 L 7.3125 7.875 z "
       style="opacity:0.15;fill:#ffffff;fill-opacity:1;stroke:none;display:inline"
       id="path3690"
       d="M 8,3.09375 C 6.4037551,3.09375 5.09375,4.4037551 5.09375,6 c 0,0.3182854 0.1242556,0.58961 0.21875,0.875 L 5,8.09375 l -1,0 A 0.90985944,0.90985944 0 0 0 3.09375,9 l 0,1 A 0.90985944,0.90985944 0 0 0 4,10.90625 l 0.34375,0 C 4.1903171,11.675276 4.0526638,12.438096 4.125,13.0625 c 0.046131,0.398204 0.1293376,0.741645 0.34375,1.09375 0.2144124,0.352105 0.6570404,0.712764 1.15625,0.75 a 0.90985944,0.90985944 0 0 0 0.9375,-0.6875 l 0.875,-3.3125 1.125,0 0.875,3.3125 a 0.90985944,0.90985944 0 0 0 0.9375,0.6875 c 0.49921,-0.03723 0.941837,-0.397895 1.15625,-0.75 0.214413,-0.352105 0.297619,-0.695546 0.34375,-1.09375 0.07234,-0.624404 -0.06532,-1.387224 -0.21875,-2.15625 l 0.34375,0 A 0.90985944,0.90985944 0 0 0 12.90625,10 l 0,-1 A 0.90985944,0.90985944 0 0 0 12,8.09375 l -1,0 -0.3125,-1.1875 C 10.790974,6.6196901 10.90625,6.3411405 10.90625,6 10.90625,4.4037551 9.5962449,3.09375 8,3.09375 z M 8,5.9375 C 8.0285086,5.9375 8.0625,5.9714914 8.0625,6 8.0625,6.0285086 8.0285086,6.0625 8,6.0625 7.9714914,6.0625 7.9375,6.0285086 7.9375,6 7.9375,5.9714914 7.9714914,5.9375 8,5.9375 z" />
    <path
       inkscape:connector-curvature="0"
       style="fill:#bd8e48;fill-opacity:1;stroke:none;display:inline"
       d="M 8,4 C 6.895431,4 6,4.8954307 6,6 6,6.3253906 6.08088,6.6347026 6.21875,6.90625 L 5.6875,9 4,9 l 0,1 1.40625,0 -0.125,0.53125 C 4.787134,12.399291 4.961903,13.945878 5.6875,14 l 1.0625,-4 2.5,0 1.0625,4 c 0.725598,-0.05412 0.900365,-1.600709 0.40625,-3.46875 L 10.5625,10 12,10 12,9 10.3125,9 9.75,6.9375 C 9.899946,6.6569455 10,6.340341 10,6 10,4.8954307 9.104569,4 8,4 z M 8,5.03125 C 8.530193,5.03125 8.96875,5.4698066 8.96875,6 8.96875,6.5301934 8.530193,6.96875 8,6.96875 7.469807,6.96875 7.03125,6.5301934 7.03125,6 7.03125,5.4698066 7.469807,5.03125 8,5.03125 z M 7.3125,7.875 C 7.526925,7.953512 7.758375,8 8,8 8.241624,8 8.473074,7.953512 8.6875,7.875 L 9,9 7.03125,9 7.3125,7.875 z"
       id="path3695" />
    <g
       style="display:inline"
       id="g4167"
       transform="translate(-10,0)">
      <path
         id="path3681"
         d="m 18,4 c -1.104569,0 -2,0.8954307 -2,2 0,0.3253906 0.08088,0.6347026 0.21875,0.90625 L 15.6875,9 14,9 l 0,1 1.40625,0 -0.125,0.53125 C 14.787134,12.399291 14.961903,13.945878 15.6875,14 l 1.0625,-4 2.5,0 1.0625,4 c 0.725598,-0.05412 0.900365,-1.600709 0.40625,-3.46875 L 20.5625,10 22,10 22,9 20.3125,9 19.75,6.9375 C 19.899946,6.6569455 20,6.340341 20,6 20,4.8954307 19.104569,4 18,4 z m 0,0.46875 c 0.855808,0 1.53125,0.6754417 1.53125,1.53125 0,0.2501292 -0.06529,0.4900866 -0.1875,0.71875 A 0.46033929,0.46033929 0 0 0 19.3125,7.0625 L 19.875,9.125 a 0.46033929,0.46033929 0 0 0 0.4375,0.34375 l 1.21875,0 0,0.0625 -0.96875,0 A 0.46033929,0.46033929 0 0 0 20.125,10.125 l 0.15625,0.53125 c 0.235597,0.890692 0.312693,1.708836 0.25,2.25 -0.0037,0.03157 -0.02667,0.03292 -0.03125,0.0625 L 19.6875,9.875 A 0.46033929,0.46033929 0 0 0 19.25,9.53125 l -2.5,0 A 0.46033929,0.46033929 0 0 0 16.3125,9.875 L 15.5,12.96875 c -0.0046,-0.02958 -0.02759,-0.03093 -0.03125,-0.0625 -0.06269,-0.541164 0.0144,-1.359309 0.25,-2.25 a 0.46033929,0.46033929 0 0 0 0,-0.03125 l 0.125,-0.53125 a 0.46033929,0.46033929 0 0 0 -0.4375,-0.5625 l -0.9375,0 0,-0.0625 1.21875,0 A 0.46033929,0.46033929 0 0 0 16.125,9.125 L 16.65625,7.03125 A 0.46033929,0.46033929 0 0 0 16.625,6.6875 C 16.518109,6.476965 16.46875,6.2491141 16.46875,6 16.46875,5.1441917 17.144192,4.46875 18,4.46875 z m 0,0.09375 c -0.784019,0 -1.4375,0.6534814 -1.4375,1.4375 0,0.7840186 0.653481,1.4375 1.4375,1.4375 0.784019,0 1.4375,-0.6534814 1.4375,-1.4375 0,-0.7840186 -0.653481,-1.4375 -1.4375,-1.4375 z m 0,0.46875 c 0.530193,0 0.96875,0.4385566 0.96875,0.96875 0,0.5301934 -0.438557,0.96875 -0.96875,0.96875 -0.530193,0 -0.96875,-0.4385566 -0.96875,-0.96875 0,-0.5301934 0.438557,-0.96875 0.96875,-0.96875 z m -0.78125,2.375 A 0.46033929,0.46033929 0 0 0 16.875,7.75 l -0.28125,1.125 a 0.46033929,0.46033929 0 0 0 0.4375,0.59375 l 1.96875,0 A 0.46033929,0.46033929 0 0 0 19.4375,8.875 L 19.125,7.75 A 0.46033929,0.46033929 0 0 0 18.53125,7.4375 C 18.362158,7.499413 18.182584,7.53125 18,7.53125 c -0.182585,0 -0.362158,-0.031837 -0.53125,-0.09375 A 0.46033929,0.46033929 0 0 0 17.25,7.40625 a 0.46033929,0.46033929 0 0 0 -0.03125,0 z M 17.3125,7.875 C 17.526925,7.953512 17.758375,8 18,8 18.241624,8 18.473074,7.953512 18.6875,7.875 L 19,9 17.03125,9 17.3125,7.875 z"
         style="opacity:0.2;fill:#000000;fill-opacity:1;stroke:none;display:inline"
         inkscape:connector-curvature="0" />
      <path
         id="path2904"
         d="m 18,4 c -1.104569,0 -2,0.8954307 -2,2 0,0.1626953 0.02505,0.3168048 0.0625,0.46875 C 16.294277,5.6206362 17.078375,5 18,5 18.93198,5 19.715537,5.6373008 19.9375,6.5 19.98126,6.3432369 20,6.1701705 20,6 20,4.8954307 19.104569,4 18,4 z m -0.8125,2.5 c -0.09372,0.148884 -0.15625,0.3131869 -0.15625,0.5 0,0.5301934 0.438557,0.96875 0.96875,0.96875 0.530193,0 0.96875,-0.4385566 0.96875,-0.96875 0,-0.1868131 -0.06253,-0.351116 -0.15625,-0.5 C 18.640238,6.7736631 18.34338,6.96875 18,6.96875 17.65662,6.96875 17.359762,6.7736631 17.1875,6.5 z m -1.125,1 L 15.6875,9 14,9 l 0,1 1.40625,0 0.28125,0 0.53125,-2.09375 C 16.154183,7.7790773 16.099615,7.6415109 16.0625,7.5 z m 3.84375,0.0625 C 19.86433,7.6943915 19.81399,7.8177806 19.75,7.9375 L 20.3125,10 20.5625,10 22,10 22,9 20.3125,9 19.90625,7.5625 z M 17.28125,9 17.03125,10 19,10 18.71875,9 18,9 17.28125,9 z m -2.09375,2 c -0.149568,0.707496 -0.201994,1.335989 -0.15625,1.84375 0.04176,-0.408531 0.126471,-0.84549 0.25,-1.3125 L 15.40625,11 15.1875,11 z m 5.375,0 0.15625,0.53125 c 0.123529,0.46701 0.208237,0.903968 0.25,1.3125 C 21.01449,12.335989 20.96205,11.707496 20.8125,11 l -0.25,0 z"
         style="opacity:0.2;fill:#000000;fill-opacity:1;stroke:none;display:inline"
         inkscape:connector-curvature="0" />
    </g>
    <path
       inkscape:connector-curvature="0"
       style="opacity:0.15;fill:#ffffff;fill-opacity:1;stroke:none;display:inline"
       d="M 8,5.03125 C 7.469807,5.03125 7.03125,5.4698066 7.03125,6 c 0,0.1868131 0.062532,0.351116 0.15625,0.5 C 7.3597623,6.2263369 7.65662,6.03125 8,6.03125 8.34338,6.03125 8.6402377,6.2263369 8.8125,6.5 8.9062178,6.351116 8.96875,6.1868131 8.96875,6 8.96875,5.4698066 8.530193,5.03125 8,5.03125 z M 6.0625,6.46875 C 6.016492,6.6371022 6,6.8170557 6,7 6,7.1626953 6.025046,7.3168048 6.0625,7.46875 L 6.21875,6.90625 C 6.149815,6.7704763 6.0999538,6.6206952 6.0625,6.46875 z M 9.9375,6.5 C 9.893743,6.6567631 9.824973,6.7972227 9.75,6.9375 l 0.15625,0.625 C 9.962564,7.3853124 10,7.1951093 10,7 10,6.827411 9.978604,6.6597591 9.9375,6.5 z M 7.3125,7.875 7.03125,9 7.28125,9 7.3125,8.875 C 7.526925,8.953512 7.758375,9 8,9 8.241624,9 8.473074,8.953512 8.6875,8.875 L 8.71875,9 9,9 8.6875,7.875 C 8.473074,7.953512 8.241624,8 8,8 7.758375,8 7.526925,7.953512 7.3125,7.875 z M 4,10 4,11 5.1875,11 C 5.219833,10.847058 5.239386,10.68952 5.28125,10.53125 L 5.40625,10 4,10 z m 2.75,0 -1.0625,4 C 5.3247015,13.972939 5.1038774,13.564417 5.03125,12.9375 4.9275966,14.112942 5.1575837,14.960474 5.6875,15 l 1.0625,-4 2.5,0 1.0625,4 c 0.529917,-0.03952 0.759904,-0.887058 0.65625,-2.0625 C 10.896123,13.564417 10.675299,13.97294 10.3125,14 L 9.25,10 9,10 7.03125,10 6.75,10 z m 3.8125,0 0.15625,0.53125 C 10.76061,10.68952 10.78017,10.847057 10.8125,11 L 12,11 l 0,-1 -1.4375,0 z"
       id="path4162" />
  </g>
</svg>
