<?xml version="1.0" encoding="UTF-8" standalone="no"?>
<!-- Created with Inkscape (http://www.inkscape.org/) -->

<svg
   xmlns:dc="http://purl.org/dc/elements/1.1/"
   xmlns:cc="http://creativecommons.org/ns#"
   xmlns:rdf="http://www.w3.org/1999/02/22-rdf-syntax-ns#"
   xmlns:svg="http://www.w3.org/2000/svg"
   xmlns="http://www.w3.org/2000/svg"
   xmlns:xlink="http://www.w3.org/1999/xlink"
   xmlns:sodipodi="http://sodipodi.sourceforge.net/DTD/sodipodi-0.dtd"
   xmlns:inkscape="http://www.inkscape.org/namespaces/inkscape"
   width="16"
   height="16"
   id="svg2"
   sodipodi:version="0.32"
   inkscape:version="0.48.1 r9760"
   version="1.0"
   sodipodi:docname="folder-saved-search.svg"
   inkscape:output_extension="org.inkscape.output.svg.inkscape"
   style="display:inline">
  <defs
     id="defs4">
    <linearGradient
       id="linearGradient3191">
      <stop
         style="stop-color:#8b6429;stop-opacity:1;"
         offset="0"
         id="stop3193" />
      <stop
         style="stop-color:#cb9a4d;stop-opacity:1;"
         offset="1"
         id="stop3195" />
    </linearGradient>
    <linearGradient
       id="linearGradient3187">
      <stop
         style="stop-color:#c29657;stop-opacity:1;"
         offset="0"
         id="stop3189" />
      <stop
         style="stop-color:#e2c89a;stop-opacity:1;"
         offset="1"
         id="stop3191" />
    </linearGradient>
    <linearGradient
       inkscape:collect="always"
       xlink:href="#linearGradient3187"
       id="linearGradient3668"
       x1="10.871767"
       y1="26.306055"
       x2="10.871767"
       y2="8.1216478"
       gradientUnits="userSpaceOnUse"
       gradientTransform="matrix(0.6999999,0,0,0.6999999,-1.886778,-3.4141973)" />
    <linearGradient
       inkscape:collect="always"
       xlink:href="#linearGradient3191"
       id="linearGradient3197"
       x1="4.0625"
       y1="17.000139"
       x2="4.0625"
       y2="2.9996619"
       gradientUnits="userSpaceOnUse"
       gradientTransform="translate(0,-1.5)" />
  </defs>
  <sodipodi:namedview
     id="base"
     pagecolor="#ffffff"
     bordercolor="#dc0000"
     borderopacity="1"
     inkscape:pageopacity="0"
     inkscape:pageshadow="2"
     inkscape:zoom="22.695034"
     inkscape:cx="-2.2185829"
     inkscape:cy="9.2933256"
     inkscape:document-units="px"
     inkscape:current-layer="layer2"
     showgrid="true"
     inkscape:showpageshadow="false"
     showguides="true"
     inkscape:guide-bbox="true"
     inkscape:window-width="1920"
     inkscape:window-height="1030"
     inkscape:window-x="0"
     inkscape:window-y="25"
     inkscape:window-maximized="1"
     borderlayer="true">
    <sodipodi:guide
       orientation="0,1"
       position="26.278146,128"
       id="guide2385" />
    <sodipodi:guide
       orientation="1,0"
       position="128,54.082119"
       id="guide2387" />
    <sodipodi:guide
       orientation="0,1"
       position="78.156291,0"
       id="guide2389" />
    <inkscape:grid
       type="xygrid"
       id="grid3672"
       visible="true"
       enabled="true"
       empspacing="8"
       snapvisiblegridlinesonly="true" />
  </sodipodi:namedview>
  <metadata
     id="metadata7">
    <rdf:RDF>
      <cc:Work
         rdf:about="">
        <dc:format>image/svg+xml</dc:format>
        <dc:type
           rdf:resource="http://purl.org/dc/dcmitype/StillImage" />
        <dc:title></dc:title>
      </cc:Work>
    </rdf:RDF>
  </metadata>
  <g
     inkscape:label="Folder"
     inkscape:groupmode="layer"
     id="layer1"
     style="display:inline"
     sodipodi:insensitive="true">
    <rect
       style="fill:url(#linearGradient3197);fill-opacity:1;fill-rule:nonzero;stroke:none"
       id="rect2419"
       width="16"
       height="14.5"
       x="0"
       y="1.5"
       rx="2"
       ry="2" />
    <rect
       style="opacity:0;fill:#000000;fill-opacity:1;stroke:none;display:inline"
       id="rect3214"
       width="15"
       height="12.000001"
       x="0.5"
       y="4"
       rx="1.6666666"
       ry="1.627907" />
    <path
       style="fill:#9b6e2d;fill-opacity:1;fill-rule:nonzero;stroke:none"
       d="M 2.049999,0 C 1.4683,0 1,0.4683 1,1.05 L 1,2.1185435 1,3.577728 c 0,0.5816999 0.4683,1.0499999 1.049999,1.0499999 l 4.1756515,0 7.7000025,0 c 0.581699,0 1.049999,-0.4683 1.049999,-1.0499999 l 0,-1.4591845 c 0,-0.5816999 -0.4683,-1.0499999 -1.049999,-1.0499999 l -6.4643875,0 L 7.2756495,1.05 C 6.6968312,0.9921743 6.8073495,0 6.2256505,0 L 2.049999,0 z"
       id="rect2859"
       sodipodi:nodetypes="cccccccccccscc"
       inkscape:connector-curvature="0" />
    <path
       style="fill:#c39759;fill-opacity:1;fill-rule:nonzero;stroke:none"
       d="m 2.038152,1.027728 c -0.01345,0 0,-0.01913 0,0.03125 l 0,1.0625 0,3.46875 4.1875,0 7.6875,0 c 0.05038,0 0.03125,0.01345 0.03125,0 l 0,-3.46875 c 0,-0.01345 -0.0178,-0.03125 -0.03125,-0.03125 l -6.4375,0 -0.1875,0 c -0.03123,0.0014 -0.06252,0.0014 -0.09375,0 C 6.752915,2.046118 6.356927,1.740365 6.163152,1.496478 6.002471,1.294244 5.937954,1.151834 5.881902,1.027728 l -3.84375,0 z"
       id="path3218"
       sodipodi:nodetypes="cccccccccccsscc"
       inkscape:connector-curvature="0" />
    <rect
       style="fill:url(#linearGradient3668);fill-opacity:1;fill-rule:nonzero;stroke:none"
       id="rect3660"
       width="14"
       height="13.000002"
       x="1"
       y="2"
       rx="1"
       ry="1" />
    <path
       style="opacity:0.2;fill:#ffffff;fill-opacity:1;fill-rule:nonzero;stroke:none"
       d="M 2,2 C 1.446,2 1,2.446 1,3 L 1,4 C 1,3.446 1.446,3 2,3 l 12,0 c 0.554,0 1,0.446 1,1 L 15,3 C 15,2.446 14.554,2 14,2 L 2,2 z"
       id="rect3880"
       inkscape:connector-curvature="0" />
    <rect
       style="color:#000000;fill:#906d3b;fill-opacity:1;fill-rule:nonzero;stroke:none;stroke-width:2;marker:none;visibility:visible;display:inline;overflow:visible;enable-background:accumulate"
       id="rect3884"
       width="8"
       height="8"
       x="24"
       y="-8" />
    <rect
       style="color:#000000;fill:#bd8e48;fill-opacity:1;fill-rule:nonzero;stroke:none;stroke-width:2;marker:none;visibility:visible;display:inline;overflow:visible;enable-background:accumulate"
       id="rect3884-7"
       width="8"
       height="8"
       x="24"
       y="2" />
  </g>
  <g
     inkscape:groupmode="layer"
     id="layer2"
     inkscape:label="Symbol">
    <path
       sodipodi:type="inkscape:offset"
       inkscape:radius="0.97404748"
       inkscape:original="M 7 5 C 5.3431458 5 4 6.3431458 4 8 C 4 9.6568542 5.3431458 11 7 11 C 7.5720371 11 8.1076178 10.840342 8.5625 10.5625 L 11 13 L 12 13 L 12 12 L 9.5625 9.5625 C 9.8403424 9.1076178 10 8.5720371 10 8 C 10 6.3431458 8.6568542 5 7 5 z M 7 6 C 8.1045695 6 9 6.8954305 9 8 C 9 9.1045695 8.1045695 10 7 10 C 5.8954305 10 5 9.1045695 5 8 C 5 6.8954305 5.8954305 6 7 6 z "
       style="opacity:0.15;color:#000000;fill:#ffffff;fill-opacity:1;fill-rule:nonzero;stroke:none;stroke-width:2;marker:none;visibility:visible;display:inline;overflow:visible;enable-background:accumulate"
       id="path3709"
       d="M 7,4.03125 C 4.8167314,4.03125 3.03125,5.8167314 3.03125,8 c 0,2.183269 1.7854814,3.96875 3.96875,3.96875 0.4567953,0 0.8381317,-0.200273 1.25,-0.34375 l 2.0625,2.0625 A 0.97414489,0.97414489 0 0 0 11,13.96875 l 1,0 A 0.97414489,0.97414489 0 0 0 12.96875,13 l 0,-1 A 0.97414489,0.97414489 0 0 0 12.6875,11.3125 L 10.625,9.25 C 10.768477,8.8381315 10.96875,8.456795 10.96875,8 10.96875,5.8167314 9.1832686,4.03125 7,4.03125 z m 0,2.9375 C 7.5781552,6.96875 8.03125,7.4218448 8.03125,8 8.03125,8.5781552 7.5781552,9.03125 7,9.03125 6.4218448,9.03125 5.96875,8.5781552 5.96875,8 5.96875,7.4218448 6.4218448,6.96875 7,6.96875 z" />
    <path
       inkscape:connector-curvature="0"
       style="color:#000000;fill:#b28440;fill-opacity:1;fill-rule:nonzero;stroke:none;stroke-width:2;marker:none;visibility:visible;display:inline;overflow:visible;enable-background:accumulate"
       d="M 7,5 C 5.3431458,5 4,6.3431458 4,8 c 0,1.6568542 1.3431458,3 3,3 0.5720371,0 1.1076178,-0.159658 1.5625,-0.4375 L 11,13 12,13 12,12 9.5625,9.5625 C 9.8403424,9.1076178 10,8.5720371 10,8 10,6.3431458 8.6568542,5 7,5 z M 7,6 C 8.1045695,6 9,6.8954305 9,8 9,9.1045695 8.1045695,10 7,10 5.8954305,10 5,9.1045695 5,8 5,6.8954305 5.8954305,6 7,6 z"
       id="path2910" />
    <path
       inkscape:connector-curvature="0"
       id="path3705"
       d="M 7,5 C 5.343146,5 4,6.3431458 4,8 4,8.1747641 4.03382,8.3334246 4.0625,8.5 4.278806,7.2436538 5.270567,6.2659895 6.53125,6.0625 6.682286,6.026042 6.837766,6 7,6 7.163983,6 7.311911,6.037184 7.46875,6.0625 8.729433,6.2659895 9.721194,7.2436538 9.9375,8.5 9.966763,8.3315134 10,8.176753 10,8 10,6.3431458 8.656854,5 7,5 z M 5.0625,8.5 C 5.021396,8.6597591 5,8.827411 5,9 c 0,0.9423363 0.653956,1.725731 1.53125,1.9375 0.02249,0.0054 0.03972,0.02659 0.0625,0.03125 C 6.729836,10.987645 6.858713,11 7,11 7.138071,11 7.276055,10.9954 7.40625,10.96875 8.317616,10.782258 9,9.9664988 9,9 9,8.827411 8.978604,8.6597591 8.9375,8.5 8.715537,9.3626993 7.931981,10 7,10 6.068019,10 5.284463,9.3626993 5.0625,8.5 z M 9.875,9.875 C 9.80109,10.116892 9.691659,10.351041 9.5625,10.5625 L 12,13 12,12 9.875,9.875 z"
       style="opacity:0.3;color:#000000;fill:#000000;fill-opacity:1;fill-rule:nonzero;stroke:none;stroke-width:2;marker:none;visibility:visible;display:inline;overflow:visible;enable-background:accumulate" />
    <path
       style="color:#000000;fill:#ffffff;fill-opacity:1;fill-rule:nonzero;stroke:none;stroke-width:2;marker:none;visibility:visible;display:inline;overflow:visible;enable-background:accumulate;opacity:0.15"
       d="M 7 6 C 6.8377664 6 6.682286 6.0260415 6.53125 6.0625 C 5.6539559 6.2742694 5 7.0576641 5 8 C 5 8.1725891 5.0213958 8.3402408 5.0625 8.5 C 5.2844627 7.6373007 6.0680195 7 7 7 C 7.9319805 7 8.7155373 7.6373007 8.9375 8.5 C 8.9786042 8.3402408 9 8.1725891 9 8 C 9 7.0576641 8.3460441 6.2742694 7.46875 6.0625 C 7.3119108 6.0371843 7.1639832 6 7 6 z M 4.0625 8.5 C 4.0338207 8.6665754 4 8.8252359 4 9 C 4 10.656854 5.3431458 12 7 12 C 7.5720371 12 8.1076178 11.840342 8.5625 11.5625 L 11 14 L 12 14 L 12 13 L 11 13 L 8.5625 10.5625 C 8.2213383 10.770881 7.8195328 10.910822 7.40625 10.96875 C 7.2684891 10.988059 7.1430093 11 7 11 C 6.8587135 11 6.7298358 10.987645 6.59375 10.96875 C 6.5709658 10.964088 6.5537447 10.94293 6.53125 10.9375 C 5.2705665 10.73401 4.2788056 9.7563461 4.0625 8.5 z M 9.9375 8.5 C 9.8720576 8.8767973 9.7544922 9.2481714 9.5625 9.5625 L 9.875 9.875 C 9.9600866 9.5965428 10 9.3061172 10 9 C 10 8.8252359 9.9661793 8.6665754 9.9375 8.5 z "
       id="path4087" />
  </g>
</svg>
