<?xml version="1.0" encoding="UTF-8" standalone="no"?>
<!-- Created with Inkscape (http://www.inkscape.org/) -->

<svg
   xmlns:dc="http://purl.org/dc/elements/1.1/"
   xmlns:cc="http://creativecommons.org/ns#"
   xmlns:rdf="http://www.w3.org/1999/02/22-rdf-syntax-ns#"
   xmlns:svg="http://www.w3.org/2000/svg"
   xmlns="http://www.w3.org/2000/svg"
   xmlns:xlink="http://www.w3.org/1999/xlink"
   xmlns:sodipodi="http://sodipodi.sourceforge.net/DTD/sodipodi-0.dtd"
   xmlns:inkscape="http://www.inkscape.org/namespaces/inkscape"
   width="16"
   height="16"
   id="svg2"
   sodipodi:version="0.32"
   inkscape:version="0.48.1 r9760"
   version="1.0"
   sodipodi:docname="folder-wine.svg"
   inkscape:output_extension="org.inkscape.output.svg.inkscape"
   style="display:inline">
  <defs
     id="defs4">
    <linearGradient
       id="linearGradient3191">
      <stop
         style="stop-color:#8b6429;stop-opacity:1;"
         offset="0"
         id="stop3193" />
      <stop
         style="stop-color:#cb9a4d;stop-opacity:1;"
         offset="1"
         id="stop3195" />
    </linearGradient>
    <linearGradient
       id="linearGradient3187">
      <stop
         style="stop-color:#c29657;stop-opacity:1;"
         offset="0"
         id="stop3189" />
      <stop
         style="stop-color:#e2c89a;stop-opacity:1;"
         offset="1"
         id="stop3191" />
    </linearGradient>
    <linearGradient
       inkscape:collect="always"
       xlink:href="#linearGradient3187"
       id="linearGradient3668"
       x1="10.871767"
       y1="26.306055"
       x2="10.871767"
       y2="8.1216478"
       gradientUnits="userSpaceOnUse"
       gradientTransform="matrix(0.6999999,0,0,0.6999999,-1.886778,-3.4141973)" />
    <linearGradient
       inkscape:collect="always"
       xlink:href="#linearGradient3191"
       id="linearGradient3197"
       x1="4.0625"
       y1="17.000139"
       x2="4.0625"
       y2="2.9996619"
       gradientUnits="userSpaceOnUse"
       gradientTransform="translate(0,-1.5)" />
  </defs>
  <sodipodi:namedview
     id="base"
     pagecolor="#ffffff"
     bordercolor="#dc0000"
     borderopacity="1"
     inkscape:pageopacity="0"
     inkscape:pageshadow="2"
     inkscape:zoom="22.695034"
     inkscape:cx="-2.2185829"
     inkscape:cy="9.3153569"
     inkscape:document-units="px"
     inkscape:current-layer="layer2"
     showgrid="true"
     inkscape:showpageshadow="false"
     showguides="true"
     inkscape:guide-bbox="true"
     inkscape:window-width="1920"
     inkscape:window-height="1030"
     inkscape:window-x="0"
     inkscape:window-y="25"
     inkscape:window-maximized="1"
     borderlayer="true">
    <sodipodi:guide
       orientation="0,1"
       position="26.278146,128"
       id="guide2385" />
    <sodipodi:guide
       orientation="1,0"
       position="128,54.082119"
       id="guide2387" />
    <sodipodi:guide
       orientation="0,1"
       position="78.156291,0"
       id="guide2389" />
    <inkscape:grid
       type="xygrid"
       id="grid3672"
       visible="true"
       enabled="true"
       empspacing="8"
       snapvisiblegridlinesonly="true" />
  </sodipodi:namedview>
  <metadata
     id="metadata7">
    <rdf:RDF>
      <cc:Work
         rdf:about="">
        <dc:format>image/svg+xml</dc:format>
        <dc:type
           rdf:resource="http://purl.org/dc/dcmitype/StillImage" />
        <dc:title></dc:title>
      </cc:Work>
    </rdf:RDF>
  </metadata>
  <g
     inkscape:label="Folder"
     inkscape:groupmode="layer"
     id="layer1"
     style="display:inline"
     sodipodi:insensitive="true">
    <rect
       style="fill:url(#linearGradient3197);fill-opacity:1;fill-rule:nonzero;stroke:none"
       id="rect2419"
       width="16"
       height="14.5"
       x="0"
       y="1.5"
       rx="2"
       ry="2" />
    <rect
       style="opacity:0;fill:#000000;fill-opacity:1;stroke:none;display:inline"
       id="rect3214"
       width="15"
       height="12.000001"
       x="0.5"
       y="4"
       rx="1.6666666"
       ry="1.627907" />
    <path
       style="fill:#9b6e2d;fill-opacity:1;fill-rule:nonzero;stroke:none"
       d="M 2.049999,0 C 1.4683,0 1,0.4683 1,1.05 L 1,2.1185435 1,3.577728 c 0,0.5816999 0.4683,1.0499999 1.049999,1.0499999 l 4.1756515,0 7.7000025,0 c 0.581699,0 1.049999,-0.4683 1.049999,-1.0499999 l 0,-1.4591845 c 0,-0.5816999 -0.4683,-1.0499999 -1.049999,-1.0499999 l -6.4643875,0 L 7.2756495,1.05 C 6.6968312,0.9921743 6.8073495,0 6.2256505,0 L 2.049999,0 z"
       id="rect2859"
       sodipodi:nodetypes="cccccccccccscc"
       inkscape:connector-curvature="0" />
    <path
       style="fill:#c39759;fill-opacity:1;fill-rule:nonzero;stroke:none"
       d="m 2.038152,1.027728 c -0.01345,0 0,-0.01913 0,0.03125 l 0,1.0625 0,3.46875 4.1875,0 7.6875,0 c 0.05038,0 0.03125,0.01345 0.03125,0 l 0,-3.46875 c 0,-0.01345 -0.0178,-0.03125 -0.03125,-0.03125 l -6.4375,0 -0.1875,0 c -0.03123,0.0014 -0.06252,0.0014 -0.09375,0 C 6.752915,2.046118 6.356927,1.740365 6.163152,1.496478 6.002471,1.294244 5.937954,1.151834 5.881902,1.027728 l -3.84375,0 z"
       id="path3218"
       sodipodi:nodetypes="cccccccccccsscc"
       inkscape:connector-curvature="0" />
    <rect
       style="fill:url(#linearGradient3668);fill-opacity:1;fill-rule:nonzero;stroke:none"
       id="rect3660"
       width="14"
       height="13.000002"
       x="1"
       y="2"
       rx="1"
       ry="1" />
    <path
       style="opacity:0.2;fill:#ffffff;fill-opacity:1;fill-rule:nonzero;stroke:none"
       d="M 2,2 C 1.446,2 1,2.446 1,3 L 1,4 C 1,3.446 1.446,3 2,3 l 12,0 c 0.554,0 1,0.446 1,1 L 15,3 C 15,2.446 14.554,2 14,2 L 2,2 z"
       id="rect3880"
       inkscape:connector-curvature="0" />
    <rect
       style="color:#000000;fill:#906d3b;fill-opacity:1;fill-rule:nonzero;stroke:none;stroke-width:2;marker:none;visibility:visible;display:inline;overflow:visible;enable-background:accumulate"
       id="rect3884"
       width="8"
       height="8"
       x="24"
       y="-8" />
    <rect
       style="color:#000000;fill:#bd8e48;fill-opacity:1;fill-rule:nonzero;stroke:none;stroke-width:2;marker:none;visibility:visible;display:inline;overflow:visible;enable-background:accumulate"
       id="rect3884-7"
       width="8"
       height="8"
       x="24"
       y="2" />
  </g>
  <g
     inkscape:groupmode="layer"
     id="layer2"
     inkscape:label="Symbol">
    <path
       inkscape:connector-curvature="0"
       style="opacity:0.15;fill:#ffffff;fill-opacity:1;display:inline"
       d="m 6.78125,3.6562501 c -0.6076876,0.0093 -1.3049036,0.1763408 -2.09375,0.5 a 0.92519683,0.92519683 0 0 0 -0.53125,0.59375 l -0.9375,3.1875 a 0.92519683,0.92519683 0 0 0 0.03125,0.59375 0.92519683,0.92519683 0 0 0 0,0.03125 0.92519683,0.92519683 0 0 0 -0.21875,0.3125 L 2.15625,12.0625 a 0.92519683,0.92519683 0 0 0 1.25,1.09375 c 0.8327773,-0.341599 1.3305156,-0.365969 1.6875,-0.3125 0.3569844,0.05347 0.6550726,0.217795 1.03125,0.46875 a 0.92519683,0.92519683 0 0 0 0.59375,0.125 0.92519683,0.92519683 0 0 0 0.125,0.15625 c 0.4492754,0.302235 1.0554442,0.618225 1.8125,0.71875 0.7570558,0.100525 1.617547,-0.04254 2.65625,-0.46875 A 0.92519683,0.92519683 0 0 0 11.84375,13.25 L 12.75,10.1875 a 0.92519683,0.92519683 0 0 0 -0.03125,-0.6562499 0.92519683,0.92519683 0 0 0 0.1875,-0.375 l 0.90625,-3.15625 a 0.92519683,0.92519683 0 0 0 -1.21875,-1.09375 c -0.830557,0.3405122 -1.329088,0.3660013 -1.6875,0.3125 C 10.547838,5.1652491 10.248529,4.999649 9.875,4.7500001 a 0.92519683,0.92519683 0 0 0 -0.5625,-0.125 0.92519683,0.92519683 0 0 0 -0.03125,0 0.92519683,0.92519683 0 0 0 -0.15625,-0.1875 C 8.5701974,4.0652227 7.8111481,3.6404834 6.78125,3.6562501 z m 0,0.9375 c 0.7926702,-0.012135 1.3363788,0.2845495 1.84375,0.625 l -0.9375,3.15625 C 7.1988128,8.0483738 6.7158629,7.7242389 5.96875,7.7187501 c -0.4927094,-0.00384 -1.1299745,0.1635643 -1.875,0.46875 l 0.9375,-3.1875 c 0.7027384,-0.2883296 1.2743977,-0.3989721 1.75,-0.40625 z m 2.59375,0.9375 c 0.810155,0.5414688 1.691066,0.9860018 3.5625,0.21875 l -0.90625,3.15625 c -1.794233,0.7963822 -2.7529415,0.3570727 -3.5625,-0.1875 l 0.90625,-3.1875 z m -3.65625,3.21875 c 0.7919931,-0.019116 1.306527,0.2529291 1.8125,0.59375 L 6.625,12.53125 C 5.8124607,11.989189 4.9376539,11.543326 3.0625,12.3125 l 0.875,-3.1874999 0.03125,0 c 0.7003893,-0.2862233 1.274804,-0.3635275 1.75,-0.375 z m 2.59375,0.875 c 0.8119419,0.5419129 1.6541048,0.9598359 3.5625,0.3125 L 10.96875,13 C 9.0956762,13.768583 8.1860496,13.358107 7.375,12.8125 L 8.3125,9.6250001 z"
       id="path4274" />
    <path
       inkscape:connector-curvature="0"
       style="fill:#bd8e48;fill-opacity:1;display:inline"
       d="M 6.7789754,4.5827861 C 6.3033731,4.590064 5.7326793,4.7234649 5.0299409,5.0117945 L 4.1059242,8.1798555 C 4.8509497,7.8746698 5.4612493,7.7140026 5.9539587,7.7178466 6.7010716,7.7233354 7.2143061,8.051233 7.7029933,8.3778593 L 8.62701,5.2097983 C 8.1196388,4.8693478 7.5716456,4.5706511 6.7789754,4.5827861 z M 9.386025,5.5398047 8.4620072,8.7078657 C 9.2715657,9.2524384 10.231844,9.7022516 12.026077,8.9058694 L 12.950095,5.7378085 C 11.078661,6.5050603 10.19618,6.0812735 9.386025,5.5398047 z M 5.7229551,8.7408662 C 5.2477591,8.7523387 4.6743109,8.8506506 3.9739216,9.1368739 l -0.032999,0 -0.8910174,3.1680611 C 4.9250591,11.535761 5.8014334,11.993879 6.6139727,12.53594 L 7.5379892,9.3348777 C 7.0320162,8.9940568 6.5149482,8.7217506 5.7229551,8.7408662 z m 2.574049,0.8910172 -0.9240178,3.1680616 c 0.8110496,0.545607 1.7239969,0.966586 3.5970707,0.198003 L 11.861073,9.9288896 C 9.9526778,10.576226 9.108946,10.173796 8.2970041,9.6318834 z"
       id="path3675" />
    <path
       inkscape:connector-curvature="0"
       style="opacity:0.2;fill:#000000;fill-opacity:1;display:inline"
       d="m 6.78125,4.5937501 c -0.4756023,0.00728 -1.0472616,0.1179204 -1.75,0.40625 l -0.9375,3.1875 c 0.7450255,-0.3051857 1.3822906,-0.472594 1.875,-0.46875 0.7471129,0.00549 1.2300628,0.3296237 1.71875,0.65625 L 8.625,5.2187501 C 8.1176288,4.8782996 7.5739202,4.5816151 6.78125,4.5937501 z m 0,0.375 c 0.5786383,-0.00886 0.9746959,0.1927623 1.375,0.4375 L 7.4375,7.8125001 C 7.0364136,7.5759945 6.5881591,7.3483007 5.96875,7.3437501 c -0.3893393,-0.00304 -0.839296,0.1000007 -1.3125,0.25 l 0.6875,-2.28125 C 5.9215928,5.095389 6.4003162,4.9745793 6.78125,4.9687501 z m 2.59375,0.5625 -0.90625,3.1875 c 0.8095585,0.5445727 1.768267,0.9838822 3.5625,0.1875 l 0.90625,-3.15625 C 11.066066,6.5172519 10.185155,6.0727189 9.375,5.5312501 z m 0.25,0.59375 c 0.3109659,0.1712401 0.64457,0.3126141 1.0625,0.375 0.465379,0.069469 1.05064,-0.00644 1.6875,-0.1875 l -0.65625,2.3125 C 10.962121,8.9341929 10.387595,8.9999002 9.9375,8.9375001 9.5410335,8.8825351 9.2234014,8.7257214 8.90625,8.5312501 L 9.625,6.1250001 z m -3.90625,2.625 c -0.475196,0.011472 -1.0496107,0.088777 -1.75,0.375 l -0.03125,0 L 3.0625,12.3125 C 4.9376539,11.543326 5.8124607,11.989189 6.625,12.53125 L 7.53125,9.3437501 C 7.025277,9.0029292 6.5107431,8.7308845 5.71875,8.7500001 z m 0,0.375 c 0.5950095,-0.014361 0.9769529,0.1595743 1.375,0.40625 L 6.375,11.9375 C 6.0642145,11.766094 5.7301058,11.625048 5.3125,11.5625 4.8474819,11.49285 4.2623717,11.56851 3.625,11.75 L 4.25,9.4375001 c 0.5844565,-0.2186104 1.0618454,-0.3026762 1.46875,-0.3125 z m 2.59375,0.5 L 7.375,12.8125 C 8.1860496,13.358107 9.0956762,13.768583 10.96875,13 L 11.875,9.9375001 C 9.9666048,10.584836 9.1244419,10.166913 8.3125,9.6250001 z M 8.53125,10.21875 c 0.3133016,0.175286 0.6718596,0.305038 1.09375,0.375 0.464774,0.07707 1.034738,0.02844 1.6875,-0.125 l -0.65625,2.25 c -0.7984285,0.304211 -1.3932693,0.372317 -1.84375,0.3125 -0.3856548,-0.05121 -0.6933984,-0.189186 -1,-0.375 l 0.71875,-2.4375 z"
       id="path4258" />
    <path
       inkscape:connector-curvature="0"
       style="opacity:0.2;fill:#000000;fill-opacity:1;display:inline"
       d="m 6.78125,4.5937501 c -0.4756023,0.00728 -1.0472616,0.1179204 -1.75,0.40625 l -0.9375,3.1875 c 0.1117538,-0.045778 0.206751,-0.054543 0.3125,-0.09375 l 0.625,-2.09375 c 0.7027384,-0.2883296 1.2743977,-0.3989721 1.75,-0.40625 0.6630991,-0.010151 1.153644,0.2013835 1.59375,0.46875 l 0.25,-0.84375 C 8.1176288,4.8782996 7.5739202,4.5816151 6.78125,4.5937501 z m 2.59375,0.9375 -0.90625,3.1875 c 0.081849,0.055058 0.1643639,0.1043193 0.25,0.15625 L 9.375,6.5312501 c 0.762414,0.5095608 1.595538,0.905946 3.25,0.3125 l 0.3125,-1.09375 C 11.066066,6.5172519 10.185155,6.0727189 9.375,5.5312501 z m -3.65625,3.21875 C 5.6145666,8.7525201 5.4889312,8.7693211 5.375,8.7812501 5.0024191,8.8525851 4.5734737,8.9909903 4.09375,9.1875001 L 4.125,9.0937501 c -0.053559,0.020246 -0.101133,0.00873 -0.15625,0.03125 l -0.03125,0 -0.875,3.1874999 c 0.1123236,-0.04607 0.207143,-0.08749 0.3125,-0.125 l 0.5625,-2.0625 0.03125,0 C 4.6691393,9.8387766 5.243554,9.7614726 5.71875,9.7500001 6.3812827,9.7340091 6.8490527,9.9261102 7.28125,10.1875 l 0.25,-0.8437499 C 7.025277,9.0029292 6.5107431,8.7308845 5.71875,8.7500001 z m 2.59375,0.875 L 7.375,12.8125 c 0.079393,0.05341 0.1678496,0.07498 0.25,0.125 L 8.3125,10.625 c 0.7654895,0.510909 1.5624521,0.906115 3.25,0.40625 L 11.875,9.9687501 C 10.513455,10.530952 9.6328894,10.366061 8.9375,10 8.7701766,9.9221351 8.6224907,9.8164229 8.46875,9.7187501 8.417503,9.6861921 8.3632464,9.6588691 8.3125,9.6250001 z"
       id="path4253" />
    <path
       inkscape:connector-curvature="0"
       style="opacity:0.15;fill:#ffffff;fill-opacity:1;display:inline"
       d="m 8.375,6.0625001 -0.6875,2.3125 C 7.1988128,8.0483738 6.7158629,7.7242389 5.96875,7.7187501 c -0.418803,-0.00327 -0.9632557,0.1528267 -1.5625,0.375 l -0.28125,1 c 0.477815,-0.1806224 0.8851683,-0.2743018 1.25,-0.3125 0.1167013,-0.022344 0.236971,-0.021875 0.34375,-0.03125 0.081751,-0.00718 0.1739199,-0.031844 0.25,-0.03125 0.7471129,0.00549 1.2300628,0.3296237 1.71875,0.65625 L 8.625,6.2187501 C 8.542064,6.1630991 8.4609977,6.1147441 8.375,6.0625001 z m 4.5625,0.6875 c -0.110281,0.045213 -0.2089,0.056589 -0.3125,0.09375 l -0.59375,2.0625 c -1.612831,0.7158652 -2.5511173,0.4304611 -3.3125,-0.03125 l -0.25,0.84375 C 8.6224907,9.8164231 8.7701766,9.9221353 8.9375,10 c 0.6692936,0.311459 1.506204,0.423002 2.9375,-0.0625 l 0,0.03125 c 0.05446,-0.022488 0.10018,-0.037613 0.15625,-0.0625 l 0.90625,-3.15625 z M 7.28125,10.1875 6.625,12.53125 C 5.8611326,12.021659 5.0284958,11.598768 3.375,12.1875 l -0.3125,1.125 c 1.8751539,-0.769174 2.7499607,-0.323311 3.5625,0.21875 l 0.90625,-3.1875 C 7.448543,10.28804 7.3657023,10.238576 7.28125,10.1875 z m 4.59375,0.75 c -0.109182,0.03703 -0.210094,0.06342 -0.3125,0.09375 L 10.96875,13 C 9.2790289,13.693347 8.3820722,13.398482 7.625,12.9375 l -0.25,0.875 C 8.1860496,14.358107 9.0956762,14.768583 10.96875,14 L 11.875,10.9375 z"
       id="path4265" />
  </g>
</svg>
