<?xml version="1.0" encoding="UTF-8" standalone="no"?>
<!-- Created with Inkscape (http://www.inkscape.org/) -->

<svg
   xmlns:dc="http://purl.org/dc/elements/1.1/"
   xmlns:cc="http://creativecommons.org/ns#"
   xmlns:rdf="http://www.w3.org/1999/02/22-rdf-syntax-ns#"
   xmlns:svg="http://www.w3.org/2000/svg"
   xmlns="http://www.w3.org/2000/svg"
   xmlns:xlink="http://www.w3.org/1999/xlink"
   xmlns:sodipodi="http://sodipodi.sourceforge.net/DTD/sodipodi-0.dtd"
   xmlns:inkscape="http://www.inkscape.org/namespaces/inkscape"
   width="16"
   height="16"
   id="svg2"
   sodipodi:version="0.32"
   inkscape:version="0.48.1 r9760"
   version="1.0"
   sodipodi:docname="folder-music.svg"
   inkscape:output_extension="org.inkscape.output.svg.inkscape"
   style="display:inline">
  <defs
     id="defs4">
    <linearGradient
       id="linearGradient3191">
      <stop
         style="stop-color:#8b6429;stop-opacity:1;"
         offset="0"
         id="stop3193" />
      <stop
         style="stop-color:#cb9a4d;stop-opacity:1;"
         offset="1"
         id="stop3195" />
    </linearGradient>
    <linearGradient
       id="linearGradient3187">
      <stop
         style="stop-color:#c29657;stop-opacity:1;"
         offset="0"
         id="stop3189" />
      <stop
         style="stop-color:#e2c89a;stop-opacity:1;"
         offset="1"
         id="stop3191" />
    </linearGradient>
    <linearGradient
       inkscape:collect="always"
       xlink:href="#linearGradient3187"
       id="linearGradient3668"
       x1="10.871767"
       y1="26.306055"
       x2="10.871767"
       y2="8.1216478"
       gradientUnits="userSpaceOnUse"
       gradientTransform="matrix(0.6999999,0,0,0.6999999,-1.886778,-3.4141973)" />
    <linearGradient
       inkscape:collect="always"
       xlink:href="#linearGradient3191"
       id="linearGradient3197"
       x1="4.0625"
       y1="17.000139"
       x2="4.0625"
       y2="2.9996619"
       gradientUnits="userSpaceOnUse"
       gradientTransform="translate(0,-1.5)" />
  </defs>
  <sodipodi:namedview
     id="base"
     pagecolor="#ffffff"
     bordercolor="#dc0000"
     borderopacity="1"
     inkscape:pageopacity="0"
     inkscape:pageshadow="2"
     inkscape:zoom="22.695034"
     inkscape:cx="-2.1745204"
     inkscape:cy="9.2933256"
     inkscape:document-units="px"
     inkscape:current-layer="layer2"
     showgrid="true"
     inkscape:showpageshadow="false"
     showguides="true"
     inkscape:guide-bbox="true"
     inkscape:window-width="1920"
     inkscape:window-height="1030"
     inkscape:window-x="0"
     inkscape:window-y="25"
     inkscape:window-maximized="1"
     borderlayer="true">
    <sodipodi:guide
       orientation="0,1"
       position="26.278146,128"
       id="guide2385" />
    <sodipodi:guide
       orientation="1,0"
       position="128,54.082119"
       id="guide2387" />
    <sodipodi:guide
       orientation="0,1"
       position="78.156291,0"
       id="guide2389" />
    <inkscape:grid
       type="xygrid"
       id="grid3672"
       visible="true"
       enabled="true"
       empspacing="8"
       snapvisiblegridlinesonly="true" />
  </sodipodi:namedview>
  <metadata
     id="metadata7">
    <rdf:RDF>
      <cc:Work
         rdf:about="">
        <dc:format>image/svg+xml</dc:format>
        <dc:type
           rdf:resource="http://purl.org/dc/dcmitype/StillImage" />
        <dc:title></dc:title>
      </cc:Work>
    </rdf:RDF>
  </metadata>
  <g
     inkscape:label="Folder"
     inkscape:groupmode="layer"
     id="layer1"
     style="display:inline"
     sodipodi:insensitive="true">
    <rect
       style="fill:url(#linearGradient3197);fill-opacity:1;fill-rule:nonzero;stroke:none"
       id="rect2419"
       width="16"
       height="14.5"
       x="0"
       y="1.5"
       rx="2"
       ry="2" />
    <rect
       style="opacity:0;fill:#000000;fill-opacity:1;stroke:none;display:inline"
       id="rect3214"
       width="15"
       height="12.000001"
       x="0.5"
       y="4"
       rx="1.6666666"
       ry="1.627907" />
    <path
       style="fill:#9b6e2d;fill-opacity:1;fill-rule:nonzero;stroke:none"
       d="M 2.049999,0 C 1.4683,0 1,0.4683 1,1.05 L 1,2.1185435 1,3.577728 c 0,0.5816999 0.4683,1.0499999 1.049999,1.0499999 l 4.1756515,0 7.7000025,0 c 0.581699,0 1.049999,-0.4683 1.049999,-1.0499999 l 0,-1.4591845 c 0,-0.5816999 -0.4683,-1.0499999 -1.049999,-1.0499999 l -6.4643875,0 L 7.2756495,1.05 C 6.6968312,0.9921743 6.8073495,0 6.2256505,0 L 2.049999,0 z"
       id="rect2859"
       sodipodi:nodetypes="cccccccccccscc"
       inkscape:connector-curvature="0" />
    <path
       style="fill:#c39759;fill-opacity:1;fill-rule:nonzero;stroke:none"
       d="m 2.038152,1.027728 c -0.01345,0 0,-0.01913 0,0.03125 l 0,1.0625 0,3.46875 4.1875,0 7.6875,0 c 0.05038,0 0.03125,0.01345 0.03125,0 l 0,-3.46875 c 0,-0.01345 -0.0178,-0.03125 -0.03125,-0.03125 l -6.4375,0 -0.1875,0 c -0.03123,0.0014 -0.06252,0.0014 -0.09375,0 C 6.752915,2.046118 6.356927,1.740365 6.163152,1.496478 6.002471,1.294244 5.937954,1.151834 5.881902,1.027728 l -3.84375,0 z"
       id="path3218"
       sodipodi:nodetypes="cccccccccccsscc"
       inkscape:connector-curvature="0" />
    <rect
       style="fill:url(#linearGradient3668);fill-opacity:1;fill-rule:nonzero;stroke:none"
       id="rect3660"
       width="14"
       height="13.000002"
       x="1"
       y="2"
       rx="1"
       ry="1" />
    <path
       style="opacity:0.2;fill:#ffffff;fill-opacity:1;fill-rule:nonzero;stroke:none"
       d="M 2,2 C 1.446,2 1,2.446 1,3 L 1,4 C 1,3.446 1.446,3 2,3 l 12,0 c 0.554,0 1,0.446 1,1 L 15,3 C 15,2.446 14.554,2 14,2 L 2,2 z"
       id="rect3880"
       inkscape:connector-curvature="0" />
    <rect
       style="color:#000000;fill:#906d3b;fill-opacity:1;fill-rule:nonzero;stroke:none;stroke-width:2;marker:none;visibility:visible;display:inline;overflow:visible;enable-background:accumulate"
       id="rect3884"
       width="8"
       height="8"
       x="24"
       y="-8" />
    <rect
       style="color:#000000;fill:#bd8e48;fill-opacity:1;fill-rule:nonzero;stroke:none;stroke-width:2;marker:none;visibility:visible;display:inline;overflow:visible;enable-background:accumulate"
       id="rect3884-7"
       width="8"
       height="8"
       x="24"
       y="2" />
  </g>
  <g
     inkscape:groupmode="layer"
     id="layer2"
     inkscape:label="Symbol">
    <path
       inkscape:connector-curvature="0"
       style="fill:#bd8e48;fill-opacity:1;stroke:none;display:inline"
       d="m 6.03125,5.0000002 0,4.125 C 5.6891133,9.0083896 5.3061911,8.9865863 4.90625,9.0937502 3.9690142,9.3448818 3.3828943,10.181826 3.59375,10.96875 3.8046057,11.755674 4.7190142,12.188632 5.65625,11.9375 6.049889,11.832025 6.3877094,11.609727 6.625,11.34375 6.664677,11.30689 6.684463,11.25768 6.71875,11.21875 6.72743,11.20701 6.74167,11.19941 6.75,11.1875 6.815086,11.10901 6.8650407,11.021282 6.90625,10.9375 6.946932,10.84535 6.979901,10.752988 7,10.65625 7.00178,10.64398 7.030052,10.63727 7.03125,10.625 l 0,-0.28125 0,-3.5624998 L 10,7.1562502 10,10.125 C 9.6591626,10.010162 9.2726803,9.9871921 8.875,10.09375 c -0.9372358,0.251132 -1.5233557,1.088076 -1.3125,1.875 0.08144,0.303938 0.276137,0.539187 0.53125,0.71875 0.055212,0.05067 0.1176924,0.08552 0.1875,0.125 0.013491,0.0068 0.017513,0.02484 0.03125,0.03125 0.2222938,0.10374 0.4826958,0.151711 0.75,0.15625 0.1651529,0.0028 0.3290273,-0.02213 0.5,-0.0625 0.020605,-0.0049 0.041881,0.0055 0.0625,0 0.020998,-0.0051 0.041444,0.0057 0.0625,0 0.1018922,-0.02756 0.1882483,-0.08636 0.28125,-0.125 0.100939,-0.04194 0.192606,-0.103359 0.28125,-0.15625 0.408991,-0.244031 0.684904,-0.559759 0.71875,-0.90625 l 0,-0.09375 c 0.03015,-0.145108 0.02112,-0.289145 0,-0.4375 l 0,-5.6562498 -4.9375,-0.5625 z"
       id="path3261" />
    <path
       inkscape:connector-curvature="0"
       style="opacity:0.15;fill:#ffffff;fill-opacity:1;stroke:none;display:inline"
       d="m 5.84375,4.0000002 a 0.99906588,0.99906588 0 0 0 -0.8125,1 l 0,3.125 c -0.130315,0.016874 -0.2448143,-0.034883 -0.375,0 C 3.2836195,8.4927955 2.2485298,9.8137445 2.625,11.21875 c 0.3740218,1.395868 1.9098496,2.054966 3.28125,1.6875 0.3286689,-0.08807 0.5497161,-0.324602 0.8125,-0.5 0.1599016,0.400245 0.4229648,0.734119 0.71875,0.96875 l -0.03125,0.0625 c 0.050371,0.04623 0.080466,0.03 0.125,0.0625 0.1002025,0.07313 0.2037889,0.161365 0.25,0.1875 a 0.99906588,0.99906588 0 0 0 0.0625,0.03125 c 0.022983,0.0127 0.00535,0.01916 0.03125,0.03125 0.3862681,0.180263 0.7804917,0.243619 1.15625,0.25 0.2768383,0.0047 0.5296039,-0.04171 0.75,-0.09375 0.04583,-0.0059 0.037662,0.01496 0.09375,0 0.033176,-0.0057 0.025358,0.01005 0.0625,0 0.310266,-0.08392 0.442509,-0.171315 0.40625,-0.15625 0.222165,-0.09231 0.349599,-0.216198 0.40625,-0.25 0.55416,-0.330649 1.09227,-0.840169 1.1875,-1.625 0.0018,-0.01508 0.02976,-0.01596 0.03125,-0.03125 a 0.99906588,0.99906588 0 0 0 0,-0.09375 l 0,-0.09375 -0.03125,0 c 0.01216,-0.155201 0.04422,-0.316257 0.03125,-0.4375 -0.0046,-0.04318 0.0054,-0.118164 0,-0.15625 l 0,-5.4999999 a 0.99906588,0.99906588 0 0 0 -0.875,-1 l -4.9375,-0.5625 a 0.99906588,0.99906588 0 0 0 -0.21875,0 0.99906588,0.99906588 0 0 0 -0.09375,0 z m 0.1875,1 4.9375,0.5625 0,5.6562498 c 0.02112,0.148355 0.03015,0.292392 0,0.4375 l 0,0.09375 c -0.03385,0.346491 -0.309759,0.662219 -0.71875,0.90625 -0.08864,0.05289 -0.180311,0.114309 -0.28125,0.15625 -0.093002,0.03864 -0.1793578,0.09744 -0.28125,0.125 -0.021056,0.0057 -0.041502,-0.0051 -0.0625,0 -0.020619,0.0055 -0.041895,-0.0049 -0.0625,0 C 9.3915273,12.97787 9.2276529,13.0028 9.0625,13 8.7951958,12.9955 8.5347938,12.94749 8.3125,12.84375 8.298763,12.83735 8.294741,12.81926 8.28125,12.8125 8.211442,12.77302 8.1489625,12.73817 8.09375,12.6875 7.838637,12.507937 7.6439401,12.272688 7.5625,11.96875 7.3516443,11.181826 7.9377642,10.344882 8.875,10.09375 9.2726803,9.9871921 9.6591626,10.010162 10,10.125 l 0,-2.9687498 -2.96875,-0.375 0,3.5624998 0,0.28125 C 7.03005,10.63727 7.001781,10.64398 7,10.65625 6.979901,10.75299 6.946932,10.845354 6.90625,10.9375 6.865041,11.02128 6.815086,11.109014 6.75,11.1875 6.74167,11.19941 6.72743,11.20701 6.71875,11.21875 6.684463,11.25768 6.664677,11.30689 6.625,11.34375 6.3877094,11.609727 6.049889,11.832025 5.65625,11.9375 4.7190142,12.188632 3.8046057,11.755674 3.59375,10.96875 3.3828943,10.181826 3.9690142,9.3448818 4.90625,9.0937502 c 0.3999411,-0.1071639 0.7828633,-0.085361 1.125,0.03125 l 0,-4.125 z m 2,2.9375 0.96875,0.09375 0,1.09375 c -0.1303347,0.016803 -0.2443702,-0.035002 -0.375,0 -0.2413714,0.064675 -0.3797239,0.2871129 -0.59375,0.40625 l 0,-1.59375 z"
       id="path3681" />
    <path
       inkscape:connector-curvature="0"
       style="opacity:0.2;fill:#000000;fill-opacity:1;stroke:none;display:inline"
       d="m 6.03125,5.0000002 0,4.125 C 5.6891133,9.0083896 5.3061911,8.9865863 4.90625,9.0937502 3.9690142,9.3448818 3.3828943,10.181826 3.59375,10.96875 3.8046057,11.755674 4.7190142,12.188632 5.65625,11.9375 6.049889,11.832025 6.3877094,11.609727 6.625,11.34375 6.664677,11.30689 6.684463,11.25768 6.71875,11.21875 6.72743,11.20701 6.74167,11.19941 6.75,11.1875 6.815086,11.10901 6.8650407,11.021282 6.90625,10.9375 6.946932,10.84535 6.979901,10.752988 7,10.65625 7.00178,10.64398 7.030052,10.63727 7.03125,10.625 l 0,-0.28125 0,-3.5624998 L 10,7.1562502 10,10.125 C 9.6591626,10.010162 9.2726803,9.9871921 8.875,10.09375 c -0.9372358,0.251132 -1.5233557,1.088076 -1.3125,1.875 0.08144,0.303938 0.276137,0.539187 0.53125,0.71875 0.055212,0.05067 0.1176924,0.08552 0.1875,0.125 0.013491,0.0068 0.017513,0.02484 0.03125,0.03125 0.2222938,0.10374 0.4826958,0.151711 0.75,0.15625 0.1651529,0.0028 0.3290273,-0.02213 0.5,-0.0625 0.020605,-0.0049 0.041881,0.0055 0.0625,0 0.020998,-0.0051 0.041444,0.0057 0.0625,0 0.1018922,-0.02756 0.1882483,-0.08636 0.28125,-0.125 0.100939,-0.04194 0.192606,-0.103359 0.28125,-0.15625 0.408991,-0.244031 0.684904,-0.559759 0.71875,-0.90625 l 0,-0.09375 c 0.03015,-0.145108 0.02112,-0.289145 0,-0.4375 l 0,-5.6562498 -4.9375,-0.5625 z m 0.5,0.53125 3.9375,0.4375 0,1.03125 a 0.48473598,0.48473598 0 0 0 -0.40625,-0.3125 l -2.96875,-0.375 a 0.48473598,0.48473598 0 0 0 -0.5625,0.375 l 0,-1.15625 z m 0,3.6875 0,1.1249998 0,0.21875 c -0.00178,0.0077 2.62e-5,0.03107 0,0.03125 l 0,0.03125 c -0.00918,0.03167 -0.047062,0.05647 -0.0625,0.09375 -0.00421,0.01017 0.00471,0.02057 0,0.03125 -0.02738,0.05244 -0.068506,0.09456 -0.09375,0.125 -0.010833,0.01322 -0.014931,0.0079 -0.03125,0.03125 -0.00774,0.01114 0.00999,0.01774 0,0.03125 C 6.294189,10.997013 6.2358239,11.042201 6.28125,11 A 0.48473598,0.48473598 0 0 0 6.25,11.03125 C 6.0755294,11.226813 5.8274008,11.389397 5.53125,11.46875 4.8046662,11.663438 4.1941893,11.335221 4.0625,10.84375 3.9319987,10.356713 4.305263,9.7570278 5.03125,9.5625002 5.3406073,9.4796082 5.6199277,9.5068142 5.875,9.5937502 a 0.48473598,0.48473598 0 0 0 0.65625,-0.375 z m 3.9375,1.0624998 0,0.9375 A 0.48473598,0.48473598 0 0 0 10.5,11.28125 c 0.01767,0.124102 0.01323,0.217563 0,0.28125 a 0.48473598,0.48473598 0 0 0 -0.03125,0.09375 l 0,0.0625 0,0.03125 C 10.43665,11.875128 10.3035,12.068912 10,12.25 9.8958332,12.31215 9.8233713,12.357499 9.78125,12.375 9.6255323,12.4397 9.5632916,12.46854 9.5625,12.46875 c -0.034749,-0.0024 -0.055332,-0.01657 -0.125,0 C 9.290507,12.503458 9.1734644,12.501881 9.0625,12.5 8.8478166,12.49636 8.6739852,12.472862 8.53125,12.40625 8.511464,12.392677 8.52584,12.388024 8.5,12.375 8.461265,12.352046 8.408217,12.345555 8.40625,12.34375 A 0.48473598,0.48473598 0 0 0 8.375,12.28125 C 8.1879095,12.149565 8.0788889,12.021541 8.03125,11.84375 7.9007487,11.356713 8.2740127,10.757028 9,10.5625 9.3050286,10.48077 9.5894414,10.50807 9.84375,10.59375 a 0.48473598,0.48473598 0 0 0 0.625,-0.3125 z"
       id="path2867" />
    <path
       inkscape:connector-curvature="0"
       style="opacity:0.2;fill:#000000;fill-opacity:1;stroke:none;display:inline"
       d="m 6.03125,5.0000002 0,1 4.9375,0.5625 0,-1 -4.9375,-0.5625 z M 5.5,9.0312502 c -0.1884903,-0.00663 -0.3937795,0.00892 -0.59375,0.0625 -0.9372358,0.2511316 -1.5233557,1.0880758 -1.3125,1.8749998 0.011956,0.04462 0.046145,0.08272 0.0625,0.125 0.2026106,-0.459391 0.6642276,-0.843042 1.25,-1 0.3999411,-0.1071637 0.7828633,-0.08536 1.125,0.03125 l 0,-0.9999998 C 5.8601816,9.0666949 5.6884903,9.0378819 5.5,9.0312502 z M 9.46875,10.03125 c -0.1889353,-0.0068 -0.3949099,0.0092 -0.59375,0.0625 -0.9372358,0.251132 -1.5233557,1.088076 -1.3125,1.875 0.012713,0.04744 0.044469,0.08085 0.0625,0.125 0.2026106,-0.459391 0.6642276,-0.843042 1.25,-1 C 9.2726803,10.987192 9.6591626,11.010162 10,11.125 l 0,-1 C 9.8295813,10.067581 9.6576853,10.038028 9.46875,10.03125 z"
       id="path3684" />
    <path
       inkscape:connector-curvature="0"
       style="opacity:0.15;fill:#ffffff;fill-opacity:1;stroke:none;display:inline"
       d="m 7.03125,6.78125 0,1 2.96875,0.375 0,-1 -2.96875,-0.375 z m 0,3.84375 C 7.03005,10.63727 7.00178,10.64398 7,10.65625 6.979901,10.75299 6.946932,10.84535 6.90625,10.9375 6.865041,11.02128 6.815086,11.10901 6.75,11.1875 6.74167,11.19941 6.72743,11.20701 6.71875,11.21875 6.684463,11.25768 6.664677,11.30689 6.625,11.34375 6.3877094,11.609727 6.049889,11.832025 5.65625,11.9375 c -0.8840936,0.236893 -1.727904,-0.140311 -2,-0.84375 -0.1215664,0.275634 -0.1415709,0.579904 -0.0625,0.875 0.2108557,0.786924 1.1252642,1.219882 2.0625,0.96875 C 6.049889,12.832025 6.3877094,12.609727 6.625,12.34375 6.664677,12.30689 6.684463,12.25768 6.71875,12.21875 6.72743,12.20701 6.74167,12.19941 6.75,12.1875 6.815086,12.10901 6.8650407,12.021282 6.90625,11.9375 6.946932,11.84535 6.979901,11.752988 7,11.65625 7.00178,11.64398 7.030052,11.63727 7.03125,11.625 l 0,-0.28125 0,-0.71875 z m 3.9375,1.125 c -0.03385,0.346491 -0.309759,0.662219 -0.71875,0.90625 -0.08864,0.05289 -0.180311,0.11431 -0.28125,0.15625 -0.093002,0.03864 -0.1793578,0.09744 -0.28125,0.125 -0.021056,0.0057 -0.041502,-0.0051 -0.0625,0 -0.020619,0.0055 -0.041895,-0.0049 -0.0625,0 C 9.3915273,12.97787 9.2276529,13.0028 9.0625,13 8.7951958,12.99546 8.5347938,12.94749 8.3125,12.84375 8.298763,12.83734 8.294741,12.8193 8.28125,12.8125 8.2114424,12.77302 8.148962,12.73817 8.09375,12.6875 7.8784595,12.535966 7.7224798,12.332414 7.625,12.09375 c -0.1215664,0.275634 -0.1415709,0.579904 -0.0625,0.875 0.08144,0.303938 0.276137,0.539187 0.53125,0.71875 0.055212,0.05067 0.1176924,0.08552 0.1875,0.125 0.013491,0.0068 0.017513,0.02484 0.03125,0.03125 0.2222938,0.10374 0.4826958,0.151711 0.75,0.15625 0.1651529,0.0028 0.3290273,-0.02213 0.5,-0.0625 0.020605,-0.0049 0.041881,0.0055 0.0625,0 0.020998,-0.0051 0.041444,0.0057 0.0625,0 0.1018922,-0.02756 0.1882483,-0.08636 0.28125,-0.125 0.100939,-0.04194 0.192606,-0.103359 0.28125,-0.15625 0.408991,-0.244031 0.684904,-0.559759 0.71875,-0.90625 l 0,-0.09375 c 0.03015,-0.145108 0.02112,-0.289145 0,-0.4375 l 0,-0.46875 z"
       id="path3935" />
  </g>
</svg>
