<?xml version="1.0" encoding="UTF-8" standalone="no"?>
<!-- Created with Inkscape (http://www.inkscape.org/) -->

<svg
   xmlns:dc="http://purl.org/dc/elements/1.1/"
   xmlns:cc="http://creativecommons.org/ns#"
   xmlns:rdf="http://www.w3.org/1999/02/22-rdf-syntax-ns#"
   xmlns:svg="http://www.w3.org/2000/svg"
   xmlns="http://www.w3.org/2000/svg"
   xmlns:xlink="http://www.w3.org/1999/xlink"
   xmlns:sodipodi="http://sodipodi.sourceforge.net/DTD/sodipodi-0.dtd"
   xmlns:inkscape="http://www.inkscape.org/namespaces/inkscape"
   width="16"
   height="16"
   id="svg2"
   sodipodi:version="0.32"
   inkscape:version="0.48.1 r9760"
   version="1.0"
   sodipodi:docname="folder-videos.svg"
   inkscape:output_extension="org.inkscape.output.svg.inkscape"
   style="display:inline">
  <defs
     id="defs4">
    <linearGradient
       id="linearGradient3191">
      <stop
         style="stop-color:#8b6429;stop-opacity:1;"
         offset="0"
         id="stop3193" />
      <stop
         style="stop-color:#cb9a4d;stop-opacity:1;"
         offset="1"
         id="stop3195" />
    </linearGradient>
    <linearGradient
       id="linearGradient3187">
      <stop
         style="stop-color:#c29657;stop-opacity:1;"
         offset="0"
         id="stop3189" />
      <stop
         style="stop-color:#e2c89a;stop-opacity:1;"
         offset="1"
         id="stop3191" />
    </linearGradient>
    <linearGradient
       inkscape:collect="always"
       xlink:href="#linearGradient3187"
       id="linearGradient3668"
       x1="10.871767"
       y1="26.306055"
       x2="10.871767"
       y2="8.1216478"
       gradientUnits="userSpaceOnUse"
       gradientTransform="matrix(0.6999999,0,0,0.6999999,-1.886778,-3.4141973)" />
    <linearGradient
       inkscape:collect="always"
       xlink:href="#linearGradient3191"
       id="linearGradient3197"
       x1="4.0625"
       y1="17.000139"
       x2="4.0625"
       y2="2.9996619"
       gradientUnits="userSpaceOnUse"
       gradientTransform="translate(0,-1.5)" />
  </defs>
  <sodipodi:namedview
     id="base"
     pagecolor="#ffffff"
     bordercolor="#dc0000"
     borderopacity="1"
     inkscape:pageopacity="0"
     inkscape:pageshadow="2"
     inkscape:zoom="22.695034"
     inkscape:cx="-2.2185829"
     inkscape:cy="9.2933256"
     inkscape:document-units="px"
     inkscape:current-layer="layer2"
     showgrid="true"
     inkscape:showpageshadow="false"
     showguides="true"
     inkscape:guide-bbox="true"
     inkscape:window-width="1920"
     inkscape:window-height="1030"
     inkscape:window-x="0"
     inkscape:window-y="25"
     inkscape:window-maximized="1"
     borderlayer="true">
    <sodipodi:guide
       orientation="0,1"
       position="26.278146,128"
       id="guide2385" />
    <sodipodi:guide
       orientation="1,0"
       position="128,54.082119"
       id="guide2387" />
    <sodipodi:guide
       orientation="0,1"
       position="78.156291,0"
       id="guide2389" />
    <inkscape:grid
       type="xygrid"
       id="grid3672"
       visible="true"
       enabled="true"
       empspacing="8"
       snapvisiblegridlinesonly="true" />
  </sodipodi:namedview>
  <metadata
     id="metadata7">
    <rdf:RDF>
      <cc:Work
         rdf:about="">
        <dc:format>image/svg+xml</dc:format>
        <dc:type
           rdf:resource="http://purl.org/dc/dcmitype/StillImage" />
        <dc:title></dc:title>
      </cc:Work>
    </rdf:RDF>
  </metadata>
  <g
     inkscape:label="Folder"
     inkscape:groupmode="layer"
     id="layer1"
     style="display:inline"
     sodipodi:insensitive="true">
    <rect
       style="fill:url(#linearGradient3197);fill-opacity:1;fill-rule:nonzero;stroke:none"
       id="rect2419"
       width="16"
       height="14.5"
       x="0"
       y="1.5"
       rx="2"
       ry="2" />
    <rect
       style="opacity:0;fill:#000000;fill-opacity:1;stroke:none;display:inline"
       id="rect3214"
       width="15"
       height="12.000001"
       x="0.5"
       y="4"
       rx="1.6666666"
       ry="1.627907" />
    <path
       style="fill:#9b6e2d;fill-opacity:1;fill-rule:nonzero;stroke:none"
       d="M 2.049999,0 C 1.4683,0 1,0.4683 1,1.05 L 1,2.1185435 1,3.577728 c 0,0.5816999 0.4683,1.0499999 1.049999,1.0499999 l 4.1756515,0 7.7000025,0 c 0.581699,0 1.049999,-0.4683 1.049999,-1.0499999 l 0,-1.4591845 c 0,-0.5816999 -0.4683,-1.0499999 -1.049999,-1.0499999 l -6.4643875,0 L 7.2756495,1.05 C 6.6968312,0.9921743 6.8073495,0 6.2256505,0 L 2.049999,0 z"
       id="rect2859"
       sodipodi:nodetypes="cccccccccccscc"
       inkscape:connector-curvature="0" />
    <path
       style="fill:#c39759;fill-opacity:1;fill-rule:nonzero;stroke:none"
       d="m 2.038152,1.027728 c -0.01345,0 0,-0.01913 0,0.03125 l 0,1.0625 0,3.46875 4.1875,0 7.6875,0 c 0.05038,0 0.03125,0.01345 0.03125,0 l 0,-3.46875 c 0,-0.01345 -0.0178,-0.03125 -0.03125,-0.03125 l -6.4375,0 -0.1875,0 c -0.03123,0.0014 -0.06252,0.0014 -0.09375,0 C 6.752915,2.046118 6.356927,1.740365 6.163152,1.496478 6.002471,1.294244 5.937954,1.151834 5.881902,1.027728 l -3.84375,0 z"
       id="path3218"
       sodipodi:nodetypes="cccccccccccsscc"
       inkscape:connector-curvature="0" />
    <rect
       style="fill:url(#linearGradient3668);fill-opacity:1;fill-rule:nonzero;stroke:none"
       id="rect3660"
       width="14"
       height="13.000002"
       x="1"
       y="2"
       rx="1"
       ry="1" />
    <path
       style="opacity:0.2;fill:#ffffff;fill-opacity:1;fill-rule:nonzero;stroke:none"
       d="M 2,2 C 1.446,2 1,2.446 1,3 L 1,4 C 1,3.446 1.446,3 2,3 l 12,0 c 0.554,0 1,0.446 1,1 L 15,3 C 15,2.446 14.554,2 14,2 L 2,2 z"
       id="rect3880"
       inkscape:connector-curvature="0" />
    <rect
       style="color:#000000;fill:#906d3b;fill-opacity:1;fill-rule:nonzero;stroke:none;stroke-width:2;marker:none;visibility:visible;display:inline;overflow:visible;enable-background:accumulate"
       id="rect3884"
       width="8"
       height="8"
       x="24"
       y="-8" />
    <rect
       style="color:#000000;fill:#bd8e48;fill-opacity:1;fill-rule:nonzero;stroke:none;stroke-width:2;marker:none;visibility:visible;display:inline;overflow:visible;enable-background:accumulate"
       id="rect3884-7"
       width="8"
       height="8"
       x="24"
       y="2" />
  </g>
  <g
     inkscape:groupmode="layer"
     id="layer2"
     inkscape:label="Symbol">
    <path
       inkscape:connector-curvature="0"
       style="fill:#bd8e48;fill-opacity:1;stroke:none;display:inline"
       d="M 5.5,4 C 4.1192881,4 3,5.1192881 3,6.5 3,7.7081229 3.8607922,8.7043843 5,8.9375 L 5,11.5 C 5,11.777 5.223,12 5.5,12 l 5,0 c 0.277,0 0.5,-0.223 0.5,-0.5 l 0,-1.03125 2.03125,1.375 L 13.03125,8 11,9.40625 11,8.5 C 11.611807,8.0442823 12,7.3215236 12,6.5 12,5.1192881 10.880712,4 9.5,4 8.6784764,4 7.9557177,4.3881928 7.5,5 7.0442823,4.3881928 6.3215236,4 5.5,4 z m 0,1.5 c 0.5522847,0 1,0.4477153 1,1 0,0.5522847 -0.4477153,1 -1,1 -0.5522847,0 -1,-0.4477153 -1,-1 0,-0.5522847 0.4477153,-1 1,-1 z m 4,0 c 0.552285,0 1,0.4477153 1,1 0,0.5522847 -0.447715,1 -1,1 -0.552285,0 -1,-0.4477153 -1,-1 0,-0.5522847 0.447715,-1 1,-1 z"
       id="rect2886" />
    <path
       inkscape:connector-curvature="0"
       style="opacity:0.2;fill:#000000;fill-opacity:1;stroke:none;display:inline"
       d="M 5.5,4 C 4.1192881,4 3,5.1192881 3,6.5 3,7.7081229 3.8607922,8.7043843 5,8.9375 L 5,11.5 C 5,11.777 5.223,12 5.5,12 l 5,0 c 0.277,0 0.5,-0.223 0.5,-0.5 l 0,-1.03125 2.03125,1.375 L 13.03125,8 11,9.40625 11,8.5 C 11.611807,8.0442823 12,7.3215236 12,6.5 12,5.1192881 10.880712,4 9.5,4 8.6784764,4 7.9557177,4.3881928 7.5,5 7.0442823,4.3881928 6.3215236,4 5.5,4 z m 0,0.53125 c 0.6567791,0 1.2329656,0.296892 1.59375,0.78125 a 0.52301975,0.52301975 0 0 0 0.8125,0 C 8.2670344,4.828142 8.8432209,4.53125 9.5,4.53125 c 1.098079,0 1.96875,0.8706707 1.96875,1.96875 0,0.656779 -0.296892,1.2329656 -0.78125,1.59375 A 0.52301975,0.52301975 0 0 0 10.46875,8.5 l 0,0.90625 A 0.52301975,0.52301975 0 0 0 10.875,9.9375 0.52301975,0.52301975 0 0 0 10.46875,10.46875 l 0,1 -4.9375,0 0,-2.53125 a 0.52301975,0.52301975 0 0 0 -0.4375,-0.5 C 4.1905543,8.2526794 3.53125,7.459712 3.53125,6.5 3.53125,5.4019207 4.4019207,4.53125 5.5,4.53125 z m 0,0.4375 C 4.6650827,4.96875 3.96875,5.6650827 3.96875,6.5 3.96875,7.3349173 4.6650827,8.03125 5.5,8.03125 6.3349173,8.03125 7.03125,7.3349173 7.03125,6.5 7.03125,5.6650827 6.3349173,4.96875 5.5,4.96875 z m 4,0 c -0.8349175,0 -1.53125,0.6963328 -1.53125,1.53125 0,0.8349172 0.6963325,1.53125 1.53125,1.53125 0.834917,0 1.53125,-0.6963328 1.53125,-1.53125 0,-0.8349172 -0.696333,-1.53125 -1.53125,-1.53125 z M 5.5,5.5 c 0.5522847,0 1,0.4477153 1,1 0,0.5522847 -0.4477153,1 -1,1 -0.5522847,0 -1,-0.4477153 -1,-1 0,-0.5522847 0.4477153,-1 1,-1 z m 4,0 c 0.552285,0 1,0.4477153 1,1 0,0.5522847 -0.447715,1 -1,1 -0.552285,0 -1,-0.4477153 -1,-1 0,-0.5522847 0.447715,-1 1,-1 z m 3,3.53125 0,1.8125 -1.21875,-0.8125 A 0.52301975,0.52301975 0 0 0 11.125,9.9375 0.52301975,0.52301975 0 0 0 11.3125,9.84375 L 12.5,9.03125 z"
       id="path3678" />
    <path
       inkscape:connector-curvature="0"
       style="opacity:0.2;fill:#000000;fill-opacity:1;stroke:none;display:inline"
       d="M 5.5,4 C 4.1192881,4 3,5.1192881 3,6.5 3,6.6755043 3.027954,6.8351278 3.0625,7 3.2956157,5.8607922 4.2918771,5 5.5,5 6.3215236,5 7.0442823,5.3881928 7.5,6 7.9557177,5.3881928 8.6784764,5 9.5,5 10.708123,5 11.704384,5.8607922 11.9375,7 11.970507,6.8370629 12,6.6733077 12,6.5 12,5.1192881 10.880712,4 9.5,4 8.6784764,4 7.9557177,4.3881928 7.5,5 7.0442823,4.3881928 6.3215236,4 5.5,4 z M 4.65625,7 C 4.566631,7.149872 4.5,7.3126805 4.5,7.5 c 0,0.5522847 0.4477153,1 1,1 0.5522847,0 1,-0.4477153 1,-1 C 6.5,7.3126805 6.43337,7.149872 6.34375,7 6.1691392,7.292004 5.8649652,7.5 5.5,7.5 5.1350348,7.5 4.8308608,7.292004 4.65625,7 z m 4,0 C 8.56663,7.149872 8.5,7.3126805 8.5,7.5 c 0,0.5522847 0.447715,1 1,1 0.552285,0 1,-0.4477153 1,-1 C 10.5,7.3126805 10.433369,7.149872 10.34375,7 10.169139,7.292004 9.8649654,7.5 9.5,7.5 9.1350346,7.5 8.8308607,7.292004 8.65625,7 z m 4.375,1 -1.625,1.125 C 11.283822,9.26968 11.152952,9.386071 11,9.5 L 11,10.40625 13.03125,9 l 0,-1 z"
       id="path3671" />
    <path
       inkscape:connector-curvature="0"
       style="opacity:0.2;fill:#ffffff;fill-opacity:1;stroke:none;display:inline"
       d="m 5.5,2.96875 c -1.9403391,0 -3.53125,1.5909109 -3.53125,3.53125 0,1.3572297 0.8685248,2.3804615 2,2.96875 l 0,2.03125 c 0,0.832757 0.6984928,1.53125 1.53125,1.53125 l 5,0 c 0.559957,0 0.981735,-0.351146 1.25,-0.8125 l 0.6875,0.46875 a 1.0356062,1.0356062 0 0 0 1.625,-0.84375 L 14.0625,8 A 1.0356062,1.0356062 0 0 0 12.90625,6.96875 c 0.02346,-0.1642654 0.125,-0.2987862 0.125,-0.46875 0,-1.940339 -1.590911,-3.53125 -3.53125,-3.53125 -0.7623053,0 -1.417585,0.3017716 -2,0.71875 C 6.917585,3.2705216 6.2623053,2.96875 5.5,2.96875 z M 5.5,4 c 0.8215236,0 1.5442823,0.3881928 2,1 0.4557177,-0.6118072 1.1784764,-1 2,-1 1.380712,0 2.5,1.1192881 2.5,2.5 0,0.8215236 -0.388193,1.5442823 -1,2 L 11,9.40625 13.03125,8 l 0,3.84375 L 11,10.46875 11,11.5 c 0,0.277 -0.223,0.5 -0.5,0.5 l -5,0 C 5.223,12 5,11.777 5,11.5 L 5,8.9375 C 3.8607922,8.7043843 3,7.7081229 3,6.5 3,5.1192881 4.1192881,4 5.5,4 z m 0,1.5 c -0.5522847,0 -1,0.4477153 -1,1 0,0.5522847 0.4477153,1 1,1 0.5522847,0 1,-0.4477153 1,-1 0,-0.5522847 -0.4477153,-1 -1,-1 z m 4,0 c -0.552285,0 -1,0.4477153 -1,1 0,0.5522847 0.447715,1 1,1 0.552285,0 1,-0.4477153 1,-1 0,-0.5522847 -0.447715,-1 -1,-1 z m -4,0.96875 C 5.50734,6.46875 5.53125,6.492657 5.53125,6.5 5.53125,6.50734 5.507343,6.53125 5.5,6.53125 5.49266,6.53125 5.46875,6.507343 5.46875,6.5 5.46875,6.49266 5.492657,6.46875 5.5,6.46875 z m 4,0 C 9.50734,6.46875 9.53125,6.492658 9.53125,6.5 9.53125,6.50734 9.507342,6.53125 9.5,6.53125 9.49266,6.53125 9.46875,6.507342 9.46875,6.5 9.46875,6.49266 9.492658,6.46875 9.5,6.46875 z"
       id="path3687" />
    <path
       style="opacity:0.2;fill:#ffffff;fill-opacity:1;stroke:none;display:inline"
       d="m 5.5,5.5 c -0.5522847,0 -1,0.4477153 -1,1 C 4.5,6.6873195 4.56663,6.850128 4.65625,7 4.8308608,6.707996 5.1350348,6.5 5.5,6.5 5.8649652,6.5 6.1691392,6.707996 6.34375,7 6.43337,6.850128 6.5,6.6873195 6.5,6.5 c 0,-0.5522847 -0.4477153,-1 -1,-1 z m 4,0 c -0.552285,0 -1,0.4477153 -1,1 C 8.5,6.6873195 8.566631,6.850128 8.65625,7 8.8308607,6.707996 9.1350346,6.5 9.5,6.5 9.8649654,6.5 10.169139,6.707996 10.34375,7 10.433369,6.850128 10.5,6.6873195 10.5,6.5 c 0,-0.5522847 -0.447715,-1 -1,-1 z M 3.0625,7.03125 C 3.03308,7.1846383 3,7.3380319 3,7.5 3,8.7081229 3.8607922,9.704384 5,9.9375 l 0,-1 C 4.0362918,8.7402965 3.2751672,7.9869686 3.0625,7.03125 z m 8.875,0.0625 C 11.799642,7.6649679 11.458855,8.1582115 11,8.5 L 11,9.40625 11.40625,9.125 C 11.773535,8.6909593 12,8.1161427 12,7.5 12,7.3592736 11.959847,7.2281366 11.9375,7.09375 z m -0.9375,3.375 0,1 2.03125,1.375 0,-1 L 11,10.46875 z M 5,11.5 l 0,1 C 5,12.777 5.223,13 5.5,13 l 5,0 c 0.277,0 0.5,-0.223 0.5,-0.5 l 0,-1 c 0,0.277 -0.223,0.5 -0.5,0.5 l -5,0 C 5.223,12 5,11.777 5,11.5 z"
       id="path4161"
       inkscape:connector-curvature="0" />
    <path
       inkscape:connector-curvature="0"
       style="opacity:0.15;fill:#ffffff;fill-opacity:1;stroke:none;display:inline"
       d="m -14.5,3 c -1.917961,0 -3.5,1.5820391 -3.5,3.5 0,1.3415268 0.881741,2.3561844 2,2.9375 l 0,3.0625 c 0,0.810534 0.689466,1.5 1.5,1.5 l 5,0 c 0.558741,0 0.963012,-0.376418 1.21875,-0.84375 l 0.75,0.5 a 0.99419479,0.99419479 0 0 0 1.5625,-0.8125 L -5.96875,8 A 0.99419479,0.99419479 0 0 0 -7.125,7 C -7.098873,6.8278907 -7,6.6785729 -7,6.5 -7,4.5820391 -8.582039,3 -10.5,3 c -0.756455,0 -1.423341,0.3038587 -2,0.71875 C -13.076659,3.3038587 -13.743545,3 -14.5,3 z m 0,1 c 0.821524,0 1.544282,0.3881928 2,1 0.455718,-0.6118072 1.178476,-1 2,-1 1.380712,0 2.5,1.1192881 2.5,2.5 0,0.8215236 -0.388193,1.5442823 -1,2 L -9,9.40625 -6.96875,8 l 0,4.84375 L -9,11.46875 -9,12.5 c 0,0.277 -0.223,0.5 -0.5,0.5 l -5,0 c -0.277,0 -0.5,-0.223 -0.5,-0.5 l 0,-3.5625 C -16.139208,8.7043843 -17,7.7081229 -17,6.5 -17,5.1192881 -15.880712,4 -14.5,4 z m 0,1.5 c -0.552285,0 -1,0.4477153 -1,1 0,0.5522847 0.447715,1 1,1 0.552285,0 1,-0.4477153 1,-1 0,-0.5522847 -0.447715,-1 -1,-1 z m 4,0 c -0.552285,0 -1,0.4477153 -1,1 0,0.5522847 0.447715,1 1,1 0.552285,0 1,-0.4477153 1,-1 0,-0.5522847 -0.447715,-1 -1,-1 z"
       id="path4214" />
    <path
       inkscape:connector-curvature="0"
       style="fill:#bd8e48;fill-opacity:1;stroke:none;display:inline"
       d="m -14.5,4 c -1.380712,0 -2.5,1.1192881 -2.5,2.5 0,1.2081229 0.860792,2.2043843 2,2.4375 l 0,3.5625 c 0,0.277 0.223,0.5 0.5,0.5 l 5,0 c 0.277,0 0.5,-0.223 0.5,-0.5 l 0,-1.03125 2.03125,1.375 L -6.96875,8 -9,9.40625 -9,8.5 C -8.388193,8.0442823 -8,7.3215236 -8,6.5 -8,5.1192881 -9.119288,4 -10.5,4 c -0.821524,0 -1.544282,0.3881928 -2,1 -0.455718,-0.6118072 -1.178476,-1 -2,-1 z m 0,1.5 c 0.552285,0 1,0.4477153 1,1 0,0.5522847 -0.447715,1 -1,1 -0.552285,0 -1,-0.4477153 -1,-1 0,-0.5522847 0.447715,-1 1,-1 z m 4,0 c 0.552285,0 1,0.4477153 1,1 0,0.5522847 -0.447715,1 -1,1 -0.552285,0 -1,-0.4477153 -1,-1 0,-0.5522847 0.447715,-1 1,-1 z"
       id="rect2886-4"
       sodipodi:nodetypes="sscsssscccccsscsssssssssss" />
    <path
       inkscape:connector-curvature="0"
       style="opacity:0.2;fill:#000000;fill-opacity:1;stroke:none;display:inline"
       d="m -14.5,4 c -1.380712,0 -2.5,1.1192881 -2.5,2.5 0,1.2081229 0.860792,2.2043843 2,2.4375 l 0,3.5625 c 0,0.277 0.223,0.5 0.5,0.5 l 5,0 c 0.277,0 0.5,-0.223 0.5,-0.5 l 0,-1.03125 2.03125,1.375 L -6.96875,8 -9,9.40625 -9,8.5 C -8.388193,8.0442823 -8,7.3215236 -8,6.5 -8,5.1192881 -9.119288,4 -10.5,4 c -0.821524,0 -1.544282,0.3881928 -2,1 -0.455718,-0.6118072 -1.178476,-1 -2,-1 z m 0,0.59375 c 0.636365,0 1.182229,0.2814347 1.53125,0.75 a 0.58782876,0.58782876 0 0 0 0.9375,0 c 0.349021,-0.4685653 0.894885,-0.75 1.53125,-0.75 1.063058,0 1.90625,0.8431925 1.90625,1.90625 0,0.636365 -0.281435,1.1822291 -0.75,1.53125 A 0.58782876,0.58782876 0 0 0 -9.59375,8.5 l 0,0.90625 a 0.58782876,0.58782876 0 0 0 0.9375,0.46875 l 1.09375,-0.75 0,2.59375 -1.09375,-0.75 a 0.58782876,0.58782876 0 0 0 -0.9375,0.5 l 0,0.9375 -4.8125,0 0,-3.46875 A 0.58782876,0.58782876 0 0 0 -14.875,8.375 c -0.873951,-0.1788362 -1.53125,-0.9460693 -1.53125,-1.875 0,-1.0630574 0.843193,-1.90625 1.90625,-1.90625 z m 0,0.3125 c -0.869939,0 -1.59375,0.7238108 -1.59375,1.59375 0,0.8699392 0.723811,1.59375 1.59375,1.59375 0.869939,0 1.59375,-0.7238108 1.59375,-1.59375 0,-0.8699392 -0.723811,-1.59375 -1.59375,-1.59375 z m 4,0 c -0.869939,0 -1.59375,0.723811 -1.59375,1.59375 0,0.869939 0.723811,1.59375 1.59375,1.59375 0.869939,0 1.59375,-0.723811 1.59375,-1.59375 0,-0.869939 -0.723811,-1.59375 -1.59375,-1.59375 z M -14.5,5.5 c 0.552285,0 1,0.4477153 1,1 0,0.5522847 -0.447715,1 -1,1 -0.552285,0 -1,-0.4477153 -1,-1 0,-0.5522847 0.447715,-1 1,-1 z m 4,0 c 0.552285,0 1,0.4477153 1,1 0,0.5522847 -0.447715,1 -1,1 -0.552285,0 -1,-0.4477153 -1,-1 0,-0.5522847 0.447715,-1 1,-1 z"
       id="path4198" />
    <path
       inkscape:connector-curvature="0"
       style="opacity:0.2;fill:#000000;fill-opacity:1;stroke:none;display:inline"
       d="m -14.5,4 c -1.380712,0 -2.5,1.1192881 -2.5,2.5 0,0.1755043 0.02795,0.3351278 0.0625,0.5 0.233116,-1.1392078 1.229377,-2 2.4375,-2 0.821524,0 1.544282,0.3881928 2,1 0.455718,-0.6118072 1.178476,-1 2,-1 1.208123,0 2.204384,0.8607922 2.4375,2 C -8.029493,6.8370629 -8,6.6733077 -8,6.5 -8,5.1192881 -9.119288,4 -10.5,4 c -0.821524,0 -1.544282,0.3881928 -2,1 -0.455718,-0.6118072 -1.178476,-1 -2,-1 z m -0.84375,3 C -15.43337,7.149872 -15.5,7.3126805 -15.5,7.5 c 0,0.5522847 0.447715,1 1,1 0.552285,0 1,-0.4477153 1,-1 0,-0.1873195 -0.06663,-0.350128 -0.15625,-0.5 -0.174611,0.292004 -0.478785,0.5 -0.84375,0.5 -0.364965,0 -0.669139,-0.207996 -0.84375,-0.5 z m 4,0 C -11.43337,7.149872 -11.5,7.3126805 -11.5,7.5 c 0,0.5522847 0.447715,1 1,1 0.552285,0 1,-0.4477153 1,-1 C -9.5,7.3126805 -9.566631,7.149872 -9.65625,7 -9.830861,7.292004 -10.135035,7.5 -10.5,7.5 -10.864965,7.5 -11.169139,7.292004 -11.34375,7 z m 4.375,1 -1.625,1.125 C -8.716178,9.2696802 -8.847048,9.3860706 -9,9.5 L -9,10.40625 -6.96875,9 l 0,-1 z"
       id="path4193" />
    <path
       inkscape:connector-curvature="0"
       style="opacity:0.15;fill:#ffffff;fill-opacity:1;stroke:none;display:inline"
       d="m -14.5,5.5 c -0.552285,0 -1,0.4477153 -1,1 0,0.1873195 0.06663,0.350128 0.15625,0.5 0.174611,-0.292004 0.478785,-0.5 0.84375,-0.5 0.364965,0 0.669139,0.207996 0.84375,0.5 0.08962,-0.149872 0.15625,-0.3126805 0.15625,-0.5 0,-0.5522847 -0.447715,-1 -1,-1 z m 4,0 c -0.552285,0 -1,0.4477153 -1,1 0,0.1873195 0.06663,0.350128 0.15625,0.5 0.174611,-0.292004 0.478785,-0.5 0.84375,-0.5 0.364965,0 0.669139,0.207996 0.84375,0.5 C -9.566631,6.850128 -9.5,6.6873195 -9.5,6.5 c 0,-0.5522847 -0.447715,-1 -1,-1 z m -6.4375,1.53125 C -16.96692,7.1846383 -17,7.3380319 -17,7.5 c 0,1.2081229 0.860792,2.2043843 2,2.4375 l 0,-1 c -0.963708,-0.1972033 -1.724833,-0.9505314 -1.9375,-1.90625 z m 8.875,0.0625 C -8.200358,7.6649679 -8.541145,8.1582117 -9,8.5 L -9,9.40625 -8.59375,9.125 C -8.226465,8.6909593 -8,8.1161427 -8,7.5 -8,7.3592736 -8.040153,7.2281366 -8.0625,7.09375 z m -0.9375,4.375 0,1 2.03125,1.375 0,-1 L -9,11.46875 z m -6,1.03125 0,1 c 0,0.277 0.223,0.5 0.5,0.5 l 5,0 c 0.277,0 0.5,-0.223 0.5,-0.5 l 0,-1 c 0,0.277 -0.223,0.5 -0.5,0.5 l -5,0 c -0.277,0 -0.5,-0.223 -0.5,-0.5 z"
       id="path4205" />
  </g>
</svg>
