<?xml version="1.0" encoding="UTF-8" standalone="no"?>
<!-- Created with Inkscape (http://www.inkscape.org/) -->

<svg
   xmlns:dc="http://purl.org/dc/elements/1.1/"
   xmlns:cc="http://creativecommons.org/ns#"
   xmlns:rdf="http://www.w3.org/1999/02/22-rdf-syntax-ns#"
   xmlns:svg="http://www.w3.org/2000/svg"
   xmlns="http://www.w3.org/2000/svg"
   xmlns:xlink="http://www.w3.org/1999/xlink"
   xmlns:sodipodi="http://sodipodi.sourceforge.net/DTD/sodipodi-0.dtd"
   xmlns:inkscape="http://www.inkscape.org/namespaces/inkscape"
   width="16"
   height="16"
   id="svg2"
   sodipodi:version="0.32"
   inkscape:version="0.48.1 r9760"
   version="1.0"
   sodipodi:docname="folder-system.svg"
   inkscape:output_extension="org.inkscape.output.svg.inkscape"
   style="display:inline">
  <defs
     id="defs4">
    <linearGradient
       id="linearGradient3191">
      <stop
         style="stop-color:#8b6429;stop-opacity:1;"
         offset="0"
         id="stop3193" />
      <stop
         style="stop-color:#cb9a4d;stop-opacity:1;"
         offset="1"
         id="stop3195" />
    </linearGradient>
    <linearGradient
       id="linearGradient3187">
      <stop
         style="stop-color:#c29657;stop-opacity:1;"
         offset="0"
         id="stop3189" />
      <stop
         style="stop-color:#e2c89a;stop-opacity:1;"
         offset="1"
         id="stop3191" />
    </linearGradient>
    <linearGradient
       inkscape:collect="always"
       xlink:href="#linearGradient3187"
       id="linearGradient3668"
       x1="10.871767"
       y1="26.306055"
       x2="10.871767"
       y2="8.1216478"
       gradientUnits="userSpaceOnUse"
       gradientTransform="matrix(0.6999999,0,0,0.6999999,-1.886778,-3.4141973)" />
    <linearGradient
       inkscape:collect="always"
       xlink:href="#linearGradient3191"
       id="linearGradient3197"
       x1="4.0625"
       y1="17.000139"
       x2="4.0625"
       y2="2.9996619"
       gradientUnits="userSpaceOnUse"
       gradientTransform="translate(0,-1.5)" />
  </defs>
  <sodipodi:namedview
     id="base"
     pagecolor="#ffffff"
     bordercolor="#dc0000"
     borderopacity="1"
     inkscape:pageopacity="0"
     inkscape:pageshadow="2"
     inkscape:zoom="22.695034"
     inkscape:cx="-2.2185829"
     inkscape:cy="9.3373881"
     inkscape:document-units="px"
     inkscape:current-layer="layer2"
     showgrid="true"
     inkscape:showpageshadow="false"
     showguides="true"
     inkscape:guide-bbox="true"
     inkscape:window-width="1920"
     inkscape:window-height="1030"
     inkscape:window-x="0"
     inkscape:window-y="25"
     inkscape:window-maximized="1"
     borderlayer="true">
    <sodipodi:guide
       orientation="0,1"
       position="26.278146,128"
       id="guide2385" />
    <sodipodi:guide
       orientation="1,0"
       position="128,54.082119"
       id="guide2387" />
    <sodipodi:guide
       orientation="0,1"
       position="78.156291,0"
       id="guide2389" />
    <inkscape:grid
       type="xygrid"
       id="grid3672"
       visible="true"
       enabled="true"
       empspacing="8"
       snapvisiblegridlinesonly="true" />
  </sodipodi:namedview>
  <metadata
     id="metadata7">
    <rdf:RDF>
      <cc:Work
         rdf:about="">
        <dc:format>image/svg+xml</dc:format>
        <dc:type
           rdf:resource="http://purl.org/dc/dcmitype/StillImage" />
        <dc:title></dc:title>
      </cc:Work>
    </rdf:RDF>
  </metadata>
  <g
     inkscape:label="Folder"
     inkscape:groupmode="layer"
     id="layer1"
     style="display:inline"
     sodipodi:insensitive="true">
    <rect
       style="fill:url(#linearGradient3197);fill-opacity:1;fill-rule:nonzero;stroke:none"
       id="rect2419"
       width="16"
       height="14.5"
       x="0"
       y="1.5"
       rx="2"
       ry="2" />
    <rect
       style="opacity:0;fill:#000000;fill-opacity:1;stroke:none;display:inline"
       id="rect3214"
       width="15"
       height="12.000001"
       x="0.5"
       y="4"
       rx="1.6666666"
       ry="1.627907" />
    <path
       style="fill:#9b6e2d;fill-opacity:1;fill-rule:nonzero;stroke:none"
       d="M 2.049999,0 C 1.4683,0 1,0.4683 1,1.05 L 1,2.1185435 1,3.577728 c 0,0.5816999 0.4683,1.0499999 1.049999,1.0499999 l 4.1756515,0 7.7000025,0 c 0.581699,0 1.049999,-0.4683 1.049999,-1.0499999 l 0,-1.4591845 c 0,-0.5816999 -0.4683,-1.0499999 -1.049999,-1.0499999 l -6.4643875,0 L 7.2756495,1.05 C 6.6968312,0.9921743 6.8073495,0 6.2256505,0 L 2.049999,0 z"
       id="rect2859"
       sodipodi:nodetypes="cccccccccccscc"
       inkscape:connector-curvature="0" />
    <path
       style="fill:#c39759;fill-opacity:1;fill-rule:nonzero;stroke:none"
       d="m 2.038152,1.027728 c -0.01345,0 0,-0.01913 0,0.03125 l 0,1.0625 0,3.46875 4.1875,0 7.6875,0 c 0.05038,0 0.03125,0.01345 0.03125,0 l 0,-3.46875 c 0,-0.01345 -0.0178,-0.03125 -0.03125,-0.03125 l -6.4375,0 -0.1875,0 c -0.03123,0.0014 -0.06252,0.0014 -0.09375,0 C 6.752915,2.046118 6.356927,1.740365 6.163152,1.496478 6.002471,1.294244 5.937954,1.151834 5.881902,1.027728 l -3.84375,0 z"
       id="path3218"
       sodipodi:nodetypes="cccccccccccsscc"
       inkscape:connector-curvature="0" />
    <rect
       style="fill:url(#linearGradient3668);fill-opacity:1;fill-rule:nonzero;stroke:none"
       id="rect3660"
       width="14"
       height="13.000002"
       x="1"
       y="2"
       rx="1"
       ry="1" />
    <path
       style="opacity:0.2;fill:#ffffff;fill-opacity:1;fill-rule:nonzero;stroke:none"
       d="M 2,2 C 1.446,2 1,2.446 1,3 L 1,4 C 1,3.446 1.446,3 2,3 l 12,0 c 0.554,0 1,0.446 1,1 L 15,3 C 15,2.446 14.554,2 14,2 L 2,2 z"
       id="rect3880"
       inkscape:connector-curvature="0" />
    <rect
       style="color:#000000;fill:#906d3b;fill-opacity:1;fill-rule:nonzero;stroke:none;stroke-width:2;marker:none;visibility:visible;display:inline;overflow:visible;enable-background:accumulate"
       id="rect3884"
       width="8"
       height="8"
       x="24"
       y="-8" />
    <rect
       style="color:#000000;fill:#bd8e48;fill-opacity:1;fill-rule:nonzero;stroke:none;stroke-width:2;marker:none;visibility:visible;display:inline;overflow:visible;enable-background:accumulate"
       id="rect3884-7"
       width="8"
       height="8"
       x="24"
       y="2" />
  </g>
  <g
     inkscape:groupmode="layer"
     id="layer2"
     inkscape:label="Symbol">
    <path
       inkscape:connector-curvature="0"
       style="opacity:0.15;fill:#ffffff;fill-opacity:1;fill-rule:nonzero;stroke:none;stroke-width:1;marker:none;visibility:visible;display:block;overflow:visible;enable-background:accumulate"
       d="M 7.3125,3.03125 C 6.594758,3.03125 6.130711,3.6255192 6.0625,4.25 5.5542445,3.8217999 4.7524047,3.8100929 4.28125,4.28125 l -1,1 C 2.8100605,5.7523829 2.8217788,6.554257 3.25,7.0625 2.6255169,7.13071 2.03125,7.594756 2.03125,8.3125 l 0,1.375 c 0,0.717744 0.5942669,1.181789 1.21875,1.25 -0.4281809,0.508249 -0.4399005,1.310096 0.03125,1.78125 l 1,1 c 0.2793852,0.279364 0.6645574,0.377304 0.9375,0.375 0.2192984,-0.0019 0.5705017,-0.121652 0.84375,-0.34375 0.06821,0.624482 0.532254,1.21875 1.25,1.21875 l 1.375,0 c 0.717744,0 1.181789,-0.594265 1.25,-1.21875 0.50828,0.42834 1.310173,0.439824 1.78125,-0.03125 l 1,-1 c 0.471007,-0.471115 0.459518,-1.272958 0.03125,-1.78125 0.624487,-0.06821 1.21875,-0.532247 1.21875,-1.25 l 0,-1.375 c 0,-0.717749 -0.594267,-1.18179 -1.21875,-1.25 0.428339,-0.50828 0.439826,-1.3101743 -0.03125,-1.78125 l -1,-1 C 11.247617,3.8100573 10.445742,3.821779 9.9375,4.25 9.86929,3.6255126 9.405247,3.03125 8.6875,3.03125 l -1.375,0 z m 0,0.96875 1.375,0 c 0.196771,0 0.34375,0.1748626 0.34375,0.375 l 0,0.6875 c 0.351845,0.093745 0.692398,0.2273526 1,0.40625 l 0.5,-0.5 c 0.141518,-0.1415183 0.36086,-0.1391575 0.5,0 l 1,1 c 0.13914,0.13914 0.141551,0.358482 0,0.5 l -0.5,0.5 c 0.178898,0.307601 0.312504,0.648154 0.40625,1 l 0.6875,0 c 0.200135,0 0.375,0.146976 0.375,0.34375 l 0,1.375 c 0,0.196772 -0.174865,0.34375 -0.375,0.34375 l -0.6875,0 c -0.09374,0.351845 -0.227353,0.692399 -0.40625,1 l 0.5,0.5 c 0.141517,0.141519 0.139108,0.36086 0,0.5 l -1,1 c -0.139141,0.13914 -0.358483,0.14155 -0.5,0 l -0.5,-0.5 c -0.307601,0.178898 -0.648156,0.312505 -1,0.40625 l 0,0.6875 C 9.03125,13.825138 8.884272,14 8.6875,14 l -1.375,0 C 7.115726,14 6.96875,13.825136 6.96875,13.625 l 0,-0.6875 c -0.351844,-0.09375 -0.692398,-0.227352 -1,-0.40625 l -0.5,0.5 c -0.070758,0.07076 -0.1584309,0.09297 -0.25,0.09375 -0.09157,7.73e-4 -0.1804308,-0.02419 -0.25,-0.09375 l -1,-1 c -0.139139,-0.13914 -0.1414998,-0.358481 0,-0.5 l 0.5,-0.5 c -0.1788966,-0.307601 -0.3125025,-0.648155 -0.40625,-1 l -0.6875,0 C 3.1748627,10.03125 3,9.884273 3,9.6875 L 3,8.3125 C 3,8.115727 3.1748627,7.96875 3.375,7.96875 l 0.6875,0 c 0.093747,-0.351846 0.2273534,-0.692399 0.40625,-1 l -0.5,-0.5 c -0.1415183,-0.141518 -0.1391566,-0.36086 0,-0.5 l 1,-1 c 0.1391383,-0.139139 0.3584826,-0.1415029 0.5,0 l 0.5,0.5 c 0.307602,-0.1788974 0.648156,-0.3125051 1,-0.40625 l 0,-0.6875 C 6.96875,4.1748626 7.115726,4 7.3125,4 z M 8,7.5 C 7.165585,7.5 6.5,8.165584 6.5,9 6.5,9.834415 7.165585,10.5 8,10.5 8.834416,10.5 9.5,9.834415 9.5,9 9.5,8.165584 8.834416,7.5 8,7.5 z M 8,8.46875 C 8.319064,8.46875 8.53125,8.680936 8.53125,9 8.53125,9.319062 8.319063,9.53125 8,9.53125 7.680939,9.53125 7.46875,9.319061 7.46875,9 7.46875,8.680937 7.680938,8.46875 8,8.46875 z"
       id="path3887" />
    <path
       inkscape:connector-curvature="0"
       style="fill:#bd8e48;fill-opacity:1;fill-rule:nonzero;stroke:none;stroke-width:1;marker:none;visibility:visible;display:block;overflow:visible;enable-background:accumulate"
       id="path3864"
       d="M 7.309596,14 C 7.112822,14 6.953491,13.836765 6.953491,13.636629 l 0,-0.704939 C 6.601647,12.83794 6.265458,12.696345 5.9578564,12.517447 l -0.501453,0.501452 c -0.070758,0.07076 -0.1555216,0.108235 -0.2470907,0.109011 -0.09157,7.73e-4 -0.1847898,-0.03218 -0.254359,-0.101744 L 3.973851,12.045065 C 3.834712,11.905925 3.8396012,11.685132 3.981101,11.543613 L 4.4825532,11.042162 C 4.3036566,10.734561 4.1620568,10.398371 4.0683093,10.046526 l -0.7049379,0 C 3.1632341,10.046526 3,9.887196 3,9.690423 L 3,8.309613 C 3,8.11284 3.1632341,7.9535099 3.3633714,7.9535099 l 0.7049379,0 C 4.1620568,7.6016638 4.3036566,7.2654741 4.4825532,6.9578735 L 3.9811011,6.4564221 C 3.8395828,6.3149039 3.8346944,6.0941107 3.973851,5.9549708 L 4.9549537,4.9738689 C 5.094092,4.8347299 5.314886,4.839619 5.4564034,4.9811219 l 0.501453,0.5014484 C 6.265458,5.3036729 6.601647,5.162073 6.953491,5.0683281 l 0,-0.7049396 c 0,-0.2001374 0.159331,-0.3633705 0.356105,-0.3633705 l 1.38081,0 c 0.196771,0 0.356102,0.1632331 0.356102,0.3633705 l 0,0.7049396 c 0.351845,0.093745 0.688034,0.2353448 0.995636,0.4142422 L 10.543596,4.981119 c 0.141518,-0.1415183 0.362312,-0.1464075 0.501452,-0.00725 l 0.9811,0.9811019 c 0.13914,0.1391399 0.134251,0.3599331 -0.0073,0.5014513 L 11.5174,6.9578766 c 0.178898,0.3076006 0.320497,0.6437903 0.414243,0.9956364 l 0.704939,0 c 0.200135,0 0.363371,0.159329 0.363371,0.356103 l 0,1.38081 c 0,0.196772 -0.163236,0.356103 -0.363371,0.356103 l -0.704939,0 c -0.09374,0.351845 -0.235345,0.688035 -0.414242,0.995636 l 0.501451,0.501451 c 0.141517,0.141519 0.146408,0.362312 0.0073,0.501452 l -0.9811,0.981101 c -0.139141,0.13914 -0.359935,0.13425 -0.501452,-0.0073 L 10.042147,12.517417 C 9.734546,12.696315 9.398356,12.837915 9.046512,12.93166 l 0,0.704938 c 0,0.200138 -0.159331,0.363372 -0.356103,0.363372 l -1.380809,0 z M 8,10.51164 c 0.834416,0 1.511623,-0.677207 1.511623,-1.511622 C 9.511623,8.165602 8.834416,7.4883954 8,7.4883954 c -0.834415,0 -1.511623,0.6772066 -1.511623,1.5116226 0,0.834415 0.677208,1.511622 1.511623,1.511622 z" />
    <path
       inkscape:connector-curvature="0"
       style="opacity:0.2;fill:#000000;fill-opacity:1;fill-rule:nonzero;stroke:none;stroke-width:1;marker:none;visibility:visible;display:block;overflow:visible;enable-background:accumulate"
       d="M 7.3125,4 C 7.115726,4 6.96875,4.1748626 6.96875,4.375 l 0,0.6875 c -0.351844,0.093745 -0.692398,0.2273526 -1,0.40625 l -0.5,-0.5 c -0.1415174,-0.1415029 -0.3608617,-0.139139 -0.5,0 l -1,1 c -0.1391566,0.13914 -0.1415183,0.358482 0,0.5 l 0.5,0.5 c -0.1788966,0.307601 -0.3125025,0.648154 -0.40625,1 l -0.6875,0 C 3.1748627,7.96875 3,8.115727 3,8.3125 l 0,1.375 c 0,0.196773 0.1748627,0.34375 0.375,0.34375 l 0.6875,0 c 0.093747,0.351845 0.2273534,0.692399 0.40625,1 l -0.5,0.5 c -0.1414998,0.141519 -0.139139,0.36086 0,0.5 l 1,1 c 0.069569,0.06956 0.15843,0.09452 0.25,0.09375 0.091569,-7.76e-4 0.179242,-0.02299 0.25,-0.09375 l 0.5,-0.5 c 0.307602,0.178898 0.648156,0.3125 1,0.40625 l 0,0.6875 c 0,0.200136 0.146976,0.375 0.34375,0.375 l 1.375,0 c 0.196772,0 0.34375,-0.174862 0.34375,-0.375 l 0,-0.6875 c 0.351844,-0.09374 0.692399,-0.227352 1,-0.40625 l 0.5,0.5 c 0.141517,0.14155 0.360859,0.13914 0.5,0 l 1,-1 c 0.139108,-0.13914 0.141517,-0.358481 0,-0.5 l -0.5,-0.5 c 0.178897,-0.307601 0.31251,-0.648155 0.40625,-1 l 0.6875,0 C 12.825135,10.03125 13,9.884272 13,9.6875 l 0,-1.375 C 13,8.115726 12.825135,7.96875 12.625,7.96875 l -0.6875,0 c -0.09375,-0.351846 -0.227352,-0.692399 -0.40625,-1 l 0.5,-0.5 c 0.141551,-0.141518 0.13914,-0.36086 0,-0.5 l -1,-1 c -0.13914,-0.1391575 -0.358482,-0.1415183 -0.5,0 l -0.5,0.5 C 9.723648,5.2898526 9.383095,5.156245 9.03125,5.0625 l 0,-0.6875 C 9.03125,4.1748626 8.884271,4 8.6875,4 l -1.375,0 z m 0.09375,0.4375 1.1875,0 0,0.625 A 0.44254648,0.44254648 0 0 0 8.90625,5.5 C 9.225664,5.585104 9.544826,5.6880743 9.8125,5.84375 a 0.44254648,0.44254648 0 0 0 0.53125,-0.0625 l 0.4375,-0.4375 0.875,0.875 -0.4375,0.4375 A 0.44254648,0.44254648 0 0 0 11.15625,7.1875 C 11.311925,7.45517 11.414894,7.774333 11.5,8.09375 a 0.44254648,0.44254648 0 0 0 0.4375,0.3125 l 0.625,0 0,1.1875 -0.625,0 A 0.44254648,0.44254648 0 0 0 11.5,9.90625 c -0.0851,0.319406 -0.188073,0.638574 -0.34375,0.90625 a 0.44254648,0.44254648 0 0 0 0.0625,0.53125 l 0.4375,0.4375 -0.875,0.875 -0.4375,-0.4375 A 0.44254648,0.44254648 0 0 0 9.8125,12.15625 C 9.544829,12.311925 9.225664,12.414896 8.90625,12.5 a 0.44254648,0.44254648 0 0 0 -0.3125,0.4375 l 0,0.625 -1.1875,0 0,-0.625 A 0.44254648,0.44254648 0 0 0 7.09375,12.5 C 6.774328,12.41489 6.45517,12.311924 6.1875,12.15625 a 0.44254648,0.44254648 0 0 0 -0.53125,0.0625 l -0.4375,0.4375 -0.875,-0.875 0.4375,-0.4375 A 0.44254648,0.44254648 0 0 0 4.84375,10.8125 C 4.6880759,10.544829 4.5851073,10.225667 4.5,9.90625 A 0.44254648,0.44254648 0 0 0 4.0625,9.59375 l -0.625,0 0,-1.1875 0.625,0 A 0.44254648,0.44254648 0 0 0 4.5,8.09375 C 4.585107,7.774332 4.6880759,7.455171 4.84375,7.1875 A 0.44254648,0.44254648 0 0 0 4.78125,6.65625 l -0.4375,-0.4375 0.875,-0.875 0.4375,0.4375 A 0.44254648,0.44254648 0 0 0 6.1875,5.84375 C 6.455173,5.6880745 6.774337,5.5851041 7.09375,5.5 a 0.44254648,0.44254648 0 0 0 0.3125,-0.4375 l 0,-0.625 z M 8,7.0625 C 6.930273,7.0625 6.0625,7.930271 6.0625,9 6.0625,10.069728 6.930272,10.9375 8,10.9375 9.069729,10.9375 9.9375,10.069727 9.9375,9 9.9375,7.930272 9.069728,7.0625 8,7.0625 z M 8,7.5 C 8.834416,7.5 9.5,8.165584 9.5,9 9.5,9.834415 8.834416,10.5 8,10.5 7.165585,10.5 6.5,9.834415 6.5,9 6.5,8.165584 7.165585,7.5 8,7.5 z"
       id="path3871" />
    <path
       inkscape:connector-curvature="0"
       style="opacity:0.2;fill:#000000;fill-opacity:1;fill-rule:nonzero;stroke:none;stroke-width:1;marker:none;visibility:visible;display:block;overflow:visible;enable-background:accumulate"
       d="M 7.3125,4 C 7.115726,4 6.96875,4.1748626 6.96875,4.375 l 0,0.6875 c -0.351844,0.093745 -0.692398,0.2273526 -1,0.40625 l -0.5,-0.5 c -0.1415174,-0.1415029 -0.3608617,-0.139139 -0.5,0 l -1,1 c -0.1391566,0.13914 -0.1415183,0.358482 0,0.5 l 0.25,0.25 0.75,-0.75 c 0.1391383,-0.139139 0.3584826,-0.1415029 0.5,0 l 0.5,0.5 c 0.307602,-0.178897 0.648156,-0.312505 1,-0.40625 l 0,-0.6875 C 6.96875,5.1748626 7.115726,5 7.3125,5 l 1.375,0 c 0.196771,0 0.34375,0.1748626 0.34375,0.375 l 0,0.6875 c 0.351845,0.09375 0.692398,0.227353 1,0.40625 l 0.5,-0.5 c 0.141518,-0.1415183 0.36086,-0.1391575 0.5,0 l 0.75,0.75 0.25,-0.25 c 0.141551,-0.141518 0.13914,-0.36086 0,-0.5 l -1,-1 c -0.13914,-0.1391575 -0.358482,-0.1415183 -0.5,0 l -0.5,0.5 C 9.723648,5.2898526 9.383095,5.156245 9.03125,5.0625 l 0,-0.6875 C 9.03125,4.1748626 8.884271,4 8.6875,4 L 7.3125,4 z M 4.15625,7.65625 C 4.121385,7.75508 4.089615,7.866985 4.0625,7.96875 l -0.6875,0 C 3.1748627,7.96875 3,8.115727 3,8.3125 l 0,1 C 3,9.115727 3.1748627,8.96875 3.375,8.96875 l 0.6875,0 c 0.093747,-0.351846 0.2273534,-0.6924 0.40625,-1 l -0.3125,-0.3125 z m 7.6875,0 -0.3125,0.3125 c 0.178898,0.3076 0.312504,0.648154 0.40625,1 l 0.6875,0 c 0.200135,0 0.375,0.146976 0.375,0.34375 l 0,-1 C 13,8.115726 12.825135,7.96875 12.625,7.96875 l -0.6875,0 C 11.91039,7.866985 11.87861,7.755082 11.84375,7.65625 z M 6.5625,9.5 C 6.508902,9.654864 6.5,9.826981 6.5,10 6.5,10.834415 7.165585,11.5 8,11.5 8.834416,11.5 9.5,10.834415 9.5,10 9.5,9.826981 9.4911,9.654864 9.4375,9.5 9.232613,10.091998 8.661397,10.5 8,10.5 7.338603,10.5 6.767387,10.091998 6.5625,9.5 z m -2.40625,1.84375 -0.1875,0.1875 c -0.1414998,0.141519 -0.139139,0.36086 0,0.5 l 0.25,0.25 0.25,-0.25 C 4.3415958,11.812617 4.2419298,11.586625 4.15625,11.34375 z m 7.6875,0 c -0.08568,0.242875 -0.185346,0.468867 -0.3125,0.6875 l 0.25,0.25 0.25,-0.25 c 0.139108,-0.13914 0.141517,-0.358481 0,-0.5 l -0.1875,-0.1875 z"
       id="path3866" />
    <path
       inkscape:connector-curvature="0"
       style="opacity:0.15;fill:#ffffff;fill-opacity:1;fill-rule:nonzero;stroke:none;stroke-width:1;marker:none;visibility:visible;display:block;overflow:visible;enable-background:accumulate"
       d="m 4.21875,6.71875 -0.25,0.25 c -0.1391566,0.13914 -0.1415183,0.358482 0,0.5 l 0.1875,0.1875 C 4.24193,7.413375 4.3415958,7.187383 4.46875,6.96875 l -0.25,-0.25 z m 7.5625,0 -0.25,0.25 c 0.127155,0.218633 0.226821,0.444625 0.3125,0.6875 l 0.1875,-0.1875 c 0.141551,-0.141518 0.13914,-0.36086 0,-0.5 l -0.25,-0.25 z M 8,7.5 C 7.165585,7.5 6.5,8.165584 6.5,9 6.5,9.173018 6.5089,9.345136 6.5625,9.5 6.767387,8.908001 7.338603,8.5 8,8.5 8.661397,8.5 9.232613,8.908001 9.4375,9.5 9.4911,9.345136 9.5,9.173018 9.5,9 9.5,8.165584 8.834416,7.5 8,7.5 z m -5,2.1875 0,1 c 0,0.196773 0.1748627,0.34375 0.375,0.34375 l 0.6875,0 c 0.027115,0.101764 0.058885,0.213668 0.09375,0.3125 l 0.3125,-0.3125 c -0.1788966,-0.307601 -0.3125025,-0.648155 -0.40625,-1 l -0.6875,0 C 3.1748627,10.03125 3,9.884273 3,9.6875 z m 10,0 c 0,0.196772 -0.174865,0.34375 -0.375,0.34375 l -0.6875,0 c -0.09374,0.351845 -0.227353,0.692399 -0.40625,1 l 0.3125,0.3125 c 0.03486,-0.09883 0.06664,-0.210736 0.09375,-0.3125 l 0.6875,0 c 0.200135,0 0.375,-0.146978 0.375,-0.34375 l 0,-1 z m -8.78125,2.59375 -0.25,0.25 c -0.1414998,0.141519 -0.139139,0.36086 0,0.5 l 1,1 c 0.069569,0.06956 0.15843,0.09452 0.25,0.09375 0.091569,-7.76e-4 0.179242,-0.02299 0.25,-0.09375 l 0.5,-0.5 c 0.307602,0.178898 0.648156,0.3125 1,0.40625 l 0,0.6875 c 0,0.200136 0.146976,0.375 0.34375,0.375 l 1.375,0 c 0.196772,0 0.34375,-0.174862 0.34375,-0.375 l 0,-0.6875 c 0.351844,-0.09374 0.692399,-0.227352 1,-0.40625 l 0.5,0.5 c 0.141517,0.14155 0.360859,0.13914 0.5,0 l 1,-1 c 0.139108,-0.13914 0.141517,-0.358481 0,-0.5 l -0.25,-0.25 -0.75,0.75 c -0.139141,0.13914 -0.358483,0.14155 -0.5,0 l -0.5,-0.5 c -0.307601,0.178898 -0.648156,0.312505 -1,0.40625 l 0,0.6875 C 9.03125,13.825138 8.884272,14 8.6875,14 l -1.375,0 C 7.115726,14 6.96875,13.825136 6.96875,13.625 l 0,-0.6875 c -0.351844,-0.09375 -0.692398,-0.227352 -1,-0.40625 l -0.5,0.5 c -0.070758,0.07076 -0.1584309,0.09297 -0.25,0.09375 -0.09157,7.73e-4 -0.1804308,-0.02419 -0.25,-0.09375 l -0.75,-0.75 z"
       id="path3878" />
  </g>
</svg>
