<?xml version="1.0" encoding="UTF-8" standalone="no"?>
<!-- Created with Inkscape (http://www.inkscape.org/) -->

<svg
   xmlns:dc="http://purl.org/dc/elements/1.1/"
   xmlns:cc="http://creativecommons.org/ns#"
   xmlns:rdf="http://www.w3.org/1999/02/22-rdf-syntax-ns#"
   xmlns:svg="http://www.w3.org/2000/svg"
   xmlns="http://www.w3.org/2000/svg"
   xmlns:xlink="http://www.w3.org/1999/xlink"
   xmlns:sodipodi="http://sodipodi.sourceforge.net/DTD/sodipodi-0.dtd"
   xmlns:inkscape="http://www.inkscape.org/namespaces/inkscape"
   width="16"
   height="16"
   id="svg2"
   sodipodi:version="0.32"
   inkscape:version="0.48.1 r9760"
   version="1.0"
   sodipodi:docname="folder-recent.svg"
   inkscape:output_extension="org.inkscape.output.svg.inkscape"
   style="display:inline">
  <defs
     id="defs4">
    <linearGradient
       id="linearGradient3191">
      <stop
         style="stop-color:#8b6429;stop-opacity:1;"
         offset="0"
         id="stop3193" />
      <stop
         style="stop-color:#cb9a4d;stop-opacity:1;"
         offset="1"
         id="stop3195" />
    </linearGradient>
    <linearGradient
       id="linearGradient3187">
      <stop
         style="stop-color:#c29657;stop-opacity:1;"
         offset="0"
         id="stop3189" />
      <stop
         style="stop-color:#e2c89a;stop-opacity:1;"
         offset="1"
         id="stop3191" />
    </linearGradient>
    <linearGradient
       inkscape:collect="always"
       xlink:href="#linearGradient3187"
       id="linearGradient3668"
       x1="10.871767"
       y1="26.306055"
       x2="10.871767"
       y2="8.1216478"
       gradientUnits="userSpaceOnUse"
       gradientTransform="matrix(0.6999999,0,0,0.6999999,-1.886778,-3.4141973)" />
    <linearGradient
       inkscape:collect="always"
       xlink:href="#linearGradient3191"
       id="linearGradient3197"
       x1="4.0625"
       y1="17.000139"
       x2="4.0625"
       y2="2.9996619"
       gradientUnits="userSpaceOnUse"
       gradientTransform="translate(0,-1.5)" />
  </defs>
  <sodipodi:namedview
     id="base"
     pagecolor="#ffffff"
     bordercolor="#dc0000"
     borderopacity="1"
     inkscape:pageopacity="0"
     inkscape:pageshadow="2"
     inkscape:zoom="22.695034"
     inkscape:cx="-2.2185829"
     inkscape:cy="9.2933256"
     inkscape:document-units="px"
     inkscape:current-layer="layer2"
     showgrid="true"
     inkscape:showpageshadow="false"
     showguides="true"
     inkscape:guide-bbox="true"
     inkscape:window-width="1920"
     inkscape:window-height="1030"
     inkscape:window-x="0"
     inkscape:window-y="25"
     inkscape:window-maximized="1"
     borderlayer="true">
    <sodipodi:guide
       orientation="0,1"
       position="26.278146,128"
       id="guide2385" />
    <sodipodi:guide
       orientation="1,0"
       position="128,54.082119"
       id="guide2387" />
    <sodipodi:guide
       orientation="0,1"
       position="78.156291,0"
       id="guide2389" />
    <inkscape:grid
       type="xygrid"
       id="grid3672"
       visible="true"
       enabled="true"
       empspacing="8"
       snapvisiblegridlinesonly="true" />
  </sodipodi:namedview>
  <metadata
     id="metadata7">
    <rdf:RDF>
      <cc:Work
         rdf:about="">
        <dc:format>image/svg+xml</dc:format>
        <dc:type
           rdf:resource="http://purl.org/dc/dcmitype/StillImage" />
        <dc:title></dc:title>
      </cc:Work>
    </rdf:RDF>
  </metadata>
  <g
     inkscape:label="Folder"
     inkscape:groupmode="layer"
     id="layer1"
     style="display:inline"
     sodipodi:insensitive="true">
    <rect
       style="fill:url(#linearGradient3197);fill-opacity:1;fill-rule:nonzero;stroke:none"
       id="rect2419"
       width="16"
       height="14.5"
       x="0"
       y="1.5"
       rx="2"
       ry="2" />
    <rect
       style="opacity:0;fill:#000000;fill-opacity:1;stroke:none;display:inline"
       id="rect3214"
       width="15"
       height="12.000001"
       x="0.5"
       y="4"
       rx="1.6666666"
       ry="1.627907" />
    <path
       style="fill:#9b6e2d;fill-opacity:1;fill-rule:nonzero;stroke:none"
       d="M 2.049999,0 C 1.4683,0 1,0.4683 1,1.05 L 1,2.1185435 1,3.577728 c 0,0.5816999 0.4683,1.0499999 1.049999,1.0499999 l 4.1756515,0 7.7000025,0 c 0.581699,0 1.049999,-0.4683 1.049999,-1.0499999 l 0,-1.4591845 c 0,-0.5816999 -0.4683,-1.0499999 -1.049999,-1.0499999 l -6.4643875,0 L 7.2756495,1.05 C 6.6968312,0.9921743 6.8073495,0 6.2256505,0 L 2.049999,0 z"
       id="rect2859"
       sodipodi:nodetypes="cccccccccccscc"
       inkscape:connector-curvature="0" />
    <path
       style="fill:#c39759;fill-opacity:1;fill-rule:nonzero;stroke:none"
       d="m 2.038152,1.027728 c -0.01345,0 0,-0.01913 0,0.03125 l 0,1.0625 0,3.46875 4.1875,0 7.6875,0 c 0.05038,0 0.03125,0.01345 0.03125,0 l 0,-3.46875 c 0,-0.01345 -0.0178,-0.03125 -0.03125,-0.03125 l -6.4375,0 -0.1875,0 c -0.03123,0.0014 -0.06252,0.0014 -0.09375,0 C 6.752915,2.046118 6.356927,1.740365 6.163152,1.496478 6.002471,1.294244 5.937954,1.151834 5.881902,1.027728 l -3.84375,0 z"
       id="path3218"
       sodipodi:nodetypes="cccccccccccsscc"
       inkscape:connector-curvature="0" />
    <rect
       style="fill:url(#linearGradient3668);fill-opacity:1;fill-rule:nonzero;stroke:none"
       id="rect3660"
       width="14"
       height="13.000002"
       x="1"
       y="2"
       rx="1"
       ry="1" />
    <path
       style="opacity:0.2;fill:#ffffff;fill-opacity:1;fill-rule:nonzero;stroke:none"
       d="M 2,2 C 1.446,2 1,2.446 1,3 L 1,4 C 1,3.446 1.446,3 2,3 l 12,0 c 0.554,0 1,0.446 1,1 L 15,3 C 15,2.446 14.554,2 14,2 L 2,2 z"
       id="rect3880"
       inkscape:connector-curvature="0" />
    <rect
       style="color:#000000;fill:#906d3b;fill-opacity:1;fill-rule:nonzero;stroke:none;stroke-width:2;marker:none;visibility:visible;display:inline;overflow:visible;enable-background:accumulate"
       id="rect3884"
       width="8"
       height="8"
       x="24"
       y="-8" />
    <rect
       style="color:#000000;fill:#bd8e48;fill-opacity:1;fill-rule:nonzero;stroke:none;stroke-width:2;marker:none;visibility:visible;display:inline;overflow:visible;enable-background:accumulate"
       id="rect3884-7"
       width="8"
       height="8"
       x="24"
       y="2" />
  </g>
  <g
     inkscape:groupmode="layer"
     id="layer2"
     inkscape:label="Symbol">
    <path
       sodipodi:type="inkscape:offset"
       inkscape:radius="0.96259499"
       inkscape:original="M 8.53125 5 C 6.0502243 5 4.03125 7.0189749 4.03125 9.5 L 2.71875 9.5 L 4.75 12.875 L 6.75 9.5 L 5.21875 9.5 C 5.21875 7.691758 6.691758 6.21875 8.5 6.21875 C 10.308242 6.21875 11.78125 7.691758 11.78125 9.5 C 11.78125 11.308242 10.308242 12.78125 8.5 12.78125 C 7.9104022 12.78125 7.3528519 12.616494 6.875 12.34375 L 6.28125 13.40625 C 6.9420169 13.788494 7.7129882 14 8.53125 14 C 11.012274 14 13 11.981024 13 9.5 C 13 7.0189749 11.012274 5 8.53125 5 z M 8 7 L 8 9 L 8 10 L 10.46875 10 L 10.46875 9 L 9 9 L 9 7 L 8 7 z M 5.34375 12.65625 C 5.4491363 12.762468 5.5407488 12.873431 5.65625 12.96875 C 5.5424462 12.87494 5.4470421 12.760004 5.34375 12.65625 z "
       style="opacity:0.15;color:#000000;fill:#ffffff;fill-opacity:1;fill-rule:nonzero;stroke:none;stroke-width:3;marker:none;visibility:visible;display:inline;overflow:visible;enable-background:accumulate"
       id="path3884"
       d="m 8.53125,4.03125 c -2.6617962,0 -4.8075522,1.9697612 -5.28125,4.5 l -0.53125,0 A 0.96269125,0.96269125 0 0 0 1.90625,10 l 2.03125,3.375 a 0.96269125,0.96269125 0 0 0 1.40625,0.25 0.96269125,0.96269125 0 0 0 0.46875,0.625 c 0.8084664,0.467686 1.7346125,0.71875 2.71875,0.71875 3.003243,0 5.4375,-2.47359 5.4375,-5.46875 0,-2.9951607 -2.434257,-5.46875 -5.4375,-5.46875 z m -1.5,3.75 0,0.8125 A 0.96269125,0.96269125 0 0 0 6.75,8.53125 l -0.1875,0 c 0.1414346,-0.2828424 0.2295056,-0.5483252 0.46875,-0.75 z m 2.9375,0 c 0.100441,0.084668 0.165332,0.1495592 0.25,0.25 l -0.25,0 0,-0.25 z m -2.75,2.78125 A 0.96269125,0.96269125 0 0 0 8,10.96875 l 2.21875,0 C 9.7942333,11.472349 9.2139379,11.8125 8.5,11.8125 8.0897259,11.8125 7.6865823,11.695679 7.34375,11.5 A 0.96269125,0.96269125 0 0 0 6.75,11.375 l 0.46875,-0.8125 z"
       transform="translate(1.9355255e-8,-1)" />
    <path
       style="color:#000000;fill:#bd8e48;fill-opacity:1;fill-rule:nonzero;stroke:none;stroke-width:3;marker:none;visibility:visible;display:inline;overflow:visible;enable-background:accumulate"
       d="m 8.53125,4 c -2.4810257,0 -4.5,2.0189749 -4.5,4.5 l -1.3125,0 2.03125,3.375 2,-3.375 -1.53125,0 c 0,-1.808242 1.473008,-3.28125 3.28125,-3.28125 1.808242,0 3.28125,1.473008 3.28125,3.28125 0,1.808242 -1.473008,3.28125 -3.28125,3.28125 -0.5895978,0 -1.1471481,-0.164756 -1.625,-0.4375 l -0.59375,1.0625 C 6.9420169,12.788494 7.7129882,13 8.53125,13 11.012274,13 13,10.981024 13,8.5 13,6.0189749 11.012274,4 8.53125,4 z M 8,6 l 0,2 0,1 2.46875,0 0,-1 L 9,8 9,6 8,6 z m -2.65625,5.65625 c 0.1053863,0.106218 0.1969988,0.217181 0.3125,0.3125 -0.1138038,-0.09381 -0.2092079,-0.208746 -0.3125,-0.3125 z"
       id="path3876"
       inkscape:connector-curvature="0" />
    <path
       style="opacity:0.2;color:#000000;fill:#000000;fill-opacity:1;fill-rule:nonzero;stroke:none;stroke-width:3;marker:none;visibility:visible;display:inline;overflow:visible;enable-background:accumulate"
       d="m 8.53125,4 c -2.4810257,0 -4.5,2.0189749 -4.5,4.5 l -1.3125,0 0.59375,1 0.71875,0 c 0,-2.4810251 2.0189743,-4.5 4.5,-4.5 2.309541,0 4.157114,1.7568382 4.40625,4 C 12.956,8.8334462 13,8.6714825 13,8.5 13,6.0189749 11.012274,4 8.53125,4 z M 8.5,6.21875 c -0.1726973,0 -0.3344094,0.03662 -0.5,0.0625 L 8,7 9,7 9,6.28125 C 8.8344094,6.25537 8.6726973,6.21875 8.5,6.21875 z M 9,8 l 0,1 1.46875,0 0,-1 L 9,8 z M 5.375,8.5 C 5.273207,8.8161696 5.21875,9.150586 5.21875,9.5 l 0.9375,0 0.59375,-1 -1.375,0 z M 11.71875,9 c -0.245103,1.56824 -1.583205,2.78125 -3.21875,2.78125 -0.5895978,0 -1.1471481,-0.164756 -1.625,-0.4375 l -0.59375,1.0625 c 0.1445428,0.08362 0.2830689,0.151901 0.4375,0.21875 L 6.875,12.34375 c 0.4778519,0.272744 1.0354022,0.4375 1.625,0.4375 1.808242,0 3.28125,-1.473008 3.28125,-3.28125 0,-0.172697 -0.03662,-0.334409 -0.0625,-0.5 z m -6.375,3.65625 c 0.1032921,0.103754 0.1986962,0.21869 0.3125,0.3125 -0.1155012,-0.09532 -0.2071137,-0.206282 -0.3125,-0.3125 z"
       id="path3877"
       inkscape:connector-curvature="0" />
    <path
       inkscape:connector-curvature="0"
       style="opacity:0.2;color:#000000;fill:#000000;fill-opacity:1;fill-rule:nonzero;stroke:none;stroke-width:3;marker:none;visibility:visible;display:inline;overflow:visible;enable-background:accumulate"
       d="m 8.53125,4 c -2.4810257,0 -4.5,2.0189749 -4.5,4.5 l -1.3125,0 2.03125,3.375 2,-3.375 -1.53125,0 c 0,-1.808242 1.473008,-3.28125 3.28125,-3.28125 1.808242,0 3.28125,1.473008 3.28125,3.28125 0,1.808242 -1.473008,3.28125 -3.28125,3.28125 -0.5895978,0 -1.1471481,-0.164756 -1.625,-0.4375 l -0.59375,1.0625 C 6.9420169,12.788494 7.7129882,13 8.53125,13 11.012274,13 13,10.981024 13,8.5 13,6.0189749 11.012274,4 8.53125,4 z m 0,0.5 c 2.204157,0 3.96875,1.7915561 3.96875,4 0,2.208443 -1.764593,4 -3.96875,4 C 7.9835108,12.5 7.4716799,12.351334 7,12.15625 l 0.09375,-0.1875 c 0.437814,0.179173 0.9030762,0.3125 1.40625,0.3125 2.085395,0 3.78125,-1.695855 3.78125,-3.78125 0,-2.0853946 -1.695855,-3.78125 -3.78125,-3.78125 -2.0853946,0 -3.78125,1.6958554 -3.78125,3.78125 a 0.51039351,0.51039351 0 0 0 0.5,0.5 L 5.875,9 4.75,10.90625 3.59375,9 4.03125,9 a 0.51039351,0.51039351 0 0 0 0.5,-0.5 c 0,-2.2041588 1.7958406,-4 4,-4 z M 8,6 l 0,2 0,1 2.46875,0 0,-1 L 9,8 9,6 8,6 z M 8.5,8.15625 A 0.51039351,0.51039351 0 0 0 8.84375,8.5 L 8.5,8.5 8.5,8.15625 z m -3.15625,3.5 c 0.1053863,0.106218 0.1969988,0.217181 0.3125,0.3125 -0.1138038,-0.09381 -0.2092079,-0.208746 -0.3125,-0.3125 z"
       id="path4076" />
    <path
       inkscape:connector-curvature="0"
       style="opacity:0.15;color:#000000;fill:#ffffff;fill-opacity:1;fill-rule:nonzero;stroke:none;stroke-width:3;marker:none;visibility:visible;display:inline;overflow:visible;enable-background:accumulate"
       d="M 8.5,5.21875 C 6.691758,5.21875 5.21875,6.691758 5.21875,8.5 L 5.375,8.5 C 5.7496824,7.3362349 6.7667949,6.4739895 8,6.28125 L 8,6 9,6 9,6.28125 C 10.402649,6.5004723 11.499528,7.5973506 11.71875,9 c 0.02588,-0.1655906 0.0625,-0.3273027 0.0625,-0.5 0,-1.808242 -1.473009,-3.28125 -3.2812508,-3.28125 z M 8,9 l 0,1 2.46875,0 0,-1 L 9,9 8,9 z m 4.9375,0 c -0.249136,2.243161 -2.096709,4 -4.40625,4 -0.639267,0 -1.2609603,-0.136254 -1.8125,-0.375 l -0.4375,0.78125 C 6.9420169,13.788494 7.7129882,14 8.53125,14 11.012274,14 13,11.981024 13,9.5 13,9.3285174 12.956,9.1665539 12.9375,9 z M 2.71875,9.5 4.75,12.875 5.4375,11.75 6.75,9.5 6.15625,9.5 4.75,11.875 3.3125,9.5 2.71875,9.5 z m 2.625,3.15625 c 0.1053863,0.106218 0.1969988,0.217181 0.3125,0.3125 -0.1138038,-0.09381 -0.2092079,-0.208746 -0.3125,-0.3125 z"
       id="path4071" />
  </g>
</svg>
