<?xml version="1.0" encoding="UTF-8" standalone="no"?>
<!-- Created with Inkscape (http://www.inkscape.org/) -->

<svg
   xmlns:dc="http://purl.org/dc/elements/1.1/"
   xmlns:cc="http://creativecommons.org/ns#"
   xmlns:rdf="http://www.w3.org/1999/02/22-rdf-syntax-ns#"
   xmlns:svg="http://www.w3.org/2000/svg"
   xmlns="http://www.w3.org/2000/svg"
   xmlns:xlink="http://www.w3.org/1999/xlink"
   xmlns:sodipodi="http://sodipodi.sourceforge.net/DTD/sodipodi-0.dtd"
   xmlns:inkscape="http://www.inkscape.org/namespaces/inkscape"
   width="16"
   height="16"
   id="svg2"
   sodipodi:version="0.32"
   inkscape:version="0.48.1 r9760"
   version="1.0"
   sodipodi:docname="folder-pictures.svg"
   inkscape:output_extension="org.inkscape.output.svg.inkscape"
   style="display:inline">
  <defs
     id="defs4">
    <linearGradient
       id="linearGradient3191">
      <stop
         style="stop-color:#8b6429;stop-opacity:1;"
         offset="0"
         id="stop3193" />
      <stop
         style="stop-color:#cb9a4d;stop-opacity:1;"
         offset="1"
         id="stop3195" />
    </linearGradient>
    <linearGradient
       id="linearGradient3187">
      <stop
         style="stop-color:#c29657;stop-opacity:1;"
         offset="0"
         id="stop3189" />
      <stop
         style="stop-color:#e2c89a;stop-opacity:1;"
         offset="1"
         id="stop3191" />
    </linearGradient>
    <linearGradient
       inkscape:collect="always"
       xlink:href="#linearGradient3187"
       id="linearGradient3668"
       x1="10.871767"
       y1="26.306055"
       x2="10.871767"
       y2="8.1216478"
       gradientUnits="userSpaceOnUse"
       gradientTransform="matrix(0.6999999,0,0,0.6999999,-1.886778,-3.4141973)" />
    <linearGradient
       inkscape:collect="always"
       xlink:href="#linearGradient3191"
       id="linearGradient3197"
       x1="4.0625"
       y1="17.000139"
       x2="4.0625"
       y2="2.9996619"
       gradientUnits="userSpaceOnUse"
       gradientTransform="translate(0,-1.5)" />
  </defs>
  <sodipodi:namedview
     id="base"
     pagecolor="#ffffff"
     bordercolor="#dc0000"
     borderopacity="1"
     inkscape:pageopacity="0"
     inkscape:pageshadow="2"
     inkscape:zoom="22.695034"
     inkscape:cx="-2.1745204"
     inkscape:cy="9.2933256"
     inkscape:document-units="px"
     inkscape:current-layer="layer2"
     showgrid="true"
     inkscape:showpageshadow="false"
     showguides="true"
     inkscape:guide-bbox="true"
     inkscape:window-width="1920"
     inkscape:window-height="1030"
     inkscape:window-x="0"
     inkscape:window-y="25"
     inkscape:window-maximized="1"
     borderlayer="true">
    <sodipodi:guide
       orientation="0,1"
       position="26.278146,128"
       id="guide2385" />
    <sodipodi:guide
       orientation="1,0"
       position="128,54.082119"
       id="guide2387" />
    <sodipodi:guide
       orientation="0,1"
       position="78.156291,0"
       id="guide2389" />
    <inkscape:grid
       type="xygrid"
       id="grid3672"
       visible="true"
       enabled="true"
       empspacing="8"
       snapvisiblegridlinesonly="true" />
  </sodipodi:namedview>
  <metadata
     id="metadata7">
    <rdf:RDF>
      <cc:Work
         rdf:about="">
        <dc:format>image/svg+xml</dc:format>
        <dc:type
           rdf:resource="http://purl.org/dc/dcmitype/StillImage" />
        <dc:title></dc:title>
      </cc:Work>
    </rdf:RDF>
  </metadata>
  <g
     inkscape:label="Folder"
     inkscape:groupmode="layer"
     id="layer1"
     style="display:inline"
     sodipodi:insensitive="true">
    <rect
       style="fill:url(#linearGradient3197);fill-opacity:1;fill-rule:nonzero;stroke:none"
       id="rect2419"
       width="16"
       height="14.5"
       x="0"
       y="1.5"
       rx="2"
       ry="2" />
    <rect
       style="opacity:0;fill:#000000;fill-opacity:1;stroke:none;display:inline"
       id="rect3214"
       width="15"
       height="12.000001"
       x="0.5"
       y="4"
       rx="1.6666666"
       ry="1.627907" />
    <path
       style="fill:#9b6e2d;fill-opacity:1;fill-rule:nonzero;stroke:none"
       d="M 2.049999,0 C 1.4683,0 1,0.4683 1,1.05 L 1,2.1185435 1,3.577728 c 0,0.5816999 0.4683,1.0499999 1.049999,1.0499999 l 4.1756515,0 7.7000025,0 c 0.581699,0 1.049999,-0.4683 1.049999,-1.0499999 l 0,-1.4591845 c 0,-0.5816999 -0.4683,-1.0499999 -1.049999,-1.0499999 l -6.4643875,0 L 7.2756495,1.05 C 6.6968312,0.9921743 6.8073495,0 6.2256505,0 L 2.049999,0 z"
       id="rect2859"
       sodipodi:nodetypes="cccccccccccscc"
       inkscape:connector-curvature="0" />
    <path
       style="fill:#c39759;fill-opacity:1;fill-rule:nonzero;stroke:none"
       d="m 2.038152,1.027728 c -0.01345,0 0,-0.01913 0,0.03125 l 0,1.0625 0,3.46875 4.1875,0 7.6875,0 c 0.05038,0 0.03125,0.01345 0.03125,0 l 0,-3.46875 c 0,-0.01345 -0.0178,-0.03125 -0.03125,-0.03125 l -6.4375,0 -0.1875,0 c -0.03123,0.0014 -0.06252,0.0014 -0.09375,0 C 6.752915,2.046118 6.356927,1.740365 6.163152,1.496478 6.002471,1.294244 5.937954,1.151834 5.881902,1.027728 l -3.84375,0 z"
       id="path3218"
       sodipodi:nodetypes="cccccccccccsscc"
       inkscape:connector-curvature="0" />
    <rect
       style="fill:url(#linearGradient3668);fill-opacity:1;fill-rule:nonzero;stroke:none"
       id="rect3660"
       width="14"
       height="13.000002"
       x="1"
       y="2"
       rx="1"
       ry="1" />
    <path
       style="opacity:0.2;fill:#ffffff;fill-opacity:1;fill-rule:nonzero;stroke:none"
       d="M 2,2 C 1.446,2 1,2.446 1,3 L 1,4 C 1,3.446 1.446,3 2,3 l 12,0 c 0.554,0 1,0.446 1,1 L 15,3 C 15,2.446 14.554,2 14,2 L 2,2 z"
       id="rect3880"
       inkscape:connector-curvature="0" />
    <rect
       style="color:#000000;fill:#906d3b;fill-opacity:1;fill-rule:nonzero;stroke:none;stroke-width:2;marker:none;visibility:visible;display:inline;overflow:visible;enable-background:accumulate"
       id="rect3884"
       width="8"
       height="8"
       x="24"
       y="-8" />
    <rect
       style="color:#000000;fill:#bd8e48;fill-opacity:1;fill-rule:nonzero;stroke:none;stroke-width:2;marker:none;visibility:visible;display:inline;overflow:visible;enable-background:accumulate"
       id="rect3884-7"
       width="8"
       height="8"
       x="24"
       y="2" />
  </g>
  <g
     inkscape:groupmode="layer"
     id="layer2"
     inkscape:label="Symbol">
    <path
       sodipodi:type="inkscape:offset"
       inkscape:radius="0.95037758"
       inkscape:original="M 4 5 L 4 6 C 3.446 6 3 6.446 3 7 L 3 12 C 3 12.554 3.446 13 4 13 L 12 13 C 12.554 13 13 12.554 13 12 L 13 7 C 13 6.446 12.554 6 12 6 L 6 6 L 6 5 L 4 5 z M 4 7 L 6 7 L 6 8 L 4 8 L 4 7 z M 9.5 7 C 10.880712 7 12 8.1192881 12 9.5 C 12 10.880712 10.880712 12 9.5 12 C 8.1192881 12 7 10.880712 7 9.5 C 7 8.1192881 8.1192881 7 9.5 7 z "
       style="opacity:0.15;fill:#ffffff;fill-opacity:1;stroke:none;display:inline"
       id="path3725"
       d="M 3.8125,4.0625 A 0.95047262,0.95047262 0 0 0 3.0625,5 l 0,0.4375 c -0.5686975,0.343657 -1,0.8600253 -1,1.5625 l 0,5 c 0,1.06407 0.8734297,1.9375 1.9375,1.9375 l 8,0 c 1.06407,0 1.9375,-0.87343 1.9375,-1.9375 l 0,-5 C 13.9375,5.9359297 13.06407,5.0625 12,5.0625 l -5.0625,0 0,-0.0625 A 0.95047262,0.95047262 0 0 0 6,4.0625 l -2,0 a 0.95047262,0.95047262 0 0 0 -0.1875,0 z M 9.5,7.9375 c 0.86709,0 1.5625,0.6954102 1.5625,1.5625 0,0.86709 -0.69541,1.5625 -1.5625,1.5625 -0.8670898,0 -1.5625,-0.69541 -1.5625,-1.5625 0,-0.8670898 0.6954102,-1.5625 1.5625,-1.5625 z"
       transform="translate(0,-1.0000002)" />
    <path
       inkscape:connector-curvature="0"
       style="fill:#bd8e48;fill-opacity:1;stroke:none;display:inline"
       d="m 4,3.9999994 0,1 c -0.554,0 -1,0.446 -1,1 L 3,11 c 0,0.554 0.446,1 1,1 l 8,0 c 0.554,0 1,-0.446 1,-1 l 0,-5.0000006 c 0,-0.554 -0.446,-1 -1,-1 l -6,0 0,-1 -2,0 z m 0,2 2,0 0,1 -2,0 0,-1 z m 5.5,0 c 1.380712,0 2.5,1.1192881 2.5,2.5 C 12,9.8807118 10.880712,11 9.5,11 8.1192881,11 7,9.8807118 7,8.4999994 c 0,-1.3807119 1.1192881,-2.5 2.5,-2.5 z"
       id="rect3669"
       sodipodi:nodetypes="ccccccccccccccccccsssc" />
    <path
       inkscape:connector-curvature="0"
       style="opacity:0.2;fill:#000000;fill-opacity:1;stroke:none;display:inline"
       d="m 4,3.9999994 0,1 c -0.554,0 -1,0.446 -1,1 L 3,11 c 0,0.554 0.446,1 1,1 l 8,0 c 0.554,0 1,-0.446 1,-1 l 0,-5.0000006 c 0,-0.554 -0.446,-1 -1,-1 l -6,0 0,-1 -2,0 z m 0.5,0.5 1,0 0,0.5 a 0.49707472,0.49707472 0 0 0 0.34375,0.5 l -1.6875,0 a 0.49707472,0.49707472 0 0 0 0.34375,-0.5 l 0,-0.5 z m 1.65625,1 3.34375,0 2.5,0 c 0.287245,0 0.5,0.2127547 0.5,0.5 l 0,2.5 L 12.5,11 c 0,0.287245 -0.212755,0.5 -0.5,0.5 l -2.5,0 -5.5,0 C 3.7127547,11.5 3.5,11.287245 3.5,11 l 0,-3.8437506 a 0.49707472,0.49707472 0 0 0 0.5,0.34375 l 2,0 a 0.49707472,0.49707472 0 0 0 0.5,-0.5 l 0,-1 a 0.49707472,0.49707472 0 0 0 -0.34375,-0.5 z M 9.5,11.5 c 1.649324,0 3,-1.350676 3,-3.0000006 0,-1.6493241 -1.350676,-3 -3,-3 -1.6493241,0 -3,1.3506759 -3,3 C 6.5,10.149324 7.8506759,11.5 9.5,11.5 z M 4,5.9999994 l 2,0 0,1 -2,0 0,-1 z m 5.5,0 c 1.380712,0 2.5,1.1192881 2.5,2.5 C 12,9.8807118 10.880712,11 9.5,11 8.1192881,11 7,9.8807118 7,8.4999994 c 0,-1.3807119 1.1192881,-2.5 2.5,-2.5 z"
       id="path3716" />
    <path
       inkscape:connector-curvature="0"
       style="opacity:0.2;fill:#000000;fill-opacity:1;stroke:none;display:inline"
       d="m 4,3.9999994 0,1 2,0 0,-1 -2,0 z m 2,1 0,1 3.5,0 2.5,0 c 0.554,0 1,0.446 1,1 l 0,-1 c 0,-0.554 -0.446,-1 -1,-1 l -6,0 z m -2,0 c -0.554,0 -1,0.446 -1,1 l 0,1 c 0,-0.554 0.446,-1 1,-1 l 0,-1 z m 0,2 0,1 2,0 0,-1 -2,0 z m 3.0625,2 C 7.029198,9.1627438 7,9.3274108 7,9.4999998 7,10.880712 8.1192881,12 9.5,12 10.880712,12 12,10.880712 12,9.4999998 12,9.3274108 11.970802,9.1627438 11.9375,8.9999994 11.704384,10.139208 10.708123,11 9.5,11 8.2918771,11 7.2956157,10.139208 7.0625,8.9999994 z"
       id="path3711" />
    <path
       sodipodi:type="arc"
       style="fill:#8b6429;fill-opacity:1;stroke:none;display:inline"
       id="path3727"
       sodipodi:cx="9.5"
       sodipodi:cy="9.5"
       sodipodi:rx="0.5"
       sodipodi:ry="0.5"
       d="m 10,9.5 a 0.5,0.5 0 1 1 -1,0 0.5,0.5 0 1 1 1,0 z"
       transform="matrix(1.8697938,0,0,1.8697938,-8.263041,-9.263041)" />
    <path
       style="opacity:0.15;fill:#ffffff;fill-opacity:1;stroke:none;display:inline"
       d="m 4,5.9999998 0,1 2,0 0,-1 -2,0 z m 5.5,0 c -1.3807119,0 -2.5,1.1192877 -2.5,2.5 0,0.172589 0.029198,0.337256 0.0625,0.5 0.2331157,-1.1392081 1.2293771,-2 2.4375,-2 1.208123,0 2.204384,0.8607919 2.4375,2 0.0333,-0.162744 0.0625,-0.327411 0.0625,-0.5 0,-1.3807123 -1.119288,-2.5 -2.5,-2.5 z M 3,11 3,12 c 0,0.554 0.446,1 1,1 l 8,0 c 0.554,0 1,-0.446 1,-1 l 0,-1 c 0,0.554 -0.446,1 -1,1 L 9.5,12 4,12 C 3.446,12 3,11.554 3,11 z"
       id="path3986"
       inkscape:connector-curvature="0" />
  </g>
</svg>
