/* XPM */
static char * C:\Users\Travis\Desktop\settings_xpm[] = {
"92 93 17 1",
" 	c None",
".	c #141717",
"+	c #EFEFEF",
"@	c #818383",
"#	c #C0C1C1",
"$	c #434545",
"%	c #333636",
"&	c #E0E0E0",
"*	c #A1A2A2",
"=	c #626464",
"-	c #D0D0D0",
";	c #232626",
">	c #727474",
",	c #B0B1B1",
"'	c #535555",
")	c #919292",
"!	c #FFFFFF",
"                                                                                            ",
"                                       !!!!!!!!!!!!!!                                       ",
"                                  +!!!!!!!!!!!!!!!!!!!!!!!                                  ",
"                                  !!!!!!!!!!!!!!!!!!!!!!!!                                  ",
"                                  !!!!!!!!!!!!!!!!!!!!!!!!                                  ",
"                                  !!!!!!!!!!!!!!!!!!!!!!!!                                  ",
"                                  !!!!!!!!!!!!!!!!!!!!!!!!!                                 ",
"                                  !!!!!!!!!!!!!!!!!!!!!!!!!                                 ",
"                                 !!!!!!!!!!!!!!!!!!!!!!!!!!                                 ",
"                                 !!!!!!!!!!!!!!!!!!!!!!!!!!                                 ",
"                                 !!!!!!!!!!!!!!!!!!!!!!!!!!                                 ",
"                                 !!!!!!!!!!!!!!!!!!!!!!!!!!                                 ",
"                                +!!!!!!!!!!!!!!!!!!!!!!!!!!!                                ",
"                              !!!!!!!!!!!!!!!!!!!!!!!!!!!!!!!!                              ",
"                            !!!!!!!!!!!!!!!!!!!!!!!!!!!!!!!!!!!!                            ",
"             !!!!         +!!!!!!!!!!!!!!!!!!!!!!!!!!!!!!!!!!!!!!!         !!!!!            ",
"            !!!!!!!+     !!!!!!!!!!!!!!!!!!!!!!!!!!!!!!!!!!!!!!!!!!      !!!!!!!+           ",
"           !!!!!!!!!!!  !!!!!!!!!!!!!!!!!!!!!!!!!!!!!!!!!!!!!!!!!!!!+ !!!!!!!!!!!           ",
"          !!!!!!!!!!!!!!!!!!!!!!!!!!!!!!!!!!!!!!!!!!!!!!!!!!!!!!!!!!!!!!!!!!!!!!!!          ",
"         !!!!!!!!!!!!!!!!!!!!!!!!!!!!!!!!!!!!!!!!!!!!!!!!!!!!!!!!!!!!!!!!!!!!!!!!!!         ",
"         !!!!!!!!!!!!!!!!!!!!!!!!!!!!!!!!!!!!!!!!!!!!!!!!!!!!!!!!!!!!!!!!!!!!!!!!!!!        ",
"        !!!!!!!!!!!!!!!!!!!!!!!!!!!!!!!!!!!!!!!!!!!!!!!!!!!!!!!!!!!!!!!!!!!!!!!!!!!!        ",
"       !!!!!!!!!!!!!!!!!!!!!!!!!!!!!!!!!!!!!!!!!!!!!!!!!!!!!!!!!!!!!!!!!!!!!!!!!!!!!!       ",
"       !!!!!!!!!!!!!!!!!!!!!!!!!!!!!!!!!!!!!!!!!!!!!!!!!!!!!!!!!!!!!!!!!!!!!!!!!!!!!!+      ",
"      !!!!!!!!!!!!!!!!!!!!!!!!!!!!!!!!!!!!!!!!!!!!!!!!!!!!!!!!!!!!!!!!!!!!!!!!!!!!!!!!      ",
"      !!!!!!!!!!!!!!!!!!!!!!!!!!!!!!!!!!!!!!!!!!!!!!!!!!!!!!!!!!!!!!!!!!!!!!!!!!!!!!!!!     ",
"     !!!!!!!!!!!!!!!!!!!!!!!!!!!!!!!!!!!!!!!!!!!!!!!!!!!!!!!!!!!!!!!!!!!!!!!!!!!!!!!!!!     ",
"     !!!!!!!!!!!!!!!!!!!!!!!!!!!!!!!!!!!!!!!!!!!!!!!!!!!!!!!!!!!!!!!!!!!!!!!!!!!!!!!!!!!    ",
"    !!!!!!!!!!!!!!!!!!!!!!!!!!!!!!!!!!!!!!!!!  !!!!!!!!!!!!!!!!!!!!!!!!!!!!!!!!!!!!!!!!!    ",
"    !!!!!!!!!!!!!!!!!!!!!!!!!!!!!!!!!!!!            !!!!!!!!!!!!!!!!!!!!!!!!!!!!!!!!!!!!+   ",
"   !!!!!!!!!!!!!!!!!!!!!!!!!!!!!!!!!!!                !!!!!!!!!!!!!!!!!!!!!!!!!!!!!!!!!!!   ",
"   !!!!!!!!!!!!!!!!!!!!!!!!!!!!!!!!!                    !!!!!!!!!!!!!!!!!!!!!!!!!!!!!!!!!   ",
"   !!!!!!!!!!!!!!!!!!!!!!!!!!!!!!!!                      +!!!!!!!!!!!!!!!!!!!!!!!!!!!!!!!!  ",
"  !!!!!!!!!!!!!!!!!!!!!!!!!!!!!!!!                        +!!!!!!!!!!!!!!!!!!!!!!!!!!!!!!!  ",
"  !!!!!!!!!!!!!!!!!!!!!!!!!!!!!!!                          +!!!!!!!!!!!!!!!!!!!!!!!!!!!!!!  ",
"   !!!!!!!!!!!!!!!!!!!!!!!!!!!!!                            !!!!!!!!!!!!!!!!!!!!!!!!!!!!!+  ",
"    !!!!!!!!!!!!!!!!!!!!!!!!!!!                              !!!!!!!!!!!!!!!!!!!!!!!!!!!    ",
"     !!!!!!!!!!!!!!!!!!!!!!!!!+                               !!!!!!!!!!!!!!!!!!!!!!!!!     ",
"      +!!!!!!!!!!!!!!!!!!!!!!!                                !!!!!!!!!!!!!!!!!!!!!!!!      ",
"        !!!!!!!!!!!!!!!!!!!!!+                                 !!!!!!!!!!!!!!!!!!!!!+       ",
"         !!!!!!!!!!!!!!!!!!!!                                  !!!!!!!!!!!!!!!!!!!!         ",
"          !!!!!!!!!!!!!!!!!!!                                  +!!!!!!!!!!!!!!!!!!          ",
"          !!!!!!!!!!!!!!!!!!+                                   !!!!!!!!!!!!!!!!!!!         ",
"          !!!!!!!!!!!!!!!!!!                                    !!!!!!!!!!!!!!!!!!!         ",
"          !!!!!!!!!!!!!!!!!!                                    !!!!!!!!!!!!!!!!!!!         ",
"         !!!!!!!!!!!!!!!!!!!                                    !!!!!!!!!!!!!!!!!!!         ",
"         !!!!!!!!!!!!!!!!!!!                                    !!!!!!!!!!!!!!!!!!!         ",
"         !!!!!!!!!!!!!!!!!!!                                    !!!!!!!!!!!!!!!!!!!         ",
"          !!!!!!!!!!!!!!!!!!                                    !!!!!!!!!!!!!!!!!!!         ",
"          !!!!!!!!!!!!!!!!!!                                    !!!!!!!!!!!!!!!!!!!         ",
"          !!!!!!!!!!!!!!!!!!                                    !!!!!!!!!!!!!!!!!!!         ",
"          !!!!!!!!!!!!!!!!!!!                                   !!!!!!!!!!!!!!!!!!          ",
"         !!!!!!!!!!!!!!!!!!!!                                  !!!!!!!!!!!!!!!!!!!!         ",
"        !!!!!!!!!!!!!!!!!!!!!                                  !!!!!!!!!!!!!!!!!!!!!        ",
"       !!!!!!!!!!!!!!!!!!!!!!!                                !!!!!!!!!!!!!!!!!!!!!!!+      ",
"     +!!!!!!!!!!!!!!!!!!!!!!!!                                !!!!!!!!!!!!!!!!!!!!!!!!!     ",
"    +!!!!!!!!!!!!!!!!!!!!!!!!!!                              !!!!!!!!!!!!!!!!!!!!!!!!!!!    ",
"   !!!!!!!!!!!!!!!!!!!!!!!!!!!!!                            +!!!!!!!!!!!!!!!!!!!!!!!!!!!!   ",
"  !!!!!!!!!!!!!!!!!!!!!!!!!!!!!!+                           !!!!!!!!!!!!!!!!!!!!!!!!!!!!!!  ",
"  !!!!!!!!!!!!!!!!!!!!!!!!!!!!!!!+                         !!!!!!!!!!!!!!!!!!!!!!!!!!!!!!!  ",
"   !!!!!!!!!!!!!!!!!!!!!!!!!!!!!!!+                       !!!!!!!!!!!!!!!!!!!!!!!!!!!!!!!!  ",
"   !!!!!!!!!!!!!!!!!!!!!!!!!!!!!!!!!                    +!!!!!!!!!!!!!!!!!!!!!!!!!!!!!!!!   ",
"   !!!!!!!!!!!!!!!!!!!!!!!!!!!!!!!!!!+                 !!!!!!!!!!!!!!!!!!!!!!!!!!!!!!!!!!   ",
"    !!!!!!!!!!!!!!!!!!!!!!!!!!!!!!!!!!!+             !!!!!!!!!!!!!!!!!!!!!!!!!!!!!!!!!!!!   ",
"    !!!!!!!!!!!!!!!!!!!!!!!!!!!!!!!!!!!!!!!      !!!!!!!!!!!!!!!!!!!!!!!!!!!!!!!!!!!!!!!    ",
"    +!!!!!!!!!!!!!!!!!!!!!!!!!!!!!!!!!!!!!!!!!!!!!!!!!!!!!!!!!!!!!!!!!!!!!!!!!!!!!!!!!!!    ",
"     !!!!!!!!!!!!!!!!!!!!!!!!!!!!!!!!!!!!!!!!!!!!!!!!!!!!!!!!!!!!!!!!!!!!!!!!!!!!!!!!!!     ",
"     +!!!!!!!!!!!!!!!!!!!!!!!!!!!!!!!!!!!!!!!!!!!!!!!!!!!!!!!!!!!!!!!!!!!!!!!!!!!!!!!!!     ",
"      !!!!!!!!!!!!!!!!!!!!!!!!!!!!!!!!!!!!!!!!!!!!!!!!!!!!!!!!!!!!!!!!!!!!!!!!!!!!!!!!      ",
"      +!!!!!!!!!!!!!!!!!!!!!!!!!!!!!!!!!!!!!!!!!!!!!!!!!!!!!!!!!!!!!!!!!!!!!!!!!!!!!!!      ",
"       !!!!!!!!!!!!!!!!!!!!!!!!!!!!!!!!!!!!!!!!!!!!!!!!!!!!!!!!!!!!!!!!!!!!!!!!!!!!!!       ",
"        !!!!!!!!!!!!!!!!!!!!!!!!!!!!!!!!!!!!!!!!!!!!!!!!!!!!!!!!!!!!!!!!!!!!!!!!!!!!+       ",
"        +!!!!!!!!!!!!!!!!!!!!!!!!!!!!!!!!!!!!!!!!!!!!!!!!!!!!!!!!!!!!!!!!!!!!!!!!!!!        ",
"         !!!!!!!!!!!!!!!!!!!!!!!!!!!!!!!!!!!!!!!!!!!!!!!!!!!!!!!!!!!!!!!!!!!!!!!!!!         ",
"          !!!!!!!!!!!!!!!!!!!!!!!!!!!!!!!!!!!!!!!!!!!!!!!!!!!!!!!!!!!!!!!!!!!!!!!!          ",
"           !!!!!!!!!!!!!!!!!!!!!!!!!!!!!!!!!!!!!!!!!!!!!!!!!!!!!!!!!!+!!!!!!!!!!!+          ",
"           +!!!!!!!!     !!!!!!!!!!!!!!!!!!!!!!!!!!!!!!!!!!!!!!!!!!+    !!!!!!!!!           ",
"            +!!!!+        !!!!!!!!!!!!!!!!!!!!!!!!!!!!!!!!!!!!!!!!         !!!!!            ",
"             !!             !!!!!!!!!!!!!!!!!!!!!!!!!!!!!!!!!!!!+            !!             ",
"                              !!!!!!!!!!!!!!!!!!!!!!!!!!!!!!!!+                             ",
"                                !!!!!!!!!!!!!!!!!!!!!!!!!!!!                                ",
"                                 !!!!!!!!!!!!!!!!!!!!!!!!!!                                 ",
"                                 !!!!!!!!!!!!!!!!!!!!!!!!!!                                 ",
"                                 !!!!!!!!!!!!!!!!!!!!!!!!!!                                 ",
"                                 !!!!!!!!!!!!!!!!!!!!!!!!!!                                 ",
"                                  !!!!!!!!!!!!!!!!!!!!!!!!!                                 ",
"                                  !!!!!!!!!!!!!!!!!!!!!!!!!                                 ",
"                                  !!!!!!!!!!!!!!!!!!!!!!!!                                  ",
"                                  !!!!!!!!!!!!!!!!!!!!!!!!                                  ",
"                                  !!!!!!!!!!!!!!!!!!!!!!!!                                  ",
"                                  !!!!!!!!!!!!!!!!!!!!!!!!                                  ",
"                                      !!!!!!!!!!!!!!!!+                                     ",
"                                                                                            "};
