<?xml version="1.0" encoding="UTF-8" standalone="no"?>
<!-- Created with Inkscape (http://www.inkscape.org/) -->

<svg
   xmlns:dc="http://purl.org/dc/elements/1.1/"
   xmlns:cc="http://creativecommons.org/ns#"
   xmlns:rdf="http://www.w3.org/1999/02/22-rdf-syntax-ns#"
   xmlns:svg="http://www.w3.org/2000/svg"
   xmlns="http://www.w3.org/2000/svg"
   xmlns:xlink="http://www.w3.org/1999/xlink"
   xmlns:sodipodi="http://sodipodi.sourceforge.net/DTD/sodipodi-0.dtd"
   xmlns:inkscape="http://www.inkscape.org/namespaces/inkscape"
   width="16"
   height="16"
   id="svg2"
   sodipodi:version="0.32"
   inkscape:version="0.47 r22583"
   version="1.0"
   sodipodi:docname="application-vnd.scribus.svg"
   inkscape:output_extension="org.inkscape.output.svg.inkscape"
   style="display:inline">
  <defs
     id="defs4">
    <inkscape:perspective
       sodipodi:type="inkscape:persp3d"
       inkscape:vp_x="0 : 8 : 1"
       inkscape:vp_y="0 : 1000 : 0"
       inkscape:vp_z="16 : 8 : 1"
       inkscape:persp3d-origin="8 : 5.3333333 : 1"
       id="perspective26" />
    <linearGradient
       inkscape:collect="always"
       id="linearGradient3327">
      <stop
         style="stop-color:#000000;stop-opacity:1;"
         offset="0"
         id="stop3330" />
      <stop
         style="stop-color:#000000;stop-opacity:0;"
         offset="1"
         id="stop3333" />
    </linearGradient>
    <linearGradient
       id="ButtonColor"
       x1="10.31979"
       y1="21"
       x2="10.31979"
       y2="0.99929649"
       gradientUnits="userSpaceOnUse">
      <stop
         style="stop-color:#e6e6e6;stop-opacity:1;"
         offset="0"
         id="stop3189" />
      <stop
         style="stop-color:#f5f5f5;stop-opacity:1;"
         offset="1"
         id="stop3191" />
    </linearGradient>
    <linearGradient
       inkscape:collect="always"
       xlink:href="#linearGradient3327"
       id="linearGradient3192"
       x1="9.0574636"
       y1="10.202822"
       x2="9.0574636"
       y2="-12.198761"
       gradientUnits="userSpaceOnUse"
       gradientTransform="translate(0,5.8006549)" />
    <linearGradient
       inkscape:collect="always"
       xlink:href="#ButtonColor"
       id="linearGradient3204"
       x1="1"
       y1="9"
       x2="15"
       y2="9"
       gradientUnits="userSpaceOnUse"
       gradientTransform="translate(-16,-1)" />
    <linearGradient
       inkscape:collect="always"
       xlink:href="#ButtonColor"
       id="linearGradient3173"
       gradientUnits="userSpaceOnUse"
       gradientTransform="translate(-16,-1)"
       x1="1"
       y1="9"
       x2="15"
       y2="9" />
    <linearGradient
       inkscape:collect="always"
       xlink:href="#ButtonColor"
       id="linearGradient3177"
       gradientUnits="userSpaceOnUse"
       gradientTransform="translate(-16,-1)"
       x1="1"
       y1="9"
       x2="15"
       y2="9" />
    <linearGradient
       inkscape:collect="always"
       xlink:href="#ButtonColor"
       id="linearGradient3179"
       gradientUnits="userSpaceOnUse"
       gradientTransform="matrix(0,-1,1,0,-1,16)"
       x1="1"
       y1="9"
       x2="15"
       y2="9" />
    <linearGradient
       inkscape:collect="always"
       xlink:href="#linearGradient3327"
       id="linearGradient3612"
       x1="8"
       y1="15"
       x2="8"
       y2="-1"
       gradientUnits="userSpaceOnUse" />
    <inkscape:perspective
       id="perspective3752"
       inkscape:persp3d-origin="0.5 : 0.33333333 : 1"
       inkscape:vp_z="1 : 0.5 : 1"
       inkscape:vp_y="0 : 1000 : 0"
       inkscape:vp_x="0 : 0.5 : 1"
       sodipodi:type="inkscape:persp3d" />
    <linearGradient
       inkscape:collect="always"
       xlink:href="#ButtonColor-5"
       id="linearGradient3204-0"
       x1="1"
       y1="9"
       x2="16.955648"
       y2="9"
       gradientUnits="userSpaceOnUse"
       gradientTransform="translate(-17,-2)" />
    <linearGradient
       id="ButtonColor-5"
       x1="10.31979"
       y1="21"
       x2="10.31979"
       y2="0.99929649"
       gradientUnits="userSpaceOnUse">
      <stop
         style="stop-color:#e6e6e6;stop-opacity:1;"
         offset="0"
         id="stop3189-0" />
      <stop
         style="stop-color:#f5f5f5;stop-opacity:1;"
         offset="1"
         id="stop3191-2" />
    </linearGradient>
    <linearGradient
       y2="-19.30397"
       x2="9.0574636"
       y1="10.202822"
       x1="9.0574636"
       gradientTransform="translate(-0.499722,5.300655)"
       gradientUnits="userSpaceOnUse"
       id="linearGradient2897"
       xlink:href="#linearGradient3327-7"
       inkscape:collect="always" />
    <linearGradient
       inkscape:collect="always"
       id="linearGradient3327-7">
      <stop
         style="stop-color:#000000;stop-opacity:1;"
         offset="0"
         id="stop3330-6" />
      <stop
         style="stop-color:#000000;stop-opacity:0;"
         offset="1"
         id="stop3333-8" />
    </linearGradient>
    <linearGradient
       y2="9"
       x2="16.955648"
       y1="9"
       x1="1"
       gradientTransform="translate(-17,-2)"
       gradientUnits="userSpaceOnUse"
       id="linearGradient3767"
       xlink:href="#ButtonColor-5"
       inkscape:collect="always" />
    <inkscape:perspective
       id="perspective3762"
       inkscape:persp3d-origin="0.5 : 0.33333333 : 1"
       inkscape:vp_z="1 : 0.5 : 1"
       inkscape:vp_y="0 : 1000 : 0"
       inkscape:vp_x="0 : 0.5 : 1"
       sodipodi:type="inkscape:persp3d" />
    <linearGradient
       y2="8.0573196"
       x2="24.265219"
       y1="17.427109"
       x1="11.454938"
       gradientUnits="userSpaceOnUse"
       id="linearGradient2958"
       xlink:href="#linearGradient3696"
       inkscape:collect="always" />
    <linearGradient
       inkscape:collect="always"
       id="linearGradient3696">
      <stop
         style="stop-color:#000000;stop-opacity:1;"
         offset="0"
         id="stop3698" />
      <stop
         style="stop-color:#000000;stop-opacity:0;"
         offset="1"
         id="stop3700" />
    </linearGradient>
    <linearGradient
       inkscape:collect="always"
       xlink:href="#linearGradient3715"
       id="linearGradient8202"
       x1="39.479939"
       y1="64.13044"
       x2="39.479939"
       y2="-10.558222"
       gradientUnits="userSpaceOnUse"
       gradientTransform="matrix(0.17429609,0,0,0.17434288,0.61226942,-0.16860295)" />
    <linearGradient
       id="linearGradient3715">
      <stop
         style="stop-color:#3767a3;stop-opacity:1;"
         offset="0"
         id="stop3717" />
      <stop
         style="stop-color:#6593c6;stop-opacity:0;"
         offset="1"
         id="stop3719" />
    </linearGradient>
    <linearGradient
       gradientTransform="matrix(0.17015713,0,0,0.17020282,0.65796344,-0.13491027)"
       inkscape:collect="always"
       xlink:href="#linearGradient10394"
       id="linearGradient10400"
       x1="60.899021"
       y1="35.60585"
       x2="68.2229"
       y2="39.53442"
       gradientUnits="userSpaceOnUse" />
    <linearGradient
       id="linearGradient10394">
      <stop
         style="stop-color:#1a1a1a;stop-opacity:1;"
         offset="0"
         id="stop10396" />
      <stop
         id="stop10404"
         offset="0.35185185"
         style="stop-color:#636363;stop-opacity:1;" />
      <stop
         id="stop10402"
         offset="0.5"
         style="stop-color:#c7c7c7;stop-opacity:1;" />
      <stop
         style="stop-color:#636363;stop-opacity:1;"
         offset="0.64999998"
         id="stop10406" />
      <stop
         style="stop-color:#000000;stop-opacity:1;"
         offset="1"
         id="stop10398" />
    </linearGradient>
    <linearGradient
       inkscape:collect="always"
       xlink:href="#linearGradient6531"
       id="linearGradient8183"
       gradientUnits="userSpaceOnUse"
       gradientTransform="matrix(0.12344763,-0.03307264,0.03314889,0.12369448,5.1252811,2.9743124)"
       x1="24.248737"
       y1="77.502068"
       x2="13.405647"
       y2="67.6745" />
    <linearGradient
       id="linearGradient6531">
      <stop
         id="stop6533"
         offset="0.0000000"
         style="stop-color: rgb(195, 129, 37); stop-opacity: 1;" />
      <stop
         style="stop-color:#c68d31;stop-opacity:1;"
         offset="0.62962961"
         id="stop10377" />
      <stop
         id="stop6535"
         offset="1"
         style="stop-color:#fffce6;stop-opacity:1;" />
    </linearGradient>
    <linearGradient
       gradientTransform="matrix(0.17015713,0,0,0.17020281,0.65796381,-0.1349102)"
       inkscape:collect="always"
       xlink:href="#linearGradient10386"
       id="linearGradient10392"
       x1="58.651787"
       y1="68.171875"
       x2="47.450871"
       y2="57.993305"
       gradientUnits="userSpaceOnUse" />
    <linearGradient
       inkscape:collect="always"
       id="linearGradient10386">
      <stop
         style="stop-color:#ffffff;stop-opacity:1;"
         offset="0"
         id="stop10388" />
      <stop
         style="stop-color:#ffffff;stop-opacity:0;"
         offset="1"
         id="stop10390" />
    </linearGradient>
    <radialGradient
       inkscape:collect="always"
       xlink:href="#linearGradient10410"
       id="radialGradient10416"
       cx="59.85154"
       cy="41.7043"
       fx="59.85154"
       fy="41.7043"
       r="18.182745"
       gradientTransform="matrix(1,0,0,0.125,0,36.491262)"
       gradientUnits="userSpaceOnUse" />
    <linearGradient
       inkscape:collect="always"
       id="linearGradient10410">
      <stop
         style="stop-color:#ffffff;stop-opacity:1;"
         offset="0"
         id="stop10412" />
      <stop
         style="stop-color:#ffffff;stop-opacity:0;"
         offset="1"
         id="stop10414" />
    </linearGradient>
    <linearGradient
       inkscape:collect="always"
       xlink:href="#linearGradient3696"
       id="linearGradient3706"
       gradientUnits="userSpaceOnUse"
       x1="11.454938"
       y1="17.427109"
       x2="24.265219"
       y2="8.0573196"
       gradientTransform="matrix(0.68165674,0.32925253,-0.32925253,0.68165674,7.0318636,-2.3569959)" />
    <linearGradient
       gradientTransform="matrix(0.75700935,0,0,0.75700935,0.0148605,-0.36799065)"
       y2="8.0573196"
       x2="24.265219"
       y1="17.427109"
       x1="11.454938"
       gradientUnits="userSpaceOnUse"
       id="linearGradient3812"
       xlink:href="#linearGradient3696"
       inkscape:collect="always" />
  </defs>
  <sodipodi:namedview
     id="base"
     pagecolor="#ffffff"
     bordercolor="#e7e7e7"
     borderopacity="1"
     inkscape:pageopacity="0.0"
     inkscape:pageshadow="2"
     inkscape:zoom="19.887964"
     inkscape:cx="-5.5193311"
     inkscape:cy="8.3174406"
     inkscape:document-units="px"
     inkscape:current-layer="layer1"
     showgrid="true"
     inkscape:showpageshadow="false"
     showguides="false"
     inkscape:guide-bbox="true"
     inkscape:window-width="1920"
     inkscape:window-height="1023"
     inkscape:window-x="0"
     inkscape:window-y="24"
     inkscape:window-maximized="1">
    <sodipodi:guide
       orientation="1,0"
       position="0,112"
       id="guide2383" />
    <sodipodi:guide
       orientation="0,1"
       position="26.278146,128"
       id="guide2385" />
    <sodipodi:guide
       orientation="1,0"
       position="128,54.082119"
       id="guide2387" />
    <sodipodi:guide
       orientation="0,1"
       position="78.156291,0"
       id="guide2389" />
    <sodipodi:guide
       orientation="0,1"
       position="60.863576,64.084768"
       id="guide2391" />
    <inkscape:grid
       type="xygrid"
       id="grid3672"
       visible="true"
       enabled="true" />
  </sodipodi:namedview>
  <metadata
     id="metadata7">
    <rdf:RDF>
      <cc:Work
         rdf:about="">
        <dc:format>image/svg+xml</dc:format>
        <dc:type
           rdf:resource="http://purl.org/dc/dcmitype/StillImage" />
        <dc:title></dc:title>
      </cc:Work>
    </rdf:RDF>
  </metadata>
  <g
     inkscape:label="Button"
     inkscape:groupmode="layer"
     id="layer1">
    <rect
       ry="2"
       rx="2"
       y="0"
       x="-16"
       height="16"
       width="16"
       id="rect3196"
       style="fill:url(#linearGradient3767);fill-opacity:1;fill-rule:nonzero;stroke:none;display:inline"
       transform="matrix(0,-1,1,0,0,0)" />
    <path
       style="opacity:0.4;fill:url(#linearGradient2897);fill-opacity:1;fill-rule:nonzero;stroke:none;display:inline"
       d="M 2,0 C 0.892,0 0,0.892 0,2 l 0,12 c 0,1.108 0.892,2 2,2 l 12,0 c 1.108,0 2,-0.892 2,-2 L 16,2 C 16,0.892 15.108,0 14,0 L 2,0 z m 0.5,1 11,0 C 14.331,1 15,1.669 15,2.5 l 0,11 c 0,0.831 -0.669,1.5 -1.5,1.5 l -11,0 C 1.669,15 1,14.331 1,13.5 L 1,2.5 C 1,1.669 1.669,1 2.5,1 z"
       id="rect2410" />
    <path
       style="opacity:0.6;fill:#ffffff;fill-opacity:1;stroke:none;display:inline"
       d="M 2.5,1 C 1.669,1 1,1.669 1,2.5 l 0,1 C 1,2.669 1.669,2 2.5,2 l 11,0 C 14.331,2 15,2.669 15,3.5 l 0,-1 C 15,1.669 14.331,1 13.5,1 l -11,0 z"
       id="rect3770" />
    <path
       style="opacity:0.4;fill:url(#linearGradient3812);fill-opacity:1;stroke:none;display:inline"
       d="m 15.912057,2.7783294 c -1.166807,1.3579503 -2.455198,2.4866608 -3.477512,3.8323598 -0.509177,0.6702425 -0.882876,1.3422435 -1.135514,1.91618 -0.272215,0.051204 -0.464255,0.1692604 -0.567757,0.3311915 -0.119877,0.1875499 -0.167125,0.4285703 -0.09463,0.6623832 0.0098,0.03162 0.05812,0.063892 0.07097,0.094626 C 10.301029,10.091651 9.7152623,10.766101 9.3355381,11.271028 8.7657137,12.028736 7.892489,13.896904 7.892489,13.896904 l 0.07097,0.04731 0.07097,0.04731 c 0.00917,-0.0083 0.014292,0.0083 0.023656,0 0.9935021,-0.879367 3.0280372,-1.868866 3.0280372,-1.868866 l 0.07097,-0.04731 -0.02366,-0.07097 c 0,0 0.002,-0.02413 0,-0.118283 -0.002,-0.09415 -0.0091,-0.241536 0.04731,-0.449474 0.09533,-0.351328 0.358011,-0.761505 0.591414,-1.064545 0.07572,0.0084 0.158551,0.029 0.236565,0.02366 0.342969,-0.02344 0.58982,-0.190955 0.709697,-0.378505 0.08991,-0.1406619 0.113469,-0.302833 0.09463,-0.4731305 0.476938,-0.3974443 1.012916,-0.9092008 1.490362,-1.5376753 0.600157,-0.7900021 1.082718,-1.6688383 1.608645,-2.5549066 l 0,-2.6731892 z"
       id="path2893" />
    <path
       style="fill:url(#linearGradient8202);fill-opacity:1;stroke:none;display:inline"
       d="M 3.1765413,0 C 5.9703109,3.6861316 1.6259557,6.7375427 2.4138174,9.6786717 3.180817,12.541921 6.6445499,12.397647 7.8932498,13.955522 7.0313347,12.281244 5.852521,12.365865 5.3877442,10.795556 4.2059371,6.8026652 14.976971,4.2387009 10.987185,0 L 3.1765413,0 z"
       id="path8185"
       sodipodi:nodetypes="cscscc" />
    <path
       sodipodi:nodetypes="czzszsz"
       id="path10375"
       d="M 12.814147,6.9918572 C 11.967869,8.71659 10.773666,9.9431533 10.338897,9.7095139 9.8751518,9.4602951 10.099348,7.8707677 10.967693,6.1010625 11.835835,4.3317732 13.135446,2.7735039 14.077651,0.82285591 14.307252,0.34751737 14.563048,-0.10601179 15.041053,0.12643244 15.51102,0.35496711 15.426425,0.82177352 15.1378,1.3499892 14.064479,3.31427 13.660428,5.2671245 12.814148,6.9918572 z"
       style="fill:url(#linearGradient10400);fill-opacity:1;stroke:#000000;stroke-width:0.24999999;stroke-miterlimit:4;stroke-dasharray:none;display:inline" />
    <path
       transform="matrix(0.10771454,-0.02885762,0.0392147,0.07278344,1.7320528,4.8124614)"
       d="m 60.457628,78.05204 a 5.4800777,7.7781744 0 1 1 -10.960155,0 5.4800777,7.7781744 0 1 1 10.960155,0 z"
       sodipodi:ry="7.7781744"
       sodipodi:rx="5.4800777"
       sodipodi:cy="78.05204"
       sodipodi:cx="54.977551"
       id="path4343"
       style="fill:none;stroke:#2e3436;stroke-width:10.55766964;stroke-linecap:round;stroke-miterlimit:4;stroke-opacity:1;stroke-dasharray:none;display:inline"
       sodipodi:type="arc" />
    <path
       sodipodi:nodetypes="cscscscc"
       id="path4341"
       d="m 7.9651997,13.920561 c 0,0 0.5031202,-1.962815 0.8947108,-2.770813 0.3915914,-0.807998 1.3174285,-2.4153376 1.3174285,-2.4153376 0,0 0.267123,-0.399672 0.698326,-0.1870877 0.431201,0.2125843 0.306734,0.6209103 0.306734,0.6209103 0,0 -0.650276,0.979627 -0.704377,1.735499 -0.03118,0.435715 0.07093,0.613777 0.07093,0.613777 0,0 -1.7908663,1.346928 -2.583751,2.403052 z"
       style="fill:url(#linearGradient8183);fill-opacity:1;fill-rule:evenodd;stroke:#c17d11;stroke-width:0.24999999;stroke-linecap:butt;stroke-linejoin:miter;stroke-miterlimit:4;stroke-opacity:1;stroke-dasharray:none;display:inline" />
    <path
       transform="matrix(0.08476597,0.03631791,-0.03890599,0.07711909,14.439727,6.6069423)"
       d="m -27.930719,71.864853 a 1.2374369,3.0052037 0 1 1 -2.474874,0 1.2374369,3.0052037 0 1 1 2.474874,0 z"
       sodipodi:ry="3.0052037"
       sodipodi:rx="1.2374369"
       sodipodi:cy="71.864853"
       sodipodi:cx="-29.168156"
       id="path6537"
       style="fill:#000000;fill-opacity:0.6;stroke:#c17d11;stroke-width:3.75336051;stroke-linecap:round;stroke-miterlimit:4;stroke-opacity:1;stroke-dasharray:none;display:inline"
       sodipodi:type="arc" />
    <path
       sodipodi:nodetypes="cc"
       id="path8007"
       d="m 7.9753023,13.870983 c 0.3550173,-0.91538 0.6083985,-1.686351 1.0523214,-2.531804"
       style="fill:#c17d11;fill-opacity:1;fill-rule:evenodd;stroke:#c17d11;stroke-width:0.34297702;stroke-linecap:butt;stroke-linejoin:miter;stroke-miterlimit:4;stroke-opacity:1;stroke-dasharray:none;display:inline" />
    <path
       style="fill:url(#linearGradient10392);fill-opacity:1;fill-rule:evenodd;stroke:none;display:inline"
       d="m 10.814217,8.8273311 c -0.03724,0.030248 -0.06203,0.061709 -0.06382,0.06383 -1.1e-5,1.78e-5 -0.0054,-2.15e-5 -0.0054,0 -0.01284,0.022289 -0.9205496,1.6051585 -1.2974475,2.3828385 -0.128418,0.264975 -0.2811768,0.692659 -0.4200751,1.132913 0.5745559,-0.517304 1.0674846,-0.888026 1.2017356,-0.989304 -0.02564,-0.126096 -0.0434,-0.30236 -0.02659,-0.537203 0.03208,-0.448335 0.222224,-0.9004296 0.398808,-1.2552453 0.159834,-0.3211637 0.285681,-0.5101144 0.313726,-0.5531593 0.002,-0.0075 0.0093,-0.035939 0,-0.09042 -0.0086,-0.050505 -0.01801,-0.099831 -0.101029,-0.1542465 z"
       id="path10381" />
    <path
       sodipodi:type="arc"
       style="fill:url(#radialGradient10416);fill-opacity:1;stroke:none;display:inline"
       id="path10408"
       sodipodi:cx="59.85154"
       sodipodi:cy="41.7043"
       sodipodi:rx="18.182745"
       sodipodi:ry="2.2728431"
       d="m 78.034285,41.7043 a 18.182745,2.2728431 0 1 1 -36.36549,0 18.182745,2.2728431 0 1 1 36.36549,0 z"
       transform="matrix(0.07879966,-0.15085183,0.15081134,0.0788208,0.82470426,11.673242)" />
    <path
       style="opacity:0.6;fill:#ffffff;fill-opacity:1;stroke:none;display:inline"
       d="m 12,4.8594786 c -0.131217,0 -0.25914,0.0228 -0.382853,0.058506 -0.05882,0.098409 -0.113136,0.1988539 -0.170157,0.2978549 0.06985,-0.010577 0.14072,-0.015955 0.212696,-0.015955 0.606022,0 1.149767,0.4013387 1.504827,1.0265365 0.07478,-0.1749299 0.146946,-0.3536946 0.218013,-0.5318842 C 13.031028,5.1805982 12.541526,4.8594797 12,4.8594797 z"
       id="path10418" />
    <path
       style="opacity:0.2;fill:url(#linearGradient3706);fill-opacity:1;stroke:none;display:inline"
       d="m 15.912057,9 c -0.249243,0.1098602 -0.49132,0.207896 -0.733353,0.3311916 -0.750007,0.3820664 -1.368093,0.8232154 -1.84521,1.2301404 -0.26739,-0.07229 -0.498754,-0.05348 -0.662383,0.04731 -0.189518,0.116742 -0.342093,0.325685 -0.378505,0.567757 -0.0049,0.03273 0.02545,0.06136 0.02366,0.09463 -0.573399,0.252301 -1.378297,0.609439 -1.939836,0.898949 -0.8426605,0.434447 -2.4602805,1.750584 -2.4602805,1.750584 l 0.047313,0.07097 0.047313,0.07097 c 0.011855,-0.0035 0.01162,0.0034 0.023657,0 1.27708,-0.359723 3.5248247,-0.378505 3.5248247,-0.378505 l 0.09463,0.02366 0,-0.09463 c 0,0 0.0082,-0.03261 0.04731,-0.118283 0.03911,-0.08567 0.118985,-0.192143 0.260222,-0.354848 0.238649,-0.274893 0.651601,-0.538337 0.993575,-0.709696 0.06455,0.04046 0.140335,0.08916 0.212909,0.118282 0.319026,0.128059 0.591148,0.09308 0.780666,-0.02366 0.14214,-0.08756 0.250434,-0.240619 0.307535,-0.402161 0.506615,-0.126538 1.067213,-0.322403 1.655958,-0.591414 l 0,-2.53125 z"
       id="path3704" />
  </g>
  <g
     inkscape:groupmode="layer"
     id="layer2"
     inkscape:label="Symbol"
     sodipodi:insensitive="true" />
</svg>
