<?xml version="1.0" encoding="UTF-8" standalone="no"?>
<!-- Created with Inkscape (http://www.inkscape.org/) -->

<svg
   xmlns:dc="http://purl.org/dc/elements/1.1/"
   xmlns:cc="http://creativecommons.org/ns#"
   xmlns:rdf="http://www.w3.org/1999/02/22-rdf-syntax-ns#"
   xmlns:svg="http://www.w3.org/2000/svg"
   xmlns="http://www.w3.org/2000/svg"
   xmlns:xlink="http://www.w3.org/1999/xlink"
   xmlns:sodipodi="http://sodipodi.sourceforge.net/DTD/sodipodi-0.dtd"
   xmlns:inkscape="http://www.inkscape.org/namespaces/inkscape"
   width="16"
   height="16"
   id="svg2"
   sodipodi:version="0.32"
   inkscape:version="0.47 r22583"
   version="1.0"
   sodipodi:docname="application-x-theme.svg"
   inkscape:output_extension="org.inkscape.output.svg.inkscape"
   style="display:inline">
  <defs
     id="defs4">
    <inkscape:perspective
       sodipodi:type="inkscape:persp3d"
       inkscape:vp_x="0 : 8 : 1"
       inkscape:vp_y="0 : 1000 : 0"
       inkscape:vp_z="16 : 8 : 1"
       inkscape:persp3d-origin="8 : 5.3333333 : 1"
       id="perspective26" />
    <linearGradient
       inkscape:collect="always"
       id="linearGradient3327">
      <stop
         style="stop-color:#000000;stop-opacity:1;"
         offset="0"
         id="stop3330" />
      <stop
         style="stop-color:#000000;stop-opacity:0;"
         offset="1"
         id="stop3333" />
    </linearGradient>
    <linearGradient
       id="ButtonColor"
       x1="10.31979"
       y1="21"
       x2="10.31979"
       y2="0.99929649"
       gradientUnits="userSpaceOnUse">
      <stop
         style="stop-color:#e6e6e6;stop-opacity:1;"
         offset="0"
         id="stop3189" />
      <stop
         style="stop-color:#f5f5f5;stop-opacity:1;"
         offset="1"
         id="stop3191" />
    </linearGradient>
    <linearGradient
       inkscape:collect="always"
       xlink:href="#linearGradient3327"
       id="linearGradient3192"
       x1="9.0574636"
       y1="10.202822"
       x2="9.0574636"
       y2="-12.198761"
       gradientUnits="userSpaceOnUse"
       gradientTransform="translate(0,5.8006549)" />
    <linearGradient
       inkscape:collect="always"
       xlink:href="#ButtonColor"
       id="linearGradient3204"
       x1="1"
       y1="9"
       x2="15"
       y2="9"
       gradientUnits="userSpaceOnUse"
       gradientTransform="translate(-16,-1)" />
    <linearGradient
       inkscape:collect="always"
       xlink:href="#ButtonColor"
       id="linearGradient3173"
       gradientUnits="userSpaceOnUse"
       gradientTransform="translate(-16,-1)"
       x1="1"
       y1="9"
       x2="15"
       y2="9" />
    <linearGradient
       inkscape:collect="always"
       xlink:href="#ButtonColor"
       id="linearGradient3177"
       gradientUnits="userSpaceOnUse"
       gradientTransform="translate(-16,-1)"
       x1="1"
       y1="9"
       x2="15"
       y2="9" />
    <linearGradient
       inkscape:collect="always"
       xlink:href="#ButtonColor"
       id="linearGradient3179"
       gradientUnits="userSpaceOnUse"
       gradientTransform="matrix(0,-1,1,0,-1,16)"
       x1="1"
       y1="9"
       x2="15"
       y2="9" />
    <linearGradient
       inkscape:collect="always"
       xlink:href="#linearGradient3327"
       id="linearGradient3612"
       x1="8"
       y1="15"
       x2="8"
       y2="-1"
       gradientUnits="userSpaceOnUse" />
    <inkscape:perspective
       id="perspective3752"
       inkscape:persp3d-origin="0.5 : 0.33333333 : 1"
       inkscape:vp_z="1 : 0.5 : 1"
       inkscape:vp_y="0 : 1000 : 0"
       inkscape:vp_x="0 : 0.5 : 1"
       sodipodi:type="inkscape:persp3d" />
    <linearGradient
       inkscape:collect="always"
       xlink:href="#ButtonColor-5"
       id="linearGradient3204-0"
       x1="1"
       y1="9"
       x2="16.955648"
       y2="9"
       gradientUnits="userSpaceOnUse"
       gradientTransform="translate(-17,-2)" />
    <linearGradient
       id="ButtonColor-5"
       x1="10.31979"
       y1="21"
       x2="10.31979"
       y2="0.99929649"
       gradientUnits="userSpaceOnUse">
      <stop
         style="stop-color:#e6e6e6;stop-opacity:1;"
         offset="0"
         id="stop3189-0" />
      <stop
         style="stop-color:#f5f5f5;stop-opacity:1;"
         offset="1"
         id="stop3191-2" />
    </linearGradient>
    <linearGradient
       y2="-19.30397"
       x2="9.0574636"
       y1="10.202822"
       x1="9.0574636"
       gradientTransform="translate(-0.499722,5.300655)"
       gradientUnits="userSpaceOnUse"
       id="linearGradient2897"
       xlink:href="#linearGradient3327-7"
       inkscape:collect="always" />
    <linearGradient
       inkscape:collect="always"
       id="linearGradient3327-7">
      <stop
         style="stop-color:#000000;stop-opacity:1;"
         offset="0"
         id="stop3330-6" />
      <stop
         style="stop-color:#000000;stop-opacity:0;"
         offset="1"
         id="stop3333-8" />
    </linearGradient>
    <linearGradient
       y2="9"
       x2="16.955648"
       y1="9"
       x1="1"
       gradientTransform="translate(-17,-2)"
       gradientUnits="userSpaceOnUse"
       id="linearGradient3767"
       xlink:href="#ButtonColor-5"
       inkscape:collect="always" />
    <inkscape:perspective
       id="perspective3243"
       inkscape:persp3d-origin="0.5 : 0.33333333 : 1"
       inkscape:vp_z="1 : 0.5 : 1"
       inkscape:vp_y="0 : 1000 : 0"
       inkscape:vp_x="0 : 0.5 : 1"
       sodipodi:type="inkscape:persp3d" />
    <radialGradient
       inkscape:collect="always"
       xlink:href="#linearGradient4193-9"
       id="radialGradient3162"
       gradientUnits="userSpaceOnUse"
       cx="-62"
       cy="54"
       fx="-62"
       fy="54"
       r="2"
       gradientTransform="matrix(0.36363636,0,0,0.36363636,30.909091,-15.402457)" />
    <linearGradient
       inkscape:collect="always"
       id="linearGradient4193-9">
      <stop
         style="stop-color:#ffffff;stop-opacity:1;"
         offset="0"
         id="stop4195-8" />
      <stop
         style="stop-color:#ffffff;stop-opacity:0;"
         offset="1"
         id="stop4197-2" />
    </linearGradient>
    <radialGradient
       inkscape:collect="always"
       xlink:href="#linearGradient4193-9"
       id="radialGradient3165"
       gradientUnits="userSpaceOnUse"
       gradientTransform="matrix(0.36363636,0,0,0.36363636,30.909091,-15.402455)"
       cx="-70"
       cy="54"
       fx="-70"
       fy="54"
       r="4.0000005" />
    <radialGradient
       inkscape:collect="always"
       xlink:href="#linearGradient4193-9"
       id="radialGradient3171"
       gradientUnits="userSpaceOnUse"
       gradientTransform="matrix(0.36363636,0,0,0.36363636,30.909091,-15.402462)"
       cx="-60.660255"
       cy="49.000004"
       fx="-60.660255"
       fy="49.000004"
       r="2.0003338" />
    <radialGradient
       inkscape:collect="always"
       xlink:href="#linearGradient4193-9"
       id="radialGradient3174"
       gradientUnits="userSpaceOnUse"
       gradientTransform="matrix(0.36363636,0,0,0.36363636,30.909091,-15.402452)"
       cx="-67.588455"
       cy="45"
       fx="-67.588455"
       fy="45"
       r="4.000668" />
    <radialGradient
       inkscape:collect="always"
       xlink:href="#linearGradient4193-9"
       id="radialGradient3180"
       gradientUnits="userSpaceOnUse"
       gradientTransform="matrix(0.36363636,0,0,0.36363636,30.909091,-15.402455)"
       cx="-57"
       cy="45.339748"
       fx="-57"
       fy="45.339748"
       r="2.0003338" />
    <radialGradient
       inkscape:collect="always"
       xlink:href="#linearGradient4193-9"
       id="radialGradient3183"
       gradientUnits="userSpaceOnUse"
       gradientTransform="matrix(0.36363636,0,0,0.36363636,30.909091,-15.402452)"
       cx="-61"
       cy="38.411541"
       fx="-61"
       fy="38.411541"
       r="4.000668" />
    <radialGradient
       inkscape:collect="always"
       xlink:href="#linearGradient4193-9"
       id="radialGradient3189"
       gradientUnits="userSpaceOnUse"
       cx="-52"
       cy="44"
       fx="-52"
       fy="44"
       r="2"
       gradientTransform="matrix(0.36363636,0,0,0.36363636,30.909091,-15.402457)" />
    <radialGradient
       inkscape:collect="always"
       xlink:href="#linearGradient4193-9"
       id="radialGradient3192"
       gradientUnits="userSpaceOnUse"
       gradientTransform="matrix(0.36363636,0,0,0.36363636,30.909091,-15.402456)"
       cx="-52"
       cy="36"
       fx="-52"
       fy="36"
       r="4.0000005" />
    <radialGradient
       inkscape:collect="always"
       xlink:href="#linearGradient4193-9"
       id="radialGradient3198"
       gradientUnits="userSpaceOnUse"
       gradientTransform="matrix(0.36363636,0,0,0.36363636,30.909091,-15.402455)"
       cx="-47"
       cy="45.339748"
       fx="-47"
       fy="45.339748"
       r="2.0003338" />
    <radialGradient
       inkscape:collect="always"
       xlink:href="#linearGradient4193-9"
       id="radialGradient3201"
       gradientUnits="userSpaceOnUse"
       gradientTransform="matrix(0.36363636,0,0,0.36363636,30.909091,-15.402453)"
       cx="-43"
       cy="38.411541"
       fx="-43"
       fy="38.411541"
       r="4.000668" />
    <radialGradient
       inkscape:collect="always"
       xlink:href="#linearGradient4193-9"
       id="radialGradient3207"
       gradientUnits="userSpaceOnUse"
       gradientTransform="matrix(0.36363636,0,0,0.36363636,30.909091,-15.402464)"
       cx="-43.339745"
       cy="49.000004"
       fx="-43.339745"
       fy="49.000004"
       r="2.0003338" />
    <radialGradient
       inkscape:collect="always"
       xlink:href="#linearGradient4193-9"
       id="radialGradient3210"
       gradientUnits="userSpaceOnUse"
       gradientTransform="matrix(0.36363636,0,0,0.36363636,30.909091,-15.402453)"
       cx="-36.411545"
       cy="45"
       fx="-36.411545"
       fy="45"
       r="4.0006676" />
    <radialGradient
       inkscape:collect="always"
       xlink:href="#linearGradient4193-9"
       id="radialGradient3216"
       gradientUnits="userSpaceOnUse"
       cx="-42"
       cy="54"
       fx="-42"
       fy="54"
       r="2"
       gradientTransform="matrix(0.36363636,0,0,0.36363636,30.909091,-15.402457)" />
    <radialGradient
       inkscape:collect="always"
       xlink:href="#linearGradient4193-9"
       id="radialGradient3219"
       gradientUnits="userSpaceOnUse"
       cx="-34"
       cy="54"
       fx="-34"
       fy="54"
       r="4"
       gradientTransform="matrix(0.36363636,0,0,0.36363636,30.909091,-15.402457)" />
    <linearGradient
       inkscape:collect="always"
       xlink:href="#linearGradient4053-8"
       id="linearGradient4059-2"
       x1="78"
       y1="48"
       x2="78"
       y2="60"
       gradientUnits="userSpaceOnUse" />
    <linearGradient
       id="linearGradient4053-8">
      <stop
         style="stop-color:#ff0000;stop-opacity:1;"
         offset="0"
         id="stop4055-2" />
      <stop
         style="stop-color:#ff006b;stop-opacity:1;"
         offset="1"
         id="stop4057-8" />
    </linearGradient>
    <linearGradient
       inkscape:collect="always"
       xlink:href="#linearGradient4045-8"
       id="linearGradient4051-9"
       x1="71"
       y1="34"
       x2="77"
       y2="45"
       gradientUnits="userSpaceOnUse" />
    <linearGradient
       id="linearGradient4045-8">
      <stop
         style="stop-color:#ff8200;stop-opacity:1;"
         offset="0"
         id="stop4047-7" />
      <stop
         style="stop-color:#ff4700;stop-opacity:1;"
         offset="1"
         id="stop4049-9" />
    </linearGradient>
    <linearGradient
       inkscape:collect="always"
       xlink:href="#linearGradient4037-7"
       id="linearGradient4043-7"
       x1="58"
       y1="25"
       x2="68"
       y2="31"
       gradientUnits="userSpaceOnUse" />
    <linearGradient
       id="linearGradient4037-7">
      <stop
         style="stop-color:#ffd500;stop-opacity:1;"
         offset="0"
         id="stop4039-4" />
      <stop
         style="stop-color:#ff9a00;stop-opacity:1;"
         offset="1"
         id="stop4041-5" />
    </linearGradient>
    <linearGradient
       inkscape:collect="always"
       xlink:href="#linearGradient4029-7"
       id="linearGradient4035-4"
       x1="42"
       y1="32"
       x2="54"
       y2="32"
       gradientUnits="userSpaceOnUse" />
    <linearGradient
       id="linearGradient4029-7">
      <stop
         style="stop-color:#46cc00;stop-opacity:1;"
         offset="0"
         id="stop4031-8" />
      <stop
         style="stop-color:#85cc00;stop-opacity:1;"
         offset="1"
         id="stop4033-7" />
    </linearGradient>
    <linearGradient
       inkscape:collect="always"
       xlink:href="#linearGradient4021-8"
       id="linearGradient4027-3"
       x1="28"
       y1="31"
       x2="38.099506"
       y2="25.169048"
       gradientUnits="userSpaceOnUse" />
    <linearGradient
       id="linearGradient4021-8">
      <stop
         style="stop-color:#00b4b4;stop-opacity:1;"
         offset="0"
         id="stop4023-1" />
      <stop
         style="stop-color:#00b464;stop-opacity:1;"
         offset="1"
         id="stop4025-7" />
    </linearGradient>
    <linearGradient
       inkscape:collect="always"
       xlink:href="#linearGradient4013-8"
       id="linearGradient4019-7"
       x1="19"
       y1="44"
       x2="25"
       y2="34"
       gradientUnits="userSpaceOnUse" />
    <linearGradient
       id="linearGradient4013-8">
      <stop
         style="stop-color:#0033cc;stop-opacity:1;"
         offset="0"
         id="stop4015-9" />
      <stop
         style="stop-color:#0e7eff;stop-opacity:1;"
         offset="1"
         id="stop4017-7" />
    </linearGradient>
    <linearGradient
       y2="47.958405"
       x2="18"
       y1="60"
       x1="18"
       gradientUnits="userSpaceOnUse"
       id="linearGradient3805"
       xlink:href="#linearGradient4005-1"
       inkscape:collect="always" />
    <linearGradient
       id="linearGradient4005-1">
      <stop
         style="stop-color:#660099;stop-opacity:1;"
         offset="0"
         id="stop4007-6" />
      <stop
         style="stop-color:#330eac;stop-opacity:1;"
         offset="1"
         id="stop4009-0" />
    </linearGradient>
    <linearGradient
       y2="47.958405"
       x2="18"
       y1="60"
       x1="18"
       gradientUnits="userSpaceOnUse"
       id="linearGradient3392"
       xlink:href="#linearGradient4005-1"
       inkscape:collect="always" />
    <linearGradient
       inkscape:collect="always"
       xlink:href="#linearGradient4053-8"
       id="linearGradient3236"
       gradientUnits="userSpaceOnUse"
       x1="78"
       y1="48"
       x2="78"
       y2="60" />
    <linearGradient
       inkscape:collect="always"
       xlink:href="#linearGradient4045-8"
       id="linearGradient3238"
       gradientUnits="userSpaceOnUse"
       x1="71"
       y1="34"
       x2="77"
       y2="45" />
    <linearGradient
       inkscape:collect="always"
       xlink:href="#linearGradient4037-7"
       id="linearGradient3240"
       gradientUnits="userSpaceOnUse"
       x1="58"
       y1="25"
       x2="68"
       y2="31" />
    <linearGradient
       inkscape:collect="always"
       xlink:href="#linearGradient4029-7"
       id="linearGradient3242"
       gradientUnits="userSpaceOnUse"
       x1="42"
       y1="32"
       x2="54"
       y2="32" />
    <linearGradient
       inkscape:collect="always"
       xlink:href="#linearGradient4021-8"
       id="linearGradient3244"
       gradientUnits="userSpaceOnUse"
       x1="28"
       y1="31"
       x2="38.099506"
       y2="25.169048" />
    <linearGradient
       inkscape:collect="always"
       xlink:href="#linearGradient4013-8"
       id="linearGradient3246"
       gradientUnits="userSpaceOnUse"
       x1="19"
       y1="44"
       x2="25"
       y2="34" />
    <linearGradient
       inkscape:collect="always"
       xlink:href="#linearGradient4005-1"
       id="linearGradient3248"
       gradientUnits="userSpaceOnUse"
       x1="18"
       y1="60"
       x2="18"
       y2="47.958405" />
    <linearGradient
       inkscape:collect="always"
       xlink:href="#linearGradient4053-8"
       id="linearGradient3268"
       gradientUnits="userSpaceOnUse"
       x1="78"
       y1="48"
       x2="78"
       y2="60" />
    <linearGradient
       inkscape:collect="always"
       xlink:href="#linearGradient4045-8"
       id="linearGradient3270"
       gradientUnits="userSpaceOnUse"
       x1="71"
       y1="34"
       x2="77"
       y2="45" />
    <linearGradient
       inkscape:collect="always"
       xlink:href="#linearGradient4037-7"
       id="linearGradient3272"
       gradientUnits="userSpaceOnUse"
       x1="58"
       y1="25"
       x2="68"
       y2="31" />
    <linearGradient
       inkscape:collect="always"
       xlink:href="#linearGradient4029-7"
       id="linearGradient3274"
       gradientUnits="userSpaceOnUse"
       x1="42"
       y1="32"
       x2="54"
       y2="32" />
    <linearGradient
       inkscape:collect="always"
       xlink:href="#linearGradient4021-8"
       id="linearGradient3276"
       gradientUnits="userSpaceOnUse"
       x1="28"
       y1="31"
       x2="38.099506"
       y2="25.169048" />
    <linearGradient
       inkscape:collect="always"
       xlink:href="#linearGradient4013-8"
       id="linearGradient3278"
       gradientUnits="userSpaceOnUse"
       x1="19"
       y1="44"
       x2="25"
       y2="34" />
    <linearGradient
       inkscape:collect="always"
       xlink:href="#linearGradient4005-1"
       id="linearGradient3280"
       gradientUnits="userSpaceOnUse"
       x1="18"
       y1="60"
       x2="18"
       y2="47.958405" />
  </defs>
  <sodipodi:namedview
     id="base"
     pagecolor="#ffffff"
     bordercolor="#e7e7e7"
     borderopacity="1"
     inkscape:pageopacity="0.0"
     inkscape:pageshadow="2"
     inkscape:zoom="28.04203"
     inkscape:cx="3.2223421"
     inkscape:cy="12.118795"
     inkscape:document-units="px"
     inkscape:current-layer="layer1"
     showgrid="true"
     inkscape:showpageshadow="false"
     showguides="false"
     inkscape:guide-bbox="true"
     inkscape:window-width="1920"
     inkscape:window-height="1023"
     inkscape:window-x="0"
     inkscape:window-y="24"
     inkscape:window-maximized="1"
     inkscape:snap-global="false">
    <sodipodi:guide
       orientation="1,0"
       position="0,112"
       id="guide2383" />
    <sodipodi:guide
       orientation="0,1"
       position="26.278146,128"
       id="guide2385" />
    <sodipodi:guide
       orientation="1,0"
       position="128,54.082119"
       id="guide2387" />
    <sodipodi:guide
       orientation="0,1"
       position="78.156291,0"
       id="guide2389" />
    <sodipodi:guide
       orientation="0,1"
       position="60.863576,64.084768"
       id="guide2391" />
    <inkscape:grid
       type="xygrid"
       id="grid3672"
       visible="true"
       enabled="true" />
  </sodipodi:namedview>
  <metadata
     id="metadata7">
    <rdf:RDF>
      <cc:Work
         rdf:about="">
        <dc:format>image/svg+xml</dc:format>
        <dc:type
           rdf:resource="http://purl.org/dc/dcmitype/StillImage" />
        <dc:title></dc:title>
      </cc:Work>
    </rdf:RDF>
  </metadata>
  <g
     inkscape:label="Button"
     inkscape:groupmode="layer"
     id="layer1">
    <rect
       ry="2"
       rx="2"
       y="0"
       x="-16"
       height="16"
       width="16"
       id="rect3196"
       style="fill:url(#linearGradient3767);fill-opacity:1;fill-rule:nonzero;stroke:none;display:inline"
       transform="matrix(0,-1,1,0,0,0)" />
    <path
       style="opacity:0.4;fill:url(#linearGradient2897);fill-opacity:1;fill-rule:nonzero;stroke:none;display:inline"
       d="M 2,0 C 0.892,0 0,0.892 0,2 l 0,12 c 0,1.108 0.892,2 2,2 l 12,0 c 1.108,0 2,-0.892 2,-2 L 16,2 C 16,0.892 15.108,0 14,0 L 2,0 z m 0.5,1 11,0 C 14.331,1 15,1.669 15,2.5 l 0,11 c 0,0.831 -0.669,1.5 -1.5,1.5 l -11,0 C 1.669,15 1,14.331 1,13.5 L 1,2.5 C 1,1.669 1.669,1 2.5,1 z"
       id="rect2410" />
    <path
       style="opacity:0.6;fill:#ffffff;fill-opacity:1;stroke:none;display:inline"
       d="M 2.5,1 C 1.669,1 1,1.669 1,2.5 l 0,1 C 1,2.669 1.669,2 2.5,2 l 11,0 C 14.331,2 15,2.669 15,3.5 l 0,-1 C 15,1.669 14.331,1 13.5,1 l -11,0 z"
       id="rect3770" />
    <g
       id="g3226"
       transform="matrix(0.74964109,0,0,0.7410714,-0.98717216,6.784451)">
      <g
         style="display:inline"
         id="g4434"
         transform="matrix(0.36363636,0,0,0.36363636,-5.454545,-15.402457)">
        <path
           sodipodi:nodetypes="csssccsssc"
           inkscape:transform-center-x="-22"
           id="path3949"
           d="m 66,50 c -2.209139,0 -4,1.79086 -4,4 0,2.20914 1.790861,4 4,4 2.209139,0 4,-1.79086 4,-4 0,-2.20914 -1.790861,-4 -4,-4 z m -8,2 c -1.104569,0 -2,0.89543 -2,2 0,1.10457 0.895431,2 2,2 1.104569,0 2,-0.89543 2,-2 0,-1.10457 -0.895431,-2 -2,-2 z"
           style="color:#000000;fill:url(#linearGradient3236);fill-opacity:1;fill-rule:nonzero;stroke:none;stroke-width:1;marker:none;visibility:visible;display:inline;overflow:visible;enable-background:accumulate" />
        <path
           sodipodi:nodetypes="csssccsssc"
           inkscape:transform-center-y="-12.000334"
           style="color:#000000;fill:url(#linearGradient3238);fill-opacity:1;fill-rule:nonzero;stroke:none;stroke-width:1;marker:none;visibility:visible;display:inline;overflow:visible;enable-background:accumulate"
           d="m 61.588457,41.5359 c -1.91317,1.10457 -2.568671,3.55093 -1.464101,5.4641 1.104569,1.91317 3.550931,2.56867 5.464101,1.4641 1.913171,-1.10457 2.568671,-3.55093 1.464102,-5.4641 -1.10457,-1.91317 -3.550931,-2.56867 -5.464102,-1.4641 z m -5.928203,5.73205 C 54.703669,47.82023 54.375919,49.04341 54.928203,50 c 0.552285,0.95659 1.775466,1.28434 2.732051,0.73205 C 58.616839,50.17977 58.944589,48.95659 58.392305,48 57.84002,47.04341 56.616839,46.71567 55.660254,47.26795 z"
           id="path3951"
           inkscape:transform-center-x="-19.320842" />
        <path
           sodipodi:nodetypes="csssccsssc"
           inkscape:transform-center-x="-12.000334"
           id="path3953"
           d="M 53.535898,36.41154 C 52.431329,38.32471 53.08683,40.77107 55,41.87564 c 1.91317,1.10457 4.359532,0.44907 5.464102,-1.4641 C 61.568671,38.49837 60.91317,36.05201 59,34.94744 c -1.91317,-1.10457 -4.359532,-0.44907 -5.464102,1.4641 z m -2.267949,7.92821 C 50.715665,45.29633 51.043415,46.51951 52,47.0718 c 0.956585,0.55228 2.179766,0.22453 2.732051,-0.73205 C 55.284335,45.38316 54.956585,44.15998 54,43.6077 53.043415,43.05541 51.820234,43.38316 51.267949,44.33975 z"
           style="color:#000000;fill:url(#linearGradient3240);fill-opacity:1;fill-rule:nonzero;stroke:none;stroke-width:1;marker:none;visibility:visible;display:inline;overflow:visible;enable-background:accumulate"
           inkscape:transform-center-y="-19.320842" />
        <path
           sodipodi:nodetypes="csssccsssc"
           inkscape:transform-center-y="-22"
           style="color:#000000;fill:url(#linearGradient3242);fill-opacity:1;fill-rule:nonzero;stroke:none;stroke-width:1;marker:none;visibility:visible;display:inline;overflow:visible;enable-background:accumulate"
           d="m 44,36 c 0,2.20914 1.790862,4 4,4 2.209139,0 4,-1.79086 4.000001,-4 C 52,33.79086 50.209138,32 48,32 c -2.209138,0 -4,1.79086 -4,4 z m 2,8 c 10e-7,1.10457 0.895431,2 2,2 1.104569,0 2,-0.89543 2,-2 0,-1.10457 -0.895431,-2 -2,-2 -1.104569,0 -2,0.89543 -2,2 z"
           id="path3955" />
        <path
           sodipodi:nodetypes="csssccsssc"
           inkscape:transform-center-x="12.000334"
           id="path3957"
           d="m 35.535898,40.41154 c 1.10457,1.91317 3.550932,2.56867 5.464102,1.4641 1.913171,-1.10457 2.568671,-3.55093 1.464103,-5.4641 C 41.359532,34.49837 38.91317,33.84287 37,34.94744 c -1.91317,1.10457 -2.568671,3.55093 -1.464102,5.4641 z m 5.732051,5.92821 C 41.820235,47.29633 43.043415,47.62408 44,47.0718 44.956585,46.51951 45.284335,45.29633 44.732051,44.33975 44.179766,43.38316 42.956585,43.05541 42,43.6077 c -0.956585,0.55228 -1.284335,1.77546 -0.732051,2.73205 z"
           style="color:#000000;fill:url(#linearGradient3244);fill-opacity:1;fill-rule:nonzero;stroke:none;stroke-width:1;marker:none;visibility:visible;display:inline;overflow:visible;enable-background:accumulate"
           inkscape:transform-center-y="-19.320842" />
        <path
           sodipodi:nodetypes="csssccsssc"
           inkscape:transform-center-y="-12.000334"
           style="color:#000000;fill:url(#linearGradient3246);fill-opacity:1;fill-rule:nonzero;stroke:none;stroke-width:1;marker:none;visibility:visible;display:inline;overflow:visible;enable-background:accumulate"
           d="M 30.411542,48.4641 C 32.324713,49.56867 34.771075,48.91317 35.875645,47 36.980214,45.08683 36.324713,42.64047 34.411544,41.5359 32.498372,40.43133 30.05201,41.08683 28.947441,43 c -1.104569,1.91317 -0.449069,4.35953 1.464101,5.4641 z m 7.928204,2.26795 C 39.296332,51.28434 40.519512,50.95659 41.071797,50 41.624082,49.04342 41.296331,47.82023 40.339746,47.26795 39.383161,46.71567 38.15998,47.04341 37.607695,48 c -0.552284,0.95659 -0.224534,2.17977 0.732051,2.73205 z"
           id="path3959"
           inkscape:transform-center-x="19.320842" />
        <path
           sodipodi:nodetypes="csssccsssc"
           inkscape:transform-center-x="22"
           id="path3961"
           d="m 30,58 c 2.209139,0 4,-1.79086 4.000001,-4 C 34,51.79086 32.209139,50 30,50 c -2.209139,0 -4,1.79086 -4,4 0,2.20914 1.790861,4 4,4 z m 8,-2 c 1.10457,0 2,-0.89543 2,-2 10e-7,-1.10457 -0.895431,-2 -2,-2 -1.104569,0 -2,0.89543 -2,2 0,1.10457 0.895431,2 2,2 z"
           style="color:#000000;fill:url(#linearGradient3248);fill-opacity:1;fill-rule:nonzero;stroke:none;stroke-width:1;marker:none;visibility:visible;display:inline;overflow:visible;enable-background:accumulate" />
      </g>
    </g>
  </g>
  <g
     inkscape:groupmode="layer"
     id="layer2"
     inkscape:label="Symbol"
     sodipodi:insensitive="true" />
</svg>
