<?xml version="1.0" encoding="UTF-8" standalone="no"?>
<!-- Created with Inkscape (http://www.inkscape.org/) -->

<svg
   xmlns:dc="http://purl.org/dc/elements/1.1/"
   xmlns:cc="http://creativecommons.org/ns#"
   xmlns:rdf="http://www.w3.org/1999/02/22-rdf-syntax-ns#"
   xmlns:svg="http://www.w3.org/2000/svg"
   xmlns="http://www.w3.org/2000/svg"
   xmlns:xlink="http://www.w3.org/1999/xlink"
   xmlns:sodipodi="http://sodipodi.sourceforge.net/DTD/sodipodi-0.dtd"
   xmlns:inkscape="http://www.inkscape.org/namespaces/inkscape"
   width="16"
   height="16"
   id="svg2"
   sodipodi:version="0.32"
   inkscape:version="0.48.0 r9654"
   version="1.0"
   sodipodi:docname="application-pgp-keys.svg"
   inkscape:output_extension="org.inkscape.output.svg.inkscape"
   style="display:inline">
  <defs
     id="defs4">
    <inkscape:perspective
       sodipodi:type="inkscape:persp3d"
       inkscape:vp_x="0 : 8 : 1"
       inkscape:vp_y="0 : 1000 : 0"
       inkscape:vp_z="16 : 8 : 1"
       inkscape:persp3d-origin="8 : 5.3333333 : 1"
       id="perspective26" />
    <linearGradient
       inkscape:collect="always"
       id="linearGradient3327">
      <stop
         style="stop-color:#000000;stop-opacity:1;"
         offset="0"
         id="stop3330" />
      <stop
         style="stop-color:#000000;stop-opacity:0;"
         offset="1"
         id="stop3333" />
    </linearGradient>
    <linearGradient
       id="ButtonColor"
       x1="10.31979"
       y1="21"
       x2="10.31979"
       y2="0.99929649"
       gradientUnits="userSpaceOnUse">
      <stop
         style="stop-color:#e6e6e6;stop-opacity:1;"
         offset="0"
         id="stop3189" />
      <stop
         style="stop-color:#f5f5f5;stop-opacity:1;"
         offset="1"
         id="stop3191" />
    </linearGradient>
    <linearGradient
       inkscape:collect="always"
       xlink:href="#linearGradient3327"
       id="linearGradient3192"
       x1="9.0574636"
       y1="10.202822"
       x2="9.0574636"
       y2="-12.198761"
       gradientUnits="userSpaceOnUse"
       gradientTransform="translate(0,5.8006549)" />
    <linearGradient
       inkscape:collect="always"
       xlink:href="#ButtonColor"
       id="linearGradient3204"
       x1="1"
       y1="9"
       x2="15"
       y2="9"
       gradientUnits="userSpaceOnUse"
       gradientTransform="translate(-16,-1)" />
    <linearGradient
       inkscape:collect="always"
       xlink:href="#ButtonColor"
       id="linearGradient3173"
       gradientUnits="userSpaceOnUse"
       gradientTransform="translate(-16,-1)"
       x1="1"
       y1="9"
       x2="15"
       y2="9" />
    <linearGradient
       inkscape:collect="always"
       xlink:href="#ButtonColor"
       id="linearGradient3177"
       gradientUnits="userSpaceOnUse"
       gradientTransform="translate(-16,-1)"
       x1="1"
       y1="9"
       x2="15"
       y2="9" />
    <linearGradient
       inkscape:collect="always"
       xlink:href="#ButtonColor"
       id="linearGradient3179"
       gradientUnits="userSpaceOnUse"
       gradientTransform="matrix(0,-1,1,0,-1,16)"
       x1="1"
       y1="9"
       x2="15"
       y2="9" />
    <linearGradient
       inkscape:collect="always"
       xlink:href="#linearGradient3327"
       id="linearGradient3612"
       x1="8"
       y1="15"
       x2="8"
       y2="-1"
       gradientUnits="userSpaceOnUse" />
    <inkscape:perspective
       id="perspective3752"
       inkscape:persp3d-origin="0.5 : 0.33333333 : 1"
       inkscape:vp_z="1 : 0.5 : 1"
       inkscape:vp_y="0 : 1000 : 0"
       inkscape:vp_x="0 : 0.5 : 1"
       sodipodi:type="inkscape:persp3d" />
    <linearGradient
       inkscape:collect="always"
       xlink:href="#ButtonColor-5"
       id="linearGradient3204-0"
       x1="1"
       y1="9"
       x2="16.955648"
       y2="9"
       gradientUnits="userSpaceOnUse"
       gradientTransform="translate(-17,-2)" />
    <linearGradient
       id="ButtonColor-5"
       x1="10.31979"
       y1="21"
       x2="10.31979"
       y2="0.99929649"
       gradientUnits="userSpaceOnUse">
      <stop
         style="stop-color:#e6e6e6;stop-opacity:1;"
         offset="0"
         id="stop3189-0" />
      <stop
         style="stop-color:#f5f5f5;stop-opacity:1;"
         offset="1"
         id="stop3191-2" />
    </linearGradient>
    <linearGradient
       y2="-19.30397"
       x2="9.0574636"
       y1="10.202822"
       x1="9.0574636"
       gradientTransform="translate(-0.499722,5.300655)"
       gradientUnits="userSpaceOnUse"
       id="linearGradient2897"
       xlink:href="#linearGradient3327-7"
       inkscape:collect="always" />
    <linearGradient
       inkscape:collect="always"
       id="linearGradient3327-7">
      <stop
         style="stop-color:#000000;stop-opacity:1;"
         offset="0"
         id="stop3330-6" />
      <stop
         style="stop-color:#000000;stop-opacity:0;"
         offset="1"
         id="stop3333-8" />
    </linearGradient>
    <linearGradient
       y2="9"
       x2="16.955648"
       y1="9"
       x1="1"
       gradientTransform="translate(-17,-2)"
       gradientUnits="userSpaceOnUse"
       id="linearGradient3767"
       xlink:href="#ButtonColor-5"
       inkscape:collect="always" />
    <linearGradient
       inkscape:collect="always"
       xlink:href="#linearGradient4059-5"
       id="linearGradient3855-1"
       gradientUnits="userSpaceOnUse"
       gradientTransform="matrix(0.18925777,0,0,0.18925778,3.0623706,-4.6650484)"
       x1="45.541046"
       y1="27.989801"
       x2="45.541046"
       y2="65.94796" />
    <linearGradient
       id="linearGradient4059-5">
      <stop
         style="stop-color:#cccccc;stop-opacity:1;"
         offset="0"
         id="stop4061-9" />
      <stop
         style="stop-color:#969696;stop-opacity:1;"
         offset="1"
         id="stop4063-8" />
    </linearGradient>
    <radialGradient
       inkscape:collect="always"
       xlink:href="#linearGradient3971-0"
       id="radialGradient3977"
       cx="48"
       cy="48"
       fx="48"
       fy="48"
       r="27"
       gradientUnits="userSpaceOnUse"
       gradientTransform="matrix(0.22574956,0,0,0.22574958,1.1640212,-6.8359791)" />
    <linearGradient
       inkscape:collect="always"
       id="linearGradient3971-0">
      <stop
         style="stop-color:#000000;stop-opacity:0"
         offset="0"
         id="stop3973-8" />
      <stop
         id="stop3979-8"
         offset="0.87387264"
         style="stop-color:#000000;stop-opacity:0" />
      <stop
         style="stop-color:#000000;stop-opacity:1"
         offset="1"
         id="stop3975-5" />
    </linearGradient>
    <linearGradient
       inkscape:collect="always"
       xlink:href="#linearGradient4120"
       id="linearGradient3866"
       x1="59.447865"
       y1="29.297636"
       x2="39.258163"
       y2="64.26722"
       gradientUnits="userSpaceOnUse" />
    <linearGradient
       id="linearGradient4120">
      <stop
         style="stop-color:#ffffff;stop-opacity:1;"
         offset="0"
         id="stop4122" />
      <stop
         style="stop-color:#989898;stop-opacity:1;"
         offset="1"
         id="stop4124" />
    </linearGradient>
    <linearGradient
       y2="64.26722"
       x2="39.258163"
       y1="29.297636"
       x1="59.447865"
       gradientUnits="userSpaceOnUse"
       id="linearGradient3950"
       xlink:href="#linearGradient4120"
       inkscape:collect="always" />
    <linearGradient
       inkscape:collect="always"
       xlink:href="#linearGradient3954-8"
       id="linearGradient3960-4"
       x1="27.021582"
       y1="45.744911"
       x2="67.427681"
       y2="45.744911"
       gradientUnits="userSpaceOnUse" />
    <linearGradient
       id="linearGradient3954-8">
      <stop
         style="stop-color:#1a1a1a;stop-opacity:1;"
         offset="0"
         id="stop3956-1" />
      <stop
         style="stop-color:#3a3a3a;stop-opacity:1;"
         offset="1"
         id="stop3958-0" />
    </linearGradient>
    <linearGradient
       inkscape:collect="always"
       xlink:href="#linearGradient4059-5-3"
       id="linearGradient3855-1-3"
       gradientUnits="userSpaceOnUse"
       gradientTransform="matrix(0.11800111,0,0,0.1180011,2.4274399,2.6055925)"
       x1="45.541046"
       y1="27.989801"
       x2="45.541046"
       y2="65.94796" />
    <linearGradient
       id="linearGradient4059-5-3">
      <stop
         style="stop-color:#cccccc;stop-opacity:1;"
         offset="0"
         id="stop4061-9-2" />
      <stop
         style="stop-color:#969696;stop-opacity:1;"
         offset="1"
         id="stop4063-8-6" />
    </linearGradient>
    <radialGradient
       inkscape:collect="always"
       xlink:href="#linearGradient3971-0-3"
       id="radialGradient3977-4"
       cx="48"
       cy="48"
       fx="48"
       fy="48"
       r="27"
       gradientUnits="userSpaceOnUse"
       gradientTransform="matrix(0.16931218,0,0,0.16931218,-0.12698535,-0.1269835)" />
    <linearGradient
       inkscape:collect="always"
       id="linearGradient3971-0-3">
      <stop
         style="stop-color:#000000;stop-opacity:0"
         offset="0"
         id="stop3973-8-4" />
      <stop
         id="stop3979-8-9"
         offset="0.87387264"
         style="stop-color:#000000;stop-opacity:0" />
      <stop
         style="stop-color:#000000;stop-opacity:1"
         offset="1"
         id="stop3975-5-9" />
    </linearGradient>
    <linearGradient
       inkscape:collect="always"
       xlink:href="#linearGradient4120-3"
       id="linearGradient3866-3"
       x1="59.447865"
       y1="29.297636"
       x2="39.258163"
       y2="64.26722"
       gradientUnits="userSpaceOnUse" />
    <linearGradient
       id="linearGradient4120-3">
      <stop
         style="stop-color:#e6e6e6;stop-opacity:1;"
         offset="0"
         id="stop4122-4" />
      <stop
         style="stop-color:#989898;stop-opacity:1;"
         offset="1"
         id="stop4124-4" />
    </linearGradient>
    <linearGradient
       y2="64.26722"
       x2="39.258163"
       y1="29.297636"
       x1="59.447865"
       gradientUnits="userSpaceOnUse"
       id="linearGradient3983"
       xlink:href="#linearGradient4120-3"
       inkscape:collect="always" />
    <linearGradient
       inkscape:collect="always"
       xlink:href="#linearGradient4059-5-3"
       id="linearGradient3894"
       gradientUnits="userSpaceOnUse"
       gradientTransform="matrix(0.11800111,0,0,0.1180011,2.4274399,3.2000913)"
       x1="45.541046"
       y1="27.989801"
       x2="45.541046"
       y2="65.94796" />
    <linearGradient
       inkscape:collect="always"
       xlink:href="#linearGradient4059-5-3"
       id="linearGradient3896"
       gradientUnits="userSpaceOnUse"
       gradientTransform="matrix(0.11800111,0,0,0.1180011,2.4274399,2.6055925)"
       x1="45.541046"
       y1="27.989801"
       x2="45.541046"
       y2="65.94796" />
    <linearGradient
       inkscape:collect="always"
       xlink:href="#linearGradient4059-5-3"
       id="linearGradient3901"
       gradientUnits="userSpaceOnUse"
       gradientTransform="matrix(0.11800111,0,0,0.1180011,12.42744,3.3893252)"
       x1="45.541046"
       y1="27.989801"
       x2="45.541046"
       y2="65.94796" />
    <linearGradient
       inkscape:collect="always"
       xlink:href="#linearGradient4059-5-3"
       id="linearGradient3905"
       gradientUnits="userSpaceOnUse"
       gradientTransform="matrix(0.11800111,0,0,0.1180011,12.42744,2.6055925)"
       x1="45.541046"
       y1="27.989801"
       x2="45.541046"
       y2="65.94796" />
    <linearGradient
       inkscape:collect="always"
       xlink:href="#linearGradient4120-3"
       id="linearGradient3924"
       gradientUnits="userSpaceOnUse"
       x1="59.447865"
       y1="29.297636"
       x2="39.258163"
       y2="64.26722" />
    <linearGradient
       inkscape:collect="always"
       xlink:href="#linearGradient4120-3"
       id="linearGradient3926"
       gradientUnits="userSpaceOnUse"
       x1="59.447865"
       y1="29.297636"
       x2="39.258163"
       y2="64.26722"
       gradientTransform="matrix(0.25715349,-0.14846764,0.14846764,0.25715348,-10.935618,3.2478662)" />
  </defs>
  <sodipodi:namedview
     id="base"
     pagecolor="#ffffff"
     bordercolor="#e7e7e7"
     borderopacity="1"
     inkscape:pageopacity="0.0"
     inkscape:pageshadow="2"
     inkscape:zoom="36.991263"
     inkscape:cx="-1.1412717"
     inkscape:cy="10.980747"
     inkscape:document-units="px"
     inkscape:current-layer="layer1"
     showgrid="true"
     inkscape:showpageshadow="false"
     showguides="false"
     inkscape:guide-bbox="true"
     inkscape:window-width="1920"
     inkscape:window-height="1029"
     inkscape:window-x="0"
     inkscape:window-y="25"
     inkscape:window-maximized="1"
     inkscape:snap-global="false">
    <sodipodi:guide
       orientation="1,0"
       position="0,112"
       id="guide2383" />
    <sodipodi:guide
       orientation="0,1"
       position="26.278146,128"
       id="guide2385" />
    <sodipodi:guide
       orientation="1,0"
       position="128,54.082119"
       id="guide2387" />
    <sodipodi:guide
       orientation="0,1"
       position="78.156291,0"
       id="guide2389" />
    <sodipodi:guide
       orientation="0,1"
       position="60.863576,64.084768"
       id="guide2391" />
    <inkscape:grid
       type="xygrid"
       id="grid3672"
       visible="true"
       enabled="true" />
  </sodipodi:namedview>
  <metadata
     id="metadata7">
    <rdf:RDF>
      <cc:Work
         rdf:about="">
        <dc:format>image/svg+xml</dc:format>
        <dc:type
           rdf:resource="http://purl.org/dc/dcmitype/StillImage" />
        <dc:title></dc:title>
      </cc:Work>
    </rdf:RDF>
  </metadata>
  <g
     inkscape:label="Button"
     inkscape:groupmode="layer"
     id="layer1">
    <rect
       ry="2"
       rx="2"
       y="0"
       x="-16"
       height="16"
       width="16"
       id="rect3196"
       style="fill:url(#linearGradient3767);fill-opacity:1;fill-rule:nonzero;stroke:none;display:inline"
       transform="matrix(0,-1,1,0,0,0)" />
    <path
       style="opacity:0.4;fill:url(#linearGradient2897);fill-opacity:1;fill-rule:nonzero;stroke:none;display:inline"
       d="M 2,0 C 0.892,0 0,0.892 0,2 l 0,12 c 0,1.108 0.892,2 2,2 l 12,0 c 1.108,0 2,-0.892 2,-2 L 16,2 C 16,0.892 15.108,0 14,0 L 2,0 z m 0.5,1 11,0 C 14.331,1 15,1.669 15,2.5 l 0,11 c 0,0.831 -0.669,1.5 -1.5,1.5 l -11,0 C 1.669,15 1,14.331 1,13.5 L 1,2.5 C 1,1.669 1.669,1 2.5,1 z"
       id="rect2410" />
    <path
       style="opacity:0.6;fill:#ffffff;fill-opacity:1;stroke:none;display:inline"
       d="M 2.5,1 C 1.669,1 1,1.669 1,2.5 l 0,1 C 1,2.669 1.669,2 2.5,2 l 11,0 C 14.331,2 15,2.669 15,3.5 l 0,-1 C 15,1.669 14.331,1 13.5,1 l -11,0 z"
       id="rect3770" />
    <path
       sodipodi:type="arc"
       style="fill:url(#linearGradient3983);fill-opacity:1;stroke:none;display:inline"
       id="path3870"
       sodipodi:cx="47.224632"
       sodipodi:cy="45.744911"
       sodipodi:rx="20.203051"
       sodipodi:ry="20.203051"
       d="m 67.427683,45.744911 a 20.203051,20.203051 0 1 1 -40.406101,0 20.203051,20.203051 0 1 1 40.406101,0 z"
       transform="matrix(0.25715349,-0.14846764,0.14846764,0.25715348,-10.935618,3.2478662)" />
    <path
       transform="matrix(0,-0.2262742,0.2262742,0,-2.3508938,18.685717)"
       d="m 67.427683,45.744911 a 20.203051,20.203051 0 1 1 -40.406101,0 20.203051,20.203051 0 1 1 40.406101,0 z"
       sodipodi:ry="20.203051"
       sodipodi:rx="20.203051"
       sodipodi:cy="45.744911"
       sodipodi:cx="47.224632"
       id="path3898"
       style="fill:url(#linearGradient3960-4);fill-opacity:1;stroke:none;display:inline"
       sodipodi:type="arc" />
    <path
       inkscape:connector-curvature="0"
       style="fill:url(#linearGradient3855-1-3);fill-opacity:1;stroke:none;display:inline"
       d="M 7.9999993,4.3360979 7.3543368,5.7106158 c -1.0034972,0.2811525 -1.73832,1.1996483 -1.73832,2.2929273 0,1.3166392 1.0673453,2.3839839 2.3839825,2.3839839 1.3166375,0 2.3839827,-1.0673447 2.3839827,-2.3839839 0,-1.093279 -0.7348223,-2.0117748 -1.7383202,-2.2929273 z"
       id="path3848-1"
       inkscape:transform-center-y="-0.42997305"
       sodipodi:nodetypes="ccssscc" />
    <path
       inkscape:connector-curvature="0"
       style="fill:url(#radialGradient3977-4);fill-opacity:1;stroke:none;display:inline"
       d="m 8.0000002,3.4285715 c -2.5247312,0 -4.5714303,2.0466984 -4.5714303,4.5714294 0,2.5247321 2.0466991,4.5714281 4.5714303,4.5714281 2.5247298,0 4.5714278,-2.046696 4.5714278,-4.5714281 0,-2.524731 -2.046698,-4.5714294 -4.5714278,-4.5714294 z m 0,0.7407413 c 2.1143238,0 3.8306868,1.7163624 3.8306868,3.8306881 0,2.1143261 -1.716363,3.8306901 -3.8306868,3.8306901 -2.1143258,0 -3.8306893,-1.716364 -3.8306893,-3.8306901 0,-2.1143257 1.7163635,-3.8306881 3.8306893,-3.8306881 z"
       id="path3962" />
    <path
       style="fill:#ffffff;fill-opacity:1;stroke:none;display:inline"
       d="M 8 4.34375 L 7.34375 5.71875 C 6.3402528 5.9999025 5.625 6.906721 5.625 8 C 5.625 8.1099627 5.6418367 8.2064916 5.65625 8.3125 C 5.769495 7.3449576 6.4273209 6.5692584 7.34375 6.3125 L 8 4.9375 L 8.65625 6.3125 C 9.5726797 6.5692584 10.230505 7.3449576 10.34375 8.3125 C 10.358163 8.2064916 10.375 8.1099627 10.375 8 C 10.375 6.906721 9.6597479 5.9999025 8.65625 5.71875 L 8 4.34375 z "
       id="path3890" />
    <path
       style="fill:#000000;fill-opacity:1;stroke:none;display:inline"
       d="M 5.65625,8.46875 C 5.643031,8.5704017 5.625,8.6759415 5.625,8.78125 c 0,1.316639 1.058363,2.375 2.375,2.375 1.316638,0 2.375,-1.058361 2.375,-2.375 0,-0.1053085 -0.01803,-0.2108483 -0.03125,-0.3125 C 10.121453,9.5550918 9.152058,10.375 8,10.375 6.847943,10.375 5.878547,9.5550918 5.65625,8.46875 z"
       id="path3899"
       inkscape:connector-curvature="0" />
    <path
       style="fill:#000000;fill-opacity:1;stroke:none;display:inline;opacity:0.2"
       d="M 2 7.59375 C 1.918545 8.7463418 2.1912834 9.9240213 2.8125 11 C 4.4690777 13.869277 8.1307233 14.844078 11 13.1875 C 12.972628 12.048603 14.055254 9.9711843 14 7.84375 C 13.864242 9.7647364 12.793298 11.589639 11 12.625 C 8.1307233 14.281578 4.4690777 13.306777 2.8125 10.4375 C 2.2948195 9.5408511 2.0251153 8.5607656 2 7.59375 z "
       id="path3918" />
  </g>
  <g
     inkscape:groupmode="layer"
     id="layer2"
     inkscape:label="Symbol"
     sodipodi:insensitive="true" />
</svg>
