<?xml version="1.0" encoding="UTF-8" standalone="no"?>
<!-- Created with Inkscape (http://www.inkscape.org/) -->

<svg
   xmlns:dc="http://purl.org/dc/elements/1.1/"
   xmlns:cc="http://creativecommons.org/ns#"
   xmlns:rdf="http://www.w3.org/1999/02/22-rdf-syntax-ns#"
   xmlns:svg="http://www.w3.org/2000/svg"
   xmlns="http://www.w3.org/2000/svg"
   xmlns:xlink="http://www.w3.org/1999/xlink"
   xmlns:sodipodi="http://sodipodi.sourceforge.net/DTD/sodipodi-0.dtd"
   xmlns:inkscape="http://www.inkscape.org/namespaces/inkscape"
   width="16"
   height="16"
   id="svg2"
   sodipodi:version="0.32"
   inkscape:version="0.47 r22583"
   version="1.0"
   sodipodi:docname="application-x-sln.svg"
   inkscape:output_extension="org.inkscape.output.svg.inkscape"
   style="display:inline">
  <defs
     id="defs4">
    <inkscape:perspective
       sodipodi:type="inkscape:persp3d"
       inkscape:vp_x="0 : 8 : 1"
       inkscape:vp_y="0 : 1000 : 0"
       inkscape:vp_z="16 : 8 : 1"
       inkscape:persp3d-origin="8 : 5.3333333 : 1"
       id="perspective26" />
    <linearGradient
       inkscape:collect="always"
       id="linearGradient3327">
      <stop
         style="stop-color:#000000;stop-opacity:1;"
         offset="0"
         id="stop3330" />
      <stop
         style="stop-color:#000000;stop-opacity:0;"
         offset="1"
         id="stop3333" />
    </linearGradient>
    <linearGradient
       id="ButtonColor"
       x1="10.31979"
       y1="21"
       x2="10.31979"
       y2="0.99929649"
       gradientUnits="userSpaceOnUse">
      <stop
         style="stop-color:#e6e6e6;stop-opacity:1;"
         offset="0"
         id="stop3189" />
      <stop
         style="stop-color:#f5f5f5;stop-opacity:1;"
         offset="1"
         id="stop3191" />
    </linearGradient>
    <linearGradient
       inkscape:collect="always"
       xlink:href="#linearGradient3327"
       id="linearGradient3192"
       x1="9.0574636"
       y1="10.202822"
       x2="9.0574636"
       y2="-12.198761"
       gradientUnits="userSpaceOnUse"
       gradientTransform="translate(0,5.8006549)" />
    <linearGradient
       inkscape:collect="always"
       xlink:href="#ButtonColor"
       id="linearGradient3204"
       x1="1"
       y1="9"
       x2="15"
       y2="9"
       gradientUnits="userSpaceOnUse"
       gradientTransform="translate(-16,-1)" />
    <linearGradient
       inkscape:collect="always"
       xlink:href="#ButtonColor"
       id="linearGradient3173"
       gradientUnits="userSpaceOnUse"
       gradientTransform="translate(-16,-1)"
       x1="1"
       y1="9"
       x2="15"
       y2="9" />
    <linearGradient
       inkscape:collect="always"
       xlink:href="#ButtonColor"
       id="linearGradient3177"
       gradientUnits="userSpaceOnUse"
       gradientTransform="translate(-16,-1)"
       x1="1"
       y1="9"
       x2="15"
       y2="9" />
    <linearGradient
       inkscape:collect="always"
       xlink:href="#ButtonColor"
       id="linearGradient3179"
       gradientUnits="userSpaceOnUse"
       gradientTransform="matrix(0,-1,1,0,-1,16)"
       x1="1"
       y1="9"
       x2="15"
       y2="9" />
    <linearGradient
       inkscape:collect="always"
       xlink:href="#linearGradient3327"
       id="linearGradient3612"
       x1="8"
       y1="15"
       x2="8"
       y2="-1"
       gradientUnits="userSpaceOnUse" />
    <inkscape:perspective
       id="perspective3752"
       inkscape:persp3d-origin="0.5 : 0.33333333 : 1"
       inkscape:vp_z="1 : 0.5 : 1"
       inkscape:vp_y="0 : 1000 : 0"
       inkscape:vp_x="0 : 0.5 : 1"
       sodipodi:type="inkscape:persp3d" />
    <linearGradient
       inkscape:collect="always"
       xlink:href="#ButtonColor-5"
       id="linearGradient3204-0"
       x1="1"
       y1="9"
       x2="16.955648"
       y2="9"
       gradientUnits="userSpaceOnUse"
       gradientTransform="translate(-17,-2)" />
    <linearGradient
       id="ButtonColor-5"
       x1="10.31979"
       y1="21"
       x2="10.31979"
       y2="0.99929649"
       gradientUnits="userSpaceOnUse">
      <stop
         style="stop-color:#e6e6e6;stop-opacity:1;"
         offset="0"
         id="stop3189-0" />
      <stop
         style="stop-color:#f5f5f5;stop-opacity:1;"
         offset="1"
         id="stop3191-2" />
    </linearGradient>
    <linearGradient
       y2="-19.30397"
       x2="9.0574636"
       y1="10.202822"
       x1="9.0574636"
       gradientTransform="translate(-0.499722,5.300655)"
       gradientUnits="userSpaceOnUse"
       id="linearGradient2897"
       xlink:href="#linearGradient3327-7"
       inkscape:collect="always" />
    <linearGradient
       inkscape:collect="always"
       id="linearGradient3327-7">
      <stop
         style="stop-color:#000000;stop-opacity:1;"
         offset="0"
         id="stop3330-6" />
      <stop
         style="stop-color:#000000;stop-opacity:0;"
         offset="1"
         id="stop3333-8" />
    </linearGradient>
    <linearGradient
       y2="9"
       x2="16.955648"
       y1="9"
       x1="1"
       gradientTransform="translate(-17,-2)"
       gradientUnits="userSpaceOnUse"
       id="linearGradient3767"
       xlink:href="#ButtonColor-5"
       inkscape:collect="always" />
    <inkscape:perspective
       id="perspective3725"
       inkscape:persp3d-origin="0.5 : 0.33333333 : 1"
       inkscape:vp_z="1 : 0.5 : 1"
       inkscape:vp_y="0 : 1000 : 0"
       inkscape:vp_x="0 : 0.5 : 1"
       sodipodi:type="inkscape:persp3d" />
    <linearGradient
       y2="14844.775"
       x2="2128.5525"
       y1="15026.778"
       x1="2128.5525"
       gradientTransform="matrix(-0.06991158,0,0,0.06905475,160.81053,-1019.7834)"
       gradientUnits="userSpaceOnUse"
       id="linearGradient3022"
       xlink:href="#linearGradient7985"
       inkscape:collect="always" />
    <linearGradient
       id="linearGradient7985">
      <stop
         id="stop7991"
         style="stop-color:#3a5c88;stop-opacity:1;"
         offset="0" />
      <stop
         offset="1"
         style="stop-color:#729dd6;stop-opacity:1;"
         id="stop7989" />
    </linearGradient>
    <linearGradient
       y2="14844.775"
       x2="2128.5525"
       y1="15026.778"
       x1="2128.5525"
       gradientTransform="matrix(-0.05049401,0,0,0.04987517,115.47917,-735.68071)"
       gradientUnits="userSpaceOnUse"
       id="linearGradient3737"
       xlink:href="#linearGradient7985"
       inkscape:collect="always" />
  </defs>
  <sodipodi:namedview
     id="base"
     pagecolor="#ffffff"
     bordercolor="#e7e7e7"
     borderopacity="1"
     inkscape:pageopacity="0.0"
     inkscape:pageshadow="2"
     inkscape:zoom="28.04203"
     inkscape:cx="-1.8087509"
     inkscape:cy="8.7161723"
     inkscape:document-units="px"
     inkscape:current-layer="layer1"
     showgrid="true"
     inkscape:showpageshadow="false"
     showguides="false"
     inkscape:guide-bbox="true"
     inkscape:window-width="1920"
     inkscape:window-height="1023"
     inkscape:window-x="0"
     inkscape:window-y="24"
     inkscape:window-maximized="1"
     inkscape:snap-global="false">
    <sodipodi:guide
       orientation="1,0"
       position="0,112"
       id="guide2383" />
    <sodipodi:guide
       orientation="0,1"
       position="26.278146,128"
       id="guide2385" />
    <sodipodi:guide
       orientation="1,0"
       position="128,54.082119"
       id="guide2387" />
    <sodipodi:guide
       orientation="0,1"
       position="78.156291,0"
       id="guide2389" />
    <sodipodi:guide
       orientation="0,1"
       position="60.863576,64.084768"
       id="guide2391" />
    <inkscape:grid
       type="xygrid"
       id="grid3672"
       visible="true"
       enabled="true" />
  </sodipodi:namedview>
  <metadata
     id="metadata7">
    <rdf:RDF>
      <cc:Work
         rdf:about="">
        <dc:format>image/svg+xml</dc:format>
        <dc:type
           rdf:resource="http://purl.org/dc/dcmitype/StillImage" />
        <dc:title></dc:title>
      </cc:Work>
    </rdf:RDF>
  </metadata>
  <g
     inkscape:label="Button"
     inkscape:groupmode="layer"
     id="layer1">
    <rect
       ry="2"
       rx="2"
       y="0"
       x="-16"
       height="16"
       width="16"
       id="rect3196"
       style="fill:url(#linearGradient3767);fill-opacity:1;fill-rule:nonzero;stroke:none;display:inline"
       transform="matrix(0,-1,1,0,0,0)" />
    <path
       style="opacity:0.4;fill:url(#linearGradient2897);fill-opacity:1;fill-rule:nonzero;stroke:none;display:inline"
       d="M 2,0 C 0.892,0 0,0.892 0,2 l 0,12 c 0,1.108 0.892,2 2,2 l 12,0 c 1.108,0 2,-0.892 2,-2 L 16,2 C 16,0.892 15.108,0 14,0 L 2,0 z m 0.5,1 11,0 C 14.331,1 15,1.669 15,2.5 l 0,11 c 0,0.831 -0.669,1.5 -1.5,1.5 l -11,0 C 1.669,15 1,14.331 1,13.5 L 1,2.5 C 1,1.669 1.669,1 2.5,1 z"
       id="rect2410" />
    <path
       style="opacity:0.6;fill:#ffffff;fill-opacity:1;stroke:none;display:inline"
       d="M 2.5,1 C 1.669,1 1,1.669 1,2.5 l 0,1 C 1,2.669 1.669,2 2.5,2 l 11,0 C 14.331,2 15,2.669 15,3.5 l 0,-1 C 15,1.669 14.331,1 13.5,1 l -11,0 z"
       id="rect3770" />
    <path
       sodipodi:nodetypes="cccccccccc"
       id="path3603"
       d="M 12.72024,2.5707249 C 11.870573,2.9184838 9.1459297,4.0509064 9.0779982,4.0791674 8.3157107,3.4586784 7.3242518,2.976578 6.2973586,2.9220449 3.8064184,2.7659122 1.5153086,4.9707585 1.5081725,7.4166983 1.3988184,9.6187749 2.4071662,11.655414 3.318105,13.601027 4.0801975,13.28412 6.8513146,12.13288 6.921184,12.10374 c 0.7481519,0.623161 1.7063243,1.082366 2.7051087,1.154334 2.4510393,0.204991 4.7290053,-1.905491 4.8535243,-4.2938966 0.177914,-2.2341735 -0.855412,-4.3009339 -1.72321,-6.2986515 -0.01263,-0.031172 -0.02375,-0.06363 -0.03636,-0.094801 z"
       style="fill:url(#linearGradient3737);fill-opacity:1;fill-rule:evenodd;stroke:none;display:inline" />
    <path
       inkscape:export-ydpi="16.219999"
       inkscape:export-filename="/home/lluis/MonoDevelopWork/mono-logo.png"
       d="M 3.8863127,12.173968 C 3.3487766,10.877019 2.6361398,9.7340522 2.6202984,7.6159196 2.6039277,5.427533 4.4873324,4.0107113 5.9758825,4.0105423 7.7780967,4.0103259 9.3637531,5.5272681 9.4473626,6.7837441 9.5228183,7.9176561 9.1179918,9.5667577 7.028435,9.5545015 6.030711,9.5487444 4.9939907,8.6836207 4.988526,7.3965242 4.9825832,6.0076274 6.7282501,5.8721321 7.1684542,6.2257182 7.339446,6.363065 7.3342191,6.6348551 7.18294,6.5857884 6.2430418,6.2807657 5.6623848,6.8819229 5.7055058,7.4800018 5.7640429,8.2914989 6.2470728,8.7743022 7.112934,8.8153664 8.3619443,8.8745072 8.7116081,7.6637661 8.6796755,7.1723717 8.6408705,6.5749204 8.1182435,5.3461159 6.4925155,5.1216254 5.7248869,5.0157413 5.0886975,5.2449081 4.6239912,5.6939745 4.1592932,6.1430809 3.8980368,6.6074799 3.859867,7.3692752 3.820393,8.1572266 3.992987,8.6195595 4.4658063,9.6533529 4.6346958,10.022563 5.1064435,10.767468 5.471776,11.513384 l -1.5854587,0.660584 z"
       inkscape:export-xdpi="16.219999"
       sodipodi:nodetypes="cssscsssssssssscc"
       id="path3607"
       style="fill:#eeeeec;fill-opacity:1;fill-rule:evenodd;stroke:none;display:inline" />
    <path
       inkscape:export-ydpi="16.219999"
       inkscape:export-filename="/home/lluis/MonoDevelopWork/mono-logo.png"
       d="m 12.113687,4.0105423 c 0.537541,1.2970369 1.250173,2.4399598 1.266017,4.5581389 0.01637,2.1883838 -1.86704,3.6052058 -3.355584,3.6052868 C 8.2219027,12.174264 6.6362463,10.657286 6.5526396,9.4009384 6.4771839,8.266902 6.8820085,6.6177554 8.971571,6.6300943 c 0.997723,0.00576 2.034444,0.8708849 2.039908,2.1579387 0.0059,1.388853 -1.7397269,1.52443 -2.179931,1.1708052 C 8.660559,9.8214922 8.6657775,9.5497435 8.8170622,9.5987679 9.7569567,9.9038302 10.337609,9.3025925 10.294487,8.7045526 10.235959,7.8930592 9.7529267,7.4103404 8.8870645,7.3692752 7.6380579,7.3101438 7.2883913,8.5209192 7.3203212,9.0122292 7.3591262,9.6096749 7.8817494,10.838563 9.5074867,11.062886 10.275113,11.168815 10.911303,10.939648 11.376002,10.490581 11.840708,10.041433 12.101968,9.5770339 12.140134,8.8153664 12.179608,8.0273733 12.007009,7.5650831 11.534189,6.531285 11.365304,6.1619494 10.893549,5.4172119 10.528227,4.6712107 l 1.585451,-0.6606684 z"
       inkscape:export-xdpi="16.219999"
       sodipodi:nodetypes="cssscsssssssssscc"
       id="path3611"
       style="fill:#a9c4e3;fill-opacity:1;fill-rule:evenodd;stroke:none;display:inline" />
    <path
       id="path3613"
       d="M 5.9733243,4.0059245 C 4.4847751,4.0060935 2.6044208,5.4233804 2.6207896,7.6117661 2.6366403,9.7298992 3.3522922,10.874036 3.8898283,12.170984 L 5.4713915,11.510229 C 5.3301772,11.221902 5.1756592,10.945946 5.0262808,10.679562 l -0.3504057,0 0,-0.632438 C 4.5897873,9.8925662 4.5149314,9.7543122 4.467525,9.6506709 3.9947067,8.6168778 3.8219404,8.1542942 3.8614168,7.3663428 3.8995903,6.6045474 4.1638255,6.144678 4.6285226,5.6955726 5.093229,5.2465052 5.7265695,5.0138869 6.494199,5.119771 7.2630005,5.2259327 7.7821963,5.5586213 8.1231148,5.9409968 l 0.3219942,0 0,0.4719687 C 8.5916868,6.6950172 8.6687963,6.9668379 8.6818697,7.168116 8.6960582,7.3864315 8.6269632,7.7464489 8.445109,8.0742959 l 0,1.1232863 C 9.3088792,8.6525563 9.5026005,7.5869212 9.4489746,6.7811014 9.365366,5.5246244 7.7755385,4.0057156 5.9733243,4.0059245 z"
       style="fill:#eeeeec;fill-opacity:1;fill-rule:evenodd;stroke:none;display:inline" />
  </g>
  <g
     inkscape:groupmode="layer"
     id="layer2"
     inkscape:label="Symbol"
     sodipodi:insensitive="true" />
</svg>
