<?xml version="1.0" encoding="UTF-8" standalone="no"?>
<!-- Created with Inkscape (http://www.inkscape.org/) -->

<svg
   xmlns:dc="http://purl.org/dc/elements/1.1/"
   xmlns:cc="http://creativecommons.org/ns#"
   xmlns:rdf="http://www.w3.org/1999/02/22-rdf-syntax-ns#"
   xmlns:svg="http://www.w3.org/2000/svg"
   xmlns="http://www.w3.org/2000/svg"
   xmlns:xlink="http://www.w3.org/1999/xlink"
   xmlns:sodipodi="http://sodipodi.sourceforge.net/DTD/sodipodi-0.dtd"
   xmlns:inkscape="http://www.inkscape.org/namespaces/inkscape"
   width="16"
   height="16"
   id="svg2"
   sodipodi:version="0.32"
   inkscape:version="0.47 r22583"
   version="1.0"
   sodipodi:docname="phatch-actionlist.svg"
   inkscape:output_extension="org.inkscape.output.svg.inkscape"
   style="display:inline">
  <defs
     id="defs4">
    <inkscape:perspective
       sodipodi:type="inkscape:persp3d"
       inkscape:vp_x="0 : 8 : 1"
       inkscape:vp_y="0 : 1000 : 0"
       inkscape:vp_z="16 : 8 : 1"
       inkscape:persp3d-origin="8 : 5.3333333 : 1"
       id="perspective26" />
    <linearGradient
       inkscape:collect="always"
       id="linearGradient3327">
      <stop
         style="stop-color:#000000;stop-opacity:1;"
         offset="0"
         id="stop3330" />
      <stop
         style="stop-color:#000000;stop-opacity:0;"
         offset="1"
         id="stop3333" />
    </linearGradient>
    <linearGradient
       id="ButtonColor"
       x1="10.31979"
       y1="21"
       x2="10.31979"
       y2="0.99929649"
       gradientUnits="userSpaceOnUse">
      <stop
         style="stop-color:#e6e6e6;stop-opacity:1;"
         offset="0"
         id="stop3189" />
      <stop
         style="stop-color:#f5f5f5;stop-opacity:1;"
         offset="1"
         id="stop3191" />
    </linearGradient>
    <linearGradient
       inkscape:collect="always"
       xlink:href="#linearGradient3327"
       id="linearGradient3192"
       x1="9.0574636"
       y1="10.202822"
       x2="9.0574636"
       y2="-12.198761"
       gradientUnits="userSpaceOnUse"
       gradientTransform="translate(0,5.8006549)" />
    <linearGradient
       inkscape:collect="always"
       xlink:href="#ButtonColor"
       id="linearGradient3204"
       x1="1"
       y1="9"
       x2="15"
       y2="9"
       gradientUnits="userSpaceOnUse"
       gradientTransform="translate(-16,-1)" />
    <linearGradient
       inkscape:collect="always"
       xlink:href="#ButtonColor"
       id="linearGradient3173"
       gradientUnits="userSpaceOnUse"
       gradientTransform="translate(-16,-1)"
       x1="1"
       y1="9"
       x2="15"
       y2="9" />
    <linearGradient
       inkscape:collect="always"
       xlink:href="#ButtonColor"
       id="linearGradient3177"
       gradientUnits="userSpaceOnUse"
       gradientTransform="translate(-16,-1)"
       x1="1"
       y1="9"
       x2="15"
       y2="9" />
    <linearGradient
       inkscape:collect="always"
       xlink:href="#ButtonColor"
       id="linearGradient3179"
       gradientUnits="userSpaceOnUse"
       gradientTransform="matrix(0,-1,1,0,-1,16)"
       x1="1"
       y1="9"
       x2="15"
       y2="9" />
    <linearGradient
       inkscape:collect="always"
       xlink:href="#linearGradient3327"
       id="linearGradient3612"
       x1="8"
       y1="15"
       x2="8"
       y2="-1"
       gradientUnits="userSpaceOnUse" />
    <inkscape:perspective
       id="perspective3752"
       inkscape:persp3d-origin="0.5 : 0.33333333 : 1"
       inkscape:vp_z="1 : 0.5 : 1"
       inkscape:vp_y="0 : 1000 : 0"
       inkscape:vp_x="0 : 0.5 : 1"
       sodipodi:type="inkscape:persp3d" />
    <linearGradient
       inkscape:collect="always"
       xlink:href="#ButtonColor-5"
       id="linearGradient3204-0"
       x1="1"
       y1="9"
       x2="16.955648"
       y2="9"
       gradientUnits="userSpaceOnUse"
       gradientTransform="translate(-17,-2)" />
    <linearGradient
       id="ButtonColor-5"
       x1="10.31979"
       y1="21"
       x2="10.31979"
       y2="0.99929649"
       gradientUnits="userSpaceOnUse">
      <stop
         style="stop-color:#e6e6e6;stop-opacity:1;"
         offset="0"
         id="stop3189-0" />
      <stop
         style="stop-color:#f5f5f5;stop-opacity:1;"
         offset="1"
         id="stop3191-2" />
    </linearGradient>
    <linearGradient
       y2="-19.30397"
       x2="9.0574636"
       y1="10.202822"
       x1="9.0574636"
       gradientTransform="translate(-0.499722,5.300655)"
       gradientUnits="userSpaceOnUse"
       id="linearGradient2897"
       xlink:href="#linearGradient3327-7"
       inkscape:collect="always" />
    <linearGradient
       inkscape:collect="always"
       id="linearGradient3327-7">
      <stop
         style="stop-color:#000000;stop-opacity:1;"
         offset="0"
         id="stop3330-6" />
      <stop
         style="stop-color:#000000;stop-opacity:0;"
         offset="1"
         id="stop3333-8" />
    </linearGradient>
    <linearGradient
       y2="9"
       x2="16.955648"
       y1="9"
       x1="1"
       gradientTransform="translate(-17,-2)"
       gradientUnits="userSpaceOnUse"
       id="linearGradient3767"
       xlink:href="#ButtonColor-5"
       inkscape:collect="always" />
    <inkscape:perspective
       id="perspective2890"
       inkscape:persp3d-origin="0.5 : 0.33333333 : 1"
       inkscape:vp_z="1 : 0.5 : 1"
       inkscape:vp_y="0 : 1000 : 0"
       inkscape:vp_x="0 : 0.5 : 1"
       sodipodi:type="inkscape:persp3d" />
    <linearGradient
       y2="678.83179"
       x2="120.5"
       y1="706.87787"
       x1="120.5"
       gradientTransform="matrix(0.2270926,0,0,0.22693896,-19.151821,-151.05567)"
       gradientUnits="userSpaceOnUse"
       id="linearGradient3682"
       xlink:href="#linearGradient3833"
       inkscape:collect="always" />
    <linearGradient
       id="linearGradient3833">
      <stop
         style="stop-color:#8fd400;stop-opacity:1;"
         offset="0"
         id="stop3835" />
      <stop
         style="stop-color:#daff31;stop-opacity:1;"
         offset="1"
         id="stop3837" />
    </linearGradient>
  </defs>
  <sodipodi:namedview
     id="base"
     pagecolor="#ffffff"
     bordercolor="#e7e7e7"
     borderopacity="1"
     inkscape:pageopacity="0.0"
     inkscape:pageshadow="2"
     inkscape:zoom="20.200456"
     inkscape:cx="-17.875111"
     inkscape:cy="11.653139"
     inkscape:document-units="px"
     inkscape:current-layer="layer1"
     showgrid="true"
     inkscape:showpageshadow="false"
     showguides="false"
     inkscape:guide-bbox="true"
     inkscape:window-width="1920"
     inkscape:window-height="1024"
     inkscape:window-x="0"
     inkscape:window-y="25"
     inkscape:window-maximized="1">
    <sodipodi:guide
       orientation="1,0"
       position="0,112"
       id="guide2383" />
    <sodipodi:guide
       orientation="0,1"
       position="26.278146,128"
       id="guide2385" />
    <sodipodi:guide
       orientation="1,0"
       position="128,54.082119"
       id="guide2387" />
    <sodipodi:guide
       orientation="0,1"
       position="78.156291,0"
       id="guide2389" />
    <sodipodi:guide
       orientation="0,1"
       position="60.863576,64.084768"
       id="guide2391" />
    <inkscape:grid
       type="xygrid"
       id="grid3672"
       visible="true"
       enabled="true" />
  </sodipodi:namedview>
  <metadata
     id="metadata7">
    <rdf:RDF>
      <cc:Work
         rdf:about="">
        <dc:format>image/svg+xml</dc:format>
        <dc:type
           rdf:resource="http://purl.org/dc/dcmitype/StillImage" />
        <dc:title></dc:title>
      </cc:Work>
    </rdf:RDF>
  </metadata>
  <g
     inkscape:label="Button"
     inkscape:groupmode="layer"
     id="layer1">
    <rect
       ry="2"
       rx="2"
       y="0"
       x="-16"
       height="16"
       width="16"
       id="rect3196"
       style="fill:url(#linearGradient3767);fill-opacity:1;fill-rule:nonzero;stroke:none;display:inline"
       transform="matrix(0,-1,1,0,0,0)" />
    <path
       style="opacity:0.4;fill:url(#linearGradient2897);fill-opacity:1;fill-rule:nonzero;stroke:none;display:inline"
       d="M 2,0 C 0.892,0 0,0.892 0,2 l 0,12 c 0,1.108 0.892,2 2,2 l 12,0 c 1.108,0 2,-0.892 2,-2 L 16,2 C 16,0.892 15.108,0 14,0 L 2,0 z m 0.5,1 11,0 C 14.331,1 15,1.669 15,2.5 l 0,11 c 0,0.831 -0.669,1.5 -1.5,1.5 l -11,0 C 1.669,15 1,14.331 1,13.5 L 1,2.5 C 1,1.669 1.669,1 2.5,1 z"
       id="rect2410" />
    <path
       style="opacity:0.6;fill:#ffffff;fill-opacity:1;stroke:none;display:inline"
       d="M 2.5,1 C 1.669,1 1,1.669 1,2.5 l 0,1 C 1,2.669 1.669,2 2.5,2 l 11,0 C 14.331,2 15,2.669 15,3.5 l 0,-1 C 15,1.669 14.331,1 13.5,1 l -11,0 z"
       id="rect3770" />
    <path
       sodipodi:type="inkscape:offset"
       inkscape:radius="0.50097859"
       inkscape:original="M 8 3.5 C 7.7101866 3.5 7.4325775 3.515184 7.15625 3.5625 L 7.15625 4.625 C 6.700834 4.7261092 6.2879167 4.9133072 5.90625 5.15625 L 5.125 4.40625 C 4.6514205 4.7382687 4.2397574 5.1526993 3.90625 5.625 L 4.6875 6.375 C 4.4443925 6.7564134 4.2574258 7.2011428 4.15625 7.65625 L 3.0625 7.65625 C 3.0137983 7.9362138 3 8.20612 3 8.5 C 3 8.7938854 3.0137983 9.0950336 3.0625 9.375 L 4.15625 9.375 C 4.2574264 9.830112 4.4443925 10.243594 4.6875 10.625 L 3.90625 11.375 C 4.240293 11.848054 4.6504712 12.261462 5.125 12.59375 L 5.90625 11.84375 C 6.2879167 12.086687 6.700834 12.273891 7.15625 12.375 L 7.15625 13.4375 C 7.4325775 13.484802 7.7101832 13.5 8 13.5 C 8.2979959 13.499996 8.5913188 13.48746 8.875 13.4375 L 8.875 12.375 C 9.3304151 12.273888 9.7433332 12.086697 10.125 11.84375 L 10.875 12.59375 C 11.348375 12.259938 11.761237 11.849208 12.09375 11.375 L 11.34375 10.625 C 11.586855 10.243589 11.77382 9.830112 11.875 9.375 L 12.9375 9.375 C 12.9862 9.0950349 13 8.7938775 13 8.5 C 13 8.2061279 12.986184 7.9362164 12.9375 7.65625 L 11.875 7.65625 C 11.773825 7.2011376 11.586855 6.7564081 11.34375 6.375 L 12.09375 5.625 C 11.761728 5.1514906 11.347497 4.7398057 10.875 4.40625 L 10.125 5.15625 C 9.7433332 4.9133097 9.3304151 4.7261104 8.875 4.625 L 8.875 3.59375 C 8.5913188 3.5437958 8.2979959 3.5 8 3.5 z M 8 6.1875 C 9.2712114 6.1875066 10.3125 7.2296499 10.3125 8.5 C 10.3125 9.7703528 9.2712114 10.8125 8 10.8125 C 6.7287896 10.812505 5.6875 9.7703498 5.6875 8.5 C 5.6875 7.2296565 6.7287896 6.1875 8 6.1875 z "
       style="opacity:0.2;fill:#000000;fill-opacity:1;fill-rule:nonzero;stroke:none;stroke-width:1;marker:none;visibility:visible;display:inline;overflow:visible;enable-background:accumulate"
       id="path3704"
       d="M 8,3 C 7.6926883,3 7.3762706,3.0087726 7.0625,3.0625 a 0.50102869,0.50102869 0 0 0 -0.40625,0.5 l 0,0.71875 C 6.4396312,4.3548689 6.2286262,4.459266 6.03125,4.5625 L 5.46875,4.03125 A 0.50102869,0.50102869 0 0 0 4.84375,4 C 4.3214576,4.3661705 3.8659022,4.8255729 3.5,5.34375 A 0.50102869,0.50102869 0 0 0 3.5625,6 L 4.09375,6.5 C 3.9872513,6.7087194 3.8863403,6.9306464 3.8125,7.15625 l -0.75,0 a 0.50102869,0.50102869 0 0 0 -0.5,0.40625 C 2.507219,7.8802853 2.5,8.1904386 2.5,8.5 c 0,0.3095665 0.00614,0.6447631 0.0625,0.96875 a 0.50102869,0.50102869 0 0 0 0.5,0.40625 l 0.75,0 c 0.073572,0.216579 0.1779692,0.427505 0.28125,0.625 L 3.5625,11 A 0.50102869,0.50102869 0 0 0 3.5,11.65625 C 3.8661781,12.174812 4.3204089,12.633531 4.84375,13 a 0.50102869,0.50102869 0 0 0 0.625,-0.03125 l 0.5625,-0.53125 c 0.1973745,0.103233 0.408381,0.20763 0.625,0.28125 l 0,0.71875 a 0.50102869,0.50102869 0 0 0 0.40625,0.5 C 7.3762384,13.991206 7.692669,14 8,14 c 0.3120415,-4e-6 0.641072,-0.0048 0.96875,-0.0625 a 0.50102869,0.50102869 0 0 0 0.40625,-0.5 l 0,-0.71875 c 0.2257509,-0.07672 0.4513757,-0.172533 0.65625,-0.28125 l 0.5,0.5 A 0.50102869,0.50102869 0 0 0 11.15625,13 C 11.675679,12.633712 12.133641,12.178727 12.5,11.65625 a 0.50102869,0.50102869 0 0 0 -0.0625,-0.625 l -0.5,-0.5 c 0.108772,-0.204997 0.204576,-0.430541 0.28125,-0.65625 l 0.71875,0 a 0.50102869,0.50102869 0 0 0 0.5,-0.40625 C 13.493857,9.144766 13.5,8.8095609 13.5,8.5 c 0,-0.309574 -0.0072,-0.6197503 -0.0625,-0.9375 a 0.50102869,0.50102869 0 0 0 -0.5,-0.40625 l -0.71875,0 C 12.141912,6.9214879 12.049597,6.6850591 11.9375,6.46875 l 0.5,-0.5 A 0.50102869,0.50102869 0 0 0 12.5,5.34375 C 12.133892,4.821629 11.67471,4.3660029 11.15625,4 a 0.50102869,0.50102869 0 0 0 -0.625,0.0625 l -0.5,0.5 C 9.8263779,4.4537848 9.6007516,4.3579732 9.375,4.28125 l 0,-0.6875 a 0.50102869,0.50102869 0 0 0 -0.40625,-0.5 C 8.6762336,3.04224 8.347081,3 8,3 z M 8,6.6875 C 8.9974102,6.6875052 9.8125,7.5034134 9.8125,8.5 9.8125,9.4965899 8.9974078,10.3125 8,10.3125 7.0025966,10.312504 6.1875,9.4965859 6.1875,8.5 6.1875,7.5034217 7.0025959,6.6875 8,6.6875 z" />
    <path
       inkscape:transform-center-y="0.031574809"
       inkscape:transform-center-x="0.039724477"
       id="path3698"
       d="m 8.0033877,3.499989 c -0.2898134,0 -0.5767527,0.027114 -0.8530802,0.07443 l 0,1.0622458 C 6.6948915,4.737774 6.2726647,4.921462 5.890998,5.1644048 L 5.1327017,4.4066196 C 4.6591222,4.7386383 4.247522,5.1521815 3.9140146,5.6244822 L 4.6723102,6.3822634 C 4.4292027,6.7636768 4.2453886,7.1856156 4.1442128,7.6407228 l -1.0697394,0 C 3.0257717,7.9206866 3,8.206113 3,8.499993 c 0,0.2938854 0.025772,0.5860674 0.074473,0.8660338 l 1.0697394,0 c 0.1011764,0.455112 0.2849899,0.8770542 0.5280974,1.2584602 l -0.7582956,0.757781 c 0.334043,0.473054 0.7509289,0.87881 1.2254577,1.211098 L 5.890998,11.842349 c 0.3816667,0.242937 0.8038935,0.426633 1.2593095,0.527742 l 0,1.055479 C 7.426635,13.47287 7.7135709,13.5 8.0033877,13.5 c 0.2979959,-4e-6 0.5897134,-0.02447 0.8733946,-0.07443 l 0,-1.05548 c 0.4554151,-0.101112 0.8776419,-0.284798 1.2593087,-0.527745 l 0.737984,0.74425 c 0.473375,-0.333812 0.892944,-0.743653 1.225457,-1.217861 l -0.744751,-0.744247 c 0.243105,-0.381411 0.426915,-0.8033482 0.528095,-1.2584602 l 1.042657,0 C 12.974233,9.0860617 13,8.7938705 13,8.499993 13,8.2061209 12.97422,7.9206892 12.92553,7.6407228 l -1.042657,0 C 11.781701,7.1856104 11.597886,6.7636715 11.354781,6.3822634 l 0.744751,-0.744249 C 11.76751,5.164505 11.35334,4.7469414 10.880843,4.4133857 L 10.136091,5.1643995 C 9.7544242,4.9214592 9.3321974,4.73777 8.8767823,4.6366596 l 0,-1.0554798 C 8.5931011,3.5312256 8.3013836,3.499994 8.0033877,3.499994 z m -0.00675,2.6995959 c 1.2712114,6.6e-6 2.3087363,1.030058 2.3087363,2.3004081 0,1.2703528 -1.0375249,2.300409 -2.3087363,2.300409 -1.2712104,5e-6 -2.3019648,-1.0300592 -2.3019648,-2.300409 0,-1.2703435 1.0307544,-2.3004081 2.3019648,-2.3004081 z"
       style="opacity:0.4;fill:#000000;fill-opacity:1;fill-rule:nonzero;stroke:none;stroke-width:1;marker:none;visibility:visible;display:inline;overflow:visible;enable-background:accumulate" />
    <path
       style="fill:url(#linearGradient3682);fill-opacity:1;fill-rule:nonzero;stroke:none;stroke-width:1;marker:none;visibility:visible;display:inline;overflow:visible;enable-background:accumulate"
       d="m 8.0033877,2.999989 c -0.2898134,0 -0.5767527,0.027114 -0.8530802,0.07443 l 0,1.0622458 C 6.6948915,4.237774 6.2726647,4.421462 5.890998,4.6644048 L 5.1327017,3.9066196 C 4.6591222,4.2386383 4.247522,4.6521815 3.9140146,5.1244822 L 4.6723102,5.8822634 C 4.4292027,6.2636768 4.2453886,6.6856156 4.1442128,7.1407228 l -1.0697394,0 C 3.0257717,7.4206866 3,7.706113 3,7.999993 c 0,0.2938854 0.025772,0.5860674 0.074473,0.8660338 l 1.0697394,0 c 0.1011764,0.455112 0.2849899,0.877054 0.5280974,1.2584602 l -0.7582956,0.757781 c 0.334043,0.473054 0.7509289,0.87881 1.2254577,1.211098 L 5.890998,11.342349 c 0.3816667,0.242937 0.8038935,0.426633 1.2593095,0.527742 l 0,1.055479 C 7.426635,12.972872 7.7135709,13 8.0033877,13 c 0.2979959,-4e-6 0.5897134,-0.02447 0.8733946,-0.07443 l 0,-1.05548 c 0.4554151,-0.101112 0.8776419,-0.284798 1.2593087,-0.527745 l 0.737984,0.74425 c 0.473375,-0.333812 0.892944,-0.743653 1.225457,-1.217861 l -0.744751,-0.744247 c 0.243105,-0.3814112 0.426915,-0.8033482 0.528095,-1.2584602 l 1.042657,0 C 12.974233,8.5860617 13,8.2938705 13,7.999993 13,7.7061209 12.97422,7.4206892 12.92553,7.1407228 l -1.042657,0 C 11.781701,6.6856104 11.597886,6.2636715 11.354781,5.8822634 l 0.744751,-0.744249 C 11.76751,4.664505 11.35334,4.2469414 10.880843,3.9133857 L 10.136091,4.6643995 C 9.7544242,4.4214592 9.3321974,4.23777 8.8767823,4.1366596 l 0,-1.0554798 C 8.5931011,3.0312256 8.3013836,2.999994 8.0033877,2.999994 z m -0.00675,2.6995959 c 1.2712114,6.6e-6 2.3087363,1.030058 2.3087363,2.3004081 0,1.2703528 -1.0375249,2.300409 -2.3087363,2.300409 -1.2712104,5e-6 -2.3019648,-1.0300592 -2.3019648,-2.300409 0,-1.2703435 1.0307544,-2.3004081 2.3019648,-2.3004081 z"
       id="path3614"
       inkscape:transform-center-x="0.039724477"
       inkscape:transform-center-y="0.031574809" />
  </g>
  <g
     inkscape:groupmode="layer"
     id="layer2"
     inkscape:label="Symbol"
     sodipodi:insensitive="true" />
</svg>
