<?xml version="1.0" encoding="UTF-8" standalone="no"?>
<!-- Created with Inkscape (http://www.inkscape.org/) -->

<svg
   xmlns:dc="http://purl.org/dc/elements/1.1/"
   xmlns:cc="http://creativecommons.org/ns#"
   xmlns:rdf="http://www.w3.org/1999/02/22-rdf-syntax-ns#"
   xmlns:svg="http://www.w3.org/2000/svg"
   xmlns="http://www.w3.org/2000/svg"
   xmlns:xlink="http://www.w3.org/1999/xlink"
   xmlns:sodipodi="http://sodipodi.sourceforge.net/DTD/sodipodi-0.dtd"
   xmlns:inkscape="http://www.inkscape.org/namespaces/inkscape"
   width="16"
   height="16"
   id="svg2"
   sodipodi:version="0.32"
   inkscape:version="0.47 r22583"
   version="1.0"
   sodipodi:docname="text-x-bak.svg"
   inkscape:output_extension="org.inkscape.output.svg.inkscape"
   style="display:inline">
  <defs
     id="defs4">
    <inkscape:perspective
       sodipodi:type="inkscape:persp3d"
       inkscape:vp_x="0 : 8 : 1"
       inkscape:vp_y="0 : 1000 : 0"
       inkscape:vp_z="16 : 8 : 1"
       inkscape:persp3d-origin="8 : 5.3333333 : 1"
       id="perspective26" />
    <linearGradient
       inkscape:collect="always"
       id="linearGradient3327">
      <stop
         style="stop-color:#000000;stop-opacity:1;"
         offset="0"
         id="stop3330" />
      <stop
         style="stop-color:#000000;stop-opacity:0;"
         offset="1"
         id="stop3333" />
    </linearGradient>
    <linearGradient
       id="ButtonColor"
       x1="10.31979"
       y1="21"
       x2="10.31979"
       y2="0.99929649"
       gradientUnits="userSpaceOnUse">
      <stop
         style="stop-color:#e6e6e6;stop-opacity:1;"
         offset="0"
         id="stop3189" />
      <stop
         style="stop-color:#f5f5f5;stop-opacity:1;"
         offset="1"
         id="stop3191" />
    </linearGradient>
    <linearGradient
       inkscape:collect="always"
       xlink:href="#linearGradient3327"
       id="linearGradient3192"
       x1="9.0574636"
       y1="10.202822"
       x2="9.0574636"
       y2="-12.198761"
       gradientUnits="userSpaceOnUse"
       gradientTransform="translate(0,5.8006549)" />
    <linearGradient
       inkscape:collect="always"
       xlink:href="#ButtonColor"
       id="linearGradient3204"
       x1="1"
       y1="9"
       x2="15"
       y2="9"
       gradientUnits="userSpaceOnUse"
       gradientTransform="translate(-16,-1)" />
    <linearGradient
       inkscape:collect="always"
       xlink:href="#ButtonColor"
       id="linearGradient3173"
       gradientUnits="userSpaceOnUse"
       gradientTransform="translate(-16,-1)"
       x1="1"
       y1="9"
       x2="15"
       y2="9" />
    <linearGradient
       inkscape:collect="always"
       xlink:href="#ButtonColor"
       id="linearGradient3177"
       gradientUnits="userSpaceOnUse"
       gradientTransform="translate(-16,-1)"
       x1="1"
       y1="9"
       x2="15"
       y2="9" />
    <linearGradient
       inkscape:collect="always"
       xlink:href="#ButtonColor"
       id="linearGradient3179"
       gradientUnits="userSpaceOnUse"
       gradientTransform="matrix(0,-1,1,0,-1,16)"
       x1="1"
       y1="9"
       x2="15"
       y2="9" />
    <linearGradient
       inkscape:collect="always"
       xlink:href="#linearGradient3327"
       id="linearGradient3612"
       x1="8"
       y1="15"
       x2="8"
       y2="-1"
       gradientUnits="userSpaceOnUse" />
    <inkscape:perspective
       id="perspective3752"
       inkscape:persp3d-origin="0.5 : 0.33333333 : 1"
       inkscape:vp_z="1 : 0.5 : 1"
       inkscape:vp_y="0 : 1000 : 0"
       inkscape:vp_x="0 : 0.5 : 1"
       sodipodi:type="inkscape:persp3d" />
    <linearGradient
       inkscape:collect="always"
       xlink:href="#ButtonColor-5"
       id="linearGradient3204-0"
       x1="1"
       y1="9"
       x2="16.955648"
       y2="9"
       gradientUnits="userSpaceOnUse"
       gradientTransform="translate(-17,-2)" />
    <linearGradient
       id="ButtonColor-5"
       x1="10.31979"
       y1="21"
       x2="10.31979"
       y2="0.99929649"
       gradientUnits="userSpaceOnUse">
      <stop
         style="stop-color:#e6e6e6;stop-opacity:1;"
         offset="0"
         id="stop3189-0" />
      <stop
         style="stop-color:#f5f5f5;stop-opacity:1;"
         offset="1"
         id="stop3191-2" />
    </linearGradient>
    <linearGradient
       y2="-19.30397"
       x2="9.0574636"
       y1="10.202822"
       x1="9.0574636"
       gradientTransform="translate(-0.499722,5.300655)"
       gradientUnits="userSpaceOnUse"
       id="linearGradient2897"
       xlink:href="#linearGradient3327-7"
       inkscape:collect="always" />
    <linearGradient
       inkscape:collect="always"
       id="linearGradient3327-7">
      <stop
         style="stop-color:#000000;stop-opacity:1;"
         offset="0"
         id="stop3330-6" />
      <stop
         style="stop-color:#000000;stop-opacity:0;"
         offset="1"
         id="stop3333-8" />
    </linearGradient>
    <linearGradient
       y2="9"
       x2="16.955648"
       y1="9"
       x1="1"
       gradientTransform="translate(-17,-2)"
       gradientUnits="userSpaceOnUse"
       id="linearGradient3767"
       xlink:href="#linearGradient3668"
       inkscape:collect="always" />
    <inkscape:perspective
       id="perspective3716"
       inkscape:persp3d-origin="0.5 : 0.33333333 : 1"
       inkscape:vp_z="1 : 0.5 : 1"
       inkscape:vp_y="0 : 1000 : 0"
       inkscape:vp_x="0 : 0.5 : 1"
       sodipodi:type="inkscape:persp3d" />
    <linearGradient
       inkscape:collect="always"
       xlink:href="#linearGradient3668"
       id="linearGradient3181"
       x1="-3.0607977"
       y1="27.258198"
       x2="-3.0607977"
       y2="7.2536583"
       gradientUnits="userSpaceOnUse"
       gradientTransform="translate(12.119372,-7.2581977)" />
    <linearGradient
       id="linearGradient3668">
      <stop
         id="stop3670"
         offset="0"
         style="stop-color:#e5e6b5;stop-opacity:1;" />
      <stop
         id="stop3672"
         offset="1"
         style="stop-color:#f6f6dc;stop-opacity:1;" />
    </linearGradient>
    <linearGradient
       inkscape:collect="always"
       xlink:href="#linearGradient4360"
       id="linearGradient3759"
       gradientUnits="userSpaceOnUse"
       gradientTransform="matrix(0.15214176,0,0,0.16190877,-21.384116,-1.8260604)"
       x1="62.136082"
       y1="103.95654"
       x2="62.136082"
       y2="24.043467" />
    <linearGradient
       id="linearGradient4360">
      <stop
         style="stop-color:#4f821e;stop-opacity:1;"
         offset="0"
         id="stop4362" />
      <stop
         style="stop-color:#639632;stop-opacity:1;"
         offset="1"
         id="stop4364" />
    </linearGradient>
    <linearGradient
       y2="7.2536583"
       x2="-3.0607977"
       y1="27.258198"
       x1="-3.0607977"
       gradientTransform="translate(-20.880628,-7.2581977)"
       gradientUnits="userSpaceOnUse"
       id="linearGradient3730"
       xlink:href="#linearGradient3668"
       inkscape:collect="always" />
    <linearGradient
       inkscape:collect="always"
       xlink:href="#linearGradient4360"
       id="linearGradient3679"
       x1="7.6343994"
       y1="12.919167"
       x2="7.6343994"
       y2="2.0223684"
       gradientUnits="userSpaceOnUse" />
  </defs>
  <sodipodi:namedview
     id="base"
     pagecolor="#ffffff"
     bordercolor="#e7e7e7"
     borderopacity="1"
     inkscape:pageopacity="0.0"
     inkscape:pageshadow="2"
     inkscape:zoom="28.04203"
     inkscape:cx="-7.3012763"
     inkscape:cy="7.5743932"
     inkscape:document-units="px"
     inkscape:current-layer="layer1"
     showgrid="true"
     inkscape:showpageshadow="false"
     showguides="false"
     inkscape:guide-bbox="true"
     inkscape:window-width="1920"
     inkscape:window-height="1023"
     inkscape:window-x="0"
     inkscape:window-y="24"
     inkscape:window-maximized="1"
     inkscape:snap-global="false">
    <sodipodi:guide
       orientation="1,0"
       position="0,112"
       id="guide2383" />
    <sodipodi:guide
       orientation="0,1"
       position="26.278146,128"
       id="guide2385" />
    <sodipodi:guide
       orientation="1,0"
       position="128,54.082119"
       id="guide2387" />
    <sodipodi:guide
       orientation="0,1"
       position="78.156291,0"
       id="guide2389" />
    <sodipodi:guide
       orientation="0,1"
       position="60.863576,64.084768"
       id="guide2391" />
    <inkscape:grid
       type="xygrid"
       id="grid3672"
       visible="true"
       enabled="true" />
  </sodipodi:namedview>
  <metadata
     id="metadata7">
    <rdf:RDF>
      <cc:Work
         rdf:about="">
        <dc:format>image/svg+xml</dc:format>
        <dc:type
           rdf:resource="http://purl.org/dc/dcmitype/StillImage" />
        <dc:title></dc:title>
      </cc:Work>
    </rdf:RDF>
  </metadata>
  <g
     inkscape:label="Button"
     inkscape:groupmode="layer"
     id="layer1">
    <rect
       ry="2"
       rx="2"
       y="0"
       x="-16"
       height="16"
       width="16"
       id="rect3196"
       style="fill:url(#linearGradient3767);fill-opacity:1.0;fill-rule:nonzero;stroke:none;display:inline"
       transform="matrix(0,-1,1,0,0,0)" />
    <path
       style="opacity:0.4;fill:url(#linearGradient2897);fill-opacity:1;fill-rule:nonzero;stroke:none;display:inline"
       d="M 2,0 C 0.892,0 0,0.892 0,2 l 0,12 c 0,1.108 0.892,2 2,2 l 12,0 c 1.108,0 2,-0.892 2,-2 L 16,2 C 16,0.892 15.108,0 14,0 L 2,0 z m 0.5,1 11,0 C 14.331,1 15,1.669 15,2.5 l 0,11 c 0,0.831 -0.669,1.5 -1.5,1.5 l -11,0 C 1.669,15 1,14.331 1,13.5 L 1,2.5 C 1,1.669 1.669,1 2.5,1 z"
       id="rect2410" />
    <path
       style="opacity:0.6;fill:#ffffff;fill-opacity:1;stroke:none;display:inline"
       d="M 2.5,1 C 1.669,1 1,1.669 1,2.5 l 0,1 C 1,2.669 1.669,2 2.5,2 l 11,0 C 14.331,2 15,2.669 15,3.5 l 0,-1 C 15,1.669 14.331,1 13.5,1 l -11,0 z"
       id="rect3770" />
    <path
       style="fill:url(#linearGradient3759);fill-opacity:1;stroke:none;display:inline"
       d="m -9.902643,2.5722024 -3.158845,0.00634 c 0.343799,0.2186507 0.79949,0.7089287 1.17509,1.269855 0.41953,0.6265336 0.602855,0.8581444 0.853948,1.4881028 l -0.890794,0.518047 2.993525,0.4829977 1.17615,-2.9911392 L -8.46115,3.8202322 -8.759142,3.4566791 C -9.059874,2.9753806 -9.335585,2.6263784 -9.902643,2.5722024 z m -3.91065,0.1010828 c -0.192865,-0.0041 -0.398419,0.030051 -0.625452,0.1200362 L -15.816,4.833935 -13.390008,6.4575811 -12.088564,4 c -0.359673,-0.5306349 -0.888978,-1.3089886 -1.724729,-1.3267148 z m 6.665162,3.468412 -2.444946,1.5731043 1.130866,2.4512635 0.972925,0.0063 c 0.568187,0.0066 1.482555,-0.8307317 1.446751,-1.4341157 l -1.105596,-2.5965697 0,-1.94e-5 z m -8.105596,0.6128152 -2.753717,0.4087951 0.84657,0.4611913 -0.171372,0.336693 c -0.917497,1.961533 0.24305,2.9180542 1.617328,4.8267142 -0.196383,-0.473834 -0.184588,-0.980931 -0.01264,-1.472021 l 1.106391,-2.3457178 0.76444,0.3980142 -1.397004,-2.613669 z m 5.487953,2.8113722 -1.602574,2.4828514 1.602574,2.451264 0.0063,-1.01083 0.336958,0 c 2.058932,-8.95e-4 2.343393,-1.529288 3.33574,-3.6895311 -0.310931,0.3983821 -0.742231,0.6081181 -1.23195,0.6633581 l -2.440766,0.0063 -0.0063,-0.903429 1.9e-5,-1.94e-5 z m -2.354381,0.8086644 -2.83664,0.09477 -0.442238,0.916065 c -0.258902,0.538282 0.03883,1.786659 0.562274,2.021661 l 2.697654,0 0.01895,-3.032491 z"
       id="path4068"
       sodipodi:nodetypes="ccsccccccccccccccccccccccccccccccccccccccccccccc" />
    <path
       style="fill:url(#linearGradient3679);stroke:none;stroke-width:1px;stroke-linecap:butt;stroke-linejoin:miter;stroke-opacity:1;fill-opacity:1"
       d="M 6.8125 2 L 4.8125 4.21875 L 6.34375 5.5 L 7.5 3.84375 L 9.0625 3.875 L 9.5625 5.375 L 8.21875 5.875 L 11.03125 6.78125 L 12.46875 4.15625 L 11.03125 4.71875 L 9.90625 2 L 6.8125 2 z M 4.90625 6.625 L 2 7.21875 L 3.34375 7.96875 L 2.03125 10.59375 L 4.0625 12.9375 L 7.03125 13 L 7 11 L 5 11 L 4 10 L 4.8125 8.65625 L 6.0625 9.34375 L 4.90625 6.625 z M 12.625 7.125 L 10.875 8.09375 L 12.15625 10 L 11.5625 11.0625 L 9.8125 11.125 L 9.84375 9.71875 L 7.96875 12 L 9.875 14.28125 L 9.90625 12.875 L 12.71875 12.90625 L 13.96875 9.78125 L 12.625 7.125 z "
       id="path3666" />
  </g>
  <g
     inkscape:groupmode="layer"
     id="layer2"
     inkscape:label="Symbol"
     sodipodi:insensitive="true" />
</svg>
