<?xml version="1.0" encoding="UTF-8" standalone="no"?>
<!-- Created with Inkscape (http://www.inkscape.org/) -->

<svg
   xmlns:dc="http://purl.org/dc/elements/1.1/"
   xmlns:cc="http://creativecommons.org/ns#"
   xmlns:rdf="http://www.w3.org/1999/02/22-rdf-syntax-ns#"
   xmlns:svg="http://www.w3.org/2000/svg"
   xmlns="http://www.w3.org/2000/svg"
   xmlns:xlink="http://www.w3.org/1999/xlink"
   xmlns:sodipodi="http://sodipodi.sourceforge.net/DTD/sodipodi-0.dtd"
   xmlns:inkscape="http://www.inkscape.org/namespaces/inkscape"
   width="24"
   height="24"
   id="svg2"
   sodipodi:version="0.32"
   inkscape:version="0.48.0 r9654"
   version="1.0"
   sodipodi:docname="application-x-ms-dos-executable.svg"
   inkscape:output_extension="org.inkscape.output.svg.inkscape"
   style="display:inline">
  <defs
     id="defs4">
    <linearGradient
       inkscape:collect="always"
       id="linearGradient3327">
      <stop
         style="stop-color:#000000;stop-opacity:1;"
         offset="0"
         id="stop3330" />
      <stop
         style="stop-color:#000000;stop-opacity:0;"
         offset="1"
         id="stop3333" />
    </linearGradient>
    <linearGradient
       inkscape:collect="always"
       xlink:href="#linearGradient3327"
       id="linearGradient3335"
       x1="11.375"
       y1="22"
       x2="11.375"
       y2="-9.817296"
       gradientUnits="userSpaceOnUse"
       gradientTransform="translate(10,0)" />
    <inkscape:perspective
       sodipodi:type="inkscape:persp3d"
       inkscape:vp_x="0 : 11 : 1"
       inkscape:vp_y="0 : 1000 : 0"
       inkscape:vp_z="22 : 11 : 1"
       inkscape:persp3d-origin="11 : 7.3333333 : 1"
       id="perspective2531" />
    <linearGradient
       id="ButtonShadow"
       gradientTransform="scale(0.9883037,1.0118347)"
       x1="9.3550024"
       y1="21.742682"
       x2="9.3550024"
       y2="0.49362123"
       gradientUnits="userSpaceOnUse">
      <stop
         id="stop3277"
         offset="0"
         style="stop-color:#000000;stop-opacity:0.70588237;" />
      <stop
         id="stop3279"
         offset="1"
         style="stop-color:#000000;stop-opacity:0.15686275;" />
    </linearGradient>
    <linearGradient
       inkscape:collect="always"
       id="linearGradient3232">
      <stop
         style="stop-color:#000000;stop-opacity:1;"
         offset="0"
         id="stop3234" />
      <stop
         style="stop-color:#000000;stop-opacity:0;"
         offset="1"
         id="stop3236" />
    </linearGradient>
    <linearGradient
       gradientUnits="userSpaceOnUse"
       y2="-6.0004225"
       x2="11"
       y1="14.805666"
       x1="11"
       id="linearGradient3221"
       xlink:href="#linearGradient3232"
       inkscape:collect="always" />
    <linearGradient
       id="ButtonColor"
       x1="10.31979"
       y1="21"
       x2="10.31979"
       y2="0.99929649"
       gradientUnits="userSpaceOnUse">
      <stop
         style="stop-color:#e6e6e6;stop-opacity:1;"
         offset="0"
         id="stop3189" />
      <stop
         style="stop-color:#f5f5f5;stop-opacity:1;"
         offset="1"
         id="stop3191" />
    </linearGradient>
    <linearGradient
       inkscape:collect="always"
       xlink:href="#ButtonShadow"
       id="linearGradient38042"
       gradientUnits="userSpaceOnUse"
       gradientTransform="scale(0.9883037,1.0118347)"
       x1="9.3550024"
       y1="21.742682"
       x2="9.3550024"
       y2="0.49362123" />
    <filter
       inkscape:collect="always"
       id="filter3194"
       x="-0.18000001"
       width="1.36"
       y="-0.18000001"
       height="1.36"
       color-interpolation-filters="sRGB">
      <feGaussianBlur
         inkscape:collect="always"
         stdDeviation="1.2"
         id="feGaussianBlur3196" />
    </filter>
    <clipPath
       clipPathUnits="userSpaceOnUse"
       id="clipPath2849">
      <rect
         ry="2"
         rx="2"
         y="1"
         x="1"
         height="20"
         width="20"
         id="rect2851"
         style="fill:#ffffff;fill-opacity:1;fill-rule:evenodd;stroke:none;display:inline" />
    </clipPath>
    <inkscape:perspective
       id="perspective3912"
       inkscape:persp3d-origin="0.5 : 0.33333333 : 1"
       inkscape:vp_z="1 : 0.5 : 1"
       inkscape:vp_y="0 : 1000 : 0"
       inkscape:vp_x="0 : 0.5 : 1"
       sodipodi:type="inkscape:persp3d" />
    <inkscape:perspective
       id="perspective3925"
       inkscape:persp3d-origin="0.5 : 0.33333333 : 1"
       inkscape:vp_z="1 : 0.5 : 1"
       inkscape:vp_y="0 : 1000 : 0"
       inkscape:vp_x="0 : 0.5 : 1"
       sodipodi:type="inkscape:persp3d" />
    <linearGradient
       inkscape:collect="always"
       xlink:href="#linearGradient7450"
       id="linearGradient3879"
       gradientUnits="userSpaceOnUse"
       gradientTransform="matrix(0.4552109,0,0,-0.4552109,-19.760142,37.361259)"
       x1="99.142372"
       y1="67.187523"
       x2="99.142372"
       y2="-112.17552" />
    <linearGradient
       id="linearGradient7450">
      <stop
         style="stop-color:#f0f0f0;stop-opacity:1;"
         offset="0"
         id="stop7452" />
      <stop
         style="stop-color:#b4b4b4;stop-opacity:1;"
         offset="1"
         id="stop7454" />
    </linearGradient>
    <inkscape:perspective
       id="perspective2920"
       inkscape:persp3d-origin="0.5 : 0.33333333 : 1"
       inkscape:vp_z="1 : 0.5 : 1"
       inkscape:vp_y="0 : 1000 : 0"
       inkscape:vp_x="0 : 0.5 : 1"
       sodipodi:type="inkscape:persp3d" />
    <clipPath
       clipPathUnits="userSpaceOnUse"
       id="clipPath3739">
      <path
         style="fill:#ffffff;fill-opacity:1;fill-rule:evenodd;stroke:none;display:inline"
         mask="none"
         clip-path="none"
         d="m 33,1 c -0.277,0 -0.541812,0.055313 -0.78125,0.15625 -0.37163,0.2634649 -0.714453,0.582314 -1,0.9375 C 31.081214,2.3653804 31,2.6735987 31,3 l 0,4.96875 c 0.890327,1.293115 2.373856,2.156251 4.0625,2.15625 C 37.789358,10.125 40,7.9143583 40,5.1875 40,3.4170094 39.056314,1.8714716 37.65625,1 L 33,1 z m 7.53125,0 0.5625,0.84375 0.46875,-0.25 L 42,1.5 l 1.125,0 0.25,0.59375 -0.75,0.8125 -0.40625,0.25 -0.53125,0.15625 0.25,1.09375 0.5,-0.0625 0.46875,0.0625 1.03125,0.4375 0,0.65625 L 42.90625,5.96875 42.4375,6 l -0.5,-0.03125 -0.25,1.125 L 42.21875,7.25 42.625,7.46875 43.375,8.28125 43.125,8.875 42,8.90625 41.5625,8.78125 41.09375,8.5 l -0.625,0.96875 0.375,0.3125 0.3125,0.40625 0.4375,1.03125 L 41.125,11.6875 40.09375,11.25 39.6875,11 39.375,10.5625 l -0.96875,0.65625 0.25,0.4375 0.15625,0.5 -0.03125,1.0625 L 38.15625,13.5 37.375,12.71875 37.09375,12.3125 37,11.78125 l -1.125,0.25 0.03125,0.5 -0.0625,0.5 -0.4375,1 -0.65625,0 -0.46875,-1 -0.03125,-0.5 0.03125,-0.5 -1.125,-0.25 L 33.0625,12.3125 32.78125,12.71875 32,13.5 l -0.59375,-0.28125 -0.0625,-1.0625 0.15625,-0.5 0.25,-0.4375 -0.75,-0.5 L 31,19 c 0,1.108 0.892,2 2,2 l 6.84375,0 0.28125,-0.25 0.46875,-0.25 -0.46875,-1.15625 -0.53125,0.1875 -0.5,0.03125 -1.15625,-0.25 -0.15625,-0.6875 0.96875,-0.6875 0.5,-0.15625 0.53125,-0.0625 0,-1.21875 -0.53125,-0.03125 -0.5,-0.1875 -1,-0.65625 0.15625,-0.6875 1.15625,-0.25 0.5,0 0.53125,0.1875 0.46875,-1.15625 -0.5,-0.25 -0.40625,-0.3125 -0.625,-1 0.375,-0.59375 1.15625,0.1875 0.5,0.25 0.40625,0.34375 0.84375,-0.875 -0.34375,-0.40625 -0.21875,-0.46875 -0.21875,-1.1875 0.5625,-0.375 1,0.625 0.34375,0.375 0.28125,0.5 1.125,-0.46875 L 44.65625,9.53125 44.625,9 l 0.25,-1.15625 0.6875,-0.125 0.6875,0.96875 0.15625,0.46875 0.0625,0.5625 1.21875,-0.03125 0.03125,-0.53125 0.1875,-0.5 L 48.5625,7.6875 49.25,7.8125 49.53125,8.96875 49.5,9.5 49.3125,10 50.46875,10.46875 50.71875,10 51,9.65625 51,3 C 51,1.892 50.108,1 49,1 l -8.46875,0 z m -5.5,0.3125 c 2.121665,0 3.84375,1.7220854 3.84375,3.84375 C 38.875,7.2779146 37.152915,9 35.03125,9 32.909585,9 31.1875,7.2779146 31.1875,5.15625 c 0,-2.1216646 1.722085,-3.84375 3.84375,-3.84375 z m 0,1.71875 c -1.24195,0 -2.25,0.9520473 -2.25,2.125 0,1.1729527 1.00805,2.125 2.25,2.125 1.24195,0 2.25,-0.9520473 2.25,-2.125 0,-1.1729527 -1.00805,-2.125 -2.25,-2.125 z m 12.09375,8.375 c -1.276229,0 -2.459907,0.441669 -3.40625,1.15625 l 1.8125,1.9375 c 0.461136,-0.287236 1.010845,-0.4375 1.59375,-0.4375 0.293976,0 0.575112,0.04631 0.84375,0.125 l 1.21875,-2.375 C 48.547284,11.560333 47.854584,11.40625 47.125,11.40625 z m 3.09375,0.9375 L 49,14.71875 c 0.685742,0.544483 1.11379,1.372153 1.125,2.3125 L 51,17.1875 51,12.96875 c -0.242222,-0.227764 -0.502051,-0.44206 -0.78125,-0.625 z m -7.34375,1 c -0.873486,0.993935 -1.40625,2.292591 -1.40625,3.71875 0,0.637183 0.117557,1.240877 0.3125,1.8125 L 44.1875,17.78125 C 44.1323,17.553494 44.125,17.307133 44.125,17.0625 c 0,-0.662658 0.199196,-1.28387 0.5625,-1.78125 l -1.8125,-1.9375 z m 4.25,2.75 c -0.535035,0 -0.96875,0.433715 -0.96875,0.96875 0,0.535035 0.433715,0.96875 0.96875,0.96875 0.535035,0 0.96875,-0.433715 0.96875,-0.96875 0,-0.535035 -0.433715,-0.96875 -0.96875,-0.96875 z m 2.8125,2.0625 c -0.322038,0.823782 -1.002368,1.464646 -1.84375,1.75 L 48.25,21 49,21 c 1.108,0 2,-0.892 2,-2 l 0,-0.65625 -1.0625,-0.1875 z m -5.25,0.65625 -2.4375,1.125 c 0.230479,0.390313 0.497541,0.7398 0.8125,1.0625 l 4,0 -0.125,-0.9375 c -0.933758,-0.05393 -1.735493,-0.535346 -2.25,-1.25 z"
         id="path3741" />
    </clipPath>
    <filter
       inkscape:collect="always"
       id="filter3743"
       color-interpolation-filters="sRGB">
      <feGaussianBlur
         inkscape:collect="always"
         stdDeviation="0.8"
         id="feGaussianBlur3745" />
    </filter>
    <linearGradient
       inkscape:collect="always"
       xlink:href="#linearGradient7450"
       id="linearGradient3691"
       x1="31"
       y1="11"
       x2="51"
       y2="11"
       gradientUnits="userSpaceOnUse" />
    <inkscape:perspective
       id="perspective2937"
       inkscape:persp3d-origin="0.5 : 0.33333333 : 1"
       inkscape:vp_z="1 : 0.5 : 1"
       inkscape:vp_y="0 : 1000 : 0"
       inkscape:vp_x="0 : 0.5 : 1"
       sodipodi:type="inkscape:persp3d" />
    <linearGradient
       inkscape:collect="always"
       xlink:href="#linearGradient3764"
       id="linearGradient3687"
       gradientUnits="userSpaceOnUse"
       x1="5"
       y1="21"
       x2="5"
       y2="0.90024877" />
    <linearGradient
       gradientUnits="userSpaceOnUse"
       y2="5.4252338"
       x2="58.650177"
       y1="122"
       x1="58.650177"
       id="linearGradient3764"
       gradientTransform="matrix(1.0172414,0,0,1.0172414,-1.1034483,-1.1034483)">
      <stop
         id="stop3766"
         offset="0"
         style="stop-color:#969696;stop-opacity:1;" />
      <stop
         id="stop3768"
         offset="1"
         style="stop-color:#cacaca;stop-opacity:1;" />
    </linearGradient>
    <linearGradient
       y2="15"
       x2="1"
       y1="15"
       x1="21"
       gradientUnits="userSpaceOnUse"
       id="linearGradient2948"
       xlink:href="#linearGradient7450"
       inkscape:collect="always" />
    <linearGradient
       inkscape:collect="always"
       xlink:href="#linearGradient3697"
       id="linearGradient3740"
       gradientUnits="userSpaceOnUse"
       gradientTransform="matrix(0,-1,1,0,1,21)"
       x1="1"
       y1="9"
       x2="21.024984"
       y2="9" />
    <inkscape:perspective
       id="perspective2915"
       inkscape:persp3d-origin="0.5 : 0.33333333 : 1"
       inkscape:vp_z="1 : 0.5 : 1"
       inkscape:vp_y="0 : 1000 : 0"
       inkscape:vp_x="0 : 0.5 : 1"
       sodipodi:type="inkscape:persp3d" />
    <linearGradient
       inkscape:collect="always"
       xlink:href="#linearGradient3697"
       id="linearGradient3713"
       x1="56"
       y1="72"
       x2="56"
       y2="24"
       gradientUnits="userSpaceOnUse" />
    <linearGradient
       id="linearGradient3697">
      <stop
         style="stop-color:#bababa;stop-opacity:1;"
         offset="0"
         id="stop3699" />
      <stop
         style="stop-color:#d2d2d2;stop-opacity:1;"
         offset="1"
         id="stop3701" />
    </linearGradient>
    <linearGradient
       inkscape:collect="always"
       xlink:href="#ButtonColor"
       id="linearGradient3770"
       gradientUnits="userSpaceOnUse"
       gradientTransform="translate(12.119372,-7.2581977)"
       x1="-3.0607977"
       y1="27.258198"
       x2="-3.0607977"
       y2="7.2536583" />
    <inkscape:perspective
       id="perspective2952"
       inkscape:persp3d-origin="0.5 : 0.33333333 : 1"
       inkscape:vp_z="1 : 0.5 : 1"
       inkscape:vp_y="0 : 1000 : 0"
       inkscape:vp_x="0 : 0.5 : 1"
       sodipodi:type="inkscape:persp3d" />
    <linearGradient
       inkscape:collect="always"
       xlink:href="#SVGID_14_"
       id="linearGradient6673"
       gradientUnits="userSpaceOnUse"
       gradientTransform="matrix(0.91168749,0,0,-0.91168749,-163.69604,-179.70414)"
       x1="206.6895"
       y1="-167.532"
       x2="206.6895"
       y2="-167.532" />
    <linearGradient
       id="SVGID_14_"
       gradientUnits="userSpaceOnUse"
       x1="206.6895"
       y1="-167.532"
       x2="206.6895"
       y2="-167.532"
       gradientTransform="matrix(1,0,0,-1,-270.96,-122.0747)">
      <stop
         offset="0"
         style="stop-color:#7E9EC4"
         id="stop3506" />
      <stop
         offset="1"
         style="stop-color:#151D89"
         id="stop3508" />
    </linearGradient>
    <radialGradient
       inkscape:collect="always"
       xlink:href="#SVGID_5_"
       id="radialGradient6840"
       gradientUnits="userSpaceOnUse"
       gradientTransform="matrix(1,0,0,-1,-270.96,-122.0747)"
       cx="232.4072"
       cy="-168.50459"
       r="33.058399" />
    <radialGradient
       id="SVGID_5_"
       cx="232.4072"
       cy="-168.50459"
       r="33.058399"
       gradientTransform="matrix(1,0,0,-1,-270.96,-122.0747)"
       gradientUnits="userSpaceOnUse">
      <stop
         offset="0.2985"
         style="stop-color:#9ac5da;stop-opacity:1;"
         id="stop3349" />
      <stop
         offset="0.6504"
         style="stop-color:#3982B1"
         id="stop3351" />
      <stop
         offset="0.7203"
         style="stop-color:#3474AA"
         id="stop3353" />
      <stop
         offset="0.899"
         style="stop-color:#285699"
         id="stop3355" />
      <stop
         offset="1"
         style="stop-color:#244B93"
         id="stop3357" />
    </radialGradient>
    <radialGradient
       inkscape:collect="always"
       xlink:href="#SVGID_19_"
       id="radialGradient6842"
       gradientUnits="userSpaceOnUse"
       gradientTransform="matrix(0.26487286,0,0,-0.26487286,-49.68677,-32.5033)"
       cx="232.37891"
       cy="-169.2312"
       r="30.7768" />
    <radialGradient
       id="SVGID_19_"
       cx="232.37891"
       cy="-169.2312"
       r="30.7768"
       gradientTransform="matrix(1,0,0,-1,-270.96,-122.0747)"
       gradientUnits="userSpaceOnUse">
      <stop
         offset="0"
         style="stop-color:#F3E591"
         id="stop3571" />
      <stop
         offset="0.65"
         style="stop-color:#FCD118"
         id="stop3573" />
      <stop
         offset="0.8024"
         style="stop-color:#F7A50C"
         id="stop3575" />
      <stop
         offset="0.9288"
         style="stop-color:#F38603"
         id="stop3577" />
      <stop
         offset="1"
         style="stop-color:#F27B00"
         id="stop3579" />
    </radialGradient>
    <radialGradient
       inkscape:collect="always"
       xlink:href="#radialGradient6848"
       id="radialGradient6844"
       gradientUnits="userSpaceOnUse"
       gradientTransform="matrix(0.26487286,0,0,-0.26487286,-49.68677,-32.5033)"
       cx="231.77591"
       cy="-165.33281"
       r="29.2155"
       fx="231.77591"
       fy="-165.33281" />
    <radialGradient
       gradientUnits="userSpaceOnUse"
       gradientTransform="matrix(1,0,0,-1,-270.96,-122.0747)"
       r="29.2155"
       cy="-164.9973"
       cx="231.4404"
       id="radialGradient6848">
      <stop
         id="stop6856"
         style="stop-color:#EBB213"
         offset="0.3308" />
      <stop
         id="stop6858"
         style="stop-color:#E89312"
         offset="0.4485" />
      <stop
         id="stop6860"
         style="stop-color:#E36D0F"
         offset="0.5673" />
      <stop
         id="stop6862"
         style="stop-color:#E04D0D"
         offset="0.65" />
      <stop
         id="stop6864"
         style="stop-color:#CE2907"
         offset="0.7851" />
      <stop
         id="stop6866"
         style="stop-color:#BF0B02"
         offset="0.9224" />
      <stop
         id="stop6868"
         style="stop-color:#B90000"
         offset="1" />
    </radialGradient>
    <radialGradient
       inkscape:collect="always"
       xlink:href="#SVGID_48_"
       id="radialGradient6846"
       gradientUnits="userSpaceOnUse"
       gradientTransform="matrix(0.26487286,0,0,-0.26487286,-49.68677,-32.5033)"
       cx="232.2451"
       cy="-168.24001"
       r="33.430199" />
    <radialGradient
       id="SVGID_48_"
       cx="232.2451"
       cy="-168.24001"
       r="33.430199"
       gradientTransform="matrix(1,0,0,-1,-270.96,-122.0747)"
       gradientUnits="userSpaceOnUse">
      <stop
         offset="0.5051"
         style="stop-color:#9CC443"
         id="stop3918" />
      <stop
         offset="0.6356"
         style="stop-color:#7FB01D"
         id="stop3920" />
      <stop
         offset="0.6495"
         style="stop-color:#7BAE19"
         id="stop3922" />
      <stop
         offset="0.7789"
         style="stop-color:#578D19"
         id="stop3924" />
      <stop
         offset="0.922"
         style="stop-color:#366E1A"
         id="stop3926" />
      <stop
         offset="1"
         style="stop-color:#29621A"
         id="stop3928" />
    </radialGradient>
    <radialGradient
       inkscape:collect="always"
       xlink:href="#SVGID_5_"
       id="radialGradient4066"
       gradientUnits="userSpaceOnUse"
       gradientTransform="matrix(1,0,0,-1,-270.96,-122.0747)"
       cx="232.4072"
       cy="-168.50459"
       r="33.058399" />
    <radialGradient
       inkscape:collect="always"
       xlink:href="#SVGID_5_"
       id="radialGradient4079"
       gradientUnits="userSpaceOnUse"
       gradientTransform="matrix(1,0,0,-1,-270.96,-122.0747)"
       cx="232.4072"
       cy="-168.50459"
       r="33.058399" />
    <radialGradient
       id="radialGradient6727"
       cx="232.4072"
       cy="-168.50459"
       r="33.058399"
       gradientTransform="matrix(1,0,0,-1,-270.96,-122.0747)"
       gradientUnits="userSpaceOnUse">
      <stop
         offset="0.0011"
         style="stop-color:#D1E7EE"
         id="stop6729" />
      <stop
         offset="0.0979"
         style="stop-color:#CDE4EC"
         id="stop6731" />
      <stop
         offset="0.203"
         style="stop-color:#C0DCE8"
         id="stop6733" />
      <stop
         offset="0.2985"
         style="stop-color:#ADD0E1"
         id="stop6735" />
      <stop
         offset="0.6504"
         style="stop-color:#3982B1"
         id="stop6737" />
      <stop
         offset="0.7203"
         style="stop-color:#3474AA"
         id="stop6739" />
      <stop
         offset="0.899"
         style="stop-color:#285699"
         id="stop6741" />
      <stop
         offset="1"
         style="stop-color:#244B93"
         id="stop6743" />
    </radialGradient>
    <radialGradient
       inkscape:collect="always"
       xlink:href="#SVGID_5_"
       id="radialGradient4091"
       gradientUnits="userSpaceOnUse"
       gradientTransform="matrix(0.26487286,0,0,-0.26487286,-49.686769,-32.5033)"
       cx="232.4072"
       cy="-168.50459"
       r="33.058399" />
    <linearGradient
       y2="16"
       x2="10"
       y1="1"
       x1="10"
       gradientUnits="userSpaceOnUse"
       id="linearGradient3078"
       xlink:href="#linearGradient3823"
       inkscape:collect="always"
       gradientTransform="translate(1,-1)" />
    <linearGradient
       id="linearGradient3823">
      <stop
         id="stop3825"
         offset="0"
         style="stop-color:#ffffff;stop-opacity:1;" />
      <stop
         id="stop3829"
         offset="1"
         style="stop-color:#ffffff;stop-opacity:0;" />
    </linearGradient>
    <linearGradient
       inkscape:collect="always"
       xlink:href="#linearGradient3831"
       id="linearGradient3845"
       x1="11"
       y1="19.5"
       x2="21"
       y2="19.5"
       gradientUnits="userSpaceOnUse"
       spreadMethod="reflect"
       gradientTransform="translate(1,1)" />
    <linearGradient
       id="linearGradient3831">
      <stop
         style="stop-color:#ffffff;stop-opacity:1;"
         offset="0"
         id="stop3833" />
      <stop
         id="stop3821"
         offset="0.75"
         style="stop-color:#ffffff;stop-opacity:0.49803922;" />
      <stop
         style="stop-color:#ffffff;stop-opacity:0;"
         offset="1"
         id="stop3835" />
    </linearGradient>
    <linearGradient
       y2="16"
       x2="10"
       y1="1"
       x1="10"
       gradientTransform="translate(1,1)"
       gradientUnits="userSpaceOnUse"
       id="linearGradient3859"
       xlink:href="#linearGradient3823"
       inkscape:collect="always" />
  </defs>
  <sodipodi:namedview
     id="base"
     pagecolor="#ffffff"
     bordercolor="#e7e7e7"
     borderopacity="1"
     inkscape:pageopacity="0.0"
     inkscape:pageshadow="2"
     inkscape:zoom="21.418891"
     inkscape:cx="14.339683"
     inkscape:cy="8.5225838"
     inkscape:document-units="px"
     inkscape:current-layer="layer4"
     showgrid="true"
     inkscape:showpageshadow="false"
     showguides="false"
     inkscape:guide-bbox="true"
     inkscape:window-width="1920"
     inkscape:window-height="1026"
     inkscape:window-x="0"
     inkscape:window-y="25"
     inkscape:window-maximized="1">
    <sodipodi:guide
       orientation="1,0"
       position="0,112"
       id="guide2383" />
    <sodipodi:guide
       orientation="0,1"
       position="26.278146,128"
       id="guide2385" />
    <sodipodi:guide
       orientation="1,0"
       position="128,54.082119"
       id="guide2387" />
    <sodipodi:guide
       orientation="0,1"
       position="78.156291,0"
       id="guide2389" />
    <sodipodi:guide
       orientation="0,1"
       position="60.863576,64.084768"
       id="guide2391" />
    <inkscape:grid
       type="xygrid"
       id="grid3672"
       visible="true"
       enabled="true"
       empspacing="8"
       snapvisiblegridlinesonly="true" />
  </sodipodi:namedview>
  <metadata
     id="metadata7">
    <rdf:RDF>
      <cc:Work
         rdf:about="">
        <dc:format>image/svg+xml</dc:format>
        <dc:type
           rdf:resource="http://purl.org/dc/dcmitype/StillImage" />
        <dc:title />
      </cc:Work>
    </rdf:RDF>
  </metadata>
  <g
     inkscape:label="Button"
     inkscape:groupmode="layer"
     id="layer1"
     transform="translate(0,2)"
     sodipodi:insensitive="true">
    <g
       style="display:inline"
       id="g3337"
       transform="translate(-9,-1)">
      <rect
         ry="2.5"
         rx="2.5"
         y="0.5"
         x="10.5"
         height="21.5"
         width="21"
         id="rect3371"
         style="opacity:0.3;fill:url(#linearGradient3335);fill-opacity:1;stroke:none;display:inline" />
      <rect
         style="opacity:0.5;fill:#000000;fill-opacity:1;stroke:none;display:inline"
         id="rect2553"
         width="20"
         height="20"
         x="11"
         y="2"
         rx="2.3809524"
         ry="2.3255813" />
    </g>
    <rect
       ry="2"
       rx="2"
       y="0"
       x="2"
       height="20"
       width="20"
       id="rect3716"
       style="fill:url(#linearGradient3770);fill-opacity:1;fill-rule:evenodd;stroke:none;display:inline" />
  </g>
  <g
     inkscape:groupmode="layer"
     id="layer2"
     inkscape:label="Highlight"
     transform="translate(0,2)"
     style="display:inline"
     sodipodi:insensitive="true">
    <rect
       style="opacity:0.15;fill:#ffffff;fill-opacity:1;fill-rule:nonzero;stroke:none;display:inline;filter:url(#filter3194)"
       id="rect2410"
       width="16"
       height="16"
       x="3"
       y="3"
       rx="2"
       ry="2"
       clip-path="url(#clipPath2849)"
       transform="translate(1,-1)" />
  </g>
  <g
     inkscape:groupmode="layer"
     id="layer3"
     inkscape:label="Symbol"
     transform="translate(0,2)"
     sodipodi:insensitive="true"
     style="display:none">
    <path
       style="opacity:0.7;fill:url(#linearGradient2948);fill-opacity:1;stroke:none;display:inline"
       clip-path="none"
       d="m 4.75,-3.65625 -0.46875,1 L 4.25,-2.1875 4.28125,-1.65625 3.15625,-1.4375 3.0625,-1.90625 2.78125,-2.34375 2,-3.125 1.40625,-2.875 1.34375,-1.75 1.5,-1.28125 l 0.25,0.4375 -0.96875,0.625 -0.3125,-0.375 -0.375,-0.3125 -1.0625,-0.375 -0.46875,0.4375 L -1,0.1875 -0.71875,0.59375 -0.3125,0.90625 -0.96875,1.84375 -1.375,1.59375 -1.84375,1.5 l -1.125,0 -0.28125,0.59375 0.78125,0.8125 0.4375,0.25 0.5,0.15625 -0.25,1.09375 -0.5,-0.0625 -0.5,0.0625 -1,0.4375 0,0.65625 1,0.46875 0.5,0.03125 0.5,-0.03125 0.25,1.125 -0.5,0.15625 -0.4375,0.21875 L -3.25,8.28125 -2.96875,8.875 -1.84375,8.90625 -1.375,8.78125 -0.96875,8.5 -0.3125,9.46875 -0.71875,9.78125 -1,10.1875 -1.4375,11.21875 -0.96875,11.6875 0.09375,11.25 0.46875,11 0.78125,10.5625 1.75,11.21875 l -0.25,0.4375 -0.15625,0.5 0.0625,1.0625 L 2,13.5 2.78125,12.71875 3.0625,12.3125 l 0.09375,-0.53125 1.125,0.25 -0.03125,0.5 0.03125,0.5 0.46875,1 0.65625,0 0.4375,-1 0.0625,-0.5 -0.03125,-0.5 L 7,11.78125 7.09375,12.3125 7.375,12.71875 8.15625,13.5 l 0.625,-0.28125 0.03125,-1.0625 -0.15625,-0.5 -0.25,-0.4375 L 9.375,10.5625 9.6875,11 l 0.40625,0.25 1.03125,0.4375 0.46875,-0.46875 -0.4375,-1.03125 -0.3125,-0.40625 -0.375,-0.3125 L 11.09375,8.5 11.5625,8.78125 12,8.90625 13.125,8.875 13.375,8.28125 12.625,7.46875 12.21875,7.25 11.6875,7.09375 11.9375,5.96875 12.4375,6 12.90625,5.96875 13.9375,5.5 l 0,-0.65625 -1.03125,-0.4375 -0.46875,-0.0625 -0.5,0.0625 -0.25,-1.09375 0.53125,-0.15625 0.40625,-0.25 0.75,-0.8125 L 13.125,1.5 12,1.5 l -0.4375,0.09375 -0.46875,0.25 -0.625,-0.9375 0.375,-0.3125 0.3125,-0.40625 0.4375,-1.03125 -0.46875,-0.4375 -1.03125,0.375 -0.40625,0.3125 -0.3125,0.375 -0.96875,-0.625 0.25,-0.4375 L 8.8125,-1.75 8.78125,-2.875 8.15625,-3.125 7.375,-2.34375 7.09375,-1.90625 7,-1.4375 5.875,-1.65625 5.90625,-2.1875 l -0.0625,-0.46875 -0.4375,-1 -0.65625,0 z M 5.0625,0.25 C 7.7893582,0.25 10,2.4606418 10,5.1875 10,7.9143583 7.7893582,10.125 5.0625,10.125 2.3356421,10.125001 0.125,7.9143583 0.125,5.1875 0.12500012,2.4606418 2.3356421,0.25 5.0625,0.25 z M 5.03125,1.3125 C 2.9095854,1.3125 1.1875,3.0345854 1.1875,5.15625 1.1875,7.2779146 2.9095854,9 5.03125,9 7.1529146,9 8.875,7.2779146 8.875,5.15625 8.875,3.0345854 7.1529146,1.3125 5.03125,1.3125 z m 0,1.71875 c 1.24195,0 2.25,0.9520473 2.25,2.125 0,1.1729527 -1.00805,2.125 -2.25,2.125 -1.24195,0 -2.25,-0.9520473 -2.25,-2.125 0,-1.1729527 1.00805,-2.125 2.25,-2.125 z m 13.53125,4.65625 -0.65625,0.96875 -0.1875,0.5 L 17.6875,9.6875 16.46875,9.71875 16.40625,9.15625 16.25,8.6875 15.5625,7.71875 14.875,7.84375 14.625,9 l 0.03125,0.53125 0.1875,0.53125 -1.125,0.46875 -0.28125,-0.5 -0.34375,-0.375 -1,-0.625 -0.5625,0.375 0.21875,1.1875 0.21875,0.46875 0.34375,0.40625 -0.84375,0.875 L 11.0625,12 l -0.5,-0.25 -1.15625,-0.1875 -0.375,0.59375 0.625,1 0.40625,0.3125 0.5,0.25 -0.46875,1.15625 -0.53125,-0.1875 -0.5,0 -1.15625,0.25 -0.15625,0.6875 1,0.65625 0.5,0.1875 0.53125,0.03125 0,1.21875 -0.53125,0.0625 -0.5,0.15625 -0.96875,0.6875 0.15625,0.6875 1.15625,0.25 0.5,-0.03125 0.53125,-0.1875 0.46875,1.15625 -0.46875,0.25 -0.40625,0.34375 -0.625,1 0.40625,0.5625 1.15625,-0.1875 0.46875,-0.25 0.40625,-0.34375 0.875,0.84375 -0.34375,0.4375 -0.21875,0.46875 -0.21875,1.15625 0.59375,0.375 1,-0.625 0.34375,-0.40625 0.25,-0.5 1.125,0.46875 -0.15625,0.53125 -0.03125,0.5 0.25,1.1875 0.6875,0.125 0.6875,-1 0.15625,-0.46875 0.03125,-0.5625 1.25,0 0.03125,0.53125 0.1875,0.5 0.6875,0.96875 0.6875,-0.15625 0.25,-1.15625 -0.0625,-0.5 -0.15625,-0.53125 1.125,-0.46875 0.25,0.46875 0.34375,0.40625 1,0.625 0.59375,-0.40625 -0.21875,-1.15625 -0.25,-0.46875 -0.34375,-0.40625 0.875,-0.875 0.40625,0.34375 0.46875,0.21875 1.1875,0.21875 0.375,-0.59375 -0.65625,-1 -0.40625,-0.34375 -0.46875,-0.25 0.46875,-1.125 0.5,0.15625 0.53125,0.03125 1.15625,-0.25 L 26.5,18.5 25.53125,17.8125 25.03125,17.65625 24.5,17.625 l -0.03125,-1.25 0.5625,-0.03125 0.46875,-0.1875 0.96875,-0.6875 -0.125,-0.6875 -1.15625,-0.21875 -0.53125,0.03125 -0.5,0.15625 -0.5,-1.125 0.5,-0.25 0.375,-0.34375 0.625,-1 -0.375,-0.59375 -1.1875,0.21875 -0.4375,0.25 -0.4375,0.34375 -0.875,-0.875 L 22.1875,10.96875 22.4375,10.5 22.625,9.34375 22.03125,8.9375 21.0625,9.59375 20.71875,10 20.46875,10.46875 19.3125,10 19.5,9.5 19.53125,8.96875 19.25,7.8125 18.5625,7.6875 z m -1.4375,3.71875 c 0.729584,0 1.422284,0.154083 2.0625,0.40625 l -1.21875,2.375 c -0.268638,-0.07869 -0.549774,-0.125 -0.84375,-0.125 -0.582905,0 -1.132614,0.150264 -1.59375,0.4375 l -1.8125,-1.9375 c 0.946343,-0.714581 2.130021,-1.15625 3.40625,-1.15625 z m 3.09375,0.9375 c 1.539196,1.008529 2.562501,2.741853 2.5625,4.71875 0,0.14764 -0.02011,0.292694 -0.03125,0.4375 L 20.125,17.03125 C 20.11379,16.090903 19.685742,15.263233 19,14.71875 l 1.21875,-2.375 z m -7.34375,1 1.8125,1.9375 c -0.363304,0.49738 -0.5625,1.118592 -0.5625,1.78125 0,0.244633 0.0073,0.490994 0.0625,0.71875 L 11.78125,18.875 c -0.194943,-0.571623 -0.3125,-1.175317 -0.3125,-1.8125 0,-1.426159 0.532764,-2.724815 1.40625,-3.71875 z m 4.25,2.75 c 0.535035,0 0.96875,0.433715 0.96875,0.96875 0,0.535035 -0.433715,0.96875 -0.96875,0.96875 -0.535035,0 -0.96875,-0.433715 -0.96875,-0.96875 0,-0.535035 0.433715,-0.96875 0.96875,-0.96875 z m 2.8125,2.0625 2.625,0.46875 c -0.559934,1.936858 -2.153842,3.462992 -4.125,3.9375 l -0.34375,-2.65625 c 0.841382,-0.285354 1.521712,-0.926218 1.84375,-1.75 z m -5.25,0.65625 c 0.514507,0.714654 1.316242,1.196072 2.25,1.25 l 0.375,2.65625 c -0.05979,0.0019 -0.12725,-1e-6 -0.1875,0 -2.071485,1e-6 -3.891877,-1.116347 -4.875,-2.78125 l 2.4375,-1.125 z"
       id="path5932"
       transform="matrix(0,-1,1,0,31,21)" />
    <path
       style="opacity:0;fill:url(#linearGradient3691);fill-opacity:1;stroke:none;display:inline;filter:url(#filter3743)"
       mask="none"
       clip-path="url(#clipPath3739)"
       d="M 37.65625,1 C 39.056314,1.8714716 40,3.4170094 40,5.1875 40,7.9143583 37.789358,10.125 35.0625,10.125 33.373856,10.125001 31.890327,9.261865 31,7.96875 l 0,2.75 0.75,0.5 -0.25,0.4375 -0.15625,0.5 0.0625,1.0625 L 32,13.5 l 0.78125,-0.78125 0.28125,-0.40625 0.09375,-0.53125 1.125,0.25 -0.03125,0.5 0.03125,0.5 0.46875,1 0.65625,0 0.4375,-1 0.0625,-0.5 -0.03125,-0.5 1.125,-0.25 0.09375,0.53125 0.28125,0.40625 0.78125,0.78125 0.625,-0.28125 0.03125,-1.0625 -0.15625,-0.5 -0.25,-0.4375 L 39.375,10.5625 39.6875,11 l 0.40625,0.25 1.03125,0.4375 0.46875,-0.46875 -0.4375,-1.03125 -0.3125,-0.40625 -0.375,-0.3125 L 41.09375,8.5 41.5625,8.78125 42,8.90625 43.125,8.875 43.375,8.28125 42.625,7.46875 42.21875,7.25 41.6875,7.09375 41.9375,5.96875 42.4375,6 42.90625,5.96875 43.9375,5.5 l 0,-0.65625 -1.03125,-0.4375 -0.46875,-0.0625 -0.5,0.0625 -0.25,-1.09375 0.53125,-0.15625 0.40625,-0.25 0.75,-0.8125 L 43.125,1.5 42,1.5 41.5625,1.59375 41.09375,1.84375 40.53125,1 l -2.875,0 z m -5.4375,0.15625 c -0.457524,0.1928742 -0.823137,0.5508367 -1.03125,1 0.294989,-0.3757431 0.64102,-0.7233484 1.03125,-1 z m 2.8125,0.15625 c -2.121665,0 -3.84375,1.7220854 -3.84375,3.84375 C 31.1875,7.2779146 32.909585,9 35.03125,9 37.152915,9 38.875,7.2779146 38.875,5.15625 38.875,3.0345854 37.152915,1.3125 35.03125,1.3125 z m 0,1.71875 c 1.24195,0 2.25,0.9520473 2.25,2.125 0,1.1729527 -1.00805,2.125 -2.25,2.125 -1.24195,0 -2.25,-0.9520473 -2.25,-2.125 0,-1.1729527 1.00805,-2.125 2.25,-2.125 z m 13.53125,4.65625 -0.65625,0.96875 -0.1875,0.5 L 47.6875,9.6875 46.46875,9.71875 46.40625,9.15625 46.25,8.6875 45.5625,7.71875 44.875,7.84375 44.625,9 l 0.03125,0.53125 0.1875,0.53125 -1.125,0.46875 -0.28125,-0.5 -0.34375,-0.375 -1,-0.625 -0.5625,0.375 0.21875,1.1875 0.21875,0.46875 0.34375,0.40625 -0.84375,0.875 L 41.0625,12 l -0.5,-0.25 -1.15625,-0.1875 -0.375,0.59375 0.625,1 0.40625,0.3125 0.5,0.25 -0.46875,1.15625 -0.53125,-0.1875 -0.5,0 -1.15625,0.25 -0.15625,0.6875 1,0.65625 0.5,0.1875 0.53125,0.03125 0,1.21875 -0.53125,0.0625 -0.5,0.15625 -0.96875,0.6875 0.15625,0.6875 1.15625,0.25 0.5,-0.03125 L 40.125,19.34375 40.59375,20.5 40.125,20.75 39.84375,21 43.0625,21 C 42.747541,20.6773 42.480479,20.327813 42.25,19.9375 l 2.4375,-1.125 c 0.514507,0.714654 1.316242,1.196072 2.25,1.25 L 47.0625,21 48.25,21 48.09375,19.90625 c 0.841382,-0.285354 1.521712,-0.926218 1.84375,-1.75 L 51,18.34375 51,17.1875 50.125,17.03125 C 50.11379,16.090903 49.685742,15.263233 49,14.71875 l 1.21875,-2.375 c 0.279199,0.18294 0.539028,0.397236 0.78125,0.625 L 51,9.65625 50.71875,10 50.46875,10.46875 49.3125,10 49.5,9.5 49.53125,8.96875 49.25,7.8125 48.5625,7.6875 z m -1.4375,3.71875 c 0.729584,0 1.422284,0.154083 2.0625,0.40625 l -1.21875,2.375 c -0.268638,-0.07869 -0.549774,-0.125 -0.84375,-0.125 -0.582905,0 -1.132614,0.150264 -1.59375,0.4375 l -1.8125,-1.9375 c 0.946343,-0.714581 2.130021,-1.15625 3.40625,-1.15625 z m -4.25,1.9375 1.8125,1.9375 c -0.363304,0.49738 -0.5625,1.118592 -0.5625,1.78125 0,0.244633 0.0073,0.490994 0.0625,0.71875 L 41.78125,18.875 c -0.194943,-0.571623 -0.3125,-1.175317 -0.3125,-1.8125 0,-1.426159 0.532764,-2.724815 1.40625,-3.71875 z m 4.25,2.75 c 0.535035,0 0.96875,0.433715 0.96875,0.96875 0,0.535035 -0.433715,0.96875 -0.96875,0.96875 -0.535035,0 -0.96875,-0.433715 -0.96875,-0.96875 0,-0.535035 0.433715,-0.96875 0.96875,-0.96875 z"
       id="path3713"
       transform="translate(-30,0)" />
    <path
       style="fill:url(#linearGradient3740);fill-opacity:1;stroke:none;display:inline"
       clip-path="none"
       d="M 10.65625,0 11,0.28125 11.46875,0.53125 11,1.6875 10.5,1.5 9.96875,1.46875 8.8125,1.75 l -0.125,0.6875 0.96875,0.65625 0.5,0.1875 0.53125,0.03125 0.03125,1.21875 -0.5625,0.0625 L 9.6875,4.75 8.71875,5.4375 8.84375,6.125 10,6.375 l 0.53125,-0.03125 0.53125,-0.1875 0.46875,1.125 -0.5,0.28125 -0.375,0.34375 -0.625,1 0.375,0.5625 L 11.59375,9.25 12.0625,9.03125 12.46875,8.6875 13.34375,9.53125 13,9.9375 l -0.25,0.5 -0.1875,1.15625 0.59375,0.375 1,-0.625 0.3125,-0.40625 0.25,-0.5 1.15625,0.46875 -0.1875,0.53125 0,0.5 0.25,1.15625 0.6875,0.15625 0.65625,-1 0.1875,-0.5 0.03125,-0.53125 1.21875,0 0.0625,0.53125 0.15625,0.5 0.6875,0.96875 0.6875,-0.15625 0.25,-1.15625 -0.03125,-0.5 L 20.34375,10.875 21.5,10.40625 21.75,10.875 22,11.15625 22,7.9375 C 21.6773,8.252459 21.327813,8.519521 20.9375,8.75 l -1.125,-2.4375 c 0.714654,-0.514507 1.196072,-1.316242 1.25,-2.25 L 22,3.9375 22,2.75 20.90625,2.90625 C 20.620896,2.064868 19.980032,1.384538 19.15625,1.0625 L 19.34375,0 18.1875,0 18.03125,0.875 C 17.090903,0.88621 16.263233,1.314258 15.71875,2 l -2.375,-1.21875 C 13.52669,0.5020507 13.740986,0.2422217 13.96875,0 l -3.3125,0 z m 2.15625,1.8125 2.375,1.21875 c -0.07869,0.268638 -0.125,0.549774 -0.125,0.84375 0,0.582905 0.150264,1.132614 0.4375,1.59375 l -1.9375,1.8125 C 12.847919,6.334907 12.40625,5.151229 12.40625,3.875 c 0,-0.729584 0.154083,-1.422284 0.40625,-2.0625 z m 5.25,1.09375 c 0.535035,0 0.96875,0.433715 0.96875,0.96875 0,0.535035 -0.433715,0.96875 -0.96875,0.96875 -0.535035,0 -0.96875,-0.433715 -0.96875,-0.96875 0,-0.535035 0.433715,-0.96875 0.96875,-0.96875 z M 16.28125,6.3125 c 0.49738,0.363304 1.118592,0.5625 1.78125,0.5625 0.244633,0 0.490994,-0.0073 0.71875,-0.0625 L 19.875,9.21875 c -0.571623,0.194943 -1.175317,0.3125 -1.8125,0.3125 -1.426159,0 -2.724815,-0.532764 -3.71875,-1.40625 l 1.9375,-1.8125 z m -10.4375,0.75 -0.4375,1.03125 -0.0625,0.46875 0.0625,0.5 L 4.3125,9.3125 4.15625,8.78125 3.90625,8.375 3.09375,7.625 2.5,7.875 2.5,9 2.59375,9.4375 2.84375,9.90625 2,10.46875 l 0,2.875 C 2.871472,11.943686 4.417009,11 6.1875,11 c 2.726858,0 4.9375,2.210642 4.9375,4.9375 10e-7,1.688644 -0.863135,3.172173 -2.15625,4.0625 l 2.75,0 0.5,-0.75 0.4375,0.25 0.5,0.15625 1.0625,-0.0625 L 14.5,19 13.71875,18.21875 13.3125,17.9375 l -0.53125,-0.09375 0.25,-1.125 0.5,0.03125 0.5,-0.03125 1,-0.46875 0,-0.65625 -1,-0.4375 -0.5,-0.0625 -0.5,0.03125 L 12.78125,14 13.3125,13.90625 13.71875,13.625 14.5,12.84375 l -0.28125,-0.625 -1.0625,-0.03125 -0.5,0.15625 -0.4375,0.25 L 11.5625,11.625 12,11.3125 12.25,10.90625 12.6875,9.875 12.21875,9.40625 l -1.03125,0.4375 -0.40625,0.3125 -0.3125,0.375 L 9.5,9.90625 9.78125,9.4375 9.90625,9 9.875,7.875 9.28125,7.625 8.46875,8.375 8.25,8.78125 8.09375,9.3125 6.96875,9.0625 7,8.5625 6.96875,8.09375 6.5,7.0625 l -0.65625,0 z m 0.3125,5.0625 c -2.121665,0 -3.84375,1.722085 -3.84375,3.84375 0,2.121665 1.722085,3.84375 3.84375,3.84375 C 8.277915,19.8125 10,18.090415 10,15.96875 10,13.847085 8.277915,12.125 6.15625,12.125 z m 0,1.59375 c 1.172953,0 2.125,1.00805 2.125,2.25 0,1.24195 -0.952047,2.25 -2.125,2.25 -1.172953,0 -2.125,-1.00805 -2.125,-2.25 0,-1.24195 0.952047,-2.25 2.125,-2.25 z m -4,5.0625 c 0.192874,0.457524 0.550837,0.823137 1,1.03125 -0.375743,-0.294989 -0.723348,-0.64102 -1,-1.03125 z"
       id="path3724" />
    <path
       style="opacity:0.7;fill:#ffffff;fill-opacity:1;stroke:none;display:inline"
       clip-path="none"
       d="M 10.65625,3 11,3.28125 11.125,3.34375 11.28125,3 l -0.625,0 z m 3.125,0 0.125,0.0625 C 13.92603,3.040959 13.94875,3.021268 13.96875,3 l -0.1875,0 z m 5.375,0 0,0.0625 c 0.05584,0.02183 0.102143,0.068688 0.15625,0.09375 L 19.34375,3 19.15625,3 z M 12.8125,3.8125 c -0.252167,0.640216 -0.40625,1.332916 -0.40625,2.0625 0,0.1379422 0.02114,0.270653 0.03125,0.40625 0.05885,-0.5103076 0.19319,-1.0071608 0.375,-1.46875 l 2.25,1.15625 c -8.52e-4,-0.030871 0,-0.062682 0,-0.09375 0,-0.293976 0.04631,-0.575112 0.125,-0.84375 L 12.8125,3.8125 z m -3.75,0.875 -0.25,0.0625 -0.125,0.6875 0.96875,0.65625 0.5,0.1875 0.53125,0.03125 0,0.21875 0.03125,0 L 10.6875,5.3125 10.15625,5.28125 9.65625,5.09375 9.0625,4.6875 z m 9,0.21875 c -0.535035,0 -0.96875,0.433715 -0.96875,0.96875 0,0.188519 0.0631,0.351179 0.15625,0.5 0.17122,-0.2735472 0.465984,-0.46875 0.8125,-0.46875 0.346516,0 0.64128,0.1952028 0.8125,0.46875 0.09315,-0.148821 0.15625,-0.311481 0.15625,-0.5 0,-0.535035 -0.433715,-0.96875 -0.96875,-0.96875 z M 22,5.9375 21.0625,6.0625 c -0.05393,0.933758 -0.535346,1.735493 -1.25,2.25 l 0.34375,0.71875 C 20.682115,8.5263642 21.01758,7.8402874 21.0625,7.0625 L 22,6.9375 l 0,-1 z M 15.09375,6.375 c -0.02779,0.16009 -0.03125,0.3315418 -0.03125,0.5 0,0.302382 0.04598,0.5982147 0.125,0.875 L 15.5,7.46875 C 15.295062,7.1397372 15.154407,6.7740772 15.09375,6.375 z M 11.0625,8.15625 10.53125,8.34375 10,8.375 9.09375,8.1875 l -0.375,0.25 0.125,0.6875 1.15625,0.25 0.53125,-0.03125 0.53125,-0.1875 0.125,0.3125 0.34375,-0.1875 -0.46875,-1.125 z m 5.21875,0.15625 -1.9375,1.8125 c 0.18211,0.160041 0.392272,0.301516 0.59375,0.4375 l 1.34375,-1.25 c 0.49738,0.363304 1.118592,0.5625 1.78125,0.5625 0.244633,0 0.490994,-0.0073 0.71875,-0.0625 l 0.6875,1.5 c 0.135541,-0.03629 0.274152,-0.0487 0.40625,-0.09375 L 18.78125,8.8125 C 18.553494,8.8677 18.307133,8.875 18.0625,8.875 c -0.662658,0 -1.28387,-0.199196 -1.78125,-0.5625 z m -3.8125,2.375 -0.40625,0.34375 -0.46875,0.21875 -1.1875,0.21875 -0.0625,-0.09375 -0.3125,0.53125 0.375,0.5625 0.125,-0.03125 0.25,-0.28125 0.40625,-0.3125 1.03125,-0.4375 0.25,0.28125 0.21875,0.1875 0,0.03125 L 12.90625,12.125 13,11.9375 13.34375,11.53125 12.46875,10.6875 z M 2.5,11 l 0,1 0.03125,0.125 0.3125,-0.21875 -0.25,-0.46875 L 2.5,11 z M 9.875,11.09375 9.78125,11.4375 9.5,11.90625 9.875,12.15625 9.90625,12 9.875,11.09375 z m 11.625,1.3125 -1.15625,0.46875 0.1875,0.53125 0.03125,0.375 0.9375,-0.375 0.25,0.46875 0.25,0.28125 0,-1 L 21.75,12.875 21.5,12.40625 z m -6.78125,0.03125 -0.25,0.5 -0.3125,0.40625 -1,0.625 -0.4375,-0.28125 -0.125,0.6875 0.0625,-0.03125 0.5,-0.15625 1.0625,0.03125 0.25,-0.28125 0.25,-0.5 0.96875,0.40625 0,-0.40625 0.1875,-0.53125 -1.15625,-0.46875 z M 12.375,12.5625 12.25,12.90625 12,13.3125 11.5625,13.625 12,14.28125 l 0.25,-0.375 0.4375,-1 0,-0.03125 -0.3125,-0.3125 z M 6.1875,13 C 4.417009,13 2.871472,13.943686 2,15.34375 l 0,1 C 2.871472,14.943686 4.417009,14 6.1875,14 c 2.5564294,0 4.653396,1.94777 4.90625,4.4375 0.01685,-0.164473 0.03125,-0.33103 0.03125,-0.5 C 11.125,15.210642 8.914358,13 6.1875,13 z M 17.5,13.21875 17.46875,13.75 l -0.1875,0.5 -0.65625,1 L 15.9375,15.09375 15.75,14.25 l -0.0625,0.1875 0,0.5 0.25,1.15625 0.6875,0.15625 0.65625,-1 0.1875,-0.5 0.03125,-0.53125 1.21875,0 0.0625,0.53125 0.15625,0.5 0.6875,0.96875 0.6875,-0.15625 0.25,-1.15625 -0.03125,-0.5 -0.0625,-0.125 -0.15625,0.78125 -0.6875,0.15625 -0.6875,-0.96875 -0.15625,-0.5 -0.0625,-0.53125 -1.21875,0 z m -3.375,2 L 13.71875,15.625 13.3125,15.90625 12.78125,16 13,16.96875 13.3125,16.90625 13.71875,16.625 14.5,15.84375 l -0.28125,-0.625 -0.09375,0 z m -7.96875,0.5 c -1.172953,0 -2.125,1.00805 -2.125,2.25 0,0.155244 0.00293,0.322328 0.03125,0.46875 0.2200182,-0.994212 1.0880221,-1.71875 2.09375,-1.71875 1.0057279,0 1.8737318,0.724538 2.09375,1.71875 0.028324,-0.146422 0.03125,-0.313506 0.03125,-0.46875 0,-1.24195 -0.952047,-2.25 -2.125,-2.25 z m 8.5,2.71875 -0.625,0.28125 -0.5,0.03125 -0.5,-0.03125 -0.25,1.125 L 13,19.875 l 0.03125,-0.15625 0.5,0.03125 0.5,-0.03125 1,-0.46875 0,-0.65625 -0.375,-0.15625 z M 2.375,18.46875 c -0.02139,0.164035 -0.0625,0.330166 -0.0625,0.5 0,1.221696 0.5792698,2.295777 1.46875,3 C 3.8540168,21.976705 3.9250471,22 4,22 l 4.5,0 c 0.9094634,-0.70319 1.5,-1.793612 1.5,-3.03125 0,-0.169834 -0.04111,-0.335965 -0.0625,-0.5 -0.2458321,1.885186 -1.8294186,3.34375 -3.78125,3.34375 -1.9518314,0 -3.5354179,-1.458564 -3.78125,-3.34375 z m 9.84375,2.78125 -0.5,0.75 2.78125,0 -0.40625,-0.40625 -0.9375,0.0625 -0.5,-0.15625 -0.4375,-0.25 z"
       transform="translate(0,-2)"
       id="path3761" />
    <path
       style="opacity:0.2;fill:#000000;fill-opacity:1;stroke:none;display:inline"
       clip-path="none"
       d="M 10.65625,2 11,2.28125 11.46875,2.53125 11.28125,3 l 2.5,0 -0.4375,-0.21875 C 13.52669,2.5020507 13.740986,2.2422217 13.96875,2 l -3.3125,0 z M 18.1875,2 18.03125,2.875 C 17.090903,2.88621 16.263233,3.314258 15.71875,4 l -1.8125,-0.9375 c -0.205482,0.2237864 -0.395623,0.4640658 -0.5625,0.71875 L 15.71875,5 c 0.544483,-0.685742 1.372153,-1.11379 2.3125,-1.125 L 18.1875,3 19.15625,3 19.34375,2 18.1875,2 z m 1.125,1.15625 -0.15625,0.90625 c 0.823782,0.322038 1.464646,1.002368 1.75,1.84375 L 22,5.75 l 0,-1 -1.09375,0.15625 C 20.640239,4.1219031 20.056583,3.5008955 19.3125,3.15625 z M 11.125,3.34375 11,3.6875 10.5,3.5 9.96875,3.46875 8.8125,3.75 8.6875,4.4375 9.0625,4.6875 9.96875,4.46875 10.5,4.5 11,4.6875 11.46875,3.53125 11.125,3.34375 z m 3.9375,2.625 C 15.0662,6.1038316 15.07392,6.244553 15.09375,6.375 15.11446,6.2557172 15.1539,6.1459494 15.1875,6.03125 l -0.125,-0.0625 z m -2.625,0.375 c -0.01839,0.1775417 -0.03125,0.348854 -0.03125,0.53125 0,1.276229 0.441669,2.459907 1.15625,3.40625 L 15.5,8.46875 C 15.361768,8.2468283 15.260805,8.0067768 15.1875,7.75 l -1.625,1.53125 C 12.936947,8.4528095 12.531549,7.4388213 12.4375,6.34375 z M 17.25,6.375 c -0.09315,0.148821 -0.15625,0.311481 -0.15625,0.5 0,0.535035 0.433715,0.96875 0.96875,0.96875 0.535035,0 0.96875,-0.433715 0.96875,-0.96875 0,-0.188519 -0.0631,-0.351179 -0.15625,-0.5 -0.17122,0.2735472 -0.465984,0.46875 -0.8125,0.46875 -0.346516,0 -0.64128,-0.1952028 -0.8125,-0.46875 z M 10.6875,6.53125 10.15625,6.59375 9.6875,6.75 8.71875,7.4375 l 0.125,0.6875 0.25,0.0625 0.59375,-0.4375 0.46875,-0.15625 0.5625,-0.0625 -0.03125,-1 z m 9.46875,2.5 C 20.050798,9.1324954 19.931873,9.2265591 19.8125,9.3125 l 1.125,2.4375 C 21.327813,11.519521 21.6773,11.252459 22,10.9375 l 0,-1 c -0.3227,0.314959 -0.672187,0.582021 -1.0625,0.8125 L 20.15625,9.03125 z m -14.3125,0.03125 -0.4375,1.03125 -0.0625,0.46875 0.0625,0.5 0.4375,-1 0.65625,0 0.46875,1 L 7,10.5625 6.96875,10.09375 6.5,9.0625 l -0.65625,0 z m 1.125,2 0,0.03125 L 7,11.5625 l -0.03125,0.5 1.125,0.25 L 8.25,11.78125 8.46875,11.375 l 0.8125,-0.75 0.59375,0.25 0,0.21875 L 9.90625,11 9.875,9.875 9.28125,9.625 8.46875,10.375 8.25,10.78125 8.09375,11.3125 l -1.125,-0.25 z m -1.5625,0 -1.09375,0.25 L 4.15625,10.78125 3.90625,10.375 3.09375,9.625 2.5,9.875 l 0,1 0.59375,-0.25 0.8125,0.75 0.25,0.40625 0.15625,0.53125 1.09375,-0.25 -0.0625,-0.5 0.0625,-0.46875 0,-0.03125 z m 5.78125,-1.59375 -0.15625,0.09375 -0.375,0.34375 -0.625,1 0.3125,0.46875 0.3125,-0.46875 0.375,-0.34375 0.5,-0.28125 -0.34375,-0.8125 z m 3.75,1.09375 -0.59375,0.5625 c 0.993935,0.873486 2.292591,1.40625 3.71875,1.40625 0.637183,0 1.240877,-0.117557 1.8125,-0.3125 L 19.46875,11.3125 c -0.450981,0.120742 -0.916315,0.21875 -1.40625,0.21875 -1.164857,0 -2.22683,-0.362549 -3.125,-0.96875 z m -2.46875,1.125 -0.40625,0.34375 -0.46875,0.21875 -1.0625,0.1875 -0.0625,0.09375 -0.0625,-0.0625 L 9.875,12.15625 9.78125,12.4375 9.5,12.90625 l 0.96875,0.625 0.3125,-0.375 0.40625,-0.3125 1.03125,-0.4375 0.15625,0.15625 0.3125,-0.65625 0,-0.03125 -0.21875,-0.1875 z M 2.53125,12.125 2,12.46875 l 0,1 0.84375,-0.5625 -0.25,-0.46875 -0.0625,-0.3125 z m 10.375,0 -0.15625,0.3125 -0.0625,0.4375 0,0.03125 -0.125,0.6875 0.15625,0.09375 0.03125,-0.25 0.25,-0.5 0.34375,-0.40625 -0.4375,-0.40625 z m 7.65625,1.65625 -0.21875,0.09375 0.125,0.40625 0.09375,-0.375 0,-0.125 z m -4.875,0.0625 0,0.09375 0.0625,0.3125 0.125,-0.34375 -0.1875,-0.0625 z M 6.15625,14.125 c -2.121665,0 -3.84375,1.722085 -3.84375,3.84375 0,0.169834 0.04111,0.335965 0.0625,0.5 0.2458321,-1.885186 1.8294186,-3.34375 3.78125,-3.34375 1.9518314,0 3.5354179,1.458564 3.78125,3.34375 C 9.9588904,18.304715 10,18.138584 10,17.96875 10,15.847085 8.277915,14.125 6.15625,14.125 z m 8.0625,0.125 -0.0625,0.09375 -1,0.625 -0.59375,-0.375 0.03125,-0.21875 -0.375,0.21875 L 12,14.28125 l 0,0.03125 -0.4375,0.3125 0.65625,0.96875 0.4375,-0.25 0.5,-0.15625 0.96875,0.03125 0.375,-0.375 L 14.21875,14.25 z M 13,16.96875 12.78125,17 l 0.25,1.125 0.5,-0.03125 0.5,0.0625 0.625,0.28125 0.375,-0.1875 0,-0.65625 -1,-0.4375 -0.5,-0.0625 -0.5,0.03125 L 13,16.96875 z M 4.0625,18.5 c -0.028323,0.146422 -0.03125,0.313506 -0.03125,0.46875 0,1.24195 0.952047,2.25 2.125,2.25 1.172953,0 2.125,-1.00805 2.125,-2.25 C 8.28125,18.813506 8.27832,18.646422 8.25,18.5 8.0299818,19.494212 7.1619779,20.21875 6.15625,20.21875 5.1505221,20.21875 4.2825182,19.494212 4.0625,18.5 z m 7.03125,0.0625 C 10.910862,19.989889 10.100226,21.220964 8.96875,22 l 1.0625,0 c 0.675178,-0.840936 1.093751,-1.901557 1.09375,-3.0625 0,-0.127987 -0.02168,-0.249462 -0.03125,-0.375 z M 13,19.875 l -0.21875,0.96875 0.53125,0.09375 0.40625,0.28125 0.375,0.375 0.125,0 L 14.5,21 13.71875,20.21875 13.3125,19.9375 13,19.875 z M 2.15625,20.78125 c 0.192874,0.457524 0.550837,0.823137 1,1.03125 -0.375743,-0.294989 -0.723348,-0.64102 -1,-1.03125 z"
       transform="translate(0,-2)"
       id="path3781" />
  </g>
  <g
     inkscape:groupmode="layer"
     id="layer5"
     inkscape:label="Windows"
     sodipodi:insensitive="true">
    <path
       style="opacity:0.05;fill:#000000;display:inline"
       d="m -28.90625,3.5 c -1.655095,-0.2378744 -3.330641,0.2067575 -4.84375,0.84375 -0.736689,0.4455004 -0.763709,1.3921 -1.025293,2.1353993 -0.433607,1.5579118 -0.916085,3.1248 -1.318457,4.6771007 0.108384,0.369666 -0.263303,0.627721 -0.293944,0.998845 -0.525684,1.864909 -1.062361,3.730241 -1.581056,5.594905 -0.144138,0.870106 0.608195,1.745004 1.5,1.65625 0.79003,-0.108325 1.509053,-0.583212 2.320744,-0.661848 1.169354,-0.262076 2.378349,0.214461 3.273006,0.911848 0.691116,0.191644 1.191387,0.823714 1.887695,1.087049 2.108714,1.112714 4.649249,0.671805 6.737305,-0.243299 0.735496,-0.445844 0.765201,-1.391671 1.030131,-2.134007 0.409735,-1.46583 0.879575,-2.930884 1.251119,-4.397243 -0.08942,-0.429946 0.273165,-0.718129 0.340297,-1.144164 C -19.094671,10.966818 -18.571873,9.1056518 -18.03125,7.25 -17.8925,6.5191511 -18.35502,5.6943302 -19.125,5.5625 -19.897853,5.3530019 -20.592243,5.9791485 -21.349709,6.0854144 -22.61543,6.4817351 -24.065169,6.1723796 -25.0625,5.34375 -25.511615,5.28309 -25.627285,4.9100045 -26.019321,4.7154613 -26.886068,4.1213616 -27.855675,3.6435953 -28.90625,3.5 z"
       id="path4050"
       inkscape:connector-curvature="0" />
    <path
       sodipodi:type="inkscape:offset"
       inkscape:radius="0.85943735"
       inkscape:original="M 10.875 4.90625 C 9.8782507 4.7612322 8.6340057 4.905081 6.96875 5.59375 L 5.34375 11.28125 C 6.6678492 10.734553 7.6868303 10.493091 8.5625 10.5 C 9.8903073 10.5098 10.850231 11.071146 11.71875 11.65625 L 13.34375 6 C 12.622369 5.512104 11.871749 5.0512678 10.875 4.90625 z M 14.21875 6.59375 L 12.5625 12.28125 C 14.001288 13.256777 15.748695 14.051605 18.9375 12.625 L 20.5625 6.9375 C 17.236491 8.3119254 15.658598 7.5637146 14.21875 6.59375 z M 8.96875 11.625 C 7.9722983 11.491438 6.7221934 11.660114 5.0625 12.34375 L 5.03125 12.34375 L 3.4375 18 C 6.7701303 16.622131 8.3371632 17.403976 9.78125 18.375 L 11.4375 12.6875 C 10.718105 12.199074 9.9652017 11.758562 8.96875 11.625 z M 12.3125 13.21875 L 10.65625 18.875 C 12.097689 19.852382 13.702328 20.626809 17.03125 19.25 L 18.625 13.75 C 15.233304 14.909614 13.755526 14.189507 12.3125 13.21875 z "
       style="opacity:0.1;fill:#000000;display:inline"
       id="path4046"
       d="M 11,4.0625 C 9.8222802,3.8911527 8.390909,4.0822057 6.625,4.8125 A 0.85952329,0.85952329 0 0 0 6.15625,5.34375 l -1.625,5.6875 A 0.85952329,0.85952329 0 0 0 4.5625,11.625 0.85952329,0.85952329 0 0 0 4.21875,12.125 L 2.625,17.78125 a 0.85952329,0.85952329 0 0 0 1.15625,1 c 1.569318,-0.648831 2.6015894,-0.742671 3.40625,-0.625 0.8046606,0.117671 1.4337754,0.472711 2.125,0.9375 a 0.85952329,0.85952329 0 0 0 0.5625,0.125 0.85952329,0.85952329 0 0 0 0.3125,0.375 c 0.75606,0.512654 1.632206,1.017485 2.8125,1.1875 1.180294,0.170015 2.612881,-0.0212 4.375,-0.75 A 0.85952329,0.85952329 0 0 0 17.84375,19.5 L 19.4375,14 a 0.85952329,0.85952329 0 0 0 -0.0625,-0.625 0.85952329,0.85952329 0 0 0 0.375,-0.5 L 21.375,7.1875 A 0.85952329,0.85952329 0 0 0 20.21875,6.15625 C 18.650953,6.8041195 17.619579,6.892502 16.8125,6.78125 16.005421,6.669998 15.371699,6.3359156 14.6875,5.875 A 0.85952329,0.85952329 0 0 0 14.15625,5.75 0.85952329,0.85952329 0 0 0 13.8125,5.28125 C 13.069977,4.7790548 12.192622,4.2360155 11,4.0625 z"
       transform="translate(-40,0)" />
    <path
       id="path6902"
       style="opacity:0.3;fill:#000000;display:inline"
       d="m -19.422358,6.9511362 c -3.326009,1.3744254 -4.923987,0.6015258 -6.363835,-0.3684388 l -1.640886,5.6897336 c 1.438788,0.975527 3.177413,1.775443 6.366218,0.348838 l 1.638503,-5.6701328 z m -8.869796,4.6938108 c -0.868519,-0.585104 -1.803256,-1.132066 -3.131063,-1.141866 -0.87567,-0.0069 -1.918739,0.242359 -3.242838,0.789056 l 1.640358,-5.6847014 c 3.330511,-1.3773381 4.930871,-0.5964938 6.373634,0.3792983 l -1.640091,5.6582131 z m 0.593845,1.581822 c 1.443026,0.970757 2.918898,1.682737 6.310594,0.523123 l -1.583144,5.506972 c -3.328922,1.376809 -4.927429,0.597289 -6.368868,-0.380093 l 1.641418,-5.650002 z m -7.235532,-0.891298 c 3.319387,-1.367273 4.926106,-0.637814 6.364895,0.339038 l -1.661812,5.711453 c -1.444087,-0.971024 -3.014253,-1.770675 -6.346884,-0.392806 l 1.624201,-5.649474 0.0196,-0.0082 z"
       inkscape:connector-curvature="0" />
    <path
       d=""
       id="path3510"
       style="fill:url(#linearGradient6673);display:inline"
       inkscape:connector-curvature="0" />
    <path
       d="m 5.0661592,11.903351 c 3.3193867,-1.367274 4.9261055,-0.637814 6.3648948,0.339037 L 9.7692417,17.953841 C 8.3251549,16.982817 6.7549886,16.183166 3.4223583,17.561035 l 1.6242003,-5.649473 0.019601,-0.0082 z"
       id="path6745"
       style="fill:url(#radialGradient4091)"
       inkscape:connector-curvature="0" />
    <path
       d="m 12.301691,12.794648 c 1.443026,0.970757 2.918898,1.682737 6.310594,0.523123 l -1.583144,5.506972 c -3.328922,1.376809 -4.927429,0.597289 -6.368868,-0.380093 l 1.641418,-5.650002 z"
       id="path6747"
       style="fill:url(#radialGradient6842);display:inline"
       inkscape:connector-curvature="0" />
    <path
       d="M 11.707846,11.212826 C 10.839327,10.627722 9.9045904,10.08076 8.5767831,10.07096 7.7011134,10.064052 6.6580442,10.313319 5.333945,10.860016 L 6.9743026,5.1753147 C 10.304814,3.7979766 11.905174,4.5788209 13.347937,5.554613 l -1.640091,5.658213 z"
       id="path6749"
       style="fill:url(#radialGradient6844);display:inline"
       inkscape:connector-curvature="0" />
    <path
       d="M 20.577642,6.5190153 C 17.251633,7.8934407 15.653655,7.1205411 14.213807,6.1505765 L 12.572921,11.84031 c 1.438788,0.975527 3.177413,1.775443 6.366218,0.348838 l 1.638503,-5.6701327 z"
       id="path6751"
       style="fill:url(#radialGradient6846);display:inline"
       inkscape:connector-curvature="0" />
    <g
       style="display:inline"
       id="g6761"
       transform="matrix(0.24499731,0,0,0.24499731,21.326558,0.7441157)">
      <g
         id="g6763">
        <g
           id="g6765">
          <radialGradient
             id="radialGradient6767"
             cx="232.4072"
             cy="-168.50459"
             r="33.058399"
             gradientTransform="matrix(1,0,0,-1,-270.96,-122.0747)"
             gradientUnits="userSpaceOnUse">
            <stop
               offset="0.0011"
               style="stop-color:#D1E7EE"
               id="stop6769" />
            <stop
               offset="0.0979"
               style="stop-color:#CDE4EC"
               id="stop6771" />
            <stop
               offset="0.203"
               style="stop-color:#C0DCE8"
               id="stop6773" />
            <stop
               offset="0.2985"
               style="stop-color:#ADD0E1"
               id="stop6775" />
            <stop
               offset="0.6504"
               style="stop-color:#3982B1"
               id="stop6777" />
            <stop
               offset="0.7203"
               style="stop-color:#3474AA"
               id="stop6779" />
            <stop
               offset="0.899"
               style="stop-color:#285699"
               id="stop6781" />
            <stop
               offset="1"
               style="stop-color:#244B93"
               id="stop6783" />
          </radialGradient>
        </g>
      </g>
    </g>
    <g
       style="display:inline"
       id="g6804"
       transform="matrix(0.24499731,0,0,0.24499731,21.326558,0.7441157)">
      <g
         id="g6806">
        <g
           id="g6808">
          <radialGradient
             id="radialGradient6810"
             cx="232.4072"
             cy="-168.50459"
             r="33.058399"
             gradientTransform="matrix(1,0,0,-1,-270.96,-122.0747)"
             gradientUnits="userSpaceOnUse">
            <stop
               offset="0.0011"
               style="stop-color:#D1E7EE"
               id="stop6812" />
            <stop
               offset="0.0979"
               style="stop-color:#CDE4EC"
               id="stop6814" />
            <stop
               offset="0.203"
               style="stop-color:#C0DCE8"
               id="stop6816" />
            <stop
               offset="0.2985"
               style="stop-color:#ADD0E1"
               id="stop6818" />
            <stop
               offset="0.6504"
               style="stop-color:#3982B1"
               id="stop6820" />
            <stop
               offset="0.7203"
               style="stop-color:#3474AA"
               id="stop6822" />
            <stop
               offset="0.899"
               style="stop-color:#285699"
               id="stop6824" />
            <stop
               offset="1"
               style="stop-color:#244B93"
               id="stop6826" />
          </radialGradient>
        </g>
      </g>
    </g>
    <g
       style="display:inline"
       id="g6872"
       transform="matrix(0.26487286,0,0,0.26487286,22.083181,-0.16902471)">
      <g
         id="g6874">
        <g
           id="g6876">
          <radialGradient
             id="radialGradient6878"
             cx="232.4072"
             cy="-168.50459"
             r="33.058399"
             gradientTransform="matrix(1,0,0,-1,-270.96,-122.0747)"
             gradientUnits="userSpaceOnUse">
            <stop
               offset="0.0011"
               style="stop-color:#D1E7EE"
               id="stop6880" />
            <stop
               offset="0.0979"
               style="stop-color:#CDE4EC"
               id="stop6882" />
            <stop
               offset="0.203"
               style="stop-color:#C0DCE8"
               id="stop6884" />
            <stop
               offset="0.2985"
               style="stop-color:#ADD0E1"
               id="stop6886" />
            <stop
               offset="0.6504"
               style="stop-color:#3982B1"
               id="stop6888" />
            <stop
               offset="0.7203"
               style="stop-color:#3474AA"
               id="stop6890" />
            <stop
               offset="0.899"
               style="stop-color:#285699"
               id="stop6892" />
            <stop
               offset="1"
               style="stop-color:#244B93"
               id="stop6894" />
          </radialGradient>
        </g>
      </g>
    </g>
  </g>
  <g
     inkscape:groupmode="layer"
     id="layer4"
     inkscape:label="Highlights">
    <path
       style="opacity:0.6;fill:url(#linearGradient3859);fill-opacity:1;fill-rule:evenodd;stroke:none;display:inline"
       d="M 4,2 C 2.892,2 2,2.892 2,4 l 0,16 c 0,1.108 0.892,2 2,2 l 16,0 c 1.108,0 2,-0.892 2,-2 L 22,4 C 22,2.892 21.108,2 20,2 L 4,2 z m 0,1.03125 16,0 c 0.5497,0 0.96875,0.4190495 0.96875,0.96875 l 0,16 c 0,0.5497 -0.41905,0.96875 -0.96875,0.96875 l -16,0 C 3.4502995,20.96875 3.03125,20.5497 3.03125,20 l 0,-16 C 3.03125,3.4502995 3.4502995,3.03125 4,3.03125 z"
       id="rect3050"
       inkscape:connector-curvature="0" />
    <path
       id="path3235"
       d="M 4,22 C 2.892,22 2,21.108 2,20 l 0,-1 c 0,1.108 0.892,2 2,2 l 16,0 c 1.108,0 2,-0.892 2,-2 l 0,1 c 0,1.108 -0.892,2 -2,2 L 4,22 z"
       style="opacity:0.35;fill:url(#linearGradient3845);fill-opacity:1;fill-rule:evenodd;stroke:none;display:inline"
       inkscape:connector-curvature="0" />
  </g>
</svg>
