<?xml version="1.0" encoding="UTF-8" standalone="no"?>
<!-- Created with Inkscape (http://www.inkscape.org/) -->

<svg
   xmlns:dc="http://purl.org/dc/elements/1.1/"
   xmlns:cc="http://creativecommons.org/ns#"
   xmlns:rdf="http://www.w3.org/1999/02/22-rdf-syntax-ns#"
   xmlns:svg="http://www.w3.org/2000/svg"
   xmlns="http://www.w3.org/2000/svg"
   xmlns:xlink="http://www.w3.org/1999/xlink"
   xmlns:sodipodi="http://sodipodi.sourceforge.net/DTD/sodipodi-0.dtd"
   xmlns:inkscape="http://www.inkscape.org/namespaces/inkscape"
   width="24"
   height="24"
   id="svg2"
   sodipodi:version="0.32"
   inkscape:version="0.48.0 r9654"
   version="1.0"
   sodipodi:docname="application-x-cue.svg"
   inkscape:output_extension="org.inkscape.output.svg.inkscape"
   style="display:inline">
  <defs
     id="defs4">
    <linearGradient
       inkscape:collect="always"
       id="linearGradient3327">
      <stop
         style="stop-color:#000000;stop-opacity:1;"
         offset="0"
         id="stop3330" />
      <stop
         style="stop-color:#000000;stop-opacity:0;"
         offset="1"
         id="stop3333" />
    </linearGradient>
    <linearGradient
       inkscape:collect="always"
       xlink:href="#linearGradient3327"
       id="linearGradient3335"
       x1="11.375"
       y1="22"
       x2="11.375"
       y2="-9.817296"
       gradientUnits="userSpaceOnUse" />
    <linearGradient
       inkscape:collect="always"
       xlink:href="#ButtonColor"
       id="linearGradient3181"
       x1="-3.0607977"
       y1="27.258198"
       x2="-3.0607977"
       y2="7.2536583"
       gradientUnits="userSpaceOnUse"
       gradientTransform="translate(12.119372,-7.2581977)" />
    <inkscape:perspective
       sodipodi:type="inkscape:persp3d"
       inkscape:vp_x="0 : 11 : 1"
       inkscape:vp_y="0 : 1000 : 0"
       inkscape:vp_z="22 : 11 : 1"
       inkscape:persp3d-origin="11 : 7.3333333 : 1"
       id="perspective2531" />
    <linearGradient
       id="ButtonShadow"
       gradientTransform="scale(0.9883037,1.0118347)"
       x1="9.3550024"
       y1="21.742682"
       x2="9.3550024"
       y2="0.49362123"
       gradientUnits="userSpaceOnUse">
      <stop
         id="stop3277"
         offset="0"
         style="stop-color:#000000;stop-opacity:0.70588237;" />
      <stop
         id="stop3279"
         offset="1"
         style="stop-color:#000000;stop-opacity:0.15686275;" />
    </linearGradient>
    <linearGradient
       inkscape:collect="always"
       id="linearGradient3232">
      <stop
         style="stop-color:#000000;stop-opacity:1;"
         offset="0"
         id="stop3234" />
      <stop
         style="stop-color:#000000;stop-opacity:0;"
         offset="1"
         id="stop3236" />
    </linearGradient>
    <linearGradient
       gradientUnits="userSpaceOnUse"
       y2="-6.0004225"
       x2="11"
       y1="14.805666"
       x1="11"
       id="linearGradient3221"
       xlink:href="#linearGradient3232"
       inkscape:collect="always" />
    <linearGradient
       id="ButtonColor"
       x1="10.31979"
       y1="21"
       x2="10.31979"
       y2="0.99929649"
       gradientUnits="userSpaceOnUse">
      <stop
         style="stop-color:#e6e6e6;stop-opacity:1;"
         offset="0"
         id="stop3189" />
      <stop
         style="stop-color:#f5f5f5;stop-opacity:1;"
         offset="1"
         id="stop3191" />
    </linearGradient>
    <linearGradient
       inkscape:collect="always"
       xlink:href="#ButtonShadow"
       id="linearGradient38042"
       gradientUnits="userSpaceOnUse"
       gradientTransform="scale(0.9883037,1.0118347)"
       x1="9.3550024"
       y1="21.742682"
       x2="9.3550024"
       y2="0.49362123" />
    <filter
       inkscape:collect="always"
       id="filter3194"
       x="-0.18000001"
       width="1.36"
       y="-0.18000001"
       height="1.36"
       color-interpolation-filters="sRGB">
      <feGaussianBlur
         inkscape:collect="always"
         stdDeviation="1.2"
         id="feGaussianBlur3196" />
    </filter>
    <clipPath
       clipPathUnits="userSpaceOnUse"
       id="clipPath2849">
      <rect
         ry="2"
         rx="2"
         y="1"
         x="1"
         height="20"
         width="20"
         id="rect2851"
         style="fill:#ffffff;fill-opacity:1;fill-rule:evenodd;stroke:none;display:inline" />
    </clipPath>
    <inkscape:perspective
       id="perspective2971"
       inkscape:persp3d-origin="0.5 : 0.33333333 : 1"
       inkscape:vp_z="1 : 0.5 : 1"
       inkscape:vp_y="0 : 1000 : 0"
       inkscape:vp_x="0 : 0.5 : 1"
       sodipodi:type="inkscape:persp3d" />
    <clipPath
       clipPathUnits="userSpaceOnUse"
       id="clipPath3271">
      <rect
         style="fill:#ffffff;fill-opacity:1;fill-rule:evenodd;stroke:none"
         id="rect3273"
         width="118"
         height="59"
         x="5"
         y="160.00336" />
    </clipPath>
    <linearGradient
       inkscape:collect="always"
       xlink:href="#linearGradient3236"
       id="linearGradient3809"
       gradientUnits="userSpaceOnUse"
       gradientTransform="matrix(-0.9850397,0.171492,-0.171492,-0.9850397,138.01803,271.06706)"
       x1="5"
       y1="64"
       x2="123"
       y2="64" />
    <linearGradient
       id="linearGradient3236">
      <stop
         id="stop3238"
         offset="0"
         style="stop-color:#ffffff;stop-opacity:0;" />
      <stop
         style="stop-color:#fffc2b;stop-opacity:0.234375;"
         offset="0.34999999"
         id="stop3240" />
      <stop
         style="stop-color:#46d15d;stop-opacity:0.21875;"
         offset="0.5"
         id="stop3242" />
      <stop
         id="stop3244"
         offset="0.64999998"
         style="stop-color:#46d1aa;stop-opacity:0;" />
      <stop
         id="stop3246"
         offset="1"
         style="stop-color:#ffffff;stop-opacity:0;" />
    </linearGradient>
    <linearGradient
       inkscape:collect="always"
       xlink:href="#linearGradient3265"
       id="linearGradient3811"
       gradientUnits="userSpaceOnUse"
       gradientTransform="matrix(-0.8529965,0.5216416,-0.5216416,-0.8529964,151.97682,240.20671)"
       x1="5"
       y1="64"
       x2="123"
       y2="64" />
    <linearGradient
       id="linearGradient3265">
      <stop
         style="stop-color:#ffffff;stop-opacity:0;"
         offset="0"
         id="stop3267" />
      <stop
         id="stop3252"
         offset="0.2"
         style="stop-color:#afcff3;stop-opacity:0;" />
      <stop
         id="stop3269"
         offset="0.34999999"
         style="stop-color:#60a0e7;stop-opacity:0.1484375;" />
      <stop
         id="stop3271"
         offset="0.5"
         style="stop-color:#db8ef1;stop-opacity:0.2109375;" />
      <stop
         style="stop-color:#ffffff;stop-opacity:0;"
         offset="0.64999998"
         id="stop3273" />
      <stop
         style="stop-color:#ffffff;stop-opacity:0;"
         offset="1"
         id="stop3275" />
    </linearGradient>
    <linearGradient
       inkscape:collect="always"
       xlink:href="#linearGradient3247"
       id="linearGradient3813"
       gradientUnits="userSpaceOnUse"
       gradientTransform="matrix(-0.881451,-0.4719713,0.4719713,-0.881451,90.206697,305.61903)"
       x1="5"
       y1="64"
       x2="123"
       y2="64" />
    <linearGradient
       id="linearGradient3247">
      <stop
         id="stop3249"
         offset="0"
         style="stop-color:#ffffff;stop-opacity:0;" />
      <stop
         id="stop3293"
         offset="0.30000001"
         style="stop-color:#d5d5d5;stop-opacity:0;" />
      <stop
         style="stop-color:#eb8888;stop-opacity:0.2578125;"
         offset="0.5"
         id="stop3251" />
      <stop
         id="stop3295"
         offset="0.69999999"
         style="stop-color:#e28f25;stop-opacity:0;" />
      <stop
         id="stop3253"
         offset="1"
         style="stop-color:#ffffff;stop-opacity:0;" />
    </linearGradient>
    <clipPath
       clipPathUnits="userSpaceOnUse"
       id="clipPath2999">
      <rect
         style="fill:#ffffff;fill-opacity:1;fill-rule:evenodd;stroke:none"
         id="rect3001"
         width="118"
         height="59"
         x="5"
         y="160.00336" />
    </clipPath>
    <linearGradient
       inkscape:collect="always"
       xlink:href="#linearGradient3236"
       id="linearGradient3815"
       gradientUnits="userSpaceOnUse"
       gradientTransform="matrix(-0.9850397,0.171492,-0.171492,-0.9850397,138.01803,271.06706)"
       x1="5"
       y1="64"
       x2="123"
       y2="64" />
    <linearGradient
       id="linearGradient3004">
      <stop
         id="stop3006"
         offset="0"
         style="stop-color:#ffffff;stop-opacity:0;" />
      <stop
         style="stop-color:#fffc2b;stop-opacity:0.234375;"
         offset="0.34999999"
         id="stop3008" />
      <stop
         style="stop-color:#46d15d;stop-opacity:0.21875;"
         offset="0.5"
         id="stop3010" />
      <stop
         id="stop3012"
         offset="0.64999998"
         style="stop-color:#46d1aa;stop-opacity:0;" />
      <stop
         id="stop3014"
         offset="1"
         style="stop-color:#ffffff;stop-opacity:0;" />
    </linearGradient>
    <linearGradient
       inkscape:collect="always"
       xlink:href="#linearGradient3265"
       id="linearGradient3817"
       gradientUnits="userSpaceOnUse"
       gradientTransform="matrix(-0.8529965,0.5216416,-0.5216416,-0.8529964,151.97682,240.20671)"
       x1="5"
       y1="64"
       x2="123"
       y2="64" />
    <linearGradient
       id="linearGradient3017">
      <stop
         style="stop-color:#ffffff;stop-opacity:0;"
         offset="0"
         id="stop3019" />
      <stop
         id="stop3021"
         offset="0.2"
         style="stop-color:#afcff3;stop-opacity:0;" />
      <stop
         id="stop3023"
         offset="0.34999999"
         style="stop-color:#60a0e7;stop-opacity:0.1484375;" />
      <stop
         id="stop3025"
         offset="0.5"
         style="stop-color:#db8ef1;stop-opacity:0.2109375;" />
      <stop
         style="stop-color:#ffffff;stop-opacity:0;"
         offset="0.64999998"
         id="stop3027" />
      <stop
         style="stop-color:#ffffff;stop-opacity:0;"
         offset="1"
         id="stop3029" />
    </linearGradient>
    <linearGradient
       inkscape:collect="always"
       xlink:href="#linearGradient3247"
       id="linearGradient3819"
       gradientUnits="userSpaceOnUse"
       gradientTransform="matrix(-0.881451,-0.4719713,0.4719713,-0.881451,90.206697,305.61903)"
       x1="5"
       y1="64"
       x2="123"
       y2="64" />
    <linearGradient
       id="linearGradient3032">
      <stop
         id="stop3034"
         offset="0"
         style="stop-color:#ffffff;stop-opacity:0;" />
      <stop
         id="stop3036"
         offset="0.30000001"
         style="stop-color:#d5d5d5;stop-opacity:0;" />
      <stop
         style="stop-color:#eb8888;stop-opacity:0.2578125;"
         offset="0.5"
         id="stop3038" />
      <stop
         id="stop3040"
         offset="0.69999999"
         style="stop-color:#e28f25;stop-opacity:0;" />
      <stop
         id="stop3042"
         offset="1"
         style="stop-color:#ffffff;stop-opacity:0;" />
    </linearGradient>
    <linearGradient
       inkscape:collect="always"
       xlink:href="#linearGradient3233"
       id="linearGradient3985"
       gradientUnits="userSpaceOnUse"
       gradientTransform="matrix(0.11741975,0.06759235,-0.06779228,0.11707355,8.823713,-1.7949062)"
       x1="5"
       y1="64"
       x2="123"
       y2="64" />
    <linearGradient
       id="linearGradient3233">
      <stop
         style="stop-color:#ffffff;stop-opacity:0;"
         offset="0"
         id="stop3235" />
      <stop
         id="stop3297"
         offset="0.15000001"
         style="stop-color:#ffffff;stop-opacity:0;" />
      <stop
         id="stop3241"
         offset="0.5"
         style="stop-color:#ffffff;stop-opacity:1;" />
      <stop
         style="stop-color:#ffffff;stop-opacity:0;"
         offset="0.85000002"
         id="stop3299" />
      <stop
         style="stop-color:#ffffff;stop-opacity:0;"
         offset="1"
         id="stop3237" />
    </linearGradient>
    <linearGradient
       inkscape:collect="always"
       xlink:href="#linearGradient4114"
       id="linearGradient3988"
       gradientUnits="userSpaceOnUse"
       gradientTransform="matrix(0.2447413,0,0,0.29314026,-2.6586566,-8.175967)"
       x1="73.015572"
       y1="89.130737"
       x2="73.015572"
       y2="34.606899" />
    <linearGradient
       gradientTransform="matrix(1.0172414,0,0,1.0172414,-1.1034483,-1.1034483)"
       gradientUnits="userSpaceOnUse"
       y2="5.4252338"
       x2="58.650177"
       y1="122"
       x1="58.650177"
       id="linearGradient4114">
      <stop
         id="stop4116"
         offset="0"
         style="stop-color:#b8abbd;stop-opacity:1;" />
      <stop
         id="stop4118"
         offset="1"
         style="stop-color:#dddbde;stop-opacity:1;" />
    </linearGradient>
    <clipPath
       clipPathUnits="userSpaceOnUse"
       id="clipPath3055">
      <rect
         style="fill:#ffffff;fill-opacity:1;fill-rule:evenodd;stroke:none"
         id="rect3057"
         width="118"
         height="59"
         x="5"
         y="160.00336" />
    </clipPath>
    <clipPath
       clipPathUnits="userSpaceOnUse"
       id="clipPath3059">
      <rect
         style="fill:#ffffff;fill-opacity:1;fill-rule:evenodd;stroke:none"
         id="rect3061"
         width="118"
         height="59"
         x="5"
         y="160.00336" />
    </clipPath>
    <inkscape:perspective
       id="perspective3093"
       inkscape:persp3d-origin="0.5 : 0.33333333 : 1"
       inkscape:vp_z="1 : 0.5 : 1"
       inkscape:vp_y="0 : 1000 : 0"
       inkscape:vp_x="0 : 0.5 : 1"
       sodipodi:type="inkscape:persp3d" />
    <radialGradient
       inkscape:collect="always"
       xlink:href="#linearGradient3293"
       id="radialGradient3300"
       cx="5.9628973"
       cy="10.957597"
       fx="5.9628973"
       fy="10.957597"
       r="1.5017668"
       gradientUnits="userSpaceOnUse" />
    <linearGradient
       id="linearGradient3293">
      <stop
         style="stop-color:#fb9d00;stop-opacity:1;"
         offset="0"
         id="stop3296" />
      <stop
         id="stop3839"
         offset="0.2"
         style="stop-color:#f30000;stop-opacity:1;" />
      <stop
         id="stop3302"
         offset="0.37422588"
         style="stop-color:#fb0000;stop-opacity:0.66129035;" />
      <stop
         style="stop-color:#eb0000;stop-opacity:0.29032257;"
         offset="0.68711293"
         id="stop3843" />
      <stop
         style="stop-color:#dc0000;stop-opacity:0;"
         offset="1"
         id="stop3298" />
    </linearGradient>
    <linearGradient
       inkscape:collect="always"
       xlink:href="#linearGradient3308"
       id="linearGradient3314"
       x1="16.105755"
       y1="11.567555"
       x2="7.0534859"
       y2="11.090799"
       gradientUnits="userSpaceOnUse" />
    <linearGradient
       inkscape:collect="always"
       id="linearGradient3308">
      <stop
         style="stop-color:#fc0000;stop-opacity:1;"
         offset="0"
         id="stop3310" />
      <stop
         style="stop-color:#fc0000;stop-opacity:0;"
         offset="1"
         id="stop3312" />
    </linearGradient>
    <linearGradient
       y2="11.090799"
       x2="7.0534859"
       y1="11.567555"
       x1="16.105755"
       gradientUnits="userSpaceOnUse"
       id="linearGradient3110"
       xlink:href="#linearGradient3308"
       inkscape:collect="always" />
    <linearGradient
       y2="16"
       x2="10"
       y1="1"
       x1="10"
       gradientUnits="userSpaceOnUse"
       id="linearGradient3078"
       xlink:href="#linearGradient3823"
       inkscape:collect="always"
       gradientTransform="translate(1,-1)" />
    <linearGradient
       id="linearGradient3823">
      <stop
         id="stop3825"
         offset="0"
         style="stop-color:#ffffff;stop-opacity:1;" />
      <stop
         id="stop3829"
         offset="1"
         style="stop-color:#ffffff;stop-opacity:0;" />
    </linearGradient>
    <linearGradient
       inkscape:collect="always"
       xlink:href="#linearGradient3831"
       id="linearGradient3845"
       x1="11"
       y1="19.5"
       x2="21"
       y2="19.5"
       gradientUnits="userSpaceOnUse"
       spreadMethod="reflect"
       gradientTransform="translate(1,-1)" />
    <linearGradient
       id="linearGradient3831">
      <stop
         style="stop-color:#ffffff;stop-opacity:1;"
         offset="0"
         id="stop3833" />
      <stop
         id="stop3821"
         offset="0.75"
         style="stop-color:#ffffff;stop-opacity:0.49803922;" />
      <stop
         style="stop-color:#ffffff;stop-opacity:0;"
         offset="1"
         id="stop3835" />
    </linearGradient>
    <linearGradient
       y2="16"
       x2="10"
       y1="1"
       x1="10"
       gradientTransform="translate(1,-1)"
       gradientUnits="userSpaceOnUse"
       id="linearGradient3859"
       xlink:href="#linearGradient3823"
       inkscape:collect="always" />
  </defs>
  <sodipodi:namedview
     id="base"
     pagecolor="#ffffff"
     bordercolor="#e7e7e7"
     borderopacity="1"
     inkscape:pageopacity="0.0"
     inkscape:pageshadow="2"
     inkscape:zoom="10.773548"
     inkscape:cx="-39.469872"
     inkscape:cy="-2.9379019"
     inkscape:document-units="px"
     inkscape:current-layer="layer1"
     showgrid="true"
     inkscape:showpageshadow="false"
     showguides="false"
     inkscape:guide-bbox="true"
     inkscape:window-width="1920"
     inkscape:window-height="1026"
     inkscape:window-x="0"
     inkscape:window-y="25"
     inkscape:window-maximized="1">
    <sodipodi:guide
       orientation="1,0"
       position="0,112"
       id="guide2383" />
    <sodipodi:guide
       orientation="0,1"
       position="26.278146,128"
       id="guide2385" />
    <sodipodi:guide
       orientation="1,0"
       position="128,54.082119"
       id="guide2387" />
    <sodipodi:guide
       orientation="0,1"
       position="78.156291,0"
       id="guide2389" />
    <sodipodi:guide
       orientation="0,1"
       position="60.863576,64.084768"
       id="guide2391" />
    <inkscape:grid
       type="xygrid"
       id="grid3672"
       visible="true"
       enabled="true"
       empspacing="8"
       snapvisiblegridlinesonly="true" />
  </sodipodi:namedview>
  <metadata
     id="metadata7">
    <rdf:RDF>
      <cc:Work
         rdf:about="">
        <dc:format>image/svg+xml</dc:format>
        <dc:type
           rdf:resource="http://purl.org/dc/dcmitype/StillImage" />
        <dc:title />
      </cc:Work>
    </rdf:RDF>
  </metadata>
  <g
     inkscape:label="Button"
     inkscape:groupmode="layer"
     id="layer1"
     transform="translate(0,2)">
    <g
       style="display:inline"
       id="g3337"
       transform="translate(1,-1)">
      <rect
         ry="2.5"
         rx="2.5"
         y="0.5"
         x="0.5"
         height="21.5"
         width="21"
         id="rect3371"
         style="opacity:0.3;fill:url(#linearGradient3335);fill-opacity:1;stroke:none;display:inline" />
      <rect
         style="opacity:0.5;fill:#000000;fill-opacity:1;stroke:none;display:inline"
         id="rect2553"
         width="20"
         height="20"
         x="1"
         y="2"
         rx="2.3809524"
         ry="2.3255813" />
    </g>
    <rect
       style="fill:url(#linearGradient3181);fill-opacity:1;fill-rule:evenodd;stroke:none;display:inline"
       id="rect3173"
       width="20"
       height="20"
       x="2"
       y="0"
       rx="2"
       ry="2" />
    <path
       style="opacity:0.6;fill:url(#linearGradient3859);fill-opacity:1;fill-rule:evenodd;stroke:none;display:inline"
       d="M 4,0 C 2.892,0 2,0.892 2,2 l 0,16 c 0,1.108 0.892,2 2,2 l 16,0 c 1.108,0 2,-0.892 2,-2 L 22,2 C 22,0.892 21.108,0 20,0 L 4,0 z m 0,1.03125 16,0 c 0.5497,0 0.96875,0.4190495 0.96875,0.96875 l 0,16 c 0,0.5497 -0.41905,0.96875 -0.96875,0.96875 l -16,0 C 3.4502995,18.96875 3.03125,18.5497 3.03125,18 l 0,-16 C 3.03125,1.4502995 3.4502995,1.03125 4,1.03125 z"
       id="rect3050"
       inkscape:connector-curvature="0" />
    <path
       id="path3235"
       d="M 4,20 C 2.892,20 2,19.108 2,18 l 0,-1 c 0,1.108 0.892,2 2,2 l 16,0 c 1.108,0 2,-0.892 2,-2 l 0,1 c 0,1.108 -0.892,2 -2,2 L 4,20 z"
       style="opacity:0.35;fill:url(#linearGradient3845);fill-opacity:1;fill-rule:evenodd;stroke:none;display:inline"
       inkscape:connector-curvature="0" />
  </g>
  <g
     inkscape:groupmode="layer"
     id="layer2"
     inkscape:label="Highlight"
     transform="translate(0,2)"
     sodipodi:insensitive="true"
     style="display:inline">
    <rect
       style="opacity:0.15;fill:#ffffff;fill-opacity:1;fill-rule:nonzero;stroke:none;display:inline;filter:url(#filter3194)"
       id="rect2410"
       width="16"
       height="16"
       x="3"
       y="3"
       rx="2"
       ry="2"
       clip-path="url(#clipPath2849)"
       transform="translate(1,-1)" />
  </g>
  <g
     inkscape:groupmode="layer"
     id="layer3"
     inkscape:label="Disc"
     transform="translate(0,2)"
     sodipodi:insensitive="true">
    <path
       sodipodi:type="arc"
       style="color:#000000;fill:#e6e6e6;fill-opacity:1;fill-rule:nonzero;stroke:none;stroke-width:0.5;marker:none;visibility:visible;display:inline;overflow:visible;enable-background:accumulate"
       id="path3932"
       sodipodi:cx="12"
       sodipodi:cy="12"
       sodipodi:rx="4"
       sodipodi:ry="4"
       d="m 16,12 c 0,2.209139 -1.790861,4 -4,4 -2.209139,0 -4,-1.790861 -4,-4 0,-2.209139 1.790861,-4 4,-4 2.209139,0 4,1.790861 4,4 z"
       transform="translate(0,-2)" />
    <path
       style="opacity:0.4;fill:#000000;fill-opacity:1;fill-rule:evenodd;stroke:none;display:inline"
       d="M 12,7 C 10.343146,7 9,8.343146 9,10 9,10.09816 9.02203,10.185503 9.03125,10.28125 9.177575,8.760929 10.441309,7.5625 12,7.5625 c 1.558691,0 2.822425,1.198429 2.96875,2.71875 C 14.977965,10.185503 15,10.098163 15,10 15,8.343146 13.656854,7 12,7 z"
       id="path3137"
       sodipodi:nodetypes="cscscsc" />
    <path
       style="opacity:0.3;fill:#ffffff;fill-opacity:1;fill-rule:evenodd;stroke:none;display:inline"
       d="m 11.999867,6.2921518 c -2.039204,0 -3.694679,1.6505925 -3.694679,3.6837752 0,2.03319 1.655476,3.683792 3.694679,3.683792 2.039203,0 3.69468,-1.650602 3.69468,-3.683792 0,-2.0331827 -1.655477,-3.6837752 -3.69468,-3.6837752 z m 0,2.6023004 c 0.598741,0 1.084678,0.4845088 1.084678,1.0814748 0,0.596981 -0.485936,1.081483 -1.084678,1.081483 -0.598741,0 -1.084675,-0.484502 -1.084675,-1.081483 0,-0.596966 0.485934,-1.0814748 1.084675,-1.0814748 z"
       id="path3307" />
    <path
       style="fill:url(#linearGradient3988);fill-opacity:1;fill-rule:evenodd;stroke:none;display:inline"
       d="m 12,2.0000005 c -4.4157179,0 -8,3.5660652 -8,7.9687495 0,4.402698 3.5842829,7.96875 8,7.96875 4.415718,0 8,-3.566052 8,-7.96875 0,-4.4026843 -3.584282,-7.9687495 -8,-7.9687495 z m 0,5 c 1.656854,0 3,1.343146 3,2.9999995 0,1.656854 -1.343146,3 -3,3 -1.656854,0 -3,-1.343146 -3,-3 0,-1.6568535 1.343146,-2.9999995 3,-2.9999995 z"
       id="path3170" />
    <path
       style="opacity:0.8;fill:url(#linearGradient3985);fill-opacity:1;fill-rule:evenodd;stroke:none;display:inline"
       d="M 11.4375,2.0625005 C 8.875591,2.2433453 6.442412,3.6482259 5.0625,6.0312505 2.854641,9.844089 4.175876,14.736157 8,16.9375 11.824124,19.13885 16.72964,17.812839 18.9375,14 21.145359,10.187146 19.824125,5.3263507 16,3.1250005 14.565953,2.2994942 12.974646,1.9539936 11.4375,2.0625005 z M 12,7.0000005 c 1.656854,0 3,1.343146 3,2.9999995 0,1.656854 -1.343146,3 -3,3 -1.656854,0 -3,-1.343146 -3,-3 0,-1.6568535 1.343146,-2.9999995 3,-2.9999995 z"
       id="path3230" />
    <g
       style="display:inline"
       id="g3289"
       transform="matrix(0.08328149,-0.1066768,0.10699237,0.08303595,-16.761654,-1.3815225)">
      <g
         clip-path="url(#clipPath3271)"
         id="g3266">
        <path
           id="path3259"
           d="M 74.118027,277.11735 C 106.19881,271.5322 127.70249,240.96275 122.11734,208.88198 116.5322,176.8012 85.962749,155.29751 53.881978,160.88266 21.801203,166.46781 0.29750806,197.03725 5.8826547,229.11804 11.4678,261.19881 42.037246,282.70249 74.118027,277.11735 z m -6.516698,-37.43151 c -11.41858,1.98793 -22.299227,-5.66593 -24.287158,-17.08451 -1.987941,-11.41857 5.665921,-22.29923 17.084499,-24.28716 11.41858,-1.98793 22.299233,5.66593 24.28717,17.08451 1.987924,11.41857 -5.665932,22.29923 -17.084511,24.28716 z"
           style="fill:url(#linearGradient3809);fill-opacity:1;fill-rule:evenodd;stroke:none;display:inline" />
        <path
           style="fill:url(#linearGradient3811);fill-opacity:1;fill-rule:evenodd;stroke:none;display:inline"
           d="M 94.776853,269.3268 C 122.55724,252.33798 131.31561,216.00355 114.32679,188.22315 97.337964,160.44278 61.003543,151.6844 33.223145,168.67322 5.4427579,185.66204 -3.3156068,221.99648 13.673211,249.77686 30.662035,277.55725 66.996455,286.31562 94.776853,269.3268 z M 74.954469,236.91293 c -9.88793,6.04687 -22.820523,2.92947 -28.867393,-6.95846 -6.046863,-9.88793 -2.929476,-22.82053 6.958454,-28.86739 9.887938,-6.04686 22.820537,-2.92949 28.867401,6.95845 6.046855,9.88793 2.929476,22.82053 -6.958462,28.8674 z"
           id="path3231" />
        <path
           style="fill:url(#linearGradient3813);fill-opacity:1;fill-rule:evenodd;stroke:none;display:inline"
           d="m 36.153689,271.00561 c 28.707102,15.37117 64.480751,4.54779 79.851921,-24.1593 15.37116,-28.70708 4.5478,-64.48074 -24.159308,-79.85191 -28.707087,-15.37116 -64.480736,-4.5478 -79.851909,24.15931 -15.371173,28.70708 -4.5478122,64.48073 24.159296,79.8519 z m 17.934913,-33.49512 c -10.217773,-5.4711 -14.070163,-18.2041 -8.599064,-28.42189 5.471077,-10.21777 18.204079,-14.07015 28.421859,-8.59906 10.217787,5.47108 14.07017,18.2041 8.599071,28.42186 -5.471084,10.21778 -18.204093,14.07016 -28.421866,8.59909 z"
           id="path3243" />
      </g>
      <g
         transform="matrix(1,0,0,-1,0,438.00336)"
         id="g3275"
         clip-path="url(#clipPath3271)">
        <path
           style="fill:url(#linearGradient3815);fill-opacity:1;fill-rule:evenodd;stroke:none;display:inline"
           d="M 74.118027,277.11735 C 106.19881,271.5322 127.70249,240.96275 122.11734,208.88198 116.5322,176.8012 85.962749,155.29751 53.881978,160.88266 21.801203,166.46781 0.29750806,197.03725 5.8826547,229.11804 11.4678,261.19881 42.037246,282.70249 74.118027,277.11735 z m -6.516698,-37.43151 c -11.41858,1.98793 -22.299227,-5.66593 -24.287158,-17.08451 -1.987941,-11.41857 5.665921,-22.29923 17.084499,-24.28716 11.41858,-1.98793 22.299233,5.66593 24.28717,17.08451 1.987924,11.41857 -5.665932,22.29923 -17.084511,24.28716 z"
           id="path3277" />
        <path
           id="path3279"
           d="M 94.776853,269.3268 C 122.55724,252.33798 131.31561,216.00355 114.32679,188.22315 97.337964,160.44278 61.003543,151.6844 33.223145,168.67322 5.4427579,185.66204 -3.3156068,221.99648 13.673211,249.77686 30.662035,277.55725 66.996455,286.31562 94.776853,269.3268 z M 74.954469,236.91293 c -9.88793,6.04687 -22.820523,2.92947 -28.867393,-6.95846 -6.046863,-9.88793 -2.929476,-22.82053 6.958454,-28.86739 9.887938,-6.04686 22.820537,-2.92949 28.867401,6.95845 6.046855,9.88793 2.929476,22.82053 -6.958462,28.8674 z"
           style="fill:url(#linearGradient3817);fill-opacity:1;fill-rule:evenodd;stroke:none;display:inline" />
        <path
           id="path3281"
           d="m 36.153689,271.00561 c 28.707102,15.37117 64.480751,4.54779 79.851921,-24.1593 15.37116,-28.70708 4.5478,-64.48074 -24.159308,-79.85191 -28.707087,-15.37116 -64.480736,-4.5478 -79.851909,24.15931 -15.371173,28.70708 -4.5478122,64.48073 24.159296,79.8519 z m 17.934913,-33.49512 c -10.217773,-5.4711 -14.070163,-18.2041 -8.599064,-28.42189 5.471077,-10.21777 18.204079,-14.07015 28.421859,-8.59906 10.217787,5.47108 14.07017,18.2041 8.599071,28.42186 -5.471084,10.21778 -18.204093,14.07016 -28.421866,8.59909 z"
           style="fill:url(#linearGradient3819);fill-opacity:1;fill-rule:evenodd;stroke:none;display:inline" />
      </g>
    </g>
    <path
       id="path3913"
       d="m -18,2.0000005 c -4.415718,0 -8,3.5660652 -8,7.9687495 0,4.402698 3.584283,7.96875 8,7.96875 4.415718,0 8,-3.566052 8,-7.96875 0,-4.4026843 -3.584282,-7.9687495 -8,-7.9687495 z m 0,5 c 1.656854,0 3,1.343146 3,2.9999995 0,1.656854 -1.343146,3 -3,3 -1.656854,0 -3,-1.343146 -3,-3 0,-1.6568535 1.343146,-2.9999995 3,-2.9999995 z"
       style="fill:#999999;fill-opacity:1;fill-rule:evenodd;stroke:none;display:inline" />
    <path
       style="opacity:0.4;fill:#ffffff;fill-opacity:1;fill-rule:evenodd;stroke:none;display:inline"
       d="M 4.03125,12.46875 C 4.0207831,12.635605 4,12.79926 4,12.96875 c 0,4.402698 3.584283,7.96875 8,7.96875 4.415718,0 8,-3.566052 8,-7.96875 0,-0.16949 -0.02078,-0.333145 -0.03125,-0.5 C 19.707328,16.636131 16.245726,19.9375 12,19.9375 c -4.2457249,0 -7.7073281,-3.301369 -7.96875,-7.46875 z"
       transform="translate(0,-2)"
       id="path3917"
       sodipodi:nodetypes="cssscsc" />
    <g
       transform="matrix(0.08328149,-0.1066768,0.10699237,0.08303595,-16.761654,-1.3815225)"
       id="g4008"
       style="display:inline">
      <g
         id="g4010"
         clip-path="url(#clipPath3271)">
        <path
           style="fill:url(#linearGradient3809);fill-opacity:1;fill-rule:evenodd;stroke:none;display:inline"
           d="M 74.118027,277.11735 C 106.19881,271.5322 127.70249,240.96275 122.11734,208.88198 116.5322,176.8012 85.962749,155.29751 53.881978,160.88266 21.801203,166.46781 0.29750806,197.03725 5.8826547,229.11804 11.4678,261.19881 42.037246,282.70249 74.118027,277.11735 z m -6.516698,-37.43151 c -11.41858,1.98793 -22.299227,-5.66593 -24.287158,-17.08451 -1.987941,-11.41857 5.665921,-22.29923 17.084499,-24.28716 11.41858,-1.98793 22.299233,5.66593 24.28717,17.08451 1.987924,11.41857 -5.665932,22.29923 -17.084511,24.28716 z"
           id="path4012" />
        <path
           id="path4014"
           d="M 94.776853,269.3268 C 122.55724,252.33798 131.31561,216.00355 114.32679,188.22315 97.337964,160.44278 61.003543,151.6844 33.223145,168.67322 5.4427579,185.66204 -3.3156068,221.99648 13.673211,249.77686 30.662035,277.55725 66.996455,286.31562 94.776853,269.3268 z M 74.954469,236.91293 c -9.88793,6.04687 -22.820523,2.92947 -28.867393,-6.95846 -6.046863,-9.88793 -2.929476,-22.82053 6.958454,-28.86739 9.887938,-6.04686 22.820537,-2.92949 28.867401,6.95845 6.046855,9.88793 2.929476,22.82053 -6.958462,28.8674 z"
           style="fill:url(#linearGradient3811);fill-opacity:1;fill-rule:evenodd;stroke:none;display:inline" />
        <path
           id="path4016"
           d="m 36.153689,271.00561 c 28.707102,15.37117 64.480751,4.54779 79.851921,-24.1593 15.37116,-28.70708 4.5478,-64.48074 -24.159308,-79.85191 -28.707087,-15.37116 -64.480736,-4.5478 -79.851909,24.15931 -15.371173,28.70708 -4.5478122,64.48073 24.159296,79.8519 z m 17.934913,-33.49512 c -10.217773,-5.4711 -14.070163,-18.2041 -8.599064,-28.42189 5.471077,-10.21777 18.204079,-14.07015 28.421859,-8.59906 10.217787,5.47108 14.07017,18.2041 8.599071,28.42186 -5.471084,10.21778 -18.204093,14.07016 -28.421866,8.59909 z"
           style="fill:url(#linearGradient3813);fill-opacity:1;fill-rule:evenodd;stroke:none;display:inline" />
      </g>
      <g
         clip-path="url(#clipPath3271)"
         id="g4018"
         transform="matrix(1,0,0,-1,0,438.00336)">
        <path
           id="path4020"
           d="M 74.118027,277.11735 C 106.19881,271.5322 127.70249,240.96275 122.11734,208.88198 116.5322,176.8012 85.962749,155.29751 53.881978,160.88266 21.801203,166.46781 0.29750806,197.03725 5.8826547,229.11804 11.4678,261.19881 42.037246,282.70249 74.118027,277.11735 z m -6.516698,-37.43151 c -11.41858,1.98793 -22.299227,-5.66593 -24.287158,-17.08451 -1.987941,-11.41857 5.665921,-22.29923 17.084499,-24.28716 11.41858,-1.98793 22.299233,5.66593 24.28717,17.08451 1.987924,11.41857 -5.665932,22.29923 -17.084511,24.28716 z"
           style="fill:url(#linearGradient3815);fill-opacity:1;fill-rule:evenodd;stroke:none;display:inline" />
        <path
           style="fill:url(#linearGradient3817);fill-opacity:1;fill-rule:evenodd;stroke:none;display:inline"
           d="M 94.776853,269.3268 C 122.55724,252.33798 131.31561,216.00355 114.32679,188.22315 97.337964,160.44278 61.003543,151.6844 33.223145,168.67322 5.4427579,185.66204 -3.3156068,221.99648 13.673211,249.77686 30.662035,277.55725 66.996455,286.31562 94.776853,269.3268 z M 74.954469,236.91293 c -9.88793,6.04687 -22.820523,2.92947 -28.867393,-6.95846 -6.046863,-9.88793 -2.929476,-22.82053 6.958454,-28.86739 9.887938,-6.04686 22.820537,-2.92949 28.867401,6.95845 6.046855,9.88793 2.929476,22.82053 -6.958462,28.8674 z"
           id="path4022" />
        <path
           style="fill:url(#linearGradient3819);fill-opacity:1;fill-rule:evenodd;stroke:none;display:inline"
           d="m 36.153689,271.00561 c 28.707102,15.37117 64.480751,4.54779 79.851921,-24.1593 15.37116,-28.70708 4.5478,-64.48074 -24.159308,-79.85191 -28.707087,-15.37116 -64.480736,-4.5478 -79.851909,24.15931 -15.371173,28.70708 -4.5478122,64.48073 24.159296,79.8519 z m 17.934913,-33.49512 c -10.217773,-5.4711 -14.070163,-18.2041 -8.599064,-28.42189 5.471077,-10.21777 18.204079,-14.07015 28.421859,-8.59906 10.217787,5.47108 14.07017,18.2041 8.599071,28.42186 -5.471084,10.21778 -18.204093,14.07016 -28.421866,8.59909 z"
           id="path4024" />
      </g>
    </g>
    <path
       style="opacity:0.15;color:#000000;fill:#000000;fill-opacity:1;fill-rule:nonzero;stroke:none;stroke-width:0.5;marker:none;visibility:visible;display:inline;overflow:visible;enable-background:accumulate"
       d="m 12,4 c -4.418278,0 -8,3.581722 -8,8 0,4.418278 3.581722,8 8,8 4.418278,0 8,-3.581722 8,-8 0,-4.418278 -3.581722,-8 -8,-8 z m 0,1 c 3.865993,0 7,3.1340068 7,7 0,3.865993 -3.134007,7 -7,7 C 8.1340068,19 5,15.865993 5,12 5,8.1340068 8.1340068,5 12,5 z"
       transform="translate(0,-2)"
       id="path3922" />
    <path
       style="opacity:0.2;color:#000000;fill:#ffffff;fill-opacity:1;fill-rule:nonzero;stroke:none;stroke-width:0.5;marker:none;visibility:visible;display:inline;overflow:visible;enable-background:accumulate"
       d="M 12,5 C 8.1340068,5 5,8.1340068 5,12 5,12.168225 5.0195795,12.334745 5.03125,12.5 5.2877786,8.867514 8.3022322,6 12,6 15.697768,6 18.712221,8.867514 18.96875,12.5 18.98042,12.334745 19,12.168225 19,12 19,8.1340068 15.865993,5 12,5 z"
       transform="translate(0,-2)"
       id="path3927" />
    <path
       sodipodi:type="arc"
       style="opacity:0.09836067;color:#000000;fill:none;stroke:#000000;stroke-width:0.5;marker:none;visibility:visible;display:inline;overflow:visible;enable-background:accumulate"
       id="path3936"
       sodipodi:cx="11.960504"
       sodipodi:cy="12.003687"
       sodipodi:rx="1.0394965"
       sodipodi:ry="0.99631333"
       d="M 13,12.003687 C 13,12.553936 12.534602,13 11.960504,13 c -0.574099,0 -1.039497,-0.446064 -1.039497,-0.996313 0,-0.550249 0.465398,-0.996313 1.039497,-0.996313 0.574098,0 1.039496,0.446064 1.039496,0.996313 z"
       transform="translate(0,-2)" />
    <path
       style="opacity:0.3;color:#000000;fill:#000000;fill-opacity:1;fill-rule:nonzero;stroke:none;stroke-width:0.5;marker:none;visibility:visible;display:inline;overflow:visible;enable-background:accumulate"
       d="M 12,4 C 7.581722,4 4,7.581722 4,12 4,12.08484 3.99738,12.165795 4,12.25 4.1339209,7.9490669 7.6665634,4.5 12,4.5 c 4.333437,0 7.866079,3.4490669 8,7.75 0.0026,-0.08421 0,-0.165159 0,-0.25 0,-4.418278 -3.581722,-8 -8,-8 z"
       transform="translate(0,-2)"
       id="path3938"
       sodipodi:nodetypes="cscscsc" />
    <path
       transform="matrix(2.8480168,0,0,2.8480168,-22.103211,-24.183015)"
       d="M 13,12.003687 C 13,12.553936 12.534602,13 11.960504,13 c -0.574099,0 -1.039497,-0.446064 -1.039497,-0.996313 0,-0.550249 0.465398,-0.996313 1.039497,-0.996313 0.574098,0 1.039496,0.446064 1.039496,0.996313 z"
       sodipodi:ry="0.99631333"
       sodipodi:rx="1.0394965"
       sodipodi:cy="12.003687"
       sodipodi:cx="11.960504"
       id="path4006"
       style="opacity:0.2;color:#000000;fill:none;stroke:#000000;stroke-width:0.17556076;marker:none;visibility:visible;display:inline;overflow:visible;enable-background:accumulate"
       sodipodi:type="arc" />
  </g>
  <g
     inkscape:groupmode="layer"
     id="layer4"
     inkscape:label="Laser"
     sodipodi:insensitive="true">
    <path
       sodipodi:type="arc"
       style="opacity:0.7;fill:none;stroke:url(#linearGradient3110);stroke-width:0.96558607;stroke-linecap:butt;stroke-linejoin:round;stroke-miterlimit:4;stroke-opacity:1;stroke-dasharray:none;stroke-dashoffset:0;display:inline"
       id="path3306"
       sodipodi:cx="11"
       sodipodi:cy="11"
       sodipodi:rx="5.2579503"
       sodipodi:ry="5.2579503"
       d="M 16.25795,11 A 5.2579503,5.2579503 0 0 1 6.4464814,13.628975"
       transform="matrix(-1.0353605,-0.0240813,0.0240813,-1.0353605,23.03582,23.652833)"
       sodipodi:start="0"
       sodipodi:end="2.6179939"
       sodipodi:open="true"
       inkscape:transform-center-x="1.3502609"
       inkscape:transform-center-y="-2.7870228" />
    <path
       sodipodi:type="arc"
       style="fill:url(#radialGradient3300);fill-opacity:1;fill-rule:nonzero;stroke:none;display:inline"
       id="path3290"
       sodipodi:cx="5.9628973"
       sodipodi:cy="10.957597"
       sodipodi:rx="1.5017668"
       sodipodi:ry="1.5017668"
       d="m 7.4646641,10.957597 a 1.5017668,1.5017668 0 1 1 -3.0035336,0 1.5017668,1.5017668 0 1 1 3.0035336,0 z"
       transform="matrix(1.6856884,0,0,1.6856884,-3.5200758,-6.0026051)" />
  </g>
</svg>
