<?xml version="1.0" encoding="UTF-8" standalone="no"?>
<!-- Created with Inkscape (http://www.inkscape.org/) -->

<svg
   xmlns:dc="http://purl.org/dc/elements/1.1/"
   xmlns:cc="http://creativecommons.org/ns#"
   xmlns:rdf="http://www.w3.org/1999/02/22-rdf-syntax-ns#"
   xmlns:svg="http://www.w3.org/2000/svg"
   xmlns="http://www.w3.org/2000/svg"
   xmlns:xlink="http://www.w3.org/1999/xlink"
   xmlns:sodipodi="http://sodipodi.sourceforge.net/DTD/sodipodi-0.dtd"
   xmlns:inkscape="http://www.inkscape.org/namespaces/inkscape"
   width="24"
   height="24"
   id="svg2"
   sodipodi:version="0.32"
   inkscape:version="0.48.0 r9654"
   version="1.0"
   sodipodi:docname="application-vnd.scribus.svg"
   inkscape:output_extension="org.inkscape.output.svg.inkscape"
   style="display:inline">
  <defs
     id="defs4">
    <linearGradient
       inkscape:collect="always"
       id="linearGradient3327">
      <stop
         style="stop-color:#000000;stop-opacity:1;"
         offset="0"
         id="stop3330" />
      <stop
         style="stop-color:#000000;stop-opacity:0;"
         offset="1"
         id="stop3333" />
    </linearGradient>
    <linearGradient
       inkscape:collect="always"
       xlink:href="#linearGradient3327"
       id="linearGradient3335"
       x1="11.375"
       y1="22"
       x2="11.375"
       y2="-9.817296"
       gradientUnits="userSpaceOnUse" />
    <linearGradient
       inkscape:collect="always"
       xlink:href="#ButtonColor"
       id="linearGradient3181"
       x1="-3.0607977"
       y1="27.258198"
       x2="-3.0607977"
       y2="7.2536583"
       gradientUnits="userSpaceOnUse"
       gradientTransform="translate(12.119372,-7.2581977)" />
    <inkscape:perspective
       sodipodi:type="inkscape:persp3d"
       inkscape:vp_x="0 : 11 : 1"
       inkscape:vp_y="0 : 1000 : 0"
       inkscape:vp_z="22 : 11 : 1"
       inkscape:persp3d-origin="11 : 7.3333333 : 1"
       id="perspective2531" />
    <linearGradient
       id="ButtonShadow"
       gradientTransform="scale(0.9883037,1.0118347)"
       x1="9.3550024"
       y1="21.742682"
       x2="9.3550024"
       y2="0.49362123"
       gradientUnits="userSpaceOnUse">
      <stop
         id="stop3277"
         offset="0"
         style="stop-color:#000000;stop-opacity:0.70588237;" />
      <stop
         id="stop3279"
         offset="1"
         style="stop-color:#000000;stop-opacity:0.15686275;" />
    </linearGradient>
    <linearGradient
       inkscape:collect="always"
       id="linearGradient3232">
      <stop
         style="stop-color:#000000;stop-opacity:1;"
         offset="0"
         id="stop3234" />
      <stop
         style="stop-color:#000000;stop-opacity:0;"
         offset="1"
         id="stop3236" />
    </linearGradient>
    <linearGradient
       gradientUnits="userSpaceOnUse"
       y2="-6.0004225"
       x2="11"
       y1="14.805666"
       x1="11"
       id="linearGradient3221"
       xlink:href="#linearGradient3232"
       inkscape:collect="always" />
    <linearGradient
       id="ButtonColor"
       x1="10.31979"
       y1="21"
       x2="10.31979"
       y2="0.99929649"
       gradientUnits="userSpaceOnUse">
      <stop
         style="stop-color:#e6e6e6;stop-opacity:1;"
         offset="0"
         id="stop3189" />
      <stop
         style="stop-color:#f5f5f5;stop-opacity:1;"
         offset="1"
         id="stop3191" />
    </linearGradient>
    <linearGradient
       inkscape:collect="always"
       xlink:href="#ButtonShadow"
       id="linearGradient38042"
       gradientUnits="userSpaceOnUse"
       gradientTransform="scale(0.9883037,1.0118347)"
       x1="9.3550024"
       y1="21.742682"
       x2="9.3550024"
       y2="0.49362123" />
    <filter
       inkscape:collect="always"
       id="filter3194"
       x="-0.18000001"
       width="1.36"
       y="-0.18000001"
       height="1.36"
       color-interpolation-filters="sRGB">
      <feGaussianBlur
         inkscape:collect="always"
         stdDeviation="1.2"
         id="feGaussianBlur3196" />
    </filter>
    <clipPath
       clipPathUnits="userSpaceOnUse"
       id="clipPath2849">
      <rect
         ry="2"
         rx="2"
         y="1"
         x="1"
         height="20"
         width="20"
         id="rect2851"
         style="fill:#ffffff;fill-opacity:1;fill-rule:evenodd;stroke:none;display:inline" />
    </clipPath>
    <inkscape:perspective
       id="perspective2908"
       inkscape:persp3d-origin="0.5 : 0.33333333 : 1"
       inkscape:vp_z="1 : 0.5 : 1"
       inkscape:vp_y="0 : 1000 : 0"
       inkscape:vp_x="0 : 0.5 : 1"
       sodipodi:type="inkscape:persp3d" />
    <linearGradient
       inkscape:collect="always"
       xlink:href="#linearGradient3696"
       id="linearGradient3702"
       x1="11.454938"
       y1="17.427109"
       x2="24.265219"
       y2="8.0573196"
       gradientUnits="userSpaceOnUse" />
    <linearGradient
       inkscape:collect="always"
       id="linearGradient3696">
      <stop
         style="stop-color:#000000;stop-opacity:1;"
         offset="0"
         id="stop3698" />
      <stop
         style="stop-color:#000000;stop-opacity:0;"
         offset="1"
         id="stop3700" />
    </linearGradient>
    <linearGradient
       inkscape:collect="always"
       xlink:href="#linearGradient3715"
       id="linearGradient8202"
       x1="39.479939"
       y1="72.673553"
       x2="40.576431"
       y2="-9.3000002"
       gradientUnits="userSpaceOnUse"
       gradientTransform="matrix(0.23024298,0,0,0.23030479,0.7891698,0.2633887)" />
    <linearGradient
       id="linearGradient8204">
      <stop
         id="stop8206"
         offset="0.0000000"
         style="stop-color: rgb(255, 255, 255); stop-opacity: 1;" />
      <stop
         id="stop8208"
         offset="1.0000000"
         style="stop-color:rgb(80, 202, 255);stop-opacity:0" />
    </linearGradient>
    <linearGradient
       gradientTransform="matrix(0.23024298,0,0,0.2303048,0.6147338,-0.1437365)"
       inkscape:collect="always"
       xlink:href="#linearGradient10394"
       id="linearGradient10400"
       x1="60.899021"
       y1="35.60585"
       x2="68.2229"
       y2="39.53442"
       gradientUnits="userSpaceOnUse" />
    <linearGradient
       id="linearGradient10394">
      <stop
         style="stop-color:#1a1a1a;stop-opacity:1;"
         offset="0"
         id="stop10396" />
      <stop
         id="stop10404"
         offset="0.35185185"
         style="stop-color:#636363;stop-opacity:1;" />
      <stop
         id="stop10402"
         offset="0.5"
         style="stop-color:#c7c7c7;stop-opacity:1;" />
      <stop
         style="stop-color:#636363;stop-opacity:1;"
         offset="0.64999998"
         id="stop10406" />
      <stop
         style="stop-color:#000000;stop-opacity:1;"
         offset="1"
         id="stop10398" />
    </linearGradient>
    <linearGradient
       inkscape:collect="always"
       xlink:href="#linearGradient6531"
       id="linearGradient8183"
       gradientUnits="userSpaceOnUse"
       gradientTransform="matrix(0.16703943,-0.04475125,0.04485443,0.16737345,6.6595498,4.0634144)"
       x1="24.248737"
       y1="77.502068"
       x2="13.405647"
       y2="67.6745" />
    <linearGradient
       id="linearGradient6531">
      <stop
         id="stop6533"
         offset="0.0000000"
         style="stop-color: rgb(195, 129, 37); stop-opacity: 1;" />
      <stop
         style="stop-color:#c68d31;stop-opacity:1;"
         offset="0.62962961"
         id="stop10377" />
      <stop
         id="stop6535"
         offset="1"
         style="stop-color:#fffce6;stop-opacity:1;" />
    </linearGradient>
    <linearGradient
       gradientTransform="matrix(0.23024298,0,0,0.23030479,0.6147343,-0.1437364)"
       inkscape:collect="always"
       xlink:href="#linearGradient10386"
       id="linearGradient10392"
       x1="58.651787"
       y1="68.171875"
       x2="47.450871"
       y2="57.993305"
       gradientUnits="userSpaceOnUse" />
    <linearGradient
       inkscape:collect="always"
       id="linearGradient10386">
      <stop
         style="stop-color:#ffffff;stop-opacity:1;"
         offset="0"
         id="stop10388" />
      <stop
         style="stop-color:#ffffff;stop-opacity:0;"
         offset="1"
         id="stop10390" />
    </linearGradient>
    <radialGradient
       inkscape:collect="always"
       xlink:href="#linearGradient10410"
       id="radialGradient10416"
       cx="59.85154"
       cy="41.7043"
       fx="59.85154"
       fy="41.7043"
       r="18.182745"
       gradientTransform="matrix(1,0,0,0.125,0,36.491262)"
       gradientUnits="userSpaceOnUse" />
    <linearGradient
       inkscape:collect="always"
       id="linearGradient10410">
      <stop
         style="stop-color:#ffffff;stop-opacity:1;"
         offset="0"
         id="stop10412" />
      <stop
         style="stop-color:#ffffff;stop-opacity:0;"
         offset="1"
         id="stop10414" />
    </linearGradient>
    <linearGradient
       inkscape:collect="always"
       xlink:href="#linearGradient3696"
       id="linearGradient3706"
       gradientUnits="userSpaceOnUse"
       x1="11.454938"
       y1="17.427109"
       x2="24.265219"
       y2="8.0573196"
       gradientTransform="matrix(0.90046014,0.43493853,-0.43493853,0.90046014,9.2693745,-2.6274514)" />
    <linearGradient
       y2="8.0573196"
       x2="24.265219"
       y1="17.427109"
       x1="11.454938"
       gradientUnits="userSpaceOnUse"
       id="linearGradient2958"
       xlink:href="#linearGradient3696"
       inkscape:collect="always" />
    <inkscape:perspective
       id="perspective2974"
       inkscape:persp3d-origin="0.5 : 0.33333333 : 1"
       inkscape:vp_z="1 : 0.5 : 1"
       inkscape:vp_y="0 : 1000 : 0"
       inkscape:vp_x="0 : 0.5 : 1"
       sodipodi:type="inkscape:persp3d" />
    <linearGradient
       inkscape:collect="always"
       xlink:href="#linearGradient3715"
       id="linearGradient3795"
       gradientUnits="userSpaceOnUse"
       gradientTransform="translate(0.75761471,1.7677667)"
       x1="39.479939"
       y1="81.5"
       x2="39.479939"
       y2="6.2799916" />
    <linearGradient
       id="linearGradient3715">
      <stop
         style="stop-color:#3767a3;stop-opacity:1;"
         offset="0"
         id="stop3717" />
      <stop
         style="stop-color:#6593c6;stop-opacity:0;"
         offset="1"
         id="stop3719" />
    </linearGradient>
    <linearGradient
       y2="6.2799916"
       x2="39.479939"
       y1="81.5"
       x1="39.479939"
       gradientTransform="translate(-48.242385,-43.232233)"
       gradientUnits="userSpaceOnUse"
       id="linearGradient2983"
       xlink:href="#linearGradient3715"
       inkscape:collect="always" />
    <linearGradient
       y2="16"
       x2="10"
       y1="1"
       x1="10"
       gradientUnits="userSpaceOnUse"
       id="linearGradient3078"
       xlink:href="#linearGradient3823"
       inkscape:collect="always"
       gradientTransform="translate(1,-1)" />
    <linearGradient
       id="linearGradient3823">
      <stop
         id="stop3825"
         offset="0"
         style="stop-color:#ffffff;stop-opacity:1;" />
      <stop
         id="stop3829"
         offset="1"
         style="stop-color:#ffffff;stop-opacity:0;" />
    </linearGradient>
    <linearGradient
       inkscape:collect="always"
       xlink:href="#linearGradient3831"
       id="linearGradient3845"
       x1="11"
       y1="19.5"
       x2="21"
       y2="19.5"
       gradientUnits="userSpaceOnUse"
       spreadMethod="reflect"
       gradientTransform="translate(1,-1)" />
    <linearGradient
       id="linearGradient3831">
      <stop
         style="stop-color:#ffffff;stop-opacity:1;"
         offset="0"
         id="stop3833" />
      <stop
         id="stop3821"
         offset="0.75"
         style="stop-color:#ffffff;stop-opacity:0.49803922;" />
      <stop
         style="stop-color:#ffffff;stop-opacity:0;"
         offset="1"
         id="stop3835" />
    </linearGradient>
    <linearGradient
       y2="16"
       x2="10"
       y1="1"
       x1="10"
       gradientTransform="translate(1,-1)"
       gradientUnits="userSpaceOnUse"
       id="linearGradient3859"
       xlink:href="#linearGradient3823"
       inkscape:collect="always" />
  </defs>
  <sodipodi:namedview
     id="base"
     pagecolor="#ffffff"
     bordercolor="#e7e7e7"
     borderopacity="1"
     inkscape:pageopacity="0.0"
     inkscape:pageshadow="2"
     inkscape:zoom="21.418891"
     inkscape:cx="3.2939326"
     inkscape:cy="14.604833"
     inkscape:document-units="px"
     inkscape:current-layer="layer1"
     showgrid="true"
     inkscape:showpageshadow="false"
     showguides="false"
     inkscape:guide-bbox="true"
     inkscape:window-width="1920"
     inkscape:window-height="1026"
     inkscape:window-x="0"
     inkscape:window-y="25"
     inkscape:window-maximized="1">
    <sodipodi:guide
       orientation="1,0"
       position="0,112"
       id="guide2383" />
    <sodipodi:guide
       orientation="0,1"
       position="26.278146,128"
       id="guide2385" />
    <sodipodi:guide
       orientation="1,0"
       position="128,54.082119"
       id="guide2387" />
    <sodipodi:guide
       orientation="0,1"
       position="78.156291,0"
       id="guide2389" />
    <sodipodi:guide
       orientation="0,1"
       position="60.863576,64.084768"
       id="guide2391" />
    <inkscape:grid
       type="xygrid"
       id="grid3672"
       visible="true"
       enabled="true"
       empspacing="8"
       snapvisiblegridlinesonly="true" />
  </sodipodi:namedview>
  <metadata
     id="metadata7">
    <rdf:RDF>
      <cc:Work
         rdf:about="">
        <dc:format>image/svg+xml</dc:format>
        <dc:type
           rdf:resource="http://purl.org/dc/dcmitype/StillImage" />
        <dc:title />
      </cc:Work>
    </rdf:RDF>
  </metadata>
  <g
     inkscape:label="Button"
     inkscape:groupmode="layer"
     id="layer1"
     transform="translate(0,2)">
    <g
       style="display:inline"
       id="g3337"
       transform="translate(1,-1)">
      <rect
         ry="2.5"
         rx="2.5"
         y="0.5"
         x="0.5"
         height="21.5"
         width="21"
         id="rect3371"
         style="opacity:0.3;fill:url(#linearGradient3335);fill-opacity:1;stroke:none;display:inline" />
      <rect
         style="opacity:0.5;fill:#000000;fill-opacity:1;stroke:none;display:inline"
         id="rect2553"
         width="20"
         height="20"
         x="1"
         y="2"
         rx="2.3809524"
         ry="2.3255813" />
    </g>
    <rect
       style="fill:url(#linearGradient3181);fill-opacity:1;fill-rule:evenodd;stroke:none;display:inline"
       id="rect3173"
       width="20"
       height="20"
       x="2"
       y="0"
       rx="2"
       ry="2" />
    <path
       style="opacity:0.6;fill:url(#linearGradient3859);fill-opacity:1;fill-rule:evenodd;stroke:none;display:inline"
       d="M 4,0 C 2.892,0 2,0.892 2,2 l 0,16 c 0,1.108 0.892,2 2,2 l 16,0 c 1.108,0 2,-0.892 2,-2 L 22,2 C 22,0.892 21.108,0 20,0 L 4,0 z m 0,1.03125 16,0 c 0.5497,0 0.96875,0.4190495 0.96875,0.96875 l 0,16 c 0,0.5497 -0.41905,0.96875 -0.96875,0.96875 l -16,0 C 3.4502995,18.96875 3.03125,18.5497 3.03125,18 l 0,-16 C 3.03125,1.4502995 3.4502995,1.03125 4,1.03125 z"
       id="rect3050"
       inkscape:connector-curvature="0" />
    <path
       id="path3235"
       d="M 4,20 C 2.892,20 2,19.108 2,18 l 0,-1 c 0,1.108 0.892,2 2,2 l 16,0 c 1.108,0 2,-0.892 2,-2 l 0,1 c 0,1.108 -0.892,2 -2,2 L 4,20 z"
       style="opacity:0.35;fill:url(#linearGradient3845);fill-opacity:1;fill-rule:evenodd;stroke:none;display:inline"
       inkscape:connector-curvature="0" />
  </g>
  <g
     inkscape:groupmode="layer"
     id="layer2"
     inkscape:label="Highlight"
     transform="translate(0,2)"
     sodipodi:insensitive="true"
     style="display:inline">
    <rect
       style="opacity:0.15;fill:#ffffff;fill-opacity:1;fill-rule:nonzero;stroke:none;display:inline;filter:url(#filter3194)"
       id="rect2410"
       width="16"
       height="16"
       x="3"
       y="3"
       rx="2"
       ry="2"
       clip-path="url(#clipPath2849)"
       transform="translate(1,-1)" />
  </g>
  <g
     inkscape:groupmode="layer"
     id="layer3"
     inkscape:label="Symbol"
     transform="translate(0,2)"
     sodipodi:insensitive="true">
    <path
       style="opacity:0.4;fill:url(#linearGradient2958);fill-opacity:1;stroke:none;display:inline"
       d="m 21,4.1562499 c -1.541337,1.7938356 -3.243286,3.2848483 -4.59375,5.0625 -0.672616,0.8853821 -1.166269,1.7730871 -1.5,2.5312501 -0.359593,0.06764 -0.613275,0.223591 -0.75,0.4375 -0.158356,0.247751 -0.22077,0.566136 -0.125,0.875 0.01295,0.04177 0.07677,0.0844 0.09375,0.125 -0.537098,0.629557 -1.310889,1.520498 -1.8125,2.1875 -0.752731,1.000923 -1.90625,3.46875 -1.90625,3.46875 l 0.09375,0.0625 0.09375,0.0625 c 0.01212,-0.01091 0.01888,0.01095 0.03125,0 1.312404,-1.161634 4,-2.46875 4,-2.46875 l 0.09375,-0.0625 -0.03125,-0.09375 c 0,0 0.0027,-0.03188 0,-0.15625 -0.0027,-0.124368 -0.01202,-0.319066 0.0625,-0.59375 0.125932,-0.4641 0.472928,-1.005938 0.78125,-1.40625 0.100026,0.01104 0.209444,0.03831 0.3125,0.03125 0.453057,-0.03097 0.779144,-0.252249 0.9375,-0.5 0.118771,-0.185813 0.149892,-0.400039 0.125,-0.625 C 17.536279,12.568731 18.2443,11.892707 18.875,11.0625 19.6678,10.018917 20.305257,8.8579852 21,7.6874999 l 0,-3.53125 z"
       id="path2893"
       inkscape:connector-curvature="0" />
    <path
       style="fill:url(#linearGradient8202);fill-opacity:1;stroke:none;display:inline"
       d="M 4.1765413,0 C 7.8670764,4.8693344 2.1282368,9.3863219 3.1689925,13.271517 4.1821895,17.053834 8.7577378,16.86325 10.407255,18.921183 9.2686758,16.709483 7.7114774,16.821266 7.097513,14.746907 5.5363605,9.4723479 19.764763,5.5992716 14.494305,0 L 4.1765413,0 z"
       id="path8185"
       sodipodi:nodetypes="cscscc"
       inkscape:connector-curvature="0" />
    <path
       sodipodi:nodetypes="czzszsz"
       id="path10375"
       d="m 17.063507,9.4996339 c -1.145117,2.3337701 -2.761016,3.9934571 -3.34931,3.6773151 -0.627503,-0.337223 -0.324139,-2.488044 0.850837,-4.8826671 1.174699,-2.3940605 2.933229,-4.5025856 4.208146,-7.142046 0.310676,-0.64319 0.656798,-1.2568693 1.303598,-0.9423444 0.635921,0.3092348 0.521455,0.9408798 0.130908,1.6556189 -1.452332,2.6579072 -1.999061,5.3003535 -3.144179,7.6341235 z"
       style="fill:url(#linearGradient10400);fill-opacity:1;stroke:#000000;stroke-width:0.25;stroke-miterlimit:4;stroke-dasharray:none;display:inline"
       inkscape:connector-curvature="0" />
    <path
       transform="matrix(0.14575068,-0.03904782,0.05306218,0.09848471,2.0681054,6.5506503)"
       d="m 60.457628,78.05204 a 5.4800777,7.7781744 0 1 1 -10.960155,0 5.4800777,7.7781744 0 1 1 10.960155,0 z"
       sodipodi:ry="7.7781744"
       sodipodi:rx="5.4800777"
       sodipodi:cy="78.05204"
       sodipodi:cx="54.977551"
       id="path4343"
       style="fill:none;stroke:#2e3436;stroke-width:7.80246449;stroke-linecap:round;stroke-miterlimit:4;stroke-opacity:1;stroke-dasharray:none;display:inline"
       sodipodi:type="arc" />
    <path
       sodipodi:nodetypes="cscscscc"
       id="path4341"
       d="m 10.5023,18.875 c 0,0 0.680782,-2.655924 1.210651,-3.749241 0.52987,-1.093319 1.782639,-3.268242 1.782639,-3.268242 0,0 0.361449,-0.540804 0.944918,-0.253152 0.583467,0.287652 0.415048,0.840166 0.415048,0.840166 0,0 -0.879901,1.325553 -0.953106,2.348339 -0.04219,0.589574 0.09597,0.830512 0.09597,0.830512 0,0 -2.423257,1.822555 -3.496125,3.251618 z"
       style="fill:url(#linearGradient8183);fill-opacity:1;fill-rule:evenodd;stroke:#c17d11;stroke-width:0.25;stroke-linecap:butt;stroke-linejoin:miter;stroke-miterlimit:4;stroke-opacity:1;stroke-dasharray:none;display:inline"
       inkscape:connector-curvature="0" />
    <path
       transform="matrix(0.11469852,0.04914249,-0.05264446,0.10435137,19.263112,8.9787979)"
       d="m -27.930719,71.864853 a 1.2374369,3.0052037 0 1 1 -2.474874,0 1.2374369,3.0052037 0 1 1 2.474874,0 z"
       sodipodi:ry="3.0052037"
       sodipodi:rx="1.2374369"
       sodipodi:cy="71.864853"
       sodipodi:cx="-29.168156"
       id="path6537"
       style="fill:#000000;fill-opacity:0.6;stroke:#c17d11;stroke-width:2.77385688;stroke-linecap:round;stroke-miterlimit:4;stroke-opacity:1;stroke-dasharray:none;display:inline"
       sodipodi:type="arc" />
    <path
       sodipodi:nodetypes="cc"
       id="path8007"
       d="m 10.51597,18.807915 c 0.480381,-1.238619 0.823236,-2.281834 1.423917,-3.425833"
       style="fill:#c17d11;fill-opacity:1;fill-rule:evenodd;stroke:#c17d11;stroke-width:0.34297702;stroke-linecap:butt;stroke-linejoin:miter;stroke-miterlimit:4;stroke-opacity:1;stroke-dasharray:none;display:inline"
       inkscape:connector-curvature="0" />
    <path
       style="fill:url(#linearGradient10392);fill-opacity:1;fill-rule:evenodd;stroke:none;display:inline"
       d="m 14.357362,11.98325 c -0.05039,0.04093 -0.08393,0.0835 -0.08635,0.08637 -1.4e-5,2.4e-5 -0.0072,-2.9e-5 -0.0072,0 -0.01737,0.03016 -1.245615,2.171971 -1.755603,3.224266 -0.173765,0.358543 -0.380466,0.93725 -0.568412,1.532966 0.777443,-0.699974 1.444435,-1.201604 1.626091,-1.338646 -0.03469,-0.170623 -0.05872,-0.409129 -0.03598,-0.7269 0.04341,-0.60665 0.300695,-1.218389 0.539633,-1.698497 0.216275,-0.434573 0.386561,-0.690246 0.42451,-0.748491 0.0026,-0.01015 0.01249,-0.04863 0,-0.122349 -0.01158,-0.06834 -0.02437,-0.135083 -0.136704,-0.208714 z"
       id="path10381"
       inkscape:connector-curvature="0" />
    <path
       sodipodi:type="arc"
       style="fill:url(#radialGradient10416);fill-opacity:1;stroke:none;display:inline"
       id="path10408"
       sodipodi:cx="59.85154"
       sodipodi:cy="41.7043"
       sodipodi:rx="18.182745"
       sodipodi:ry="2.2728431"
       d="m 78.034285,41.7043 a 18.182745,2.2728431 0 1 1 -36.36549,0 18.182745,2.2728431 0 1 1 36.36549,0 z"
       transform="matrix(0.10662538,-0.2041206,0.20406582,0.106654,0.8403541,15.834108)" />
    <path
       style="opacity:0.6;fill:#ffffff;fill-opacity:1;stroke:none;display:inline"
       d="m 15.961868,6.61427 c -0.177552,0 -0.350647,0.030852 -0.518046,0.079166 -0.07959,0.1331596 -0.153087,0.2690732 -0.230243,0.4030335 0.09451,-0.014311 0.190411,-0.021589 0.287804,-0.021589 0.82002,0 1.555772,0.5430594 2.036211,1.3890268 0.101184,-0.236701 0.198835,-0.4785912 0.294998,-0.719703 -0.47562,-0.6954208 -1.137974,-1.1299326 -1.870724,-1.1299326 z"
       id="path10418"
       inkscape:connector-curvature="0" />
    <path
       style="opacity:0.2;fill:url(#linearGradient3706);fill-opacity:1;stroke:none;display:inline"
       d="m 21,12.375 c -0.329246,0.145124 -0.649028,0.274628 -0.96875,0.4375 -0.99075,0.504705 -1.807234,1.087457 -2.4375,1.625 -0.353219,-0.09549 -0.658847,-0.07065 -0.875,0.0625 -0.25035,0.154215 -0.4519,0.430226 -0.5,0.75 -0.0065,0.04324 0.03362,0.08106 0.03125,0.125 -0.757454,0.333287 -1.820714,0.805061 -2.5625,1.1875 -1.113144,0.573899 -3.25,2.3125 -3.25,2.3125 l 0.0625,0.09375 0.0625,0.09375 c 0.01566,-0.0046 0.01535,0.0045 0.03125,0 1.687007,-0.47519 4.65625,-0.5 4.65625,-0.5 l 0.125,0.03125 0,-0.125 c 0,0 0.01085,-0.04308 0.0625,-0.15625 0.05166,-0.113163 0.157177,-0.253819 0.34375,-0.46875 0.315252,-0.36313 0.860757,-0.711136 1.3125,-0.9375 0.08527,0.05345 0.185381,0.117784 0.28125,0.15625 0.421429,0.169164 0.7809,0.12296 1.03125,-0.03125 C 18.594016,16.915591 18.73707,16.713395 18.8125,16.5 19.481733,16.332845 20.222276,16.07411 21,15.71875 L 21,12.375 z"
       id="path3704"
       inkscape:connector-curvature="0" />
  </g>
</svg>
