<?xml version="1.0" encoding="UTF-8" standalone="no"?>
<!-- Created with Inkscape (http://www.inkscape.org/) -->

<svg
   xmlns:dc="http://purl.org/dc/elements/1.1/"
   xmlns:cc="http://creativecommons.org/ns#"
   xmlns:rdf="http://www.w3.org/1999/02/22-rdf-syntax-ns#"
   xmlns:svg="http://www.w3.org/2000/svg"
   xmlns="http://www.w3.org/2000/svg"
   xmlns:xlink="http://www.w3.org/1999/xlink"
   xmlns:sodipodi="http://sodipodi.sourceforge.net/DTD/sodipodi-0.dtd"
   xmlns:inkscape="http://www.inkscape.org/namespaces/inkscape"
   width="24"
   height="24"
   id="svg2"
   sodipodi:version="0.32"
   inkscape:version="0.48.0 r9654"
   version="1.0"
   sodipodi:docname="application-pgp-keys.svg"
   inkscape:output_extension="org.inkscape.output.svg.inkscape"
   style="display:inline">
  <defs
     id="defs4">
    <linearGradient
       inkscape:collect="always"
       id="linearGradient3327">
      <stop
         style="stop-color:#000000;stop-opacity:1;"
         offset="0"
         id="stop3330" />
      <stop
         style="stop-color:#000000;stop-opacity:0;"
         offset="1"
         id="stop3333" />
    </linearGradient>
    <linearGradient
       inkscape:collect="always"
       xlink:href="#linearGradient3327"
       id="linearGradient3335"
       x1="11.375"
       y1="22"
       x2="11.375"
       y2="-9.817296"
       gradientUnits="userSpaceOnUse" />
    <linearGradient
       inkscape:collect="always"
       xlink:href="#ButtonColor"
       id="linearGradient3181"
       x1="-3.0607977"
       y1="27.258198"
       x2="-3.0607977"
       y2="7.2536583"
       gradientUnits="userSpaceOnUse"
       gradientTransform="translate(12.119372,-7.2581977)" />
    <inkscape:perspective
       sodipodi:type="inkscape:persp3d"
       inkscape:vp_x="0 : 11 : 1"
       inkscape:vp_y="0 : 1000 : 0"
       inkscape:vp_z="22 : 11 : 1"
       inkscape:persp3d-origin="11 : 7.3333333 : 1"
       id="perspective2531" />
    <linearGradient
       id="ButtonShadow"
       gradientTransform="scale(0.9883037,1.0118347)"
       x1="9.3550024"
       y1="21.742682"
       x2="9.3550024"
       y2="0.49362123"
       gradientUnits="userSpaceOnUse">
      <stop
         id="stop3277"
         offset="0"
         style="stop-color:#000000;stop-opacity:0.70588237;" />
      <stop
         id="stop3279"
         offset="1"
         style="stop-color:#000000;stop-opacity:0.15686275;" />
    </linearGradient>
    <linearGradient
       inkscape:collect="always"
       id="linearGradient3232">
      <stop
         style="stop-color:#000000;stop-opacity:1;"
         offset="0"
         id="stop3234" />
      <stop
         style="stop-color:#000000;stop-opacity:0;"
         offset="1"
         id="stop3236" />
    </linearGradient>
    <linearGradient
       gradientUnits="userSpaceOnUse"
       y2="-6.0004225"
       x2="11"
       y1="14.805666"
       x1="11"
       id="linearGradient3221"
       xlink:href="#linearGradient3232"
       inkscape:collect="always" />
    <linearGradient
       id="ButtonColor"
       x1="10.31979"
       y1="21"
       x2="10.31979"
       y2="0.99929649"
       gradientUnits="userSpaceOnUse">
      <stop
         style="stop-color:#e6e6e6;stop-opacity:1;"
         offset="0"
         id="stop3189" />
      <stop
         style="stop-color:#f5f5f5;stop-opacity:1;"
         offset="1"
         id="stop3191" />
    </linearGradient>
    <linearGradient
       inkscape:collect="always"
       xlink:href="#ButtonShadow"
       id="linearGradient38042"
       gradientUnits="userSpaceOnUse"
       gradientTransform="scale(0.9883037,1.0118347)"
       x1="9.3550024"
       y1="21.742682"
       x2="9.3550024"
       y2="0.49362123" />
    <filter
       inkscape:collect="always"
       id="filter3194"
       x="-0.18000001"
       width="1.36"
       y="-0.18000001"
       height="1.36"
       color-interpolation-filters="sRGB">
      <feGaussianBlur
         inkscape:collect="always"
         stdDeviation="1.2"
         id="feGaussianBlur3196" />
    </filter>
    <clipPath
       clipPathUnits="userSpaceOnUse"
       id="clipPath2849">
      <rect
         ry="2"
         rx="2"
         y="1"
         x="1"
         height="20"
         width="20"
         id="rect2851"
         style="fill:#ffffff;fill-opacity:1;fill-rule:evenodd;stroke:none;display:inline" />
    </clipPath>
    <linearGradient
       inkscape:collect="always"
       xlink:href="#linearGradient3831"
       id="linearGradient3845"
       x1="11"
       y1="19.5"
       x2="21"
       y2="19.5"
       gradientUnits="userSpaceOnUse"
       spreadMethod="reflect"
       gradientTransform="translate(1,-1)" />
    <linearGradient
       id="linearGradient3831">
      <stop
         style="stop-color:#ffffff;stop-opacity:1;"
         offset="0"
         id="stop3833" />
      <stop
         id="stop3821"
         offset="0.75"
         style="stop-color:#ffffff;stop-opacity:0.49803922;" />
      <stop
         style="stop-color:#ffffff;stop-opacity:0;"
         offset="1"
         id="stop3835" />
    </linearGradient>
    <linearGradient
       y2="16"
       x2="10"
       y1="1"
       x1="10"
       gradientUnits="userSpaceOnUse"
       id="linearGradient3084"
       xlink:href="#linearGradient3823"
       inkscape:collect="always" />
    <linearGradient
       id="linearGradient3823">
      <stop
         id="stop3825"
         offset="0"
         style="stop-color:#ffffff;stop-opacity:1;" />
      <stop
         id="stop3829"
         offset="1"
         style="stop-color:#ffffff;stop-opacity:0;" />
    </linearGradient>
    <linearGradient
       y2="16"
       x2="10"
       y1="1"
       x1="10"
       gradientUnits="userSpaceOnUse"
       id="linearGradient3078"
       xlink:href="#linearGradient3823"
       inkscape:collect="always"
       gradientTransform="translate(1,-1)" />
    <linearGradient
       inkscape:collect="always"
       xlink:href="#linearGradient3830-4"
       id="linearGradient3836-9"
       x1="41.46875"
       y1="48"
       x2="54.53125"
       y2="48"
       gradientUnits="userSpaceOnUse"
       gradientTransform="matrix(0,0.31345979,-0.31345976,0,27.046069,-5.0460707)" />
    <linearGradient
       id="linearGradient3830-4">
      <stop
         style="stop-color:#ffffff;stop-opacity:1;"
         offset="0"
         id="stop3832-8" />
      <stop
         style="stop-color:#3a3a3a;stop-opacity:1;"
         offset="1"
         id="stop3834-1" />
    </linearGradient>
    <radialGradient
       inkscape:collect="always"
       xlink:href="#linearGradient3971-0"
       id="radialGradient3977"
       cx="48"
       cy="48"
       fx="48"
       fy="48"
       r="27"
       gradientUnits="userSpaceOnUse"
       gradientTransform="matrix(0.22574956,0,0,0.22574958,1.1640214,-0.83597875)" />
    <linearGradient
       inkscape:collect="always"
       id="linearGradient3971-0">
      <stop
         style="stop-color:#000000;stop-opacity:0"
         offset="0"
         id="stop3973-8" />
      <stop
         id="stop3979-8"
         offset="0.87387264"
         style="stop-color:#000000;stop-opacity:0" />
      <stop
         style="stop-color:#000000;stop-opacity:1"
         offset="1"
         id="stop3975-5" />
    </linearGradient>
    <linearGradient
       inkscape:collect="always"
       xlink:href="#linearGradient4120-9"
       id="linearGradient4126-0"
       x1="45.541046"
       y1="27.225449"
       x2="45.541046"
       y2="65.94796"
       gradientUnits="userSpaceOnUse" />
    <linearGradient
       id="linearGradient4120-9">
      <stop
         style="stop-color:#ffffff;stop-opacity:1;"
         offset="0"
         id="stop4122-6" />
      <stop
         style="stop-color:#989898;stop-opacity:1;"
         offset="1"
         id="stop4124-3" />
    </linearGradient>
    <linearGradient
       inkscape:collect="always"
       xlink:href="#linearGradient4059-5"
       id="linearGradient3855-1"
       gradientUnits="userSpaceOnUse"
       gradientTransform="matrix(0.18925777,0,0,0.18925778,3.0623708,1.334952)"
       x1="45.541046"
       y1="27.989801"
       x2="45.541046"
       y2="65.94796" />
    <linearGradient
       id="linearGradient4059-5">
      <stop
         style="stop-color:#cccccc;stop-opacity:1;"
         offset="0"
         id="stop4061-9" />
      <stop
         style="stop-color:#969696;stop-opacity:1;"
         offset="1"
         id="stop4063-8" />
    </linearGradient>
    <linearGradient
       inkscape:collect="always"
       xlink:href="#linearGradient3954-8"
       id="linearGradient3960-4"
       x1="27.021582"
       y1="45.744911"
       x2="67.427681"
       y2="45.744911"
       gradientUnits="userSpaceOnUse" />
    <linearGradient
       id="linearGradient3954-8">
      <stop
         style="stop-color:#1a1a1a;stop-opacity:1;"
         offset="0"
         id="stop3956-1" />
      <stop
         style="stop-color:#3a3a3a;stop-opacity:1;"
         offset="1"
         id="stop3958-0" />
    </linearGradient>
    <linearGradient
       inkscape:collect="always"
       xlink:href="#linearGradient3737"
       id="linearGradient4050"
       x1="27.021582"
       y1="45.744911"
       x2="103.37722"
       y2="45.744911"
       gradientUnits="userSpaceOnUse" />
    <linearGradient
       inkscape:collect="always"
       id="linearGradient3737">
      <stop
         style="stop-color:#ffffff;stop-opacity:1;"
         offset="0"
         id="stop3739" />
      <stop
         style="stop-color:#ffffff;stop-opacity:0;"
         offset="1"
         id="stop3741" />
    </linearGradient>
    <linearGradient
       inkscape:collect="always"
       xlink:href="#linearGradient4120"
       id="linearGradient3866"
       x1="59.447865"
       y1="29.297636"
       x2="39.258163"
       y2="64.26722"
       gradientUnits="userSpaceOnUse" />
    <linearGradient
       id="linearGradient4120">
      <stop
         style="stop-color:#ffffff;stop-opacity:1;"
         offset="0"
         id="stop4122" />
      <stop
         style="stop-color:#989898;stop-opacity:1;"
         offset="1"
         id="stop4124" />
    </linearGradient>
    <linearGradient
       inkscape:collect="always"
       xlink:href="#linearGradient3852"
       id="linearGradient3858"
       x1="30.661942"
       y1="33.777374"
       x2="65.347336"
       y2="53.802998"
       gradientUnits="userSpaceOnUse" />
    <linearGradient
       inkscape:collect="always"
       id="linearGradient3852">
      <stop
         style="stop-color:#000000;stop-opacity:1;"
         offset="0"
         id="stop3854" />
      <stop
         style="stop-color:#000000;stop-opacity:0;"
         offset="1"
         id="stop3856" />
    </linearGradient>
  </defs>
  <sodipodi:namedview
     id="base"
     pagecolor="#ffffff"
     bordercolor="#e7e7e7"
     borderopacity="1"
     inkscape:pageopacity="0.0"
     inkscape:pageshadow="2"
     inkscape:zoom="21.418891"
     inkscape:cx="-9.5413277"
     inkscape:cy="14.444825"
     inkscape:document-units="px"
     inkscape:current-layer="layer3"
     showgrid="true"
     inkscape:showpageshadow="false"
     showguides="false"
     inkscape:guide-bbox="true"
     inkscape:window-width="1920"
     inkscape:window-height="1029"
     inkscape:window-x="0"
     inkscape:window-y="25"
     inkscape:window-maximized="1">
    <sodipodi:guide
       orientation="1,0"
       position="0,112"
       id="guide2383" />
    <sodipodi:guide
       orientation="0,1"
       position="26.278146,128"
       id="guide2385" />
    <sodipodi:guide
       orientation="1,0"
       position="128,54.082119"
       id="guide2387" />
    <sodipodi:guide
       orientation="0,1"
       position="78.156291,0"
       id="guide2389" />
    <sodipodi:guide
       orientation="0,1"
       position="60.863576,64.084768"
       id="guide2391" />
    <inkscape:grid
       type="xygrid"
       id="grid3672"
       visible="true"
       enabled="true"
       empspacing="8"
       snapvisiblegridlinesonly="true" />
  </sodipodi:namedview>
  <metadata
     id="metadata7">
    <rdf:RDF>
      <cc:Work
         rdf:about="">
        <dc:format>image/svg+xml</dc:format>
        <dc:type
           rdf:resource="http://purl.org/dc/dcmitype/StillImage" />
        <dc:title></dc:title>
      </cc:Work>
    </rdf:RDF>
  </metadata>
  <g
     inkscape:label="Button"
     inkscape:groupmode="layer"
     id="layer1"
     transform="translate(0,2)">
    <g
       style="display:inline"
       id="g3337"
       transform="translate(1,-1)">
      <rect
         ry="2.5"
         rx="2.5"
         y="0.5"
         x="0.5"
         height="21.5"
         width="21"
         id="rect3371"
         style="opacity:0.3;fill:url(#linearGradient3335);fill-opacity:1;stroke:none;display:inline" />
      <rect
         style="opacity:0.5;fill:#000000;fill-opacity:1;stroke:none;display:inline"
         id="rect2553"
         width="20"
         height="20"
         x="1"
         y="2"
         rx="2.3809524"
         ry="2.3255813" />
    </g>
    <rect
       style="fill:url(#linearGradient3181);fill-opacity:1;fill-rule:evenodd;stroke:none;display:inline"
       id="rect3173"
       width="20"
       height="20"
       x="2"
       y="0"
       rx="2"
       ry="2" />
    <path
       style="opacity:0.6;fill:url(#linearGradient3078);fill-opacity:1;fill-rule:evenodd;stroke:none;display:inline"
       d="M 4,0 C 2.892,0 2,0.892 2,2 l 0,16 c 0,1.108 0.892,2 2,2 l 16,0 c 1.108,0 2,-0.892 2,-2 L 22,2 C 22,0.892 21.108,0 20,0 L 4,0 z m 0,1.03125 16,0 c 0.5497,0 0.96875,0.4190495 0.96875,0.96875 l 0,16 c 0,0.5497 -0.41905,0.96875 -0.96875,0.96875 l -16,0 C 3.4502995,18.96875 3.03125,18.5497 3.03125,18 l 0,-16 C 3.03125,1.4502995 3.4502995,1.03125 4,1.03125 z"
       id="rect3050"
       inkscape:connector-curvature="0" />
    <path
       id="path3235"
       d="M 4,20 C 2.892,20 2,19.108 2,18 l 0,-1 c 0,1.108 0.892,2 2,2 l 16,0 c 1.108,0 2,-0.892 2,-2 l 0,1 c 0,1.108 -0.892,2 -2,2 L 4,20 z"
       style="opacity:0.35;fill:url(#linearGradient3845);fill-opacity:1;fill-rule:evenodd;stroke:none;display:inline"
       inkscape:connector-curvature="0" />
  </g>
  <g
     inkscape:groupmode="layer"
     id="layer2"
     inkscape:label="Highlight"
     transform="translate(0,2)"
     sodipodi:insensitive="true"
     style="display:inline">
    <rect
       style="opacity:0.15;fill:#ffffff;fill-opacity:1;fill-rule:nonzero;stroke:none;display:inline;filter:url(#filter3194)"
       id="rect2410"
       width="16"
       height="16"
       x="3"
       y="3"
       rx="2"
       ry="2"
       clip-path="url(#clipPath2849)"
       transform="translate(1,-1)" />
  </g>
  <g
     inkscape:groupmode="layer"
     id="layer3"
     inkscape:label="Symbol"
     transform="translate(0,2)">
    <path
       sodipodi:type="inkscape:offset"
       inkscape:radius="1.2578251"
       inkscape:original="M 47.21875 24.28125 C 35.380206 24.28125 25.78125 33.913803 25.78125 45.75 C 25.78125 57.586197 35.382553 67.1875 47.21875 67.1875 C 59.054947 67.1875 68.6875 57.588544 68.6875 45.75 C 68.6875 33.911456 59.057294 24.28125 47.21875 24.28125 z "
       style="opacity:0.05;fill:#000000;fill-opacity:1;stroke:none;display:inline"
       id="path3918"
       d="m 47.21875,23.03125 c -12.520839,0 -22.6875,10.202503 -22.6875,22.71875 0,12.516413 10.171087,22.6875 22.6875,22.6875 12.516247,0 22.71875,-10.166661 22.71875,-22.6875 0,-12.520673 -10.198077,-22.71875 -22.71875,-22.71875 z"
       transform="matrix(0.34287129,-0.19795685,0.19795684,0.34287131,-13.247489,4.1638219)" />
    <path
       sodipodi:type="inkscape:offset"
       inkscape:radius="1.2573605"
       inkscape:original="M 47.21875 25.53125 C 36.060913 25.53125 27.03125 34.592163 27.03125 45.75 C 27.03125 56.907837 36.060913 65.9375 47.21875 65.9375 C 58.376587 65.9375 67.4375 56.907837 67.4375 45.75 C 67.4375 34.592163 58.376587 25.53125 47.21875 25.53125 z "
       style="opacity:0.15;fill:#000000;fill-opacity:1;stroke:none;display:inline"
       id="path3914"
       d="m 47.21875,24.28125 c -11.838544,0 -21.4375,9.632553 -21.4375,21.46875 0,11.836197 9.601303,21.4375 21.4375,21.4375 11.836197,0 21.46875,-9.598956 21.46875,-21.4375 0,-11.838544 -9.630206,-21.46875 -21.46875,-21.46875 z"
       transform="matrix(0.34287129,-0.19795685,0.19795684,0.34287131,-13.247489,4.1638219)" />
    <path
       transform="matrix(0.34287129,-0.19795685,0.19795684,0.34287131,-13.247489,4.1638219)"
       d="m 67.427683,45.744911 a 20.203051,20.203051 0 1 1 -40.406101,0 20.203051,20.203051 0 1 1 40.406101,0 z"
       sodipodi:ry="20.203051"
       sodipodi:rx="20.203051"
       sodipodi:cy="45.744911"
       sodipodi:cx="47.224632"
       id="path3140"
       style="fill:#000000;fill-opacity:1;stroke:none;display:inline;opacity:0.3"
       sodipodi:type="arc" />
    <path
       sodipodi:type="arc"
       style="fill:url(#linearGradient3866);fill-opacity:1;stroke:none;display:inline"
       id="path3870"
       sodipodi:cx="47.224632"
       sodipodi:cy="45.744911"
       sodipodi:rx="20.203051"
       sodipodi:ry="20.203051"
       d="m 67.427683,45.744911 a 20.203051,20.203051 0 1 1 -40.406101,0 20.203051,20.203051 0 1 1 40.406101,0 z"
       transform="matrix(0.34287129,-0.19795685,0.19795684,0.34287131,-13.247489,3.6638211)" />
    <path
       sodipodi:type="arc"
       style="opacity:0.80000000000000004;fill:url(#linearGradient4050);fill-opacity:1;stroke:none;display:inline"
       id="path4040"
       sodipodi:cx="47.224632"
       sodipodi:cy="45.744911"
       sodipodi:rx="20.203051"
       sodipodi:ry="20.203051"
       d="m 67.427683,45.744911 a 20.203051,20.203051 0 1 1 -40.406101,0 20.203051,20.203051 0 1 1 40.406101,0 z"
       transform="matrix(0,-0.3205551,0.32055508,0,-2.663764,25.138096)" />
    <path
       transform="matrix(0,-0.30169892,0.3016989,0,-1.8011895,24.24762)"
       d="m 67.427683,45.744911 a 20.203051,20.203051 0 1 1 -40.406101,0 20.203051,20.203051 0 1 1 40.406101,0 z"
       sodipodi:ry="20.203051"
       sodipodi:rx="20.203051"
       sodipodi:cy="45.744911"
       sodipodi:cx="47.224632"
       id="path3898"
       style="fill:url(#linearGradient3960-4);fill-opacity:1;stroke:none;display:inline"
       sodipodi:type="arc" />
    <path
       inkscape:transform-center-y="-0.68961871"
       id="path3920"
       d="M 12,5.4181298 10.964445,6.7988694 C 9.3549717,7.2497998 8.1764156,8.7229426 8.1764156,10.476414 8.1764156,12.588124 9.8882926,14.3 12,14.3 c 2.111708,0 3.823585,-1.711876 3.823585,-3.823586 0,-1.7534714 -1.178556,-3.2266142 -2.78803,-3.6775446 L 12,5.4181298 z"
       style="fill:#000000;fill-opacity:1;stroke:none;display:inline"
       inkscape:connector-curvature="0" />
    <path
       inkscape:connector-curvature="0"
       style="fill:url(#linearGradient3855-1);fill-opacity:1;stroke:none;display:inline"
       d="M 12,4.9342488 10.964445,6.3149884 C 9.3549717,6.7659188 8.1764156,8.2390616 8.1764156,9.992533 c 0,2.11171 1.711877,3.823586 3.8235844,3.823586 2.111708,0 3.823585,-1.711876 3.823585,-3.823586 0,-1.7534714 -1.178556,-3.2266142 -2.78803,-3.6775446 L 12,4.9342488 z"
       id="path3848-1"
       inkscape:transform-center-y="-0.68961871" />
    <path
       sodipodi:type="arc"
       style="opacity:0.6;fill:#000000;fill-opacity:1;stroke:none;display:inline"
       id="path4144"
       sodipodi:cx="47.224632"
       sodipodi:cy="45.744911"
       sodipodi:rx="20.203051"
       sodipodi:ry="20.203051"
       d="m 67.427683,45.744911 a 20.203051,20.203051 0 1 1 -40.406101,0 20.203051,20.203051 0 1 1 40.406101,0 z"
       transform="matrix(0.13348718,0,0,0.13348719,5.6961167,3.8936403)" />
    <path
       transform="matrix(0.10153883,0,0,0.10153884,7.204866,5.355115)"
       d="m 67.427683,45.744911 a 20.203051,20.203051 0 1 1 -40.406101,0 20.203051,20.203051 0 1 1 40.406101,0 z"
       sodipodi:ry="20.203051"
       sodipodi:rx="20.203051"
       sodipodi:cy="45.744911"
       sodipodi:cx="47.224632"
       id="path3904"
       style="fill:url(#linearGradient4126-0);fill-opacity:1;stroke:none;display:inline"
       sodipodi:type="arc" />
    <path
       inkscape:connector-curvature="0"
       id="rect3893"
       style="opacity:0.76569038;fill:#ffffff;fill-opacity:1;stroke:none;display:inline"
       d="m 8.7874243,4.8166081 0.3299143,-0.190476 0.7619048,1.319658 -0.3299143,0.190476 -0.7619048,-1.319658 z m -2.72427,3.789814 0.098598,-0.367971 1.4718872,0.39439 L 7.5350415,9.000813 6.0631543,8.6064221 z m 0.7534546,4.6061549 -0.1904762,-0.329915 1.3196577,-0.761905 0.1904762,0.329915 -1.3196577,0.761905 z m 3.7898131,2.724269 -0.367971,-0.0986 0.394391,-1.471887 0.367972,0.0986 -0.394392,1.471887 z m 4.606153,-0.753454 -0.329915,0.190477 -0.761904,-1.319658 0.329914,-0.190476 0.761905,1.319657 z m 2.724271,-3.789814 -0.0986,0.367973 -1.471886,-0.394392 0.0986,-0.367972 1.471888,0.394391 z m -0.753453,-4.6061549 0.190476,0.329915 -1.319658,0.761905 -0.190476,-0.329915 1.319658,-0.761905 z m -3.789815,-2.724271 0.367972,0.0986 -0.394391,1.471887 -0.367972,-0.0986 0.394391,-1.471887 z" />
    <path
       inkscape:connector-curvature="0"
       style="fill:url(#radialGradient3977);fill-opacity:1;stroke:none;display:inline"
       d="m 12.000001,3.9047611 c -3.3663077,0 -6.0952394,2.728931 -6.0952394,6.0952389 0,3.366309 2.7289317,6.095238 6.0952394,6.095238 3.366307,0 6.095237,-2.728929 6.095237,-6.095238 0,-3.3663079 -2.72893,-6.0952389 -6.095237,-6.0952389 z m 0,0.987655 c 2.819099,0 5.107583,2.288483 5.107583,5.1075839 0,2.819101 -2.288484,5.107586 -5.107583,5.107586 -2.8191005,0 -5.1075851,-2.288485 -5.1075851,-5.107586 0,-2.8191009 2.2884846,-5.1075839 5.1075851,-5.1075839 z"
       id="path3962" />
    <path
       inkscape:connector-curvature="0"
       style="fill:url(#linearGradient3836-9);fill-opacity:1;stroke:none;display:inline"
       d="m 14.047284,9.999999 c 0,-1.1329537 -0.91433,-2.0472844 -2.047284,-2.0472844 -1.132954,0 -2.0472842,0.9143307 -2.0472842,2.0472844 0,1.132954 0.9143302,2.047286 2.0472842,2.047286 1.132954,0 2.047284,-0.914332 2.047284,-2.047286 z m -0.666101,0 c 0,0.761342 -0.619842,1.381183 -1.381183,1.381183 -0.761341,0 -1.381182,-0.619841 -1.381182,-1.381183 0,-0.761341 0.619841,-1.3811823 1.381182,-1.3811823 0.761341,0 1.381183,0.6198413 1.381183,1.3811823 z"
       id="path3825" />
  </g>
</svg>
