<?xml version="1.0" encoding="UTF-8" standalone="no"?>
<!-- Created with Inkscape (http://www.inkscape.org/) -->

<svg
   xmlns:dc="http://purl.org/dc/elements/1.1/"
   xmlns:cc="http://creativecommons.org/ns#"
   xmlns:rdf="http://www.w3.org/1999/02/22-rdf-syntax-ns#"
   xmlns:svg="http://www.w3.org/2000/svg"
   xmlns="http://www.w3.org/2000/svg"
   xmlns:xlink="http://www.w3.org/1999/xlink"
   xmlns:sodipodi="http://sodipodi.sourceforge.net/DTD/sodipodi-0.dtd"
   xmlns:inkscape="http://www.inkscape.org/namespaces/inkscape"
   width="24"
   height="24"
   id="svg2"
   sodipodi:version="0.32"
   inkscape:version="0.48.0 r9654"
   version="1.0"
   sodipodi:docname="application-x-msdownload.svg"
   inkscape:output_extension="org.inkscape.output.svg.inkscape"
   style="display:inline">
  <defs
     id="defs4">
    <linearGradient
       inkscape:collect="always"
       id="linearGradient3327">
      <stop
         style="stop-color:#000000;stop-opacity:1;"
         offset="0"
         id="stop3330" />
      <stop
         style="stop-color:#000000;stop-opacity:0;"
         offset="1"
         id="stop3333" />
    </linearGradient>
    <linearGradient
       inkscape:collect="always"
       xlink:href="#linearGradient3327"
       id="linearGradient3335"
       x1="11.375"
       y1="22"
       x2="11.375"
       y2="-9.817296"
       gradientUnits="userSpaceOnUse" />
    <linearGradient
       inkscape:collect="always"
       xlink:href="#ButtonColor"
       id="linearGradient3181"
       x1="-3.0607977"
       y1="27.258198"
       x2="-3.0607977"
       y2="7.2536583"
       gradientUnits="userSpaceOnUse"
       gradientTransform="translate(12.119372,-7.2581977)" />
    <inkscape:perspective
       sodipodi:type="inkscape:persp3d"
       inkscape:vp_x="0 : 11 : 1"
       inkscape:vp_y="0 : 1000 : 0"
       inkscape:vp_z="22 : 11 : 1"
       inkscape:persp3d-origin="11 : 7.3333333 : 1"
       id="perspective2531" />
    <linearGradient
       id="ButtonShadow"
       gradientTransform="scale(0.9883037,1.0118347)"
       x1="9.3550024"
       y1="21.742682"
       x2="9.3550024"
       y2="0.49362123"
       gradientUnits="userSpaceOnUse">
      <stop
         id="stop3277"
         offset="0"
         style="stop-color:#000000;stop-opacity:0.70588237;" />
      <stop
         id="stop3279"
         offset="1"
         style="stop-color:#000000;stop-opacity:0.15686275;" />
    </linearGradient>
    <linearGradient
       inkscape:collect="always"
       id="linearGradient3232">
      <stop
         style="stop-color:#000000;stop-opacity:1;"
         offset="0"
         id="stop3234" />
      <stop
         style="stop-color:#000000;stop-opacity:0;"
         offset="1"
         id="stop3236" />
    </linearGradient>
    <linearGradient
       gradientUnits="userSpaceOnUse"
       y2="-6.0004225"
       x2="11"
       y1="14.805666"
       x1="11"
       id="linearGradient3221"
       xlink:href="#linearGradient3232"
       inkscape:collect="always" />
    <linearGradient
       id="ButtonColor"
       x1="10.31979"
       y1="21"
       x2="10.31979"
       y2="0.99929649"
       gradientUnits="userSpaceOnUse">
      <stop
         style="stop-color:#e6e6e6;stop-opacity:1;"
         offset="0"
         id="stop3189" />
      <stop
         style="stop-color:#f5f5f5;stop-opacity:1;"
         offset="1"
         id="stop3191" />
    </linearGradient>
    <linearGradient
       inkscape:collect="always"
       xlink:href="#ButtonShadow"
       id="linearGradient38042"
       gradientUnits="userSpaceOnUse"
       gradientTransform="scale(0.9883037,1.0118347)"
       x1="9.3550024"
       y1="21.742682"
       x2="9.3550024"
       y2="0.49362123" />
    <filter
       inkscape:collect="always"
       id="filter3194"
       x="-0.18000001"
       width="1.36"
       y="-0.18000001"
       height="1.36"
       color-interpolation-filters="sRGB">
      <feGaussianBlur
         inkscape:collect="always"
         stdDeviation="1.2"
         id="feGaussianBlur3196" />
    </filter>
    <clipPath
       clipPathUnits="userSpaceOnUse"
       id="clipPath2849">
      <rect
         ry="2"
         rx="2"
         y="1"
         x="1"
         height="20"
         width="20"
         id="rect2851"
         style="fill:#ffffff;fill-opacity:1;fill-rule:evenodd;stroke:none;display:inline" />
    </clipPath>
    <inkscape:perspective
       id="perspective2941"
       inkscape:persp3d-origin="0.5 : 0.33333333 : 1"
       inkscape:vp_z="1 : 0.5 : 1"
       inkscape:vp_y="0 : 1000 : 0"
       inkscape:vp_x="0 : 0.5 : 1"
       sodipodi:type="inkscape:persp3d" />
    <linearGradient
       y2="26.413651"
       x2="71.671646"
       y1="62.025059"
       x1="71.671646"
       gradientTransform="matrix(1.3333333,0,0,1.3333333,-50.401545,-11.129853)"
       gradientUnits="userSpaceOnUse"
       id="linearGradient2937"
       xlink:href="#linearGradient3697"
       inkscape:collect="always" />
    <linearGradient
       id="linearGradient3697">
      <stop
         style="stop-color:#bababa;stop-opacity:1;"
         offset="0"
         id="stop3699" />
      <stop
         style="stop-color:#d2d2d2;stop-opacity:1;"
         offset="1"
         id="stop3701" />
    </linearGradient>
    <linearGradient
       y2="26.413651"
       x2="71.671646"
       y1="62.025059"
       x1="71.671646"
       gradientTransform="matrix(0.38888888,0,0,0.38888888,-46.628402,-7.371207)"
       gradientUnits="userSpaceOnUse"
       id="linearGradient2950"
       xlink:href="#linearGradient3697"
       inkscape:collect="always" />
    <linearGradient
       inkscape:collect="always"
       xlink:href="#linearGradient3697"
       id="linearGradient2891"
       gradientUnits="userSpaceOnUse"
       gradientTransform="matrix(0.38888888,0,0,0.38888888,-16.628402,-6.246207)"
       x1="71.671646"
       y1="62.025059"
       x2="71.671646"
       y2="26.413651" />
    <linearGradient
       inkscape:collect="always"
       xlink:href="#linearGradient3697"
       id="linearGradient2893"
       gradientUnits="userSpaceOnUse"
       gradientTransform="matrix(0.38888888,0,0,0.38888888,-16.628402,-5.246207)"
       x1="71.671646"
       y1="62.025059"
       x2="71.671646"
       y2="26.413651" />
    <linearGradient
       inkscape:collect="always"
       xlink:href="#linearGradient3697"
       id="linearGradient3670"
       gradientUnits="userSpaceOnUse"
       gradientTransform="matrix(0.38888888,0,0,0.38888888,-16.628402,-4.246207)"
       x1="71.671646"
       y1="62.025059"
       x2="71.671646"
       y2="26.413651" />
    <linearGradient
       inkscape:collect="always"
       xlink:href="#linearGradient3697"
       id="linearGradient3674"
       gradientUnits="userSpaceOnUse"
       gradientTransform="matrix(0.38888888,0,0,0.38888888,-16.628402,-7.246207)"
       x1="71.671646"
       y1="62.025059"
       x2="71.671646"
       y2="26.413651" />
    <inkscape:perspective
       id="perspective6017"
       inkscape:persp3d-origin="0.5 : 0.33333333 : 1"
       inkscape:vp_z="1 : 0.5 : 1"
       inkscape:vp_y="0 : 1000 : 0"
       inkscape:vp_x="0 : 0.5 : 1"
       sodipodi:type="inkscape:persp3d" />
    <linearGradient
       inkscape:collect="always"
       xlink:href="#linearGradient3697-7"
       id="linearGradient5987"
       x1="48"
       y1="72"
       x2="48"
       y2="24"
       gradientUnits="userSpaceOnUse"
       gradientTransform="matrix(1.0172185,0,0,1.0088125,-0.44503011,0.86721983)" />
    <linearGradient
       id="linearGradient3697-7">
      <stop
         style="stop-color:#bababa;stop-opacity:1;"
         offset="0"
         id="stop3699-6" />
      <stop
         style="stop-color:#d2d2d2;stop-opacity:1;"
         offset="1"
         id="stop3701-6" />
    </linearGradient>
    <linearGradient
       y2="24"
       x2="48"
       y1="72"
       x1="48"
       gradientTransform="matrix(0.33907281,0,0,0.33627081,-4.148343,-5.710926)"
       gradientUnits="userSpaceOnUse"
       id="linearGradient6026"
       xlink:href="#linearGradient3697-7"
       inkscape:collect="always" />
    <linearGradient
       inkscape:collect="always"
       xlink:href="#linearGradient3697-7"
       id="linearGradient2904"
       gradientUnits="userSpaceOnUse"
       gradientTransform="matrix(0.33907281,0,0,0.33627081,-4.148343,-4.710926)"
       x1="48"
       y1="72"
       x2="48"
       y2="24" />
    <linearGradient
       inkscape:collect="always"
       xlink:href="#linearGradient3697-7"
       id="linearGradient2906"
       gradientUnits="userSpaceOnUse"
       gradientTransform="matrix(0.33907281,0,0,0.33627081,-4.148343,-3.710926)"
       x1="48"
       y1="72"
       x2="48"
       y2="24" />
    <linearGradient
       inkscape:collect="always"
       xlink:href="#linearGradient3697-7"
       id="linearGradient3683"
       gradientUnits="userSpaceOnUse"
       gradientTransform="matrix(0.33907281,0,0,0.33627081,-4.148343,-2.710926)"
       x1="48"
       y1="72"
       x2="48"
       y2="24" />
    <linearGradient
       inkscape:collect="always"
       xlink:href="#linearGradient3697-7"
       id="linearGradient3687"
       gradientUnits="userSpaceOnUse"
       gradientTransform="matrix(0.33907281,0,0,0.33627081,-4.148343,-5.710926)"
       x1="48"
       y1="72"
       x2="48"
       y2="24" />
    <linearGradient
       y2="16"
       x2="10"
       y1="1"
       x1="10"
       gradientUnits="userSpaceOnUse"
       id="linearGradient3078"
       xlink:href="#linearGradient3823"
       inkscape:collect="always"
       gradientTransform="translate(1,-1)" />
    <linearGradient
       id="linearGradient3823">
      <stop
         id="stop3825"
         offset="0"
         style="stop-color:#ffffff;stop-opacity:1;" />
      <stop
         id="stop3829"
         offset="1"
         style="stop-color:#ffffff;stop-opacity:0;" />
    </linearGradient>
    <linearGradient
       inkscape:collect="always"
       xlink:href="#linearGradient3831"
       id="linearGradient3845"
       x1="11"
       y1="19.5"
       x2="21"
       y2="19.5"
       gradientUnits="userSpaceOnUse"
       spreadMethod="reflect"
       gradientTransform="translate(1,-1)" />
    <linearGradient
       id="linearGradient3831">
      <stop
         style="stop-color:#ffffff;stop-opacity:1;"
         offset="0"
         id="stop3833" />
      <stop
         id="stop3821"
         offset="0.75"
         style="stop-color:#ffffff;stop-opacity:0.49803922;" />
      <stop
         style="stop-color:#ffffff;stop-opacity:0;"
         offset="1"
         id="stop3835" />
    </linearGradient>
    <linearGradient
       y2="16"
       x2="10"
       y1="1"
       x1="10"
       gradientTransform="translate(1,-1)"
       gradientUnits="userSpaceOnUse"
       id="linearGradient3859"
       xlink:href="#linearGradient3823"
       inkscape:collect="always" />
  </defs>
  <sodipodi:namedview
     id="base"
     pagecolor="#ffffff"
     bordercolor="#e7e7e7"
     borderopacity="1"
     inkscape:pageopacity="0.0"
     inkscape:pageshadow="2"
     inkscape:zoom="24.819933"
     inkscape:cx="9.6840222"
     inkscape:cy="8.9241268"
     inkscape:document-units="px"
     inkscape:current-layer="layer1"
     showgrid="true"
     inkscape:showpageshadow="false"
     showguides="false"
     inkscape:guide-bbox="true"
     inkscape:window-width="1920"
     inkscape:window-height="1026"
     inkscape:window-x="0"
     inkscape:window-y="25"
     inkscape:window-maximized="1">
    <sodipodi:guide
       orientation="1,0"
       position="0,112"
       id="guide2383" />
    <sodipodi:guide
       orientation="0,1"
       position="26.278146,128"
       id="guide2385" />
    <sodipodi:guide
       orientation="1,0"
       position="128,54.082119"
       id="guide2387" />
    <sodipodi:guide
       orientation="0,1"
       position="78.156291,0"
       id="guide2389" />
    <sodipodi:guide
       orientation="0,1"
       position="60.863576,64.084768"
       id="guide2391" />
    <inkscape:grid
       type="xygrid"
       id="grid3672"
       visible="true"
       enabled="true"
       empspacing="8"
       snapvisiblegridlinesonly="true" />
  </sodipodi:namedview>
  <metadata
     id="metadata7">
    <rdf:RDF>
      <cc:Work
         rdf:about="">
        <dc:format>image/svg+xml</dc:format>
        <dc:type
           rdf:resource="http://purl.org/dc/dcmitype/StillImage" />
        <dc:title />
      </cc:Work>
    </rdf:RDF>
  </metadata>
  <g
     inkscape:label="Button"
     inkscape:groupmode="layer"
     id="layer1"
     transform="translate(0,2)">
    <g
       style="display:inline"
       id="g3337"
       transform="translate(1,-1)">
      <rect
         ry="2.5"
         rx="2.5"
         y="0.5"
         x="0.5"
         height="21.5"
         width="21"
         id="rect3371"
         style="opacity:0.3;fill:url(#linearGradient3335);fill-opacity:1;stroke:none;display:inline" />
      <rect
         style="opacity:0.5;fill:#000000;fill-opacity:1;stroke:none;display:inline"
         id="rect2553"
         width="20"
         height="20"
         x="1"
         y="2"
         rx="2.3809524"
         ry="2.3255813" />
    </g>
    <rect
       style="fill:url(#linearGradient3181);fill-opacity:1;fill-rule:evenodd;stroke:none;display:inline"
       id="rect3173"
       width="20"
       height="20"
       x="2"
       y="0"
       rx="2"
       ry="2" />
    <path
       style="opacity:0.6;fill:url(#linearGradient3859);fill-opacity:1;fill-rule:evenodd;stroke:none;display:inline"
       d="M 4,0 C 2.892,0 2,0.892 2,2 l 0,16 c 0,1.108 0.892,2 2,2 l 16,0 c 1.108,0 2,-0.892 2,-2 L 22,2 C 22,0.892 21.108,0 20,0 L 4,0 z m 0,1.03125 16,0 c 0.5497,0 0.96875,0.4190495 0.96875,0.96875 l 0,16 c 0,0.5497 -0.41905,0.96875 -0.96875,0.96875 l -16,0 C 3.4502995,18.96875 3.03125,18.5497 3.03125,18 l 0,-16 C 3.03125,1.4502995 3.4502995,1.03125 4,1.03125 z"
       id="rect3050"
       inkscape:connector-curvature="0" />
    <path
       id="path3235"
       d="M 4,20 C 2.892,20 2,19.108 2,18 l 0,-1 c 0,1.108 0.892,2 2,2 l 16,0 c 1.108,0 2,-0.892 2,-2 l 0,1 c 0,1.108 -0.892,2 -2,2 L 4,20 z"
       style="opacity:0.35;fill:url(#linearGradient3845);fill-opacity:1;fill-rule:evenodd;stroke:none;display:inline"
       inkscape:connector-curvature="0" />
  </g>
  <g
     inkscape:groupmode="layer"
     id="layer2"
     inkscape:label="Highlight"
     transform="translate(0,2)"
     sodipodi:insensitive="true"
     style="display:inline">
    <rect
       style="opacity:0.15;fill:#ffffff;fill-opacity:1;fill-rule:nonzero;stroke:none;display:inline;filter:url(#filter3194)"
       id="rect2410"
       width="16"
       height="16"
       x="3"
       y="3"
       rx="2"
       ry="2"
       clip-path="url(#clipPath2849)"
       transform="translate(1,-1)" />
  </g>
  <g
     inkscape:groupmode="layer"
     id="layer3"
     inkscape:label="Symbol"
     transform="translate(0,2)"
     sodipodi:insensitive="true">
    <path
       style="fill:url(#linearGradient6026);fill-opacity:1;display:inline"
       d="M 10.209272,3.000591 C 9.421196,3.012651 8.480999,3.216572 7.316557,3.694149 L 5.790729,8.948381 C 7.025244,8.442883 7.994172,8.20642 8.810597,8.212789 c 1.237972,0.0091 2.10415,0.520344 2.913907,1.061354 L 13.260927,4.040928 C 12.420209,3.477019 11.522733,2.980491 10.209272,3.000591 z m 3.856953,1.597286 -1.525827,5.254232 c 1.341445,0.902009 2.960715,1.644856 5.933774,0.325762 L 20,4.934148 C 16.899019,6.204994 15.408659,5.494743 14.066225,4.597877 z M 8.418544,9.221601 C 7.63114,9.240601 6.696977,9.441072 5.536425,9.91516 l -0.02119,0 L 4,15.148374 c 3.107154,-1.27403 4.576794,-0.540558 5.923178,0.357288 l 1.54702,-5.275249 C 10.631795,9.665893 9.730882,9.18994 8.418543,9.221601 z m 3.867549,1.513219 -1.536423,5.222706 c 1.343914,0.903724 2.840673,1.630338 5.94437,0.357288 l 1.472847,-5.096605 c -3.162224,1.072223 -4.535397,0.414212 -5.880794,-0.483389 z"
       id="path3359"
       inkscape:connector-curvature="0" />
    <path
       style="opacity:0.2;fill:#000000;fill-opacity:1;display:inline"
       d="M 10.21875,5 C 9.430674,5.01206 8.476942,5.209923 7.3125,5.6875 l -1.53125,5.25 c 0.1117208,-0.04575 0.2050456,-0.08364 0.3125,-0.125 L 7.3125,6.6875 C 8.476942,6.209923 9.430674,6.01206 10.21875,6 11.402365,5.981887 12.229117,6.3827994 13,6.875 L 13.25,6.03125 C 12.409282,5.467341 11.532211,4.9799 10.21875,5 z m 3.84375,1.59375 -1.53125,5.25 c 0.07812,0.05253 0.169789,0.10518 0.25,0.15625 L 14.0625,7.59375 c 1.293649,0.8642735 2.747656,1.5569415 5.625,0.46875 L 20,6.9375 C 16.899019,8.208346 15.404934,7.490616 14.0625,6.59375 z m -5.5,4.625 c -0.1311773,0.0062 -0.26681,0.01317 -0.40625,0.03125 -0.6748082,0.08751 -1.4491138,0.308377 -2.375,0.6875 l 0.03125,-0.125 c -0.093615,0.03576 -0.1845373,0.05424 -0.28125,0.09375 l -0.03125,0 -1.5,5.25 c 0.1120047,-0.04593 0.20468,-0.08421 0.3125,-0.125 l 1.1875,-4.125 0.03125,0 c 1.160552,-0.474088 2.087596,-0.6685 2.875,-0.6875 1.1844701,-0.02858 2.041803,0.353403 2.8125,0.84375 l 0.25,-0.84375 C 10.839948,11.79536 10.190075,11.428217 9.34375,11.28125 9.1084517,11.24039 8.8291536,11.220779 8.5625,11.21875 z M 12.28125,12.75 10.75,17.96875 c 0.08399,0.05648 0.164456,0.101596 0.25,0.15625 l 1.28125,-4.375 c 1.297166,0.865423 2.63513,1.478525 5.5625,0.5625 l 0.28125,-1 c -1.866542,0.753156 -3.16674,0.655523 -4.21875,0.25 -0.09447,-0.02975 -0.191141,-0.05882 -0.28125,-0.09375 -0.02149,-0.0098 -0.04121,-0.02124 -0.0625,-0.03125 -0.173532,-0.07015 -0.33842,-0.164131 -0.5,-0.25 -0.267924,-0.142383 -0.52717,-0.267987 -0.78125,-0.4375 z"
       transform="translate(0,-2)"
       id="path2900"
       inkscape:connector-curvature="0" />
    <path
       style="fill:#ffffff;fill-opacity:1;display:inline"
       d="m 13,6.875 -1.28125,4.40625 C 10.908993,10.74024 10.050472,10.22785 8.8125,10.21875 8.0699596,10.21295 7.1736667,10.396841 6.09375,10.8125 l -0.28125,1 c 0.9112662,-0.348101 1.6791848,-0.515201 2.34375,-0.5625 0.086414,-0.0061 0.1669451,-0.02925 0.25,-0.03125 0.054439,-0.0013 0.1032022,-4.04e-4 0.15625,0 0.08043,-0.0038 0.1724212,-6.05e-4 0.25,0 0.1881155,0.0014 0.3591975,0.03959 0.53125,0.0625 0.96021,0.127884 1.688289,0.541199 2.375,1 L 13.25,7.03125 C 13.166889,6.9755033 13.084568,6.9289957 13,6.875 z m 7,1.0625 c -0.112691,0.046183 -0.203993,0.083963 -0.3125,0.125 l -1.21875,4.125 C 15.668817,13.429781 14.078489,12.82595 12.78125,12 l -0.25,0.84375 c 0.167681,0.112751 0.352786,0.239689 0.53125,0.34375 0.158635,0.0925 0.329709,0.169914 0.5,0.25 0.02129,0.01001 0.04101,0.02148 0.0625,0.03125 0.09011,0.03493 0.186777,0.064 0.28125,0.09375 1.008693,0.317679 2.27361,0.326389 4.25,-0.34375 L 18.125,13.3125 c 0.11518,-0.04648 0.224267,-0.07199 0.34375,-0.125 L 20,7.9375 z M 11.21875,13.0625 9.9375,17.5 C 8.6396496,16.634519 7.1957456,15.94035 4.3125,17.03125 L 4,18.15625 C 7.107154,16.88222 8.591116,17.602154 9.9375,18.5 l 1.53125,-5.28125 c -0.08169,-0.055 -0.1668,-0.103315 -0.25,-0.15625 z m 6.9375,1.15625 c -0.113363,0.03844 -0.203655,0.05969 -0.3125,0.09375 l -1.15625,4 C 13.777784,19.505984 12.283156,18.944812 11,18.125 l -0.25,0.84375 c 1.343914,0.903724 2.833803,1.6168 5.9375,0.34375 l 1.46875,-5.09375 z"
       transform="translate(0,-2)"
       id="path3681"
       inkscape:connector-curvature="0" />
  </g>
</svg>
