<?xml version="1.0" encoding="UTF-8" standalone="no"?>
<!-- Created with Inkscape (http://www.inkscape.org/) -->

<svg
   xmlns:dc="http://purl.org/dc/elements/1.1/"
   xmlns:cc="http://creativecommons.org/ns#"
   xmlns:rdf="http://www.w3.org/1999/02/22-rdf-syntax-ns#"
   xmlns:svg="http://www.w3.org/2000/svg"
   xmlns="http://www.w3.org/2000/svg"
   xmlns:xlink="http://www.w3.org/1999/xlink"
   xmlns:sodipodi="http://sodipodi.sourceforge.net/DTD/sodipodi-0.dtd"
   xmlns:inkscape="http://www.inkscape.org/namespaces/inkscape"
   width="24"
   height="24"
   id="svg2"
   sodipodi:version="0.32"
   inkscape:version="0.48.0 r9654"
   version="1.0"
   sodipodi:docname="application-x-sln.svg"
   inkscape:output_extension="org.inkscape.output.svg.inkscape"
   style="display:inline">
  <defs
     id="defs4">
    <linearGradient
       inkscape:collect="always"
       id="linearGradient3327">
      <stop
         style="stop-color:#000000;stop-opacity:1;"
         offset="0"
         id="stop3330" />
      <stop
         style="stop-color:#000000;stop-opacity:0;"
         offset="1"
         id="stop3333" />
    </linearGradient>
    <linearGradient
       inkscape:collect="always"
       xlink:href="#linearGradient3327"
       id="linearGradient3335"
       x1="11.375"
       y1="22"
       x2="11.375"
       y2="-9.817296"
       gradientUnits="userSpaceOnUse" />
    <linearGradient
       inkscape:collect="always"
       xlink:href="#ButtonColor"
       id="linearGradient3181"
       x1="-3.0607977"
       y1="27.258198"
       x2="-3.0607977"
       y2="7.2536583"
       gradientUnits="userSpaceOnUse"
       gradientTransform="translate(12.119372,-7.2581977)" />
    <inkscape:perspective
       sodipodi:type="inkscape:persp3d"
       inkscape:vp_x="0 : 11 : 1"
       inkscape:vp_y="0 : 1000 : 0"
       inkscape:vp_z="22 : 11 : 1"
       inkscape:persp3d-origin="11 : 7.3333333 : 1"
       id="perspective2531" />
    <linearGradient
       id="ButtonShadow"
       gradientTransform="scale(0.9883037,1.0118347)"
       x1="9.3550024"
       y1="21.742682"
       x2="9.3550024"
       y2="0.49362123"
       gradientUnits="userSpaceOnUse">
      <stop
         id="stop3277"
         offset="0"
         style="stop-color:#000000;stop-opacity:0.70588237;" />
      <stop
         id="stop3279"
         offset="1"
         style="stop-color:#000000;stop-opacity:0.15686275;" />
    </linearGradient>
    <linearGradient
       inkscape:collect="always"
       id="linearGradient3232">
      <stop
         style="stop-color:#000000;stop-opacity:1;"
         offset="0"
         id="stop3234" />
      <stop
         style="stop-color:#000000;stop-opacity:0;"
         offset="1"
         id="stop3236" />
    </linearGradient>
    <linearGradient
       gradientUnits="userSpaceOnUse"
       y2="-6.0004225"
       x2="11"
       y1="14.805666"
       x1="11"
       id="linearGradient3221"
       xlink:href="#linearGradient3232"
       inkscape:collect="always" />
    <linearGradient
       id="ButtonColor"
       x1="10.31979"
       y1="21"
       x2="10.31979"
       y2="0.99929649"
       gradientUnits="userSpaceOnUse">
      <stop
         style="stop-color:#e6e6e6;stop-opacity:1;"
         offset="0"
         id="stop3189" />
      <stop
         style="stop-color:#f5f5f5;stop-opacity:1;"
         offset="1"
         id="stop3191" />
    </linearGradient>
    <linearGradient
       inkscape:collect="always"
       xlink:href="#ButtonShadow"
       id="linearGradient38042"
       gradientUnits="userSpaceOnUse"
       gradientTransform="scale(0.9883037,1.0118347)"
       x1="9.3550024"
       y1="21.742682"
       x2="9.3550024"
       y2="0.49362123" />
    <filter
       inkscape:collect="always"
       id="filter3194"
       x="-0.18000001"
       width="1.36"
       y="-0.18000001"
       height="1.36"
       color-interpolation-filters="sRGB">
      <feGaussianBlur
         inkscape:collect="always"
         stdDeviation="1.2"
         id="feGaussianBlur3196" />
    </filter>
    <clipPath
       clipPathUnits="userSpaceOnUse"
       id="clipPath2849">
      <rect
         ry="2"
         rx="2"
         y="1"
         x="1"
         height="20"
         width="20"
         id="rect2851"
         style="fill:#ffffff;fill-opacity:1;fill-rule:evenodd;stroke:none;display:inline" />
    </clipPath>
    <inkscape:perspective
       id="perspective2997"
       inkscape:persp3d-origin="0.5 : 0.33333333 : 1"
       inkscape:vp_z="1 : 0.5 : 1"
       inkscape:vp_y="0 : 1000 : 0"
       inkscape:vp_x="0 : 0.5 : 1"
       sodipodi:type="inkscape:persp3d" />
    <linearGradient
       inkscape:collect="always"
       xlink:href="#linearGradient7985"
       id="linearGradient3836"
       gradientUnits="userSpaceOnUse"
       gradientTransform="matrix(-0.25635421,0,0,0.25321235,593.66341,-3728.0457)"
       x1="2128.5525"
       y1="15026.778"
       x2="2128.5525"
       y2="14844.775" />
    <linearGradient
       id="linearGradient7985">
      <stop
         id="stop7991"
         style="stop-color:#42699a;stop-opacity:1;"
         offset="0" />
      <stop
         offset="1"
         style="stop-color:#99b8e1;stop-opacity:1;"
         id="stop7989" />
    </linearGradient>
    <clipPath
       clipPathUnits="userSpaceOnUse"
       id="clipPath3939">
      <path
         style="opacity:0.47186148;fill:#00ffff;fill-opacity:1;fill-rule:evenodd;stroke:none"
         d="m 71.96875,20 c -4.31369,1.765545 -18.15511,7.512771 -18.5,7.65625 -3.87007,-3.150175 -8.91154,-5.598136 -14.125,-5.875 -12.646312,-0.79267 -24.276266,10.394649 -24.3125,22.8125 -0.555181,11.179767 4.562738,21.528517 9.1875,31.40625 3.869087,-1.608909 17.95778,-7.445809 18.3125,-7.59375 3.79832,3.163745 8.648,5.478371 13.71875,5.84375 12.44374,1.040719 24.02407,-9.655493 24.65625,-21.78125 0.90325,-11.34272 -4.34426,-21.857746 -8.75,-32 C 72.09205,20.31052 72.03275,20.158246 71.96875,20 z m -34.25,7.3125 c 9.1497,-0.0011 17.20052,7.683466 17.625,14.0625 0.35572,5.345489 -1.411472,12.956485 -10.15625,13.96875 0.323717,0.862924 0.769457,1.770109 1.40625,2.65625 L 41.5,58 c -0.414177,-0.963437 -0.667923,-1.931712 -0.78125,-2.875 -4.223212,-1.121554 -7.97654,-5.098816 -8,-10.625 -0.03,-7.05132 8.82761,-7.732626 11.0625,-5.9375 0.86811,0.6973 0.83057,2.061607 0.0625,1.8125 -4.771791,-1.54858 -7.718924,1.526099 -7.5,4.5625 0.228202,3.163498 1.729509,5.344922 4.40625,6.28125 C 40.879081,50.143407 41.104866,49.054163 41.46875,48 l 4.3125,0 c -0.716657,1.252471 -1.077422,2.609534 -1.1875,3.6875 5.441954,-0.419155 6.996019,-5.969325 6.84375,-8.3125 -0.197,-3.033212 -2.84006,-9.297777 -11.09375,-10.4375 -3.897197,-0.537566 -7.109473,0.626374 -9.46875,2.90625 -2.359231,2.280077 -3.712465,4.663674 -3.90625,8.53125 -0.200416,4.000368 0.693285,6.345255 3.09375,11.59375 0.857436,1.874456 3.238989,5.650541 5.09375,9.4375 L 27.125,68.75 C 24.395973,62.165489 20.767922,56.378596 20.6875,45.625 20.60442,34.514732 30.161498,27.313359 37.71875,27.3125 z"
         id="path3941" />
    </clipPath>
    <linearGradient
       y2="14844.775"
       x2="2128.5525"
       y1="15026.778"
       x1="2128.5525"
       gradientTransform="matrix(-0.06991158,0,0,0.06905475,160.81053,-1019.7834)"
       gradientUnits="userSpaceOnUse"
       id="linearGradient3022"
       xlink:href="#linearGradient7985"
       inkscape:collect="always" />
    <linearGradient
       inkscape:collect="always"
       xlink:href="#linearGradient7985"
       id="linearGradient2921"
       gradientUnits="userSpaceOnUse"
       gradientTransform="matrix(-0.06991158,0,0,0.06905475,160.81053,-1016.7834)"
       x1="2128.5525"
       y1="15026.778"
       x2="2128.5525"
       y2="14844.775" />
    <linearGradient
       inkscape:collect="always"
       xlink:href="#linearGradient7985"
       id="linearGradient2925"
       gradientUnits="userSpaceOnUse"
       gradientTransform="matrix(-0.06991158,0,0,0.06905475,160.81053,-1019.7834)"
       x1="2128.5525"
       y1="15026.778"
       x2="2128.5525"
       y2="14844.775" />
    <linearGradient
       inkscape:collect="always"
       xlink:href="#linearGradient7985"
       id="linearGradient2932"
       gradientUnits="userSpaceOnUse"
       gradientTransform="matrix(-0.06991158,0,0,0.06905475,160.81053,-1018.7834)"
       x1="2128.5525"
       y1="15026.778"
       x2="2128.5525"
       y2="14844.775" />
    <linearGradient
       inkscape:collect="always"
       xlink:href="#linearGradient7985"
       id="linearGradient2934"
       gradientUnits="userSpaceOnUse"
       gradientTransform="matrix(-0.06991158,0,0,0.06905475,160.81053,-1017.7834)"
       x1="2128.5525"
       y1="15026.778"
       x2="2128.5525"
       y2="14844.775" />
    <linearGradient
       y2="16"
       x2="10"
       y1="1"
       x1="10"
       gradientUnits="userSpaceOnUse"
       id="linearGradient3078"
       xlink:href="#linearGradient3823"
       inkscape:collect="always"
       gradientTransform="translate(1,-1)" />
    <linearGradient
       id="linearGradient3823">
      <stop
         id="stop3825"
         offset="0"
         style="stop-color:#ffffff;stop-opacity:1;" />
      <stop
         id="stop3829"
         offset="1"
         style="stop-color:#ffffff;stop-opacity:0;" />
    </linearGradient>
    <linearGradient
       inkscape:collect="always"
       xlink:href="#linearGradient3831"
       id="linearGradient3845"
       x1="11"
       y1="19.5"
       x2="21"
       y2="19.5"
       gradientUnits="userSpaceOnUse"
       spreadMethod="reflect"
       gradientTransform="translate(1,-1)" />
    <linearGradient
       id="linearGradient3831">
      <stop
         style="stop-color:#ffffff;stop-opacity:1;"
         offset="0"
         id="stop3833" />
      <stop
         id="stop3821"
         offset="0.75"
         style="stop-color:#ffffff;stop-opacity:0.49803922;" />
      <stop
         style="stop-color:#ffffff;stop-opacity:0;"
         offset="1"
         id="stop3835" />
    </linearGradient>
    <linearGradient
       y2="16"
       x2="10"
       y1="1"
       x1="10"
       gradientTransform="translate(1,-1)"
       gradientUnits="userSpaceOnUse"
       id="linearGradient3859"
       xlink:href="#linearGradient3823"
       inkscape:collect="always" />
  </defs>
  <sodipodi:namedview
     id="base"
     pagecolor="#ffffff"
     bordercolor="#e7e7e7"
     borderopacity="1"
     inkscape:pageopacity="0.0"
     inkscape:pageshadow="2"
     inkscape:zoom="21.418891"
     inkscape:cx="-11.247322"
     inkscape:cy="17.461986"
     inkscape:document-units="px"
     inkscape:current-layer="layer1"
     showgrid="true"
     inkscape:showpageshadow="false"
     showguides="false"
     inkscape:guide-bbox="true"
     inkscape:window-width="1920"
     inkscape:window-height="1026"
     inkscape:window-x="0"
     inkscape:window-y="25"
     inkscape:window-maximized="1">
    <sodipodi:guide
       orientation="1,0"
       position="0,112"
       id="guide2383" />
    <sodipodi:guide
       orientation="0,1"
       position="26.278146,128"
       id="guide2385" />
    <sodipodi:guide
       orientation="1,0"
       position="128,54.082119"
       id="guide2387" />
    <sodipodi:guide
       orientation="0,1"
       position="78.156291,0"
       id="guide2389" />
    <sodipodi:guide
       orientation="0,1"
       position="60.863576,64.084768"
       id="guide2391" />
    <inkscape:grid
       type="xygrid"
       id="grid3672"
       visible="true"
       enabled="true"
       empspacing="8"
       snapvisiblegridlinesonly="true" />
  </sodipodi:namedview>
  <metadata
     id="metadata7">
    <rdf:RDF>
      <cc:Work
         rdf:about="">
        <dc:format>image/svg+xml</dc:format>
        <dc:type
           rdf:resource="http://purl.org/dc/dcmitype/StillImage" />
        <dc:title />
      </cc:Work>
    </rdf:RDF>
  </metadata>
  <g
     inkscape:label="Button"
     inkscape:groupmode="layer"
     id="layer1"
     transform="translate(0,2)">
    <g
       style="display:inline"
       id="g3337"
       transform="translate(1,-1)">
      <rect
         ry="2.5"
         rx="2.5"
         y="0.5"
         x="0.5"
         height="21.5"
         width="21"
         id="rect3371"
         style="opacity:0.3;fill:url(#linearGradient3335);fill-opacity:1;stroke:none;display:inline" />
      <rect
         style="opacity:0.5;fill:#000000;fill-opacity:1;stroke:none;display:inline"
         id="rect2553"
         width="20"
         height="20"
         x="1"
         y="2"
         rx="2.3809524"
         ry="2.3255813" />
    </g>
    <rect
       style="fill:url(#linearGradient3181);fill-opacity:1;fill-rule:evenodd;stroke:none;display:inline"
       id="rect3173"
       width="20"
       height="20"
       x="2"
       y="0"
       rx="2"
       ry="2" />
    <path
       style="opacity:0.6;fill:url(#linearGradient3859);fill-opacity:1;fill-rule:evenodd;stroke:none;display:inline"
       d="M 4,0 C 2.892,0 2,0.892 2,2 l 0,16 c 0,1.108 0.892,2 2,2 l 16,0 c 1.108,0 2,-0.892 2,-2 L 22,2 C 22,0.892 21.108,0 20,0 L 4,0 z m 0,1.03125 16,0 c 0.5497,0 0.96875,0.4190495 0.96875,0.96875 l 0,16 c 0,0.5497 -0.41905,0.96875 -0.96875,0.96875 l -16,0 C 3.4502995,18.96875 3.03125,18.5497 3.03125,18 l 0,-16 C 3.03125,1.4502995 3.4502995,1.03125 4,1.03125 z"
       id="rect3050"
       inkscape:connector-curvature="0" />
    <path
       id="path3235"
       d="M 4,20 C 2.892,20 2,19.108 2,18 l 0,-1 c 0,1.108 0.892,2 2,2 l 16,0 c 1.108,0 2,-0.892 2,-2 l 0,1 c 0,1.108 -0.892,2 -2,2 L 4,20 z"
       style="opacity:0.35;fill:url(#linearGradient3845);fill-opacity:1;fill-rule:evenodd;stroke:none;display:inline"
       inkscape:connector-curvature="0" />
  </g>
  <g
     inkscape:groupmode="layer"
     id="layer2"
     inkscape:label="Highlight"
     transform="translate(0,2)"
     sodipodi:insensitive="true"
     style="display:inline">
    <rect
       style="opacity:0.15;fill:#ffffff;fill-opacity:1;fill-rule:nonzero;stroke:none;display:inline;filter:url(#filter3194)"
       id="rect2410"
       width="16"
       height="16"
       x="3"
       y="3"
       rx="2"
       ry="2"
       clip-path="url(#clipPath2849)"
       transform="translate(1,-1)" />
  </g>
  <g
     inkscape:groupmode="layer"
     id="layer3"
     inkscape:label="Symbol"
     transform="translate(0,2)">
    <path
       sodipodi:nodetypes="cccccccccc"
       id="path3603"
       d="m 18.535462,2.3639865 c -1.176408,0.48149 -4.948818,2.049388 -5.042873,2.088517 C 12.437163,3.5934045 11.064436,2.9259115 9.6426502,2.8504075 6.193814,2.6342335 3.0216534,5.6869575 3.0117726,9.0734885 2.8603667,12.122377 4.2564767,14.94221 5.5177184,17.636013 6.5728748,17.19724 10.40963,15.603288 10.506368,15.562942 c 1.035855,0.862799 2.362494,1.498591 3.745363,1.598235 3.393592,0.28382 6.547554,-2.638251 6.719957,-5.945124 0.246331,-3.0933285 -1.184362,-5.9548665 -2.385874,-8.7208095 -0.01749,-0.04316 -0.03289,-0.0881 -0.05035,-0.131257 z"
       style="fill:url(#linearGradient3022);fill-opacity:1;fill-rule:evenodd;stroke:none;display:inline" />
    <path
       style="fill:#000000;fill-opacity:1;fill-rule:evenodd;stroke:none;display:inline;opacity:0.2"
       d="m 9.1875,4.8874997 c -0.257622,2.92e-5 -0.513323,0.033947 -0.78125,0.09375 -0.535854,0.1196057 -1.090152,0.3501163 -1.59375,0.6875 -0.503598,0.3373837 -0.970379,0.7857601 -1.34375,1.3125 -0.093957,0.1314457 -0.16806,0.2640598 -0.25,0.40625 -0.24582,0.4265705 -0.45276,0.8908291 -0.5625,1.40625 -0.07316,0.343614 -0.096583,0.715008 -0.09375,1.09375 0.010966,1.4663323 0.251307,2.6070813 0.59375,3.5937503 0.170863,0.49354 0.365266,0.928144 0.5625,1.375 0.00378,0.0086 -0.00378,0.02269 0,0.03125 0.193535,0.437745 0.411308,0.872311 0.59375,1.3125 L 8.5,15.29375 C 8.304482,14.894547 8.081822,14.506322 7.875,14.1375 7.684317,13.797388 7.5533,13.528073 7.40625,13.2625 7.287064,13.048507 7.159387,12.843495 7.09375,12.7 6.930089,12.342164 6.801108,12.04084 6.6875,11.7625 6.580307,11.494574 6.469562,11.241749 6.40625,11.0125 c -0.00284,-0.01003 0.00276,-0.02126 0,-0.03125 -0.128127,-0.473775 -0.152328,-0.89202 -0.125,-1.4375003 0.013212,-0.263686 0.041929,-0.501091 0.09375,-0.71875 0.103643,-0.4353183 0.279971,-0.7979155 0.53125,-1.125 0.12564,-0.1635423 0.276651,-0.3132975 0.4375,-0.46875 0.317894,-0.3023289 0.699557,-0.551357 1.125,-0.6875 0.427346,-0.1359181 0.906088,-0.167051 1.4375,-0.09375 0.266111,0.036747 0.494793,0.085252 0.71875,0.15625 0.200789,0.063653 0.392989,0.1328243 0.5625,0.21875 0.01956,0.00991 0.04334,0.021076 0.0625,0.03125 0.02005,0.010737 0.04288,0.020241 0.0625,0.03125 0.160373,0.089508 0.304694,0.2072485 0.4375,0.3125 0.02768,0.021884 0.06721,0.040086 0.09375,0.0625 0.114384,0.097511 0.218247,0.2067855 0.3125,0.3125 0.190875,0.2130368 0.353466,0.4353884 0.46875,0.65625 0.05348,0.1024536 0.08592,0.2132932 0.125,0.3125 0.0032,0.00909 -0.0035,0.022146 0,0.03125 C 10.871667,8.8049747 10.186452,10.149076 10.03125,11.41875 9.294887,11.165762 8.87506,10.567247 8.8125,9.6999997 c -0.059704,-0.828071 0.761163,-1.64107 2.0625,-1.21875 0.20945,0.067935 0.205498,-0.309837 -0.03125,-0.5 -0.609485,-0.489558 -3.0082,-0.329249 -3,1.59375 0.00644,1.5172813 1.025534,2.6098013 2.1875,2.9062503 0.209948,1.713371 2.346048,3.71915 4.78125,3.71875 2.060967,-1.12e-4 4.64766,-1.970067 4.625,-5 -0.02194,-2.9327278 -1.005746,-4.5166853 -1.75,-6.3125003 l -2.1875,0.9375 c 0.505808,1.032877 1.17242,2.051136 1.40625,2.5625 0.654643,1.431347 0.86715,2.0652333 0.8125,3.1562503 -0.05284,1.05457 -0.38784,1.721881 -1.03125,2.34375 -0.643401,0.621756 -1.530932,0.927915 -2.59375,0.78125 -1.707959,-0.235668 -2.519076,-1.276056 -2.84375,-2.125 0.550101,-0.06683 1.013155,-0.239469 1.375,-0.46875 0.03971,-0.02506 0.08728,-0.03598 0.125,-0.0625 0.07336,-0.05171 0.12161,-0.09911 0.1875,-0.15625 0.02368,-0.01996 0.03972,-0.04193 0.0625,-0.0625 0.06435,-0.05997 0.130424,-0.122731 0.1875,-0.1875 0.03106,-0.03428 0.03344,-0.08951 0.0625,-0.125 0.106175,-0.132943 0.232304,-0.259255 0.3125,-0.40625 0.01102,-0.0202 0.02069,-0.04209 0.03125,-0.0625 0.0653,-0.122016 0.107084,-0.246577 0.15625,-0.375 0.07895,-0.206227 0.145549,-0.410648 0.1875,-0.625 C 13.9576,9.9097717 13.98743,9.8028357 14,9.6999997 c 0.714876,0.259546 1.125925,0.8338193 1.1875,1.6875003 0.0597,0.828017 -0.761167,1.672375 -2.0625,1.25 -0.209458,-0.06788 -0.205493,0.309836 0.03125,0.5 0.609486,0.489611 3.0082,0.297941 3,-1.625 C 16.14985,9.9944497 15.131474,8.9019967 13.96875,8.6062497 13.9419,8.3868719 13.89948,8.1739874 13.8125,7.9499997 13.72536,7.725613 13.609263,7.5131151 13.46875,7.2937497 13.357331,7.1152968 13.236206,6.9322593 13.09375,6.7624997 13.06562,6.7296567 13.02922,6.7011357 13,6.6687497 c -0.154024,-0.1738614 -0.317311,-0.3423311 -0.5,-0.5 -0.02815,-0.023883 -0.06499,-0.039078 -0.09375,-0.0625 -0.02863,-0.02369 -0.06452,-0.03929 -0.09375,-0.0625 C 12.143062,5.9113244 11.968784,5.782846 11.78125,5.6687497 11.531037,5.5141661 11.277184,5.3759044 11,5.2624997 10.97902,5.2540797 10.95861,5.2394037 10.9375,5.2312497 10.391509,5.0164941 9.796299,4.8874292 9.1875,4.8874997 z m 3.71875,4.6875 C 12.87394,9.8615547 12.81056,10.177966 12.625,10.5125 c -0.27573,0.508795 -0.752571,0.931447 -1.53125,1 0.07818,-0.713064 0.539707,-1.8259803 1.8125,-1.9375003 z"
       id="path3709" />
    <path
       inkscape:export-ydpi="16.219999"
       inkscape:export-filename="/home/lluis/MonoDevelopWork/mono-logo.png"
       d="M 6.3044318,15.660176 C 5.5601849,13.864483 4.5735017,12.281985 4.5515687,9.3493205 4.5289112,6.3193855 7.136575,4.3577225 9.1975486,4.3574885 c 2.4952594,-3e-4 4.6906834,2.099985 4.8064444,3.839641 0.104479,1.569961 -0.456031,3.8532285 -3.349131,3.8362585 -1.3813996,-0.008 -2.8167934,-1.205781 -2.8243591,-2.9878325 -0.00821,-1.922999 2.4087381,-2.110599 3.0182231,-1.621041 0.236748,0.190163 0.22951,0.566471 0.02006,0.498536 -1.3013374,-0.42232 -2.105287,0.410013 -2.0455832,1.238084 0.081045,1.1235595 0.7498269,1.7920255 1.9486572,1.8488815 1.729319,0.08188 2.213447,-1.5944505 2.169235,-2.2748115 -0.05373,-0.827202 -0.777332,-2.528545 -3.0282366,-2.839364 -1.0628221,-0.146602 -1.9436598,0.170691 -2.5870696,0.792447 -0.6433975,0.621811 -1.0051209,1.264795 -1.0579689,2.319541 -0.054653,1.0909585 0.184311,1.7310825 0.8389539,3.1624245 0.2338357,0.511192 0.8869959,1.542551 1.3928172,2.57531 l -2.195149,0.914613 z"
       inkscape:export-xdpi="16.219999"
       sodipodi:nodetypes="cssscsssssssssscc"
       id="path3607"
       style="fill:#eeeeec;fill-opacity:1;fill-rule:evenodd;stroke:none;display:inline" />
    <path
       inkscape:export-ydpi="16.219999"
       inkscape:export-filename="/home/lluis/MonoDevelopWork/mono-logo.png"
       d="m 17.695658,4.3574885 c 0.744254,1.795815 1.73093,3.378251 1.752866,6.3109785 0.02266,3.029933 -2.585013,4.991597 -4.64598,4.991709 -2.495263,4.1e-4 -4.690687,-2.099926 -4.8064447,-3.839405 -0.1044675,-1.570133 0.4560277,-3.8534605 3.3491357,-3.8363765 1.3814,0.008 2.816794,1.205785 2.824359,2.9877775 0.0082,1.922941 -2.408742,2.110653 -3.018228,1.621042 -0.236743,-0.190164 -0.229518,-0.566414 -0.02006,-0.498537 1.301333,0.422375 2.105276,-0.410071 2.045571,-1.238088 -0.08104,-1.1235545 -0.749818,-1.7919035 -1.948649,-1.8487605 -1.729315,-0.08187 -2.213446,1.5945095 -2.169238,2.2747535 0.05373,0.827197 0.777327,2.528657 3.028244,2.839243 1.062818,0.146665 1.943656,-0.170629 2.587057,-0.792385 0.64341,-0.621869 1.005138,-1.264854 1.057981,-2.319424 0.05465,-1.0910165 -0.184319,-1.7310815 -0.838962,-3.1624285 -0.23383,-0.511364 -0.887,-1.542492 -1.392808,-2.575369 l 2.19514,-0.91473 z"
       inkscape:export-xdpi="16.219999"
       sodipodi:nodetypes="cssscsssssssssscc"
       id="path3611"
       style="fill:#a9c4e3;fill-opacity:1;fill-rule:evenodd;stroke:none;display:inline" />
    <path
       id="path3613"
       d="m 9.1940071,4.3510945 c -2.0609736,2.34e-4 -4.6644209,1.962541 -4.6417578,4.992475 0.021949,2.9326645 1.0128023,4.5167825 1.7570493,6.3124755 L 8.4990554,14.741194 C 8.3035372,14.341991 8.0895982,13.959916 7.882776,13.591094 l -0.485155,0 0,-0.875644 C 7.2784352,12.501457 7.1747867,12.310034 7.1091497,12.166539 6.4545079,10.735198 6.2153049,10.094727 6.2699618,9.0037675 c 0.052853,-1.054745 0.4187002,-1.691457 1.0620976,-2.313267 0.6434099,-0.621757 1.5203022,-0.94383 2.5831254,-0.797228 1.0644462,0.146987 1.7832992,0.607612 2.2553182,1.13703 l 0.445818,0 0,0.653465 c 0.202945,0.390515 0.309707,0.766865 0.327808,1.045545 0.01964,0.30227 -0.07602,0.800732 -0.327808,1.254653 l 0,1.5552475 c 1.195935,-0.754616 1.464152,-2.2300425 1.389904,-3.3457425 -0.115761,-1.739657 -2.316959,-3.842665 -4.8122179,-3.842376 z"
       style="fill:#eeeeec;fill-opacity:1;fill-rule:evenodd;stroke:none;display:inline" />
    <path
       style="fill:#ffffff;fill-opacity:1;fill-rule:evenodd;stroke:none;display:inline"
       d="M 3.03125 11.84375 C 3.0280114 11.917791 3.0002171 11.988105 3 12.0625 C 2.8485941 15.111388 4.2700083 17.931197 5.53125 20.625 C 6.5864064 20.186227 10.403262 18.602846 10.5 18.5625 C 11.535855 19.425299 12.867131 20.056606 14.25 20.15625 C 17.643592 20.44007 20.796347 17.525623 20.96875 14.21875 C 21.004705 13.767247 20.998324 13.317051 20.96875 12.875 C 20.96413 12.989239 20.977898 13.103879 20.96875 13.21875 C 20.796347 16.525623 17.643592 19.44007 14.25 19.15625 C 12.867131 19.056606 11.535855 18.425299 10.5 17.5625 C 10.403262 17.602846 6.5864064 19.186227 5.53125 19.625 C 4.3765694 17.158794 3.1210441 14.600279 3.03125 11.84375 z "
       transform="translate(0,-2)"
       id="path2919" />
    <path
       style="fill:#000000;fill-opacity:1;fill-rule:evenodd;stroke:none;display:inline;opacity:0.3"
       d="M 18.53125 4.375 C 17.354842 4.85649 13.594055 6.398371 13.5 6.4375 C 12.444574 5.578401 11.078036 4.919254 9.65625 4.84375 C 6.2074138 4.627576 3.0098808 7.675969 3 11.0625 C 2.9872079 11.320098 3.0229632 11.58936 3.03125 11.84375 C 3.1754364 8.5473424 6.2831772 5.6323249 9.65625 5.84375 C 11.078036 5.919254 12.444574 6.578401 13.5 7.4375 C 13.594055 7.398371 17.354842 5.85649 18.53125 5.375 C 18.54871 5.418157 18.57626 5.45684 18.59375 5.5 C 19.619889 7.8622249 20.795708 10.288485 20.96875 12.875 C 21.088537 9.9129373 19.750644 7.1632296 18.59375 4.5 C 18.57626 4.45684 18.54871 4.418157 18.53125 4.375 z "
       transform="translate(0,-2)"
       id="path2928" />
  </g>
</svg>
