<?xml version="1.0" encoding="UTF-8" standalone="no"?>
<!-- Created with Inkscape (http://www.inkscape.org/) -->

<svg
   xmlns:dc="http://purl.org/dc/elements/1.1/"
   xmlns:cc="http://creativecommons.org/ns#"
   xmlns:rdf="http://www.w3.org/1999/02/22-rdf-syntax-ns#"
   xmlns:svg="http://www.w3.org/2000/svg"
   xmlns="http://www.w3.org/2000/svg"
   xmlns:xlink="http://www.w3.org/1999/xlink"
   xmlns:sodipodi="http://sodipodi.sourceforge.net/DTD/sodipodi-0.dtd"
   xmlns:inkscape="http://www.inkscape.org/namespaces/inkscape"
   width="24"
   height="24"
   id="svg2"
   sodipodi:version="0.32"
   inkscape:version="0.48.0 r9654"
   version="1.0"
   sodipodi:docname="application-x-php.svg"
   inkscape:output_extension="org.inkscape.output.svg.inkscape"
   style="display:inline">
  <defs
     id="defs4">
    <linearGradient
       inkscape:collect="always"
       id="linearGradient3327">
      <stop
         style="stop-color:#000000;stop-opacity:1;"
         offset="0"
         id="stop3330" />
      <stop
         style="stop-color:#000000;stop-opacity:0;"
         offset="1"
         id="stop3333" />
    </linearGradient>
    <linearGradient
       inkscape:collect="always"
       xlink:href="#linearGradient3327"
       id="linearGradient3335"
       x1="11.375"
       y1="22"
       x2="11.375"
       y2="-9.817296"
       gradientUnits="userSpaceOnUse" />
    <linearGradient
       inkscape:collect="always"
       xlink:href="#ButtonColor"
       id="linearGradient3181"
       x1="-3.0607977"
       y1="27.258198"
       x2="-3.0607977"
       y2="7.2536583"
       gradientUnits="userSpaceOnUse"
       gradientTransform="translate(12.119372,-7.2581977)" />
    <inkscape:perspective
       sodipodi:type="inkscape:persp3d"
       inkscape:vp_x="0 : 11 : 1"
       inkscape:vp_y="0 : 1000 : 0"
       inkscape:vp_z="22 : 11 : 1"
       inkscape:persp3d-origin="11 : 7.3333333 : 1"
       id="perspective2531" />
    <linearGradient
       id="ButtonShadow"
       gradientTransform="scale(0.9883037,1.0118347)"
       x1="9.3550024"
       y1="21.742682"
       x2="9.3550024"
       y2="0.49362123"
       gradientUnits="userSpaceOnUse">
      <stop
         id="stop3277"
         offset="0"
         style="stop-color:#000000;stop-opacity:0.70588237;" />
      <stop
         id="stop3279"
         offset="1"
         style="stop-color:#000000;stop-opacity:0.15686275;" />
    </linearGradient>
    <linearGradient
       inkscape:collect="always"
       id="linearGradient3232">
      <stop
         style="stop-color:#000000;stop-opacity:1;"
         offset="0"
         id="stop3234" />
      <stop
         style="stop-color:#000000;stop-opacity:0;"
         offset="1"
         id="stop3236" />
    </linearGradient>
    <linearGradient
       gradientUnits="userSpaceOnUse"
       y2="-6.0004225"
       x2="11"
       y1="14.805666"
       x1="11"
       id="linearGradient3221"
       xlink:href="#linearGradient3232"
       inkscape:collect="always" />
    <linearGradient
       id="ButtonColor"
       x1="10.31979"
       y1="21"
       x2="10.31979"
       y2="0.99929649"
       gradientUnits="userSpaceOnUse">
      <stop
         style="stop-color:#e6e6e6;stop-opacity:1;"
         offset="0"
         id="stop3189" />
      <stop
         style="stop-color:#f5f5f5;stop-opacity:1;"
         offset="1"
         id="stop3191" />
    </linearGradient>
    <linearGradient
       inkscape:collect="always"
       xlink:href="#ButtonShadow"
       id="linearGradient38042"
       gradientUnits="userSpaceOnUse"
       gradientTransform="scale(0.9883037,1.0118347)"
       x1="9.3550024"
       y1="21.742682"
       x2="9.3550024"
       y2="0.49362123" />
    <filter
       inkscape:collect="always"
       id="filter3194"
       x="-0.18000001"
       width="1.36"
       y="-0.18000001"
       height="1.36"
       color-interpolation-filters="sRGB">
      <feGaussianBlur
         inkscape:collect="always"
         stdDeviation="1.2"
         id="feGaussianBlur3196" />
    </filter>
    <clipPath
       clipPathUnits="userSpaceOnUse"
       id="clipPath2849">
      <rect
         ry="2"
         rx="2"
         y="1"
         x="1"
         height="20"
         width="20"
         id="rect2851"
         style="fill:#ffffff;fill-opacity:1;fill-rule:evenodd;stroke:none;display:inline" />
    </clipPath>
    <inkscape:perspective
       id="perspective3995"
       inkscape:persp3d-origin="0.5 : 0.33333333 : 1"
       inkscape:vp_z="1 : 0.5 : 1"
       inkscape:vp_y="0 : 1000 : 0"
       inkscape:vp_x="0 : 0.5 : 1"
       sodipodi:type="inkscape:persp3d" />
    <radialGradient
       inkscape:collect="always"
       xlink:href="#linearGradient3798"
       id="radialGradient3733"
       gradientUnits="userSpaceOnUse"
       gradientTransform="matrix(0.33527442,0,0,0.30174958,5.9995558,-27.12427)"
       cx="77.914261"
       cy="-48.544521"
       fx="77.914261"
       fy="-48.544521"
       r="146" />
    <linearGradient
       gradientUnits="userSpaceOnUse"
       id="linearGradient3798"
       y2="84"
       x2="299"
       y1="84"
       x1="150">
      <stop
         offset="0"
         style="stop-color:#dddce9;stop-opacity:1"
         id="stop3800" />
      <stop
         offset="0.37"
         style="stop-color:#5664a3;stop-opacity:1"
         id="stop3802" />
      <stop
         offset="1"
         style="stop-color:#3b446f;stop-opacity:1;"
         id="stop3804" />
    </linearGradient>
    <linearGradient
       inkscape:collect="always"
       xlink:href="#linearGradient3736"
       id="linearGradient3744"
       x1="180.27818"
       y1="155.08972"
       x2="180.27818"
       y2="3.4033673"
       gradientUnits="userSpaceOnUse" />
    <linearGradient
       id="linearGradient3736">
      <stop
         style="stop-color:#5368aa;stop-opacity:1;"
         offset="0"
         id="stop3738" />
      <stop
         style="stop-color:#8292c2;stop-opacity:1;"
         offset="1"
         id="stop3740" />
    </linearGradient>
    <linearGradient
       inkscape:collect="always"
       xlink:href="#linearGradient3736"
       id="linearGradient2911"
       gradientUnits="userSpaceOnUse"
       x1="180.27818"
       y1="155.08972"
       x2="180.27818"
       y2="3.4033673" />
    <linearGradient
       inkscape:collect="always"
       xlink:href="#linearGradient3798"
       id="linearGradient3704"
       gradientUnits="userSpaceOnUse"
       gradientTransform="matrix(0.06164384,0,0,-0.06578947,2.753425,15.263158)"
       x1="68.888885"
       y1="156.00002"
       x2="149.99998"
       y2="-41.600002" />
    <linearGradient
       inkscape:collect="always"
       xlink:href="#linearGradient3736"
       id="linearGradient3832"
       gradientUnits="userSpaceOnUse"
       x1="180.27818"
       y1="155.08972"
       x2="180.27818"
       y2="3.4033673" />
    <linearGradient
       y2="16"
       x2="10"
       y1="1"
       x1="10"
       gradientUnits="userSpaceOnUse"
       id="linearGradient3078"
       xlink:href="#linearGradient3823"
       inkscape:collect="always"
       gradientTransform="translate(1,-1)" />
    <linearGradient
       id="linearGradient3823">
      <stop
         id="stop3825"
         offset="0"
         style="stop-color:#ffffff;stop-opacity:1;" />
      <stop
         id="stop3829"
         offset="1"
         style="stop-color:#ffffff;stop-opacity:0;" />
    </linearGradient>
    <linearGradient
       inkscape:collect="always"
       xlink:href="#linearGradient3831"
       id="linearGradient3845"
       x1="11"
       y1="19.5"
       x2="21"
       y2="19.5"
       gradientUnits="userSpaceOnUse"
       spreadMethod="reflect"
       gradientTransform="translate(1,-1)" />
    <linearGradient
       id="linearGradient3831">
      <stop
         style="stop-color:#ffffff;stop-opacity:1;"
         offset="0"
         id="stop3833" />
      <stop
         id="stop3821"
         offset="0.75"
         style="stop-color:#ffffff;stop-opacity:0.49803922;" />
      <stop
         style="stop-color:#ffffff;stop-opacity:0;"
         offset="1"
         id="stop3835" />
    </linearGradient>
    <linearGradient
       y2="16"
       x2="10"
       y1="1"
       x1="10"
       gradientTransform="translate(1,-1)"
       gradientUnits="userSpaceOnUse"
       id="linearGradient3859"
       xlink:href="#linearGradient3823"
       inkscape:collect="always" />
  </defs>
  <sodipodi:namedview
     id="base"
     pagecolor="#ffffff"
     bordercolor="#e7e7e7"
     borderopacity="1"
     inkscape:pageopacity="0.0"
     inkscape:pageshadow="2"
     inkscape:zoom="7.6408143"
     inkscape:cx="7.1973545"
     inkscape:cy="24.253721"
     inkscape:document-units="px"
     inkscape:current-layer="layer1"
     showgrid="true"
     inkscape:showpageshadow="false"
     showguides="false"
     inkscape:guide-bbox="true"
     inkscape:window-width="1920"
     inkscape:window-height="1026"
     inkscape:window-x="0"
     inkscape:window-y="25"
     inkscape:window-maximized="1"
     inkscape:snap-global="true">
    <sodipodi:guide
       orientation="1,0"
       position="0,112"
       id="guide2383" />
    <sodipodi:guide
       orientation="0,1"
       position="26.278146,128"
       id="guide2385" />
    <sodipodi:guide
       orientation="1,0"
       position="128,54.082119"
       id="guide2387" />
    <sodipodi:guide
       orientation="0,1"
       position="78.156291,0"
       id="guide2389" />
    <sodipodi:guide
       orientation="0,1"
       position="60.863576,64.084768"
       id="guide2391" />
    <inkscape:grid
       type="xygrid"
       id="grid3672"
       visible="true"
       enabled="true"
       empspacing="8"
       snapvisiblegridlinesonly="true" />
  </sodipodi:namedview>
  <metadata
     id="metadata7">
    <rdf:RDF>
      <cc:Work
         rdf:about="">
        <dc:format>image/svg+xml</dc:format>
        <dc:type
           rdf:resource="http://purl.org/dc/dcmitype/StillImage" />
        <dc:title />
      </cc:Work>
    </rdf:RDF>
  </metadata>
  <g
     inkscape:label="Button"
     inkscape:groupmode="layer"
     id="layer1"
     transform="translate(0,2)">
    <g
       style="display:inline"
       id="g3337"
       transform="translate(1,-1)">
      <rect
         ry="2.5"
         rx="2.5"
         y="0.5"
         x="0.5"
         height="21.5"
         width="21"
         id="rect3371"
         style="opacity:0.3;fill:url(#linearGradient3335);fill-opacity:1;stroke:none;display:inline" />
      <rect
         style="opacity:0.5;fill:#000000;fill-opacity:1;stroke:none;display:inline"
         id="rect2553"
         width="20"
         height="20"
         x="1"
         y="2"
         rx="2.3809524"
         ry="2.3255813" />
    </g>
    <rect
       style="fill:url(#linearGradient3181);fill-opacity:1;fill-rule:evenodd;stroke:none;display:inline"
       id="rect3173"
       width="20"
       height="20"
       x="2"
       y="0"
       rx="2"
       ry="2" />
    <path
       style="opacity:0.6;fill:url(#linearGradient3859);fill-opacity:1;fill-rule:evenodd;stroke:none;display:inline"
       d="M 4,0 C 2.892,0 2,0.892 2,2 l 0,16 c 0,1.108 0.892,2 2,2 l 16,0 c 1.108,0 2,-0.892 2,-2 L 22,2 C 22,0.892 21.108,0 20,0 L 4,0 z m 0,1.03125 16,0 c 0.5497,0 0.96875,0.4190495 0.96875,0.96875 l 0,16 c 0,0.5497 -0.41905,0.96875 -0.96875,0.96875 l -16,0 C 3.4502995,18.96875 3.03125,18.5497 3.03125,18 l 0,-16 C 3.03125,1.4502995 3.4502995,1.03125 4,1.03125 z"
       id="rect3050"
       inkscape:connector-curvature="0" />
    <path
       id="path3235"
       d="M 4,20 C 2.892,20 2,19.108 2,18 l 0,-1 c 0,1.108 0.892,2 2,2 l 16,0 c 1.108,0 2,-0.892 2,-2 l 0,1 c 0,1.108 -0.892,2 -2,2 L 4,20 z"
       style="opacity:0.35;fill:url(#linearGradient3845);fill-opacity:1;fill-rule:evenodd;stroke:none;display:inline"
       inkscape:connector-curvature="0" />
  </g>
  <g
     inkscape:groupmode="layer"
     id="layer2"
     inkscape:label="Highlight"
     transform="translate(0,2)"
     sodipodi:insensitive="true"
     style="display:inline">
    <rect
       style="opacity:0.15;fill:#ffffff;fill-opacity:1;fill-rule:nonzero;stroke:none;display:inline;filter:url(#filter3194)"
       id="rect2410"
       width="16"
       height="16"
       x="3"
       y="3"
       rx="2"
       ry="2"
       clip-path="url(#clipPath2849)"
       transform="translate(1,-1)" />
  </g>
  <g
     inkscape:groupmode="layer"
     id="layer3"
     inkscape:label="Symbol"
     transform="translate(0,2)">
    <ellipse
       d="m 296,80 c 0,41.97364 -65.36643,76 -146,76 C 69.366427,156 4,121.97364 4,80 4,38.026359 69.366427,4 150,4 230.63357,4 296,38.026359 296,80 z"
       sodipodi:ry="76"
       sodipodi:rx="146"
       sodipodi:cy="80"
       sodipodi:cx="150"
       cx="150"
       cy="80"
       rx="146"
       ry="76"
       id="ellipse3830"
       style="fill:url(#linearGradient3832);fill-opacity:1;stroke:none;display:inline;opacity:0.3"
       transform="matrix(0.06164384,0,0,0.06578947,2.753425,5.7368427)" />
    <path
       sodipodi:type="inkscape:offset"
       inkscape:radius="0.35344362"
       inkscape:original="M 10.21875 5 C 9.9483485 5.1162394 9.7667055 5.3522737 9.6875 5.59375 C 9.5380463 6.1129277 9.4643223 6.6583255 9.34375 7.1875 C 8.3088064 6.5085912 7.0402917 6.7226767 5.875 6.6875 L 4.5625 6.6875 C 4.2377125 6.628948 3.9094677 6.9307217 3.75 7.21875 C 3.2826082 9.4281721 2.8347951 11.657793 2.375 13.875 C 2.355768 14.097272 2.359105 14.236987 2.46875 14.5 C 2.6547518 14.795928 2.9858369 14.960073 3.34375 14.90625 C 3.894348 14.89845 4.4825502 14.9271 5 14.90625 C 5.3422525 14.81712 5.6678133 14.495117 5.65625 14.125 L 5.84375 13.21875 C 6.7164624 13.23037 7.6334932 13.26328 8.40625 12.78125 C 8.5523575 13.102589 8.9219042 13.272469 9.28125 13.21875 C 9.8318959 13.21095 10.419989 13.23956 10.9375 13.21875 C 11.347138 13.12501 11.617501 12.719121 11.65625 12.3125 L 12.25 9.59375 C 12.455242 9.640652 12.19827 10.081803 12.21875 10.28125 C 12.105574 10.972225 11.907611 11.648069 11.84375 12.34375 C 11.77958 12.535857 11.946395 12.878821 12.15625 13.03125 C 12.461552 13.356032 12.969996 13.169241 13.375 13.21875 C 13.703384 13.17113 13.37922 13.642001 13.40625 13.84375 C 13.36672 14.06358 13.40049 14.273369 13.5 14.5 C 13.686613 14.793525 14.016244 14.963383 14.375 14.90625 C 14.925598 14.89845 15.5138 14.9271 16.03125 14.90625 C 16.373503 14.81712 16.699063 14.495117 16.6875 14.125 L 16.875 13.21875 C 17.799567 13.23083 18.772603 13.253692 19.59375 12.75 C 21.246813 11.883706 22.086011 9.6497411 21.1875 7.96875 C 20.548947 6.8772844 19.196231 6.6296232 18.03125 6.6875 L 15.59375 6.6875 C 15.308847 6.632187 15.002765 6.8738955 14.84375 7.125 C 14.2334 6.7627913 13.511971 6.6585024 12.8125 6.6875 C 12.848141 6.4173301 12.947098 6.0537943 12.9375 5.84375 C 12.978444 5.4439632 12.616801 5.0707982 12.25 5 C 11.572978 5.0001087 10.895485 4.9998534 10.21875 5 z M 6.625 9.59375 C 7.3276976 9.3667002 7.0720996 10.300593 6.5 10.28125 L 6.625 9.59375 z M 17.65625 9.59375 C 18.358947 9.3667004 18.103349 10.300592 17.53125 10.28125 L 17.65625 9.59375 z "
       style="opacity:0.05;fill:#000000;fill-opacity:1;fill-rule:evenodd;stroke:none;display:inline"
       id="path3762"
       d="M 10.125,4.65625 A 0.35347897,0.35347897 0 0 0 10.09375,4.6875 c -0.3771288,0.162119 -0.6421771,0.452527 -0.75,0.78125 a 0.35347897,0.35347897 0 0 0 0,0.03125 C 9.2223431,5.9217477 9.1723804,6.3169363 9.09375,6.71875 8.0258572,6.2387567 6.8558302,6.3733584 5.875,6.34375 l -1.25,0 -0.0625,0 C 4.3014838,6.317894 4.0536424,6.4007972 3.875,6.53125 3.6815655,6.6725046 3.5416736,6.8743431 3.4375,7.0625 A 0.35347897,0.35347897 0 0 0 3.40625,7.15625 c -0.4678957,2.2118041 -0.9155061,4.440495 -1.375,6.65625 a 0.35347897,0.35347897 0 0 0 0,0.03125 c -0.020631,0.238443 -7.704e-4,0.479556 0.125,0.78125 a 0.35347897,0.35347897 0 0 0 0,0.0625 c 0.2443145,0.388703 0.7162367,0.608482 1.1875,0.5625 0.021047,-0.0021 0.041376,0.0032 0.0625,0 0.5184266,-0.0047 1.0729431,0.02098 1.59375,0 a 0.35347897,0.35347897 0 0 0 0.09375,0 c 0.4679388,-0.121861 0.8526806,-0.519794 0.875,-1.0625 L 6,14.1875 6,14.125 6.125,13.5625 c 0.7183564,0.0102 1.4901138,0.01578 2.21875,-0.34375 0.2496986,0.24554 0.5843544,0.378741 0.9375,0.34375 0.020663,-0.002 0.041899,0.0031 0.0625,0 0.5184787,-0.0047 1.072927,0.02094 1.59375,0 a 0.35347897,0.35347897 0 0 0 0.09375,0 c 0.307299,-0.07032 0.519119,-0.268247 0.6875,-0.5 0.05651,0.07675 0.109213,0.156544 0.1875,0.21875 0.01094,0.01164 0.01995,0.02044 0.03125,0.03125 0.239361,0.229091 0.539214,0.281151 0.78125,0.28125 0.152328,6.3e-5 0.259073,-0.0266 0.375,-0.03125 -0.01643,0.05496 -0.02371,0.142774 -0.03125,0.21875 -0.0076,0.04247 0.03464,0.08252 0.03125,0.125 -0.02001,0.250475 -0.0088,0.516417 0.09375,0.75 a 0.35347897,0.35347897 0 0 0 0,0.03125 c 0.24371,0.383333 0.711792,0.612386 1.1875,0.5625 0.02125,-0.0022 0.04115,0.0034 0.0625,0 0.518427,-0.0047 1.072943,0.02098 1.59375,0 a 0.35347897,0.35347897 0 0 0 0.09375,0 C 16.592939,15.128139 16.97768,14.730206 17,14.1875 l 0.03125,0 0,-0.0625 0.125,-0.5625 c 0.844426,0.0099 1.760036,2.68e-4 2.59375,-0.5 0.01313,-0.0069 0.01821,-0.02422 0.03125,-0.03125 C 21.585785,12.057934 22.495815,9.675533 21.5,7.8125 a 0.35347897,0.35347897 0 0 0 0,-0.03125 C 21.131676,7.1516812 20.528809,6.773599 19.90625,6.5625 19.293732,6.3548058 18.637296,6.31622 18.03125,6.34375 l -0.03125,0 -2.34375,0 -0.0625,0 C 15.359863,6.3184532 15.136328,6.3922242 14.96875,6.5 14.877033,6.558987 14.822508,6.6441444 14.75,6.71875 14.256176,6.4864886 13.742636,6.3920972 13.21875,6.375 c 0.0345,-0.1633606 0.06198,-0.31337 0.0625,-0.5 3.2e-5,-0.011467 2.38e-4,-0.019772 0,-0.03125 7.49e-4,-0.010981 -3.75e-4,-0.020348 0,-0.03125 C 13.291212,5.5228311 13.168596,5.2580565 13,5.0625 12.818714,4.8522242 12.588137,4.7094521 12.3125,4.65625 a 0.35347897,0.35347897 0 0 0 -0.0625,0 c -0.676895,1.087e-4 -1.354375,-1.466e-4 -2.03125,0 a 0.35347897,0.35347897 0 0 0 -0.09375,0 z"
       transform="translate(30,0)" />
    <path
       style="opacity:0.1;fill:#000000;fill-opacity:1;fill-rule:evenodd;stroke:none;display:inline"
       d="m 40.21875,5 c -0.270401,0.1162394 -0.452045,0.3522737 -0.53125,0.59375 -0.149454,0.5191777 -0.223178,1.0645755 -0.34375,1.59375 -1.034944,-0.6789088 -2.296478,-0.4648233 -3.461769,-0.5 -0.439827,0 -0.879654,0 -1.319481,0 -0.324787,-0.058552 -0.653032,0.2432217 -0.8125,0.53125 -0.467392,2.2094221 -0.915205,4.439043 -1.375,6.65625 -0.01923,0.222272 -0.0159,0.361987 0.09375,0.625 0.186002,0.295928 0.509887,0.460073 0.8678,0.40625 0.550598,-0.0078 1.143851,0.01385 1.661301,-0.007 0.342253,-0.08913 0.678449,-0.415288 0.666886,-0.785405 0.05967,-0.298356 0.119342,-0.596711 0.179013,-0.895066 0.872712,0.01162 1.789743,0.04453 2.5625,-0.4375 0.146107,0.321339 0.508454,0.491219 0.8678,0.4375 0.550646,-0.0078 1.14379,0.01381 1.661301,-0.007 0.409638,-0.09374 0.675693,-0.496129 0.714442,-0.90275 0.200069,-0.905074 0.400138,-1.810147 0.600207,-2.715221 0.205242,0.046902 -0.05779,0.480434 -0.03731,0.679881 -0.113176,0.690975 -0.305078,1.374438 -0.368939,2.070119 -0.06417,0.192107 0.102645,0.535071 0.3125,0.6875 0.305302,0.324782 0.806619,0.137991 1.211623,0.1875 0.328384,-0.04762 0.01489,0.435909 0.04192,0.637658 -0.03953,0.21983 -0.0093,0.416961 0.09021,0.643592 0.186613,0.293525 0.509044,0.463383 0.8678,0.40625 0.550598,-0.0078 1.143851,0.01385 1.661301,-0.007 0.342253,-0.08913 0.678449,-0.415288 0.666886,-0.785405 0.05967,-0.298356 0.119342,-0.596711 0.179013,-0.895066 0.924567,0.01208 1.899594,0.04939 2.720741,-0.454302 1.653063,-0.866294 2.503611,-3.1290075 1.6051,-4.8099986 C 50.562292,6.8630708 49.203358,6.6296232 48.038377,6.6875 c -0.814876,0 -1.629751,0 -2.444627,0 -0.284903,-0.055313 -0.590985,0.1863955 -0.75,0.4375 C 44.2334,6.7627913 43.511971,6.6585024 42.8125,6.6875 42.848141,6.4173301 42.947098,6.0537943 42.9375,5.84375 42.978444,5.4439632 42.616801,5.0707982 42.25,5 41.572978,5.0001087 40.895485,4.9998534 40.21875,5 z M 36.625,9.59375 c 0.702698,-0.2270498 0.4471,0.706843 -0.125,0.6875 0.04167,-0.229167 0.08333,-0.4583333 0.125,-0.6875 z m 11.03125,0 c 0.702697,-0.2270496 0.447099,0.706842 -0.125,0.6875 0.04167,-0.229167 0.08333,-0.4583333 0.125,-0.6875 z"
       id="path3752" />
    <path
       style="opacity:0.3;fill:#000000;fill-opacity:1;fill-rule:evenodd;stroke:none;display:inline"
       d="m 40.40625,5.5932894 a 0.250025,0.250025 0 0 0 -0.09375,0.09375 0.250025,0.250025 0 0 0 -0.03125,0.03125 0.250025,0.250025 0 0 0 -0.03125,0.0625 l -0.59375,2.90625 c -0.09446,-0.2800735 -0.101453,-0.6153968 -0.3125,-0.8125 -0.388398,-0.3627362 -0.978841,-0.5513232 -1.6875,-0.59375 l -3.09375,0 a 0.250025,0.250025 0 0 0 -0.0625,0 0.250025,0.250025 0 0 0 -0.125,0.09375 0.250025,0.250025 0 0 0 -0.03125,0.03125 0.250025,0.250025 0 0 0 -0.03125,0.0625 l -1.34375,6.5312496 a 0.250025,0.250025 0 0 0 0,0.0625 0.250025,0.250025 0 0 0 0,0.0625 0.250025,0.250025 0 0 0 0.03125,0.0625 0.250025,0.250025 0 0 0 0.09375,0.09375 0.250025,0.250025 0 0 0 0.09375,0.03125 0.250025,0.250025 0 0 0 0.03125,0 l 1.59375,0 a 0.250025,0.250025 0 0 0 0.0625,0 0.250025,0.250025 0 0 0 0.125,-0.09375 0.250025,0.250025 0 0 0 0.03125,-0.03125 0.250025,0.250025 0 0 0 0.03125,-0.09375 l 0.28125,-1.46875 1.3125,0 c 0.881985,0.0497 1.768602,-0.355167 2.40625,-1.0625 l -0.15625,0.75 a 0.250025,0.250025 0 0 0 0,0.0625 0.250025,0.250025 0 0 0 0,0.0625 0.250025,0.250025 0 0 0 0.03125,0.0625 0.250025,0.250025 0 0 0 0.09375,0.09375 0.250025,0.250025 0 0 0 0.09375,0.03125 0.250025,0.250025 0 0 0 0.03125,0 l 1.59375,0 a 0.250025,0.250025 0 0 0 0.0625,0 0.250025,0.250025 0 0 0 0.125,-0.09375 0.250025,0.250025 0 0 0 0.03125,-0.03125 A 0.250025,0.250025 0 0 0 41,12.437039 l 0.75,-3.4374996 1.03125,0 c 0.131155,0 0.209296,0.017593 0.25,0.03125 0.0407,0.013657 0.03379,0.00433 0.03125,0 -0.0051,-0.00867 0.009,0.088454 -0.03125,0.28125 L 42.4375,12.312039 a 0.250025,0.250025 0 0 0 0,0.0625 0.250025,0.250025 0 0 0 0,0.0625 0.250025,0.250025 0 0 0 0.09375,0.125 0.250025,0.250025 0 0 0 0.03125,0.03125 0.250025,0.250025 0 0 0 0.09375,0.03125 0.250025,0.250025 0 0 0 0.03125,0 l 1.59375,0 -0.28125,1.375 a 0.250025,0.250025 0 0 0 0,0.0625 0.250025,0.250025 0 0 0 0,0.0625 0.250025,0.250025 0 0 0 0.03125,0.0625 0.250025,0.250025 0 0 0 0.09375,0.09375 0.250025,0.250025 0 0 0 0.09375,0.03125 0.250025,0.250025 0 0 0 0.03125,0 l 1.59375,0 a 0.250025,0.250025 0 0 0 0.0625,0 0.250025,0.250025 0 0 0 0.125,-0.09375 0.250025,0.250025 0 0 0 0.03125,-0.03125 0.250025,0.250025 0 0 0 0.03125,-0.09375 l 0.28125,-1.46875 1.3125,0 c 1.571641,0.08856 3.28125,-1.181045 3.28125,-3.2499996 0,-0.613951 -0.197752,-1.138667 -0.59375,-1.5 -0.395998,-0.361333 -0.978956,-0.5513301 -1.6875,-0.59375 l -3.09375,0 a 0.250025,0.250025 0 0 0 -0.0625,0 0.250025,0.250025 0 0 0 -0.125,0.09375 0.250025,0.250025 0 0 0 -0.03125,0.03125 0.250025,0.250025 0 0 0 -0.03125,0.0625 l -0.25,1.1875 C 45.05843,8.3709929 45.08765,8.0538715 44.875,7.8432894 44.539697,7.5112956 43.991014,7.3232823 43.28125,7.2807894 l -1.1875,0 0.25,-1.40625 a 0.250025,0.250025 0 0 0 0,-0.0625 0.250025,0.250025 0 0 0 0,-0.03125 0.250025,0.250025 0 0 0 -0.0625,-0.09375 0.250025,0.250025 0 0 0 -0.03125,-0.03125 0.250025,0.250025 0 0 0 -0.03125,-0.03125 0.250025,0.250025 0 0 0 -0.125,-0.03125 l -1.59375,0 a 0.250025,0.250025 0 0 0 -0.0625,0 0.250025,0.250025 0 0 0 -0.03125,0 z m -4.28125,3.40625 0.875,0 c 0.260425,0 0.476272,0.045566 0.59375,0.125 0.117478,0.079434 0.15625,0.173611 0.15625,0.34375 -0.03947,0.6427036 -0.220114,0.9365286 -0.4375,1.1249996 -0.210501,0.182502 -0.498795,0.273107 -0.84375,0.3125 l -0.03125,0 -0.65625,0 0.34375,-1.9062496 z m 11.03125,0 0.875,0 c 0.260425,0 0.476272,0.045566 0.59375,0.125 0.117478,0.079434 0.15625,0.173611 0.15625,0.34375 -0.03947,0.6427036 -0.220114,0.9365286 -0.4375,1.1249996 -0.210501,0.182502 -0.498795,0.273107 -0.84375,0.3125 l -0.03125,0 -0.65625,0 0.34375,-1.9062496 z"
       id="path3736" />
    <ellipse
       transform="matrix(0.06164384,0,0,0.06578947,2.753425,4.7368427)"
       style="fill:url(#linearGradient2911);fill-opacity:1;stroke:none;display:inline"
       id="ellipse2909"
       ry="76"
       rx="146"
       cy="80"
       cx="150"
       sodipodi:cx="150"
       sodipodi:cy="80"
       sodipodi:rx="146"
       sodipodi:ry="76"
       d="m 296,80 c 0,41.97364 -65.36643,76 -146,76 C 69.366427,156 4,121.97364 4,80 4,38.026359 69.366427,4 150,4 230.63357,4 296,38.026359 296,80 z" />
    <path
       style="fill:url(#linearGradient3704);fill-opacity:1;stroke:none;display:inline"
       d="m 12,5 c -4.970563,0 -9,2.2385764 -9,5 0,2.761424 4.029437,5 9,5 4.970563,0 9,-2.238576 9,-5 0,-2.7614236 -4.029437,-5 -9,-5 z m -0.875,0.96875 c 0.286846,-0.01646 0.580067,0 0.875,0 2.359467,0 4.474104,0.530752 5.9375,1.34375 1.463396,0.812998 2.15625,1.802326 2.15625,2.6875 0,0.885174 -0.692854,1.874502 -2.15625,2.6875 -1.463396,0.812998 -3.578033,1.34375 -5.9375,1.34375 -2.359467,0 -4.474104,-0.530752 -5.9375,-1.34375 C 4.599104,11.874502 3.90625,10.885174 3.90625,10 3.90625,9.114826 4.599104,8.125498 6.0625,7.3125 7.342972,6.6011268 9.11708,6.0839729 11.125,5.96875 z"
       id="ellipse3685" />
    <path
       style="fill:#596dad;fill-opacity:1;fill-rule:evenodd;stroke:#ffffff;stroke-width:0.5;stroke-linejoin:round;stroke-miterlimit:4;stroke-dasharray:none;display:inline"
       id="path3706"
       d="m 33.205725,13.549083 1.343547,-6.5154263 3.10695,0 c 1.343547,0.080437 2.01532,0.7239362 2.01532,1.8500588 0,1.9304985 -1.595462,3.0566215 -3.022979,2.9761835 l -1.51149,0 -0.335887,1.689184 -1.595461,0 z m 2.267234,-2.895745 0.419858,-2.413121 1.091632,0 c 0.587802,0 1.00766,0.2413121 1.00766,0.7239362 -0.08397,1.3674358 -0.755745,1.6087498 -1.51149,1.6891848 l -1.00766,0 z" />
    <path
       style="fill:#596dad;fill-opacity:1;stroke:#ffffff;stroke-width:0.5;stroke-linejoin:round;stroke-miterlimit:4;stroke-dasharray:none;display:inline"
       d="m 39.167712,11.859899 1.343547,-6.5154278 1.595461,0 -0.335888,1.6891855 1.511489,0 c 1.343548,0.080437 1.847378,0.7239362 1.679434,1.5283094 l -0.587802,3.2979329 -1.679432,0 0.5878,-2.9761835 C 43.366288,8.4815291 43.366288,8.240217 42.778492,8.240217 l -1.259574,0 -0.755745,3.619682 -1.595461,0 z"
       id="path3708" />
    <path
       d="m 44.239907,13.549083 1.343546,-6.5154263 3.106951,0 c 1.343547,0.080437 2.01532,0.7239362 2.01532,1.8500588 0,1.9304985 -1.595461,3.0566215 -3.02298,2.9761835 l -1.511489,0 -0.335887,1.689184 -1.595461,0 z m 2.267233,-2.895745 0.419859,-2.413121 1.091632,0 c 0.587802,0 1.00766,0.2413121 1.00766,0.7239362 -0.08397,1.3674358 -0.755745,1.6087498 -1.51149,1.6891848 l -1.007661,0 z"
       id="path3712"
       style="fill:#596dad;fill-opacity:1;fill-rule:evenodd;stroke:#ffffff;stroke-width:0.5;stroke-linejoin:round;stroke-miterlimit:4;stroke-dasharray:none;display:inline" />
    <path
       style="color:#000000;fill:#ffffff;fill-opacity:1;fill-rule:nonzero;stroke:none;stroke-width:0.5;marker:none;visibility:visible;display:inline;overflow:visible;enable-background:accumulate"
       d="m 10.78125,6.4375 c -0.166365,0.1110202 -0.269002,0.1664612 -0.3125,0.34375 -0.07525,0.3177682 -0.0088,0.6942192 -0.03125,1.0338716 -0.01464,0.2675899 0.07112,0.8322699 -0.166278,0.2638703 C 9.8779273,7.4734884 9.1260995,7.3998276 8.470171,7.4375 c -0.5421403,0 -1.0842807,0 -1.626421,0 -0.1644647,0.076375 -0.3359685,0.1930641 -0.375,0.375 -0.075208,0.3209552 -0.00886,0.7005466 -0.03125,1.0433776 0,1.1001242 0,2.2002484 0,3.3003724 0.076375,0.164465 0.1930641,0.335969 0.375,0.375 0.3209552,0.07521 0.7005466,0.0089 1.0433776,0.03125 0.2345116,0.02349 0.4211074,-0.02324 0.5503724,-0.15625 0.1383499,-0.131878 0.1796652,-0.328773 0.15625,-0.569274 -0.1272595,-0.406789 0.3091948,-0.241088 0.557811,-0.278807 0.5754934,0.07686 1.191232,-0.659543 1.317189,-0.851657 0.0072,0.228152 -0.04533,0.530211 0.125,0.637238 0.101586,0.17578 0.281309,0.238684 0.519012,0.21875 0.396655,-0.01828 0.824338,0.03834 1.199738,-0.03125 0.09695,-0.05711 0.226301,-0.298886 0.3125,-0.09375 0.09803,0.101869 0.307713,0.148119 0.528518,0.125 0.355077,0 0.710155,0 1.065232,0 0.201604,-0.16789 0.302544,-0.181948 0.25,0.169799 0.0041,0.221731 -0.03948,0.509353 0.125,0.611451 0.101586,0.17578 0.281309,0.238684 0.519012,0.21875 0.358246,0 0.716492,0 1.074738,0 0.164465,-0.07638 0.335969,-0.193064 0.375,-0.375 0.118514,-0.164578 -0.08833,-0.573855 0.112762,-0.625 0.722719,0.07319 1.519776,-0.231766 1.795868,-0.953799 0.19829,-0.566109 0.104971,-1.1789814 0.114566,-1.7686552 C 18.490762,7.9350957 17.578775,7.323353 16.714707,7.4375 c -0.623652,0 -1.247305,0 -1.870957,0 -0.164465,0.076375 -0.335969,0.1930641 -0.375,0.375 -0.09713,0.2263828 0.0768,0.871756 -0.197528,0.2664919 C 13.898127,7.5101659 13.1911,7.3943972 12.5625,7.4375 12.540819,7.1705677 12.6349,6.7947605 12.4375,6.65625 12.335914,6.4804696 12.156191,6.4175661 11.918488,6.4375 c -0.379021,3.084e-4 -0.75859,-4.17e-4 -1.137238,0 z"
       id="path3826" />
    <path
       style="color:#000000;fill:#000000;fill-opacity:1;fill-rule:nonzero;stroke:none;stroke-width:0.50000000000000000;marker:none;visibility:visible;display:inline;overflow:visible;enable-background:accumulate"
       d="M 7 10 L 7 11 L 7 11.25 L 7 11.75 L 7 12 L 7 14 L 8 14 L 8 13 L 9 13 C 9.554 13 10 12.554 10 12 L 10 11 C 10 10.446 9.554 10 9 10 L 8 10 L 7 10 z M 8 11 L 8.75 11 C 8.8885 11 9 11.1115 9 11.25 L 9 11.75 C 9 11.8885 8.8885 12 8.75 12 L 8 12 L 8 11 z "
       transform="translate(0,-2)"
       id="rect3793" />
    <path
       style="color:#000000;fill:#000000;fill-opacity:1;fill-rule:nonzero;stroke:none;stroke-width:0.50000000000000000;marker:none;visibility:visible;display:inline;overflow:visible;enable-background:accumulate"
       d="M 11 9 L 11 11 L 11 11.25 L 11 13 L 12 13 L 12 11 L 12.75 11 C 12.8885 11 13 11.1115 13 11.25 L 13 13 L 14 13 L 14 11 C 14 10.446 13.554 10 13 10 L 12 10 L 12 9 L 11 9 z "
       transform="translate(0,-2)"
       id="rect3800" />
    <path
       id="path3813"
       d="m 15,8 0,1 0,0.25 0,0.5 0,0.25 0,2 1,0 0,-1 1,0 c 0.554,0 1,-0.446 1,-1 L 18,9 C 18,8.446 17.554,8 17,8 l -1,0 -1,0 z m 1,1 0.75,0 C 16.8885,9 17,9.1115 17,9.25 l 0,0.5 C 17,9.8885 16.8885,10 16.75,10 L 16,10 16,9 z"
       style="color:#000000;fill:#000000;fill-opacity:1;fill-rule:nonzero;stroke:none;stroke-width:0.50000000000000000;marker:none;visibility:visible;display:inline;overflow:visible;enable-background:accumulate" />
  </g>
</svg>
