<?xml version="1.0" encoding="UTF-8" standalone="no"?>
<!-- Created with Inkscape (http://www.inkscape.org/) -->

<svg
   xmlns:i="http://ns.adobe.com/AdobeIllustrator/10.0/"
   xmlns:dc="http://purl.org/dc/elements/1.1/"
   xmlns:cc="http://creativecommons.org/ns#"
   xmlns:rdf="http://www.w3.org/1999/02/22-rdf-syntax-ns#"
   xmlns:svg="http://www.w3.org/2000/svg"
   xmlns="http://www.w3.org/2000/svg"
   xmlns:xlink="http://www.w3.org/1999/xlink"
   xmlns:sodipodi="http://sodipodi.sourceforge.net/DTD/sodipodi-0.dtd"
   xmlns:inkscape="http://www.inkscape.org/namespaces/inkscape"
   width="24"
   height="24"
   id="svg2"
   sodipodi:version="0.32"
   inkscape:version="0.48.0 r9654"
   version="1.0"
   sodipodi:docname="deb.svg"
   inkscape:output_extension="org.inkscape.output.svg.inkscape"
   style="display:inline">
  <defs
     id="defs4">
    <linearGradient
       inkscape:collect="always"
       id="linearGradient3327">
      <stop
         style="stop-color:#000000;stop-opacity:1;"
         offset="0"
         id="stop3330" />
      <stop
         style="stop-color:#000000;stop-opacity:0;"
         offset="1"
         id="stop3333" />
    </linearGradient>
    <linearGradient
       inkscape:collect="always"
       xlink:href="#linearGradient3327"
       id="linearGradient3335"
       x1="11.375"
       y1="22"
       x2="11.375"
       y2="-9.817296"
       gradientUnits="userSpaceOnUse" />
    <linearGradient
       inkscape:collect="always"
       xlink:href="#ButtonColor"
       id="linearGradient3181"
       x1="-3.0607977"
       y1="27.258198"
       x2="-3.0607977"
       y2="7.2536583"
       gradientUnits="userSpaceOnUse"
       gradientTransform="translate(12.119372,-7.2581977)" />
    <inkscape:perspective
       sodipodi:type="inkscape:persp3d"
       inkscape:vp_x="0 : 11 : 1"
       inkscape:vp_y="0 : 1000 : 0"
       inkscape:vp_z="22 : 11 : 1"
       inkscape:persp3d-origin="11 : 7.3333333 : 1"
       id="perspective2531" />
    <linearGradient
       id="ButtonShadow"
       gradientTransform="scale(0.9883037,1.0118347)"
       x1="9.3550024"
       y1="21.742682"
       x2="9.3550024"
       y2="0.49362123"
       gradientUnits="userSpaceOnUse">
      <stop
         id="stop3277"
         offset="0"
         style="stop-color:#000000;stop-opacity:0.70588237;" />
      <stop
         id="stop3279"
         offset="1"
         style="stop-color:#000000;stop-opacity:0.15686275;" />
    </linearGradient>
    <linearGradient
       inkscape:collect="always"
       id="linearGradient3232">
      <stop
         style="stop-color:#000000;stop-opacity:1;"
         offset="0"
         id="stop3234" />
      <stop
         style="stop-color:#000000;stop-opacity:0;"
         offset="1"
         id="stop3236" />
    </linearGradient>
    <linearGradient
       gradientUnits="userSpaceOnUse"
       y2="-6.0004225"
       x2="11"
       y1="14.805666"
       x1="11"
       id="linearGradient3221"
       xlink:href="#linearGradient3232"
       inkscape:collect="always" />
    <linearGradient
       id="ButtonColor"
       x1="10.31979"
       y1="21"
       x2="10.31979"
       y2="0.99929649"
       gradientUnits="userSpaceOnUse">
      <stop
         style="stop-color:#e6e6e6;stop-opacity:1;"
         offset="0"
         id="stop3189" />
      <stop
         style="stop-color:#f5f5f5;stop-opacity:1;"
         offset="1"
         id="stop3191" />
    </linearGradient>
    <linearGradient
       inkscape:collect="always"
       xlink:href="#ButtonShadow"
       id="linearGradient38042"
       gradientUnits="userSpaceOnUse"
       gradientTransform="scale(0.9883037,1.0118347)"
       x1="9.3550024"
       y1="21.742682"
       x2="9.3550024"
       y2="0.49362123" />
    <filter
       inkscape:collect="always"
       id="filter3194"
       x="-0.18000001"
       width="1.36"
       y="-0.18000001"
       height="1.36"
       color-interpolation-filters="sRGB">
      <feGaussianBlur
         inkscape:collect="always"
         stdDeviation="1.2"
         id="feGaussianBlur3196" />
    </filter>
    <clipPath
       clipPathUnits="userSpaceOnUse"
       id="clipPath2849">
      <rect
         ry="2"
         rx="2"
         y="1"
         x="1"
         height="20"
         width="20"
         id="rect2851"
         style="fill:#ffffff;fill-opacity:1;fill-rule:evenodd;stroke:none;display:inline" />
    </clipPath>
    <inkscape:perspective
       id="perspective3726"
       inkscape:persp3d-origin="0.5 : 0.33333333 : 1"
       inkscape:vp_z="1 : 0.5 : 1"
       inkscape:vp_y="0 : 1000 : 0"
       inkscape:vp_x="0 : 0.5 : 1"
       sodipodi:type="inkscape:persp3d" />
    <linearGradient
       y2="16"
       x2="10"
       y1="1"
       x1="10"
       gradientUnits="userSpaceOnUse"
       id="linearGradient3078"
       xlink:href="#linearGradient3823"
       inkscape:collect="always"
       gradientTransform="translate(1,-1)" />
    <linearGradient
       id="linearGradient3823">
      <stop
         id="stop3825"
         offset="0"
         style="stop-color:#ffffff;stop-opacity:1;" />
      <stop
         id="stop3829"
         offset="1"
         style="stop-color:#ffffff;stop-opacity:0;" />
    </linearGradient>
    <linearGradient
       inkscape:collect="always"
       xlink:href="#linearGradient3831"
       id="linearGradient3845"
       x1="11"
       y1="19.5"
       x2="21"
       y2="19.5"
       gradientUnits="userSpaceOnUse"
       spreadMethod="reflect"
       gradientTransform="translate(1,-1)" />
    <linearGradient
       id="linearGradient3831">
      <stop
         style="stop-color:#ffffff;stop-opacity:1;"
         offset="0"
         id="stop3833" />
      <stop
         id="stop3821"
         offset="0.75"
         style="stop-color:#ffffff;stop-opacity:0.49803922;" />
      <stop
         style="stop-color:#ffffff;stop-opacity:0;"
         offset="1"
         id="stop3835" />
    </linearGradient>
    <linearGradient
       y2="16"
       x2="10"
       y1="1"
       x1="10"
       gradientTransform="translate(1,-1)"
       gradientUnits="userSpaceOnUse"
       id="linearGradient3859"
       xlink:href="#linearGradient3823"
       inkscape:collect="always" />
  </defs>
  <sodipodi:namedview
     id="base"
     pagecolor="#ffffff"
     bordercolor="#e7e7e7"
     borderopacity="1"
     inkscape:pageopacity="0.0"
     inkscape:pageshadow="2"
     inkscape:zoom="15.190703"
     inkscape:cx="-1.1664105"
     inkscape:cy="9.028432"
     inkscape:document-units="px"
     inkscape:current-layer="layer1"
     showgrid="true"
     inkscape:showpageshadow="false"
     showguides="false"
     inkscape:guide-bbox="true"
     inkscape:window-width="1920"
     inkscape:window-height="1026"
     inkscape:window-x="0"
     inkscape:window-y="25"
     inkscape:window-maximized="1">
    <sodipodi:guide
       orientation="1,0"
       position="0,112"
       id="guide2383" />
    <sodipodi:guide
       orientation="0,1"
       position="26.278146,128"
       id="guide2385" />
    <sodipodi:guide
       orientation="1,0"
       position="128,54.082119"
       id="guide2387" />
    <sodipodi:guide
       orientation="0,1"
       position="78.156291,0"
       id="guide2389" />
    <sodipodi:guide
       orientation="0,1"
       position="60.863576,64.084768"
       id="guide2391" />
    <inkscape:grid
       type="xygrid"
       id="grid3672"
       visible="true"
       enabled="true"
       empspacing="8"
       snapvisiblegridlinesonly="true" />
  </sodipodi:namedview>
  <metadata
     id="metadata7">
    <rdf:RDF>
      <cc:Work
         rdf:about="">
        <dc:format>image/svg+xml</dc:format>
        <dc:type
           rdf:resource="http://purl.org/dc/dcmitype/StillImage" />
        <dc:title />
      </cc:Work>
    </rdf:RDF>
  </metadata>
  <g
     inkscape:label="Button"
     inkscape:groupmode="layer"
     id="layer1"
     transform="translate(0,2)">
    <g
       style="display:inline"
       id="g3337"
       transform="translate(1,-1)">
      <rect
         ry="2.5"
         rx="2.5"
         y="0.5"
         x="0.5"
         height="21.5"
         width="21"
         id="rect3371"
         style="opacity:0.3;fill:url(#linearGradient3335);fill-opacity:1;stroke:none;display:inline" />
      <rect
         style="opacity:0.5;fill:#000000;fill-opacity:1;stroke:none;display:inline"
         id="rect2553"
         width="20"
         height="20"
         x="1"
         y="2"
         rx="2.3809524"
         ry="2.3255813" />
    </g>
    <rect
       style="fill:url(#linearGradient3181);fill-opacity:1;fill-rule:evenodd;stroke:none;display:inline"
       id="rect3173"
       width="20"
       height="20"
       x="2"
       y="0"
       rx="2"
       ry="2" />
    <path
       style="opacity:0.6;fill:url(#linearGradient3859);fill-opacity:1;fill-rule:evenodd;stroke:none;display:inline"
       d="M 4,0 C 2.892,0 2,0.892 2,2 l 0,16 c 0,1.108 0.892,2 2,2 l 16,0 c 1.108,0 2,-0.892 2,-2 L 22,2 C 22,0.892 21.108,0 20,0 L 4,0 z m 0,1.03125 16,0 c 0.5497,0 0.96875,0.4190495 0.96875,0.96875 l 0,16 c 0,0.5497 -0.41905,0.96875 -0.96875,0.96875 l -16,0 C 3.4502995,18.96875 3.03125,18.5497 3.03125,18 l 0,-16 C 3.03125,1.4502995 3.4502995,1.03125 4,1.03125 z"
       id="rect3050"
       inkscape:connector-curvature="0" />
    <path
       id="path3235"
       d="M 4,20 C 2.892,20 2,19.108 2,18 l 0,-1 c 0,1.108 0.892,2 2,2 l 16,0 c 1.108,0 2,-0.892 2,-2 l 0,1 c 0,1.108 -0.892,2 -2,2 L 4,20 z"
       style="opacity:0.35;fill:url(#linearGradient3845);fill-opacity:1;fill-rule:evenodd;stroke:none;display:inline"
       inkscape:connector-curvature="0" />
  </g>
  <g
     inkscape:groupmode="layer"
     id="layer2"
     inkscape:label="Highlight"
     transform="translate(0,2)"
     sodipodi:insensitive="true"
     style="display:inline">
    <rect
       style="opacity:0.15;fill:#ffffff;fill-opacity:1;fill-rule:nonzero;stroke:none;display:inline;filter:url(#filter3194)"
       id="rect2410"
       width="16"
       height="16"
       x="3"
       y="3"
       rx="2"
       ry="2"
       clip-path="url(#clipPath2849)"
       transform="translate(1,-1)" />
  </g>
  <g
     inkscape:groupmode="layer"
     id="layer3"
     inkscape:label="Symbol"
     transform="translate(0,2)">
    <path
       i:knockout="Off"
       d="m 17.263804,9.2761123 c 0.01709,0.4587203 -0.133856,0.6816252 -0.270371,1.0757907 l -0.245499,0.122085 c -0.20069,0.389988 0.01993,0.247587 -0.123794,0.557642 -0.313662,0.278536 -0.950478,0.871303 -1.154396,0.925605 -0.149046,-0.0032 0.100821,-0.175818 0.133478,-0.243221 -0.419419,0.28784 -0.336636,0.43214 -0.9782,0.607387 l -0.0186,-0.04196 c -1.581604,0.744282 -3.778753,-0.730421 -3.749893,-2.7422602 -0.01671,0.127591 -0.04804,0.095693 -0.08297,0.1469578 C 10.691913,8.6491692 11.251641,7.609643 12.195664,7.1845293 13.11899,6.7277072 14.201427,6.9149169 14.862356,7.5317971 14.499329,7.0559887 13.776123,6.55151 12.919629,6.5982173 c -0.839405,0.013672 -1.624889,0.5470093 -1.886906,1.1262956 -0.429861,0.2705616 -0.479986,1.0435134 -0.667196,1.1851548 -0.252333,1.8531093 0.474101,2.6534023 1.703115,3.5953363 0.192905,0.130249 0.05429,0.150185 0.08012,0.249296 -0.408218,-0.191007 -0.781877,-0.479606 -1.089463,-0.83295 0.163286,0.238664 0.339294,0.470682 0.566945,0.652956 -0.385241,-0.13006 -0.899594,-0.932821 -1.049399,-0.965478 0.663589,1.188192 2.691945,2.083799 3.754635,1.639318 -0.491758,0.01823 -1.116232,0.01006 -1.668368,-0.194045 -0.232588,-0.119426 -0.547579,-0.366445 -0.491188,-0.412582 1.449831,0.541313 2.947128,0.409735 4.201394,-0.595615 0.319358,-0.248727 0.667955,-0.671563 0.768774,-0.677259 -0.151704,0.228221 0.02601,0.109744 -0.09057,0.311194 0.31746,-0.512833 -0.138414,-0.208855 0.328471,-0.885544 l 0.172402,0.237335 c -0.06455,-0.426063 0.52878,-0.942884 0.468403,-1.6161547 0.136135,-0.2058168 0.151704,0.2217657 0.0074,0.6952957 0.200311,-0.5253641 0.05298,-0.6098553 0.104242,-1.0435131 0.05525,0.1458183 0.12873,0.3005608 0.166135,0.4545435 -0.130629,-0.5078962 0.133477,-0.8549748 0.199171,-1.1502191 -0.06493,-0.028482 -0.20145,0.2244239 -0.232968,-0.3751788 0.0048,-0.2604985 0.07272,-0.136515 0.09873,-0.2006901 -0.05088,-0.029428 -0.185121,-0.2291703 -0.266574,-0.6121338 0.05867,-0.090187 0.15797,0.2333479 0.238473,0.2464486 -0.05183,-0.304358 -0.140881,-0.5365665 -0.144678,-0.7702936 -0.235437,-0.4917577 -0.08335,0.065694 -0.27398,-0.211133 -0.250626,-0.7811159 0.207715,-0.1813235 0.238853,-0.5359968 0.379357,0.5496672 0.595617,1.4021737 0.695297,1.7551376 C 18.774949,7.2373124 18.652487,6.820173 18.502681,6.4167039 18.61831,6.4654999 18.316801,5.5313504 18.652866,6.1499398 18.294206,4.831308 17.119114,3.5990663 16.037817,3.0211085 16.169775,3.1420546 16.336669,3.2939487 16.277051,3.3178718 15.738965,2.9979446 15.83352,2.9726923 15.756434,2.8375067 15.318788,2.6592208 15.289548,2.8521247 15,2.8378862 14.174076,2.3996712 14.014966,2.446189 13.254926,2.1720198 l 0.03455,0.1617673 C 12.742467,2.1515142 12.65209,2.4025201 12.061031,2.3341672 12.025141,2.3062552 12.25052,2.2323978 12.43621,2.2056265 11.907239,2.2754975 11.931921,2.1011997 11.414342,2.2248035 11.541743,2.1353765 11.676928,2.0759473 11.812875,2 11.381685,2.026202 10.783032,2.2510053 10.967772,2.046328 10.264313,2.3603695 9.0147928,2.8010523 8.3136115,3.4585645 L 8.2915805,3.3112271 C 7.9703049,3.6968481 6.8905274,4.4629645 6.8045174,4.9628861 l -0.08601,0.019936 C 6.5516552,5.2659145 6.4432405,5.5866014 6.3107127,5.8776687 6.0921749,6.2503792 5.9902164,6.0212085 6.0213544,6.079688 5.591304,6.9515609 5.3773233,7.6840707 5.192961,8.2851919 5.3243499,8.4817048 5.196201,9.4684481 5.245745,10.258108 5.0300557,14.158751 7.9832586,17.945664 11.21139,18.819816 11.684541,18.989368 12.388002,18.983292 12.986464,19 12.280536,18.797981 12.189399,18.893104 11.501318,18.653302 11.005194,18.419384 10.896589,18.15262 10.544955,17.847503 l 0.139172,0.245879 C 9.994907,17.849402 10.283316,17.791491 9.722448,17.613965 L 9.871113,17.42011 C 9.6476387,17.40302 9.2792956,17.043792 9.1786656,16.844242 l -0.24455,0.0097 C 8.6405803,16.492038 8.48394,16.23059 8.4955218,16.028002 L 8.416537,16.168883 C 8.3271091,16.015279 7.3359991,14.809809 7.8501606,15.090434 7.7546574,15.003474 7.6276356,14.948603 7.4899818,14.698167 L 7.5945985,14.57874 C 7.3475808,14.260332 7.1392962,13.852306 7.155245,13.71636 c 0.1319578,0.178097 0.2234739,0.211513 0.3142312,0.242082 -0.6248547,-1.55008 -0.6599808,-0.08525 -1.1329414,-1.577801 l 0.099871,-0.008 C 6.3598887,12.256656 6.3129913,12.131533 6.251474,12.008309 l 0.04367,-0.433848 C 5.8455368,11.054983 6.1694515,9.3634505 6.2345758,8.4359463 6.279195,8.058869 6.6099443,7.6572989 6.8611395,7.0275073 L 6.7081061,7.0013045 C 7.0008823,6.49094 8.3793226,4.9509225 9.0180372,5.0299073 9.3273319,4.6414379 8.956521,5.0283793 8.8959527,4.9307965 9.575489,4.2277159 9.789091,4.4341024 10.247621,4.3074607 c 0.494226,-0.2933458 -0.424354,0.11468 -0.190057,-0.1118321 0.854974,-0.2181582 0.605678,-0.4963145 1.720772,-0.6070074 0.117717,0.066833 -0.272841,0.1032879 -0.370813,0.1900577 0.712005,-0.3485971 2.25354,-0.2690427 3.255284,0.1932854 1.16142,0.5432119 2.467141,2.1481638 2.518785,3.658182 l 0.05867,0.01576 c -0.02962,0.6003617 0.0919,1.2947083 -0.119048,1.9322841 L 17.263806,9.276111"
       id="path2536"
       style="fill:#d70751;display:inline" />
  </g>
</svg>
