<?xml version="1.0" encoding="UTF-8" standalone="no"?>
<!-- Created with Inkscape (http://www.inkscape.org/) -->

<svg
   xmlns:dc="http://purl.org/dc/elements/1.1/"
   xmlns:cc="http://creativecommons.org/ns#"
   xmlns:rdf="http://www.w3.org/1999/02/22-rdf-syntax-ns#"
   xmlns:svg="http://www.w3.org/2000/svg"
   xmlns="http://www.w3.org/2000/svg"
   xmlns:xlink="http://www.w3.org/1999/xlink"
   xmlns:sodipodi="http://sodipodi.sourceforge.net/DTD/sodipodi-0.dtd"
   xmlns:inkscape="http://www.inkscape.org/namespaces/inkscape"
   width="24"
   height="24"
   id="svg2"
   sodipodi:version="0.32"
   inkscape:version="0.48.0 r9654"
   version="1.0"
   sodipodi:docname="encrypted.svg"
   inkscape:output_extension="org.inkscape.output.svg.inkscape"
   style="display:inline">
  <defs
     id="defs4">
    <linearGradient
       inkscape:collect="always"
       id="linearGradient3327">
      <stop
         style="stop-color:#000000;stop-opacity:1;"
         offset="0"
         id="stop3330" />
      <stop
         style="stop-color:#000000;stop-opacity:0;"
         offset="1"
         id="stop3333" />
    </linearGradient>
    <linearGradient
       inkscape:collect="always"
       xlink:href="#linearGradient3327"
       id="linearGradient3335"
       x1="11.375"
       y1="22"
       x2="11.375"
       y2="-9.817296"
       gradientUnits="userSpaceOnUse" />
    <linearGradient
       inkscape:collect="always"
       xlink:href="#ButtonColor"
       id="linearGradient3181"
       x1="-3.0607977"
       y1="27.258198"
       x2="-3.0607977"
       y2="7.2536583"
       gradientUnits="userSpaceOnUse"
       gradientTransform="translate(12.119372,-7.2581977)" />
    <inkscape:perspective
       sodipodi:type="inkscape:persp3d"
       inkscape:vp_x="0 : 11 : 1"
       inkscape:vp_y="0 : 1000 : 0"
       inkscape:vp_z="22 : 11 : 1"
       inkscape:persp3d-origin="11 : 7.3333333 : 1"
       id="perspective2531" />
    <linearGradient
       id="ButtonShadow"
       gradientTransform="scale(0.9883037,1.0118347)"
       x1="9.3550024"
       y1="21.742682"
       x2="9.3550024"
       y2="0.49362123"
       gradientUnits="userSpaceOnUse">
      <stop
         id="stop3277"
         offset="0"
         style="stop-color:#000000;stop-opacity:0.70588237;" />
      <stop
         id="stop3279"
         offset="1"
         style="stop-color:#000000;stop-opacity:0.15686275;" />
    </linearGradient>
    <linearGradient
       inkscape:collect="always"
       id="linearGradient3232">
      <stop
         style="stop-color:#000000;stop-opacity:1;"
         offset="0"
         id="stop3234" />
      <stop
         style="stop-color:#000000;stop-opacity:0;"
         offset="1"
         id="stop3236" />
    </linearGradient>
    <linearGradient
       gradientUnits="userSpaceOnUse"
       y2="-6.0004225"
       x2="11"
       y1="14.805666"
       x1="11"
       id="linearGradient3221"
       xlink:href="#linearGradient3232"
       inkscape:collect="always" />
    <linearGradient
       id="ButtonColor"
       x1="10.31979"
       y1="21"
       x2="10.31979"
       y2="0.99929649"
       gradientUnits="userSpaceOnUse">
      <stop
         style="stop-color:#e6e6e6;stop-opacity:1;"
         offset="0"
         id="stop3189" />
      <stop
         style="stop-color:#f5f5f5;stop-opacity:1;"
         offset="1"
         id="stop3191" />
    </linearGradient>
    <linearGradient
       inkscape:collect="always"
       xlink:href="#ButtonShadow"
       id="linearGradient38042"
       gradientUnits="userSpaceOnUse"
       gradientTransform="scale(0.9883037,1.0118347)"
       x1="9.3550024"
       y1="21.742682"
       x2="9.3550024"
       y2="0.49362123" />
    <filter
       inkscape:collect="always"
       id="filter3194"
       x="-0.18000001"
       width="1.36"
       y="-0.18000001"
       height="1.36"
       color-interpolation-filters="sRGB">
      <feGaussianBlur
         inkscape:collect="always"
         stdDeviation="1.2"
         id="feGaussianBlur3196" />
    </filter>
    <clipPath
       clipPathUnits="userSpaceOnUse"
       id="clipPath2849">
      <rect
         ry="2"
         rx="2"
         y="1"
         x="1"
         height="20"
         width="20"
         id="rect2851"
         style="fill:#ffffff;fill-opacity:1;fill-rule:evenodd;stroke:none;display:inline" />
    </clipPath>
    <linearGradient
       inkscape:collect="always"
       xlink:href="#linearGradient3831"
       id="linearGradient3845"
       x1="11"
       y1="19.5"
       x2="21"
       y2="19.5"
       gradientUnits="userSpaceOnUse"
       spreadMethod="reflect"
       gradientTransform="translate(1,-1)" />
    <linearGradient
       id="linearGradient3831">
      <stop
         style="stop-color:#ffffff;stop-opacity:1;"
         offset="0"
         id="stop3833" />
      <stop
         id="stop3821"
         offset="0.75"
         style="stop-color:#ffffff;stop-opacity:0.49803922;" />
      <stop
         style="stop-color:#ffffff;stop-opacity:0;"
         offset="1"
         id="stop3835" />
    </linearGradient>
    <linearGradient
       y2="16"
       x2="10"
       y1="1"
       x1="10"
       gradientUnits="userSpaceOnUse"
       id="linearGradient3084"
       xlink:href="#linearGradient3823"
       inkscape:collect="always" />
    <linearGradient
       id="linearGradient3823">
      <stop
         id="stop3825"
         offset="0"
         style="stop-color:#ffffff;stop-opacity:1;" />
      <stop
         id="stop3829"
         offset="1"
         style="stop-color:#ffffff;stop-opacity:0;" />
    </linearGradient>
    <linearGradient
       y2="16"
       x2="10"
       y1="1"
       x1="10"
       gradientUnits="userSpaceOnUse"
       id="linearGradient3078"
       xlink:href="#linearGradient3823"
       inkscape:collect="always"
       gradientTransform="translate(1,-1)" />
    <radialGradient
       inkscape:collect="always"
       xlink:href="#linearGradient3865"
       id="radialGradient3932"
       cx="48"
       cy="54.163902"
       fx="48"
       fy="54.163902"
       r="10.006725"
       gradientTransform="matrix(1.5989247,7.830984e-8,-1.566197e-7,3.1978498,-28.748376,-109.20802)"
       gradientUnits="userSpaceOnUse" />
    <linearGradient
       id="linearGradient3865">
      <stop
         style="stop-color:#3c3c3c;stop-opacity:1;"
         offset="0"
         id="stop3867" />
      <stop
         style="stop-color:#131313;stop-opacity:1;"
         offset="1"
         id="stop3869" />
    </linearGradient>
    <radialGradient
       r="10.006725"
       fy="54.163902"
       fx="48"
       cy="54.163902"
       cx="48"
       gradientTransform="matrix(0.43022118,2.1070756e-8,-4.2141517e-8,0.86044247,-8.6506145,-32.27277)"
       gradientUnits="userSpaceOnUse"
       id="radialGradient4038"
       xlink:href="#linearGradient3865"
       inkscape:collect="always" />
    <radialGradient
       inkscape:collect="always"
       xlink:href="#linearGradient3865"
       id="radialGradient3834"
       gradientUnits="userSpaceOnUse"
       gradientTransform="matrix(0.43022118,2.1070756e-8,-4.2141517e-8,0.86044247,-8.6506145,-29.27277)"
       cx="48"
       cy="54.163902"
       fx="48"
       fy="54.163902"
       r="10.006725" />
    <radialGradient
       inkscape:collect="always"
       xlink:href="#linearGradient3865"
       id="radialGradient3838"
       gradientUnits="userSpaceOnUse"
       gradientTransform="matrix(0.43022118,2.1070756e-8,-4.2141517e-8,0.86044247,-8.6506145,-32.27277)"
       cx="48"
       cy="54.163902"
       fx="48"
       fy="54.163902"
       r="10.006725" />
    <radialGradient
       inkscape:collect="always"
       xlink:href="#linearGradient3865"
       id="radialGradient3845"
       gradientUnits="userSpaceOnUse"
       gradientTransform="matrix(0.43022118,2.1070756e-8,-4.2141517e-8,0.86044247,-8.6506145,-31.27277)"
       cx="48"
       cy="54.163902"
       fx="48"
       fy="54.163902"
       r="10.006725" />
    <radialGradient
       inkscape:collect="always"
       xlink:href="#linearGradient3865"
       id="radialGradient3847"
       gradientUnits="userSpaceOnUse"
       gradientTransform="matrix(0.43022118,2.1070756e-8,-4.2141517e-8,0.86044247,-8.6506145,-30.27277)"
       cx="48"
       cy="54.163902"
       fx="48"
       fy="54.163902"
       r="10.006725" />
  </defs>
  <sodipodi:namedview
     id="base"
     pagecolor="#ffffff"
     bordercolor="#e7e7e7"
     borderopacity="1"
     inkscape:pageopacity="0.0"
     inkscape:pageshadow="2"
     inkscape:zoom="10.773548"
     inkscape:cx="-17.391807"
     inkscape:cy="21.14941"
     inkscape:document-units="px"
     inkscape:current-layer="layer3"
     showgrid="true"
     inkscape:showpageshadow="false"
     showguides="false"
     inkscape:guide-bbox="true"
     inkscape:window-width="1920"
     inkscape:window-height="1029"
     inkscape:window-x="0"
     inkscape:window-y="25"
     inkscape:window-maximized="1">
    <sodipodi:guide
       orientation="1,0"
       position="0,112"
       id="guide2383" />
    <sodipodi:guide
       orientation="0,1"
       position="26.278146,128"
       id="guide2385" />
    <sodipodi:guide
       orientation="1,0"
       position="128,54.082119"
       id="guide2387" />
    <sodipodi:guide
       orientation="0,1"
       position="78.156291,0"
       id="guide2389" />
    <sodipodi:guide
       orientation="0,1"
       position="60.863576,64.084768"
       id="guide2391" />
    <inkscape:grid
       type="xygrid"
       id="grid3672"
       visible="true"
       enabled="true"
       empspacing="8"
       snapvisiblegridlinesonly="true" />
  </sodipodi:namedview>
  <metadata
     id="metadata7">
    <rdf:RDF>
      <cc:Work
         rdf:about="">
        <dc:format>image/svg+xml</dc:format>
        <dc:type
           rdf:resource="http://purl.org/dc/dcmitype/StillImage" />
        <dc:title></dc:title>
      </cc:Work>
    </rdf:RDF>
  </metadata>
  <g
     inkscape:label="Button"
     inkscape:groupmode="layer"
     id="layer1"
     transform="translate(0,2)">
    <g
       style="display:inline"
       id="g3337"
       transform="translate(1,-1)">
      <rect
         ry="2.5"
         rx="2.5"
         y="0.5"
         x="0.5"
         height="21.5"
         width="21"
         id="rect3371"
         style="opacity:0.3;fill:url(#linearGradient3335);fill-opacity:1;stroke:none;display:inline" />
      <rect
         style="opacity:0.5;fill:#000000;fill-opacity:1;stroke:none;display:inline"
         id="rect2553"
         width="20"
         height="20"
         x="1"
         y="2"
         rx="2.3809524"
         ry="2.3255813" />
    </g>
    <rect
       style="fill:url(#linearGradient3181);fill-opacity:1;fill-rule:evenodd;stroke:none;display:inline"
       id="rect3173"
       width="20"
       height="20"
       x="2"
       y="0"
       rx="2"
       ry="2" />
    <path
       style="opacity:0.6;fill:url(#linearGradient3078);fill-opacity:1;fill-rule:evenodd;stroke:none;display:inline"
       d="M 4,0 C 2.892,0 2,0.892 2,2 l 0,16 c 0,1.108 0.892,2 2,2 l 16,0 c 1.108,0 2,-0.892 2,-2 L 22,2 C 22,0.892 21.108,0 20,0 L 4,0 z m 0,1.03125 16,0 c 0.5497,0 0.96875,0.4190495 0.96875,0.96875 l 0,16 c 0,0.5497 -0.41905,0.96875 -0.96875,0.96875 l -16,0 C 3.4502995,18.96875 3.03125,18.5497 3.03125,18 l 0,-16 C 3.03125,1.4502995 3.4502995,1.03125 4,1.03125 z"
       id="rect3050"
       inkscape:connector-curvature="0" />
    <path
       id="path3235"
       d="M 4,20 C 2.892,20 2,19.108 2,18 l 0,-1 c 0,1.108 0.892,2 2,2 l 16,0 c 1.108,0 2,-0.892 2,-2 l 0,1 c 0,1.108 -0.892,2 -2,2 L 4,20 z"
       style="opacity:0.35;fill:url(#linearGradient3845);fill-opacity:1;fill-rule:evenodd;stroke:none;display:inline"
       inkscape:connector-curvature="0" />
  </g>
  <g
     inkscape:groupmode="layer"
     id="layer2"
     inkscape:label="Highlight"
     transform="translate(0,2)"
     sodipodi:insensitive="true"
     style="display:inline">
    <rect
       style="opacity:0.15;fill:#ffffff;fill-opacity:1;fill-rule:nonzero;stroke:none;display:inline;filter:url(#filter3194)"
       id="rect2410"
       width="16"
       height="16"
       x="3"
       y="3"
       rx="2"
       ry="2"
       clip-path="url(#clipPath2849)"
       transform="translate(1,-1)" />
  </g>
  <g
     inkscape:groupmode="layer"
     id="layer3"
     inkscape:label="Symbol"
     transform="translate(0,2)">
    <path
       style="color:#000000;fill:url(#radialGradient4038);fill-opacity:1;fill-rule:nonzero;stroke:none;stroke-width:3;marker:none;visibility:visible;display:inline;overflow:visible;enable-background:accumulate"
       d="m 12,3.03125 c -1.486027,0 -2.6906909,1.204663 -2.6906909,2.690691 0,1.078696 0.6307743,2.009405 1.5471479,2.438438 l -1.5387395,8.223424 a 0.54264461,0.54264461 0 0 0 0.5297297,0.647447 l 4.3051058,0 a 0.54264461,0.54264461 0 0 0 0.52973,-0.647447 L 13.143544,8.160379 C 14.059916,7.731346 14.690691,6.800637 14.690691,5.721941 14.690691,4.235913 13.486028,3.03125 12,3.03125 z"
       id="path3919"
       inkscape:connector-curvature="0" />
    <path
       style="color:#000000;fill:#ffffff;fill-opacity:1;fill-rule:nonzero;stroke:none;stroke-width:3;marker:none;visibility:visible;display:inline;overflow:visible;enable-background:accumulate"
       d="M 9.375 8.21875 C 9.3431033 8.3844168 9.3125 8.543774 9.3125 8.71875 C 9.3125 9.7300275 9.8631325 10.602787 10.6875 11.0625 L 10.84375 10.15625 C 10.071121 9.7945163 9.5346874 9.0817565 9.375 8.21875 z M 14.625 8.21875 C 14.465313 9.0817565 13.928877 9.7945163 13.15625 10.15625 L 13.3125 11.0625 C 14.136866 10.602787 14.6875 9.7300275 14.6875 8.71875 C 14.6875 8.543774 14.656897 8.3844168 14.625 8.21875 z M 14.59375 18.78125 A 0.54264461 0.54264461 0 0 1 14.15625 19.03125 L 9.84375 19.03125 A 0.54264461 0.54264461 0 0 1 9.40625 18.8125 L 9.3125 19.375 A 0.54264461 0.54264461 0 0 0 9.84375 20.03125 L 14.15625 20.03125 A 0.54264461 0.54264461 0 0 0 14.6875 19.375 L 14.59375 18.78125 z "
       transform="translate(0,-2)"
       id="path3832" />
    <path
       style="color:#000000;fill:#000000;fill-opacity:1;fill-rule:nonzero;stroke:none;stroke-width:3;marker:none;visibility:visible;display:inline;overflow:visible;enable-background:accumulate"
       d="M 12 5.03125 C 10.513973 5.03125 9.3125 6.232722 9.3125 7.71875 C 9.3125 7.8773818 9.3488151 8.0363939 9.375 8.1875 C 9.625897 6.9613973 10.699726 6.03125 12 6.03125 C 13.300274 6.03125 14.374103 6.9613973 14.625 8.1875 C 14.651185 8.0363939 14.6875 7.8773818 14.6875 7.71875 C 14.6875 6.232722 13.486028 5.03125 12 5.03125 z M 10.6875 11.0625 L 9.3125 18.375 A 0.54264461 0.54264461 0 0 0 9.40625 18.8125 L 10.84375 11.15625 C 10.786477 11.129435 10.742458 11.093148 10.6875 11.0625 z M 13.3125 11.0625 C 13.257542 11.093148 13.213523 11.129435 13.15625 11.15625 L 14.59375 18.78125 A 0.54264461 0.54264461 0 0 0 14.6875 18.375 L 13.3125 11.0625 z "
       transform="translate(0,-2)"
       id="path3841" />
  </g>
</svg>
