<?xml version="1.0" encoding="UTF-8" standalone="no"?>
<!-- Created with Inkscape (http://www.inkscape.org/) -->

<svg
   xmlns:dc="http://purl.org/dc/elements/1.1/"
   xmlns:cc="http://creativecommons.org/ns#"
   xmlns:rdf="http://www.w3.org/1999/02/22-rdf-syntax-ns#"
   xmlns:svg="http://www.w3.org/2000/svg"
   xmlns="http://www.w3.org/2000/svg"
   xmlns:xlink="http://www.w3.org/1999/xlink"
   xmlns:sodipodi="http://sodipodi.sourceforge.net/DTD/sodipodi-0.dtd"
   xmlns:inkscape="http://www.inkscape.org/namespaces/inkscape"
   width="24"
   height="24"
   id="svg2"
   sodipodi:version="0.32"
   inkscape:version="0.48.0 r9654"
   version="1.0"
   sodipodi:docname="extension.svg"
   inkscape:output_extension="org.inkscape.output.svg.inkscape"
   style="display:inline">
  <defs
     id="defs4">
    <linearGradient
       inkscape:collect="always"
       id="linearGradient3327">
      <stop
         style="stop-color:#000000;stop-opacity:1;"
         offset="0"
         id="stop3330" />
      <stop
         style="stop-color:#000000;stop-opacity:0;"
         offset="1"
         id="stop3333" />
    </linearGradient>
    <linearGradient
       inkscape:collect="always"
       xlink:href="#linearGradient3327"
       id="linearGradient3335"
       x1="11.375"
       y1="22"
       x2="11.375"
       y2="-9.817296"
       gradientUnits="userSpaceOnUse" />
    <linearGradient
       inkscape:collect="always"
       xlink:href="#ButtonColor"
       id="linearGradient3181"
       x1="-3.0607977"
       y1="27.258198"
       x2="-3.0607977"
       y2="7.2536583"
       gradientUnits="userSpaceOnUse"
       gradientTransform="translate(12.119372,-7.2581977)" />
    <inkscape:perspective
       sodipodi:type="inkscape:persp3d"
       inkscape:vp_x="0 : 11 : 1"
       inkscape:vp_y="0 : 1000 : 0"
       inkscape:vp_z="22 : 11 : 1"
       inkscape:persp3d-origin="11 : 7.3333333 : 1"
       id="perspective2531" />
    <linearGradient
       id="ButtonShadow"
       gradientTransform="scale(0.9883037,1.0118347)"
       x1="9.3550024"
       y1="21.742682"
       x2="9.3550024"
       y2="0.49362123"
       gradientUnits="userSpaceOnUse">
      <stop
         id="stop3277"
         offset="0"
         style="stop-color:#000000;stop-opacity:0.70588237;" />
      <stop
         id="stop3279"
         offset="1"
         style="stop-color:#000000;stop-opacity:0.15686275;" />
    </linearGradient>
    <linearGradient
       inkscape:collect="always"
       id="linearGradient3232">
      <stop
         style="stop-color:#000000;stop-opacity:1;"
         offset="0"
         id="stop3234" />
      <stop
         style="stop-color:#000000;stop-opacity:0;"
         offset="1"
         id="stop3236" />
    </linearGradient>
    <linearGradient
       gradientUnits="userSpaceOnUse"
       y2="-6.0004225"
       x2="11"
       y1="14.805666"
       x1="11"
       id="linearGradient3221"
       xlink:href="#linearGradient3232"
       inkscape:collect="always" />
    <linearGradient
       id="ButtonColor"
       x1="10.31979"
       y1="21"
       x2="10.31979"
       y2="0.99929649"
       gradientUnits="userSpaceOnUse">
      <stop
         style="stop-color:#e6e6e6;stop-opacity:1;"
         offset="0"
         id="stop3189" />
      <stop
         style="stop-color:#f5f5f5;stop-opacity:1;"
         offset="1"
         id="stop3191" />
    </linearGradient>
    <linearGradient
       inkscape:collect="always"
       xlink:href="#ButtonShadow"
       id="linearGradient38042"
       gradientUnits="userSpaceOnUse"
       gradientTransform="scale(0.9883037,1.0118347)"
       x1="9.3550024"
       y1="21.742682"
       x2="9.3550024"
       y2="0.49362123" />
    <filter
       inkscape:collect="always"
       id="filter3194"
       x="-0.18000001"
       width="1.36"
       y="-0.18000001"
       height="1.36"
       color-interpolation-filters="sRGB">
      <feGaussianBlur
         inkscape:collect="always"
         stdDeviation="1.2"
         id="feGaussianBlur3196" />
    </filter>
    <clipPath
       clipPathUnits="userSpaceOnUse"
       id="clipPath2849">
      <rect
         ry="2"
         rx="2"
         y="1"
         x="1"
         height="20"
         width="20"
         id="rect2851"
         style="fill:#ffffff;fill-opacity:1;fill-rule:evenodd;stroke:none;display:inline" />
    </clipPath>
    <linearGradient
       inkscape:collect="always"
       xlink:href="#linearGradient3831"
       id="linearGradient3845"
       x1="11"
       y1="19.5"
       x2="21"
       y2="19.5"
       gradientUnits="userSpaceOnUse"
       spreadMethod="reflect"
       gradientTransform="translate(1,-1)" />
    <linearGradient
       id="linearGradient3831">
      <stop
         style="stop-color:#ffffff;stop-opacity:1;"
         offset="0"
         id="stop3833" />
      <stop
         id="stop3821"
         offset="0.75"
         style="stop-color:#ffffff;stop-opacity:0.49803922;" />
      <stop
         style="stop-color:#ffffff;stop-opacity:0;"
         offset="1"
         id="stop3835" />
    </linearGradient>
    <linearGradient
       y2="16"
       x2="10"
       y1="1"
       x1="10"
       gradientUnits="userSpaceOnUse"
       id="linearGradient3084"
       xlink:href="#linearGradient3823"
       inkscape:collect="always" />
    <linearGradient
       id="linearGradient3823">
      <stop
         id="stop3825"
         offset="0"
         style="stop-color:#ffffff;stop-opacity:1;" />
      <stop
         id="stop3829"
         offset="1"
         style="stop-color:#ffffff;stop-opacity:0;" />
    </linearGradient>
    <linearGradient
       y2="16"
       x2="10"
       y1="1"
       x1="10"
       gradientUnits="userSpaceOnUse"
       id="linearGradient3078"
       xlink:href="#linearGradient3823"
       inkscape:collect="always"
       gradientTransform="translate(1,-1)" />
    <linearGradient
       inkscape:collect="always"
       xlink:href="#linearGradient3317"
       id="linearGradient4142"
       x1="48"
       y1="64"
       x2="48"
       y2="24"
       gradientUnits="userSpaceOnUse" />
    <linearGradient
       id="linearGradient3317">
      <stop
         id="stop3319"
         offset="0"
         style="stop-color:#6ab300;stop-opacity:1;" />
      <stop
         id="stop3321"
         offset="1"
         style="stop-color:#9dcf00;stop-opacity:1;" />
    </linearGradient>
    <linearGradient
       gradientTransform="matrix(0.27471302,0,0,0.27471302,-1.6919648,-2.6804851)"
       y2="24"
       x2="48"
       y1="64"
       x1="48"
       gradientUnits="userSpaceOnUse"
       id="linearGradient4191"
       xlink:href="#linearGradient3317"
       inkscape:collect="always" />
    <linearGradient
       inkscape:collect="always"
       xlink:href="#linearGradient3317"
       id="linearGradient3834"
       gradientUnits="userSpaceOnUse"
       gradientTransform="matrix(0.27471302,0,0,0.27471302,-1.6919648,0.3195149)"
       x1="48"
       y1="64"
       x2="48"
       y2="24" />
    <linearGradient
       inkscape:collect="always"
       xlink:href="#linearGradient3317"
       id="linearGradient3838"
       gradientUnits="userSpaceOnUse"
       gradientTransform="matrix(0.27471302,0,0,0.27471302,-1.6919648,-2.6804851)"
       x1="48"
       y1="64"
       x2="48"
       y2="24" />
    <linearGradient
       inkscape:collect="always"
       xlink:href="#linearGradient3317"
       id="linearGradient3846"
       gradientUnits="userSpaceOnUse"
       gradientTransform="matrix(0.27471302,0,0,0.27471302,-1.6919648,-2.1181967)"
       x1="48"
       y1="64"
       x2="48"
       y2="24" />
    <linearGradient
       inkscape:collect="always"
       xlink:href="#linearGradient3317"
       id="linearGradient3848"
       gradientUnits="userSpaceOnUse"
       gradientTransform="matrix(0.27471302,0,0,0.27471302,-1.6919648,-0.6804851)"
       x1="48"
       y1="64"
       x2="48"
       y2="24" />
  </defs>
  <sodipodi:namedview
     id="base"
     pagecolor="#ffffff"
     bordercolor="#e7e7e7"
     borderopacity="1"
     inkscape:pageopacity="0.0"
     inkscape:pageshadow="2"
     inkscape:zoom="23.119807"
     inkscape:cx="3.2980702"
     inkscape:cy="9.0922691"
     inkscape:document-units="px"
     inkscape:current-layer="layer3"
     showgrid="true"
     inkscape:showpageshadow="false"
     showguides="false"
     inkscape:guide-bbox="true"
     inkscape:window-width="1920"
     inkscape:window-height="1029"
     inkscape:window-x="0"
     inkscape:window-y="25"
     inkscape:window-maximized="1"
     inkscape:snap-global="false">
    <sodipodi:guide
       orientation="1,0"
       position="0,112"
       id="guide2383" />
    <sodipodi:guide
       orientation="0,1"
       position="26.278146,128"
       id="guide2385" />
    <sodipodi:guide
       orientation="1,0"
       position="128,54.082119"
       id="guide2387" />
    <sodipodi:guide
       orientation="0,1"
       position="78.156291,0"
       id="guide2389" />
    <sodipodi:guide
       orientation="0,1"
       position="60.863576,64.084768"
       id="guide2391" />
    <inkscape:grid
       type="xygrid"
       id="grid3672"
       visible="true"
       enabled="true"
       empspacing="8"
       snapvisiblegridlinesonly="true" />
  </sodipodi:namedview>
  <metadata
     id="metadata7">
    <rdf:RDF>
      <cc:Work
         rdf:about="">
        <dc:format>image/svg+xml</dc:format>
        <dc:type
           rdf:resource="http://purl.org/dc/dcmitype/StillImage" />
        <dc:title></dc:title>
      </cc:Work>
    </rdf:RDF>
  </metadata>
  <g
     inkscape:label="Button"
     inkscape:groupmode="layer"
     id="layer1"
     transform="translate(0,2)">
    <g
       style="display:inline"
       id="g3337"
       transform="translate(1,-1)">
      <rect
         ry="2.5"
         rx="2.5"
         y="0.5"
         x="0.5"
         height="21.5"
         width="21"
         id="rect3371"
         style="opacity:0.3;fill:url(#linearGradient3335);fill-opacity:1;stroke:none;display:inline" />
      <rect
         style="opacity:0.5;fill:#000000;fill-opacity:1;stroke:none;display:inline"
         id="rect2553"
         width="20"
         height="20"
         x="1"
         y="2"
         rx="2.3809524"
         ry="2.3255813" />
    </g>
    <rect
       style="fill:url(#linearGradient3181);fill-opacity:1;fill-rule:evenodd;stroke:none;display:inline"
       id="rect3173"
       width="20"
       height="20"
       x="2"
       y="0"
       rx="2"
       ry="2" />
    <path
       style="opacity:0.6;fill:url(#linearGradient3078);fill-opacity:1;fill-rule:evenodd;stroke:none;display:inline"
       d="M 4,0 C 2.892,0 2,0.892 2,2 l 0,16 c 0,1.108 0.892,2 2,2 l 16,0 c 1.108,0 2,-0.892 2,-2 L 22,2 C 22,0.892 21.108,0 20,0 L 4,0 z m 0,1.03125 16,0 c 0.5497,0 0.96875,0.4190495 0.96875,0.96875 l 0,16 c 0,0.5497 -0.41905,0.96875 -0.96875,0.96875 l -16,0 C 3.4502995,18.96875 3.03125,18.5497 3.03125,18 l 0,-16 C 3.03125,1.4502995 3.4502995,1.03125 4,1.03125 z"
       id="rect3050"
       inkscape:connector-curvature="0" />
    <path
       id="path3235"
       d="M 4,20 C 2.892,20 2,19.108 2,18 l 0,-1 c 0,1.108 0.892,2 2,2 l 16,0 c 1.108,0 2,-0.892 2,-2 l 0,1 c 0,1.108 -0.892,2 -2,2 L 4,20 z"
       style="opacity:0.35;fill:url(#linearGradient3845);fill-opacity:1;fill-rule:evenodd;stroke:none;display:inline"
       inkscape:connector-curvature="0" />
  </g>
  <g
     inkscape:groupmode="layer"
     id="layer2"
     inkscape:label="Highlight"
     transform="translate(0,2)"
     sodipodi:insensitive="true"
     style="display:inline">
    <rect
       style="opacity:0.15;fill:#ffffff;fill-opacity:1;fill-rule:nonzero;stroke:none;display:inline;filter:url(#filter3194)"
       id="rect2410"
       width="16"
       height="16"
       x="3"
       y="3"
       rx="2"
       ry="2"
       clip-path="url(#clipPath2849)"
       transform="translate(1,-1)" />
  </g>
  <g
     inkscape:groupmode="layer"
     id="layer3"
     inkscape:label="Symbol"
     transform="translate(0,2)">
    <path
       style="color:#000000;fill:url(#linearGradient4191);fill-opacity:1;fill-rule:nonzero;stroke:none;stroke-width:2;marker:none;visibility:visible;display:inline;overflow:visible;enable-background:accumulate"
       d="m 11.631617,1.989636 c -0.986179,0 -1.7856346,0.5534698 -1.7856346,1.2362088 0.028686,0.2547137 0.1897136,0.5763566 0.2747126,0.6867819 0.41207,0.5494261 0.41207,0.8928175 0.309053,1.0988521 l -3.3308959,0 C 6.4900878,5.0114788 6,5.5015675 6,6.110331 L 6,8.8918007 C 6.2060347,8.994818 6.5494261,8.994818 7.0988521,8.5827487 7.2092774,8.4977495 7.5309204,8.336724 7.7856349,8.3080352 c 0.6827391,0 1.236208,0.7994559 1.236208,1.7856348 0,0.986179 -0.5534689,1.785635 -1.236208,1.785635 C 7.5760942,11.875715 7.2575344,11.68835 7.0988521,11.604592 6.5494261,11.192522 6.2060347,11.192522 6,11.29554 l 0,3.605608 C 6,15.509912 6.4900878,16 7.0988521,16 l 4.4297469,0 c 0.103018,-0.206035 0.103018,-0.549426 -0.309052,-1.098852 -0.085,-0.110425 -0.246025,-0.432068 -0.274712,-0.686783 0,-0.682739 0.799455,-1.236208 1.785634,-1.236208 0.986179,0 1.785634,0.553469 1.785634,1.236208 -0.0036,0.209541 -0.190954,0.528101 -0.274712,0.686783 -0.41207,0.549426 -0.41207,0.892817 -0.309052,1.098852 l 1.95733,0 c 0.608763,0 1.098852,-0.490088 1.098852,-1.098852 l 0,-3.056182 c 0.206035,-0.103018 0.549426,-0.103018 1.098852,0.309052 0.158683,0.08376 0.477241,0.271164 0.686782,0.274713 0.682739,0 1.236209,-0.799456 1.236209,-1.785635 0,-0.9861789 -0.55347,-1.7856348 -1.236209,-1.7856348 -0.254713,0.028686 -0.576356,0.1897144 -0.686782,0.2747135 -0.549426,0.4120693 -0.892817,0.4120693 -1.098852,0.309052 l 0,-3.3308957 c 0,-0.6087635 -0.490089,-1.0988522 -1.098852,-1.0988522 l -3.056182,0 c -0.103018,-0.2060346 -0.103018,-0.549426 0.309052,-1.0988521 0.08376,-0.1586822 0.271163,-0.4772411 0.274712,-0.6867819 0,-0.682739 -0.799456,-1.2362088 -1.785634,-1.2362088 z"
       id="rect4096"
       inkscape:connector-curvature="0"
       sodipodi:nodetypes="scccsscccscccsscccscccsscccscccsscccs" />
    <path
       style="color:#000000;fill:#ffffff;fill-opacity:1;fill-rule:nonzero;stroke:none;stroke-width:2;marker:none;visibility:visible;display:inline;overflow:visible;enable-background:accumulate;opacity:0.75"
       d="M 10.03125 5.71875 C 9.9265526 5.8760142 9.84375 6.0342259 9.84375 6.21875 C 9.872436 6.4734637 10.040001 6.7958247 10.125 6.90625 C 10.151688 6.9418346 10.164185 6.9661253 10.1875 7 L 10.4375 7 C 10.540517 6.7939654 10.53707 6.4556761 10.125 5.90625 C 10.097335 5.8703097 10.067838 5.7898497 10.03125 5.71875 z M 13.25 5.71875 C 13.213979 5.7878723 13.181378 5.8586453 13.15625 5.90625 C 12.74418 6.4556761 12.740732 6.7939654 12.84375 7 L 13.09375 7 C 13.116361 6.9672537 13.130496 6.9405891 13.15625 6.90625 C 13.24001 6.7475678 13.402701 6.4282908 13.40625 6.21875 C 13.40625 6.0342259 13.354697 5.8760142 13.25 5.71875 z M 7.78125 10.3125 C 7.5265355 10.341189 7.2041753 10.508751 7.09375 10.59375 C 6.544324 11.005819 6.2060347 11.009267 6 10.90625 L 6 11.90625 C 6.2060347 12.009267 6.544324 12.005819 7.09375 11.59375 C 7.2041753 11.508751 7.5265355 11.341189 7.78125 11.3125 C 8.3441815 11.3125 8.8193605 11.850217 8.96875 12.59375 C 9.0005443 12.435505 9.03125 12.266805 9.03125 12.09375 C 9.03125 11.107571 8.4639891 10.3125 7.78125 10.3125 z M 19.96875 13.125 C 19.822616 13.875871 19.347792 14.4375 18.78125 14.4375 C 18.571709 14.433951 18.252433 14.24001 18.09375 14.15625 C 17.544324 13.74418 17.206035 13.740732 17 13.84375 L 17 14.84375 C 17.206035 14.740732 17.544324 14.74418 18.09375 15.15625 C 18.252433 15.24001 18.571709 15.433951 18.78125 15.4375 C 19.463989 15.4375 20 14.642429 20 13.65625 C 20 13.477979 20.002416 13.287448 19.96875 13.125 z M 12.71875 14.96875 C 11.732571 14.96875 10.9375 15.536011 10.9375 16.21875 C 10.956174 16.384555 11.020397 16.572945 11.09375 16.71875 C 11.364824 16.275056 11.979116 15.96875 12.71875 15.96875 C 13.436155 15.96875 14.059855 16.265016 14.34375 16.6875 C 14.426293 16.528093 14.528784 16.362271 14.53125 16.21875 C 14.53125 15.536011 13.704929 14.96875 12.71875 14.96875 z M 6 16.90625 L 6 17.90625 C 6 18.515014 6.4849857 19 7.09375 19 L 11.53125 19 C 11.627829 18.806842 11.620408 18.491194 11.28125 18 L 7.09375 18 C 6.4849857 18 6 17.515014 6 16.90625 z M 17 16.90625 C 17 17.515014 16.483763 18 15.875 18 L 14.1875 18 C 13.848342 18.491194 13.840921 18.806842 13.9375 19 L 15.875 19 C 16.483763 19 17 18.515014 17 17.90625 L 17 16.90625 z "
       transform="translate(0,-2)"
       id="path3832" />
    <path
       style="color:#000000;fill:#000000;fill-opacity:1;fill-rule:nonzero;stroke:none;stroke-width:2;marker:none;visibility:visible;display:inline;overflow:visible;enable-background:accumulate;opacity:0.3"
       d="M 11.28125 4 C 10.467566 4.1152719 9.84375 4.6213534 9.84375 5.21875 C 9.8524333 5.2958525 9.8790935 5.3870969 9.90625 5.46875 C 10.107606 4.9387489 10.79623 4.5625 11.625 4.5625 C 12.451774 4.5625 13.140501 4.9406939 13.34375 5.46875 C 13.375141 5.3846359 13.405067 5.2885969 13.40625 5.21875 C 13.40625 4.536011 12.611178 4 11.625 4 C 11.501728 4 11.397491 3.9835326 11.28125 4 z M 7.09375 7 C 6.4849857 7 6 7.5162365 6 8.125 L 6 8.6875 C 6 8.0787365 6.4849857 7.5625 7.09375 7.5625 L 10.4375 7.5625 C 10.501886 7.4337284 10.497799 7.2528487 10.40625 7 L 7.09375 7 z M 12.84375 7 C 12.752201 7.2528487 12.779364 7.4337284 12.84375 7.5625 L 15.875 7.5625 C 16.483763 7.5625 17 8.0787365 17 8.6875 L 17 8.125 C 17 7.5162365 16.483763 7 15.875 7 L 12.84375 7 z M 18.78125 10.84375 C 18.526537 10.872436 18.204176 11.040001 18.09375 11.125 C 17.544324 11.537069 17.206035 11.540517 17 11.4375 L 17 12 C 17.206035 12.103017 17.544324 12.099569 18.09375 11.6875 C 18.204176 11.602501 18.526537 11.434936 18.78125 11.40625 C 19.378647 11.40625 19.884728 12.030067 20 12.84375 C 20.005011 12.778441 20 12.723489 20 12.65625 C 20 11.670071 19.463989 10.84375 18.78125 10.84375 z M 9 12.46875 C 8.8847283 13.282434 8.3786467 13.875 7.78125 13.875 C 7.5717093 13.87141 7.2524323 13.677508 7.09375 13.59375 C 6.544324 13.18168 6.2060347 13.178232 6 13.28125 L 6 13.84375 C 6.2060347 13.740732 6.544324 13.74418 7.09375 14.15625 C 7.2524323 14.240008 7.5717093 14.43391 7.78125 14.4375 C 8.4639891 14.4375 9.03125 13.642429 9.03125 12.65625 C 9.03125 12.594189 9.0042781 12.52918 9 12.46875 z M 11 16.4375 C 10.957413 16.543311 10.9375 16.666038 10.9375 16.78125 C 10.966187 17.035965 11.13375 17.358325 11.21875 17.46875 C 11.371859 17.672895 11.444816 17.849221 11.5 18 C 11.501022 18.002792 11.530256 17.997225 11.53125 18 C 11.634268 17.793965 11.63082 17.455676 11.21875 16.90625 C 11.156493 16.825371 11.061955 16.635709 11 16.4375 z M 14.4375 16.46875 C 14.374344 16.629605 14.303189 16.805481 14.25 16.90625 C 13.83793 17.455676 13.834482 17.793965 13.9375 18 C 13.992163 17.847368 14.094056 17.676675 14.25 17.46875 C 14.333758 17.310068 14.52765 16.990791 14.53125 16.78125 C 14.53125 16.673695 14.474785 16.56823 14.4375 16.46875 z "
       transform="translate(0,-2)"
       id="path3841" />
    <path
       style="color:#000000;fill:#000000;fill-opacity:1;fill-rule:nonzero;stroke:none;stroke-width:2;marker:none;visibility:visible;display:inline;overflow:visible;enable-background:accumulate;opacity:0.1"
       d="M 11.28125 4 C 10.467566 4.1152719 9.84375 4.6213534 9.84375 5.21875 C 9.872436 5.4734637 10.040001 5.7958247 10.125 5.90625 C 10.53707 6.4556761 10.540517 6.7939654 10.4375 7 L 7.09375 7 C 6.4849857 7 6 7.5162365 6 8.125 L 6 10.90625 C 6.2060347 11.009267 6.544324 11.005819 7.09375 10.59375 C 7.2041753 10.508751 7.5265355 10.341189 7.78125 10.3125 C 8.4639891 10.3125 9.03125 11.107571 9.03125 12.09375 C 9.03125 13.079929 8.4639891 13.875 7.78125 13.875 C 7.5717093 13.87141 7.2524323 13.677508 7.09375 13.59375 C 6.544324 13.18168 6.2060347 13.178232 6 13.28125 L 6 16.90625 C 6 17.515014 6.4849857 18 7.09375 18 L 11.53125 18 C 11.634268 17.793965 11.63082 17.455676 11.21875 16.90625 C 11.13375 16.795825 10.966187 16.473465 10.9375 16.21875 C 10.9375 15.536011 11.732571 14.96875 12.71875 14.96875 C 13.704929 14.96875 14.53125 15.536011 14.53125 16.21875 C 14.52765 16.428291 14.333758 16.747568 14.25 16.90625 C 13.83793 17.455676 13.834482 17.793965 13.9375 18 L 15.875 18 C 16.483763 18 17 17.515014 17 16.90625 L 17 13.84375 C 17.206035 13.740732 17.544324 13.74418 18.09375 14.15625 C 18.252433 14.24001 18.571709 14.433951 18.78125 14.4375 C 19.463989 14.4375 20 13.642429 20 12.65625 C 20 11.670071 19.463989 10.84375 18.78125 10.84375 C 18.526537 10.872436 18.204176 11.040001 18.09375 11.125 C 17.544324 11.537069 17.206035 11.540517 17 11.4375 L 17 8.125 C 17 7.5162365 16.483763 7 15.875 7 L 12.84375 7 C 12.740732 6.7939654 12.74418 6.4556761 13.15625 5.90625 C 13.24001 5.7475678 13.402701 5.4282908 13.40625 5.21875 C 13.40625 4.536011 12.611178 4 11.625 4 C 11.501728 4 11.397491 3.9835326 11.28125 4 z M 11.625 5 C 11.936182 5 12.189136 5.1034755 12.3125 5.1875 C 12.350458 5.2133537 12.360689 5.2083443 12.375 5.21875 C 12.362268 5.2427053 12.353663 5.2813679 12.34375 5.3125 C 12.318967 5.3903304 12.318634 5.366676 12.28125 5.4375 C 11.821264 6.114827 11.651504 6.8655114 11.9375 7.4375 A 1.0041418 1.0041418 0 0 0 12.84375 8 L 15.875 8 C 15.916139 8 16 8.0838607 16 8.125 L 16 11.4375 A 1.0041418 1.0041418 0 0 0 16.5625 12.34375 C 17.169749 12.647374 17.981965 12.466651 18.6875 11.9375 A 1.0041418 1.0041418 0 0 0 18.71875 11.90625 C 18.672343 11.941971 18.740144 11.889863 18.78125 11.875 C 18.766199 11.870066 18.750211 11.84383 18.8125 11.9375 C 18.901484 12.071314 19 12.345067 19 12.65625 C 19 12.967433 18.896524 13.220386 18.8125 13.34375 C 18.787293 13.380759 18.823535 13.36208 18.8125 13.375 C 18.779614 13.358487 18.727281 13.36534 18.6875 13.34375 C 18.64653 13.313023 18.604256 13.309608 18.5625 13.28125 C 17.885173 12.821264 17.134488 12.651505 16.5625 12.9375 A 1.0041418 1.0041418 0 0 0 16 13.84375 L 16 16.90625 C 16 16.94739 15.9505 17 15.875 17 L 15.34375 17 C 15.427315 16.822934 15.524282 16.655562 15.53125 16.25 A 1.0041418 1.0041418 0 0 0 15.53125 16.21875 C 15.53125 15.472316 15.085341 14.860062 14.5625 14.5 C 14.039659 14.139938 13.404351 13.96875 12.71875 13.96875 C 12.033149 13.96875 11.392453 14.166254 10.875 14.53125 C 10.357547 14.896246 9.9375 15.487635 9.9375 16.21875 A 1.0041418 1.0041418 0 0 0 9.9375 16.34375 C 9.9745188 16.672444 10.12554 16.808546 10.21875 17 L 7.09375 17 C 7.0182474 17 7 16.981752 7 16.90625 L 7 14.6875 C 7.1770709 14.771069 7.3443968 14.868051 7.75 14.875 A 1.0041418 1.0041418 0 0 0 7.78125 14.875 C 8.5123654 14.875 9.1037542 14.454953 9.46875 13.9375 C 9.8337458 13.420047 10.03125 12.779351 10.03125 12.09375 C 10.03125 11.408149 9.8337458 10.767453 9.46875 10.25 C 9.1037542 9.7325474 8.5123655 9.3125 7.78125 9.3125 A 1.0041418 1.0041418 0 0 0 7.65625 9.3125 C 7.3275614 9.3495206 7.1914523 9.5005413 7 9.59375 L 7 8.125 C 7 8.0494986 7.0526086 8 7.09375 8 L 10.4375 8 A 1.0041418 1.0041418 0 0 0 11.34375 7.4375 C 11.647373 6.8302529 11.466652 6.0180358 10.9375 5.3125 A 1.0041418 1.0041418 0 0 0 10.90625 5.28125 C 10.941973 5.3276585 10.889863 5.2598555 10.875 5.21875 C 10.870605 5.2300747 10.851145 5.2463171 10.9375 5.1875 C 11.060864 5.1034756 11.313817 5 11.625 5 z "
       transform="translate(0,-2)"
       id="path3851" />
  </g>
</svg>
