<?xml version="1.0" encoding="UTF-8" standalone="no"?>
<!-- Created with Inkscape (http://www.inkscape.org/) -->

<svg
   xmlns:dc="http://purl.org/dc/elements/1.1/"
   xmlns:cc="http://creativecommons.org/ns#"
   xmlns:rdf="http://www.w3.org/1999/02/22-rdf-syntax-ns#"
   xmlns:svg="http://www.w3.org/2000/svg"
   xmlns="http://www.w3.org/2000/svg"
   xmlns:xlink="http://www.w3.org/1999/xlink"
   xmlns:sodipodi="http://sodipodi.sourceforge.net/DTD/sodipodi-0.dtd"
   xmlns:inkscape="http://www.inkscape.org/namespaces/inkscape"
   width="24"
   height="24"
   id="svg2"
   sodipodi:version="0.32"
   inkscape:version="0.48.0 r9654"
   version="1.0"
   sodipodi:docname="image-x-eps.svg"
   inkscape:output_extension="org.inkscape.output.svg.inkscape"
   style="display:inline">
  <defs
     id="defs4">
    <linearGradient
       inkscape:collect="always"
       id="linearGradient3327">
      <stop
         style="stop-color:#000000;stop-opacity:1;"
         offset="0"
         id="stop3330" />
      <stop
         style="stop-color:#000000;stop-opacity:0;"
         offset="1"
         id="stop3333" />
    </linearGradient>
    <linearGradient
       inkscape:collect="always"
       xlink:href="#linearGradient3327"
       id="linearGradient3335"
       x1="11.375"
       y1="22"
       x2="11.375"
       y2="-9.817296"
       gradientUnits="userSpaceOnUse" />
    <linearGradient
       inkscape:collect="always"
       xlink:href="#ButtonColor"
       id="linearGradient3181"
       x1="-3.0607977"
       y1="27.258198"
       x2="-3.0607977"
       y2="7.2536583"
       gradientUnits="userSpaceOnUse"
       gradientTransform="translate(12.119372,-7.2581977)" />
    <inkscape:perspective
       sodipodi:type="inkscape:persp3d"
       inkscape:vp_x="0 : 11 : 1"
       inkscape:vp_y="0 : 1000 : 0"
       inkscape:vp_z="22 : 11 : 1"
       inkscape:persp3d-origin="11 : 7.3333333 : 1"
       id="perspective2531" />
    <linearGradient
       id="ButtonShadow"
       gradientTransform="scale(0.9883037,1.0118347)"
       x1="9.3550024"
       y1="21.742682"
       x2="9.3550024"
       y2="0.49362123"
       gradientUnits="userSpaceOnUse">
      <stop
         id="stop3277"
         offset="0"
         style="stop-color:#000000;stop-opacity:0.70588237;" />
      <stop
         id="stop3279"
         offset="1"
         style="stop-color:#000000;stop-opacity:0.15686275;" />
    </linearGradient>
    <linearGradient
       inkscape:collect="always"
       id="linearGradient3232">
      <stop
         style="stop-color:#000000;stop-opacity:1;"
         offset="0"
         id="stop3234" />
      <stop
         style="stop-color:#000000;stop-opacity:0;"
         offset="1"
         id="stop3236" />
    </linearGradient>
    <linearGradient
       gradientUnits="userSpaceOnUse"
       y2="-6.0004225"
       x2="11"
       y1="14.805666"
       x1="11"
       id="linearGradient3221"
       xlink:href="#linearGradient3232"
       inkscape:collect="always" />
    <linearGradient
       id="ButtonColor"
       x1="10.31979"
       y1="21"
       x2="10.31979"
       y2="0.99929649"
       gradientUnits="userSpaceOnUse">
      <stop
         style="stop-color:#e6e6e6;stop-opacity:1;"
         offset="0"
         id="stop3189" />
      <stop
         style="stop-color:#f5f5f5;stop-opacity:1;"
         offset="1"
         id="stop3191" />
    </linearGradient>
    <linearGradient
       inkscape:collect="always"
       xlink:href="#ButtonShadow"
       id="linearGradient38042"
       gradientUnits="userSpaceOnUse"
       gradientTransform="scale(0.9883037,1.0118347)"
       x1="9.3550024"
       y1="21.742682"
       x2="9.3550024"
       y2="0.49362123" />
    <filter
       inkscape:collect="always"
       id="filter3194"
       x="-0.18000001"
       width="1.36"
       y="-0.18000001"
       height="1.36"
       color-interpolation-filters="sRGB">
      <feGaussianBlur
         inkscape:collect="always"
         stdDeviation="1.2"
         id="feGaussianBlur3196" />
    </filter>
    <clipPath
       clipPathUnits="userSpaceOnUse"
       id="clipPath2849">
      <rect
         ry="2"
         rx="2"
         y="1"
         x="1"
         height="20"
         width="20"
         id="rect2851"
         style="fill:#ffffff;fill-opacity:1;fill-rule:evenodd;stroke:none;display:inline" />
    </clipPath>
    <inkscape:perspective
       id="perspective2960"
       inkscape:persp3d-origin="0.5 : 0.33333333 : 1"
       inkscape:vp_z="1 : 0.5 : 1"
       inkscape:vp_y="0 : 1000 : 0"
       inkscape:vp_x="0 : 0.5 : 1"
       sodipodi:type="inkscape:persp3d" />
    <linearGradient
       inkscape:collect="always"
       xlink:href="#linearGradient3821"
       id="linearGradient3827"
       x1="46.882267"
       y1="75.753494"
       x2="46.882267"
       y2="35.372066"
       gradientUnits="userSpaceOnUse"
       gradientTransform="translate(-4,0)" />
    <linearGradient
       id="linearGradient3821">
      <stop
         style="stop-color:#de6a07;stop-opacity:1;"
         offset="0"
         id="stop3823" />
      <stop
         style="stop-color:#f8a425;stop-opacity:1;"
         offset="1"
         id="stop3825" />
    </linearGradient>
    <linearGradient
       y2="35.372066"
       x2="46.882267"
       y1="75.753494"
       x1="46.882267"
       gradientTransform="matrix(0.3,0,0,0.3,-3.8,-4.8)"
       gradientUnits="userSpaceOnUse"
       id="linearGradient2969"
       xlink:href="#linearGradient3821"
       inkscape:collect="always" />
    <linearGradient
       inkscape:collect="always"
       xlink:href="#linearGradient3821"
       id="linearGradient2895"
       gradientUnits="userSpaceOnUse"
       gradientTransform="matrix(0.3,0,0,0.3,-3.8,-2.8)"
       x1="46.882267"
       y1="75.753494"
       x2="46.882267"
       y2="35.372066" />
    <linearGradient
       inkscape:collect="always"
       xlink:href="#linearGradient3821"
       id="linearGradient2898"
       gradientUnits="userSpaceOnUse"
       gradientTransform="matrix(0.3,0,0,0.3,-3.8,-2.8)"
       x1="46.882267"
       y1="75.753494"
       x2="46.882267"
       y2="35.372066" />
    <linearGradient
       inkscape:collect="always"
       xlink:href="#linearGradient3821"
       id="linearGradient2901"
       gradientUnits="userSpaceOnUse"
       gradientTransform="matrix(0.275,0,0,0.275,-2.2037148,-4.9)"
       x1="46.882267"
       y1="75.753494"
       x2="46.882267"
       y2="35.372066" />
    <linearGradient
       inkscape:collect="always"
       xlink:href="#linearGradient3821"
       id="linearGradient2903"
       gradientUnits="userSpaceOnUse"
       gradientTransform="matrix(0.275,0,0,0.275,-2.15,-2.9)"
       x1="46.882267"
       y1="75.753494"
       x2="46.882267"
       y2="35.372066" />
    <linearGradient
       inkscape:collect="always"
       xlink:href="#linearGradient3821"
       id="linearGradient2910"
       gradientUnits="userSpaceOnUse"
       gradientTransform="matrix(0.275,0,0,0.275,-2.15,-3.9)"
       x1="46.882267"
       y1="75.753494"
       x2="46.882267"
       y2="35.372066" />
    <linearGradient
       inkscape:collect="always"
       xlink:href="#linearGradient3821"
       id="linearGradient2912"
       gradientUnits="userSpaceOnUse"
       gradientTransform="matrix(0.275,0,0,0.275,-2.15,-2.9)"
       x1="46.882267"
       y1="75.753494"
       x2="46.882267"
       y2="35.372066" />
    <linearGradient
       inkscape:collect="always"
       xlink:href="#linearGradient3821"
       id="linearGradient3689"
       gradientUnits="userSpaceOnUse"
       gradientTransform="matrix(0.275,0,0,0.275,-2.15,-1.9)"
       x1="46.882267"
       y1="75.753494"
       x2="46.882267"
       y2="35.372066" />
    <linearGradient
       inkscape:collect="always"
       xlink:href="#linearGradient3821"
       id="linearGradient3693"
       gradientUnits="userSpaceOnUse"
       gradientTransform="matrix(0.275,0,0,0.275,-2.15,-4.9)"
       x1="46.882267"
       y1="75.753494"
       x2="46.882267"
       y2="35.372066" />
    <linearGradient
       y2="16"
       x2="10"
       y1="1"
       x1="10"
       gradientUnits="userSpaceOnUse"
       id="linearGradient3078"
       xlink:href="#linearGradient3823"
       inkscape:collect="always"
       gradientTransform="translate(1,-1)" />
    <linearGradient
       id="linearGradient3823">
      <stop
         id="stop3825-4"
         offset="0"
         style="stop-color:#ffffff;stop-opacity:1;" />
      <stop
         id="stop3829"
         offset="1"
         style="stop-color:#ffffff;stop-opacity:0;" />
    </linearGradient>
    <linearGradient
       inkscape:collect="always"
       xlink:href="#linearGradient3831"
       id="linearGradient3845"
       x1="11"
       y1="19.5"
       x2="21"
       y2="19.5"
       gradientUnits="userSpaceOnUse"
       spreadMethod="reflect"
       gradientTransform="translate(1,-1)" />
    <linearGradient
       id="linearGradient3831">
      <stop
         style="stop-color:#ffffff;stop-opacity:1;"
         offset="0"
         id="stop3833" />
      <stop
         id="stop3821"
         offset="0.75"
         style="stop-color:#ffffff;stop-opacity:0.49803922;" />
      <stop
         style="stop-color:#ffffff;stop-opacity:0;"
         offset="1"
         id="stop3835" />
    </linearGradient>
    <linearGradient
       y2="16"
       x2="10"
       y1="1"
       x1="10"
       gradientTransform="translate(1,-1)"
       gradientUnits="userSpaceOnUse"
       id="linearGradient3859"
       xlink:href="#linearGradient3823"
       inkscape:collect="always" />
  </defs>
  <sodipodi:namedview
     id="base"
     pagecolor="#ffffff"
     bordercolor="#e7e7e7"
     borderopacity="1"
     inkscape:pageopacity="0.0"
     inkscape:pageshadow="2"
     inkscape:zoom="30.200636"
     inkscape:cx="3.8930349"
     inkscape:cy="9.981094"
     inkscape:document-units="px"
     inkscape:current-layer="layer1"
     showgrid="true"
     inkscape:showpageshadow="false"
     showguides="false"
     inkscape:guide-bbox="true"
     inkscape:window-width="1920"
     inkscape:window-height="1026"
     inkscape:window-x="0"
     inkscape:window-y="25"
     inkscape:window-maximized="1"
     inkscape:snap-global="false">
    <sodipodi:guide
       orientation="1,0"
       position="0,112"
       id="guide2383" />
    <sodipodi:guide
       orientation="0,1"
       position="26.278146,128"
       id="guide2385" />
    <sodipodi:guide
       orientation="1,0"
       position="128,54.082119"
       id="guide2387" />
    <sodipodi:guide
       orientation="0,1"
       position="78.156291,0"
       id="guide2389" />
    <sodipodi:guide
       orientation="0,1"
       position="60.863576,64.084768"
       id="guide2391" />
    <inkscape:grid
       type="xygrid"
       id="grid3672"
       visible="true"
       enabled="true"
       empspacing="8"
       snapvisiblegridlinesonly="true" />
  </sodipodi:namedview>
  <metadata
     id="metadata7">
    <rdf:RDF>
      <cc:Work
         rdf:about="">
        <dc:format>image/svg+xml</dc:format>
        <dc:type
           rdf:resource="http://purl.org/dc/dcmitype/StillImage" />
        <dc:title />
      </cc:Work>
    </rdf:RDF>
  </metadata>
  <g
     inkscape:label="Button"
     inkscape:groupmode="layer"
     id="layer1"
     transform="translate(0,2)">
    <g
       style="display:inline"
       id="g3337"
       transform="translate(1,-1)">
      <rect
         ry="2.5"
         rx="2.5"
         y="0.5"
         x="0.5"
         height="21.5"
         width="21"
         id="rect3371"
         style="opacity:0.3;fill:url(#linearGradient3335);fill-opacity:1;stroke:none;display:inline" />
      <rect
         style="opacity:0.5;fill:#000000;fill-opacity:1;stroke:none;display:inline"
         id="rect2553"
         width="20"
         height="20"
         x="1"
         y="2"
         rx="2.3809524"
         ry="2.3255813" />
    </g>
    <rect
       style="fill:url(#linearGradient3181);fill-opacity:1;fill-rule:evenodd;stroke:none;display:inline"
       id="rect3173"
       width="20"
       height="20"
       x="2"
       y="0"
       rx="2"
       ry="2" />
    <path
       style="opacity:0.6;fill:url(#linearGradient3859);fill-opacity:1;fill-rule:evenodd;stroke:none;display:inline"
       d="M 4,0 C 2.892,0 2,0.892 2,2 l 0,16 c 0,1.108 0.892,2 2,2 l 16,0 c 1.108,0 2,-0.892 2,-2 L 22,2 C 22,0.892 21.108,0 20,0 L 4,0 z m 0,1.03125 16,0 c 0.5497,0 0.96875,0.4190495 0.96875,0.96875 l 0,16 c 0,0.5497 -0.41905,0.96875 -0.96875,0.96875 l -16,0 C 3.4502995,18.96875 3.03125,18.5497 3.03125,18 l 0,-16 C 3.03125,1.4502995 3.4502995,1.03125 4,1.03125 z"
       id="rect3050"
       inkscape:connector-curvature="0" />
    <path
       id="path3235"
       d="M 4,20 C 2.892,20 2,19.108 2,18 l 0,-1 c 0,1.108 0.892,2 2,2 l 16,0 c 1.108,0 2,-0.892 2,-2 l 0,1 c 0,1.108 -0.892,2 -2,2 L 4,20 z"
       style="opacity:0.35;fill:url(#linearGradient3845);fill-opacity:1;fill-rule:evenodd;stroke:none;display:inline"
       inkscape:connector-curvature="0" />
  </g>
  <g
     inkscape:groupmode="layer"
     id="layer2"
     inkscape:label="Highlight"
     transform="translate(0,2)"
     sodipodi:insensitive="true"
     style="display:inline">
    <rect
       style="opacity:0.15;fill:#ffffff;fill-opacity:1;fill-rule:nonzero;stroke:none;display:inline;filter:url(#filter3194)"
       id="rect2410"
       width="16"
       height="16"
       x="3"
       y="3"
       rx="2"
       ry="2"
       clip-path="url(#clipPath2849)"
       transform="translate(1,-1)" />
  </g>
  <g
     inkscape:groupmode="layer"
     id="layer3"
     inkscape:label="Symbol"
     transform="translate(0,2)">
    <path
       style="font-size:55.46882629000000264px;font-style:normal;font-variant:normal;font-weight:bold;font-stretch:normal;text-align:start;line-height:125%;writing-mode:lr-tb;text-anchor:start;fill:url(#linearGradient2903);fill-opacity:1;stroke:none;font-family:Droid Sans;-inkscape-font-specification:Abandoned Bitplane Bold"
       d="M 8.5625 7 L 5 18 L 7.3125 18 L 8.09375 15.40625 L 11.84375 15.40625 L 12.59375 18 L 14.90625 18 L 11.375 7 L 8.5625 7 z M 17.03125 7 C 16.867779 7.0000116 16.711542 7.027753 16.5625 7.0625 C 16.41826 7.097269 16.329331 7.160633 16.21875 7.25 C 16.112975 7.334424 16.000002 7.4497625 15.9375 7.59375 C 15.87499 7.7327942 15.875 7.9114955 15.875 8.125 C 15.874999 8.33356 15.87499 8.5122614 15.9375 8.65625 C 16.00001 8.8002586 16.112975 8.9106315 16.21875 9 C 16.329331 9.084422 16.41826 9.1477855 16.5625 9.1875 C 16.711542 9.222267 16.867779 9.25001 17.03125 9.25 C 17.194716 9.2500092 17.355759 9.222268 17.5 9.1875 C 17.644234 9.147786 17.800473 9.084422 17.90625 9 C 18.016827 8.910632 18.093743 8.8002584 18.15625 8.65625 C 18.22356 8.5122614 18.25 8.33356 18.25 8.125 C 18.249998 7.9114955 18.22355 7.7327941 18.15625 7.59375 C 18.093743 7.4497621 18.016828 7.3344241 17.90625 7.25 C 17.800474 7.1606333 17.644235 7.0972699 17.5 7.0625 C 17.35576 7.0277537 17.194716 7.0000119 17.03125 7 z M 9.96875 8.5625 L 11.3125 13.4375 L 8.625 13.4375 C 9.0534264 11.804087 9.6478516 10.223542 9.96875 8.5625 z M 15.9375 10.3125 L 15.9375 18 L 18.15625 18 L 18.15625 10.3125 L 15.9375 10.3125 z "
       transform="translate(0,-2)"
       id="path2893" />
    <path
       style="font-size:55.46882628999999554px;font-style:normal;font-variant:normal;font-weight:bold;font-stretch:normal;text-align:start;line-height:125%;writing-mode:lr-tb;text-anchor:start;fill:#aa4400;fill-opacity:1;stroke:none;font-family:Droid Sans;-inkscape-font-specification:Abandoned Bitplane Bold;opacity:0.5"
       d="M 8.5625 7 L 5 18 L 5.3125 18 L 8.5625 8 L 11.375 8 L 14.59375 18 L 14.90625 18 L 11.375 7 L 8.5625 7 z M 17.03125 7 C 16.867779 7.0000116 16.711542 7.027753 16.5625 7.0625 C 16.41826 7.097269 16.329331 7.160633 16.21875 7.25 C 16.112975 7.334424 16.000002 7.4497625 15.9375 7.59375 C 15.87499 7.7327942 15.875 7.9114955 15.875 8.125 C 15.874999 8.3090235 15.89456 8.4595537 15.9375 8.59375 C 16.000002 8.4497625 16.112975 8.334424 16.21875 8.25 C 16.329331 8.160633 16.41826 8.097269 16.5625 8.0625 C 16.711542 8.027753 16.867779 8.0000116 17.03125 8 C 17.194716 8.0000119 17.35576 8.0277537 17.5 8.0625 C 17.644235 8.0972699 17.800474 8.1606333 17.90625 8.25 C 18.016828 8.3344241 18.093743 8.4497621 18.15625 8.59375 C 18.207332 8.4595537 18.25 8.3090235 18.25 8.125 C 18.249998 7.9114955 18.22355 7.7327941 18.15625 7.59375 C 18.093743 7.4497621 18.016828 7.3344241 17.90625 7.25 C 17.800474 7.1606333 17.644235 7.0972699 17.5 7.0625 C 17.35576 7.0277537 17.194716 7.0000119 17.03125 7 z M 15.9375 10.3125 L 15.9375 11.3125 L 18.15625 11.3125 L 18.15625 10.3125 L 15.9375 10.3125 z M 8.90625 13.4375 C 8.8085776 13.768043 8.7125576 14.103679 8.625 14.4375 L 11.3125 14.4375 L 11.03125 13.4375 L 8.90625 13.4375 z "
       transform="translate(0,-2)"
       id="path2906" />
    <path
       style="font-size:55.46882628999999554px;font-style:normal;font-variant:normal;font-weight:bold;font-stretch:normal;text-align:start;line-height:125%;writing-mode:lr-tb;text-anchor:start;fill:#ffffff;fill-opacity:1;stroke:none;font-family:Droid Sans;-inkscape-font-specification:Abandoned Bitplane Bold;opacity:0.6"
       d="M 9.96875 8.5625 C 9.6478516 10.223542 9.0534264 11.804087 8.625 13.4375 L 8.90625 13.4375 C 9.2864967 12.150669 9.7134337 10.884075 9.96875 9.5625 L 11.03125 13.4375 L 11.3125 13.4375 L 9.96875 8.5625 z M 15.9375 8.65625 C 15.89456 8.7871101 15.875 8.9366137 15.875 9.125 C 15.874999 9.33356 15.87499 9.5122614 15.9375 9.65625 C 16.00001 9.8002586 16.112975 9.9106315 16.21875 10 C 16.329331 10.084422 16.41826 10.147785 16.5625 10.1875 C 16.711542 10.222267 16.867779 10.25001 17.03125 10.25 C 17.194716 10.250009 17.355759 10.222268 17.5 10.1875 C 17.644234 10.147786 17.800473 10.084422 17.90625 10 C 18.016827 9.910632 18.093743 9.8002584 18.15625 9.65625 C 18.22356 9.5122614 18.25 9.33356 18.25 9.125 C 18.249998 8.9366137 18.207327 8.78711 18.15625 8.65625 C 18.093743 8.8002584 18.016827 8.910632 17.90625 9 C 17.800473 9.084422 17.644234 9.147786 17.5 9.1875 C 17.355759 9.222268 17.194716 9.2500092 17.03125 9.25 C 16.867779 9.25001 16.711542 9.222267 16.5625 9.1875 C 16.41826 9.1477855 16.329331 9.084422 16.21875 9 C 16.112975 8.9106315 16.00001 8.8002586 15.9375 8.65625 z M 8.09375 15.40625 L 7.3125 18 L 5.3125 18 L 5 19 L 7.3125 19 L 8.09375 16.40625 L 11.84375 16.40625 L 12.59375 19 L 14.90625 19 L 14.59375 18 L 12.59375 18 L 11.84375 15.40625 L 8.09375 15.40625 z M 15.9375 18 L 15.9375 19 L 18.15625 19 L 18.15625 18 L 15.9375 18 z "
       transform="translate(0,-2)"
       id="path3687" />
  </g>
</svg>
