<?xml version="1.0" encoding="UTF-8" standalone="no"?>
<!-- Created with Inkscape (http://www.inkscape.org/) -->

<svg
   xmlns:dc="http://purl.org/dc/elements/1.1/"
   xmlns:cc="http://creativecommons.org/ns#"
   xmlns:rdf="http://www.w3.org/1999/02/22-rdf-syntax-ns#"
   xmlns:svg="http://www.w3.org/2000/svg"
   xmlns="http://www.w3.org/2000/svg"
   xmlns:xlink="http://www.w3.org/1999/xlink"
   xmlns:sodipodi="http://sodipodi.sourceforge.net/DTD/sodipodi-0.dtd"
   xmlns:inkscape="http://www.inkscape.org/namespaces/inkscape"
   width="24"
   height="24"
   id="svg2"
   sodipodi:version="0.32"
   inkscape:version="0.48.0 r9654"
   version="1.0"
   sodipodi:docname="image-x-psd.svg"
   inkscape:output_extension="org.inkscape.output.svg.inkscape"
   style="display:inline">
  <defs
     id="defs4">
    <linearGradient
       inkscape:collect="always"
       id="linearGradient3327">
      <stop
         style="stop-color:#000000;stop-opacity:1;"
         offset="0"
         id="stop3330" />
      <stop
         style="stop-color:#000000;stop-opacity:0;"
         offset="1"
         id="stop3333" />
    </linearGradient>
    <linearGradient
       inkscape:collect="always"
       xlink:href="#linearGradient3327"
       id="linearGradient3335"
       x1="11.375"
       y1="22"
       x2="11.375"
       y2="-9.817296"
       gradientUnits="userSpaceOnUse" />
    <linearGradient
       inkscape:collect="always"
       xlink:href="#ButtonColor"
       id="linearGradient3181"
       x1="-3.0607977"
       y1="27.258198"
       x2="-3.0607977"
       y2="7.2536583"
       gradientUnits="userSpaceOnUse"
       gradientTransform="translate(12.119372,-7.2581977)" />
    <inkscape:perspective
       sodipodi:type="inkscape:persp3d"
       inkscape:vp_x="0 : 11 : 1"
       inkscape:vp_y="0 : 1000 : 0"
       inkscape:vp_z="22 : 11 : 1"
       inkscape:persp3d-origin="11 : 7.3333333 : 1"
       id="perspective2531" />
    <linearGradient
       id="ButtonShadow"
       gradientTransform="scale(0.9883037,1.0118347)"
       x1="9.3550024"
       y1="21.742682"
       x2="9.3550024"
       y2="0.49362123"
       gradientUnits="userSpaceOnUse">
      <stop
         id="stop3277"
         offset="0"
         style="stop-color:#000000;stop-opacity:0.70588237;" />
      <stop
         id="stop3279"
         offset="1"
         style="stop-color:#000000;stop-opacity:0.15686275;" />
    </linearGradient>
    <linearGradient
       inkscape:collect="always"
       id="linearGradient3232">
      <stop
         style="stop-color:#000000;stop-opacity:1;"
         offset="0"
         id="stop3234" />
      <stop
         style="stop-color:#000000;stop-opacity:0;"
         offset="1"
         id="stop3236" />
    </linearGradient>
    <linearGradient
       gradientUnits="userSpaceOnUse"
       y2="-6.0004225"
       x2="11"
       y1="14.805666"
       x1="11"
       id="linearGradient3221"
       xlink:href="#linearGradient3232"
       inkscape:collect="always" />
    <linearGradient
       id="ButtonColor"
       x1="10.31979"
       y1="21"
       x2="10.31979"
       y2="0.99929649"
       gradientUnits="userSpaceOnUse">
      <stop
         style="stop-color:#e6e6e6;stop-opacity:1;"
         offset="0"
         id="stop3189" />
      <stop
         style="stop-color:#f5f5f5;stop-opacity:1;"
         offset="1"
         id="stop3191" />
    </linearGradient>
    <linearGradient
       inkscape:collect="always"
       xlink:href="#ButtonShadow"
       id="linearGradient38042"
       gradientUnits="userSpaceOnUse"
       gradientTransform="scale(0.9883037,1.0118347)"
       x1="9.3550024"
       y1="21.742682"
       x2="9.3550024"
       y2="0.49362123" />
    <filter
       inkscape:collect="always"
       id="filter3194"
       x="-0.18000001"
       width="1.36"
       y="-0.18000001"
       height="1.36"
       color-interpolation-filters="sRGB">
      <feGaussianBlur
         inkscape:collect="always"
         stdDeviation="1.2"
         id="feGaussianBlur3196" />
    </filter>
    <clipPath
       clipPathUnits="userSpaceOnUse"
       id="clipPath2849">
      <rect
         ry="2"
         rx="2"
         y="1"
         x="1"
         height="20"
         width="20"
         id="rect2851"
         style="fill:#ffffff;fill-opacity:1;fill-rule:evenodd;stroke:none;display:inline" />
    </clipPath>
    <inkscape:perspective
       id="perspective2961"
       inkscape:persp3d-origin="0.5 : 0.33333333 : 1"
       inkscape:vp_z="1 : 0.5 : 1"
       inkscape:vp_y="0 : 1000 : 0"
       inkscape:vp_x="0 : 0.5 : 1"
       sodipodi:type="inkscape:persp3d" />
    <linearGradient
       inkscape:collect="always"
       xlink:href="#linearGradient3729"
       id="linearGradient3745"
       gradientUnits="userSpaceOnUse"
       x1="46.906918"
       y1="75.471306"
       x2="46.906918"
       y2="36.246487"
       gradientTransform="translate(-2,0)" />
    <linearGradient
       id="linearGradient3729">
      <stop
         style="stop-color:#1c59ad;stop-opacity:1;"
         offset="0"
         id="stop3731" />
      <stop
         style="stop-color:#377ad6;stop-opacity:1;"
         offset="1"
         id="stop3733" />
    </linearGradient>
    <linearGradient
       y2="36.246487"
       x2="46.906918"
       y1="75.471306"
       x1="46.906918"
       gradientTransform="matrix(0.275,0,0,0.275,-1.7,-4.9)"
       gradientUnits="userSpaceOnUse"
       id="linearGradient2970"
       xlink:href="#linearGradient3729"
       inkscape:collect="always" />
    <linearGradient
       inkscape:collect="always"
       xlink:href="#linearGradient3729"
       id="linearGradient2891"
       gradientUnits="userSpaceOnUse"
       gradientTransform="matrix(0.275,0,0,0.275,-1.7,-3.9)"
       x1="46.906918"
       y1="75.471306"
       x2="46.906918"
       y2="36.246487" />
    <linearGradient
       inkscape:collect="always"
       xlink:href="#linearGradient3729"
       id="linearGradient2893"
       gradientUnits="userSpaceOnUse"
       gradientTransform="matrix(0.275,0,0,0.275,-1.7,-2.9)"
       x1="46.906918"
       y1="75.471306"
       x2="46.906918"
       y2="36.246487" />
    <linearGradient
       inkscape:collect="always"
       xlink:href="#linearGradient3729"
       id="linearGradient3670"
       gradientUnits="userSpaceOnUse"
       gradientTransform="matrix(0.275,0,0,0.275,-1.7,-1.9)"
       x1="46.906918"
       y1="75.471306"
       x2="46.906918"
       y2="36.246487" />
    <linearGradient
       inkscape:collect="always"
       xlink:href="#linearGradient3729"
       id="linearGradient3674"
       gradientUnits="userSpaceOnUse"
       gradientTransform="matrix(0.275,0,0,0.275,-1.7,-4.9)"
       x1="46.906918"
       y1="75.471306"
       x2="46.906918"
       y2="36.246487" />
    <linearGradient
       y2="16"
       x2="10"
       y1="1"
       x1="10"
       gradientUnits="userSpaceOnUse"
       id="linearGradient3078"
       xlink:href="#linearGradient3823"
       inkscape:collect="always"
       gradientTransform="translate(1,-1)" />
    <linearGradient
       id="linearGradient3823">
      <stop
         id="stop3825"
         offset="0"
         style="stop-color:#ffffff;stop-opacity:1;" />
      <stop
         id="stop3829"
         offset="1"
         style="stop-color:#ffffff;stop-opacity:0;" />
    </linearGradient>
    <linearGradient
       inkscape:collect="always"
       xlink:href="#linearGradient3831"
       id="linearGradient3845"
       x1="11"
       y1="19.5"
       x2="21"
       y2="19.5"
       gradientUnits="userSpaceOnUse"
       spreadMethod="reflect"
       gradientTransform="translate(1,-1)" />
    <linearGradient
       id="linearGradient3831">
      <stop
         style="stop-color:#ffffff;stop-opacity:1;"
         offset="0"
         id="stop3833" />
      <stop
         id="stop3821"
         offset="0.75"
         style="stop-color:#ffffff;stop-opacity:0.49803922;" />
      <stop
         style="stop-color:#ffffff;stop-opacity:0;"
         offset="1"
         id="stop3835" />
    </linearGradient>
    <linearGradient
       y2="16"
       x2="10"
       y1="1"
       x1="10"
       gradientTransform="translate(1,-1)"
       gradientUnits="userSpaceOnUse"
       id="linearGradient3859"
       xlink:href="#linearGradient3823"
       inkscape:collect="always" />
  </defs>
  <sodipodi:namedview
     id="base"
     pagecolor="#ffffff"
     bordercolor="#e7e7e7"
     borderopacity="1"
     inkscape:pageopacity="0.0"
     inkscape:pageshadow="2"
     inkscape:zoom="15.190703"
     inkscape:cx="-12.741689"
     inkscape:cy="6.3993163"
     inkscape:document-units="px"
     inkscape:current-layer="layer1"
     showgrid="true"
     inkscape:showpageshadow="false"
     showguides="false"
     inkscape:guide-bbox="true"
     inkscape:window-width="1920"
     inkscape:window-height="1026"
     inkscape:window-x="0"
     inkscape:window-y="25"
     inkscape:window-maximized="1">
    <sodipodi:guide
       orientation="1,0"
       position="0,112"
       id="guide2383" />
    <sodipodi:guide
       orientation="0,1"
       position="26.278146,128"
       id="guide2385" />
    <sodipodi:guide
       orientation="1,0"
       position="128,54.082119"
       id="guide2387" />
    <sodipodi:guide
       orientation="0,1"
       position="78.156291,0"
       id="guide2389" />
    <sodipodi:guide
       orientation="0,1"
       position="60.863576,64.084768"
       id="guide2391" />
    <inkscape:grid
       type="xygrid"
       id="grid3672"
       visible="true"
       enabled="true"
       empspacing="8"
       snapvisiblegridlinesonly="true" />
  </sodipodi:namedview>
  <metadata
     id="metadata7">
    <rdf:RDF>
      <cc:Work
         rdf:about="">
        <dc:format>image/svg+xml</dc:format>
        <dc:type
           rdf:resource="http://purl.org/dc/dcmitype/StillImage" />
        <dc:title />
      </cc:Work>
    </rdf:RDF>
  </metadata>
  <g
     inkscape:label="Button"
     inkscape:groupmode="layer"
     id="layer1"
     transform="translate(0,2)">
    <g
       style="display:inline"
       id="g3337"
       transform="translate(1,-1)">
      <rect
         ry="2.5"
         rx="2.5"
         y="0.5"
         x="0.5"
         height="21.5"
         width="21"
         id="rect3371"
         style="opacity:0.3;fill:url(#linearGradient3335);fill-opacity:1;stroke:none;display:inline" />
      <rect
         style="opacity:0.5;fill:#000000;fill-opacity:1;stroke:none;display:inline"
         id="rect2553"
         width="20"
         height="20"
         x="1"
         y="2"
         rx="2.3809524"
         ry="2.3255813" />
    </g>
    <rect
       style="fill:url(#linearGradient3181);fill-opacity:1;fill-rule:evenodd;stroke:none;display:inline"
       id="rect3173"
       width="20"
       height="20"
       x="2"
       y="0"
       rx="2"
       ry="2" />
    <path
       style="opacity:0.6;fill:url(#linearGradient3859);fill-opacity:1;fill-rule:evenodd;stroke:none;display:inline"
       d="M 4,0 C 2.892,0 2,0.892 2,2 l 0,16 c 0,1.108 0.892,2 2,2 l 16,0 c 1.108,0 2,-0.892 2,-2 L 22,2 C 22,0.892 21.108,0 20,0 L 4,0 z m 0,1.03125 16,0 c 0.5497,0 0.96875,0.4190495 0.96875,0.96875 l 0,16 c 0,0.5497 -0.41905,0.96875 -0.96875,0.96875 l -16,0 C 3.4502995,18.96875 3.03125,18.5497 3.03125,18 l 0,-16 C 3.03125,1.4502995 3.4502995,1.03125 4,1.03125 z"
       id="rect3050"
       inkscape:connector-curvature="0" />
    <path
       id="path3235"
       d="M 4,20 C 2.892,20 2,19.108 2,18 l 0,-1 c 0,1.108 0.892,2 2,2 l 16,0 c 1.108,0 2,-0.892 2,-2 l 0,1 c 0,1.108 -0.892,2 -2,2 L 4,20 z"
       style="opacity:0.35;fill:url(#linearGradient3845);fill-opacity:1;fill-rule:evenodd;stroke:none;display:inline"
       inkscape:connector-curvature="0" />
  </g>
  <g
     inkscape:groupmode="layer"
     id="layer2"
     inkscape:label="Highlight"
     transform="translate(0,2)"
     sodipodi:insensitive="true"
     style="display:inline">
    <rect
       style="opacity:0.15;fill:#ffffff;fill-opacity:1;fill-rule:nonzero;stroke:none;display:inline;filter:url(#filter3194)"
       id="rect2410"
       width="16"
       height="16"
       x="3"
       y="3"
       rx="2"
       ry="2"
       clip-path="url(#clipPath2849)"
       transform="translate(1,-1)" />
  </g>
  <g
     inkscape:groupmode="layer"
     id="layer3"
     inkscape:label="Symbol"
     transform="translate(0,2)">
    <path
       style="font-size:48px;font-style:normal;font-variant:normal;font-weight:bold;font-stretch:normal;text-align:start;line-height:100%;writing-mode:lr-tb;text-anchor:start;fill:url(#linearGradient2970);fill-opacity:1;stroke:none;font-family:Droid Sans;-inkscape-font-specification:Droid Sans Bold"
       d="m 6,5 0,11 2.105469,0 0,-4.030469 0.730468,0 c 0.827151,4e-6 1.51148,-0.103436 2.053907,-0.300781 0.554833,-0.200004 0.99719,-0.465299 1.323437,-0.790625 0.334775,-0.328853 0.568891,-0.703997 0.713282,-1.134375 C 13.073326,9.3062616 13.149991,8.8478935 13.15,8.36875 13.149991,7.8326493 13.06914,7.3627816 12.909375,6.9507812 12.750326,6.5358142 12.501823,6.192854 12.170313,5.9109375 11.844822,5.6251338 11.421231,5.4037924 10.898437,5.2492187 10.383304,5.0904808 9.753556,5.0000107 9.025,5 L 6,5 z m 2.105469,1.6414062 0.799219,0 c 0.690639,9.7e-6 1.217546,0.1394525 1.572656,0.446875 0.359395,0.3059807 0.524211,0.7817755 0.524219,1.375 -8e-6,0.6357764 -0.183858,1.1298098 -0.584376,1.4351563 -0.389492,0.3014445 -0.947624,0.4296935 -1.658593,0.4296875 l -0.653125,0 0,-3.6867188 z M 16.415625,8.3 c -0.410061,8.2e-6 -0.780511,0.040331 -1.117187,0.1289062 -0.332365,0.084161 -0.613381,0.2139907 -0.850782,0.3867188 -0.237403,0.1727423 -0.420509,0.3918145 -0.55,0.653125 C 13.768164,9.725644 13.7,10.025629 13.7,10.371094 c 0,0.314472 0.03834,0.586097 0.111719,0.816406 0.07338,0.225889 0.179804,0.432996 0.326562,0.610156 0.151073,0.177169 0.347011,0.335093 0.575782,0.48125 0.233083,0.141735 0.501306,0.283531 0.816406,0.429688 0.323727,0.150593 0.583513,0.280423 0.773437,0.386719 0.194235,0.101872 0.339001,0.199442 0.438281,0.283593 0.09927,0.07973 0.163164,0.156739 0.189063,0.232032 0.03021,0.07087 0.04297,0.147616 0.04297,0.240625 -4e-6,0.09301 -0.02131,0.182254 -0.06016,0.266406 -0.03453,0.07972 -0.08987,0.152838 -0.171875,0.214844 -0.0777,0.05758 -0.175609,0.102067 -0.300781,0.1375 -0.125179,0.03101 -0.2785,0.05156 -0.455468,0.05156 -0.15971,1e-6 -0.3343,-0.02056 -0.524219,-0.05156 -0.185606,-0.031 -0.377227,-0.06716 -0.575779,-0.120313 -0.198556,-0.05758 -0.398694,-0.130954 -0.601563,-0.20625 -0.198555,-0.07529 -0.3859,-0.156205 -0.567187,-0.249219 l 0,1.675782 c 0.172655,0.07972 0.33869,0.144507 0.507031,0.197656 0.168338,0.05315 0.342929,0.09347 0.524219,0.128906 0.181286,0.03543 0.372908,0.06406 0.575781,0.07734 C 15.527087,15.991934 15.748533,16 15.985938,16 c 0.448901,0 0.857731,-0.04865 1.220312,-0.146094 0.362573,-0.09744 0.664859,-0.2434 0.919531,-0.438281 0.254662,-0.19488 0.454838,-0.438147 0.592969,-0.730469 0.138119,-0.292319 0.206244,-0.632893 0.20625,-1.022656 -6e-6,-0.327751 -0.05114,-0.611871 -0.146094,-0.842187 -0.09497,-0.230311 -0.226939,-0.428825 -0.403906,-0.601563 -0.176977,-0.172731 -0.389908,-0.322591 -0.635937,-0.455469 -0.24604,-0.137298 -0.51854,-0.275193 -0.825001,-0.4125 -0.263303,-0.12401 -0.480511,-0.225217 -0.644531,-0.309375 -0.164026,-0.08858 -0.287483,-0.169753 -0.378125,-0.240625 -0.09065,-0.07529 -0.150255,-0.148401 -0.180469,-0.214843 -0.03021,-0.07086 -0.05157,-0.152038 -0.05156,-0.240625 -3e-6,-0.168301 0.06392,-0.297866 0.180469,-0.395313 0.120857,-0.097434 0.308161,-0.1460877 0.575781,-0.1460938 0.297828,6.1e-6 0.595915,0.044231 0.89375,0.1460938 0.297827,0.101875 0.617262,0.235871 0.945313,0.395313 L 18.847658,8.9101562 C 18.437593,8.7064244 18.041596,8.5565643 17.653125,8.4546875 17.264645,8.352825 16.847261,8.3000082 16.415625,8.3 z"
       id="path3715" />
    <path
       style="font-size:48px;font-style:normal;font-variant:normal;font-weight:bold;font-stretch:normal;text-align:start;line-height:100%;writing-mode:lr-tb;text-anchor:start;fill:#174586;fill-opacity:1;stroke:none;font-family:Droid Sans;-inkscape-font-specification:Droid Sans Bold"
       d="M 6 7 L 6 8 L 9.03125 8 C 9.759806 8.0000107 10.391117 8.0912621 10.90625 8.25 C 11.429044 8.4045737 11.830759 8.6204463 12.15625 8.90625 C 12.48776 9.1881665 12.747201 9.522533 12.90625 9.9375 C 13.009546 10.20388 13.088201 10.526729 13.125 10.84375 C 13.142485 10.685575 13.156247 10.537987 13.15625 10.375 C 13.156241 9.8388993 13.066015 9.3495004 12.90625 8.9375 C 12.747201 8.522533 12.48776 8.1881665 12.15625 7.90625 C 11.830759 7.6204463 11.429044 7.4045737 10.90625 7.25 C 10.391117 7.0912621 9.759806 7.0000107 9.03125 7 L 6 7 z M 16.40625 10.3125 C 15.996189 10.312508 15.649176 10.348925 15.3125 10.4375 C 14.980135 10.521661 14.674901 10.639772 14.4375 10.8125 C 14.200097 10.985242 14.035741 11.20744 13.90625 11.46875 C 13.776758 11.725644 13.6875 12.029535 13.6875 12.375 C 13.6875 12.559984 13.724139 12.719357 13.75 12.875 C 13.783228 12.724709 13.841504 12.597197 13.90625 12.46875 C 14.035741 12.20744 14.200097 11.985242 14.4375 11.8125 C 14.674901 11.639772 14.980135 11.521661 15.3125 11.4375 C 15.649176 11.348925 15.996189 11.312508 16.40625 11.3125 C 16.837886 11.312508 17.26777 11.366887 17.65625 11.46875 C 17.930922 11.540783 18.215491 11.627909 18.5 11.75 L 18.84375 10.90625 C 18.433685 10.702518 18.044721 10.570627 17.65625 10.46875 C 17.26777 10.366887 16.837886 10.312508 16.40625 10.3125 z M 10.96875 10.96875 C 10.891658 11.361665 10.692013 11.68839 10.40625 11.90625 C 10.016758 12.207695 9.460969 12.312506 8.75 12.3125 L 8.09375 12.3125 L 8.09375 13.3125 L 8.75 13.3125 C 9.460969 13.312506 10.016758 13.207694 10.40625 12.90625 C 10.806768 12.600903 10.999992 12.104527 11 11.46875 C 10.999998 11.29718 10.997043 11.119408 10.96875 10.96875 z M 16 12.875 C 15.940069 12.897256 15.886467 12.903064 15.84375 12.9375 C 15.727201 13.034947 15.656247 13.175449 15.65625 13.34375 C 15.65624 13.432337 15.68854 13.52289 15.71875 13.59375 C 15.748964 13.660192 15.8156 13.73721 15.90625 13.8125 C 15.996892 13.883372 16.117224 13.94267 16.28125 14.03125 C 16.44527 14.115408 16.642947 14.21974 16.90625 14.34375 C 17.212711 14.481057 17.50396 14.612702 17.75 14.75 C 17.996029 14.882878 18.198023 15.046019 18.375 15.21875 C 18.551967 15.391488 18.68628 15.582189 18.78125 15.8125 C 18.828727 15.927658 18.850347 16.077962 18.875 16.21875 C 18.909297 16.048346 18.937497 15.851132 18.9375 15.65625 C 18.937494 15.328499 18.876204 15.042816 18.78125 14.8125 C 18.68628 14.582189 18.551967 14.391488 18.375 14.21875 C 18.198023 14.046019 17.996029 13.882878 17.75 13.75 C 17.50396 13.612702 17.212711 13.481057 16.90625 13.34375 C 16.642947 13.21974 16.44527 13.115408 16.28125 13.03125 C 16.159718 12.965618 16.080143 12.931322 16 12.875 z M 13.71875 15.90625 L 13.71875 16.90625 C 13.900037 16.999264 14.082695 17.08096 14.28125 17.15625 C 14.484119 17.231546 14.676444 17.28617 14.875 17.34375 C 15.073552 17.396903 15.283144 17.43775 15.46875 17.46875 C 15.658669 17.49975 15.84029 17.531251 16 17.53125 C 16.176968 17.53125 16.312321 17.49976 16.4375 17.46875 C 16.562672 17.433317 16.6723 17.40133 16.75 17.34375 C 16.832005 17.281744 16.87172 17.20472 16.90625 17.125 C 16.9451 17.040848 16.968746 16.93676 16.96875 16.84375 C 16.96875 16.750741 16.96771 16.69587 16.9375 16.625 C 16.911601 16.549707 16.84927 16.45473 16.75 16.375 C 16.741757 16.368013 16.727623 16.350917 16.71875 16.34375 C 16.644516 16.394331 16.551881 16.436372 16.4375 16.46875 C 16.312321 16.49976 16.176968 16.53125 16 16.53125 C 15.84029 16.531251 15.658669 16.49975 15.46875 16.46875 C 15.283144 16.43775 15.073552 16.396903 14.875 16.34375 C 14.676444 16.28617 14.484119 16.231546 14.28125 16.15625 C 14.082695 16.08096 13.900037 15.999264 13.71875 15.90625 z "
       transform="translate(0,-2)"
       id="path2887" />
    <path
       style="font-size:48px;font-style:normal;font-variant:normal;font-weight:bold;font-stretch:normal;text-align:start;line-height:100%;writing-mode:lr-tb;text-anchor:start;fill:#ffffff;fill-opacity:1;stroke:none;font-family:Droid Sans;-inkscape-font-specification:Droid Sans Bold;opacity:0.6"
       d="M 8.09375 8.65625 L 8.09375 9.65625 L 8.90625 9.65625 C 9.596889 9.6562597 10.11364 9.7863275 10.46875 10.09375 C 10.724202 10.311236 10.899215 10.59849 10.96875 10.96875 C 10.999708 10.810965 10.999998 10.650911 11 10.46875 C 10.999992 9.8755255 10.828145 9.3997307 10.46875 9.09375 C 10.11364 8.7863275 9.596889 8.6562597 8.90625 8.65625 L 8.09375 8.65625 z M 13.125 10.84375 C 13.091084 11.150572 13.03434 11.46133 12.9375 11.75 C 12.793109 12.180378 12.553525 12.546147 12.21875 12.875 C 11.892503 13.200326 11.429833 13.456246 10.875 13.65625 C 10.332573 13.853595 9.670901 13.968754 8.84375 13.96875 L 8.09375 13.96875 L 8.09375 14.96875 L 8.84375 14.96875 C 9.670901 14.968754 10.332573 14.853595 10.875 14.65625 C 11.429833 14.456246 11.892503 14.200326 12.21875 13.875 C 12.553525 13.546147 12.793109 13.180378 12.9375 12.75 C 13.084263 12.312512 13.156241 11.854143 13.15625 11.375 C 13.156247 11.185516 13.145117 11.017055 13.125 10.84375 z M 18.5 11.75 L 18.25 12.34375 C 17.921949 12.184308 17.610327 12.039375 17.3125 11.9375 C 17.014665 11.835636 16.704078 11.812506 16.40625 11.8125 C 16.13863 11.812506 15.964607 11.84007 15.84375 11.9375 C 15.727201 12.034947 15.656247 12.175449 15.65625 12.34375 C 15.65624 12.432337 15.68854 12.52289 15.71875 12.59375 C 15.748964 12.660192 15.8156 12.73721 15.90625 12.8125 C 15.929732 12.830861 15.971978 12.855307 16 12.875 C 16.10963 12.834288 16.23322 12.812504 16.40625 12.8125 C 16.704078 12.812506 17.014665 12.835636 17.3125 12.9375 C 17.610327 13.039375 17.921949 13.184308 18.25 13.34375 L 18.84375 11.90625 C 18.723625 11.846569 18.617875 11.800584 18.5 11.75 z M 13.75 12.90625 C 13.72069 13.048572 13.6875 13.212897 13.6875 13.375 C 13.6875 13.689472 13.739121 13.957191 13.8125 14.1875 C 13.88588 14.413389 13.978242 14.63534 14.125 14.8125 C 14.276073 14.989669 14.489979 15.135093 14.71875 15.28125 C 14.951833 15.422985 15.21615 15.572593 15.53125 15.71875 C 15.854977 15.869343 16.122576 15.987454 16.3125 16.09375 C 16.490607 16.187163 16.620762 16.264601 16.71875 16.34375 C 16.725753 16.338978 16.743302 16.348714 16.75 16.34375 C 16.832005 16.281744 16.87172 16.20472 16.90625 16.125 C 16.9451 16.040848 16.968746 15.93676 16.96875 15.84375 C 16.96875 15.750741 16.96771 15.69587 16.9375 15.625 C 16.911601 15.549707 16.84927 15.45473 16.75 15.375 C 16.65072 15.290849 16.506735 15.195622 16.3125 15.09375 C 16.122576 14.987454 15.854977 14.869343 15.53125 14.71875 C 15.21615 14.572593 14.951833 14.422985 14.71875 14.28125 C 14.489979 14.135093 14.276073 13.989669 14.125 13.8125 C 13.978242 13.63534 13.88588 13.413389 13.8125 13.1875 C 13.785163 13.101699 13.76744 13.003599 13.75 12.90625 z M 18.875 16.21875 C 18.840703 16.389154 18.78781 16.541341 18.71875 16.6875 C 18.580619 16.979822 18.379662 17.21137 18.125 17.40625 C 17.870328 17.601131 17.581323 17.74631 17.21875 17.84375 C 16.856169 17.941194 16.448901 18 16 18 C 15.762595 18 15.515368 17.986469 15.3125 17.96875 C 15.109627 17.95547 14.931286 17.94168 14.75 17.90625 C 14.56871 17.870814 14.387088 17.8344 14.21875 17.78125 C 14.050409 17.728101 13.891405 17.64222 13.71875 17.5625 L 13.71875 18.5625 C 13.891405 18.64222 14.050409 18.728101 14.21875 18.78125 C 14.387088 18.8344 14.56871 18.870814 14.75 18.90625 C 14.931286 18.94168 15.109627 18.95547 15.3125 18.96875 C 15.515368 18.986469 15.762595 19 16 19 C 16.448901 19 16.856169 18.941194 17.21875 18.84375 C 17.581323 18.74631 17.870328 18.601131 18.125 18.40625 C 18.379662 18.21137 18.580619 17.979822 18.71875 17.6875 C 18.856869 17.395181 18.937494 17.046013 18.9375 16.65625 C 18.937497 16.492375 18.899653 16.359538 18.875 16.21875 z M 6 18 L 6 19 L 8.09375 19 L 8.09375 18 L 6 18 z "
       transform="translate(0,-2)"
       id="path3668" />
  </g>
</svg>
