<?xml version="1.0" encoding="UTF-8" standalone="no"?>
<!-- Created with Inkscape (http://www.inkscape.org/) -->

<svg
   xmlns:dc="http://purl.org/dc/elements/1.1/"
   xmlns:cc="http://creativecommons.org/ns#"
   xmlns:rdf="http://www.w3.org/1999/02/22-rdf-syntax-ns#"
   xmlns:svg="http://www.w3.org/2000/svg"
   xmlns="http://www.w3.org/2000/svg"
   xmlns:xlink="http://www.w3.org/1999/xlink"
   xmlns:sodipodi="http://sodipodi.sourceforge.net/DTD/sodipodi-0.dtd"
   xmlns:inkscape="http://www.inkscape.org/namespaces/inkscape"
   width="24"
   height="24"
   id="svg2"
   sodipodi:version="0.32"
   inkscape:version="0.48.0 r9654"
   version="1.0"
   sodipodi:docname="opera-widget.svg"
   inkscape:output_extension="org.inkscape.output.svg.inkscape"
   style="display:inline">
  <defs
     id="defs4">
    <linearGradient
       inkscape:collect="always"
       id="linearGradient3327">
      <stop
         style="stop-color:#000000;stop-opacity:1;"
         offset="0"
         id="stop3330" />
      <stop
         style="stop-color:#000000;stop-opacity:0;"
         offset="1"
         id="stop3333" />
    </linearGradient>
    <linearGradient
       inkscape:collect="always"
       xlink:href="#linearGradient3327"
       id="linearGradient3335"
       x1="11.375"
       y1="22"
       x2="11.375"
       y2="-9.817296"
       gradientUnits="userSpaceOnUse" />
    <linearGradient
       inkscape:collect="always"
       xlink:href="#ButtonColor"
       id="linearGradient3181"
       x1="-3.0607977"
       y1="27.258198"
       x2="-3.0607977"
       y2="7.2536583"
       gradientUnits="userSpaceOnUse"
       gradientTransform="translate(12.119372,-7.2581977)" />
    <inkscape:perspective
       sodipodi:type="inkscape:persp3d"
       inkscape:vp_x="0 : 11 : 1"
       inkscape:vp_y="0 : 1000 : 0"
       inkscape:vp_z="22 : 11 : 1"
       inkscape:persp3d-origin="11 : 7.3333333 : 1"
       id="perspective2531" />
    <linearGradient
       id="ButtonShadow"
       gradientTransform="scale(0.9883037,1.0118347)"
       x1="9.3550024"
       y1="21.742682"
       x2="9.3550024"
       y2="0.49362123"
       gradientUnits="userSpaceOnUse">
      <stop
         id="stop3277"
         offset="0"
         style="stop-color:#000000;stop-opacity:0.70588237;" />
      <stop
         id="stop3279"
         offset="1"
         style="stop-color:#000000;stop-opacity:0.15686275;" />
    </linearGradient>
    <linearGradient
       inkscape:collect="always"
       id="linearGradient3232">
      <stop
         style="stop-color:#000000;stop-opacity:1;"
         offset="0"
         id="stop3234" />
      <stop
         style="stop-color:#000000;stop-opacity:0;"
         offset="1"
         id="stop3236" />
    </linearGradient>
    <linearGradient
       gradientUnits="userSpaceOnUse"
       y2="-6.0004225"
       x2="11"
       y1="14.805666"
       x1="11"
       id="linearGradient3221"
       xlink:href="#linearGradient3232"
       inkscape:collect="always" />
    <linearGradient
       id="ButtonColor"
       x1="10.31979"
       y1="21"
       x2="10.31979"
       y2="0.99929649"
       gradientUnits="userSpaceOnUse">
      <stop
         style="stop-color:#e6e6e6;stop-opacity:1;"
         offset="0"
         id="stop3189" />
      <stop
         style="stop-color:#f5f5f5;stop-opacity:1;"
         offset="1"
         id="stop3191" />
    </linearGradient>
    <linearGradient
       inkscape:collect="always"
       xlink:href="#ButtonShadow"
       id="linearGradient38042"
       gradientUnits="userSpaceOnUse"
       gradientTransform="scale(0.9883037,1.0118347)"
       x1="9.3550024"
       y1="21.742682"
       x2="9.3550024"
       y2="0.49362123" />
    <filter
       inkscape:collect="always"
       id="filter3194"
       x="-0.18000001"
       width="1.36"
       y="-0.18000001"
       height="1.36"
       color-interpolation-filters="sRGB">
      <feGaussianBlur
         inkscape:collect="always"
         stdDeviation="1.2"
         id="feGaussianBlur3196" />
    </filter>
    <clipPath
       clipPathUnits="userSpaceOnUse"
       id="clipPath2849">
      <rect
         ry="2"
         rx="2"
         y="1"
         x="1"
         height="20"
         width="20"
         id="rect2851"
         style="fill:#ffffff;fill-opacity:1;fill-rule:evenodd;stroke:none;display:inline" />
    </clipPath>
    <inkscape:perspective
       id="perspective2960"
       inkscape:persp3d-origin="0.5 : 0.33333333 : 1"
       inkscape:vp_z="1 : 0.5 : 1"
       inkscape:vp_y="0 : 1000 : 0"
       inkscape:vp_x="0 : 0.5 : 1"
       sodipodi:type="inkscape:persp3d" />
    <linearGradient
       inkscape:collect="always"
       xlink:href="#linearGradient3697"
       id="linearGradient3919"
       x1="18.000002"
       y1="47.999897"
       x2="78.000175"
       y2="47.999897"
       gradientUnits="userSpaceOnUse"
       gradientTransform="matrix(0,-1,1,0,1.905e-4,95.999983)" />
    <linearGradient
       id="linearGradient3697">
      <stop
         style="stop-color:#bababa;stop-opacity:1;"
         offset="0"
         id="stop3699" />
      <stop
         style="stop-color:#d2d2d2;stop-opacity:1;"
         offset="1"
         id="stop3701" />
    </linearGradient>
    <linearGradient
       y2="47.999897"
       x2="78.000175"
       y1="47.999897"
       x1="18.000002"
       gradientTransform="matrix(0,0.23333268,0.23333333,0,0.80003,-1.200002)"
       gradientUnits="userSpaceOnUse"
       id="linearGradient2969"
       xlink:href="#linearGradient3971"
       inkscape:collect="always" />
    <linearGradient
       inkscape:collect="always"
       xlink:href="#linearGradient3697"
       id="linearGradient2891"
       gradientUnits="userSpaceOnUse"
       gradientTransform="matrix(0,-0.23333268,0.23333333,0,0.80003,22.19997)"
       x1="18.000002"
       y1="47.999897"
       x2="78.000175"
       y2="47.999897" />
    <linearGradient
       inkscape:collect="always"
       xlink:href="#linearGradient3697"
       id="linearGradient2893"
       gradientUnits="userSpaceOnUse"
       gradientTransform="matrix(0,-0.23333268,0.23333333,0,0.80003,23.19997)"
       x1="18.000002"
       y1="47.999897"
       x2="78.000175"
       y2="47.999897" />
    <linearGradient
       inkscape:collect="always"
       xlink:href="#linearGradient3697"
       id="linearGradient3670"
       gradientUnits="userSpaceOnUse"
       gradientTransform="matrix(0,-0.23333268,0.23333333,0,0.80003,24.19997)"
       x1="18.000002"
       y1="47.999897"
       x2="78.000175"
       y2="47.999897" />
    <linearGradient
       inkscape:collect="always"
       xlink:href="#linearGradient3697"
       id="linearGradient3674"
       gradientUnits="userSpaceOnUse"
       gradientTransform="matrix(0,-0.23333268,0.23333333,0,0.80003,21.19997)"
       x1="18.000002"
       y1="47.999897"
       x2="78.000175"
       y2="47.999897" />
    <linearGradient
       y2="16"
       x2="10"
       y1="1"
       x1="10"
       gradientUnits="userSpaceOnUse"
       id="linearGradient3078"
       xlink:href="#linearGradient3823"
       inkscape:collect="always"
       gradientTransform="translate(1,-1)" />
    <linearGradient
       id="linearGradient3823">
      <stop
         id="stop3825"
         offset="0"
         style="stop-color:#ffffff;stop-opacity:1;" />
      <stop
         id="stop3829"
         offset="1"
         style="stop-color:#ffffff;stop-opacity:0;" />
    </linearGradient>
    <linearGradient
       inkscape:collect="always"
       xlink:href="#linearGradient3831"
       id="linearGradient3845"
       x1="11"
       y1="19.5"
       x2="21"
       y2="19.5"
       gradientUnits="userSpaceOnUse"
       spreadMethod="reflect"
       gradientTransform="translate(1,-1)" />
    <linearGradient
       id="linearGradient3831">
      <stop
         style="stop-color:#ffffff;stop-opacity:1;"
         offset="0"
         id="stop3833" />
      <stop
         id="stop3821"
         offset="0.75"
         style="stop-color:#ffffff;stop-opacity:0.49803922;" />
      <stop
         style="stop-color:#ffffff;stop-opacity:0;"
         offset="1"
         id="stop3835" />
    </linearGradient>
    <linearGradient
       y2="16"
       x2="10"
       y1="1"
       x1="10"
       gradientTransform="translate(1,-1)"
       gradientUnits="userSpaceOnUse"
       id="linearGradient3859"
       xlink:href="#linearGradient3823"
       inkscape:collect="always" />
    <linearGradient
       y2="47.999897"
       x2="78.000175"
       y1="47.999897"
       x1="18.000002"
       gradientTransform="matrix(0,1,1,0,1.9e-4,-1.9e-4)"
       gradientUnits="userSpaceOnUse"
       id="linearGradient3921"
       xlink:href="#linearGradient3971"
       inkscape:collect="always" />
    <linearGradient
       id="linearGradient3971"
       gradientUnits="userSpaceOnUse"
       x1="628"
       y1="667"
       x2="628"
       y2="779"
       gradientTransform="translate(-564,-664)">
      <stop
         offset="0"
         style="stop-color:#4a91d6;stop-opacity:1;"
         id="stop3973" />
      <stop
         id="stop3977"
         style="stop-color:#225c95;stop-opacity:1;"
         offset="1" />
    </linearGradient>
    <linearGradient
       y2="47.999897"
       x2="78.000175"
       y1="47.999897"
       x1="18.000002"
       gradientTransform="matrix(0,1,1,0,-63.99981,-35.00019)"
       gradientUnits="userSpaceOnUse"
       id="linearGradient3994"
       xlink:href="#linearGradient3971"
       inkscape:collect="always" />
  </defs>
  <sodipodi:namedview
     id="base"
     pagecolor="#ffffff"
     bordercolor="#e7e7e7"
     borderopacity="1"
     inkscape:pageopacity="0.0"
     inkscape:pageshadow="2"
     inkscape:zoom="17.526472"
     inkscape:cx="-12.680485"
     inkscape:cy="7.0741949"
     inkscape:document-units="px"
     inkscape:current-layer="layer1"
     showgrid="true"
     inkscape:showpageshadow="false"
     showguides="false"
     inkscape:guide-bbox="true"
     inkscape:window-width="1920"
     inkscape:window-height="1029"
     inkscape:window-x="0"
     inkscape:window-y="25"
     inkscape:window-maximized="1">
    <sodipodi:guide
       orientation="1,0"
       position="0,112"
       id="guide2383" />
    <sodipodi:guide
       orientation="0,1"
       position="26.278146,128"
       id="guide2385" />
    <sodipodi:guide
       orientation="1,0"
       position="128,54.082119"
       id="guide2387" />
    <sodipodi:guide
       orientation="0,1"
       position="78.156291,0"
       id="guide2389" />
    <sodipodi:guide
       orientation="0,1"
       position="60.863576,64.084768"
       id="guide2391" />
    <inkscape:grid
       type="xygrid"
       id="grid3672"
       visible="true"
       enabled="true"
       empspacing="8"
       snapvisiblegridlinesonly="true" />
  </sodipodi:namedview>
  <metadata
     id="metadata7">
    <rdf:RDF>
      <cc:Work
         rdf:about="">
        <dc:format>image/svg+xml</dc:format>
        <dc:type
           rdf:resource="http://purl.org/dc/dcmitype/StillImage" />
        <dc:title></dc:title>
      </cc:Work>
    </rdf:RDF>
  </metadata>
  <g
     inkscape:label="Button"
     inkscape:groupmode="layer"
     id="layer1"
     transform="translate(0,2)">
    <g
       style="display:inline"
       id="g3337"
       transform="translate(1,-1)">
      <rect
         ry="2.5"
         rx="2.5"
         y="0.5"
         x="0.5"
         height="21.5"
         width="21"
         id="rect3371"
         style="opacity:0.3;fill:url(#linearGradient3335);fill-opacity:1;stroke:none;display:inline" />
      <rect
         style="opacity:0.5;fill:#000000;fill-opacity:1;stroke:none;display:inline"
         id="rect2553"
         width="20"
         height="20"
         x="1"
         y="2"
         rx="2.3809524"
         ry="2.3255813" />
    </g>
    <rect
       style="fill:url(#linearGradient3181);fill-opacity:1;fill-rule:evenodd;stroke:none;display:inline"
       id="rect3173"
       width="20"
       height="20"
       x="2"
       y="0"
       rx="2"
       ry="2" />
    <path
       style="opacity:0.6;fill:url(#linearGradient3859);fill-opacity:1;fill-rule:evenodd;stroke:none;display:inline"
       d="M 4,0 C 2.892,0 2,0.892 2,2 l 0,16 c 0,1.108 0.892,2 2,2 l 16,0 c 1.108,0 2,-0.892 2,-2 L 22,2 C 22,0.892 21.108,0 20,0 L 4,0 z m 0,1.03125 16,0 c 0.5497,0 0.96875,0.4190495 0.96875,0.96875 l 0,16 c 0,0.5497 -0.41905,0.96875 -0.96875,0.96875 l -16,0 C 3.4502995,18.96875 3.03125,18.5497 3.03125,18 l 0,-16 C 3.03125,1.4502995 3.4502995,1.03125 4,1.03125 z"
       id="rect3050"
       inkscape:connector-curvature="0" />
    <path
       id="path3235"
       d="M 4,20 C 2.892,20 2,19.108 2,18 l 0,-1 c 0,1.108 0.892,2 2,2 l 16,0 c 1.108,0 2,-0.892 2,-2 l 0,1 c 0,1.108 -0.892,2 -2,2 L 4,20 z"
       style="opacity:0.35;fill:url(#linearGradient3845);fill-opacity:1;fill-rule:evenodd;stroke:none;display:inline"
       inkscape:connector-curvature="0" />
  </g>
  <g
     inkscape:groupmode="layer"
     id="layer2"
     inkscape:label="Highlight"
     transform="translate(0,2)"
     sodipodi:insensitive="true"
     style="display:inline">
    <rect
       style="opacity:0.15;fill:#ffffff;fill-opacity:1;fill-rule:nonzero;stroke:none;display:inline;filter:url(#filter3194)"
       id="rect2410"
       width="16"
       height="16"
       x="3"
       y="3"
       rx="2"
       ry="2"
       clip-path="url(#clipPath2849)"
       transform="translate(1,-1)" />
  </g>
  <g
     inkscape:groupmode="layer"
     id="layer3"
     inkscape:label="Symbol"
     transform="translate(0,2)">
    <path
       d="m 5.000007,9.03342 c 0,-0.275485 0.228527,-0.498547 0.508721,-0.498547 l 0.986918,0 C 6.626889,8.042289 6.82513,7.571624 7.075588,7.140982 L 6.373553,6.438948 C 6.274493,6.339888 6.222023,6.221218 6.220936,6.09302 6.219836,5.964823 6.265976,5.834314 6.363378,5.736917 L 7.736925,4.363373 C 7.931722,4.168579 8.240833,4.175423 8.43896,4.373523 L 9.140995,5.075557 C 9.571637,4.825101 10.042304,4.626862 10.534889,4.495616 l 0,-0.986915 c 0,-0.280192 0.223063,-0.508719 0.498547,-0.508719 l 1.933139,0 c 0.275484,0 0.498547,0.228527 0.498547,0.50872 l 0,0.986914 c 0.492585,0.131246 0.963253,0.329485 1.393895,0.579942 l 0.702035,-0.702035 c 0.198126,-0.198125 0.507237,-0.204969 0.702034,-0.01015 l 1.373547,1.373544 c 0.194797,0.194794 0.187951,0.503906 -0.01017,0.702031 l -0.702038,0.702034 c 0.250458,0.430643 0.448698,0.901308 0.579941,1.393891 l 0.986919,0 c 0.280193,0 0.508721,0.223062 0.508721,0.498547 l 0,1.933133 c 0,0.275483 -0.228528,0.498544 -0.508721,0.498544 l -0.986918,0 c -0.131244,0.492584 -0.329484,0.963249 -0.579942,1.393891 l 0.702035,0.702034 c 0.198126,0.198125 0.204971,0.507237 0.01017,0.702034 l -1.373546,1.373541 c -0.194797,0.194794 -0.503909,0.187951 -0.702035,-0.01015 l -0.702035,-0.702031 c -0.430642,0.250456 -0.901309,0.448695 -1.393895,0.579939 l 0,0.986917 c 0,0.28019 -0.223062,0.508719 -0.498546,0.508719 l -1.93314,0 c -0.275484,0 -0.498547,-0.228529 -0.498547,-0.508719 l 0,-0.986917 C 10.042301,15.373108 9.571634,15.174868 9.140992,14.924413 L 8.438957,15.626444 C 8.24083,15.824568 7.931719,15.831415 7.736922,15.636599 L 6.363376,14.263057 C 6.168579,14.06826 6.175424,13.759148 6.373546,13.561023 L 7.075581,12.858989 C 6.825123,12.428347 6.626882,11.957682 6.495639,11.465099 l -0.986918,0 C 5.228527,11.465099 5,11.242037 5,10.966554 L 5,9.033421 z m 4.88372,0.9665653 c 0,1.1681837 0.948093,2.1162737 2.116279,2.1162737 1.168185,0 2.116278,-0.948089 2.116278,-2.1162737 0,-1.1681813 -0.948093,-2.1162733 -2.116278,-2.1162733 -1.168186,0 -2.116279,0.948092 -2.116279,2.1162731 z"
       id="rect3267"
       style="fill:url(#linearGradient2969);fill-opacity:1;fill-rule:nonzero;stroke:none;stroke-width:1;marker:none;visibility:visible;display:block;overflow:visible;enable-background:accumulate"
       inkscape:connector-curvature="0" />
    <path
       style="fill:#000000;fill-opacity:1;fill-rule:nonzero;stroke:none;stroke-width:1;marker:none;visibility:visible;display:block;overflow:visible;enable-background:accumulate;opacity:0.2"
       d="M 11.03125 5 C 10.755766 5 10.53125 5.2198102 10.53125 5.5 L 10.53125 6.5 C 10.53125 6.2198102 10.755766 6 11.03125 6 L 12.96875 6 C 13.244234 6 13.46875 6.2198102 13.46875 6.5 L 13.46875 5.5 C 13.46875 5.2198102 13.244234 5 12.96875 5 L 11.03125 5 z M 13.46875 6.5 L 13.46875 7.5 C 13.961336 7.631244 14.413108 7.8120445 14.84375 8.0625 L 15.5625 7.375 C 15.760626 7.1768943 16.055203 7.1802057 16.25 7.375 L 17.46875 8.59375 L 17.625 8.4375 C 17.823126 8.2393749 17.819801 7.9447971 17.625 7.75 L 16.25 6.375 C 16.055203 6.1802057 15.760626 6.1768943 15.5625 6.375 L 14.84375 7.0625 C 14.413108 6.8120445 13.961336 6.631244 13.46875 6.5 z M 10.53125 6.5 C 10.038665 6.6312419 9.586892 6.8120447 9.15625 7.0625 L 8.4375 6.375 C 8.239373 6.1768754 7.944797 6.1801834 7.75 6.375 L 6.375 7.75 C 6.180203 7.9447971 6.176878 8.2393749 6.375 8.4375 L 6.53125 8.59375 L 7.75 7.375 C 7.944797 7.1801834 8.239373 7.1768754 8.4375 7.375 L 9.15625 8.0625 C 9.586892 7.8120447 10.038665 7.6312419 10.53125 7.5 L 10.53125 6.5 z M 6.75 9.8125 C 6.6527271 10.045569 6.5656215 10.284958 6.5 10.53125 L 5.5 10.53125 C 5.219806 10.53125 5 10.755767 5 11.03125 L 5 12.03125 C 5 11.755767 5.219806 11.53125 5.5 11.53125 L 6.5 11.53125 C 6.631243 11.038667 6.812042 10.586892 7.0625 10.15625 L 6.75 9.8125 z M 17.25 9.8125 L 16.9375 10.15625 C 17.187958 10.586893 17.368756 11.038666 17.5 11.53125 L 18.5 11.53125 C 18.780193 11.53125 19 11.755767 19 12.03125 L 19 11.03125 C 19 10.755767 18.780193 10.53125 18.5 10.53125 L 17.5 10.53125 C 17.434378 10.284958 17.347273 10.045569 17.25 9.8125 z M 9.96875 12.5 C 9.9301516 12.659775 9.875 12.828423 9.875 13 C 9.875 14.168181 10.831814 15.125 12 15.125 C 13.168185 15.125 14.125 14.168181 14.125 13 C 14.125 12.828423 14.069848 12.659775 14.03125 12.5 C 13.807051 13.428051 12.996608 14.125 12 14.125 C 11.003391 14.125 10.192949 13.428051 9.96875 12.5 z M 6.75 15.1875 L 6.375 15.5625 C 6.27594 15.66156 6.219837 15.778052 6.21875 15.90625 C 6.21765 16.034447 6.277598 16.152603 6.375 16.25 L 6.53125 16.40625 L 7.0625 15.84375 C 6.937271 15.628429 6.8472729 15.420569 6.75 15.1875 z M 17.25 15.1875 C 17.152727 15.420569 17.062729 15.628429 16.9375 15.84375 L 17.46875 16.40625 L 17.625 16.25 C 17.819797 16.055206 17.823121 15.760625 17.625 15.5625 L 17.25 15.1875 z "
       transform="translate(0,-2)"
       id="path2887" />
    <path
       style="fill:#ffffff;fill-opacity:1;fill-rule:nonzero;stroke:none;stroke-width:1;marker:none;visibility:visible;display:block;overflow:visible;enable-background:accumulate;opacity:0.6"
       d="M 6.53125 8.59375 L 6.375 8.75 C 6.180203 8.9447971 6.176878 9.2393749 6.375 9.4375 L 6.75 9.8125 C 6.8472729 9.5794306 6.937271 9.3715711 7.0625 9.15625 L 6.53125 8.59375 z M 17.46875 8.59375 L 16.9375 9.15625 C 17.062729 9.3715714 17.152727 9.5794305 17.25 9.8125 L 17.625 9.4375 C 17.823126 9.2393749 17.819801 8.9447971 17.625 8.75 L 17.46875 8.59375 z M 12 9.875 C 10.831814 9.875 9.875 10.831815 9.875 12 C 9.875 12.171577 9.9301516 12.340226 9.96875 12.5 C 10.192949 11.571948 11.003391 10.875 12 10.875 C 12.996608 10.875 13.807051 11.571947 14.03125 12.5 C 14.069848 12.340226 14.125 12.171577 14.125 12 C 14.125 10.831815 13.168185 9.875 12 9.875 z M 5 12.96875 L 5 13.96875 C 5 14.244235 5.219806 14.46875 5.5 14.46875 L 6.5 14.46875 C 6.5656215 14.715042 6.6527271 14.954431 6.75 15.1875 L 7.0625 14.84375 C 6.812042 14.413108 6.631243 13.961334 6.5 13.46875 L 5.5 13.46875 C 5.219806 13.46875 5 13.244235 5 12.96875 z M 19 12.96875 C 19 13.244235 18.780193 13.46875 18.5 13.46875 L 17.5 13.46875 C 17.368757 13.961333 17.187958 14.413107 16.9375 14.84375 L 17.25 15.1875 C 17.347273 14.954431 17.434379 14.715041 17.5 14.46875 L 18.5 14.46875 C 18.780193 14.46875 19 14.244235 19 13.96875 L 19 12.96875 z M 6.53125 16.40625 L 6.375 16.5625 C 6.27594 16.66156 6.219837 16.778052 6.21875 16.90625 C 6.21765 17.034447 6.277598 17.152603 6.375 17.25 L 7.75 18.625 C 7.944797 18.819794 8.239373 18.8231 8.4375 18.625 L 9.15625 17.9375 C 9.586892 18.187956 10.038665 18.368754 10.53125 18.5 L 10.53125 17.5 C 10.038665 17.368754 9.586892 17.187956 9.15625 16.9375 L 8.4375 17.625 C 8.239373 17.8231 7.944797 17.819794 7.75 17.625 L 6.53125 16.40625 z M 10.53125 18.5 L 10.53125 19.5 C 10.53125 19.780192 10.755766 20 11.03125 20 L 12.96875 20 C 13.244234 20 13.46875 19.780193 13.46875 19.5 L 13.46875 18.5 C 13.46875 18.780193 13.244234 19 12.96875 19 L 11.03125 19 C 10.755766 19 10.53125 18.780192 10.53125 18.5 z M 13.46875 18.5 C 13.961335 18.368754 14.413108 18.187957 14.84375 17.9375 L 15.5625 18.625 C 15.760626 18.823125 16.055203 18.819819 16.25 18.625 L 17.625 17.25 C 17.819797 17.055206 17.823121 16.760625 17.625 16.5625 L 17.46875 16.40625 L 16.25 17.625 C 16.055203 17.819819 15.760626 17.823125 15.5625 17.625 L 14.84375 16.9375 C 14.413108 17.187957 13.961335 17.368754 13.46875 17.5 L 13.46875 18.5 z "
       transform="translate(0,-2)"
       id="path3668" />
  </g>
</svg>
