<?xml version="1.0" encoding="UTF-8" standalone="no"?>
<!-- Created with Inkscape (http://www.inkscape.org/) -->

<svg
   xmlns:dc="http://purl.org/dc/elements/1.1/"
   xmlns:cc="http://creativecommons.org/ns#"
   xmlns:rdf="http://www.w3.org/1999/02/22-rdf-syntax-ns#"
   xmlns:svg="http://www.w3.org/2000/svg"
   xmlns="http://www.w3.org/2000/svg"
   xmlns:xlink="http://www.w3.org/1999/xlink"
   xmlns:sodipodi="http://sodipodi.sourceforge.net/DTD/sodipodi-0.dtd"
   xmlns:inkscape="http://www.inkscape.org/namespaces/inkscape"
   width="24"
   height="24"
   id="svg2"
   sodipodi:version="0.32"
   inkscape:version="0.48.0 r9654"
   version="1.0"
   sodipodi:docname="opera-unite-application.svg"
   inkscape:output_extension="org.inkscape.output.svg.inkscape"
   style="display:inline">
  <defs
     id="defs4">
    <linearGradient
       inkscape:collect="always"
       id="linearGradient3327">
      <stop
         style="stop-color:#000000;stop-opacity:1;"
         offset="0"
         id="stop3330" />
      <stop
         style="stop-color:#000000;stop-opacity:0;"
         offset="1"
         id="stop3333" />
    </linearGradient>
    <linearGradient
       inkscape:collect="always"
       xlink:href="#linearGradient3327"
       id="linearGradient3335"
       x1="11.375"
       y1="22"
       x2="11.375"
       y2="-9.817296"
       gradientUnits="userSpaceOnUse" />
    <linearGradient
       inkscape:collect="always"
       xlink:href="#ButtonColor"
       id="linearGradient3181"
       x1="-3.0607977"
       y1="27.258198"
       x2="-3.0607977"
       y2="7.2536583"
       gradientUnits="userSpaceOnUse"
       gradientTransform="translate(12.119372,-7.2581977)" />
    <inkscape:perspective
       sodipodi:type="inkscape:persp3d"
       inkscape:vp_x="0 : 11 : 1"
       inkscape:vp_y="0 : 1000 : 0"
       inkscape:vp_z="22 : 11 : 1"
       inkscape:persp3d-origin="11 : 7.3333333 : 1"
       id="perspective2531" />
    <linearGradient
       id="ButtonShadow"
       gradientTransform="scale(0.9883037,1.0118347)"
       x1="9.3550024"
       y1="21.742682"
       x2="9.3550024"
       y2="0.49362123"
       gradientUnits="userSpaceOnUse">
      <stop
         id="stop3277"
         offset="0"
         style="stop-color:#000000;stop-opacity:0.70588237;" />
      <stop
         id="stop3279"
         offset="1"
         style="stop-color:#000000;stop-opacity:0.15686275;" />
    </linearGradient>
    <linearGradient
       inkscape:collect="always"
       id="linearGradient3232">
      <stop
         style="stop-color:#000000;stop-opacity:1;"
         offset="0"
         id="stop3234" />
      <stop
         style="stop-color:#000000;stop-opacity:0;"
         offset="1"
         id="stop3236" />
    </linearGradient>
    <linearGradient
       gradientUnits="userSpaceOnUse"
       y2="-6.0004225"
       x2="11"
       y1="14.805666"
       x1="11"
       id="linearGradient3221"
       xlink:href="#linearGradient3232"
       inkscape:collect="always" />
    <linearGradient
       id="ButtonColor"
       x1="10.31979"
       y1="21"
       x2="10.31979"
       y2="0.99929649"
       gradientUnits="userSpaceOnUse">
      <stop
         style="stop-color:#e6e6e6;stop-opacity:1;"
         offset="0"
         id="stop3189" />
      <stop
         style="stop-color:#f5f5f5;stop-opacity:1;"
         offset="1"
         id="stop3191" />
    </linearGradient>
    <linearGradient
       inkscape:collect="always"
       xlink:href="#ButtonShadow"
       id="linearGradient38042"
       gradientUnits="userSpaceOnUse"
       gradientTransform="scale(0.9883037,1.0118347)"
       x1="9.3550024"
       y1="21.742682"
       x2="9.3550024"
       y2="0.49362123" />
    <filter
       inkscape:collect="always"
       id="filter3194"
       x="-0.18000001"
       width="1.36"
       y="-0.18000001"
       height="1.36"
       color-interpolation-filters="sRGB">
      <feGaussianBlur
         inkscape:collect="always"
         stdDeviation="1.2"
         id="feGaussianBlur3196" />
    </filter>
    <clipPath
       clipPathUnits="userSpaceOnUse"
       id="clipPath2849">
      <rect
         ry="2"
         rx="2"
         y="1"
         x="1"
         height="20"
         width="20"
         id="rect2851"
         style="fill:#ffffff;fill-opacity:1;fill-rule:evenodd;stroke:none;display:inline" />
    </clipPath>
    <linearGradient
       inkscape:collect="always"
       xlink:href="#linearGradient3831"
       id="linearGradient3845"
       x1="11"
       y1="19.5"
       x2="21"
       y2="19.5"
       gradientUnits="userSpaceOnUse"
       spreadMethod="reflect"
       gradientTransform="translate(1,-1)" />
    <linearGradient
       id="linearGradient3831">
      <stop
         style="stop-color:#ffffff;stop-opacity:1;"
         offset="0"
         id="stop3833" />
      <stop
         id="stop3821"
         offset="0.75"
         style="stop-color:#ffffff;stop-opacity:0.49803922;" />
      <stop
         style="stop-color:#ffffff;stop-opacity:0;"
         offset="1"
         id="stop3835" />
    </linearGradient>
    <linearGradient
       y2="16"
       x2="10"
       y1="1"
       x1="10"
       gradientUnits="userSpaceOnUse"
       id="linearGradient3084"
       xlink:href="#linearGradient3823"
       inkscape:collect="always" />
    <linearGradient
       id="linearGradient3823">
      <stop
         id="stop3825"
         offset="0"
         style="stop-color:#ffffff;stop-opacity:1;" />
      <stop
         id="stop3829"
         offset="1"
         style="stop-color:#ffffff;stop-opacity:0;" />
    </linearGradient>
    <linearGradient
       y2="16"
       x2="10"
       y1="1"
       x1="10"
       gradientUnits="userSpaceOnUse"
       id="linearGradient3078"
       xlink:href="#linearGradient3823"
       inkscape:collect="always"
       gradientTransform="translate(1,-1)" />
    <linearGradient
       inkscape:collect="always"
       xlink:href="#SVGID_4_"
       id="linearGradient3891"
       x1="-253.91658"
       y1="-47.862404"
       x2="-132.57481"
       y2="-47.862404"
       gradientUnits="userSpaceOnUse"
       gradientTransform="matrix(0,0.68401839,-0.68401839,0,15.261235,165.68361)" />
    <linearGradient
       id="SVGID_4_"
       gradientUnits="userSpaceOnUse"
       x1="211.5"
       y1="-150"
       x2="211.5"
       y2="-262.00049"
       gradientTransform="matrix(1,0,0,-1,-147.5,-142)">
      <stop
         offset="0"
         style="stop-color:#E1A075"
         id="stop32" />
      <stop
         offset="0.7634"
         style="stop-color:#81422A"
         id="stop34" />
    </linearGradient>
    <linearGradient
       y2="-47.862404"
       x2="-132.57481"
       y1="-47.862404"
       x1="-253.91658"
       gradientTransform="matrix(0,0.1824049,-0.1824049,0,3.269663,41.682296)"
       gradientUnits="userSpaceOnUse"
       id="linearGradient3942"
       xlink:href="#SVGID_4_"
       inkscape:collect="always" />
    <linearGradient
       inkscape:collect="always"
       xlink:href="#SVGID_4_"
       id="linearGradient3066"
       gradientUnits="userSpaceOnUse"
       gradientTransform="matrix(0,0.1824049,-0.1824049,0,3.269663,44.682296)"
       x1="-253.91658"
       y1="-47.862404"
       x2="-132.57481"
       y2="-47.862404" />
    <linearGradient
       inkscape:collect="always"
       xlink:href="#SVGID_4_"
       id="linearGradient3070"
       gradientUnits="userSpaceOnUse"
       gradientTransform="matrix(0,0.1824049,-0.1824049,0,3.269663,41.682296)"
       x1="-253.91658"
       y1="-47.862404"
       x2="-132.57481"
       y2="-47.862404" />
    <linearGradient
       inkscape:collect="always"
       xlink:href="#SVGID_4_"
       id="linearGradient3077"
       gradientUnits="userSpaceOnUse"
       gradientTransform="matrix(0,0.1824049,-0.1824049,0,3.269663,42.182296)"
       x1="-253.91658"
       y1="-47.862404"
       x2="-132.57481"
       y2="-47.862404" />
    <linearGradient
       inkscape:collect="always"
       xlink:href="#SVGID_4_"
       id="linearGradient3079"
       gradientUnits="userSpaceOnUse"
       gradientTransform="matrix(0,0.1824049,-0.1824049,0,3.269663,43.682296)"
       x1="-253.91658"
       y1="-47.862404"
       x2="-132.57481"
       y2="-47.862404" />
  </defs>
  <sodipodi:namedview
     id="base"
     pagecolor="#ffffff"
     bordercolor="#e7e7e7"
     borderopacity="1"
     inkscape:pageopacity="0.0"
     inkscape:pageshadow="2"
     inkscape:zoom="16.65291"
     inkscape:cx="-22.206267"
     inkscape:cy="11.823161"
     inkscape:document-units="px"
     inkscape:current-layer="layer3"
     showgrid="true"
     inkscape:showpageshadow="false"
     showguides="false"
     inkscape:guide-bbox="true"
     inkscape:window-width="1920"
     inkscape:window-height="1029"
     inkscape:window-x="0"
     inkscape:window-y="25"
     inkscape:window-maximized="1">
    <sodipodi:guide
       orientation="1,0"
       position="0,112"
       id="guide2383" />
    <sodipodi:guide
       orientation="0,1"
       position="26.278146,128"
       id="guide2385" />
    <sodipodi:guide
       orientation="1,0"
       position="128,54.082119"
       id="guide2387" />
    <sodipodi:guide
       orientation="0,1"
       position="78.156291,0"
       id="guide2389" />
    <sodipodi:guide
       orientation="0,1"
       position="60.863576,64.084768"
       id="guide2391" />
    <inkscape:grid
       type="xygrid"
       id="grid3672"
       visible="true"
       enabled="true"
       empspacing="8"
       snapvisiblegridlinesonly="true" />
  </sodipodi:namedview>
  <metadata
     id="metadata7">
    <rdf:RDF>
      <cc:Work
         rdf:about="">
        <dc:format>image/svg+xml</dc:format>
        <dc:type
           rdf:resource="http://purl.org/dc/dcmitype/StillImage" />
        <dc:title></dc:title>
      </cc:Work>
    </rdf:RDF>
  </metadata>
  <g
     inkscape:label="Button"
     inkscape:groupmode="layer"
     id="layer1"
     transform="translate(0,2)">
    <g
       style="display:inline"
       id="g3337"
       transform="translate(1,-1)">
      <rect
         ry="2.5"
         rx="2.5"
         y="0.5"
         x="0.5"
         height="21.5"
         width="21"
         id="rect3371"
         style="opacity:0.3;fill:url(#linearGradient3335);fill-opacity:1;stroke:none;display:inline" />
      <rect
         style="opacity:0.5;fill:#000000;fill-opacity:1;stroke:none;display:inline"
         id="rect2553"
         width="20"
         height="20"
         x="1"
         y="2"
         rx="2.3809524"
         ry="2.3255813" />
    </g>
    <rect
       style="fill:url(#linearGradient3181);fill-opacity:1;fill-rule:evenodd;stroke:none;display:inline"
       id="rect3173"
       width="20"
       height="20"
       x="2"
       y="0"
       rx="2"
       ry="2" />
    <path
       style="opacity:0.6;fill:url(#linearGradient3078);fill-opacity:1;fill-rule:evenodd;stroke:none;display:inline"
       d="M 4,0 C 2.892,0 2,0.892 2,2 l 0,16 c 0,1.108 0.892,2 2,2 l 16,0 c 1.108,0 2,-0.892 2,-2 L 22,2 C 22,0.892 21.108,0 20,0 L 4,0 z m 0,1.03125 16,0 c 0.5497,0 0.96875,0.4190495 0.96875,0.96875 l 0,16 c 0,0.5497 -0.41905,0.96875 -0.96875,0.96875 l -16,0 C 3.4502995,18.96875 3.03125,18.5497 3.03125,18 l 0,-16 C 3.03125,1.4502995 3.4502995,1.03125 4,1.03125 z"
       id="rect3050"
       inkscape:connector-curvature="0" />
    <path
       id="path3235"
       d="M 4,20 C 2.892,20 2,19.108 2,18 l 0,-1 c 0,1.108 0.892,2 2,2 l 16,0 c 1.108,0 2,-0.892 2,-2 l 0,1 c 0,1.108 -0.892,2 -2,2 L 4,20 z"
       style="opacity:0.35;fill:url(#linearGradient3845);fill-opacity:1;fill-rule:evenodd;stroke:none;display:inline"
       inkscape:connector-curvature="0" />
  </g>
  <g
     inkscape:groupmode="layer"
     id="layer2"
     inkscape:label="Highlight"
     transform="translate(0,2)"
     sodipodi:insensitive="true"
     style="display:inline">
    <rect
       style="opacity:0.15;fill:#ffffff;fill-opacity:1;fill-rule:nonzero;stroke:none;display:inline;filter:url(#filter3194)"
       id="rect2410"
       width="16"
       height="16"
       x="3"
       y="3"
       rx="2"
       ry="2"
       clip-path="url(#clipPath2849)"
       transform="translate(1,-1)" />
  </g>
  <g
     inkscape:groupmode="layer"
     id="layer3"
     inkscape:label="Symbol"
     transform="translate(0,2)">
    <path
       style="fill:url(#linearGradient3942);fill-opacity:1;display:inline"
       d="m 19.999612,14.315859 c 0.02258,-1.6431 -0.939556,-3.595536 -3.271888,-4.9363327 -2.697768,-1.5655813 -4.736827,-0.2166056 -4.736827,-0.2166056 0,0 2.269345,-0.4955944 3.152185,1.0944293 0.882657,1.590388 0.1612,2.524711 -0.188105,3.129384 -1.16958,2.025971 -0.05048,3.210463 0.894924,3.756401 0.945405,0.545938 2.679893,0.661218 3.693699,-1.09443 0.285082,-0.493877 0.447178,-1.089894 0.456012,-1.732846 z M 16.665023,4.4887953 c 0,-1.091694 -0.771345,-2.650572 -2.798775,-2.650572 -2.027613,0 -4.373249,2.025607 -4.366318,5.7685555 -0.0069,3.1191232 2.183159,4.2124132 2.183159,4.2124132 0,0 -1.562754,-1.712326 -0.627017,-3.2718881 0.935737,-1.5595619 2.106047,-1.4079376 2.804476,-1.4079376 2.339342,0 2.804475,-1.558878 2.804475,-2.650571 z m -2.496667,6.3100687 c 0,0 -0.706773,2.213256 -2.525168,2.183159 -1.81876,-0.03064 -2.267248,-1.122657 -2.61637,-1.727147 -1.169581,-2.0261529 -2.753995,-1.6515847 -3.6994,-1.105829 -0.945405,0.545755 -1.90873,1.994689 -0.894924,3.7507 1.013259,1.755648 3.944141,2.772419 7.182193,0.894925 2.7047,-1.553178 2.553669,-3.995808 2.553669,-3.995808 z"
       id="path3884"
       inkscape:connector-curvature="0" />
    <path
       style="fill:#ffffff;fill-opacity:1;display:inline"
       d="M 16.625 7 C 16.47987 8.0087192 15.864462 9.125 13.875 9.125 C 13.176571 9.125 11.998237 9.0029381 11.0625 10.5625 C 10.744265 11.092892 10.712528 11.632634 10.8125 12.125 C 10.859321 11.928924 10.945533 11.757445 11.0625 11.5625 C 11.998237 10.002938 13.176571 10.125 13.875 10.125 C 16.214342 10.125 16.65625 8.591693 16.65625 7.5 C 16.65625 7.345515 16.657266 7.1674544 16.625 7 z M 9.53125 10.15625 C 9.5235458 10.306384 9.4997109 10.437617 9.5 10.59375 C 9.4931 13.712873 11.6875 14.8125 11.6875 14.8125 C 11.6875 14.8125 11.006486 14.080385 10.8125 13.125 C 10.268679 12.560134 9.6583008 11.611164 9.53125 10.15625 z M 14.03125 11.625 C 12.775235 11.637986 12 12.15625 12 12.15625 C 12 12.15625 14.27341 11.659976 15.15625 13.25 C 15.344719 13.589587 15.438564 13.904559 15.5 14.1875 C 15.613695 13.679537 15.597579 13.045194 15.15625 12.25 C 15.024526 12.01276 14.837564 11.840453 14.65625 11.6875 C 14.442081 11.661276 14.224824 11.622999 14.03125 11.625 z M 14.15625 13.8125 C 14.15625 13.8125 13.998341 14.314696 13.625 14.84375 C 13.594474 14.897997 13.533931 14.945161 13.5 15 C 13.123062 15.609211 12.555502 16.246908 11.625 16.78125 C 8.386948 18.658744 5.450759 17.661898 4.4375 15.90625 C 4.2434717 15.570174 4.1256749 15.246902 4.0625 14.9375 C 3.9491429 15.514543 4.0203438 16.183695 4.4375 16.90625 C 5.450759 18.661898 8.386948 19.658744 11.625 17.78125 C 14.3297 16.228072 14.15625 13.8125 14.15625 13.8125 z M 19.96875 16.78125 C 19.90607 17.243276 19.745061 17.692092 19.53125 18.0625 C 18.517444 19.818148 16.789155 19.702188 15.84375 19.15625 C 15.305009 18.845146 14.727139 18.294624 14.53125 17.53125 C 14.274268 18.865864 15.094883 19.723805 15.84375 20.15625 C 16.789155 20.702188 18.517444 20.818148 19.53125 19.0625 C 19.816332 18.568623 19.991166 17.955452 20 17.3125 C 20.0024 17.137844 19.989065 16.96179 19.96875 16.78125 z "
       transform="translate(0,-2)"
       id="path3064" />
    <path
       style="fill:#000000;fill-opacity:1;display:inline;opacity:0.15"
       d="M 13.875 3.84375 C 11.847387 3.84375 9.493069 5.8508015 9.5 9.59375 C 9.4931 12.712873 11.6875 13.8125 11.6875 13.8125 C 11.6875 13.8125 10.126763 12.122062 11.0625 10.5625 C 11.998237 9.0029381 13.176571 9.125 13.875 9.125 C 16.214342 9.125 16.65625 7.591693 16.65625 6.5 C 16.65625 5.408306 15.90243 3.84375 13.875 3.84375 z M 13.875 4.84375 C 14.630613 4.84375 14.984053 5.0887145 15.25 5.40625 C 15.515947 5.7237855 15.65625 6.1851004 15.65625 6.5 C 15.65625 6.9104593 15.550534 7.3269703 15.34375 7.59375 C 15.136966 7.8605297 14.82545 8.125 13.875 8.125 C 13.584238 8.125 12.96156 8.0779594 12.25 8.3125 C 11.655405 8.5084874 11.022901 8.9694117 10.5 9.65625 C 10.499767 9.6317249 10.499945 9.6186228 10.5 9.59375 C 10.493849 6.2722169 12.509527 4.84375 13.875 4.84375 z M 14.03125 10.625 C 12.775235 10.637986 12 11.15625 12 11.15625 C 12 11.15625 14.27341 10.659976 15.15625 12.25 C 16.038907 13.840388 15.318055 14.770327 14.96875 15.375 C 13.79917 17.400971 14.898346 18.610312 15.84375 19.15625 C 16.789155 19.702188 18.517444 19.818148 19.53125 18.0625 C 19.816332 17.568623 19.991166 16.955452 20 16.3125 C 20.02258 14.6694 19.051082 12.715797 16.71875 11.375 C 15.707087 10.787907 14.784859 10.617209 14.03125 10.625 z M 6.59375 11.71875 C 6.1150755 11.757689 5.6670269 11.951592 5.3125 12.15625 C 4.367095 12.702005 3.423694 14.150239 4.4375 15.90625 C 5.450759 17.661898 8.386948 18.658744 11.625 16.78125 C 14.3297 15.228072 14.15625 12.8125 14.15625 12.8125 C 14.15625 12.8125 13.474645 14.998847 11.65625 14.96875 C 9.83749 14.93811 9.380372 13.85449 9.03125 13.25 C 8.3002619 11.983654 7.3915408 11.653852 6.59375 11.71875 z M 16.21875 12.25 C 18.290357 13.440913 19.016996 15.075722 19 16.3125 C 18.993544 16.78237 18.850365 17.226214 18.65625 17.5625 C 18.277605 18.218214 17.876254 18.426427 17.46875 18.5 C 17.061246 18.573573 16.613798 18.437193 16.34375 18.28125 C 16.003064 18.084515 15.662893 17.770284 15.53125 17.4375 C 15.399607 17.104716 15.370225 16.69525 15.84375 15.875 C 15.980304 15.638615 16.336572 15.135804 16.5 14.40625 C 16.634766 13.804645 16.539 13.036055 16.21875 12.25 z M 6.6875 12.75 C 6.7861423 12.741037 6.8810198 12.737858 6.96875 12.75 C 7.3341967 12.800577 7.6863256 12.935915 8.15625 13.75 C 8.2958 13.991625 8.5718245 14.559533 9.125 15.0625 C 9.589764 15.48508 10.293391 15.76663 11.15625 15.875 C 11.140899 15.884 11.140603 15.89729 11.125 15.90625 C 8.2479767 17.574412 5.9884697 16.577486 5.3125 15.40625 C 4.9326982 14.748396 4.956648 14.298181 5.09375 13.90625 C 5.230852 13.514319 5.5474602 13.18425 5.8125 13.03125 C 6.064073 12.886024 6.391573 12.776889 6.6875 12.75 z "
       transform="translate(0,-2)"
       id="path3850" />
    <path
       style="fill:#000000;fill-opacity:1;display:inline;opacity:0.3"
       d="M 13.875 3.84375 C 11.847387 3.84375 9.493069 5.8508015 9.5 9.59375 C 9.4998328 9.6693288 9.4976498 9.7392868 9.5 9.8125 C 9.6137825 6.2591356 11.901575 4.34375 13.875 4.34375 C 15.757062 4.34375 16.520006 5.684059 16.625 6.75 C 16.631194 6.6610777 16.65625 6.5842851 16.65625 6.5 C 16.65625 5.408306 15.90243 3.84375 13.875 3.84375 z M 14.03125 10.625 C 12.775235 10.637986 12 11.15625 12 11.15625 C 12 11.15625 12.713436 11.040772 13.5 11.1875 C 14.334604 11.07634 15.445879 11.136322 16.71875 11.875 C 18.920215 13.140565 19.915864 14.950315 20 16.53125 C 20.005114 16.457924 19.998974 16.387179 20 16.3125 C 20.02258 14.6694 19.051082 12.715797 16.71875 11.375 C 15.707087 10.787907 14.784859 10.617209 14.03125 10.625 z M 6.59375 11.71875 C 6.1150755 11.757689 5.6670269 11.951592 5.3125 12.15625 C 4.5844647 12.576524 3.8694567 13.530743 4.03125 14.75 C 4.0978804 13.775156 4.6888963 13.016238 5.3125 12.65625 C 6.257905 12.110495 7.861669 11.723847 9.03125 13.75 C 9.380372 14.35449 9.83749 15.43811 11.65625 15.46875 C 13.302097 15.495991 13.969046 13.781356 14.09375 13.4375 C 14.156646 13.06021 14.15625 12.8125 14.15625 12.8125 C 14.15625 12.8125 13.474645 14.998847 11.65625 14.96875 C 9.83749 14.93811 9.380372 13.85449 9.03125 13.25 C 8.3002619 11.983654 7.3915408 11.653852 6.59375 11.71875 z M 10.78125 11.90625 C 10.728316 12.443652 10.895711 12.960689 11.09375 13.375 C 11.432676 13.670687 11.6875 13.8125 11.6875 13.8125 C 11.6875 13.8125 10.906078 12.961675 10.78125 11.90625 z M 15.53125 13.9375 C 15.461228 14.567907 15.170156 15.026352 14.96875 15.375 C 14.546402 16.106601 14.410157 16.728304 14.46875 17.25 C 14.513535 16.845521 14.676355 16.381493 14.96875 15.875 C 15.22142 15.43761 15.637116 14.843402 15.53125 13.9375 z "
       transform="translate(0,-2)"
       id="path3073" />
  </g>
</svg>
