<?xml version="1.0" encoding="UTF-8" standalone="no"?>
<!-- Created with Inkscape (http://www.inkscape.org/) -->

<svg
   xmlns:dc="http://purl.org/dc/elements/1.1/"
   xmlns:cc="http://creativecommons.org/ns#"
   xmlns:rdf="http://www.w3.org/1999/02/22-rdf-syntax-ns#"
   xmlns:svg="http://www.w3.org/2000/svg"
   xmlns="http://www.w3.org/2000/svg"
   xmlns:xlink="http://www.w3.org/1999/xlink"
   xmlns:sodipodi="http://sodipodi.sourceforge.net/DTD/sodipodi-0.dtd"
   xmlns:inkscape="http://www.inkscape.org/namespaces/inkscape"
   width="24"
   height="24"
   id="svg2"
   sodipodi:version="0.32"
   inkscape:version="0.48.0 r9654"
   version="1.0"
   sodipodi:docname="phatch-actionlist.svg"
   inkscape:output_extension="org.inkscape.output.svg.inkscape"
   style="display:inline">
  <defs
     id="defs4">
    <linearGradient
       inkscape:collect="always"
       id="linearGradient3327">
      <stop
         style="stop-color:#000000;stop-opacity:1;"
         offset="0"
         id="stop3330" />
      <stop
         style="stop-color:#000000;stop-opacity:0;"
         offset="1"
         id="stop3333" />
    </linearGradient>
    <linearGradient
       inkscape:collect="always"
       xlink:href="#linearGradient3327"
       id="linearGradient3335"
       x1="11.375"
       y1="22"
       x2="11.375"
       y2="-9.817296"
       gradientUnits="userSpaceOnUse" />
    <linearGradient
       inkscape:collect="always"
       xlink:href="#ButtonColor"
       id="linearGradient3181"
       x1="-3.0607977"
       y1="27.258198"
       x2="-3.0607977"
       y2="7.2536583"
       gradientUnits="userSpaceOnUse"
       gradientTransform="translate(12.119372,-7.2581977)" />
    <inkscape:perspective
       sodipodi:type="inkscape:persp3d"
       inkscape:vp_x="0 : 11 : 1"
       inkscape:vp_y="0 : 1000 : 0"
       inkscape:vp_z="22 : 11 : 1"
       inkscape:persp3d-origin="11 : 7.3333333 : 1"
       id="perspective2531" />
    <linearGradient
       id="ButtonShadow"
       gradientTransform="scale(0.9883037,1.0118347)"
       x1="9.3550024"
       y1="21.742682"
       x2="9.3550024"
       y2="0.49362123"
       gradientUnits="userSpaceOnUse">
      <stop
         id="stop3277"
         offset="0"
         style="stop-color:#000000;stop-opacity:0.70588237;" />
      <stop
         id="stop3279"
         offset="1"
         style="stop-color:#000000;stop-opacity:0.15686275;" />
    </linearGradient>
    <linearGradient
       inkscape:collect="always"
       id="linearGradient3232">
      <stop
         style="stop-color:#000000;stop-opacity:1;"
         offset="0"
         id="stop3234" />
      <stop
         style="stop-color:#000000;stop-opacity:0;"
         offset="1"
         id="stop3236" />
    </linearGradient>
    <linearGradient
       gradientUnits="userSpaceOnUse"
       y2="-6.0004225"
       x2="11"
       y1="14.805666"
       x1="11"
       id="linearGradient3221"
       xlink:href="#linearGradient3232"
       inkscape:collect="always" />
    <linearGradient
       id="ButtonColor"
       x1="10.31979"
       y1="21"
       x2="10.31979"
       y2="0.99929649"
       gradientUnits="userSpaceOnUse">
      <stop
         style="stop-color:#e6e6e6;stop-opacity:1;"
         offset="0"
         id="stop3189" />
      <stop
         style="stop-color:#f5f5f5;stop-opacity:1;"
         offset="1"
         id="stop3191" />
    </linearGradient>
    <linearGradient
       inkscape:collect="always"
       xlink:href="#ButtonShadow"
       id="linearGradient38042"
       gradientUnits="userSpaceOnUse"
       gradientTransform="scale(0.9883037,1.0118347)"
       x1="9.3550024"
       y1="21.742682"
       x2="9.3550024"
       y2="0.49362123" />
    <filter
       inkscape:collect="always"
       id="filter3194"
       x="-0.18000001"
       width="1.36"
       y="-0.18000001"
       height="1.36"
       color-interpolation-filters="sRGB">
      <feGaussianBlur
         inkscape:collect="always"
         stdDeviation="1.2"
         id="feGaussianBlur3196" />
    </filter>
    <clipPath
       clipPathUnits="userSpaceOnUse"
       id="clipPath2849">
      <rect
         ry="2"
         rx="2"
         y="1"
         x="1"
         height="20"
         width="20"
         id="rect2851"
         style="fill:#ffffff;fill-opacity:1;fill-rule:evenodd;stroke:none;display:inline" />
    </clipPath>
    <inkscape:perspective
       id="perspective3692"
       inkscape:persp3d-origin="0.5 : 0.33333333 : 1"
       inkscape:vp_z="1 : 0.5 : 1"
       inkscape:vp_y="0 : 1000 : 0"
       inkscape:vp_x="0 : 0.5 : 1"
       sodipodi:type="inkscape:persp3d" />
    <linearGradient
       inkscape:collect="always"
       xlink:href="#linearGradient3833"
       id="linearGradient3282"
       gradientUnits="userSpaceOnUse"
       gradientTransform="matrix(0.17211216,0,0,0.17199572,-9.525577,-110.13446)"
       x1="120.5"
       y1="706.87787"
       x2="120.5"
       y2="678.83179" />
    <linearGradient
       id="linearGradient3833">
      <stop
         style="stop-color:#8fd400;stop-opacity:1;"
         offset="0"
         id="stop3835" />
      <stop
         style="stop-color:#daff31;stop-opacity:1;"
         offset="1"
         id="stop3837" />
    </linearGradient>
    <linearGradient
       y2="675.35034"
       x2="141"
       y1="723.34747"
       x1="141.70711"
       gradientTransform="matrix(0.17545161,0,0,0.17545161,-9.854714,-112.68071)"
       gradientUnits="userSpaceOnUse"
       id="linearGradient3892"
       xlink:href="#linearGradient4560"
       inkscape:collect="always" />
    <linearGradient
       id="linearGradient4560">
      <stop
         style="stop-color:#444444;stop-opacity:1;"
         offset="0"
         id="stop4562" />
      <stop
         style="stop-color:#888888;stop-opacity:1;"
         offset="1"
         id="stop4564" />
    </linearGradient>
    <linearGradient
       y2="675.35034"
       x2="141"
       y1="723.34747"
       x1="141.70711"
       gradientTransform="matrix(0.17545161,0,0,0.17545161,-9.854714,-112.68071)"
       gradientUnits="userSpaceOnUse"
       id="linearGradient3710"
       xlink:href="#linearGradient4560"
       inkscape:collect="always" />
    <linearGradient
       y2="16"
       x2="10"
       y1="1"
       x1="10"
       gradientUnits="userSpaceOnUse"
       id="linearGradient3078"
       xlink:href="#linearGradient3823"
       inkscape:collect="always"
       gradientTransform="translate(1,-1)" />
    <linearGradient
       id="linearGradient3823">
      <stop
         id="stop3825"
         offset="0"
         style="stop-color:#ffffff;stop-opacity:1;" />
      <stop
         id="stop3829"
         offset="1"
         style="stop-color:#ffffff;stop-opacity:0;" />
    </linearGradient>
    <linearGradient
       inkscape:collect="always"
       xlink:href="#linearGradient3831"
       id="linearGradient3845"
       x1="11"
       y1="19.5"
       x2="21"
       y2="19.5"
       gradientUnits="userSpaceOnUse"
       spreadMethod="reflect"
       gradientTransform="translate(1,-1)" />
    <linearGradient
       id="linearGradient3831">
      <stop
         style="stop-color:#ffffff;stop-opacity:1;"
         offset="0"
         id="stop3833" />
      <stop
         id="stop3821"
         offset="0.75"
         style="stop-color:#ffffff;stop-opacity:0.49803922;" />
      <stop
         style="stop-color:#ffffff;stop-opacity:0;"
         offset="1"
         id="stop3835-3" />
    </linearGradient>
    <linearGradient
       y2="16"
       x2="10"
       y1="1"
       x1="10"
       gradientTransform="translate(1,-1)"
       gradientUnits="userSpaceOnUse"
       id="linearGradient3859"
       xlink:href="#linearGradient3823"
       inkscape:collect="always" />
  </defs>
  <sodipodi:namedview
     id="base"
     pagecolor="#ffffff"
     bordercolor="#e7e7e7"
     borderopacity="1"
     inkscape:pageopacity="0.0"
     inkscape:pageshadow="2"
     inkscape:zoom="16.492183"
     inkscape:cx="-18.823485"
     inkscape:cy="11.823161"
     inkscape:document-units="px"
     inkscape:current-layer="layer1"
     showgrid="true"
     inkscape:showpageshadow="false"
     showguides="false"
     inkscape:guide-bbox="true"
     inkscape:window-width="1920"
     inkscape:window-height="1026"
     inkscape:window-x="0"
     inkscape:window-y="25"
     inkscape:window-maximized="1">
    <sodipodi:guide
       orientation="1,0"
       position="0,112"
       id="guide2383" />
    <sodipodi:guide
       orientation="0,1"
       position="26.278146,128"
       id="guide2385" />
    <sodipodi:guide
       orientation="1,0"
       position="128,54.082119"
       id="guide2387" />
    <sodipodi:guide
       orientation="0,1"
       position="78.156291,0"
       id="guide2389" />
    <sodipodi:guide
       orientation="0,1"
       position="60.863576,64.084768"
       id="guide2391" />
    <inkscape:grid
       type="xygrid"
       id="grid3672"
       visible="true"
       enabled="true"
       empspacing="8"
       snapvisiblegridlinesonly="true" />
  </sodipodi:namedview>
  <metadata
     id="metadata7">
    <rdf:RDF>
      <cc:Work
         rdf:about="">
        <dc:format>image/svg+xml</dc:format>
        <dc:type
           rdf:resource="http://purl.org/dc/dcmitype/StillImage" />
        <dc:title />
      </cc:Work>
    </rdf:RDF>
  </metadata>
  <g
     inkscape:label="Button"
     inkscape:groupmode="layer"
     id="layer1"
     transform="translate(0,2)">
    <g
       style="display:inline"
       id="g3337"
       transform="translate(1,-1)">
      <rect
         ry="2.5"
         rx="2.5"
         y="0.5"
         x="0.5"
         height="21.5"
         width="21"
         id="rect3371"
         style="opacity:0.3;fill:url(#linearGradient3335);fill-opacity:1;stroke:none;display:inline" />
      <rect
         style="opacity:0.5;fill:#000000;fill-opacity:1;stroke:none;display:inline"
         id="rect2553"
         width="20"
         height="20"
         x="1"
         y="2"
         rx="2.3809524"
         ry="2.3255813" />
    </g>
    <rect
       style="fill:url(#linearGradient3181);fill-opacity:1;fill-rule:evenodd;stroke:none;display:inline"
       id="rect3173"
       width="20"
       height="20"
       x="2"
       y="0"
       rx="2"
       ry="2" />
    <path
       style="opacity:0.6;fill:url(#linearGradient3859);fill-opacity:1;fill-rule:evenodd;stroke:none;display:inline"
       d="M 4,0 C 2.892,0 2,0.892 2,2 l 0,16 c 0,1.108 0.892,2 2,2 l 16,0 c 1.108,0 2,-0.892 2,-2 L 22,2 C 22,0.892 21.108,0 20,0 L 4,0 z m 0,1.03125 16,0 c 0.5497,0 0.96875,0.4190495 0.96875,0.96875 l 0,16 c 0,0.5497 -0.41905,0.96875 -0.96875,0.96875 l -16,0 C 3.4502995,18.96875 3.03125,18.5497 3.03125,18 l 0,-16 C 3.03125,1.4502995 3.4502995,1.03125 4,1.03125 z"
       id="rect3050"
       inkscape:connector-curvature="0" />
    <path
       id="path3235"
       d="M 4,20 C 2.892,20 2,19.108 2,18 l 0,-1 c 0,1.108 0.892,2 2,2 l 16,0 c 1.108,0 2,-0.892 2,-2 l 0,1 c 0,1.108 -0.892,2 -2,2 L 4,20 z"
       style="opacity:0.35;fill:url(#linearGradient3845);fill-opacity:1;fill-rule:evenodd;stroke:none;display:inline"
       inkscape:connector-curvature="0" />
  </g>
  <g
     inkscape:groupmode="layer"
     id="layer2"
     inkscape:label="Highlight"
     transform="translate(0,2)"
     sodipodi:insensitive="true"
     style="display:inline">
    <rect
       style="opacity:0.15;fill:#ffffff;fill-opacity:1;fill-rule:nonzero;stroke:none;display:inline;filter:url(#filter3194)"
       id="rect2410"
       width="16"
       height="16"
       x="3"
       y="3"
       rx="2"
       ry="2"
       clip-path="url(#clipPath2849)"
       transform="translate(1,-1)" />
  </g>
  <g
     inkscape:groupmode="layer"
     id="layer3"
     inkscape:label="Symbol"
     transform="translate(0,2)">
    <path
       sodipodi:nodetypes="cscsc"
       id="path3610"
       d="M 3,12.115374 C 3.3917712,12.625327 6.7322754,15 11.122991,15 15.513707,15 19.941114,12.968107 21,11.943182 20.343862,10.960867 16.568586,5.7335339 11.151588,5.8270389 5.3286138,5.9275449 3.0834399,11.742362 3,12.115374 z"
       style="fill:url(#linearGradient3710);fill-opacity:1;stroke:none;display:inline"
       inkscape:transform-center-x="-0.84654315"
       inkscape:transform-center-y="0.14851638" />
    <path
       style="opacity:1;fill:#ffffff;fill-opacity:1;stroke:none;display:inline"
       d="M 20.53125,12.3125 C 18.982979,13.38909 15.053424,15 11.125,15 7.319074,15 4.303755,13.213656 3.3125,12.40625 3.1431603,12.771701 3.0152973,13.056614 3,13.125 3.3917712,13.634953 6.7342844,16 11.125,16 15.515716,16 19.941114,13.962425 21,12.9375 20.90804,12.79983 20.741669,12.590595 20.53125,12.3125 z"
       id="path3706" />
    <path
       style="opacity:0.4;fill:#000000;fill-opacity:1;stroke:none;display:inline"
       d="M 11.15625,5.8124999 C 5.3332758,5.9130059 3.0834399,11.751988 3,12.125 c 0.052179,0.06792 0.1601913,0.15719 0.3125,0.28125 0.7543315,-1.62792 3.0883211,-5.5116702 7.84375,-5.5937501 4.657814,-0.0804 8.084016,3.7938041 9.375,5.5000001 C 20.713448,12.185808 20.888512,12.045413 21,11.9375 20.343862,10.955185 16.573248,5.7189949 11.15625,5.8124999 z"
       id="path3715" />
    <path
       sodipodi:type="inkscape:offset"
       inkscape:radius="0.50611597"
       inkscape:original="M 11.0625 7.125 C 10.842852 7.125 10.615677 7.15164 10.40625 7.1875 L 10.40625 8 C 10.061093 8.07663 9.7580129 8.190875 9.46875 8.375 L 8.875 7.8125 C 8.5160769 8.064135 8.2215133 8.360796 7.96875 8.71875 L 8.53125 9.3125 C 8.3470003 9.601571 8.2016805 9.905077 8.125 10.25 L 7.3125 10.25 C 7.275589 10.462183 7.25 10.68352 7.25 10.90625 C 7.25 11.128984 7.275589 11.350315 7.3125 11.5625 L 8.125 11.5625 C 8.201681 11.907427 8.3470003 12.242185 8.53125 12.53125 L 7.96875 13.09375 C 8.2219193 13.452275 8.5153574 13.74816 8.875 14 L 9.46875 13.4375 C 9.7580129 13.621621 10.061093 13.767121 10.40625 13.84375 L 10.40625 14.65625 C 10.615677 14.6921 10.842849 14.6875 11.0625 14.6875 C 11.288349 14.687497 11.50375 14.69412 11.71875 14.65625 L 11.71875 13.84375 C 12.063907 13.76712 12.366987 13.621628 12.65625 13.4375 L 13.21875 14 C 13.577518 13.747006 13.90424 13.453149 14.15625 13.09375 L 13.59375 12.53125 C 13.777998 12.242181 13.923317 11.907427 14 11.5625 L 14.78125 11.5625 C 14.81816 11.350316 14.84375 11.128978 14.84375 10.90625 C 14.84375 10.683526 14.81815 10.462185 14.78125 10.25 L 14 10.25 C 13.92332 9.905073 13.777998 9.601567 13.59375 9.3125 L 14.15625 8.75 C 13.904612 8.39113 13.608103 8.0653 13.25 7.8125 L 12.65625 8.375 C 12.366987 8.190877 12.063907 8.076631 11.71875 8 L 11.71875 7.1875 C 11.50375 7.14964 11.288349 7.125 11.0625 7.125 z M 11.0625 9.15625 C 12.025943 9.156255 12.8125 9.943459 12.8125 10.90625 C 12.8125 11.869043 12.025943 12.65625 11.0625 12.65625 C 10.099057 12.656254 9.3125 11.869041 9.3125 10.90625 C 9.3125 9.943464 10.099057 9.15625 11.0625 9.15625 z "
       style="opacity:0.2;fill:#000000;fill-opacity:1;fill-rule:nonzero;stroke:none;stroke-width:1;marker:none;visibility:visible;display:inline;overflow:visible;enable-background:accumulate"
       id="path3728"
       d="m 11.0625,6.625 c -0.260571,0 -0.52166,0.023402 -0.75,0.0625 a 0.50616658,0.50616658 0 0 0 -0.40625,0.5 l 0,0.46875 c -0.1066928,0.035671 -0.2093538,0.078529 -0.3125,0.125 L 9.21875,7.4375 A 0.50616658,0.50616658 0 0 0 8.59375,7.40625 C 8.1883039,7.6905015 7.8461317,8.0358314 7.5625,8.4375 a 0.50616658,0.50616658 0 0 0 0.03125,0.625 L 7.9375,9.40625 C 7.8807562,9.5175618 7.8265916,9.6293285 7.78125,9.75 l -0.46875,0 a 0.50616658,0.50616658 0 0 0 -0.5,0.40625 c -0.040327,0.231821 -0.0625,0.488506 -0.0625,0.75 0,0.261498 0.022173,0.518179 0.0625,0.75 a 0.50616658,0.50616658 0 0 0 0.5,0.40625 l 0.46875,0 c 0.046304,0.130137 0.096213,0.252945 0.15625,0.375 L 7.625,12.75 a 0.50616658,0.50616658 0 0 0 -0.0625,0.625 c 0.2837785,0.401872 0.6249902,0.746766 1.03125,1.03125 A 0.50616658,0.50616658 0 0 0 9.21875,14.375 L 9.5625,14.03125 c 0.1112396,0.05673 0.2230679,0.110879 0.34375,0.15625 l 0,0.46875 a 0.50616658,0.50616658 0 0 0 0.40625,0.5 c 0.27652,0.04734 0.537415,0.03125 0.75,0.03125 0.21595,-3e-6 0.468197,0.01839 0.75,-0.03125 a 0.50616658,0.50616658 0 0 0 0.40625,-0.5 l 0,-0.46875 c 0.120682,-0.04537 0.232509,-0.09952 0.34375,-0.15625 l 0.3125,0.3125 a 0.50616658,0.50616658 0 0 0 0.625,0.0625 c 0.391344,-0.275966 0.766888,-0.609669 1.0625,-1.03125 A 0.50616658,0.50616658 0 0 0 14.5,12.75 l -0.3125,-0.3125 c 0.06004,-0.122054 0.109945,-0.244864 0.15625,-0.375 l 0.4375,0 a 0.50616658,0.50616658 0 0 0 0.5,-0.40625 c 0.04033,-0.231819 0.0625,-0.488506 0.0625,-0.75 0,-0.261506 -0.02219,-0.51821 -0.0625,-0.75 a 0.50616658,0.50616658 0 0 0 -0.5,-0.40625 l -0.4375,0 C 14.298408,9.6293277 14.244244,9.5175615 14.1875,9.40625 L 14.5,9.09375 a 0.50616658,0.50616658 0 0 0 0.0625,-0.625 C 14.286241,8.0747672 13.949208,7.701304 13.53125,7.40625 a 0.50616658,0.50616658 0 0 0 -0.625,0.03125 l -0.375,0.34375 c -0.103146,-0.046471 -0.205808,-0.089329 -0.3125,-0.125 l 0,-0.46875 a 0.50616658,0.50616658 0 0 0 -0.40625,-0.5 C 11.577576,6.6461316 11.32516,6.625 11.0625,6.625 z m 0,3.03125 c 0.687755,3.6e-6 1.25,0.562858 1.25,1.25 0,0.687144 -0.562247,1.25 -1.25,1.25 -0.687749,3e-6 -1.25,-0.562858 -1.25,-1.25 0,-0.687135 0.56225,-1.25 1.25,-1.25 z" />
    <path
       inkscape:transform-center-y="0.023930346"
       inkscape:transform-center-x="0.030105972"
       id="path3724"
       d="m 11.055197,7.1230499 c -0.219648,0 -0.437118,0.02055 -0.646545,0.05641 l 0,0.80507 c -0.345157,0.07663 -0.6651604,0.215846 -0.9544233,0.399971 L 8.8795205,7.8101799 c -0.3589231,0.251635 -0.6708726,0.565057 -0.9236359,0.923011 l 0.5747078,0.574318 C 8.3463427,9.5965799 8.207031,9.9163649 8.1303505,10.261288 l -0.8107493,0 c -0.036911,0.212183 -0.056443,0.428506 -0.056443,0.651236 0,0.222734 0.019532,0.444177 0.056443,0.656362 l 0.8107493,0 c 0.076681,0.344927 0.2159922,0.664714 0.4002419,0.953779 l -0.5747078,0.574318 c 0.2531693,0.358525 0.5691247,0.666045 0.9287673,0.917885 l 0.5695768,-0.569192 c 0.2892629,0.184121 0.6092663,0.323343 0.9544233,0.399972 l 0,0.799942 c 0.209427,0.03585 0.426894,0.05641 0.646545,0.05641 0.225849,-3e-6 0.44694,-0.01854 0.66194,-0.05641 l 0,-0.799942 c 0.345157,-0.07663 0.66516,-0.215844 0.954423,-0.399972 l 0.559314,0.564062 c 0.358768,-0.252994 0.676757,-0.56361 0.928767,-0.923009 l -0.564443,-0.564064 c 0.184248,-0.289069 0.323557,-0.608852 0.40024,-0.953779 l 0.790224,0 c 0.03691,-0.212184 0.05644,-0.433634 0.05644,-0.656362 0,-0.222724 -0.01954,-0.439051 -0.05644,-0.651236 l -0.790224,0 C 13.918758,9.9163609 13.779446,9.5965759 13.595198,9.3075089 l 0.564443,-0.564062 c -0.251638,-0.35887 -0.565535,-0.675339 -0.923638,-0.928139 l -0.564443,0.569189 c -0.289263,-0.184123 -0.609266,-0.32334 -0.954423,-0.399971 l 0,-0.799942 c -0.215,-0.03786 -0.436091,-0.06153 -0.66194,-0.06153 z m -0.0051,2.046008 c 0.963443,5e-6 1.749777,0.780675 1.749777,1.7434661 0,0.962793 -0.786334,1.743466 -1.749777,1.743466 -0.963443,4e-6 -1.7446463,-0.780675 -1.7446463,-1.743466 0,-0.9627861 0.7812033,-1.7434661 1.7446463,-1.7434661 z"
       style="opacity:0.3;fill:#000000;fill-opacity:1;fill-rule:nonzero;stroke:none;stroke-width:1;marker:none;visibility:visible;display:inline;overflow:visible;enable-background:accumulate" />
    <path
       style="fill:url(#linearGradient3282);fill-opacity:1;fill-rule:nonzero;stroke:none;stroke-width:1;marker:none;visibility:visible;display:inline;overflow:visible;enable-background:accumulate"
       d="m 11.055197,6.6234259 c -0.219648,0 -0.437118,0.02055 -0.646545,0.05641 l 0,0.80507 c -0.345157,0.07663 -0.6651604,0.215846 -0.9544233,0.399971 L 8.8795205,7.3105559 c -0.3589231,0.251635 -0.6708726,0.565057 -0.9236359,0.923011 l 0.5747078,0.574318 C 8.3463427,9.0969559 8.207031,9.4167409 8.1303505,9.7616639 l -0.8107493,0 c -0.036911,0.212183 -0.056443,0.4285061 -0.056443,0.6512361 0,0.222734 0.019532,0.444177 0.056443,0.656362 l 0.8107493,0 c 0.076681,0.344927 0.2159922,0.664714 0.4002419,0.953779 l -0.5747078,0.574318 c 0.2531693,0.358525 0.5691247,0.666045 0.9287673,0.917885 l 0.5695768,-0.569192 c 0.2892629,0.184121 0.6092663,0.323343 0.9544233,0.399972 l 0,0.799942 c 0.209427,0.03585 0.426894,0.05641 0.646545,0.05641 0.225849,-3e-6 0.44694,-0.01854 0.66194,-0.05641 l 0,-0.799942 c 0.345157,-0.07663 0.66516,-0.215844 0.954423,-0.399972 l 0.559314,0.564062 c 0.358768,-0.252994 0.676757,-0.56361 0.928767,-0.923009 l -0.564443,-0.564064 c 0.184248,-0.289069 0.323557,-0.608852 0.40024,-0.953779 l 0.790224,0 c 0.03691,-0.212184 0.05644,-0.433634 0.05644,-0.656362 0,-0.222724 -0.01954,-0.4390511 -0.05644,-0.6512361 l -0.790224,0 c -0.07668,-0.344927 -0.215992,-0.664712 -0.40024,-0.953779 l 0.564443,-0.564062 c -0.251638,-0.35887 -0.565535,-0.675339 -0.923638,-0.928139 l -0.564443,0.569189 c -0.289263,-0.184123 -0.609266,-0.32334 -0.954423,-0.399971 l 0,-0.799942 c -0.215,-0.03786 -0.436091,-0.06153 -0.66194,-0.06153 z m -0.0051,2.046008 c 0.963443,5e-6 1.749777,0.780675 1.749777,1.7434661 0,0.962793 -0.786334,1.743466 -1.749777,1.743466 -0.963443,4e-6 -1.7446463,-0.780675 -1.7446463,-1.743466 0,-0.9627861 0.7812033,-1.7434661 1.7446463,-1.7434661 z"
       id="path3614"
       inkscape:transform-center-x="0.030105972"
       inkscape:transform-center-y="0.023930346" />
  </g>
</svg>
