<?xml version="1.0" encoding="UTF-8" standalone="no"?>
<!-- Created with Inkscape (http://www.inkscape.org/) -->

<svg
   xmlns:dc="http://purl.org/dc/elements/1.1/"
   xmlns:cc="http://creativecommons.org/ns#"
   xmlns:rdf="http://www.w3.org/1999/02/22-rdf-syntax-ns#"
   xmlns:svg="http://www.w3.org/2000/svg"
   xmlns="http://www.w3.org/2000/svg"
   xmlns:xlink="http://www.w3.org/1999/xlink"
   xmlns:sodipodi="http://sodipodi.sourceforge.net/DTD/sodipodi-0.dtd"
   xmlns:inkscape="http://www.inkscape.org/namespaces/inkscape"
   width="24"
   height="24"
   id="svg2"
   sodipodi:version="0.32"
   inkscape:version="0.48.0 r9654"
   version="1.0"
   sodipodi:docname="rpm.svg"
   inkscape:output_extension="org.inkscape.output.svg.inkscape"
   style="display:inline">
  <defs
     id="defs4">
    <linearGradient
       inkscape:collect="always"
       id="linearGradient3327">
      <stop
         style="stop-color:#000000;stop-opacity:1;"
         offset="0"
         id="stop3330" />
      <stop
         style="stop-color:#000000;stop-opacity:0;"
         offset="1"
         id="stop3333" />
    </linearGradient>
    <linearGradient
       inkscape:collect="always"
       xlink:href="#linearGradient3327"
       id="linearGradient3335"
       x1="11.375"
       y1="22"
       x2="11.375"
       y2="-9.817296"
       gradientUnits="userSpaceOnUse" />
    <linearGradient
       inkscape:collect="always"
       xlink:href="#ButtonColor"
       id="linearGradient3181"
       x1="-3.0607977"
       y1="27.258198"
       x2="-3.0607977"
       y2="7.2536583"
       gradientUnits="userSpaceOnUse"
       gradientTransform="translate(12.119372,-7.2581977)" />
    <inkscape:perspective
       sodipodi:type="inkscape:persp3d"
       inkscape:vp_x="0 : 11 : 1"
       inkscape:vp_y="0 : 1000 : 0"
       inkscape:vp_z="22 : 11 : 1"
       inkscape:persp3d-origin="11 : 7.3333333 : 1"
       id="perspective2531" />
    <linearGradient
       id="ButtonShadow"
       gradientTransform="scale(0.9883037,1.0118347)"
       x1="9.3550024"
       y1="21.742682"
       x2="9.3550024"
       y2="0.49362123"
       gradientUnits="userSpaceOnUse">
      <stop
         id="stop3277"
         offset="0"
         style="stop-color:#000000;stop-opacity:0.70588237;" />
      <stop
         id="stop3279"
         offset="1"
         style="stop-color:#000000;stop-opacity:0.15686275;" />
    </linearGradient>
    <linearGradient
       inkscape:collect="always"
       id="linearGradient3232">
      <stop
         style="stop-color:#000000;stop-opacity:1;"
         offset="0"
         id="stop3234" />
      <stop
         style="stop-color:#000000;stop-opacity:0;"
         offset="1"
         id="stop3236" />
    </linearGradient>
    <linearGradient
       gradientUnits="userSpaceOnUse"
       y2="-6.0004225"
       x2="11"
       y1="14.805666"
       x1="11"
       id="linearGradient3221"
       xlink:href="#linearGradient3232"
       inkscape:collect="always" />
    <linearGradient
       id="ButtonColor"
       x1="10.31979"
       y1="21"
       x2="10.31979"
       y2="0.99929649"
       gradientUnits="userSpaceOnUse">
      <stop
         style="stop-color:#e6e6e6;stop-opacity:1;"
         offset="0"
         id="stop3189" />
      <stop
         style="stop-color:#f5f5f5;stop-opacity:1;"
         offset="1"
         id="stop3191" />
    </linearGradient>
    <linearGradient
       inkscape:collect="always"
       xlink:href="#ButtonShadow"
       id="linearGradient38042"
       gradientUnits="userSpaceOnUse"
       gradientTransform="scale(0.9883037,1.0118347)"
       x1="9.3550024"
       y1="21.742682"
       x2="9.3550024"
       y2="0.49362123" />
    <filter
       inkscape:collect="always"
       id="filter3194"
       x="-0.18000001"
       width="1.36"
       y="-0.18000001"
       height="1.36"
       color-interpolation-filters="sRGB">
      <feGaussianBlur
         inkscape:collect="always"
         stdDeviation="1.2"
         id="feGaussianBlur3196" />
    </filter>
    <clipPath
       clipPathUnits="userSpaceOnUse"
       id="clipPath2849">
      <rect
         ry="2"
         rx="2"
         y="1"
         x="1"
         height="20"
         width="20"
         id="rect2851"
         style="fill:#ffffff;fill-opacity:1;fill-rule:evenodd;stroke:none;display:inline" />
    </clipPath>
    <inkscape:perspective
       id="perspective3792"
       inkscape:persp3d-origin="0.5 : 0.33333333 : 1"
       inkscape:vp_z="1 : 0.5 : 1"
       inkscape:vp_y="0 : 1000 : 0"
       inkscape:vp_x="0 : 0.5 : 1"
       sodipodi:type="inkscape:persp3d" />
    <linearGradient
       y2="16"
       x2="10"
       y1="1"
       x1="10"
       gradientUnits="userSpaceOnUse"
       id="linearGradient3078"
       xlink:href="#linearGradient3823"
       inkscape:collect="always"
       gradientTransform="translate(1,-1)" />
    <linearGradient
       id="linearGradient3823">
      <stop
         id="stop3825"
         offset="0"
         style="stop-color:#ffffff;stop-opacity:1;" />
      <stop
         id="stop3829"
         offset="1"
         style="stop-color:#ffffff;stop-opacity:0;" />
    </linearGradient>
    <linearGradient
       inkscape:collect="always"
       xlink:href="#linearGradient3831"
       id="linearGradient3845"
       x1="11"
       y1="19.5"
       x2="21"
       y2="19.5"
       gradientUnits="userSpaceOnUse"
       spreadMethod="reflect"
       gradientTransform="translate(1,-1)" />
    <linearGradient
       id="linearGradient3831">
      <stop
         style="stop-color:#ffffff;stop-opacity:1;"
         offset="0"
         id="stop3833" />
      <stop
         id="stop3821"
         offset="0.75"
         style="stop-color:#ffffff;stop-opacity:0.49803922;" />
      <stop
         style="stop-color:#ffffff;stop-opacity:0;"
         offset="1"
         id="stop3835" />
    </linearGradient>
    <linearGradient
       y2="16"
       x2="10"
       y1="1"
       x1="10"
       gradientTransform="translate(1,-1)"
       gradientUnits="userSpaceOnUse"
       id="linearGradient3859"
       xlink:href="#linearGradient3823"
       inkscape:collect="always" />
  </defs>
  <sodipodi:namedview
     id="base"
     pagecolor="#ffffff"
     bordercolor="#e7e7e7"
     borderopacity="1"
     inkscape:pageopacity="0.0"
     inkscape:pageshadow="2"
     inkscape:zoom="21.418891"
     inkscape:cx="15.090194"
     inkscape:cy="8.5604492"
     inkscape:document-units="px"
     inkscape:current-layer="layer1"
     showgrid="true"
     inkscape:showpageshadow="false"
     showguides="false"
     inkscape:guide-bbox="true"
     inkscape:window-width="1920"
     inkscape:window-height="1026"
     inkscape:window-x="0"
     inkscape:window-y="25"
     inkscape:window-maximized="1"
     inkscape:snap-global="false">
    <sodipodi:guide
       orientation="1,0"
       position="0,112"
       id="guide2383" />
    <sodipodi:guide
       orientation="0,1"
       position="26.278146,128"
       id="guide2385" />
    <sodipodi:guide
       orientation="1,0"
       position="128,54.082119"
       id="guide2387" />
    <sodipodi:guide
       orientation="0,1"
       position="78.156291,0"
       id="guide2389" />
    <sodipodi:guide
       orientation="0,1"
       position="60.863576,64.084768"
       id="guide2391" />
    <inkscape:grid
       type="xygrid"
       id="grid3672"
       visible="true"
       enabled="true"
       empspacing="8"
       snapvisiblegridlinesonly="true" />
  </sodipodi:namedview>
  <metadata
     id="metadata7">
    <rdf:RDF>
      <cc:Work
         rdf:about="">
        <dc:format>image/svg+xml</dc:format>
        <dc:type
           rdf:resource="http://purl.org/dc/dcmitype/StillImage" />
        <dc:title />
      </cc:Work>
    </rdf:RDF>
  </metadata>
  <g
     inkscape:label="Button"
     inkscape:groupmode="layer"
     id="layer1"
     transform="translate(0,2)">
    <g
       style="display:inline"
       id="g3337"
       transform="translate(1,-1)">
      <rect
         ry="2.5"
         rx="2.5"
         y="0.5"
         x="0.5"
         height="21.5"
         width="21"
         id="rect3371"
         style="opacity:0.3;fill:url(#linearGradient3335);fill-opacity:1;stroke:none;display:inline" />
      <rect
         style="opacity:0.5;fill:#000000;fill-opacity:1;stroke:none;display:inline"
         id="rect2553"
         width="20"
         height="20"
         x="1"
         y="2"
         rx="2.3809524"
         ry="2.3255813" />
    </g>
    <rect
       style="fill:url(#linearGradient3181);fill-opacity:1;fill-rule:evenodd;stroke:none;display:inline"
       id="rect3173"
       width="20"
       height="20"
       x="2"
       y="0"
       rx="2"
       ry="2" />
    <path
       style="opacity:0.6;fill:url(#linearGradient3859);fill-opacity:1;fill-rule:evenodd;stroke:none;display:inline"
       d="M 4,0 C 2.892,0 2,0.892 2,2 l 0,16 c 0,1.108 0.892,2 2,2 l 16,0 c 1.108,0 2,-0.892 2,-2 L 22,2 C 22,0.892 21.108,0 20,0 L 4,0 z m 0,1.03125 16,0 c 0.5497,0 0.96875,0.4190495 0.96875,0.96875 l 0,16 c 0,0.5497 -0.41905,0.96875 -0.96875,0.96875 l -16,0 C 3.4502995,18.96875 3.03125,18.5497 3.03125,18 l 0,-16 C 3.03125,1.4502995 3.4502995,1.03125 4,1.03125 z"
       id="rect3050"
       inkscape:connector-curvature="0" />
    <path
       id="path3235"
       d="M 4,20 C 2.892,20 2,19.108 2,18 l 0,-1 c 0,1.108 0.892,2 2,2 l 16,0 c 1.108,0 2,-0.892 2,-2 l 0,1 c 0,1.108 -0.892,2 -2,2 L 4,20 z"
       style="opacity:0.35;fill:url(#linearGradient3845);fill-opacity:1;fill-rule:evenodd;stroke:none;display:inline"
       inkscape:connector-curvature="0" />
  </g>
  <g
     inkscape:groupmode="layer"
     id="layer2"
     inkscape:label="Highlight"
     transform="translate(0,2)"
     sodipodi:insensitive="true"
     style="display:inline">
    <rect
       style="opacity:0.15;fill:#ffffff;fill-opacity:1;fill-rule:nonzero;stroke:none;display:inline;filter:url(#filter3194)"
       id="rect2410"
       width="16"
       height="16"
       x="3"
       y="3"
       rx="2"
       ry="2"
       clip-path="url(#clipPath2849)"
       transform="translate(1,-1)" />
  </g>
  <g
     inkscape:groupmode="layer"
     id="layer3"
     inkscape:label="Symbol"
     transform="translate(0,2)">
    <path
       id="path16"
       d="m 10.154926,4.3454527 c 0.336439,-0.051695 0.675768,-0.089491 1.015897,-0.107395 0.06042,-0.014395 0.122927,-0.011458 0.184658,-0.013663 0.482605,-0.015394 0.965875,-0.014693 1.448276,0.00701 0.870687,0.061577 1.736965,0.2062262 2.576888,0.447344 l -0.0036,0.00474 c -0.123138,0.166534 -0.246636,0.3328073 -0.367387,0.5010539 -0.03618,0.0067 -0.06785,-0.016208 -0.100073,-0.027738 C 14.272333,4.8938444 13.594,4.7412023 12.911256,4.6586019 11.78825,4.5436005 10.638538,4.6359949 9.5612023,4.9815638 8.7680081,5.2381057 8.0020227,5.6336894 7.4105374,6.230235 6.9913688,6.6588957 6.6695404,7.2134266 6.6258574,7.821012 6.585208,8.110566 6.6545336,8.3996192 6.7158633,8.6806065 6.4816214,8.7045016 6.2521482,8.7619363 6.0195487,8.7977079 5.3649532,8.9150967 4.7104669,9.0332203 4.055688,9.1495527 4.0492995,8.6801861 4.1717445,8.2158095 4.3666714,7.7911879 4.7543828,6.9644149 5.4267064,6.3038471 6.1758385,5.7980822 6.6823865,5.4579765 7.2299415,5.1805143 7.7986579,4.9605033 8.5563187,4.6642898 9.3501569,4.4619018 10.154878,4.3454393 z"
       style="fill:#000000;fill-rule:nonzero;stroke:none;display:inline" />
    <path
       id="path20"
       d="m 15.0097,5.1845483 c 0.120751,-0.1682465 0.244249,-0.3345198 0.367388,-0.5010549 1.127746,0.3302983 2.216796,0.8518676 3.106389,1.629038 0.36375,0.3257243 0.692744,0.6942166 0.94542,1.1134656 0.299216,0.4933877 0.488826,1.0584163 0.509114,1.6372822 C 19.053507,8.9086866 18.16925,8.752775 17.284867,8.5976558 17.393714,8.2514646 17.394643,7.8745415 17.320107,7.521261 17.181968,6.9106988 16.790538,6.3864815 16.318384,5.9885453 15.924785,5.6573578 15.475749,5.3919348 15,5.1976891 l 0.0097,-0.013138 z"
       style="fill:#d72123;fill-rule:nonzero;stroke:none;display:inline" />
    <path
       id="path28"
       d="m 4.0622908,10.336425 c 0.488653,-0.0033 0.9773451,-5.96e-4 1.4660166,-0.0013 4.719e-4,0.01811 0.00144,0.05432 0.00196,0.07243 0.3550682,-0.07732 0.7199963,-0.110206 1.0831532,-0.09016 0.2644317,0.0242 0.5072167,0.13753 0.7436967,0.250024 -0.2665834,0.164828 -0.5378488,0.323609 -0.7979971,0.498049 -0.2898941,-0.223867 -1.0140562,-0.224064 -1.3521268,-0.126116 -0.00422,0.03617 -0.00814,0.07247 -0.00855,0.109094 1.721e-4,0.841239 3.978e-4,2.165039 -1.061e-4,3.006296 -0.4884768,-1.51e-4 -0.6467852,4.46e-4 -1.1352579,-2.98e-4 -0.00103,-1.078485 5.214e-4,-2.639508 -7.944e-4,-3.717983 l 5.8e-6,-3.6e-5 z"
       style="fill:#000000;fill-rule:nonzero;stroke:none;display:inline"
       sodipodi:nodetypes="cssscccscccc" />
    <path
       style="fill:#000000;fill-rule:nonzero;stroke:none;display:inline"
       d="m 8,12.4375 c 3.977e-4,1.377656 8.933e-4,4.189758 0,5.567419 0.072685,-0.0043 0.1478076,-0.0128 0.21875,-0.03125 0.4172943,-0.05569 0.5198821,-0.134676 0.9375,-0.1875 0.00319,-0.222368 -1.154e-4,-1.470084 0,-1.692419 0.039949,-0.0016 0.084922,-0.02905 0.125,-0.03125 0.6307773,-0.04289 1.568404,-0.196452 2.125,-0.5 0.325529,-0.183217 0.663161,-0.427685 0.8125,-0.78125 C 12.34597,14.486538 12.28706,13.769347 12.125,13.5 11.911603,13.153263 11.555582,12.905857 11.1875,12.75 10.594849,12.504727 9.9501794,12.433879 9.3125,12.4375 8.8822092,12.438369 8.4302568,12.4339 8,12.4375 z m 1.125,0.34375 c 0,0 0.028355,8.3e-5 0.03125,0 0.1013194,-0.0029 1.893133,-0.05711 1.84375,1.375 0.07619,1.574619 -1.8125,1.5625 -1.8125,1.5625 -0.00777,0.0011 -0.023898,-9.8e-4 -0.03125,0 -4.719e-4,-0.423016 -0.00183,-0.949432 0,-1.46875 L 9.125,12.78125 z"
       transform="translate(0,-2)"
       id="path32"
       sodipodi:nodetypes="ccscsssssssccsccscc" />
    <path
       id="path36"
       d="m 13.060968,10.38796 c 1.679216,-0.0052 3.358538,-6.21e-4 5.037804,-0.0023 0.491281,0.0021 0.990733,0.0052 1.468635,0.132233 0.137541,0.04531 0.320969,0.09918 0.357147,0.259057 0.0036,0.948597 0.0013,2.329162 0.0011,3.277849 -0.488753,-1.07e-4 -0.571128,-2.97e-4 -1.059843,1.08e-4 -1.07e-4,-0.941295 -0.0021,-2.314372 9.43e-4,-3.255632 -0.08879,-0.07703 -0.215363,-0.07375 -0.325602,-0.08719 -0.301426,-0.0078 -1.161831,-0.0023 -1.463308,-0.0031 6.4e-5,0.971372 0.0011,2.374504 -4.96e-4,3.345882 -0.489445,-4.48e-4 -0.623309,1.28e-4 -1.112723,-2.98e-4 -0.0014,-0.778078 -2.16e-4,-1.987903 -6.21e-4,-2.765971 -0.0039,-0.170021 0.0086,-0.340681 -0.0074,-0.510153 -0.137703,-0.05788 -0.491727,-0.06922 -0.639378,-0.06992 -0.262162,-4.23e-4 -0.90525,1.85e-4 -1.167362,-2.73e-4 -0.0013,0.971701 0.0015,2.375174 -0.0014,3.346872 -0.460854,-5.96e-4 -0.540744,-8.93e-4 -1.001568,1.93e-4 -0.03175,0.0025 -0.06133,-0.0036 -0.08877,-0.01833 0.0076,-1.07231 0.0019,-2.576645 0.0029,-3.649054 l -2.1e-5,2e-6 -3.7e-5,2.5e-5 z"
       style="fill:#000000;fill-rule:nonzero;stroke:none;display:inline"
       sodipodi:nodetypes="cccccccccccccsccccccc" />
  </g>
</svg>
