<?xml version="1.0" encoding="UTF-8" standalone="no"?>
<!-- Created with Inkscape (http://www.inkscape.org/) -->

<svg
   xmlns:dc="http://purl.org/dc/elements/1.1/"
   xmlns:cc="http://creativecommons.org/ns#"
   xmlns:rdf="http://www.w3.org/1999/02/22-rdf-syntax-ns#"
   xmlns:svg="http://www.w3.org/2000/svg"
   xmlns="http://www.w3.org/2000/svg"
   xmlns:xlink="http://www.w3.org/1999/xlink"
   xmlns:sodipodi="http://sodipodi.sourceforge.net/DTD/sodipodi-0.dtd"
   xmlns:inkscape="http://www.inkscape.org/namespaces/inkscape"
   width="24"
   height="24"
   id="svg2"
   sodipodi:version="0.32"
   inkscape:version="0.48.0 r9654"
   version="1.0"
   sodipodi:docname="text-css.svg"
   inkscape:output_extension="org.inkscape.output.svg.inkscape"
   style="display:inline">
  <defs
     id="defs4">
    <linearGradient
       inkscape:collect="always"
       id="linearGradient3327">
      <stop
         style="stop-color:#000000;stop-opacity:1;"
         offset="0"
         id="stop3330" />
      <stop
         style="stop-color:#000000;stop-opacity:0;"
         offset="1"
         id="stop3333" />
    </linearGradient>
    <linearGradient
       inkscape:collect="always"
       xlink:href="#linearGradient3327"
       id="linearGradient3335"
       x1="11.375"
       y1="22"
       x2="11.375"
       y2="-9.817296"
       gradientUnits="userSpaceOnUse" />
    <linearGradient
       inkscape:collect="always"
       xlink:href="#ButtonColor"
       id="linearGradient3181"
       x1="-3.0607977"
       y1="27.258198"
       x2="-3.0607977"
       y2="7.2536583"
       gradientUnits="userSpaceOnUse"
       gradientTransform="translate(12.119372,-7.2581977)" />
    <inkscape:perspective
       sodipodi:type="inkscape:persp3d"
       inkscape:vp_x="0 : 11 : 1"
       inkscape:vp_y="0 : 1000 : 0"
       inkscape:vp_z="22 : 11 : 1"
       inkscape:persp3d-origin="11 : 7.3333333 : 1"
       id="perspective2531" />
    <linearGradient
       id="ButtonShadow"
       gradientTransform="scale(0.9883037,1.0118347)"
       x1="9.3550024"
       y1="21.742682"
       x2="9.3550024"
       y2="0.49362123"
       gradientUnits="userSpaceOnUse">
      <stop
         id="stop3277"
         offset="0"
         style="stop-color:#000000;stop-opacity:0.70588237;" />
      <stop
         id="stop3279"
         offset="1"
         style="stop-color:#000000;stop-opacity:0.15686275;" />
    </linearGradient>
    <linearGradient
       inkscape:collect="always"
       id="linearGradient3232">
      <stop
         style="stop-color:#000000;stop-opacity:1;"
         offset="0"
         id="stop3234" />
      <stop
         style="stop-color:#000000;stop-opacity:0;"
         offset="1"
         id="stop3236" />
    </linearGradient>
    <linearGradient
       gradientUnits="userSpaceOnUse"
       y2="-6.0004225"
       x2="11"
       y1="14.805666"
       x1="11"
       id="linearGradient3221"
       xlink:href="#linearGradient3232"
       inkscape:collect="always" />
    <linearGradient
       id="ButtonColor"
       x1="10.31979"
       y1="21"
       x2="10.31979"
       y2="0.99929649"
       gradientUnits="userSpaceOnUse">
      <stop
         style="stop-color:#e6e6e6;stop-opacity:1;"
         offset="0"
         id="stop3189" />
      <stop
         style="stop-color:#f5f5f5;stop-opacity:1;"
         offset="1"
         id="stop3191" />
    </linearGradient>
    <linearGradient
       inkscape:collect="always"
       xlink:href="#ButtonShadow"
       id="linearGradient38042"
       gradientUnits="userSpaceOnUse"
       gradientTransform="scale(0.9883037,1.0118347)"
       x1="9.3550024"
       y1="21.742682"
       x2="9.3550024"
       y2="0.49362123" />
    <filter
       inkscape:collect="always"
       id="filter3194"
       x="-0.18000001"
       width="1.36"
       y="-0.18000001"
       height="1.36"
       color-interpolation-filters="sRGB">
      <feGaussianBlur
         inkscape:collect="always"
         stdDeviation="1.2"
         id="feGaussianBlur3196" />
    </filter>
    <clipPath
       clipPathUnits="userSpaceOnUse"
       id="clipPath2849">
      <rect
         ry="2"
         rx="2"
         y="1"
         x="1"
         height="20"
         width="20"
         id="rect2851"
         style="fill:#ffffff;fill-opacity:1;fill-rule:evenodd;stroke:none;display:inline" />
    </clipPath>
    <inkscape:perspective
       id="perspective2995"
       inkscape:persp3d-origin="0.5 : 0.33333333 : 1"
       inkscape:vp_z="1 : 0.5 : 1"
       inkscape:vp_y="0 : 1000 : 0"
       inkscape:vp_x="0 : 0.5 : 1"
       sodipodi:type="inkscape:persp3d" />
    <linearGradient
       inkscape:collect="always"
       xlink:href="#linearGradient3699"
       id="linearGradient3705"
       x1="14"
       y1="72"
       x2="34"
       y2="72"
       gradientUnits="userSpaceOnUse"
       gradientTransform="translate(-96,-48)" />
    <linearGradient
       id="linearGradient3699">
      <stop
         style="stop-color:#45c13d;stop-opacity:1;"
         offset="0"
         id="stop3701" />
      <stop
         style="stop-color:#76d56f;stop-opacity:1;"
         offset="1"
         id="stop3703" />
    </linearGradient>
    <linearGradient
       inkscape:collect="always"
       xlink:href="#linearGradient3707"
       id="linearGradient3713"
       x1="38"
       y1="65"
       x2="42"
       y2="65"
       gradientUnits="userSpaceOnUse"
       gradientTransform="translate(-55,-52)" />
    <linearGradient
       id="linearGradient3707">
      <stop
         style="stop-color:#1bb3c6;stop-opacity:1;"
         offset="0"
         id="stop3709" />
      <stop
         style="stop-color:#32cfe3;stop-opacity:1;"
         offset="1"
         id="stop3711" />
    </linearGradient>
    <linearGradient
       inkscape:collect="always"
       xlink:href="#linearGradient3715"
       id="linearGradient3722"
       x1="62"
       y1="64"
       x2="66"
       y2="64"
       gradientUnits="userSpaceOnUse"
       gradientTransform="translate(-79,-47)" />
    <linearGradient
       id="linearGradient3715">
      <stop
         style="stop-color:#3c64dc;stop-opacity:1;"
         offset="0"
         id="stop3717" />
      <stop
         style="stop-color:#6b89e5;stop-opacity:1;"
         offset="1"
         id="stop3719" />
    </linearGradient>
    <linearGradient
       inkscape:collect="always"
       xlink:href="#linearGradient3794"
       id="linearGradient3800"
       x1="14"
       y1="41"
       x2="18"
       y2="41"
       gradientUnits="userSpaceOnUse"
       gradientTransform="translate(-26,-33)" />
    <linearGradient
       id="linearGradient3794">
      <stop
         style="stop-color:#dfa716;stop-opacity:1;"
         offset="0"
         id="stop3796" />
      <stop
         style="stop-color:#ecbb3d;stop-opacity:1;"
         offset="1"
         id="stop3798" />
    </linearGradient>
    <linearGradient
       inkscape:collect="always"
       xlink:href="#linearGradient3786"
       id="linearGradient3792"
       x1="38"
       y1="40"
       x2="42"
       y2="40"
       gradientUnits="userSpaceOnUse"
       gradientTransform="translate(-50,-28)" />
    <linearGradient
       id="linearGradient3786">
      <stop
         style="stop-color:#d652aa;stop-opacity:1;"
         offset="0"
         id="stop3788" />
      <stop
         style="stop-color:#e17fc0;stop-opacity:1;"
         offset="1"
         id="stop3790" />
    </linearGradient>
    <linearGradient
       inkscape:collect="always"
       xlink:href="#linearGradient3802"
       id="linearGradient3808"
       x1="14"
       y1="16"
       x2="18"
       y2="16"
       gradientUnits="userSpaceOnUse"
       gradientTransform="translate(-21,-9)" />
    <linearGradient
       id="linearGradient3802">
      <stop
         style="stop-color:#ed702d;stop-opacity:1;"
         offset="0"
         id="stop3804" />
      <stop
         style="stop-color:#f4915c;stop-opacity:1;"
         offset="1"
         id="stop3806" />
    </linearGradient>
    <linearGradient
       y2="64"
       x2="18"
       y1="64"
       x1="14"
       gradientTransform="translate(-31,-57)"
       gradientUnits="userSpaceOnUse"
       id="linearGradient3042"
       xlink:href="#linearGradient3699"
       inkscape:collect="always" />
    <linearGradient
       inkscape:collect="always"
       xlink:href="#linearGradient3699"
       id="linearGradient2893"
       gradientUnits="userSpaceOnUse"
       gradientTransform="matrix(0,-1,1,0,-57,33)"
       x1="14"
       y1="64"
       x2="18"
       y2="64" />
    <linearGradient
       inkscape:collect="always"
       xlink:href="#linearGradient3699"
       id="linearGradient2896"
       gradientUnits="userSpaceOnUse"
       gradientTransform="matrix(0,-1,1,0,-77,31)"
       x1="14"
       y1="64"
       x2="18"
       y2="64" />
    <linearGradient
       inkscape:collect="always"
       xlink:href="#linearGradient3699"
       id="linearGradient2900"
       gradientUnits="userSpaceOnUse"
       gradientTransform="matrix(0,-1,1,0,-57,33)"
       x1="14"
       y1="64"
       x2="18"
       y2="64" />
    <linearGradient
       inkscape:collect="always"
       xlink:href="#linearGradient3699"
       id="linearGradient2904"
       gradientUnits="userSpaceOnUse"
       gradientTransform="matrix(0,-1,1,0,-57,32)"
       x1="14"
       y1="64"
       x2="18"
       y2="64" />
    <linearGradient
       inkscape:collect="always"
       xlink:href="#linearGradient3699"
       id="linearGradient3681"
       gradientUnits="userSpaceOnUse"
       gradientTransform="matrix(0,-1,1,0,-57,34)"
       x1="14"
       y1="64"
       x2="18"
       y2="64" />
    <linearGradient
       inkscape:collect="always"
       xlink:href="#linearGradient3699"
       id="linearGradient3685"
       gradientUnits="userSpaceOnUse"
       gradientTransform="matrix(0,-1,1,0,-57,31)"
       x1="14"
       y1="64"
       x2="18"
       y2="64" />
    <linearGradient
       y2="16"
       x2="10"
       y1="1"
       x1="10"
       gradientUnits="userSpaceOnUse"
       id="linearGradient3078"
       xlink:href="#linearGradient3823"
       inkscape:collect="always"
       gradientTransform="translate(1,-1)" />
    <linearGradient
       id="linearGradient3823">
      <stop
         id="stop3825"
         offset="0"
         style="stop-color:#ffffff;stop-opacity:1;" />
      <stop
         id="stop3829"
         offset="1"
         style="stop-color:#ffffff;stop-opacity:0;" />
    </linearGradient>
    <linearGradient
       inkscape:collect="always"
       xlink:href="#linearGradient3831"
       id="linearGradient3845"
       x1="11"
       y1="19.5"
       x2="21"
       y2="19.5"
       gradientUnits="userSpaceOnUse"
       spreadMethod="reflect"
       gradientTransform="translate(1,-1)" />
    <linearGradient
       id="linearGradient3831">
      <stop
         style="stop-color:#ffffff;stop-opacity:1;"
         offset="0"
         id="stop3833" />
      <stop
         id="stop3821"
         offset="0.75"
         style="stop-color:#ffffff;stop-opacity:0.49803922;" />
      <stop
         style="stop-color:#ffffff;stop-opacity:0;"
         offset="1"
         id="stop3835" />
    </linearGradient>
    <linearGradient
       y2="16"
       x2="10"
       y1="1"
       x1="10"
       gradientTransform="translate(1,-1)"
       gradientUnits="userSpaceOnUse"
       id="linearGradient3859"
       xlink:href="#linearGradient3823"
       inkscape:collect="always" />
  </defs>
  <sodipodi:namedview
     id="base"
     pagecolor="#ffffff"
     bordercolor="#e7e7e7"
     borderopacity="1"
     inkscape:pageopacity="0.0"
     inkscape:pageshadow="2"
     inkscape:zoom="32.28089"
     inkscape:cx="-1.4295015"
     inkscape:cy="13.258383"
     inkscape:document-units="px"
     inkscape:current-layer="layer1"
     showgrid="true"
     inkscape:showpageshadow="false"
     showguides="false"
     inkscape:guide-bbox="true"
     inkscape:window-width="1920"
     inkscape:window-height="1026"
     inkscape:window-x="0"
     inkscape:window-y="25"
     inkscape:window-maximized="1">
    <sodipodi:guide
       orientation="1,0"
       position="0,112"
       id="guide2383" />
    <sodipodi:guide
       orientation="0,1"
       position="26.278146,128"
       id="guide2385" />
    <sodipodi:guide
       orientation="1,0"
       position="128,54.082119"
       id="guide2387" />
    <sodipodi:guide
       orientation="0,1"
       position="78.156291,0"
       id="guide2389" />
    <sodipodi:guide
       orientation="0,1"
       position="60.863576,64.084768"
       id="guide2391" />
    <inkscape:grid
       type="xygrid"
       id="grid3672"
       visible="true"
       enabled="true"
       empspacing="8"
       snapvisiblegridlinesonly="true" />
  </sodipodi:namedview>
  <metadata
     id="metadata7">
    <rdf:RDF>
      <cc:Work
         rdf:about="">
        <dc:format>image/svg+xml</dc:format>
        <dc:type
           rdf:resource="http://purl.org/dc/dcmitype/StillImage" />
        <dc:title />
      </cc:Work>
    </rdf:RDF>
  </metadata>
  <g
     inkscape:label="Button"
     inkscape:groupmode="layer"
     id="layer1"
     transform="translate(0,2)">
    <g
       style="display:inline"
       id="g3337"
       transform="translate(1,-1)">
      <rect
         ry="2.5"
         rx="2.5"
         y="0.5"
         x="0.5"
         height="21.5"
         width="21"
         id="rect3371"
         style="opacity:0.3;fill:url(#linearGradient3335);fill-opacity:1;stroke:none;display:inline" />
      <rect
         style="opacity:0.5;fill:#000000;fill-opacity:1;stroke:none;display:inline"
         id="rect2553"
         width="20"
         height="20"
         x="1"
         y="2"
         rx="2.3809524"
         ry="2.3255813" />
    </g>
    <rect
       style="fill:url(#linearGradient3181);fill-opacity:1;fill-rule:evenodd;stroke:none;display:inline"
       id="rect3173"
       width="20"
       height="20"
       x="2"
       y="0"
       rx="2"
       ry="2" />
    <path
       style="opacity:0.6;fill:url(#linearGradient3859);fill-opacity:1;fill-rule:evenodd;stroke:none;display:inline"
       d="M 4,0 C 2.892,0 2,0.892 2,2 l 0,16 c 0,1.108 0.892,2 2,2 l 16,0 c 1.108,0 2,-0.892 2,-2 L 22,2 C 22,0.892 21.108,0 20,0 L 4,0 z m 0,1.03125 16,0 c 0.5497,0 0.96875,0.4190495 0.96875,0.96875 l 0,16 c 0,0.5497 -0.41905,0.96875 -0.96875,0.96875 l -16,0 C 3.4502995,18.96875 3.03125,18.5497 3.03125,18 l 0,-16 C 3.03125,1.4502995 3.4502995,1.03125 4,1.03125 z"
       id="rect3050"
       inkscape:connector-curvature="0" />
    <path
       id="path3235"
       d="M 4,20 C 2.892,20 2,19.108 2,18 l 0,-1 c 0,1.108 0.892,2 2,2 l 16,0 c 1.108,0 2,-0.892 2,-2 l 0,1 c 0,1.108 -0.892,2 -2,2 L 4,20 z"
       style="opacity:0.35;fill:url(#linearGradient3845);fill-opacity:1;fill-rule:evenodd;stroke:none;display:inline"
       inkscape:connector-curvature="0" />
  </g>
  <g
     inkscape:groupmode="layer"
     id="layer2"
     inkscape:label="Highlight"
     transform="translate(0,2)"
     sodipodi:insensitive="true"
     style="display:inline">
    <rect
       style="opacity:0.15;fill:#ffffff;fill-opacity:1;fill-rule:nonzero;stroke:none;display:inline;filter:url(#filter3194)"
       id="rect2410"
       width="16"
       height="16"
       x="3"
       y="3"
       rx="2"
       ry="2"
       clip-path="url(#clipPath2849)"
       transform="translate(1,-1)" />
  </g>
  <g
     inkscape:groupmode="layer"
     id="layer3"
     inkscape:label="Symbol"
     transform="translate(0,2)">
    <rect
       transform="matrix(0,-1,1,0,0,0)"
       ry="0.5"
       rx="0.5"
       y="5"
       x="-17"
       height="4"
       width="4"
       id="rect3888"
       style="color:#000000;fill:url(#linearGradient3042);fill-opacity:1;fill-rule:nonzero;stroke:none;stroke-width:1;marker:none;visibility:visible;display:inline;overflow:visible;enable-background:accumulate" />
    <rect
       transform="matrix(0,-1,1,0,0,0)"
       style="color:#000000;fill:url(#linearGradient3713);fill-opacity:1;fill-rule:nonzero;stroke:none;stroke-width:1;marker:none;visibility:visible;display:inline;overflow:visible;enable-background:accumulate"
       id="rect3890"
       width="4"
       height="4"
       x="-17"
       y="10"
       rx="0.5"
       ry="0.5" />
    <rect
       transform="matrix(0,-1,1,0,0,0)"
       ry="0.5"
       rx="0.5"
       y="15"
       x="-17"
       height="4"
       width="4"
       id="rect3892"
       style="color:#000000;fill:url(#linearGradient3722);fill-opacity:1;fill-rule:nonzero;stroke:none;stroke-width:1;marker:none;visibility:visible;display:inline;overflow:visible;enable-background:accumulate" />
    <rect
       transform="matrix(0,-1,1,0,0,0)"
       style="color:#000000;fill:url(#linearGradient3800);fill-opacity:1;fill-rule:nonzero;stroke:none;stroke-width:1;marker:none;visibility:visible;display:inline;overflow:visible;enable-background:accumulate"
       id="rect3894"
       width="4"
       height="4"
       x="-12"
       y="5"
       rx="0.5"
       ry="0.5" />
    <rect
       transform="matrix(0,-1,1,0,0,0)"
       ry="0.5"
       rx="0.5"
       y="10"
       x="-12"
       height="4"
       width="4"
       id="rect3896"
       style="color:#000000;fill:url(#linearGradient3792);fill-opacity:1;fill-rule:nonzero;stroke:none;stroke-width:1;marker:none;visibility:visible;display:inline;overflow:visible;enable-background:accumulate" />
    <rect
       transform="matrix(0,-1,1,0,0,0)"
       ry="0.5"
       rx="0.5"
       y="5"
       x="-7"
       height="4"
       width="4"
       id="rect3898"
       style="color:#000000;fill:url(#linearGradient3808);fill-opacity:1;fill-rule:nonzero;stroke:none;stroke-width:1;marker:none;visibility:visible;display:inline;overflow:visible;enable-background:accumulate" />
    <path
       style="color:#000000;fill:url(#linearGradient2896);fill-opacity:1;fill-rule:nonzero;stroke:none;stroke-width:1;marker:none;visibility:visible;display:inline;overflow:visible;enable-background:accumulate"
       d="M -14.5,3 C -14.777,3 -15,3.223 -15,3.5 l 0,3 c 0,0.277 0.223,0.5 0.5,0.5 l 3,0 c 0.277,0 0.5,-0.223 0.5,-0.5 l 0,-3 C -11,3.223 -11.223,3 -11.5,3 l -3,0 z m 0,5 C -14.777,8 -15,8.223 -15,8.5 l 0,3 c 0,0.277 0.223,0.5 0.5,0.5 l 3,0 c 0.277,0 0.5,-0.223 0.5,-0.5 l 0,-3 C -11,8.223 -11.223,8 -11.5,8 l -3,0 z m 5,0 C -9.777,8 -10,8.223 -10,8.5 l 0,3 c 0,0.277 0.223,0.5 0.5,0.5 l 3,0 c 0.277,0 0.5,-0.223 0.5,-0.5 l 0,-3 C -6,8.223 -6.223,8 -6.5,8 l -3,0 z m -5,5 c -0.277,0 -0.5,0.223 -0.5,0.5 l 0,3 c 0,0.277 0.223,0.5 0.5,0.5 l 3,0 c 0.277,0 0.5,-0.223 0.5,-0.5 l 0,-3 c 0,-0.277 -0.223,-0.5 -0.5,-0.5 l -3,0 z m 5,0 c -0.277,0 -0.5,0.223 -0.5,0.5 l 0,3 c 0,0.277 0.223,0.5 0.5,0.5 l 3,0 c 0.277,0 0.5,-0.223 0.5,-0.5 l 0,-3 C -6,13.223 -6.223,13 -6.5,13 l -3,0 z m 5,0 C -4.777,13 -5,13.223 -5,13.5 l 0,3 c 0,0.277 0.223,0.5 0.5,0.5 l 3,0 c 0.277,0 0.5,-0.223 0.5,-0.5 l 0,-3 C -1,13.223 -1.223,13 -1.5,13 l -3,0 z"
       id="rect2881" />
    <path
       style="color:#000000;fill:#000000;fill-opacity:1;fill-rule:nonzero;stroke:none;stroke-width:1;marker:none;visibility:visible;display:inline;overflow:visible;enable-background:accumulate;opacity:0.2"
       d="M 5.5 5 C 5.223 5 5 5.223 5 5.5 L 5 6.5 C 5 6.223 5.223 6 5.5 6 L 8.5 6 C 8.777 6 9 6.223 9 6.5 L 9 5.5 C 9 5.223 8.777 5 8.5 5 L 5.5 5 z M 5.5 10 C 5.223 10 5 10.223 5 10.5 L 5 11.5 C 5 11.223 5.223 11 5.5 11 L 8.5 11 C 8.777 11 9 11.223 9 11.5 L 9 10.5 C 9 10.223 8.777 10 8.5 10 L 5.5 10 z M 10.5 10 C 10.223 10 10 10.223 10 10.5 L 10 11.5 C 10 11.223 10.223 11 10.5 11 L 13.5 11 C 13.777 11 14 11.223 14 11.5 L 14 10.5 C 14 10.223 13.777 10 13.5 10 L 10.5 10 z M 5.5 15 C 5.223 15 5 15.223 5 15.5 L 5 16.5 C 5 16.223 5.223 16 5.5 16 L 8.5 16 C 8.777 16 9 16.223 9 16.5 L 9 15.5 C 9 15.223 8.777 15 8.5 15 L 5.5 15 z M 10.5 15 C 10.223 15 10 15.223 10 15.5 L 10 16.5 C 10 16.223 10.223 16 10.5 16 L 13.5 16 C 13.777 16 14 16.223 14 16.5 L 14 15.5 C 14 15.223 13.777 15 13.5 15 L 10.5 15 z M 15.5 15 C 15.223 15 15 15.223 15 15.5 L 15 16.5 C 15 16.223 15.223 16 15.5 16 L 18.5 16 C 18.777 16 19 16.223 19 16.5 L 19 15.5 C 19 15.223 18.777 15 18.5 15 L 15.5 15 z "
       transform="translate(0,-2)"
       id="path2898" />
    <path
       style="color:#000000;fill:#ffffff;fill-opacity:1;fill-rule:nonzero;stroke:none;stroke-width:1;marker:none;visibility:visible;display:inline;overflow:visible;enable-background:accumulate"
       d="M 5 8.5 L 5 9.5 C 5 9.777 5.223 10 5.5 10 L 8.5 10 C 8.777 10 9 9.777 9 9.5 L 9 8.5 C 9 8.777 8.777 9 8.5 9 L 5.5 9 C 5.223 9 5 8.777 5 8.5 z M 5 13.5 L 5 14.5 C 5 14.777 5.223 15 5.5 15 L 8.5 15 C 8.777 15 9 14.777 9 14.5 L 9 13.5 C 9 13.777 8.777 14 8.5 14 L 5.5 14 C 5.223 14 5 13.777 5 13.5 z M 10 13.5 L 10 14.5 C 10 14.777 10.223 15 10.5 15 L 13.5 15 C 13.777 15 14 14.777 14 14.5 L 14 13.5 C 14 13.777 13.777 14 13.5 14 L 10.5 14 C 10.223 14 10 13.777 10 13.5 z M 5 18.5 L 5 19.5 C 5 19.777 5.223 20 5.5 20 L 8.5 20 C 8.777 20 9 19.777 9 19.5 L 9 18.5 C 9 18.777 8.777 19 8.5 19 L 5.5 19 C 5.223 19 5 18.777 5 18.5 z M 10 18.5 L 10 19.5 C 10 19.777 10.223 20 10.5 20 L 13.5 20 C 13.777 20 14 19.777 14 19.5 L 14 18.5 C 14 18.777 13.777 19 13.5 19 L 10.5 19 C 10.223 19 10 18.777 10 18.5 z M 15 18.5 L 15 19.5 C 15 19.777 15.223 20 15.5 20 L 18.5 20 C 18.777 20 19 19.777 19 19.5 L 19 18.5 C 19 18.777 18.777 19 18.5 19 L 15.5 19 C 15.223 19 15 18.777 15 18.5 z "
       transform="translate(0,-2)"
       id="path3679" />
  </g>
</svg>
