<?xml version="1.0" encoding="UTF-8" standalone="no"?>
<!-- Created with Inkscape (http://www.inkscape.org/) -->

<svg
   xmlns:dc="http://purl.org/dc/elements/1.1/"
   xmlns:cc="http://creativecommons.org/ns#"
   xmlns:rdf="http://www.w3.org/1999/02/22-rdf-syntax-ns#"
   xmlns:svg="http://www.w3.org/2000/svg"
   xmlns="http://www.w3.org/2000/svg"
   xmlns:xlink="http://www.w3.org/1999/xlink"
   xmlns:sodipodi="http://sodipodi.sourceforge.net/DTD/sodipodi-0.dtd"
   xmlns:inkscape="http://www.inkscape.org/namespaces/inkscape"
   width="24"
   height="24"
   id="svg2"
   sodipodi:version="0.32"
   inkscape:version="0.48.0 r9654"
   version="1.0"
   sodipodi:docname="text-x-bak.svg"
   inkscape:output_extension="org.inkscape.output.svg.inkscape"
   style="display:inline">
  <defs
     id="defs4">
    <linearGradient
       inkscape:collect="always"
       id="linearGradient3327">
      <stop
         style="stop-color:#000000;stop-opacity:1;"
         offset="0"
         id="stop3330" />
      <stop
         style="stop-color:#000000;stop-opacity:0;"
         offset="1"
         id="stop3333" />
    </linearGradient>
    <linearGradient
       inkscape:collect="always"
       xlink:href="#linearGradient3327"
       id="linearGradient3335"
       x1="11.375"
       y1="22"
       x2="11.375"
       y2="-9.817296"
       gradientUnits="userSpaceOnUse" />
    <linearGradient
       inkscape:collect="always"
       xlink:href="#linearGradient3668"
       id="linearGradient3181"
       x1="-3.0607977"
       y1="27.258198"
       x2="-3.0607977"
       y2="7.2536583"
       gradientUnits="userSpaceOnUse"
       gradientTransform="translate(12.119372,-7.2581977)" />
    <inkscape:perspective
       sodipodi:type="inkscape:persp3d"
       inkscape:vp_x="0 : 11 : 1"
       inkscape:vp_y="0 : 1000 : 0"
       inkscape:vp_z="22 : 11 : 1"
       inkscape:persp3d-origin="11 : 7.3333333 : 1"
       id="perspective2531" />
    <linearGradient
       id="ButtonShadow"
       gradientTransform="scale(0.9883037,1.0118347)"
       x1="9.3550024"
       y1="21.742682"
       x2="9.3550024"
       y2="0.49362123"
       gradientUnits="userSpaceOnUse">
      <stop
         id="stop3277"
         offset="0"
         style="stop-color:#000000;stop-opacity:0.70588237;" />
      <stop
         id="stop3279"
         offset="1"
         style="stop-color:#000000;stop-opacity:0.15686275;" />
    </linearGradient>
    <linearGradient
       inkscape:collect="always"
       id="linearGradient3232">
      <stop
         style="stop-color:#000000;stop-opacity:1;"
         offset="0"
         id="stop3234" />
      <stop
         style="stop-color:#000000;stop-opacity:0;"
         offset="1"
         id="stop3236" />
    </linearGradient>
    <linearGradient
       gradientUnits="userSpaceOnUse"
       y2="-6.0004225"
       x2="11"
       y1="14.805666"
       x1="11"
       id="linearGradient3221"
       xlink:href="#linearGradient3232"
       inkscape:collect="always" />
    <linearGradient
       id="ButtonColor"
       x1="10.31979"
       y1="21"
       x2="10.31979"
       y2="0.99929649"
       gradientUnits="userSpaceOnUse">
      <stop
         style="stop-color:#e6e6e6;stop-opacity:1;"
         offset="0"
         id="stop3189" />
      <stop
         style="stop-color:#f5f5f5;stop-opacity:1;"
         offset="1"
         id="stop3191" />
    </linearGradient>
    <linearGradient
       inkscape:collect="always"
       xlink:href="#ButtonShadow"
       id="linearGradient38042"
       gradientUnits="userSpaceOnUse"
       gradientTransform="scale(0.9883037,1.0118347)"
       x1="9.3550024"
       y1="21.742682"
       x2="9.3550024"
       y2="0.49362123" />
    <filter
       inkscape:collect="always"
       id="filter3194"
       x="-0.18000001"
       width="1.36"
       y="-0.18000001"
       height="1.36"
       color-interpolation-filters="sRGB">
      <feGaussianBlur
         inkscape:collect="always"
         stdDeviation="1.2"
         id="feGaussianBlur3196" />
    </filter>
    <clipPath
       clipPathUnits="userSpaceOnUse"
       id="clipPath2849">
      <rect
         ry="2"
         rx="2"
         y="1"
         x="1"
         height="20"
         width="20"
         id="rect2851"
         style="fill:#ffffff;fill-opacity:1;fill-rule:evenodd;stroke:none;display:inline" />
    </clipPath>
    <inkscape:perspective
       id="perspective2907"
       inkscape:persp3d-origin="0.5 : 0.33333333 : 1"
       inkscape:vp_z="1 : 0.5 : 1"
       inkscape:vp_y="0 : 1000 : 0"
       inkscape:vp_x="0 : 0.5 : 1"
       sodipodi:type="inkscape:persp3d" />
    <linearGradient
       inkscape:collect="always"
       xlink:href="#linearGradient4360"
       id="linearGradient3759"
       gradientUnits="userSpaceOnUse"
       gradientTransform="matrix(0.20408363,0,0,0.21718514,-0.53692582,-3.399849)"
       x1="62.136082"
       y1="103.95654"
       x2="62.136082"
       y2="24.043467" />
    <linearGradient
       id="linearGradient4360">
      <stop
         style="stop-color:#4f821e;stop-opacity:1;"
         offset="0"
         id="stop4362" />
      <stop
         style="stop-color:#639632;stop-opacity:1;"
         offset="1"
         id="stop4364" />
    </linearGradient>
    <linearGradient
       inkscape:collect="always"
       xlink:href="#linearGradient3668"
       id="linearGradient3706"
       x1="48"
       y1="90"
       x2="48"
       y2="5.9877172"
       gradientUnits="userSpaceOnUse" />
    <linearGradient
       id="linearGradient3668">
      <stop
         id="stop3670"
         offset="0"
         style="stop-color:#e5e6b5;stop-opacity:1;" />
      <stop
         id="stop3672"
         offset="1"
         style="stop-color:#f6f6dc;stop-opacity:1;" />
    </linearGradient>
    <linearGradient
       gradientTransform="translate(-7,-35)"
       y2="5.9877172"
       x2="48"
       y1="90"
       x1="48"
       gradientUnits="userSpaceOnUse"
       id="linearGradient2921"
       xlink:href="#linearGradient3668"
       inkscape:collect="always" />
    <linearGradient
       inkscape:collect="always"
       xlink:href="#linearGradient4360"
       id="linearGradient3692"
       gradientUnits="userSpaceOnUse"
       gradientTransform="matrix(0.20408363,0,0,0.21718514,-0.53692582,-0.399849)"
       x1="62.136082"
       y1="103.95654"
       x2="62.136082"
       y2="24.043467" />
    <linearGradient
       inkscape:collect="always"
       xlink:href="#linearGradient4360"
       id="linearGradient3696"
       gradientUnits="userSpaceOnUse"
       gradientTransform="matrix(0.20408363,0,0,0.21718514,-0.53692582,-3.399849)"
       x1="62.136082"
       y1="103.95654"
       x2="62.136082"
       y2="24.043467" />
    <linearGradient
       inkscape:collect="always"
       xlink:href="#linearGradient4360"
       id="linearGradient3703"
       gradientUnits="userSpaceOnUse"
       gradientTransform="matrix(0.20408363,0,0,0.21718514,-0.53692582,-2.399849)"
       x1="62.136082"
       y1="103.95654"
       x2="62.136082"
       y2="24.043467" />
    <linearGradient
       inkscape:collect="always"
       xlink:href="#linearGradient4360"
       id="linearGradient3705"
       gradientUnits="userSpaceOnUse"
       gradientTransform="matrix(0.20408363,0,0,0.21718514,-0.53692582,-1.399849)"
       x1="62.136082"
       y1="103.95654"
       x2="62.136082"
       y2="24.043467" />
    <inkscape:perspective
       id="perspective3689"
       inkscape:persp3d-origin="0.5 : 0.33333333 : 1"
       inkscape:vp_z="1 : 0.5 : 1"
       inkscape:vp_y="0 : 1000 : 0"
       inkscape:vp_x="0 : 0.5 : 1"
       sodipodi:type="inkscape:persp3d" />
    <linearGradient
       inkscape:collect="always"
       xlink:href="#linearGradient4360-2"
       id="linearGradient3679"
       x1="7.6343994"
       y1="12.919167"
       x2="7.6343994"
       y2="2.0223684"
       gradientUnits="userSpaceOnUse" />
    <linearGradient
       id="linearGradient4360-2">
      <stop
         style="stop-color:#4f821e;stop-opacity:1;"
         offset="0"
         id="stop4362-4" />
      <stop
         style="stop-color:#639632;stop-opacity:1;"
         offset="1"
         id="stop4364-3" />
    </linearGradient>
    <linearGradient
       gradientTransform="translate(31.348851,-15.07251)"
       y2="2.0223684"
       x2="7.6343994"
       y1="12.919167"
       x1="7.6343994"
       gradientUnits="userSpaceOnUse"
       id="linearGradient3698"
       xlink:href="#linearGradient4360-2"
       inkscape:collect="always" />
    <linearGradient
       y2="16"
       x2="10"
       y1="1"
       x1="10"
       gradientUnits="userSpaceOnUse"
       id="linearGradient3078"
       xlink:href="#linearGradient3823"
       inkscape:collect="always"
       gradientTransform="translate(1,-1)" />
    <linearGradient
       id="linearGradient3823">
      <stop
         id="stop3825"
         offset="0"
         style="stop-color:#ffffff;stop-opacity:1;" />
      <stop
         id="stop3829"
         offset="1"
         style="stop-color:#ffffff;stop-opacity:0;" />
    </linearGradient>
    <linearGradient
       inkscape:collect="always"
       xlink:href="#linearGradient3831"
       id="linearGradient3845"
       x1="11"
       y1="19.5"
       x2="21"
       y2="19.5"
       gradientUnits="userSpaceOnUse"
       spreadMethod="reflect"
       gradientTransform="translate(1,-1)" />
    <linearGradient
       id="linearGradient3831">
      <stop
         style="stop-color:#ffffff;stop-opacity:1;"
         offset="0"
         id="stop3833" />
      <stop
         id="stop3821"
         offset="0.75"
         style="stop-color:#ffffff;stop-opacity:0.49803922;" />
      <stop
         style="stop-color:#ffffff;stop-opacity:0;"
         offset="1"
         id="stop3835" />
    </linearGradient>
    <linearGradient
       y2="16"
       x2="10"
       y1="1"
       x1="10"
       gradientTransform="translate(1,-1)"
       gradientUnits="userSpaceOnUse"
       id="linearGradient3859"
       xlink:href="#linearGradient3823"
       inkscape:collect="always" />
  </defs>
  <sodipodi:namedview
     id="base"
     pagecolor="#ffffff"
     bordercolor="#e7e7e7"
     borderopacity="1"
     inkscape:pageopacity="0.0"
     inkscape:pageshadow="2"
     inkscape:zoom="21.418891"
     inkscape:cx="2.9326072"
     inkscape:cy="11.687501"
     inkscape:document-units="px"
     inkscape:current-layer="layer1"
     showgrid="true"
     inkscape:showpageshadow="false"
     showguides="false"
     inkscape:guide-bbox="true"
     inkscape:window-width="1920"
     inkscape:window-height="1026"
     inkscape:window-x="0"
     inkscape:window-y="25"
     inkscape:window-maximized="1"
     inkscape:snap-global="false">
    <sodipodi:guide
       orientation="1,0"
       position="0,112"
       id="guide2383" />
    <sodipodi:guide
       orientation="0,1"
       position="26.278146,128"
       id="guide2385" />
    <sodipodi:guide
       orientation="1,0"
       position="128,54.082119"
       id="guide2387" />
    <sodipodi:guide
       orientation="0,1"
       position="78.156291,0"
       id="guide2389" />
    <sodipodi:guide
       orientation="0,1"
       position="60.863576,64.084768"
       id="guide2391" />
    <inkscape:grid
       type="xygrid"
       id="grid3672"
       visible="true"
       enabled="true"
       empspacing="8"
       snapvisiblegridlinesonly="true" />
  </sodipodi:namedview>
  <metadata
     id="metadata7">
    <rdf:RDF>
      <cc:Work
         rdf:about="">
        <dc:format>image/svg+xml</dc:format>
        <dc:type
           rdf:resource="http://purl.org/dc/dcmitype/StillImage" />
        <dc:title />
      </cc:Work>
    </rdf:RDF>
  </metadata>
  <g
     inkscape:label="Button"
     inkscape:groupmode="layer"
     id="layer1"
     transform="translate(0,2)">
    <g
       style="display:inline"
       id="g3337"
       transform="translate(1,-1)">
      <rect
         ry="2.5"
         rx="2.5"
         y="0.5"
         x="0.5"
         height="21.5"
         width="21"
         id="rect3371"
         style="opacity:0.3;fill:url(#linearGradient3335);fill-opacity:1;stroke:none;display:inline" />
      <rect
         style="opacity:0.5;fill:#000000;fill-opacity:1;stroke:none;display:inline"
         id="rect2553"
         width="20"
         height="20"
         x="1"
         y="2"
         rx="2.3809524"
         ry="2.3255813" />
    </g>
    <rect
       style="fill:url(#linearGradient3181);fill-opacity:1;fill-rule:evenodd;stroke:none;display:inline"
       id="rect3173"
       width="20"
       height="20"
       x="2"
       y="0"
       rx="2"
       ry="2" />
    <path
       style="opacity:0.6;fill:url(#linearGradient3859);fill-opacity:1;fill-rule:evenodd;stroke:none;display:inline"
       d="M 4,0 C 2.892,0 2,0.892 2,2 l 0,16 c 0,1.108 0.892,2 2,2 l 16,0 c 1.108,0 2,-0.892 2,-2 L 22,2 C 22,0.892 21.108,0 20,0 L 4,0 z m 0,1.03125 16,0 c 0.5497,0 0.96875,0.4190495 0.96875,0.96875 l 0,16 c 0,0.5497 -0.41905,0.96875 -0.96875,0.96875 l -16,0 C 3.4502995,18.96875 3.03125,18.5497 3.03125,18 l 0,-16 C 3.03125,1.4502995 3.4502995,1.03125 4,1.03125 z"
       id="rect3050"
       inkscape:connector-curvature="0" />
    <path
       id="path3235"
       d="M 4,20 C 2.892,20 2,19.108 2,18 l 0,-1 c 0,1.108 0.892,2 2,2 l 16,0 c 1.108,0 2,-0.892 2,-2 l 0,1 c 0,1.108 -0.892,2 -2,2 L 4,20 z"
       style="opacity:0.35;fill:url(#linearGradient3845);fill-opacity:1;fill-rule:evenodd;stroke:none;display:inline"
       inkscape:connector-curvature="0" />
  </g>
  <g
     inkscape:groupmode="layer"
     id="layer2"
     inkscape:label="Highlight"
     transform="translate(0,2)"
     sodipodi:insensitive="true"
     style="display:inline">
    <rect
       style="opacity:0.15;fill:#ffffff;fill-opacity:1;fill-rule:nonzero;stroke:none;display:inline;filter:url(#filter3194)"
       id="rect2410"
       width="16"
       height="16"
       x="3"
       y="3"
       rx="2"
       ry="2"
       clip-path="url(#clipPath2849)"
       transform="translate(1,-1)" />
  </g>
  <g
     inkscape:groupmode="layer"
     id="layer3"
     inkscape:label="Symbol"
     transform="translate(0,2)">
    <path
       style="fill:url(#linearGradient3759);fill-opacity:1;stroke:none;display:inline"
       d="m 14.864371,2.5 -4.237288,0.0085 c 0.461173,0.293299 1.07244,0.95096 1.576271,1.703389 0.562759,0.840435 0.808672,1.1511187 1.14549,1.9961477 L 12.153928,6.9029517 16.169456,7.550847 17.747149,3.5385197 16.797996,4.1741127 16.398269,3.686441 C 15.994865,3.040825 15.625026,2.572672 14.864371,2.5 z M 9.6186078,2.635593 c -0.25871,-0.0055 -0.53444,0.04031 -0.838983,0.161017 l -1.847457,2.737288 3.2542372,2.177966 1.745763,-3.29661 C 11.4497,3.703458 10.739688,2.659371 9.6186078,2.635593 z m 8.9406782,4.652543 -3.279661,2.110169 1.516949,3.288136 1.305085,0.0085 c 0.762169,0.0088 1.988706,-1.114347 1.940678,-1.923729 l -1.483051,-3.48305 0,-2.6e-5 z M 7.6864038,8.110169 3.992556,8.6585286 5.128149,9.2771726 4.8982688,9.728814 c -1.230734,2.631209 0.326029,3.914291 2.169492,6.474576 -0.263429,-0.635604 -0.247607,-1.315825 -0.01695,-1.974576 L 8.534928,11.082258 9.560352,11.616156 7.6864038,8.110169 z m 7.3615642,3.771187 -2.149699,3.330508 2.149699,3.288136 0.0085,-1.355932 0.451996,0 c 2.761861,-0.0012 3.143438,-2.051393 4.474576,-4.949153 -0.417083,0.534391 -0.995632,0.815732 -1.652542,0.889831 l -3.274055,0.0085 -0.0085,-1.211864 2.5e-5,-2.6e-5 z m -3.158177,1.084746 -3.8050812,0.127118 -0.59322,1.228814 c -0.347292,0.722053 0.05209,2.396632 0.754237,2.711864 l 3.6186442,0 0.02542,-4.067796 z"
       id="path4068"
       sodipodi:nodetypes="ccsccccccccccccccccccccccccccccccccccccccccccccc" />
    <path
       style="fill:#ffffff;fill-opacity:1;stroke:none;display:inline;opacity:0.6"
       d="M 11.21875 5.5 C 11.496373 5.8045336 11.744473 6.1214735 11.9375 6.40625 L 11.8125 6.65625 C 11.947863 6.8282988 12.092792 7.0306428 12.21875 7.21875 C 12.568465 7.7410203 12.765899 8.0690204 12.96875 8.4375 L 13.34375 8.21875 C 13.006932 7.373721 12.781509 7.059185 12.21875 6.21875 C 12.052192 5.9700092 11.868237 5.7182873 11.6875 5.5 L 11.21875 5.5 z M 17.75 6.53125 L 17.21875 6.90625 L 16.15625 9.5625 L 13.28125 9.09375 C 13.299838 9.1384221 13.324652 9.170836 13.34375 9.21875 L 12.15625 9.90625 L 16.15625 10.5625 L 17.75 6.53125 z M 11.625 6.96875 L 10.1875 9.71875 L 7.40625 7.84375 L 6.9375 8.53125 L 10.1875 10.71875 L 11.9375 7.40625 C 11.84404 7.2683666 11.736871 7.1217395 11.625 6.96875 z M 5 11.5 L 4 11.65625 L 4.78125 12.09375 C 4.8287875 11.969885 4.8453763 11.848893 4.90625 11.71875 L 5 11.5 z M 15.625 12.1875 L 15.28125 12.40625 L 16.5 15.09375 L 18.34375 15.09375 C 19.00066 15.019651 19.551667 14.721891 19.96875 14.1875 C 20.020244 14.046383 20.039013 13.912077 20.03125 13.78125 L 19.875 13.40625 C 19.514572 14.063181 18.665377 14.6941 18.09375 14.6875 L 16.78125 14.6875 L 15.625 12.1875 z M 8.53125 13.09375 L 7.0625 16.21875 C 6.8895072 16.712813 6.8103779 17.228413 6.90625 17.71875 C 6.9360534 17.552411 7.0048357 17.383438 7.0625 17.21875 L 7.5 16.3125 L 8.53125 14.09375 L 9.5625 14.625 L 8.8125 13.25 L 8.53125 13.09375 z M 4.5 13.875 C 4.1470785 15.791937 5.5079211 17.05968 7.0625 19.21875 C 6.897985 18.821807 6.8373795 18.384399 6.875 17.96875 C 5.6890029 16.3577 4.6733449 15.208162 4.5 13.875 z M 19.96875 15.1875 C 19.769606 15.442655 19.544968 15.636488 19.28125 15.78125 C 18.413485 17.790231 17.709775 19.15529 15.5 19.15625 L 15.0625 19.15625 L 15.0625 20.15625 L 15.5 20.15625 C 18.261861 20.15505 18.637612 18.08526 19.96875 15.1875 z M 7.4375 17.5625 C 7.2533218 18.362426 7.6171014 19.747107 8.25 20.03125 L 11.875 20.03125 L 11.875 19.03125 L 8.25 19.03125 C 7.8427547 18.848415 7.554433 18.208829 7.4375 17.5625 z M 13.21875 17.71875 L 12.90625 18.21875 L 15.0625 21.5 L 15.0625 20.5 L 13.21875 17.71875 z "
       transform="translate(0,-2)"
       id="path3690" />
    <path
       style="fill:#000000;fill-opacity:1;stroke:none;display:inline;opacity:0.2"
       d="m 10.625,4.5 c 0.308717,0.1963391 0.696517,0.5579786 1.0625,1 l 3.1875,0 c 0.760655,0.072672 1.127846,0.541884 1.53125,1.1875 l 0.40625,0.5 0.40625,-0.28125 0.53125,-1.375 -0.9375,0.65625 -0.40625,-0.5 C 16.002846,5.041884 15.635655,4.572672 14.875,4.5 l -4.25,0 z m -1,0.125 C 9.36629,4.6195 9.085793,4.660543 8.78125,4.78125 l -1.84375,2.75 0.46875,0.3125 1.375,-2.0625 C 9.085793,5.660543 9.36629,5.6195 9.625,5.625 c 0.903914,0.019172 1.53436,0.7069614 2,1.34375 L 11.939485,6.4784704 11.21875,5.5 C 10.802457,5.0433548 10.297557,4.6392649 9.625,4.625 z m 3.34375,3.8125 -0.8125,0.46875 1.125,0.1875 C 13.175734,8.840163 13.073817,8.6283549 12.96875,8.4375 z m 5.59375,0.84375 -3.28125,2.125 0.34375,0.78125 2.9375,-1.90625 1.3125,3.125 c 0.120143,-0.218977 0.168257,-0.422655 0.15625,-0.625 l -1.46875,-3.5 z M 7.6875,10.125 4,10.65625 5.125,11.28125 5,11.5 l 2.6875,-0.375 1.125,2.125 0.75,0.375 -1.875,-3.5 z M 5.0352209,11.535014 C 4.6049414,12.319918 4.4301309,13.33765 4.5,13.875 4.5655827,13.51878 4.713385,13.13108 4.90625,12.71875 L 5.125,12.28125 5.0352209,11.535014 z M 15.0625,13.875 l -2.15625,3.34375 0.3125,0.5 1.84375,-2.84375 0,-1 z m 4.8125,0.53125 c -1.217075,1.07355 -2.232131,0.662103 -3.375,0.6875 l -1.4375,0 0,1 3.28125,0 c 0.343257,-0.03872 0.648892,-0.154075 0.9375,-0.3125 0.187074,-0.433098 0.296502,-0.705564 0.59375,-1.375 z m -8,0.5625 -3.78125,0.125 L 7.5,16.3125 c -0.1458626,0.303262 -0.1471756,0.781969 -0.0625,1.25 0.020152,-0.08752 0.028249,-0.178788 0.0625,-0.25 l 0.59375,-1.21875 3.78125,-0.125 0,-1 z m -4.96875,2.75 c -0.01496,0.08349 -0.023691,0.166482 -0.03125,0.25 0.065538,0.08903 0.1211017,0.157783 0.1875,0.25 -0.065857,-0.158901 -0.1242926,-0.336554 -0.15625,-0.5 z"
       transform="translate(0,-2)"
       id="path3699"
       sodipodi:nodetypes="ccccccccccccccccscccccccccccccccccccccccccccccccccccccccccccccccccssc" />
    <path
       style="fill:url(#linearGradient3698);fill-opacity:1;stroke:none;display:inline"
       d="m 38.161351,-13.07251 -2,2.21875 1.53125,1.2812501 1.15625,-1.6562501 1.5625,0.03125 0.5,1.5000001 -1.34375,0.5 2.8125,0.90625 1.4375,-2.6250001 -1.4375,0.5625 -1.125,-2.71875 -3.09375,0 z m -1.90625,4.6250001 -2.90625,0.59375 1.34375,0.75 -1.3125,2.625 2.03125,2.34375 2.96875,0.0625 -0.03125,-2 -2,0 -1,-1 0.8125,-1.34375 1.25,0.6875 -1.15625,-2.71875 z m 7.71875,0.5 -1.75,0.96875 1.28125,1.90625 -0.59375,1.0625 -1.75,0.0625 0.03125,-1.40625 -1.875,2.28125 1.90625,2.28124999 0.03125,-1.40624999 2.8125,0.03125 1.25,-3.125 -1.34375,-2.65625 z"
       id="path3666" />
  </g>
</svg>
