<?xml version="1.0" encoding="UTF-8" standalone="no"?>
<!-- Created with Inkscape (http://www.inkscape.org/) -->

<svg
   xmlns:dc="http://purl.org/dc/elements/1.1/"
   xmlns:cc="http://creativecommons.org/ns#"
   xmlns:rdf="http://www.w3.org/1999/02/22-rdf-syntax-ns#"
   xmlns:svg="http://www.w3.org/2000/svg"
   xmlns="http://www.w3.org/2000/svg"
   xmlns:xlink="http://www.w3.org/1999/xlink"
   xmlns:sodipodi="http://sodipodi.sourceforge.net/DTD/sodipodi-0.dtd"
   xmlns:inkscape="http://www.inkscape.org/namespaces/inkscape"
   width="24"
   height="24"
   id="svg2"
   sodipodi:version="0.32"
   inkscape:version="0.48.0 r9654"
   version="1.0"
   sodipodi:docname="text-x-c++.svg"
   inkscape:output_extension="org.inkscape.output.svg.inkscape"
   style="display:inline">
  <defs
     id="defs4">
    <linearGradient
       inkscape:collect="always"
       id="linearGradient3327">
      <stop
         style="stop-color:#000000;stop-opacity:1;"
         offset="0"
         id="stop3330" />
      <stop
         style="stop-color:#000000;stop-opacity:0;"
         offset="1"
         id="stop3333" />
    </linearGradient>
    <linearGradient
       inkscape:collect="always"
       xlink:href="#linearGradient3327"
       id="linearGradient3335"
       x1="11.375"
       y1="22"
       x2="11.375"
       y2="-9.817296"
       gradientUnits="userSpaceOnUse" />
    <linearGradient
       inkscape:collect="always"
       xlink:href="#ButtonColor"
       id="linearGradient3181"
       x1="-3.0607977"
       y1="27.258198"
       x2="-3.0607977"
       y2="7.2536583"
       gradientUnits="userSpaceOnUse"
       gradientTransform="translate(12.119372,-7.2581977)" />
    <inkscape:perspective
       sodipodi:type="inkscape:persp3d"
       inkscape:vp_x="0 : 11 : 1"
       inkscape:vp_y="0 : 1000 : 0"
       inkscape:vp_z="22 : 11 : 1"
       inkscape:persp3d-origin="11 : 7.3333333 : 1"
       id="perspective2531" />
    <linearGradient
       id="ButtonShadow"
       gradientTransform="scale(0.9883037,1.0118347)"
       x1="9.3550024"
       y1="21.742682"
       x2="9.3550024"
       y2="0.49362123"
       gradientUnits="userSpaceOnUse">
      <stop
         id="stop3277"
         offset="0"
         style="stop-color:#000000;stop-opacity:0.70588237;" />
      <stop
         id="stop3279"
         offset="1"
         style="stop-color:#000000;stop-opacity:0.15686275;" />
    </linearGradient>
    <linearGradient
       inkscape:collect="always"
       id="linearGradient3232">
      <stop
         style="stop-color:#000000;stop-opacity:1;"
         offset="0"
         id="stop3234" />
      <stop
         style="stop-color:#000000;stop-opacity:0;"
         offset="1"
         id="stop3236" />
    </linearGradient>
    <linearGradient
       gradientUnits="userSpaceOnUse"
       y2="-6.0004225"
       x2="11"
       y1="14.805666"
       x1="11"
       id="linearGradient3221"
       xlink:href="#linearGradient3232"
       inkscape:collect="always" />
    <linearGradient
       id="ButtonColor"
       x1="10.31979"
       y1="21"
       x2="10.31979"
       y2="0.99929649"
       gradientUnits="userSpaceOnUse">
      <stop
         style="stop-color:#e6e6e6;stop-opacity:1;"
         offset="0"
         id="stop3189" />
      <stop
         style="stop-color:#f5f5f5;stop-opacity:1;"
         offset="1"
         id="stop3191" />
    </linearGradient>
    <linearGradient
       inkscape:collect="always"
       xlink:href="#ButtonShadow"
       id="linearGradient38042"
       gradientUnits="userSpaceOnUse"
       gradientTransform="scale(0.9883037,1.0118347)"
       x1="9.3550024"
       y1="21.742682"
       x2="9.3550024"
       y2="0.49362123" />
    <filter
       inkscape:collect="always"
       id="filter3194"
       x="-0.18000001"
       width="1.36"
       y="-0.18000001"
       height="1.36"
       color-interpolation-filters="sRGB">
      <feGaussianBlur
         inkscape:collect="always"
         stdDeviation="1.2"
         id="feGaussianBlur3196" />
    </filter>
    <clipPath
       clipPathUnits="userSpaceOnUse"
       id="clipPath2849">
      <rect
         ry="2"
         rx="2"
         y="1"
         x="1"
         height="20"
         width="20"
         id="rect2851"
         style="fill:#ffffff;fill-opacity:1;fill-rule:evenodd;stroke:none;display:inline" />
    </clipPath>
    <inkscape:perspective
       id="perspective3215"
       inkscape:persp3d-origin="0.5 : 0.33333333 : 1"
       inkscape:vp_z="1 : 0.5 : 1"
       inkscape:vp_y="0 : 1000 : 0"
       inkscape:vp_x="0 : 0.5 : 1"
       sodipodi:type="inkscape:persp3d" />
    <linearGradient
       inkscape:collect="always"
       xlink:href="#linearGradient3232"
       id="linearGradient4361"
       gradientUnits="userSpaceOnUse"
       gradientTransform="translate(-6.3695831,18.92757)"
       x1="53.89452"
       y1="46.00061"
       x2="53.89452"
       y2="12.192646" />
    <linearGradient
       id="linearGradient3729">
      <stop
         style="stop-color:#2f55cf;stop-opacity:1;"
         offset="0"
         id="stop3731" />
      <stop
         style="stop-color:#6480dc;stop-opacity:1;"
         offset="1"
         id="stop3733" />
    </linearGradient>
    <linearGradient
       inkscape:collect="always"
       xlink:href="#linearGradient3729"
       id="linearGradient4359"
       gradientUnits="userSpaceOnUse"
       gradientTransform="translate(-6.3695831,18.92757)"
       x1="53.89452"
       y1="46.00061"
       x2="53.89452"
       y2="12.192646" />
    <linearGradient
       id="linearGradient3224">
      <stop
         style="stop-color:#2f55cf;stop-opacity:1;"
         offset="0"
         id="stop3226" />
      <stop
         style="stop-color:#6480dc;stop-opacity:1;"
         offset="1"
         id="stop3228" />
    </linearGradient>
    <linearGradient
       y2="12.192646"
       x2="53.89452"
       y1="46.00061"
       x1="53.89452"
       gradientTransform="translate(-6.3695831,18.92757)"
       gradientUnits="userSpaceOnUse"
       id="linearGradient3232-4"
       xlink:href="#linearGradient4553"
       inkscape:collect="always" />
    <inkscape:perspective
       id="perspective3203"
       inkscape:persp3d-origin="0.5 : 0.33333333 : 1"
       inkscape:vp_z="1 : 0.5 : 1"
       inkscape:vp_y="0 : 1000 : 0"
       inkscape:vp_x="0 : 0.5 : 1"
       sodipodi:type="inkscape:persp3d" />
    <linearGradient
       inkscape:collect="always"
       xlink:href="#linearGradient4553"
       id="linearGradient4331"
       gradientUnits="userSpaceOnUse"
       x1="75.078453"
       y1="50.524475"
       x2="75.078453"
       y2="16.595808"
       gradientTransform="matrix(0.88275862,0,0,0.88275862,-10.582343,18.462746)" />
    <linearGradient
       id="linearGradient4553">
      <stop
         style="stop-color:#418c18;stop-opacity:1;"
         offset="0"
         id="stop4555" />
      <stop
         style="stop-color:#74b21c;stop-opacity:1;"
         offset="1"
         id="stop4557" />
    </linearGradient>
    <linearGradient
       y2="16.595808"
       x2="75.078453"
       y1="50.524475"
       x1="75.078453"
       gradientTransform="matrix(0.88275862,0,0,0.88275862,-53.582343,-32.537254)"
       gradientUnits="userSpaceOnUse"
       id="linearGradient3212"
       xlink:href="#linearGradient4553"
       inkscape:collect="always" />
    <linearGradient
       inkscape:collect="always"
       xlink:href="#linearGradient4553"
       id="linearGradient3813"
       gradientUnits="userSpaceOnUse"
       gradientTransform="matrix(0.29425287,0,0,0.29425287,-7.3811641,3.4453546)"
       x1="53.89452"
       y1="46.00061"
       x2="53.89452"
       y2="12.192646" />
    <linearGradient
       y2="16"
       x2="10"
       y1="1"
       x1="10"
       gradientUnits="userSpaceOnUse"
       id="linearGradient3078"
       xlink:href="#linearGradient3823"
       inkscape:collect="always"
       gradientTransform="translate(1,-1)" />
    <linearGradient
       id="linearGradient3823">
      <stop
         id="stop3825"
         offset="0"
         style="stop-color:#ffffff;stop-opacity:1;" />
      <stop
         id="stop3829"
         offset="1"
         style="stop-color:#ffffff;stop-opacity:0;" />
    </linearGradient>
    <linearGradient
       inkscape:collect="always"
       xlink:href="#linearGradient3831"
       id="linearGradient3845"
       x1="11"
       y1="19.5"
       x2="21"
       y2="19.5"
       gradientUnits="userSpaceOnUse"
       spreadMethod="reflect"
       gradientTransform="translate(1,-1)" />
    <linearGradient
       id="linearGradient3831">
      <stop
         style="stop-color:#ffffff;stop-opacity:1;"
         offset="0"
         id="stop3833" />
      <stop
         id="stop3821"
         offset="0.75"
         style="stop-color:#ffffff;stop-opacity:0.49803922;" />
      <stop
         style="stop-color:#ffffff;stop-opacity:0;"
         offset="1"
         id="stop3835" />
    </linearGradient>
    <linearGradient
       y2="16"
       x2="10"
       y1="1"
       x1="10"
       gradientTransform="translate(1,-1)"
       gradientUnits="userSpaceOnUse"
       id="linearGradient3859"
       xlink:href="#linearGradient3823"
       inkscape:collect="always" />
  </defs>
  <sodipodi:namedview
     id="base"
     pagecolor="#ffffff"
     bordercolor="#e7e7e7"
     borderopacity="1"
     inkscape:pageopacity="0.0"
     inkscape:pageshadow="2"
     inkscape:zoom="32.28089"
     inkscape:cx="1.2617735"
     inkscape:cy="12.933525"
     inkscape:document-units="px"
     inkscape:current-layer="layer1"
     showgrid="true"
     inkscape:showpageshadow="false"
     showguides="false"
     inkscape:guide-bbox="true"
     inkscape:window-width="1920"
     inkscape:window-height="1026"
     inkscape:window-x="0"
     inkscape:window-y="25"
     inkscape:window-maximized="1"
     inkscape:snap-global="false">
    <sodipodi:guide
       orientation="1,0"
       position="0,112"
       id="guide2383" />
    <sodipodi:guide
       orientation="0,1"
       position="26.278146,128"
       id="guide2385" />
    <sodipodi:guide
       orientation="1,0"
       position="128,54.082119"
       id="guide2387" />
    <sodipodi:guide
       orientation="0,1"
       position="78.156291,0"
       id="guide2389" />
    <sodipodi:guide
       orientation="0,1"
       position="60.863576,64.084768"
       id="guide2391" />
    <inkscape:grid
       type="xygrid"
       id="grid3672"
       visible="true"
       enabled="true"
       empspacing="8"
       snapvisiblegridlinesonly="true" />
  </sodipodi:namedview>
  <metadata
     id="metadata7">
    <rdf:RDF>
      <cc:Work
         rdf:about="">
        <dc:format>image/svg+xml</dc:format>
        <dc:type
           rdf:resource="http://purl.org/dc/dcmitype/StillImage" />
        <dc:title />
      </cc:Work>
    </rdf:RDF>
  </metadata>
  <g
     inkscape:label="Button"
     inkscape:groupmode="layer"
     id="layer1"
     transform="translate(0,2)">
    <g
       style="display:inline"
       id="g3337"
       transform="translate(1,-1)">
      <rect
         ry="2.5"
         rx="2.5"
         y="0.5"
         x="0.5"
         height="21.5"
         width="21"
         id="rect3371"
         style="opacity:0.3;fill:url(#linearGradient3335);fill-opacity:1;stroke:none;display:inline" />
      <rect
         style="opacity:0.5;fill:#000000;fill-opacity:1;stroke:none;display:inline"
         id="rect2553"
         width="20"
         height="20"
         x="1"
         y="2"
         rx="2.3809524"
         ry="2.3255813" />
    </g>
    <rect
       style="fill:url(#linearGradient3181);fill-opacity:1;fill-rule:evenodd;stroke:none;display:inline"
       id="rect3173"
       width="20"
       height="20"
       x="2"
       y="0"
       rx="2"
       ry="2" />
    <path
       style="opacity:0.6;fill:url(#linearGradient3859);fill-opacity:1;fill-rule:evenodd;stroke:none;display:inline"
       d="M 4,0 C 2.892,0 2,0.892 2,2 l 0,16 c 0,1.108 0.892,2 2,2 l 16,0 c 1.108,0 2,-0.892 2,-2 L 22,2 C 22,0.892 21.108,0 20,0 L 4,0 z m 0,1.03125 16,0 c 0.5497,0 0.96875,0.4190495 0.96875,0.96875 l 0,16 c 0,0.5497 -0.41905,0.96875 -0.96875,0.96875 l -16,0 C 3.4502995,18.96875 3.03125,18.5497 3.03125,18 l 0,-16 C 3.03125,1.4502995 3.4502995,1.03125 4,1.03125 z"
       id="rect3050"
       inkscape:connector-curvature="0" />
    <path
       id="path3235"
       d="M 4,20 C 2.892,20 2,19.108 2,18 l 0,-1 c 0,1.108 0.892,2 2,2 l 16,0 c 1.108,0 2,-0.892 2,-2 l 0,1 c 0,1.108 -0.892,2 -2,2 L 4,20 z"
       style="opacity:0.35;fill:url(#linearGradient3845);fill-opacity:1;fill-rule:evenodd;stroke:none;display:inline"
       inkscape:connector-curvature="0" />
  </g>
  <g
     inkscape:groupmode="layer"
     id="layer2"
     inkscape:label="Highlight"
     transform="translate(0,2)"
     sodipodi:insensitive="true"
     style="display:inline">
    <rect
       style="opacity:0.15;fill:#ffffff;fill-opacity:1;fill-rule:nonzero;stroke:none;display:inline;filter:url(#filter3194)"
       id="rect2410"
       width="16"
       height="16"
       x="3"
       y="3"
       rx="2"
       ry="2"
       clip-path="url(#clipPath2849)"
       transform="translate(1,-1)" />
  </g>
  <g
     inkscape:groupmode="layer"
     id="layer4"
     inkscape:label="Code"
     sodipodi:insensitive="true">
    <rect
       style="opacity:0.15;color:#000000;fill:#000000;fill-opacity:1;fill-rule:nonzero;stroke:none;stroke-width:0.5;marker:none;visibility:visible;display:inline;overflow:visible;enable-background:accumulate"
       id="rect2897"
       width="4"
       height="1"
       x="4"
       y="4" />
    <rect
       transform="translate(0,2)"
       y="2"
       x="9"
       height="1"
       width="3"
       id="rect2899"
       style="opacity:0.15;color:#000000;fill:#000000;fill-opacity:1;fill-rule:nonzero;stroke:none;stroke-width:0.5;marker:none;visibility:visible;display:inline;overflow:visible;enable-background:accumulate" />
    <rect
       transform="translate(0,2)"
       y="4"
       x="4"
       height="1"
       width="4"
       id="rect2901"
       style="opacity:0.15;color:#000000;fill:#000000;fill-opacity:1;fill-rule:nonzero;stroke:none;stroke-width:0.5;marker:none;visibility:visible;display:inline;overflow:visible;enable-background:accumulate" />
    <rect
       transform="translate(0,2)"
       style="opacity:0.15;color:#000000;fill:#000000;fill-opacity:1;fill-rule:nonzero;stroke:none;stroke-width:0.5;marker:none;visibility:visible;display:inline;overflow:visible;enable-background:accumulate"
       id="rect2903"
       width="2"
       height="1"
       x="9"
       y="4" />
    <rect
       style="opacity:0.15;color:#000000;fill:#000000;fill-opacity:1;fill-rule:nonzero;stroke:none;stroke-width:0.5;marker:none;visibility:visible;display:inline;overflow:visible;enable-background:accumulate"
       id="rect2910"
       width="16"
       height="1"
       x="4"
       y="9" />
    <rect
       y="11"
       x="6"
       height="1"
       width="10"
       id="rect2912"
       style="opacity:0.15;color:#000000;fill:#000000;fill-opacity:1;fill-rule:nonzero;stroke:none;stroke-width:0.5;marker:none;visibility:visible;display:inline;overflow:visible;enable-background:accumulate" />
    <rect
       style="opacity:0.15;color:#000000;fill:#000000;fill-opacity:1;fill-rule:nonzero;stroke:none;stroke-width:0.5;marker:none;visibility:visible;display:inline;overflow:visible;enable-background:accumulate"
       id="rect2914"
       width="7"
       height="1"
       x="6"
       y="13" />
    <rect
       y="15"
       x="6"
       height="1"
       width="12"
       id="rect2916"
       style="opacity:0.15;color:#000000;fill:#000000;fill-opacity:1;fill-rule:nonzero;stroke:none;stroke-width:0.5;marker:none;visibility:visible;display:inline;overflow:visible;enable-background:accumulate" />
    <rect
       style="opacity:0.15;color:#000000;fill:#000000;fill-opacity:1;fill-rule:nonzero;stroke:none;stroke-width:0.5;marker:none;visibility:visible;display:inline;overflow:visible;enable-background:accumulate"
       id="rect2918"
       width="4"
       height="1"
       x="6"
       y="17" />
    <rect
       y="19"
       x="4"
       height="1"
       width="3"
       id="rect2920"
       style="opacity:0.15;color:#000000;fill:#000000;fill-opacity:1;fill-rule:nonzero;stroke:none;stroke-width:0.5;marker:none;visibility:visible;display:inline;overflow:visible;enable-background:accumulate" />
  </g>
  <g
     inkscape:groupmode="layer"
     id="layer3"
     inkscape:label="Symbol"
     transform="translate(0,2)"
     sodipodi:insensitive="true">
    <path
       style="font-size:48px;font-style:normal;font-variant:normal;font-weight:bold;font-stretch:normal;text-align:start;line-height:125%;writing-mode:lr-tb;text-anchor:start;fill:#488817;fill-opacity:1;stroke:none;font-family:Liberation Sans;-inkscape-font-specification:Abandoned Bitplane Bold"
       d="M 8.6904885,5 C 7.8928418,5.00001 7.21087,5.1092769 6.6193637,5.34375 6.0323325,5.5736444 5.5427689,5.9115749 5.1573933,6.34375 4.7720145,6.7713441 4.4668071,7.2947634 4.2741195,7.90625 4.0859109,8.517751 3.9999994,9.210135 4,9.96875 c -6e-7,0.731039 0.085911,1.383911 0.2741195,2 0.1926876,0.616094 0.4934135,1.174427 0.8832738,1.625 0.3943376,0.445978 0.8919534,0.778377 1.4924281,1.03125 C 7.2502896,14.873275 7.9618093,15 8.7818617,15 c 0.627353,0 1.1831532,-0.09368 1.6447163,-0.25 0.466031,-0.16092 0.851759,-0.367529 1.187851,-0.625 0.336077,-0.257471 0.628751,-0.539366 0.852817,-0.875 0.224047,-0.33563 0.409314,-0.681822 0.548238,-1.03125 L 11.279395,11.5625 c -0.08515,0.22529 -0.200608,0.435563 -0.335035,0.65625 -0.12996,0.220692 -0.285679,0.419039 -0.487324,0.59375 -0.197177,0.174714 -0.4576424,0.327157 -0.7309851,0.4375 -0.2688741,0.10575 -0.5722607,0.156252 -0.9441892,0.15625 -0.4929298,2e-6 -0.9252191,-0.07988 -1.2792242,-0.25 C 7.1531053,12.986137 6.8738748,12.740951 6.6498214,12.4375 6.4257615,12.134055 6.2700424,11.762144 6.162498,11.34375 6.0594292,10.920765 6.0102068,10.474502 6.0102094,9.96875 6.0102068,9.45841 6.059429,9.002951 6.162498,8.59375 6.2700424,8.179964 6.4302429,7.8255099 6.6498214,7.53125 6.8738748,7.2370047 7.1575864,7.0000798 7.5026375,6.84375 7.8476803,6.6828387 8.2414598,6.5937585 8.7209463,6.59375 9.0615068,6.5937585 9.3658036,6.658054 9.6346778,6.75 9.903539,6.837364 10.138028,6.9466315 10.335205,7.09375 c 0.201644,0.1471341 0.387821,0.3069039 0.517781,0.5 0.129945,0.1885128 0.211376,0.3868602 0.27412,0.59375 L 12.893654,7.71875 C 12.768173,7.3233554 12.569463,6.9514447 12.345415,6.625 12.125831,6.293974 11.863615,5.9890892 11.523056,5.75 11.186964,5.5063312 10.770779,5.3208428 10.304748,5.1875 9.843185,5.0541769 9.3088791,5.00001 8.6904885,5 z"
       id="path3820"
       inkscape:connector-curvature="0" />
    <path
       style="font-size:48px;font-style:normal;font-variant:normal;font-weight:bold;font-stretch:normal;text-align:start;line-height:125%;writing-mode:lr-tb;text-anchor:start;fill:#488817;fill-opacity:1;stroke:none;font-family:Liberation Sans;-inkscape-font-specification:Abandoned Bitplane Bold"
       d="m 15,9 0,1 -1,0 0,1 1,0 0,1 1,0 0,-1 1,0 0,-1 -1,0 0,-1 -1,0 z"
       id="path3818"
       inkscape:connector-curvature="0" />
    <path
       style="font-size:48px;font-style:normal;font-variant:normal;font-weight:bold;font-stretch:normal;text-align:start;line-height:125%;writing-mode:lr-tb;text-anchor:start;fill:#488817;fill-opacity:1;stroke:none;font-family:Liberation Sans;-inkscape-font-specification:Abandoned Bitplane Bold"
       d="m 19,9 0,1 -1,0 0,1 1,0 0,1 1,0 0,-1 1,0 0,-1 -1,0 0,-1 -1,0 z"
       id="path4357"
       inkscape:connector-curvature="0" />
  </g>
</svg>
