<?xml version="1.0" encoding="UTF-8" standalone="no"?>
<!-- Created with Inkscape (http://www.inkscape.org/) -->

<svg
   xmlns:dc="http://purl.org/dc/elements/1.1/"
   xmlns:cc="http://creativecommons.org/ns#"
   xmlns:rdf="http://www.w3.org/1999/02/22-rdf-syntax-ns#"
   xmlns:svg="http://www.w3.org/2000/svg"
   xmlns="http://www.w3.org/2000/svg"
   xmlns:xlink="http://www.w3.org/1999/xlink"
   xmlns:sodipodi="http://sodipodi.sourceforge.net/DTD/sodipodi-0.dtd"
   xmlns:inkscape="http://www.inkscape.org/namespaces/inkscape"
   width="24"
   height="24"
   id="svg2"
   sodipodi:version="0.32"
   inkscape:version="0.48.0 r9654"
   version="1.0"
   sodipodi:docname="text-x-readme.svg"
   inkscape:output_extension="org.inkscape.output.svg.inkscape"
   style="display:inline">
  <defs
     id="defs4">
    <linearGradient
       inkscape:collect="always"
       id="linearGradient3327">
      <stop
         style="stop-color:#000000;stop-opacity:1;"
         offset="0"
         id="stop3330" />
      <stop
         style="stop-color:#000000;stop-opacity:0;"
         offset="1"
         id="stop3333" />
    </linearGradient>
    <linearGradient
       inkscape:collect="always"
       xlink:href="#linearGradient3327"
       id="linearGradient3335"
       x1="11.375"
       y1="22"
       x2="11.375"
       y2="-9.817296"
       gradientUnits="userSpaceOnUse" />
    <linearGradient
       inkscape:collect="always"
       xlink:href="#ButtonColor"
       id="linearGradient3181"
       x1="-3.0607977"
       y1="27.258198"
       x2="-3.0607977"
       y2="7.2536583"
       gradientUnits="userSpaceOnUse"
       gradientTransform="translate(12.119372,-7.2581977)" />
    <inkscape:perspective
       sodipodi:type="inkscape:persp3d"
       inkscape:vp_x="0 : 11 : 1"
       inkscape:vp_y="0 : 1000 : 0"
       inkscape:vp_z="22 : 11 : 1"
       inkscape:persp3d-origin="11 : 7.3333333 : 1"
       id="perspective2531" />
    <linearGradient
       id="ButtonShadow"
       gradientTransform="scale(0.9883037,1.0118347)"
       x1="9.3550024"
       y1="21.742682"
       x2="9.3550024"
       y2="0.49362123"
       gradientUnits="userSpaceOnUse">
      <stop
         id="stop3277"
         offset="0"
         style="stop-color:#000000;stop-opacity:0.70588237;" />
      <stop
         id="stop3279"
         offset="1"
         style="stop-color:#000000;stop-opacity:0.15686275;" />
    </linearGradient>
    <linearGradient
       inkscape:collect="always"
       id="linearGradient3232">
      <stop
         style="stop-color:#000000;stop-opacity:1;"
         offset="0"
         id="stop3234" />
      <stop
         style="stop-color:#000000;stop-opacity:0;"
         offset="1"
         id="stop3236" />
    </linearGradient>
    <linearGradient
       gradientUnits="userSpaceOnUse"
       y2="-6.0004225"
       x2="11"
       y1="14.805666"
       x1="11"
       id="linearGradient3221"
       xlink:href="#linearGradient3232"
       inkscape:collect="always" />
    <linearGradient
       id="ButtonColor"
       x1="10.31979"
       y1="21"
       x2="10.31979"
       y2="0.99929649"
       gradientUnits="userSpaceOnUse">
      <stop
         style="stop-color:#e6e6e6;stop-opacity:1;"
         offset="0"
         id="stop3189" />
      <stop
         style="stop-color:#f5f5f5;stop-opacity:1;"
         offset="1"
         id="stop3191" />
    </linearGradient>
    <linearGradient
       inkscape:collect="always"
       xlink:href="#ButtonShadow"
       id="linearGradient38042"
       gradientUnits="userSpaceOnUse"
       gradientTransform="scale(0.9883037,1.0118347)"
       x1="9.3550024"
       y1="21.742682"
       x2="9.3550024"
       y2="0.49362123" />
    <filter
       inkscape:collect="always"
       id="filter3194"
       x="-0.18000001"
       width="1.36"
       y="-0.18000001"
       height="1.36"
       color-interpolation-filters="sRGB">
      <feGaussianBlur
         inkscape:collect="always"
         stdDeviation="1.2"
         id="feGaussianBlur3196" />
    </filter>
    <clipPath
       clipPathUnits="userSpaceOnUse"
       id="clipPath2849">
      <rect
         ry="2"
         rx="2"
         y="1"
         x="1"
         height="20"
         width="20"
         id="rect2851"
         style="fill:#ffffff;fill-opacity:1;fill-rule:evenodd;stroke:none;display:inline" />
    </clipPath>
    <inkscape:perspective
       id="perspective2941"
       inkscape:persp3d-origin="0.5 : 0.33333333 : 1"
       inkscape:vp_z="1 : 0.5 : 1"
       inkscape:vp_y="0 : 1000 : 0"
       inkscape:vp_x="0 : 0.5 : 1"
       sodipodi:type="inkscape:persp3d" />
    <linearGradient
       y2="26.413651"
       x2="71.671646"
       y1="62.025059"
       x1="71.671646"
       gradientTransform="matrix(1.3333333,0,0,1.3333333,-50.401545,-11.129853)"
       gradientUnits="userSpaceOnUse"
       id="linearGradient2937"
       xlink:href="#linearGradient3697"
       inkscape:collect="always" />
    <linearGradient
       id="linearGradient3697">
      <stop
         style="stop-color:#bababa;stop-opacity:1;"
         offset="0"
         id="stop3699" />
      <stop
         style="stop-color:#d2d2d2;stop-opacity:1;"
         offset="1"
         id="stop3701" />
    </linearGradient>
    <linearGradient
       y2="26.413651"
       x2="71.671646"
       y1="62.025059"
       x1="71.671646"
       gradientTransform="matrix(0.38888888,0,0,0.38888888,-16.628402,-7.371207)"
       gradientUnits="userSpaceOnUse"
       id="linearGradient2950"
       xlink:href="#linearGradient3697"
       inkscape:collect="always" />
    <linearGradient
       inkscape:collect="always"
       xlink:href="#linearGradient3697"
       id="linearGradient2891"
       gradientUnits="userSpaceOnUse"
       gradientTransform="matrix(0.38888888,0,0,0.38888888,-16.628402,-6.246207)"
       x1="71.671646"
       y1="62.025059"
       x2="71.671646"
       y2="26.413651" />
    <linearGradient
       inkscape:collect="always"
       xlink:href="#linearGradient3697"
       id="linearGradient2893"
       gradientUnits="userSpaceOnUse"
       gradientTransform="matrix(0.38888888,0,0,0.38888888,-16.628402,-5.246207)"
       x1="71.671646"
       y1="62.025059"
       x2="71.671646"
       y2="26.413651" />
    <linearGradient
       inkscape:collect="always"
       xlink:href="#linearGradient3697"
       id="linearGradient3670"
       gradientUnits="userSpaceOnUse"
       gradientTransform="matrix(0.38888888,0,0,0.38888888,-16.628402,-4.246207)"
       x1="71.671646"
       y1="62.025059"
       x2="71.671646"
       y2="26.413651" />
    <linearGradient
       inkscape:collect="always"
       xlink:href="#linearGradient3697"
       id="linearGradient3674"
       gradientUnits="userSpaceOnUse"
       gradientTransform="matrix(0.38888888,0,0,0.38888888,-16.628402,-7.246207)"
       x1="71.671646"
       y1="62.025059"
       x2="71.671646"
       y2="26.413651" />
    <linearGradient
       y2="16"
       x2="10"
       y1="1"
       x1="10"
       gradientUnits="userSpaceOnUse"
       id="linearGradient3078"
       xlink:href="#linearGradient3823"
       inkscape:collect="always"
       gradientTransform="translate(1,-1)" />
    <linearGradient
       id="linearGradient3823">
      <stop
         id="stop3825"
         offset="0"
         style="stop-color:#ffffff;stop-opacity:1;" />
      <stop
         id="stop3829"
         offset="1"
         style="stop-color:#ffffff;stop-opacity:0;" />
    </linearGradient>
    <linearGradient
       inkscape:collect="always"
       xlink:href="#linearGradient3831"
       id="linearGradient3845"
       x1="11"
       y1="19.5"
       x2="21"
       y2="19.5"
       gradientUnits="userSpaceOnUse"
       spreadMethod="reflect"
       gradientTransform="translate(1,-1)" />
    <linearGradient
       id="linearGradient3831">
      <stop
         style="stop-color:#ffffff;stop-opacity:1;"
         offset="0"
         id="stop3833" />
      <stop
         id="stop3821"
         offset="0.75"
         style="stop-color:#ffffff;stop-opacity:0.49803922;" />
      <stop
         style="stop-color:#ffffff;stop-opacity:0;"
         offset="1"
         id="stop3835" />
    </linearGradient>
    <linearGradient
       y2="16"
       x2="10"
       y1="1"
       x1="10"
       gradientTransform="translate(1,-1)"
       gradientUnits="userSpaceOnUse"
       id="linearGradient3859"
       xlink:href="#linearGradient3823"
       inkscape:collect="always" />
  </defs>
  <sodipodi:namedview
     id="base"
     pagecolor="#ffffff"
     bordercolor="#e7e7e7"
     borderopacity="1"
     inkscape:pageopacity="0.0"
     inkscape:pageshadow="2"
     inkscape:zoom="22.894248"
     inkscape:cx="-8.9118785"
     inkscape:cy="8.9241268"
     inkscape:document-units="px"
     inkscape:current-layer="layer1"
     showgrid="true"
     inkscape:showpageshadow="false"
     showguides="false"
     inkscape:guide-bbox="true"
     inkscape:window-width="1920"
     inkscape:window-height="1026"
     inkscape:window-x="0"
     inkscape:window-y="25"
     inkscape:window-maximized="1">
    <sodipodi:guide
       orientation="1,0"
       position="0,112"
       id="guide2383" />
    <sodipodi:guide
       orientation="0,1"
       position="26.278146,128"
       id="guide2385" />
    <sodipodi:guide
       orientation="1,0"
       position="128,54.082119"
       id="guide2387" />
    <sodipodi:guide
       orientation="0,1"
       position="78.156291,0"
       id="guide2389" />
    <sodipodi:guide
       orientation="0,1"
       position="60.863576,64.084768"
       id="guide2391" />
    <inkscape:grid
       type="xygrid"
       id="grid3672"
       visible="true"
       enabled="true"
       empspacing="8"
       snapvisiblegridlinesonly="true" />
  </sodipodi:namedview>
  <metadata
     id="metadata7">
    <rdf:RDF>
      <cc:Work
         rdf:about="">
        <dc:format>image/svg+xml</dc:format>
        <dc:type
           rdf:resource="http://purl.org/dc/dcmitype/StillImage" />
        <dc:title />
      </cc:Work>
    </rdf:RDF>
  </metadata>
  <g
     inkscape:label="Button"
     inkscape:groupmode="layer"
     id="layer1"
     transform="translate(0,2)">
    <g
       style="display:inline"
       id="g3337"
       transform="translate(1,-1)">
      <rect
         ry="2.5"
         rx="2.5"
         y="0.5"
         x="0.5"
         height="21.5"
         width="21"
         id="rect3371"
         style="opacity:0.3;fill:url(#linearGradient3335);fill-opacity:1;stroke:none;display:inline" />
      <rect
         style="opacity:0.5;fill:#000000;fill-opacity:1;stroke:none;display:inline"
         id="rect2553"
         width="20"
         height="20"
         x="1"
         y="2"
         rx="2.3809524"
         ry="2.3255813" />
    </g>
    <rect
       style="fill:url(#linearGradient3181);fill-opacity:1;fill-rule:evenodd;stroke:none;display:inline"
       id="rect3173"
       width="20"
       height="20"
       x="2"
       y="0"
       rx="2"
       ry="2" />
    <path
       style="opacity:0.6;fill:url(#linearGradient3859);fill-opacity:1;fill-rule:evenodd;stroke:none;display:inline"
       d="M 4,0 C 2.892,0 2,0.892 2,2 l 0,16 c 0,1.108 0.892,2 2,2 l 16,0 c 1.108,0 2,-0.892 2,-2 L 22,2 C 22,0.892 21.108,0 20,0 L 4,0 z m 0,1.03125 16,0 c 0.5497,0 0.96875,0.4190495 0.96875,0.96875 l 0,16 c 0,0.5497 -0.41905,0.96875 -0.96875,0.96875 l -16,0 C 3.4502995,18.96875 3.03125,18.5497 3.03125,18 l 0,-16 C 3.03125,1.4502995 3.4502995,1.03125 4,1.03125 z"
       id="rect3050"
       inkscape:connector-curvature="0" />
    <path
       id="path3235"
       d="M 4,20 C 2.892,20 2,19.108 2,18 l 0,-1 c 0,1.108 0.892,2 2,2 l 16,0 c 1.108,0 2,-0.892 2,-2 l 0,1 c 0,1.108 -0.892,2 -2,2 L 4,20 z"
       style="opacity:0.35;fill:url(#linearGradient3845);fill-opacity:1;fill-rule:evenodd;stroke:none;display:inline"
       inkscape:connector-curvature="0" />
  </g>
  <g
     inkscape:groupmode="layer"
     id="layer2"
     inkscape:label="Highlight"
     transform="translate(0,2)"
     sodipodi:insensitive="true"
     style="display:inline">
    <rect
       style="opacity:0.15;fill:#ffffff;fill-opacity:1;fill-rule:nonzero;stroke:none;display:inline;filter:url(#filter3194)"
       id="rect2410"
       width="16"
       height="16"
       x="3"
       y="3"
       rx="2"
       ry="2"
       clip-path="url(#clipPath2849)"
       transform="translate(1,-1)" />
  </g>
  <g
     inkscape:groupmode="layer"
     id="layer3"
     inkscape:label="Symbol"
     transform="translate(0,2)">
    <path
       id="path3659"
       d="m 12.84375,2.875 c -0.480003,1.4e-5 -0.895883,0.166125 -1.239583,0.486111 -0.343707,0.320013 -0.51042,0.704156 -0.510417,1.154514 -3e-6,0.450382 0.16671,0.834525 0.510417,1.154514 0.3437,0.314085 0.75958,0.473968 1.239583,0.473958 0.479995,10e-6 0.889648,-0.159873 1.227431,-0.473958 C 14.414878,5.35015 14.581592,4.966007 14.581597,4.515625 14.581592,4.065267 14.414878,3.681124 14.071181,3.361111 13.733398,3.041125 13.323745,2.875014 12.84375,2.875 z m -1.628472,4.739583 c -0.391114,9e-6 -0.801067,0.07654 -1.239583,0.21875 C 9.537175,7.969638 9.070277,8.13605 8.590278,8.331597 L 8.395834,9.133681 c 0.142222,-0.05332 0.314861,-0.110872 0.510417,-0.170139 0.20148,-0.05925 0.393702,-0.09722 0.583333,-0.09722 0.385183,7e-6 0.64148,0.07623 0.777778,0.206588 0.136293,0.130379 0.206595,0.360864 0.206597,0.692709 -2e-6,0.18371 -0.02551,0.38246 -0.07292,0.607638 -0.04148,0.219266 -0.0928,0.455979 -0.157986,0.704862 L 9.513886,13.66666 c -0.06519,0.272597 -0.10405,0.522066 -0.13368,0.74132 -0.02963,0.213337 -0.04861,0.424539 -0.04861,0.631944 -10e-7,0.533334 0.192221,0.975025 0.583333,1.324653 0.397037,0.34371 0.953819,0.510423 1.664933,0.510423 0.462218,0 0.865643,-0.05785 1.215277,-0.182292 0.349625,-0.118518 0.823051,-0.29146 1.409723,-0.522569 l 0.194444,-0.802084 c -0.100747,0.04741 -0.260932,0.104952 -0.486111,0.170139 -0.225191,0.05926 -0.429866,0.08507 -0.607639,0.08507 -0.379264,0 -0.648014,-0.05785 -0.802083,-0.182291 -0.154078,-0.124443 -0.230907,-0.361154 -0.230903,-0.704861 -4e-6,-0.136295 0.0255,-0.340971 0.07292,-0.607639 0.0474,-0.266665 0.09872,-0.497452 0.157986,-0.704861 l 0.729166,-2.588542 c 0.07111,-0.237031 0.122127,-0.493327 0.145834,-0.777778 0.02963,-0.284437 0.03645,-0.482886 0.03646,-0.595486 -6e-6,-0.545177 -0.186,-0.986867 -0.57118,-1.324652 -0.379264,-0.343695 -0.923292,-0.522561 -1.628473,-0.52257 z"
       style="font-size:48px;font-style:italic;font-variant:normal;font-weight:bold;font-stretch:normal;text-align:start;line-height:100%;writing-mode:tb-rl;text-anchor:start;fill:url(#linearGradient2950);fill-opacity:1;stroke:none;display:inline;font-family:Georgia;-inkscape-font-specification:Georgia Bold Italic" />
    <path
       style="font-size:48px;font-style:italic;font-variant:normal;font-weight:bold;font-stretch:normal;text-align:start;line-height:100%;writing-mode:tb-rl;text-anchor:start;opacity:0.2;fill:#000000;fill-opacity:1;stroke:none;display:inline;font-family:Georgia;-inkscape-font-specification:Georgia Bold Italic"
       d="m 12.84375,2.875 c -0.480003,1.4e-5 -0.9063,0.180014 -1.25,0.5 -0.343707,0.320013 -0.500003,0.674642 -0.5,1.125 -10e-7,0.1704427 0.04544,0.3484174 0.09375,0.5 0.0811,-0.2379767 0.200499,-0.4334326 0.40625,-0.625 0.3437,-0.319986 0.769997,-0.499986 1.25,-0.5 0.479995,1.4e-5 0.880967,0.180014 1.21875,0.5 C 14.268245,4.5665674 14.418895,4.7620233 14.5,5 14.54831,4.8484174 14.593748,4.6704427 14.59375,4.5 14.593745,4.049642 14.406197,3.695013 14.0625,3.375 13.724717,3.055014 13.323745,2.875014 12.84375,2.875 z m -1.625,4.75 c -0.391114,9e-6 -0.811484,0.07654 -1.25,0.21875 -0.43852,0.136305 -0.895001,0.304453 -1.375,0.5 L 8.40625,9.125 C 8.548472,9.07168 8.710694,9.028017 8.90625,8.96875 9.10773,8.9095 9.310369,8.875 9.5,8.875 c 0.1286784,2e-6 0.2122585,0.015059 0.3125,0.03125 0.051141,-0.016464 0.1058362,-0.04683 0.15625,-0.0625 0.438516,-0.14221 0.858886,-0.218741 1.25,-0.21875 0.705181,9e-6 1.245736,0.156305 1.625,0.5 0.288885,0.253339 0.460881,0.567444 0.53125,0.9375 0.02963,-0.284437 0.03124,-0.48115 0.03125,-0.59375 -6e-6,-0.545177 -0.17732,-1.005965 -0.5625,-1.34375 -0.379264,-0.343695 -0.919819,-0.499991 -1.625,-0.5 z m -0.8125,2.75 c -0.04148,0.219266 -0.09106,0.438617 -0.15625,0.6875 L 9.5,13.65625 c -0.06519,0.272597 -0.09537,0.530746 -0.125,0.75 -0.02963,0.213337 -0.03125,0.417595 -0.03125,0.625 -2e-7,0.123137 0.010675,0.261638 0.03125,0.375 0.02963,-0.219254 0.05981,-0.477403 0.125,-0.75 l 0.75,-2.59375 c 0.06519,-0.248883 0.11477,-0.468234 0.15625,-0.6875 0.04741,-0.225178 0.0625,-0.44129 0.0625,-0.625 -10e-7,-0.153454 -0.03286,-0.264771 -0.0625,-0.375 z m 1.9375,4.78125 c -0.043,0.247618 -0.0625,0.464202 -0.0625,0.59375 -4e-6,0.343707 0.06467,0.563057 0.21875,0.6875 0.10581,0.08546 0.28736,0.130772 0.5,0.15625 0.327632,-0.114476 0.723067,-0.242235 1.21875,-0.4375 l 0.1875,-0.78125 c -0.100747,0.04741 -0.274821,0.09106 -0.5,0.15625 -0.225191,0.05926 -0.415977,0.09375 -0.59375,0.09375 -0.379264,0 -0.658431,-0.06306 -0.8125,-0.1875 -0.07704,-0.06222 -0.117783,-0.163553 -0.15625,-0.28125 z"
       id="path2887" />
    <path
       style="font-size:48px;font-style:italic;font-variant:normal;font-weight:bold;font-stretch:normal;text-align:start;line-height:100%;writing-mode:tb-rl;text-anchor:start;opacity:0.6;fill:#ffffff;fill-opacity:1;stroke:none;display:inline;font-family:Georgia;-inkscape-font-specification:Georgia Bold Italic"
       d="m 11.1875,5 c -0.05438,0.1595629 -0.09375,0.319237 -0.09375,0.5 -3e-6,0.450382 0.156293,0.836261 0.5,1.15625 0.3437,0.314085 0.769997,0.50001 1.25,0.5 0.479995,10e-6 0.880967,-0.185915 1.21875,-0.5 C 14.406197,6.336261 14.593745,5.950382 14.59375,5.5 14.593748,5.319237 14.554381,5.1595629 14.5,5 c -0.07935,0.248963 -0.223872,0.4573578 -0.4375,0.65625 -0.337783,0.314085 -0.738755,0.50001 -1.21875,0.5 -0.480003,10e-6 -0.9063,-0.185915 -1.25,-0.5 C 11.380116,5.4573578 11.266844,5.248963 11.1875,5 z M 9.8125,8.90625 C 9.4187977,9.033 9.0185666,9.170684 8.59375,9.34375 L 8.40625,10.125 c 0.142222,-0.05332 0.304444,-0.09698 0.5,-0.15625 C 9.10773,9.9095 9.310369,9.875 9.5,9.875 c 0.385183,7e-6 0.644952,0.057142 0.78125,0.1875 0.06815,0.06519 0.09039,0.165851 0.125,0.28125 0.04299,-0.21157 0.0625,-0.419135 0.0625,-0.59375 -2e-6,-0.331845 -0.05121,-0.557121 -0.1875,-0.6875 C 10.190485,8.975691 10.012319,8.938525 9.8125,8.90625 z m 3.5625,1.15625 c -0.02371,0.284451 -0.08514,0.544219 -0.15625,0.78125 L 12.5,13.4375 c -0.05927,0.207409 -0.10885,0.420835 -0.15625,0.6875 -0.04742,0.266668 -0.0625,0.488705 -0.0625,0.625 -2e-6,0.15894 0.0296,0.262342 0.0625,0.375 0.0474,-0.266665 0.09698,-0.480091 0.15625,-0.6875 l 0.71875,-2.59375 c 0.07111,-0.237031 0.132543,-0.496799 0.15625,-0.78125 0.02963,-0.284437 0.03124,-0.48115 0.03125,-0.59375 -10e-7,-0.136294 -0.0078,-0.282898 -0.03125,-0.40625 z m -4,5.375 c -0.027123,0.20249 -0.03125,0.396689 -0.03125,0.59375 -10e-7,0.533334 0.171388,0.994122 0.5625,1.34375 0.397037,0.34371 0.976386,0.5 1.6875,0.5 0.462218,0 0.837866,-0.06306 1.1875,-0.1875 0.349625,-0.118518 0.850828,-0.300141 1.4375,-0.53125 l 0.1875,-0.78125 c -0.100747,0.04741 -0.274821,0.09106 -0.5,0.15625 -0.225191,0.05926 -0.415977,0.09375 -0.59375,0.09375 -0.118797,0 -0.215517,-0.01963 -0.3125,-0.03125 -0.06014,0.02101 -0.164525,0.07537 -0.21875,0.09375 -0.349634,0.124442 -0.725282,0.1875 -1.1875,0.1875 -0.711114,0 -1.290463,-0.15629 -1.6875,-0.5 C 9.612916,16.112779 9.4473954,15.803115 9.375,15.4375 z"
       id="path3668" />
  </g>
</svg>
