<?xml version="1.0" encoding="UTF-8" standalone="no"?>
<!-- Created with Inkscape (http://www.inkscape.org/) -->

<svg
   xmlns:dc="http://purl.org/dc/elements/1.1/"
   xmlns:cc="http://creativecommons.org/ns#"
   xmlns:rdf="http://www.w3.org/1999/02/22-rdf-syntax-ns#"
   xmlns:svg="http://www.w3.org/2000/svg"
   xmlns="http://www.w3.org/2000/svg"
   xmlns:xlink="http://www.w3.org/1999/xlink"
   xmlns:sodipodi="http://sodipodi.sourceforge.net/DTD/sodipodi-0.dtd"
   xmlns:inkscape="http://www.inkscape.org/namespaces/inkscape"
   width="24"
   height="24"
   id="svg2"
   sodipodi:version="0.32"
   inkscape:version="0.48.0 r9654"
   version="1.0"
   sodipodi:docname="unknown.svg"
   inkscape:output_extension="org.inkscape.output.svg.inkscape"
   style="display:inline">
  <defs
     id="defs4">
    <linearGradient
       inkscape:collect="always"
       id="linearGradient3327">
      <stop
         style="stop-color:#000000;stop-opacity:1;"
         offset="0"
         id="stop3330" />
      <stop
         style="stop-color:#000000;stop-opacity:0;"
         offset="1"
         id="stop3333" />
    </linearGradient>
    <linearGradient
       inkscape:collect="always"
       xlink:href="#linearGradient3327"
       id="linearGradient3335"
       x1="11.375"
       y1="22"
       x2="11.375"
       y2="-9.817296"
       gradientUnits="userSpaceOnUse" />
    <linearGradient
       inkscape:collect="always"
       xlink:href="#ButtonColor"
       id="linearGradient3181"
       x1="-3.0607977"
       y1="27.258198"
       x2="-3.0607977"
       y2="7.2536583"
       gradientUnits="userSpaceOnUse"
       gradientTransform="translate(12.119372,-7.2581977)" />
    <inkscape:perspective
       sodipodi:type="inkscape:persp3d"
       inkscape:vp_x="0 : 11 : 1"
       inkscape:vp_y="0 : 1000 : 0"
       inkscape:vp_z="22 : 11 : 1"
       inkscape:persp3d-origin="11 : 7.3333333 : 1"
       id="perspective2531" />
    <linearGradient
       id="ButtonShadow"
       gradientTransform="scale(0.9883037,1.0118347)"
       x1="9.3550024"
       y1="21.742682"
       x2="9.3550024"
       y2="0.49362123"
       gradientUnits="userSpaceOnUse">
      <stop
         id="stop3277"
         offset="0"
         style="stop-color:#000000;stop-opacity:0.70588237;" />
      <stop
         id="stop3279"
         offset="1"
         style="stop-color:#000000;stop-opacity:0.15686275;" />
    </linearGradient>
    <linearGradient
       inkscape:collect="always"
       id="linearGradient3232">
      <stop
         style="stop-color:#000000;stop-opacity:1;"
         offset="0"
         id="stop3234" />
      <stop
         style="stop-color:#000000;stop-opacity:0;"
         offset="1"
         id="stop3236" />
    </linearGradient>
    <linearGradient
       gradientUnits="userSpaceOnUse"
       y2="-6.0004225"
       x2="11"
       y1="14.805666"
       x1="11"
       id="linearGradient3221"
       xlink:href="#linearGradient3232"
       inkscape:collect="always" />
    <linearGradient
       id="ButtonColor"
       x1="10.31979"
       y1="21"
       x2="10.31979"
       y2="0.99929649"
       gradientUnits="userSpaceOnUse">
      <stop
         style="stop-color:#e6e6e6;stop-opacity:1;"
         offset="0"
         id="stop3189" />
      <stop
         style="stop-color:#f5f5f5;stop-opacity:1;"
         offset="1"
         id="stop3191" />
    </linearGradient>
    <linearGradient
       inkscape:collect="always"
       xlink:href="#ButtonShadow"
       id="linearGradient38042"
       gradientUnits="userSpaceOnUse"
       gradientTransform="scale(0.9883037,1.0118347)"
       x1="9.3550024"
       y1="21.742682"
       x2="9.3550024"
       y2="0.49362123" />
    <filter
       inkscape:collect="always"
       id="filter3194"
       x="-0.18000001"
       width="1.36"
       y="-0.18000001"
       height="1.36"
       color-interpolation-filters="sRGB">
      <feGaussianBlur
         inkscape:collect="always"
         stdDeviation="1.2"
         id="feGaussianBlur3196" />
    </filter>
    <clipPath
       clipPathUnits="userSpaceOnUse"
       id="clipPath2849">
      <rect
         ry="2"
         rx="2"
         y="1"
         x="1"
         height="20"
         width="20"
         id="rect2851"
         style="fill:#ffffff;fill-opacity:1;fill-rule:evenodd;stroke:none;display:inline" />
    </clipPath>
    <inkscape:perspective
       id="perspective2958"
       inkscape:persp3d-origin="0.5 : 0.33333333 : 1"
       inkscape:vp_z="1 : 0.5 : 1"
       inkscape:vp_y="0 : 1000 : 0"
       inkscape:vp_x="0 : 0.5 : 1"
       sodipodi:type="inkscape:persp3d" />
    <linearGradient
       inkscape:collect="always"
       xlink:href="#linearGradient3697"
       id="linearGradient3744"
       gradientUnits="userSpaceOnUse"
       gradientTransform="matrix(1.3297872,0,0,1.3297872,113.73124,0.70768339)"
       x1="-50.29887"
       y1="53.903732"
       x2="-50.29887"
       y2="17.807734" />
    <linearGradient
       id="linearGradient3697">
      <stop
         style="stop-color:#bababa;stop-opacity:1;"
         offset="0"
         id="stop3699" />
      <stop
         style="stop-color:#d2d2d2;stop-opacity:1;"
         offset="1"
         id="stop3701" />
    </linearGradient>
    <linearGradient
       y2="17.807734"
       x2="-50.29887"
       y1="53.903732"
       x1="-50.29887"
       gradientTransform="matrix(0.3878546,0,0,0.3878546,31.089578,-3.793592)"
       gradientUnits="userSpaceOnUse"
       id="linearGradient2967"
       xlink:href="#linearGradient3697"
       inkscape:collect="always" />
    <linearGradient
       inkscape:collect="always"
       xlink:href="#linearGradient3697"
       id="linearGradient2891"
       gradientUnits="userSpaceOnUse"
       gradientTransform="matrix(0.3878546,0,0,0.3878546,31.089578,-2.793592)"
       x1="-50.29887"
       y1="53.903732"
       x2="-50.29887"
       y2="17.807734" />
    <linearGradient
       inkscape:collect="always"
       xlink:href="#linearGradient3697"
       id="linearGradient2893"
       gradientUnits="userSpaceOnUse"
       gradientTransform="matrix(0.3878546,0,0,0.3878546,31.089578,-1.793592)"
       x1="-50.29887"
       y1="53.903732"
       x2="-50.29887"
       y2="17.807734" />
    <linearGradient
       inkscape:collect="always"
       xlink:href="#linearGradient3697"
       id="linearGradient3670"
       gradientUnits="userSpaceOnUse"
       gradientTransform="matrix(0.3878546,0,0,0.3878546,31.089578,-0.793592)"
       x1="-50.29887"
       y1="53.903732"
       x2="-50.29887"
       y2="17.807734" />
    <linearGradient
       inkscape:collect="always"
       xlink:href="#linearGradient3697"
       id="linearGradient3674"
       gradientUnits="userSpaceOnUse"
       gradientTransform="matrix(0.3878546,0,0,0.3878546,31.089578,-3.793592)"
       x1="-50.29887"
       y1="53.903732"
       x2="-50.29887"
       y2="17.807734" />
    <linearGradient
       y2="16"
       x2="10"
       y1="1"
       x1="10"
       gradientUnits="userSpaceOnUse"
       id="linearGradient3078"
       xlink:href="#linearGradient3823"
       inkscape:collect="always"
       gradientTransform="translate(1,-1)" />
    <linearGradient
       id="linearGradient3823">
      <stop
         id="stop3825"
         offset="0"
         style="stop-color:#ffffff;stop-opacity:1;" />
      <stop
         id="stop3829"
         offset="1"
         style="stop-color:#ffffff;stop-opacity:0;" />
    </linearGradient>
    <linearGradient
       inkscape:collect="always"
       xlink:href="#linearGradient3831"
       id="linearGradient3845"
       x1="11"
       y1="19.5"
       x2="21"
       y2="19.5"
       gradientUnits="userSpaceOnUse"
       spreadMethod="reflect"
       gradientTransform="translate(1,-1)" />
    <linearGradient
       id="linearGradient3831">
      <stop
         style="stop-color:#ffffff;stop-opacity:1;"
         offset="0"
         id="stop3833" />
      <stop
         id="stop3821"
         offset="0.75"
         style="stop-color:#ffffff;stop-opacity:0.49803922;" />
      <stop
         style="stop-color:#ffffff;stop-opacity:0;"
         offset="1"
         id="stop3835" />
    </linearGradient>
    <linearGradient
       y2="16"
       x2="10"
       y1="1"
       x1="10"
       gradientTransform="translate(1,-1)"
       gradientUnits="userSpaceOnUse"
       id="linearGradient3859"
       xlink:href="#linearGradient3823"
       inkscape:collect="always" />
  </defs>
  <sodipodi:namedview
     id="base"
     pagecolor="#ffffff"
     bordercolor="#e7e7e7"
     borderopacity="1"
     inkscape:pageopacity="0.0"
     inkscape:pageshadow="2"
     inkscape:zoom="22.894248"
     inkscape:cx="-7.3165403"
     inkscape:cy="10.346624"
     inkscape:document-units="px"
     inkscape:current-layer="layer1"
     showgrid="true"
     inkscape:showpageshadow="false"
     showguides="false"
     inkscape:guide-bbox="true"
     inkscape:window-width="1920"
     inkscape:window-height="1026"
     inkscape:window-x="0"
     inkscape:window-y="25"
     inkscape:window-maximized="1">
    <sodipodi:guide
       orientation="1,0"
       position="0,112"
       id="guide2383" />
    <sodipodi:guide
       orientation="0,1"
       position="26.278146,128"
       id="guide2385" />
    <sodipodi:guide
       orientation="1,0"
       position="128,54.082119"
       id="guide2387" />
    <sodipodi:guide
       orientation="0,1"
       position="78.156291,0"
       id="guide2389" />
    <sodipodi:guide
       orientation="0,1"
       position="60.863576,64.084768"
       id="guide2391" />
    <inkscape:grid
       type="xygrid"
       id="grid3672"
       visible="true"
       enabled="true"
       empspacing="8"
       snapvisiblegridlinesonly="true" />
  </sodipodi:namedview>
  <metadata
     id="metadata7">
    <rdf:RDF>
      <cc:Work
         rdf:about="">
        <dc:format>image/svg+xml</dc:format>
        <dc:type
           rdf:resource="http://purl.org/dc/dcmitype/StillImage" />
        <dc:title />
      </cc:Work>
    </rdf:RDF>
  </metadata>
  <g
     inkscape:label="Button"
     inkscape:groupmode="layer"
     id="layer1"
     transform="translate(0,2)">
    <g
       style="display:inline"
       id="g3337"
       transform="translate(1,-1)">
      <rect
         ry="2.5"
         rx="2.5"
         y="0.5"
         x="0.5"
         height="21.5"
         width="21"
         id="rect3371"
         style="opacity:0.3;fill:url(#linearGradient3335);fill-opacity:1;stroke:none;display:inline" />
      <rect
         style="opacity:0.5;fill:#000000;fill-opacity:1;stroke:none;display:inline"
         id="rect2553"
         width="20"
         height="20"
         x="1"
         y="2"
         rx="2.3809524"
         ry="2.3255813" />
    </g>
    <rect
       style="fill:url(#linearGradient3181);fill-opacity:1;fill-rule:evenodd;stroke:none;display:inline"
       id="rect3173"
       width="20"
       height="20"
       x="2"
       y="0"
       rx="2"
       ry="2" />
    <path
       style="opacity:0.6;fill:url(#linearGradient3859);fill-opacity:1;fill-rule:evenodd;stroke:none;display:inline"
       d="M 4,0 C 2.892,0 2,0.892 2,2 l 0,16 c 0,1.108 0.892,2 2,2 l 16,0 c 1.108,0 2,-0.892 2,-2 L 22,2 C 22,0.892 21.108,0 20,0 L 4,0 z m 0,1.03125 16,0 c 0.5497,0 0.96875,0.4190495 0.96875,0.96875 l 0,16 c 0,0.5497 -0.41905,0.96875 -0.96875,0.96875 l -16,0 C 3.4502995,18.96875 3.03125,18.5497 3.03125,18 l 0,-16 C 3.03125,1.4502995 3.4502995,1.03125 4,1.03125 z"
       id="rect3050"
       inkscape:connector-curvature="0" />
    <path
       id="path3235"
       d="M 4,20 C 2.892,20 2,19.108 2,18 l 0,-1 c 0,1.108 0.892,2 2,2 l 16,0 c 1.108,0 2,-0.892 2,-2 l 0,1 c 0,1.108 -0.892,2 -2,2 L 4,20 z"
       style="opacity:0.35;fill:url(#linearGradient3845);fill-opacity:1;fill-rule:evenodd;stroke:none;display:inline"
       inkscape:connector-curvature="0" />
  </g>
  <g
     inkscape:groupmode="layer"
     id="layer2"
     inkscape:label="Highlight"
     transform="translate(0,2)"
     sodipodi:insensitive="true"
     style="display:inline">
    <rect
       style="opacity:0.15;fill:#ffffff;fill-opacity:1;fill-rule:nonzero;stroke:none;display:inline;filter:url(#filter3194)"
       id="rect2410"
       width="16"
       height="16"
       x="3"
       y="3"
       rx="2"
       ry="2"
       clip-path="url(#clipPath2849)"
       transform="translate(1,-1)" />
  </g>
  <g
     inkscape:groupmode="layer"
     id="layer3"
     inkscape:label="Symbol"
     transform="translate(0,2)">
    <path
       style="font-size:48px;font-style:normal;font-variant:normal;font-weight:bold;font-stretch:normal;text-align:start;line-height:100%;writing-mode:lr-tb;text-anchor:start;fill:url(#linearGradient2967);fill-opacity:1;stroke:none;display:inline;font-family:Century Schoolbook L;-inkscape-font-specification:Century Schoolbook L Bold"
       d="M 11.890622,3 C 9.433178,3 7.697914,4.194788 7.697914,5.907552 c 0,1.005318 0.744294,1.731771 1.768229,1.731771 0.949467,0 1.604167,-0.619792 1.604167,-1.494792 0,-0.502659 -0.201491,-0.914367 -0.592448,-1.212239 -0.335106,-0.260639 -0.355469,-0.279838 -0.355469,-0.410157 0,-0.260638 0.407248,-0.464843 0.984375,-0.464843 1.11702,0 1.75,0.747591 1.75,2.050781 0,0.763297 -0.281971,1.714318 -0.747396,2.552083 -1.023935,1.824467 -1.166666,2.197391 -1.166666,3.035157 0,0.18617 0.01745,0.485982 0.05469,0.783854 l 1.002604,0 C 12.05585,11.175976 12.222048,10.857158 13.376302,9.963542 14.809811,8.865139 14.977754,8.7354 15.108073,8.623698 15.759668,8.065188 16.138021,7.211325 16.138021,6.317708 16.138018,4.288455 14.497003,3 11.890622,3 z m -0.355468,10.5 c -0.968085,0 -1.75,0.781916 -1.75,1.75 0,0.949467 0.782303,1.75 1.73177,1.75 0.986701,0 1.76823,-0.781916 1.76823,-1.75 0,-0.968084 -0.781916,-1.75 -1.75,-1.75 z"
       id="path3738" />
    <path
       style="font-size:48px;font-style:normal;font-variant:normal;font-weight:bold;font-stretch:normal;text-align:start;line-height:100%;writing-mode:lr-tb;text-anchor:start;fill:#000000;fill-opacity:1;stroke:none;display:inline;font-family:Century Schoolbook L;-inkscape-font-specification:Century Schoolbook L Bold;opacity:0.2"
       d="M 11.875 5 C 9.417556 5 7.6875 6.193486 7.6875 7.90625 C 7.6875 8.0795807 7.7081309 8.2517927 7.75 8.40625 C 7.9795381 7.3103758 8.9725313 6.5197457 10.40625 6.1875 C 10.432582 6.1748403 10.470464 6.1673526 10.5 6.15625 C 10.62521 6.1091831 10.764414 6.0755489 10.9375 6.0625 C 10.988236 6.0555253 11.042149 6.0683395 11.09375 6.0625 C 11.348761 6.0336414 11.600565 6 11.875 6 C 14.241159 6 15.824343 7.067219 16.09375 8.78125 C 16.117156 8.6260712 16.125 8.4716442 16.125 8.3125 C 16.124997 6.283247 14.481381 5 11.875 5 z M 10.65625 7.125 C 10.34074 7.2017687 10.125 7.3495208 10.125 7.53125 C 10.125 7.661569 10.133644 7.676861 10.46875 7.9375 C 10.724894 8.1326575 10.909894 8.3698001 11 8.65625 C 11.053089 8.500012 11.0625 8.3376838 11.0625 8.15625 C 11.0625 7.7419897 10.923226 7.4029019 10.65625 7.125 z M 12.8125 8.71875 C 12.711379 9.3475108 12.442819 10.027926 12.09375 10.65625 C 11.069815 12.480717 10.9375 12.849734 10.9375 13.6875 C 10.9375 13.791684 10.95741 13.969893 10.96875 14.125 C 11.05689 13.581161 11.325799 13.0246 12.09375 11.65625 C 12.559175 10.818485 12.84375 9.857047 12.84375 9.09375 C 12.84375 8.9540044 12.826874 8.8454812 12.8125 8.71875 z M 11.53125 15.5 C 10.563165 15.5 9.78125 16.281916 9.78125 17.25 C 9.78125 17.42326 9.8266372 17.590618 9.875 17.75 C 10.092078 17.030338 10.739823 16.5 11.53125 16.5 C 12.324334 16.5 13.003108 17.028004 13.21875 17.75 C 13.266422 17.590686 13.28125 17.425 13.28125 17.25 C 13.28125 16.281916 12.499334 15.5 11.53125 15.5 z "
       transform="translate(0,-2)"
       id="path2887" />
    <path
       style="font-size:48px;font-style:normal;font-variant:normal;font-weight:bold;font-stretch:normal;text-align:start;line-height:100%;writing-mode:lr-tb;text-anchor:start;fill:#ffffff;fill-opacity:1;stroke:none;display:inline;font-family:Century Schoolbook L;-inkscape-font-specification:Century Schoolbook L Bold;opacity:0.6"
       d="M 10.9375 6.0625 C 10.785762 6.0833593 10.643586 6.1255157 10.5 6.15625 C 10.470464 6.1673526 10.432582 6.1748403 10.40625 6.1875 C 10.232297 6.271131 10.125 6.400931 10.125 6.53125 C 10.125 6.661569 10.133644 6.676861 10.46875 6.9375 C 10.537505 6.9898844 10.59928 7.0656988 10.65625 7.125 C 10.793248 7.0916662 10.919023 7.0625 11.09375 7.0625 C 12.071143 7.0625 12.676072 7.6401209 12.8125 8.65625 C 12.839942 8.4688742 12.84375 8.2655394 12.84375 8.09375 C 12.84375 6.79056 12.21077 6.0625 11.09375 6.0625 C 11.042149 6.0683395 10.988236 6.0555253 10.9375 6.0625 z M 7.75 8.40625 C 7.7165508 8.5659452 7.6875 8.7356018 7.6875 8.90625 C 7.6875 9.911568 8.444815 10.625 9.46875 10.625 C 10.418217 10.625 11.0625 10.03125 11.0625 9.15625 C 11.0625 8.9829193 11.047424 8.8070131 11 8.65625 C 10.797057 9.2535003 10.221342 9.625 9.46875 9.625 C 8.6213555 9.625 7.9509715 9.1476451 7.75 8.40625 z M 16.09375 8.78125 C 15.985728 9.4974221 15.629303 10.165955 15.09375 10.625 C 14.963431 10.736702 14.808509 10.870347 13.375 11.96875 C 12.220746 12.862366 12.05585 13.165559 12 14.46875 L 11 14.46875 C 10.9836 14.337573 10.977674 14.247058 10.96875 14.125 C 10.93937 14.30628 10.9375 14.478058 10.9375 14.6875 C 10.9375 14.87367 10.96276 15.170878 11 15.46875 L 12 15.46875 C 12.05585 14.165559 12.220746 13.862366 13.375 12.96875 C 14.808509 11.870347 14.963431 11.736702 15.09375 11.625 C 15.745345 11.06649 16.125 10.206117 16.125 9.3125 C 16.125 9.1254699 16.121101 8.9552655 16.09375 8.78125 z M 9.875 17.75 C 9.8265452 17.910639 9.78125 18.073342 9.78125 18.25 C 9.78125 19.199467 10.581783 20 11.53125 20 C 12.517951 20 13.28125 19.218084 13.28125 18.25 C 13.28125 18.075 13.266333 17.909314 13.21875 17.75 C 13.002703 18.471996 12.339586 19 11.53125 19 C 10.755043 19 10.091665 18.464032 9.875 17.75 z "
       transform="translate(0,-2)"
       id="path3668" />
  </g>
</svg>
