<?xml version="1.0" encoding="UTF-8" standalone="no"?>
<!-- Created with Inkscape (http://www.inkscape.org/) -->

<svg
   xmlns:dc="http://purl.org/dc/elements/1.1/"
   xmlns:cc="http://creativecommons.org/ns#"
   xmlns:rdf="http://www.w3.org/1999/02/22-rdf-syntax-ns#"
   xmlns:svg="http://www.w3.org/2000/svg"
   xmlns="http://www.w3.org/2000/svg"
   xmlns:xlink="http://www.w3.org/1999/xlink"
   xmlns:sodipodi="http://sodipodi.sourceforge.net/DTD/sodipodi-0.dtd"
   xmlns:inkscape="http://www.inkscape.org/namespaces/inkscape"
   width="24"
   height="24"
   id="svg2"
   sodipodi:version="0.32"
   inkscape:version="0.48.0 r9654"
   version="1.0"
   sodipodi:docname="distributor-logo-linux-mint.svg"
   inkscape:output_extension="org.inkscape.output.svg.inkscape"
   style="display:inline">
  <defs
     id="defs4">
    <linearGradient
       inkscape:collect="always"
       id="linearGradient3327">
      <stop
         style="stop-color:#000000;stop-opacity:1;"
         offset="0"
         id="stop3330" />
      <stop
         style="stop-color:#000000;stop-opacity:0;"
         offset="1"
         id="stop3333" />
    </linearGradient>
    <linearGradient
       inkscape:collect="always"
       xlink:href="#linearGradient3327"
       id="linearGradient3335"
       x1="11.375"
       y1="22"
       x2="11.375"
       y2="-9.817296"
       gradientUnits="userSpaceOnUse" />
    <linearGradient
       inkscape:collect="always"
       xlink:href="#linearGradient4266"
       id="linearGradient3181"
       x1="-3.0607977"
       y1="27.258198"
       x2="-3.0607977"
       y2="7.2536583"
       gradientUnits="userSpaceOnUse"
       gradientTransform="translate(12.119372,-7.2581977)" />
    <inkscape:perspective
       sodipodi:type="inkscape:persp3d"
       inkscape:vp_x="0 : 11 : 1"
       inkscape:vp_y="0 : 1000 : 0"
       inkscape:vp_z="22 : 11 : 1"
       inkscape:persp3d-origin="11 : 7.3333333 : 1"
       id="perspective2531" />
    <linearGradient
       id="ButtonShadow"
       gradientTransform="scale(0.9883037,1.0118347)"
       x1="9.3550024"
       y1="21.742682"
       x2="9.3550024"
       y2="0.49362123"
       gradientUnits="userSpaceOnUse">
      <stop
         id="stop3277"
         offset="0"
         style="stop-color:#000000;stop-opacity:0.70588237;" />
      <stop
         id="stop3279"
         offset="1"
         style="stop-color:#000000;stop-opacity:0.15686275;" />
    </linearGradient>
    <linearGradient
       inkscape:collect="always"
       id="linearGradient3232">
      <stop
         style="stop-color:#000000;stop-opacity:1;"
         offset="0"
         id="stop3234" />
      <stop
         style="stop-color:#000000;stop-opacity:0;"
         offset="1"
         id="stop3236" />
    </linearGradient>
    <linearGradient
       gradientUnits="userSpaceOnUse"
       y2="-6.0004225"
       x2="11"
       y1="14.805666"
       x1="11"
       id="linearGradient3221"
       xlink:href="#linearGradient3232"
       inkscape:collect="always" />
    <linearGradient
       id="ButtonColor"
       x1="10.31979"
       y1="21"
       x2="10.31979"
       y2="0.99929649"
       gradientUnits="userSpaceOnUse">
      <stop
         style="stop-color:#29669f;stop-opacity:1;"
         offset="0"
         id="stop3189" />
      <stop
         style="stop-color:#88b6e0;stop-opacity:1;"
         offset="1"
         id="stop3191" />
    </linearGradient>
    <linearGradient
       inkscape:collect="always"
       xlink:href="#ButtonShadow"
       id="linearGradient38042"
       gradientUnits="userSpaceOnUse"
       gradientTransform="scale(0.9883037,1.0118347)"
       x1="9.3550024"
       y1="21.742682"
       x2="9.3550024"
       y2="0.49362123" />
    <filter
       inkscape:collect="always"
       id="filter3194"
       x="-0.18000001"
       width="1.36"
       y="-0.18000001"
       height="1.36"
       color-interpolation-filters="sRGB">
      <feGaussianBlur
         inkscape:collect="always"
         stdDeviation="1.2"
         id="feGaussianBlur3196" />
    </filter>
    <clipPath
       clipPathUnits="userSpaceOnUse"
       id="clipPath2849">
      <rect
         ry="2"
         rx="2"
         y="1"
         x="1"
         height="20"
         width="20"
         id="rect2851"
         style="fill:#ffffff;fill-opacity:1;fill-rule:evenodd;stroke:none;display:inline" />
    </clipPath>
    <inkscape:perspective
       id="perspective4282"
       inkscape:persp3d-origin="0.5 : 0.33333333 : 1"
       inkscape:vp_z="1 : 0.5 : 1"
       inkscape:vp_y="0 : 1000 : 0"
       inkscape:vp_x="0 : 0.5 : 1"
       sodipodi:type="inkscape:persp3d" />
    <linearGradient
       inkscape:collect="always"
       xlink:href="#linearGradient4266"
       id="linearGradient4272"
       x1="37.964287"
       y1="90.5"
       x2="37.964287"
       y2="5.8498044"
       gradientUnits="userSpaceOnUse" />
    <linearGradient
       id="linearGradient4266">
      <stop
         style="stop-color:#47761a;stop-opacity:1;"
         offset="0"
         id="stop4268" />
      <stop
         style="stop-color:#61a224;stop-opacity:1;"
         offset="1"
         id="stop4270" />
    </linearGradient>
    <linearGradient
       gradientTransform="translate(-82,-39)"
       y2="5.8498044"
       x2="37.964287"
       y1="90.5"
       x1="37.964287"
       gradientUnits="userSpaceOnUse"
       id="linearGradient4291"
       xlink:href="#linearGradient4266"
       inkscape:collect="always" />
    <inkscape:perspective
       id="perspective4830"
       inkscape:persp3d-origin="0.5 : 0.33333333 : 1"
       inkscape:vp_z="1 : 0.5 : 1"
       inkscape:vp_y="0 : 1000 : 0"
       inkscape:vp_x="0 : 0.5 : 1"
       sodipodi:type="inkscape:persp3d" />
    <linearGradient
       gradientTransform="translate(-64,-25)"
       inkscape:collect="always"
       xlink:href="#linearGradient4209"
       id="linearGradient4215"
       x1="29.158056"
       y1="64.280525"
       x2="49.614868"
       y2="39.964417"
       gradientUnits="userSpaceOnUse" />
    <linearGradient
       inkscape:collect="always"
       id="linearGradient4209">
      <stop
         style="stop-color:#000000;stop-opacity:1;"
         offset="0"
         id="stop4211" />
      <stop
         style="stop-color:#000000;stop-opacity:0;"
         offset="1"
         id="stop4213" />
    </linearGradient>
    <linearGradient
       gradientTransform="translate(-64,-25)"
       inkscape:collect="always"
       xlink:href="#linearGradient3312"
       id="linearGradient4201"
       x1="32"
       y1="24"
       x2="48"
       y2="72"
       gradientUnits="userSpaceOnUse" />
    <linearGradient
       id="linearGradient3312">
      <stop
         offset="0"
         style="stop-color:#b8f778;stop-opacity:1;"
         id="stop3314" />
      <stop
         offset="1"
         style="stop-color:#73b82e;stop-opacity:1;"
         id="stop3316" />
    </linearGradient>
    <linearGradient
       inkscape:collect="always"
       xlink:href="#linearGradient3312"
       id="linearGradient4911"
       gradientUnits="userSpaceOnUse"
       gradientTransform="translate(-64,-25)"
       x1="32"
       y1="24"
       x2="48"
       y2="72" />
    <linearGradient
       inkscape:collect="always"
       xlink:href="#linearGradient4209"
       id="linearGradient4913"
       gradientUnits="userSpaceOnUse"
       gradientTransform="translate(-64,-25)"
       x1="29.158056"
       y1="64.280525"
       x2="49.614868"
       y2="39.964417" />
    <linearGradient
       inkscape:collect="always"
       xlink:href="#linearGradient4209"
       id="linearGradient2873"
       gradientUnits="userSpaceOnUse"
       gradientTransform="matrix(0.25834462,0,0,0.25834462,-0.37584668,-2.3758464)"
       x1="29.158056"
       y1="64.280525"
       x2="49.614868"
       y2="39.964417" />
    <linearGradient
       inkscape:collect="always"
       xlink:href="#linearGradient3312"
       id="linearGradient2876"
       gradientUnits="userSpaceOnUse"
       gradientTransform="matrix(0.25834462,0,0,0.25834462,-0.37584668,-2.3758464)"
       x1="32"
       y1="24"
       x2="48"
       y2="72" />
    <filter
       inkscape:collect="always"
       id="filter3655">
      <feGaussianBlur
         inkscape:collect="always"
         stdDeviation="0.29967976"
         id="feGaussianBlur3657" />
    </filter>
    <linearGradient
       inkscape:collect="always"
       xlink:href="#linearGradient3312"
       id="linearGradient3667"
       gradientUnits="userSpaceOnUse"
       gradientTransform="matrix(0.25834462,0,0,0.25834462,-0.37584668,-1.3758464)"
       x1="32"
       y1="24"
       x2="48"
       y2="72" />
    <linearGradient
       inkscape:collect="always"
       xlink:href="#linearGradient3312"
       id="linearGradient3669"
       gradientUnits="userSpaceOnUse"
       gradientTransform="matrix(0.25834462,0,0,0.25834462,-0.37584668,-0.3758464)"
       x1="32"
       y1="24"
       x2="48"
       y2="72" />
    <linearGradient
       inkscape:collect="always"
       xlink:href="#linearGradient3831"
       id="linearGradient3845"
       x1="11"
       y1="19.5"
       x2="21"
       y2="19.5"
       gradientUnits="userSpaceOnUse"
       spreadMethod="reflect"
       gradientTransform="translate(1,-1)" />
    <linearGradient
       id="linearGradient3831">
      <stop
         style="stop-color:#ffffff;stop-opacity:1;"
         offset="0"
         id="stop3833" />
      <stop
         id="stop3821"
         offset="0.75"
         style="stop-color:#ffffff;stop-opacity:0.49803922;" />
      <stop
         style="stop-color:#ffffff;stop-opacity:0;"
         offset="1"
         id="stop3835" />
    </linearGradient>
    <linearGradient
       y2="16"
       x2="10"
       y1="1"
       x1="10"
       gradientUnits="userSpaceOnUse"
       id="linearGradient3084"
       xlink:href="#linearGradient3823"
       inkscape:collect="always" />
    <linearGradient
       id="linearGradient3823">
      <stop
         id="stop3825"
         offset="0"
         style="stop-color:#ffffff;stop-opacity:1;" />
      <stop
         id="stop3829"
         offset="1"
         style="stop-color:#ffffff;stop-opacity:0;" />
    </linearGradient>
    <linearGradient
       y2="16"
       x2="10"
       y1="1"
       x1="10"
       gradientUnits="userSpaceOnUse"
       id="linearGradient3078"
       xlink:href="#linearGradient3823"
       inkscape:collect="always"
       gradientTransform="translate(1,-1)" />
  </defs>
  <sodipodi:namedview
     id="base"
     pagecolor="#ffffff"
     bordercolor="#e7e7e7"
     borderopacity="1"
     inkscape:pageopacity="0.0"
     inkscape:pageshadow="2"
     inkscape:zoom="24.339057"
     inkscape:cx="-6.5300075"
     inkscape:cy="7.7083704"
     inkscape:document-units="px"
     inkscape:current-layer="layer1"
     showgrid="true"
     inkscape:showpageshadow="false"
     showguides="false"
     inkscape:guide-bbox="true"
     inkscape:window-width="1920"
     inkscape:window-height="1026"
     inkscape:window-x="0"
     inkscape:window-y="25"
     inkscape:window-maximized="1"
     inkscape:snap-global="false">
    <sodipodi:guide
       orientation="1,0"
       position="0,112"
       id="guide2383" />
    <sodipodi:guide
       orientation="0,1"
       position="26.278146,128"
       id="guide2385" />
    <sodipodi:guide
       orientation="1,0"
       position="128,54.082119"
       id="guide2387" />
    <sodipodi:guide
       orientation="0,1"
       position="78.156291,0"
       id="guide2389" />
    <sodipodi:guide
       orientation="0,1"
       position="60.863576,64.084768"
       id="guide2391" />
    <inkscape:grid
       type="xygrid"
       id="grid3672"
       visible="true"
       enabled="true"
       empspacing="8"
       snapvisiblegridlinesonly="true" />
  </sodipodi:namedview>
  <metadata
     id="metadata7">
    <rdf:RDF>
      <cc:Work
         rdf:about="">
        <dc:format>image/svg+xml</dc:format>
        <dc:type
           rdf:resource="http://purl.org/dc/dcmitype/StillImage" />
        <dc:title />
      </cc:Work>
    </rdf:RDF>
  </metadata>
  <g
     inkscape:label="Button"
     inkscape:groupmode="layer"
     id="layer1"
     transform="translate(0,2)">
    <g
       style="display:inline"
       id="g3337"
       transform="translate(1,-1)">
      <rect
         ry="2.5"
         rx="2.5"
         y="0.5"
         x="0.5"
         height="21.5"
         width="21"
         id="rect3371"
         style="opacity:0.3;fill:url(#linearGradient3335);fill-opacity:1;stroke:none;display:inline" />
      <rect
         style="opacity:0.5;fill:#000000;fill-opacity:1;stroke:none;display:inline"
         id="rect2553"
         width="20"
         height="20"
         x="1"
         y="2"
         rx="2.3809524"
         ry="2.3255813" />
    </g>
    <rect
       style="fill:url(#linearGradient3181);fill-opacity:1;fill-rule:evenodd;stroke:none;display:inline"
       id="rect3173"
       width="20"
       height="20"
       x="2"
       y="0"
       rx="2"
       ry="2" />
    <path
       style="opacity:0.35;fill:url(#linearGradient3078);fill-opacity:1;fill-rule:evenodd;stroke:none;display:inline"
       d="M 4,0 C 2.892,0 2,0.892 2,2 l 0,16 c 0,1.108 0.892,2 2,2 l 16,0 c 1.108,0 2,-0.892 2,-2 L 22,2 C 22,0.892 21.108,0 20,0 L 4,0 z m 0,1.03125 16,0 c 0.5497,0 0.96875,0.4190495 0.96875,0.96875 l 0,16 c 0,0.5497 -0.41905,0.96875 -0.96875,0.96875 l -16,0 C 3.4502995,18.96875 3.03125,18.5497 3.03125,18 l 0,-16 C 3.03125,1.4502995 3.4502995,1.03125 4,1.03125 z"
       id="rect3050"
       inkscape:connector-curvature="0" />
    <path
       id="path3235"
       d="M 4,20 C 2.892,20 2,19.108 2,18 l 0,-1 c 0,1.108 0.892,2 2,2 l 16,0 c 1.108,0 2,-0.892 2,-2 l 0,1 c 0,1.108 -0.892,2 -2,2 L 4,20 z"
       style="opacity:0.2;fill:url(#linearGradient3845);fill-opacity:1;fill-rule:evenodd;stroke:none;display:inline"
       inkscape:connector-curvature="0" />
  </g>
  <g
     inkscape:groupmode="layer"
     id="layer2"
     inkscape:label="Highlight"
     transform="translate(0,2)"
     sodipodi:insensitive="true">
    <rect
       style="opacity:0.15;fill:#ffffff;fill-opacity:1;fill-rule:nonzero;stroke:none;display:inline;filter:url(#filter3194)"
       id="rect2410"
       width="16"
       height="16"
       x="3"
       y="3"
       rx="2"
       ry="2"
       clip-path="url(#clipPath2849)"
       transform="translate(1,-1)" />
  </g>
  <g
     inkscape:groupmode="layer"
     id="layer3"
     inkscape:label="Symbol"
     transform="translate(0,2)"
     sodipodi:insensitive="true">
    <path
       sodipodi:nodetypes="ccccccccccccccc"
       id="path3653"
       d="m 2.9826334,4.0493907 0,4.1335138 2.0667569,0 0,1.7034599 0,2.9951826 C 5.0493903,15.715381 7.3340091,18 10.167843,18 L 13.881547,18 19,18 19,12.881547 19,9.1678434 C 19,6.3340094 16.715381,4.0493907 13.881547,4.0493907 l -1.598507,0 -2.066757,0 -5.1668927,0 -2.0667569,0 z"
       style="opacity:0.6;color:#000000;fill:#000000;fill-opacity:1;fill-rule:nonzero;stroke:none;stroke-width:2;marker:none;visibility:visible;display:inline;overflow:visible;filter:url(#filter3655);enable-background:accumulate"
       inkscape:connector-curvature="0" />
    <path
       style="color:#000000;fill:#ffffff;fill-opacity:1;fill-rule:nonzero;stroke:none;stroke-width:2;marker:none;visibility:visible;display:inline;overflow:visible;enable-background:accumulate"
       d="m 2.9826334,3.0493907 0,4.1335138 2.0667569,0 0,1.7034599 0,2.9951826 C 5.0493903,14.715381 7.3340091,17 10.167843,17 L 13.881547,17 19,17 19,11.881547 19,8.1678434 C 19,5.3340094 16.715381,3.0493907 13.881547,3.0493907 l -1.598507,0 -2.066757,0 -5.1668927,0 -2.0667569,0 z"
       id="rect3374"
       sodipodi:nodetypes="ccccccccccccccc"
       inkscape:connector-curvature="0" />
    <path
       style="color:#000000;fill:url(#linearGradient2876);fill-opacity:1;fill-rule:nonzero;stroke:none;stroke-width:2;marker:none;visibility:visible;display:inline;overflow:visible;enable-background:accumulate"
       d="m 4.0160119,4.0827691 0,2.066757 1.0333784,0 c 0.5411819,-3.875e-4 1.0337676,0.4921966 1.0333785,1.0333784 l 0,1.7034599 0,2.9951826 c 0,2.278887 1.806188,4.085075 4.0850742,4.085075 l 3.713704,0 4.085074,0 0,-4.085075 0,-3.7137036 c 0,-2.2788863 -1.806188,-4.0850743 -4.085074,-4.0850743 l -1.598507,0 -2.066757,0 -5.1668927,0 -1.0333784,0 z"
       id="path3389"
       sodipodi:nodetypes="cccccccccccccccc"
       inkscape:connector-curvature="0" />
    <path
       style="opacity:0.175;fill:url(#linearGradient2873);fill-opacity:1;stroke:none;display:inline"
       d="m 4.0160119,5.6893497 0,0.4601764 1.0333784,0 c 0.5411819,-3.875e-4 1.0337676,0.4921966 1.0333785,1.0333784 l 0,1.7034599 0,2.9951826 c 0,2.278887 1.806188,4.085075 4.0850742,4.085075 l 3.713704,0 3.72985,0 C 13.798736,14.136327 13.926885,9.4524538 10.418114,7.1102451 8.4417828,5.7909851 5.0740362,5.6869309 4.0160119,5.6893497 z"
       id="path4203"
       inkscape:connector-curvature="0" />
    <path
       sodipodi:nodetypes="ccccccccscsccccsccccsccccccccc"
       id="path3676"
       d="m 7.9883084,6.3383176 0,6.5420734 0,0.242299 c 0,1.073869 0.88447,1.938392 1.9831166,1.938392 l 4.062106,0 c 1.098647,0 1.983117,-0.864523 1.983117,-1.938392 l 0,-0.242299 0,-3.1700163 c 0,-0.9367263 -0.776888,-1.696093 -1.735228,-1.696093 -0.486889,0 -0.924315,0.1991928 -1.239447,0.5148853 -0.315132,-0.3156925 -0.752558,-0.5148853 -1.239448,-0.5148853 -0.958339,0 -1.735227,0.7593667 -1.735227,1.696093 l 0,2.6854183 0.991558,0 0,-2.6854183 c 0,-0.4014541 0.332952,-0.726897 0.743669,-0.726897 0.410716,0 0.743669,0.3254429 0.743669,0.726897 l 0,2.6854183 0.991558,0 0,-2.6854183 c 0,-0.4014541 0.332952,-0.726897 0.743668,-0.726897 0.410717,0 0.743669,0.3254429 0.743669,0.726897 l 0,3.1700163 0,0.242299 c 0,0.536935 -0.442235,0.969195 -0.991558,0.969195 l -4.062106,0 c -0.5493233,0 -0.9915583,-0.43226 -0.9915583,-0.969195 l 0,-0.242299 0,-6.5420734 -0.9915583,0 z"
       style="opacity:0.2;color:#000000;fill:#000000;fill-opacity:1;fill-rule:nonzero;stroke:none;stroke-width:2;marker:none;visibility:visible;display:inline;overflow:visible;enable-background:accumulate"
       inkscape:connector-curvature="0" />
    <path
       style="color:#000000;fill:#ffffff;fill-opacity:1;fill-rule:nonzero;stroke:none;stroke-width:2;marker:none;visibility:visible;display:inline;overflow:visible;enable-background:accumulate"
       d="m 7.9883084,5.3383176 0,6.5420734 0,0.242299 c 0,1.073869 0.88447,1.938392 1.9831166,1.938392 l 4.062106,0 c 1.098647,0 1.983117,-0.864523 1.983117,-1.938392 l 0,-0.242299 0,-3.1700163 c 0,-0.9367263 -0.776888,-1.696093 -1.735228,-1.696093 -0.486889,0 -0.924315,0.1991928 -1.239447,0.5148853 -0.315132,-0.3156925 -0.752558,-0.5148853 -1.239448,-0.5148853 -0.958339,0 -1.735227,0.7593667 -1.735227,1.696093 l 0,2.6854183 0.991558,0 0,-2.6854183 c 0,-0.4014541 0.332952,-0.726897 0.743669,-0.726897 0.410716,0 0.743669,0.3254429 0.743669,0.726897 l 0,2.6854183 0.991558,0 0,-2.6854183 c 0,-0.4014541 0.332952,-0.726897 0.743668,-0.726897 0.410717,0 0.743669,0.3254429 0.743669,0.726897 l 0,3.1700163 0,0.242299 c 0,0.536935 -0.442235,0.969195 -0.991558,0.969195 l -4.062106,0 c -0.5493233,0 -0.9915583,-0.43226 -0.9915583,-0.969195 l 0,-0.242299 0,-6.5420734 -0.9915583,0 z"
       id="rect3392"
       sodipodi:nodetypes="ccccccccscsccccsccccsccccccccc"
       inkscape:connector-curvature="0" />
    <path
       style="opacity:0.3;color:#000000;fill:#52a800;fill-opacity:1;fill-rule:nonzero;stroke:none;stroke-width:2;marker:none;visibility:visible;display:inline;overflow:visible;enable-background:accumulate"
       d="m 15.025089,11.403364 0,0.477027 0,0.242299 c 0,0.536935 -0.442235,0.969195 -0.991558,0.969195 l -3.011363,0 0,0.969197 3.011363,0 c 1.098647,0 1.983117,-0.864523 1.983117,-1.938392 l 0,-0.242299 0,-0.477027 -0.991559,0 z"
       id="rect4261"
       sodipodi:nodetypes="ccccccccccc"
       inkscape:connector-curvature="0" />
    <path
       style="opacity:0.2;color:#000000;fill:#000000;fill-opacity:1;fill-rule:nonzero;stroke:none;stroke-width:2;marker:none;visibility:visible;display:inline;overflow:visible;enable-background:accumulate"
       d="m 4.03125,6.09375 0,1 1.03125,0 5.15625,0 2.0625,0 1.59375,0 c 2.278886,0 4.09375,1.7836137 4.09375,4.0625 l 0,-1 c 0,-2.2788863 -1.814864,-4.0625 -4.09375,-4.0625 l -1.59375,0 -2.0625,0 -5.15625,0 -1.03125,0 z"
       id="path3663"
       transform="translate(0,-2)"
       inkscape:connector-curvature="0" />
  </g>
</svg>
