<?xml version="1.0" encoding="UTF-8" standalone="no"?>
<!-- Created with Inkscape (http://www.inkscape.org/) -->

<svg
   xmlns:dc="http://purl.org/dc/elements/1.1/"
   xmlns:cc="http://creativecommons.org/ns#"
   xmlns:rdf="http://www.w3.org/1999/02/22-rdf-syntax-ns#"
   xmlns:svg="http://www.w3.org/2000/svg"
   xmlns="http://www.w3.org/2000/svg"
   xmlns:xlink="http://www.w3.org/1999/xlink"
   xmlns:sodipodi="http://sodipodi.sourceforge.net/DTD/sodipodi-0.dtd"
   xmlns:inkscape="http://www.inkscape.org/namespaces/inkscape"
   width="24"
   height="24"
   id="svg2"
   sodipodi:version="0.32"
   inkscape:version="0.48.1 r9760"
   version="1.0"
   sodipodi:docname="distributor-logo-slackware.svg"
   inkscape:output_extension="org.inkscape.output.svg.inkscape"
   style="display:inline">
  <defs
     id="defs4">
    <linearGradient
       inkscape:collect="always"
       id="linearGradient3327">
      <stop
         style="stop-color:#000000;stop-opacity:1;"
         offset="0"
         id="stop3330" />
      <stop
         style="stop-color:#000000;stop-opacity:0;"
         offset="1"
         id="stop3333" />
    </linearGradient>
    <linearGradient
       inkscape:collect="always"
       xlink:href="#linearGradient3327"
       id="linearGradient3335"
       x1="11.375"
       y1="22"
       x2="11.375"
       y2="-9.817296"
       gradientUnits="userSpaceOnUse" />
    <linearGradient
       inkscape:collect="always"
       xlink:href="#linearGradient3700"
       id="linearGradient3181"
       x1="-3.0607977"
       y1="27.258198"
       x2="-3.0607977"
       y2="7.2536583"
       gradientUnits="userSpaceOnUse"
       gradientTransform="translate(12.119372,-7.2581977)" />
    <inkscape:perspective
       sodipodi:type="inkscape:persp3d"
       inkscape:vp_x="0 : 11 : 1"
       inkscape:vp_y="0 : 1000 : 0"
       inkscape:vp_z="22 : 11 : 1"
       inkscape:persp3d-origin="11 : 7.3333333 : 1"
       id="perspective2531" />
    <linearGradient
       id="ButtonShadow"
       gradientTransform="scale(0.9883037,1.0118347)"
       x1="9.3550024"
       y1="21.742682"
       x2="9.3550024"
       y2="0.49362123"
       gradientUnits="userSpaceOnUse">
      <stop
         id="stop3277"
         offset="0"
         style="stop-color:#000000;stop-opacity:0.70588237;" />
      <stop
         id="stop3279"
         offset="1"
         style="stop-color:#000000;stop-opacity:0.15686275;" />
    </linearGradient>
    <linearGradient
       inkscape:collect="always"
       id="linearGradient3232">
      <stop
         style="stop-color:#000000;stop-opacity:1;"
         offset="0"
         id="stop3234" />
      <stop
         style="stop-color:#000000;stop-opacity:0;"
         offset="1"
         id="stop3236" />
    </linearGradient>
    <linearGradient
       gradientUnits="userSpaceOnUse"
       y2="-6.0004225"
       x2="11"
       y1="14.805666"
       x1="11"
       id="linearGradient3221"
       xlink:href="#linearGradient3232"
       inkscape:collect="always" />
    <linearGradient
       id="ButtonColor"
       x1="10.31979"
       y1="21"
       x2="10.31979"
       y2="0.99929649"
       gradientUnits="userSpaceOnUse">
      <stop
         style="stop-color:#29669f;stop-opacity:1;"
         offset="0"
         id="stop3189" />
      <stop
         style="stop-color:#88b6e0;stop-opacity:1;"
         offset="1"
         id="stop3191" />
    </linearGradient>
    <linearGradient
       inkscape:collect="always"
       xlink:href="#ButtonShadow"
       id="linearGradient38042"
       gradientUnits="userSpaceOnUse"
       gradientTransform="scale(0.9883037,1.0118347)"
       x1="9.3550024"
       y1="21.742682"
       x2="9.3550024"
       y2="0.49362123" />
    <filter
       inkscape:collect="always"
       id="filter3194"
       x="-0.18000001"
       width="1.36"
       y="-0.18000001"
       height="1.36"
       color-interpolation-filters="sRGB">
      <feGaussianBlur
         inkscape:collect="always"
         stdDeviation="1.2"
         id="feGaussianBlur3196" />
    </filter>
    <clipPath
       clipPathUnits="userSpaceOnUse"
       id="clipPath2849">
      <rect
         ry="2"
         rx="2"
         y="1"
         x="1"
         height="20"
         width="20"
         id="rect2851"
         style="fill:#ffffff;fill-opacity:1;fill-rule:evenodd;stroke:none;display:inline" />
    </clipPath>
    <linearGradient
       y2="16"
       x2="10"
       y1="1"
       x1="10"
       gradientUnits="userSpaceOnUse"
       id="linearGradient3078"
       xlink:href="#linearGradient3823"
       inkscape:collect="always"
       gradientTransform="translate(1,-1)" />
    <linearGradient
       id="linearGradient3823">
      <stop
         id="stop3825"
         offset="0"
         style="stop-color:#ffffff;stop-opacity:1;" />
      <stop
         id="stop3829"
         offset="1"
         style="stop-color:#ffffff;stop-opacity:0;" />
    </linearGradient>
    <linearGradient
       inkscape:collect="always"
       xlink:href="#linearGradient3831"
       id="linearGradient3845"
       x1="11"
       y1="19.5"
       x2="21"
       y2="19.5"
       gradientUnits="userSpaceOnUse"
       spreadMethod="reflect"
       gradientTransform="translate(1,-1)" />
    <linearGradient
       id="linearGradient3831">
      <stop
         style="stop-color:#ffffff;stop-opacity:1;"
         offset="0"
         id="stop3833" />
      <stop
         id="stop3821"
         offset="0.75"
         style="stop-color:#ffffff;stop-opacity:0.49803922;" />
      <stop
         style="stop-color:#ffffff;stop-opacity:0;"
         offset="1"
         id="stop3835" />
    </linearGradient>
    <linearGradient
       y2="16"
       x2="10"
       y1="1"
       x1="10"
       gradientTransform="translate(1,-1)"
       gradientUnits="userSpaceOnUse"
       id="linearGradient3961"
       xlink:href="#linearGradient3823"
       inkscape:collect="always" />
    <linearGradient
       inkscape:collect="always"
       xlink:href="#linearGradient3700"
       id="linearGradient3617"
       gradientUnits="userSpaceOnUse"
       x1="48"
       y1="90"
       x2="48"
       y2="5.9877172" />
    <linearGradient
       id="linearGradient3700">
      <stop
         style="stop-color:#4b61ac;stop-opacity:1"
         offset="0"
         id="stop3702" />
      <stop
         style="stop-color:#93a0d0;stop-opacity:1;"
         offset="1"
         id="stop3704" />
    </linearGradient>
    <linearGradient
       inkscape:collect="always"
       xlink:href="#linearGradient3785"
       id="linearGradient4004"
       gradientUnits="userSpaceOnUse"
       gradientTransform="matrix(0.44930767,0,0,0.44741484,-116.00993,-161.73218)"
       x1="365.51193"
       y1="408.39655"
       x2="365.97757"
       y2="520.1709" />
    <linearGradient
       id="linearGradient3785">
      <stop
         id="stop3787"
         offset="0"
         style="stop-color:#384880;stop-opacity:1;" />
      <stop
         id="stop3789"
         offset="1"
         style="stop-color:#000000;stop-opacity:1;" />
    </linearGradient>
    <linearGradient
       inkscape:collect="always"
       xlink:href="#linearGradient3785"
       id="linearGradient3957"
       gradientUnits="userSpaceOnUse"
       gradientTransform="matrix(0.12083946,0,0,0.11701461,-32.026608,-44.790856)"
       x1="365.51193"
       y1="408.39655"
       x2="365.97757"
       y2="520.1709" />
  </defs>
  <sodipodi:namedview
     id="base"
     pagecolor="#ffffff"
     bordercolor="#e7e7e7"
     borderopacity="1"
     inkscape:pageopacity="0.0"
     inkscape:pageshadow="2"
     inkscape:zoom="13.918519"
     inkscape:cx="31.108289"
     inkscape:cy="2.1784787"
     inkscape:document-units="px"
     inkscape:current-layer="layer3"
     showgrid="true"
     inkscape:showpageshadow="false"
     showguides="false"
     inkscape:guide-bbox="true"
     inkscape:window-width="1920"
     inkscape:window-height="1029"
     inkscape:window-x="0"
     inkscape:window-y="25"
     inkscape:window-maximized="1">
    <sodipodi:guide
       orientation="1,0"
       position="0,112"
       id="guide2383" />
    <sodipodi:guide
       orientation="0,1"
       position="26.278146,128"
       id="guide2385" />
    <sodipodi:guide
       orientation="1,0"
       position="128,54.082119"
       id="guide2387" />
    <sodipodi:guide
       orientation="0,1"
       position="78.156291,0"
       id="guide2389" />
    <sodipodi:guide
       orientation="0,1"
       position="60.863576,64.084768"
       id="guide2391" />
    <inkscape:grid
       type="xygrid"
       id="grid3672"
       visible="true"
       enabled="true"
       empspacing="8"
       snapvisiblegridlinesonly="true" />
  </sodipodi:namedview>
  <metadata
     id="metadata7">
    <rdf:RDF>
      <cc:Work
         rdf:about="">
        <dc:format>image/svg+xml</dc:format>
        <dc:type
           rdf:resource="http://purl.org/dc/dcmitype/StillImage" />
        <dc:title></dc:title>
      </cc:Work>
    </rdf:RDF>
  </metadata>
  <g
     inkscape:label="Button"
     inkscape:groupmode="layer"
     id="layer1"
     transform="translate(0,2)"
     sodipodi:insensitive="true">
    <g
       style="display:inline"
       id="g3337"
       transform="translate(1,-1)">
      <rect
         ry="2.5"
         rx="2.5"
         y="0.5"
         x="0.5"
         height="21.5"
         width="21"
         id="rect3371"
         style="opacity:0.3;fill:url(#linearGradient3335);fill-opacity:1;stroke:none;display:inline" />
      <rect
         style="opacity:0.5;fill:#000000;fill-opacity:1;stroke:none;display:inline"
         id="rect2553"
         width="20"
         height="20"
         x="1"
         y="2"
         rx="2.3809524"
         ry="2.3255813" />
    </g>
    <rect
       style="fill:url(#linearGradient3181);fill-opacity:1;fill-rule:evenodd;stroke:none;display:inline"
       id="rect3173"
       width="20"
       height="20"
       x="2"
       y="0"
       rx="2"
       ry="2" />
    <path
       id="path3018"
       d="m -26,-1.8e-7 c -1.108,0 -2,0.89199998 -2,1.99999998 l 0,1 c 0,-1.108 0.892,-2 2,-2 l 16,0 c 1.108,0 2,0.892 2,2 l 0,-1 C -8,0.8919998 -8.892,-1.8e-7 -10,-1.8e-7 l -16,0 z"
       style="opacity:0.25;fill:#ffffff;fill-opacity:1;fill-rule:evenodd;stroke:none;display:inline"
       inkscape:connector-curvature="0" />
    <path
       style="opacity:0.15;fill:#000000;fill-opacity:1;fill-rule:evenodd;stroke:none;display:inline"
       d="m -26,19.999999 c -1.108,0 -2,-0.891999 -2,-1.999999 l 0,-1 c 0,1.108 0.892,2 2,2 l 16,0 c 1.108,0 2,-0.892 2,-2 l 0,1 c 0,1.108 -0.892,1.999999 -2,1.999999 l -16,0 z"
       id="path3020"
       inkscape:connector-curvature="0" />
    <path
       style="opacity:0.3;fill:url(#linearGradient3961);fill-opacity:1;fill-rule:evenodd;stroke:none;display:inline"
       d="M 4,0 C 2.892,0 2,0.892 2,2 l 0,16 c 0,1.108 0.892,2 2,2 l 16,0 c 1.108,0 2,-0.892 2,-2 L 22,2 C 22,0.892 21.108,0 20,0 L 4,0 z m 0,1.03125 16,0 c 0.5497,0 0.96875,0.4190495 0.96875,0.96875 l 0,16 c 0,0.5497 -0.41905,0.96875 -0.96875,0.96875 l -16,0 C 3.4502995,18.96875 3.03125,18.5497 3.03125,18 l 0,-16 C 3.03125,1.4502995 3.4502995,1.03125 4,1.03125 z"
       id="rect3050"
       inkscape:connector-curvature="0" />
    <path
       id="path3235"
       d="M 4,20 C 2.892,20 2,19.108 2,18 l 0,-1 c 0,1.108 0.892,2 2,2 l 16,0 c 1.108,0 2,-0.892 2,-2 l 0,1 c 0,1.108 -0.892,2 -2,2 L 4,20 z"
       style="opacity:0.2;fill:url(#linearGradient3845);fill-opacity:1;fill-rule:evenodd;stroke:none;display:inline"
       inkscape:connector-curvature="0" />
  </g>
  <g
     inkscape:groupmode="layer"
     id="layer2"
     inkscape:label="Highlight"
     transform="translate(0,2)"
     sodipodi:insensitive="true">
    <rect
       style="opacity:0.15;fill:#ffffff;fill-opacity:1;fill-rule:nonzero;stroke:none;display:inline;filter:url(#filter3194)"
       id="rect2410"
       width="16"
       height="16"
       x="3"
       y="3"
       rx="2"
       ry="2"
       clip-path="url(#clipPath2849)"
       transform="translate(1,-1)" />
  </g>
  <g
     inkscape:groupmode="layer"
     id="layer3"
     inkscape:label="Symbol"
     transform="translate(0,2)">
    <path
       sodipodi:type="inkscape:offset"
       inkscape:radius="0.52285486"
       inkscape:original="M 12.125 3 C 10.903974 3 9.4234885 3.2564322 8.1875 3.90625 C 6.9515115 4.5560678 5.9375 5.6728017 5.9375 7.21875 C 5.9375 8.7098482 6.9179219 9.7522496 8.09375 10.34375 C 9.2695781 10.93525 10.664322 11.15625 11.78125 11.15625 C 12.829658 11.15625 13.825684 11.306366 14.5 11.59375 C 15.174316 11.881134 15.5 12.200771 15.5 12.8125 C 15.5 13.411137 15.181736 13.794387 14.53125 14.125 C 13.880764 14.455613 12.908608 14.65625 11.84375 14.65625 C 10.678761 14.65625 9.8478084 14.280583 9.3125 13.84375 C 8.7771916 13.406917 8.5625 12.861621 8.5625 12.6875 C 8.5625 12.260643 8.3073861 12.017279 8.03125 11.84375 C 7.7551139 11.670221 7.4057464 11.5625 7.03125 11.5625 C 6.6694917 11.5625 6.3511265 11.648862 6.09375 11.84375 C 5.8363735 12.038638 5.65625 12.352898 5.65625 12.6875 L 5.65625 15.34375 A 0.5080839 0.5080839 0 0 0 5.65625 15.375 C 5.6697577 15.755052 5.7466502 16.158124 6 16.5 C 6.2037316 16.77492 6.550152 16.927677 6.9375 17 L 5.5 17 L 5.5 14.5 A 0.5080839 0.5080839 0 0 0 5 14 L 4.40625 14 A 0.5080839 0.5080839 0 0 0 3.53125 14.21875 L 3.5 14.40625 A 0.5080839 0.5080839 0 0 0 3.53125 14.65625 A 0.5080839 0.5080839 0 0 0 3.53125 14.71875 L 3.5 18.5 A 0.5080839 0.5080839 0 0 0 4 19 L 20 19 A 0.5080839 0.5080839 0 0 0 20.5 18.5 L 20.5 17.5 A 0.5080839 0.5080839 0 0 0 20 17 L 12.75 17 C 14.302643 16.916954 15.686372 16.561369 16.6875 15.90625 C 17.81551 15.168102 18.507976 14.079648 18.5 12.84375 C 18.487795 10.948977 17.246347 9.7866425 15.84375 9.21875 C 14.441153 8.6508575 12.848415 8.5625 11.8125 8.5625 C 10.854676 8.5527145 10.132343 8.3143372 9.6875 8.03125 C 9.242657 7.7481628 9.09375 7.4411174 9.09375 7.21875 C 9.09375 6.6308323 9.7913157 5.40625 12.0625 5.40625 C 14.650565 5.40625 15.050501 6.7128424 15.09375 6.9375 A 0.5080839 0.5080839 0 0 0 15.09375 6.96875 C 15.185276 7.2891637 15.420204 7.5713537 15.6875 7.71875 C 15.954796 7.8661463 16.258696 7.90625 16.5625 7.90625 C 16.892603 7.90625 17.209093 7.8377282 17.46875 7.65625 C 17.728407 7.4747718 17.90625 7.1536556 17.90625 6.8125 L 17.90625 4.3125 C 17.90625 3.8739411 17.654297 3.6037238 17.375 3.40625 C 17.095703 3.2087762 16.73974 3.09375 16.34375 3.09375 C 16.06299 3.09375 15.753975 3.1062785 15.46875 3.25 C 15.344973 3.3123697 15.257011 3.4398228 15.15625 3.5625 C 14.85614 3.4405807 14.589284 3.3004429 14.1875 3.21875 C 13.553972 3.0899376 12.820568 3 12.125 3 z M 8.6875 16.375 C 9.626241 16.753673 10.590619 16.944795 11.59375 17 L 7.90625 17 C 8.0579746 16.966413 8.19936 16.949626 8.34375 16.84375 C 8.5002479 16.728996 8.6213534 16.550174 8.6875 16.375 z "
       style="opacity:0.05;fill:#ffffff;fill-opacity:1;stroke:none"
       id="path3955"
       d="m 12.125,2.46875 c -1.29423,0 -2.8494407,0.2652687 -4.1875,0.96875 -1.3501238,0.7098242 -2.53125,2.0066693 -2.53125,3.78125 0,1.7202887 1.1456021,2.943861 2.4375,3.59375 1.2774052,0.642598 2.751603,0.875 3.9375,0.875 0.998498,0 1.936104,0.134676 2.5,0.375 0.30077,0.128184 0.47775,0.276651 0.5625,0.375 0.08475,0.09835 0.125,0.161925 0.125,0.375 0,0.20666 -0.03145,0.314245 -0.125,0.4375 -0.09355,0.123255 -0.2793,0.262312 -0.5625,0.40625 -0.539077,0.273989 -1.438318,0.46875 -2.4375,0.46875 -1.052588,0 -1.743776,-0.325403 -2.1875,-0.6875 C 9.444635,13.264814 9.2785458,13.066839 9.1875,12.90625 9.0964542,12.745661 9.09375,12.559667 9.09375,12.6875 c 0,-0.635182 -0.4414835,-1.067734 -0.78125,-1.28125 -0.3618198,-0.227374 -0.8064902,-0.375 -1.28125,-0.375 -0.4449719,0 -0.8864572,0.130972 -1.25,0.40625 -0.3794372,0.287314 -0.65625,0.727755 -0.65625,1.25 l 0,0.8125 c -0.01421,-0.0019 -0.031391,-0.03127 -0.03125,-0.03125 2.353e-4,2.6e-5 -0.031486,-1.5e-5 -0.03125,0 2.363e-4,1.5e-5 -0.062737,-4e-6 -0.0625,0 l -0.40625,0 c 2.822e-4,1.82e-4 -0.062794,-0.03141 -0.0625,-0.03125 2.94e-4,1.63e-4 -0.062804,-0.03139 -0.0625,-0.03125 3.044e-4,1.42e-4 -0.062813,-0.03137 -0.0625,-0.03125 3.134e-4,1.21e-4 -0.062821,-0.03135 -0.0625,-0.03125 3.209e-4,10e-5 -0.094077,-7.8e-5 -0.09375,0 3.27e-4,7.8e-5 -0.062831,-0.0313 -0.0625,-0.03125 3.315e-4,5.5e-5 -0.062835,-3.2e-5 -0.0625,0 3.345e-4,3.2e-5 -0.062836,-9e-6 -0.0625,0 3.359e-4,9e-6 -0.094086,1.4e-5 -0.09375,0 3.358e-4,-1.4e-5 -0.062834,3.6e-5 -0.0625,0 3.341e-4,-3.6e-5 -0.062831,5.9e-5 -0.0625,0 3.308e-4,-5.9e-5 -0.062826,0.03133 -0.0625,0.03125 3.26e-4,-8.2e-5 -0.06282,1.04e-4 -0.0625,0 3.197e-4,-1.04e-4 -0.062812,0.03138 -0.0625,0.03125 3.119e-4,-1.25e-4 -0.094053,0.0314 -0.09375,0.03125 3.026e-4,-1.46e-4 -0.062792,0.03142 -0.0625,0.03125 2.92e-4,-1.66e-4 -0.03153,0.03144 -0.03125,0.03125 2.799e-4,-1.86e-4 -0.062767,0.0627 -0.0625,0.0625 2.666e-4,-2.05e-4 -0.062752,0.03147 -0.0625,0.03125 2.52e-4,-2.22e-4 -0.062736,0.06274 -0.0625,0.0625 2.363e-4,-2.39e-4 -0.031469,0.0315 -0.03125,0.03125 2.194e-4,-2.55e-4 -0.062702,0.06277 -0.0625,0.0625 2.016e-4,-2.69e-4 -0.031433,0.06278 -0.03125,0.0625 1.828e-4,-2.82e-4 -0.031413,0.06279 -0.03125,0.0625 1.631e-4,-2.94e-4 -0.031393,0.0628 -0.03125,0.0625 1.427e-4,-3.04e-4 -0.031372,0.06281 -0.03125,0.0625 1.216e-4,-3.13e-4 -0.03135,0.06282 -0.03125,0.0625 1e-4,-3.21e-4 -7.78e-5,0.06283 0,0.0625 A 0.52290715,0.52290715 0 0 0 3,14.125 l -0.03125,0.1875 a 0.52290715,0.52290715 0 0 0 0,0.03125 c 3.88e-5,-3.06e-4 -1.96e-5,0.06281 0,0.0625 1.96e-5,-3.08e-4 -3e-7,0.06281 0,0.0625 3e-7,-3.08e-4 1.9e-5,0.06281 0,0.0625 -1.9e-5,-3.08e-4 3.83e-5,0.06281 0,0.0625 -2.3e-5,-1.84e-4 0.028355,0.0128 0.03125,0.03125 0.00193,0.0123 2.29e-5,0.03137 0,0.03125 -4.903e-4,0.01593 0,0.0314 0,0.03125 0.00351,0.01583 3.81e-5,0.0314 0,0.03125 -3.05e-5,-1.2e-4 -0.00345,0.01929 0,0.03125 L 2.96875,18.5 c -3.7e-6,-2.37e-4 1.51e-5,0.06274 0,0.0625 -1.51e-5,-2.36e-4 2.65e-5,0.03148 0,0.03125 -2.65e-5,-2.35e-4 0.031288,0.06273 0.03125,0.0625 -3.78e-5,-2.34e-4 4.9e-5,0.06273 0,0.0625 -4.9e-5,-2.32e-4 6e-5,0.03148 0,0.03125 -6e-5,-2.29e-4 0.031321,0.06273 0.03125,0.0625 -7.1e-5,-2.26e-4 8.18e-5,0.03147 0,0.03125 -8.18e-5,-2.22e-4 0.031342,0.06272 0.03125,0.0625 -9.24e-5,-2.18e-4 0.031353,0.03146 0.03125,0.03125 -1.027e-4,-2.13e-4 1.129e-4,0.03146 0,0.03125 -1.129e-4,-2.08e-4 0.031373,0.0627 0.03125,0.0625 -1.228e-4,-2.03e-4 0.031382,0.03145 0.03125,0.03125 -1.324e-4,-1.96e-4 0.031392,0.03144 0.03125,0.03125 -1.416e-4,-1.9e-4 0.031401,0.06268 0.03125,0.0625 -1.506e-4,-1.83e-4 0.031409,0.03142 0.03125,0.03125 -1.592e-4,-1.75e-4 0.031417,0.03142 0.03125,0.03125 -1.675e-4,-1.67e-4 0.031425,0.03141 0.03125,0.03125 -1.753e-4,-1.59e-4 0.031433,0.0314 0.03125,0.03125 -1.828e-4,-1.51e-4 0.06269,0.03139 0.0625,0.03125 -1.898e-4,-1.42e-4 0.031446,0.03138 0.03125,0.03125 -1.964e-4,-1.32e-4 0.031452,0.03137 0.03125,0.03125 -2.025e-4,-1.23e-4 0.062708,0.03136 0.0625,0.03125 -2.082e-4,-1.13e-4 0.031463,1.03e-4 0.03125,0 -2.134e-4,-1.03e-4 0.031468,0.03134 0.03125,0.03125 -2.181e-4,-9.2e-5 0.062722,0.03133 0.0625,0.03125 -2.223e-4,-8.2e-5 0.031476,7.1e-5 0.03125,0 -2.259e-4,-7.1e-5 0.062729,0.03131 0.0625,0.03125 -2.291e-4,-6e-5 0.031482,4.9e-5 0.03125,0 -2.317e-4,-4.9e-5 0.062734,3.8e-5 0.0625,0 -2.338e-4,-3.8e-5 0.062735,0.03128 0.0625,0.03125 -2.353e-4,-2.6e-5 0.031486,1.5e-5 0.03125,0 -2.363e-4,-1.5e-5 0.062737,4e-6 0.0625,0 l 16,0 c -2.37e-4,4e-6 0.06274,-1.5e-5 0.0625,0 -2.36e-4,1.5e-5 0.03148,-2.6e-5 0.03125,0 -2.35e-4,2.6e-5 0.06273,-0.03129 0.0625,-0.03125 -2.34e-4,3.8e-5 0.06273,-4.9e-5 0.0625,0 -2.32e-4,4.9e-5 0.03148,-6e-5 0.03125,0 -2.29e-4,6e-5 0.06273,-0.03132 0.0625,-0.03125 -2.26e-4,7.1e-5 0.03147,-8.2e-5 0.03125,0 -2.22e-4,8.2e-5 0.06272,-0.03134 0.0625,-0.03125 -2.18e-4,9.2e-5 0.03146,-0.03135 0.03125,-0.03125 -2.13e-4,1.03e-4 0.03146,-1.13e-4 0.03125,0 -2.08e-4,1.13e-4 0.0627,-0.03137 0.0625,-0.03125 -2.03e-4,1.23e-4 0.03145,-0.03138 0.03125,-0.03125 -1.96e-4,1.32e-4 0.03144,-0.03139 0.03125,-0.03125 -1.9e-4,1.42e-4 0.06268,-0.0314 0.0625,-0.03125 -1.83e-4,1.51e-4 0.03142,-0.03141 0.03125,-0.03125 -1.75e-4,1.59e-4 0.03142,-0.03142 0.03125,-0.03125 -1.67e-4,1.67e-4 0.03141,-0.03142 0.03125,-0.03125 -1.59e-4,1.75e-4 0.0314,-0.03143 0.03125,-0.03125 -1.51e-4,1.83e-4 0.03139,-0.06269 0.03125,-0.0625 -1.42e-4,1.9e-4 0.03138,-0.03145 0.03125,-0.03125 -1.32e-4,1.96e-4 0.03137,-0.03145 0.03125,-0.03125 -1.23e-4,2.03e-4 0.03136,-0.06271 0.03125,-0.0625 -1.13e-4,2.08e-4 1.03e-4,-0.03146 0,-0.03125 -1.03e-4,2.13e-4 0.03134,-0.03147 0.03125,-0.03125 -9.2e-5,2.18e-4 0.03133,-0.06272 0.03125,-0.0625 -8.2e-5,2.22e-4 7.1e-5,-0.03148 0,-0.03125 -7.1e-5,2.26e-4 0.03131,-0.06273 0.03125,-0.0625 -6e-5,2.29e-4 4.9e-5,-0.03148 0,-0.03125 -4.9e-5,2.32e-4 3.8e-5,-0.06273 0,-0.0625 -3.8e-5,2.34e-4 0.03128,-0.06273 0.03125,-0.0625 -2.6e-5,2.35e-4 1.5e-5,-0.03149 0,-0.03125 -1.5e-5,2.36e-4 4e-6,-0.06274 0,-0.0625 l 0,-1 c 4e-6,2.37e-4 -1.5e-5,-0.06274 0,-0.0625 1.5e-5,2.36e-4 -2.6e-5,-0.03148 0,-0.03125 2.6e-5,2.35e-4 -0.03129,-0.06273 -0.03125,-0.0625 3.8e-5,2.34e-4 -4.9e-5,-0.06273 0,-0.0625 4.9e-5,2.32e-4 -6e-5,-0.03148 0,-0.03125 6e-5,2.29e-4 -0.03132,-0.06273 -0.03125,-0.0625 7.1e-5,2.26e-4 -8.2e-5,-0.03147 0,-0.03125 8.2e-5,2.22e-4 -0.03134,-0.06272 -0.03125,-0.0625 9.2e-5,2.18e-4 -0.03135,-0.03146 -0.03125,-0.03125 1.03e-4,2.13e-4 -1.13e-4,-0.03146 0,-0.03125 1.13e-4,2.08e-4 -0.03137,-0.0627 -0.03125,-0.0625 1.23e-4,2.03e-4 -0.03138,-0.03145 -0.03125,-0.03125 1.32e-4,1.96e-4 -0.03139,-0.03144 -0.03125,-0.03125 1.42e-4,1.9e-4 -0.0314,-0.06268 -0.03125,-0.0625 1.51e-4,1.83e-4 -0.03141,-0.03142 -0.03125,-0.03125 1.59e-4,1.75e-4 -0.03142,-0.03142 -0.03125,-0.03125 1.67e-4,1.67e-4 -0.03142,-0.03141 -0.03125,-0.03125 1.75e-4,1.59e-4 -0.03143,-0.0314 -0.03125,-0.03125 1.83e-4,1.51e-4 -0.06269,-0.03139 -0.0625,-0.03125 1.9e-4,1.42e-4 -0.03145,-0.03138 -0.03125,-0.03125 1.96e-4,1.32e-4 -0.03145,-0.03137 -0.03125,-0.03125 2.03e-4,1.23e-4 -0.06271,-0.03136 -0.0625,-0.03125 2.08e-4,1.13e-4 -0.03146,-1.03e-4 -0.03125,0 2.13e-4,1.03e-4 -0.03147,-0.03134 -0.03125,-0.03125 2.18e-4,9.2e-5 -0.06272,-0.03133 -0.0625,-0.03125 2.22e-4,8.2e-5 -0.03148,-7.1e-5 -0.03125,0 2.26e-4,7.1e-5 -0.06273,-0.03131 -0.0625,-0.03125 2.29e-4,6e-5 -0.03148,-4.9e-5 -0.03125,0 2.32e-4,4.9e-5 -0.06273,-3.8e-5 -0.0625,0 2.34e-4,3.8e-5 -0.06273,-0.03128 -0.0625,-0.03125 2.35e-4,2.6e-5 -0.03149,-1.5e-5 -0.03125,0 2.36e-4,1.5e-5 -0.06274,-4e-6 -0.0625,0 l -3.3125,0 c 0.08596,-0.04984 0.199066,-0.07122 0.28125,-0.125 1.243031,-0.813416 2.071749,-2.066832 2.0625,-3.5 -0.01367,-2.121763 -1.466845,-3.5042462 -3,-4.125 C 14.518513,8.1062632 12.878146,8.03125 11.8125,8.03125 10.938727,8.0223232 10.309467,7.8105742 9.96875,7.59375 9.6237918,7.374227 9.625,7.2076996 9.625,7.21875 c 0,-0.1743387 0.3542584,-1.28125 2.4375,-1.28125 1.206044,0 1.804384,0.2973273 2.125,0.5625 0.299615,0.2478033 0.366344,0.464504 0.375,0.5 a 0.52290715,0.52290715 0 0 0 0,0.03125 0.52290715,0.52290715 0 0 0 0.03125,0.09375 c 0.134158,0.4696606 0.442789,0.8413964 0.84375,1.0625 0.378924,0.208952 0.775183,0.25 1.125,0.25 0.402458,0 0.84623,-0.08339 1.21875,-0.34375 C 18.1864,7.8105847 18.4375,7.3353636 18.4375,6.8125 l 0,-2.5 c 0,-0.638813 -0.408146,-1.1020457 -0.75,-1.34375 C 17.31536,2.7056326 16.840992,2.5625 16.34375,2.5625 c -0.296314,0 -0.715154,0.012234 -1.125,0.21875 -0.120067,0.0605 -0.118682,0.1193873 -0.1875,0.1875 -0.21786,-0.093348 -0.41594,-0.1820771 -0.75,-0.25 -0.664171,-0.1350428 -1.415612,-0.25 -2.15625,-0.25 z" />
    <path
       sodipodi:type="inkscape:offset"
       inkscape:radius="0.5080331"
       inkscape:original="M 12.125 3.5 C 9.8401269 3.5 6.4375 4.5603609 6.4375 7.21875 C 6.4375 9.768801 9.6912033 10.65625 11.78125 10.65625 C 13.957755 10.65625 16 11.168347 16 12.8125 C 16 14.41452 14.085526 15.15625 11.84375 15.15625 C 9.2976362 15.15625 8.0625 13.531431 8.0625 12.6875 C 8.0625 12.391741 7.5752672 12.0625 7.03125 12.0625 C 6.4867956 12.0625 6.15625 12.350349 6.15625 12.6875 L 6.15625 15.34375 C 6.177969 15.954835 6.4689476 16.5625 7.21875 16.5625 C 8.0262252 16.5625 8.28125 16.47141 8.28125 15.6875 C 9.5247077 16.305692 10.803254 16.5625 12.1875 16.5625 C 15.648128 16.5625 18.013462 14.929833 18 12.84375 C 17.978282 9.47212 13.815051 9.0625 11.8125 9.0625 C 9.7452325 9.04138 8.59375 8.1040212 8.59375 7.21875 C 8.59375 6.2702803 9.603446 4.90625 12.0625 4.90625 C 14.828497 4.90625 15.500503 6.3593801 15.59375 6.84375 C 15.70254 7.2246009 16.083269 7.40625 16.5625 7.40625 C 17.063469 7.40625 17.40625 7.1707167 17.40625 6.8125 L 17.40625 4.3125 C 17.40625 3.996422 16.882665 3.59375 16.34375 3.59375 C 15.886777 3.59375 15.428014 3.73481 15.40625 4.15625 C 14.949276 3.8190986 13.433544 3.5 12.125 3.5 z M 4.03125 14.3125 L 4 14.5 L 4.03125 14.5 L 4.03125 14.3125 z M 4.03125 14.5 L 4 18.5 L 20 18.5 L 20 17.5 L 5 17.5 L 5 14.5 L 4.03125 14.5 z "
       style="opacity:0.15;fill:#ffffff;fill-opacity:1;stroke:none"
       id="path3951"
       d="m 12.125,3 c -1.221026,0 -2.7015115,0.2564322 -3.9375,0.90625 -1.2359885,0.6498178 -2.25,1.7665517 -2.25,3.3125 0,1.4910982 0.9804219,2.5334996 2.15625,3.125 1.1758281,0.5915 2.570572,0.8125 3.6875,0.8125 1.048408,0 2.044434,0.150116 2.71875,0.4375 0.674316,0.287384 1,0.607021 1,1.21875 0,0.598637 -0.318264,0.981887 -0.96875,1.3125 -0.650486,0.330613 -1.622642,0.53125 -2.6875,0.53125 -1.164989,0 -1.9959416,-0.375667 -2.53125,-0.8125 -0.5353084,-0.436833 -0.75,-0.982129 -0.75,-1.15625 0,-0.426857 -0.2551139,-0.670221 -0.53125,-0.84375 -0.2761361,-0.173529 -0.6255036,-0.28125 -1,-0.28125 -0.3617583,0 -0.6801235,0.08636 -0.9375,0.28125 -0.2573765,0.194888 -0.4375,0.509148 -0.4375,0.84375 l 0,2.65625 a 0.5080839,0.5080839 0 0 0 0,0.03125 C 5.6697577,15.755052 5.7466502,16.158124 6,16.5 6.2037316,16.77492 6.550152,16.927677 6.9375,17 L 5.5,17 5.5,14.5 A 0.5080839,0.5080839 0 0 0 5,14 l -0.59375,0 a 0.5080839,0.5080839 0 0 0 -0.875,0.21875 L 3.5,14.40625 a 0.5080839,0.5080839 0 0 0 0.03125,0.25 0.5080839,0.5080839 0 0 0 0,0.0625 L 3.5,18.5 A 0.5080839,0.5080839 0 0 0 4,19 l 16,0 a 0.5080839,0.5080839 0 0 0 0.5,-0.5 l 0,-1 A 0.5080839,0.5080839 0 0 0 20,17 l -7.25,0 c 1.552643,-0.08305 2.936372,-0.438631 3.9375,-1.09375 1.12801,-0.738148 1.820476,-1.826602 1.8125,-3.0625 -0.01221,-1.894773 -1.253653,-3.0571075 -2.65625,-3.625 C 14.441153,8.6508575 12.848415,8.5625 11.8125,8.5625 10.854676,8.5527145 10.132343,8.3143372 9.6875,8.03125 9.242657,7.7481628 9.09375,7.4411174 9.09375,7.21875 c 0,-0.5879177 0.6975657,-1.8125 2.96875,-1.8125 2.588065,0 2.988001,1.3065924 3.03125,1.53125 a 0.5080839,0.5080839 0 0 0 0,0.03125 c 0.09153,0.3204137 0.326454,0.6026037 0.59375,0.75 0.267296,0.1473963 0.571196,0.1875 0.875,0.1875 0.330103,0 0.646593,-0.068522 0.90625,-0.25 0.259657,-0.1814782 0.4375,-0.5025944 0.4375,-0.84375 l 0,-2.5 c 0,-0.4385589 -0.251953,-0.7087762 -0.53125,-0.90625 -0.279297,-0.1974738 -0.63526,-0.3125 -1.03125,-0.3125 -0.28076,0 -0.589775,0.012529 -0.875,0.15625 -0.123777,0.06237 -0.211739,0.1898228 -0.3125,0.3125 C 14.85614,3.4405807 14.589284,3.3004429 14.1875,3.21875 13.553972,3.0899376 12.820568,3 12.125,3 z M 8.6875,16.375 c 0.938741,0.378673 1.903119,0.569795 2.90625,0.625 l -3.6875,0 c 0.1517246,-0.03359 0.29311,-0.05037 0.4375,-0.15625 C 8.5002479,16.728996 8.6213534,16.550174 8.6875,16.375 z" />
    <path
       id="path3945"
       d="m 12.125,3.5 c -2.2848731,0 -5.6875,1.0603609 -5.6875,3.71875 0,2.550051 3.2537033,3.4375 5.34375,3.4375 2.176505,0 4.21875,0.512097 4.21875,2.15625 0,1.60202 -1.914474,2.34375 -4.15625,2.34375 -2.5461138,0 -3.78125,-1.624819 -3.78125,-2.46875 0,-0.295759 -0.4872328,-0.625 -1.03125,-0.625 -0.5444544,0 -0.875,0.287849 -0.875,0.625 l 0,2.65625 c 0.021719,0.611085 0.3126976,1.21875 1.0625,1.21875 0.8074752,0 1.0625,-0.09109 1.0625,-0.875 1.2434577,0.618192 2.522004,0.875 3.90625,0.875 3.460628,0 5.825962,-1.632667 5.8125,-3.71875 C 17.978282,9.47212 13.815051,9.0625 11.8125,9.0625 9.7452325,9.04138 8.59375,8.1040212 8.59375,7.21875 c 0,-0.9484697 1.009696,-2.3125 3.46875,-2.3125 2.765997,0 3.438003,1.4531301 3.53125,1.9375 0.10879,0.3808509 0.489519,0.5625 0.96875,0.5625 0.500969,0 0.84375,-0.2355333 0.84375,-0.59375 l 0,-2.5 c 0,-0.316078 -0.523585,-0.71875 -1.0625,-0.71875 -0.456973,0 -0.915736,0.14106 -0.9375,0.5625 C 14.949276,3.8190986 13.433544,3.5 12.125,3.5 z M 4.03125,14.3125 4,14.5 l 0.03125,0 0,-0.1875 z m 0,0.1875 -0.03125,4 16,0 0,-1 -15,0 0,-3 -0.96875,0 z"
       style="opacity:0.25;fill:#ffffff;fill-opacity:1;stroke:none"
       inkscape:connector-curvature="0" />
    <path
       style="fill:url(#linearGradient3957);fill-opacity:1;stroke:none"
       d="M 12.125,3 C 9.8401269,3 6.4375,4.0603609 6.4375,6.71875 c 0,2.550051 3.2537033,3.4375 5.34375,3.4375 2.176505,0 4.21875,0.512097 4.21875,2.15625 0,1.60202 -1.914474,2.34375 -4.15625,2.34375 -2.5461138,0 -3.78125,-1.624819 -3.78125,-2.46875 0,-0.295759 -0.4872328,-0.625 -1.03125,-0.625 -0.5444544,0 -0.875,0.287849 -0.875,0.625 l 0,2.65625 c 0.021719,0.611085 0.3126976,1.21875 1.0625,1.21875 0.8074752,0 1.0625,-0.09109 1.0625,-0.875 1.2434577,0.618192 2.522004,0.875 3.90625,0.875 3.460628,0 5.825962,-1.632667 5.8125,-3.71875 C 17.978282,8.97212 13.815051,8.5625 11.8125,8.5625 9.7452325,8.54138 8.59375,7.6040212 8.59375,6.71875 c 0,-0.9484697 1.009696,-2.3125 3.46875,-2.3125 2.765997,0 3.438003,1.4531301 3.53125,1.9375 0.10879,0.3808509 0.489519,0.5625 0.96875,0.5625 0.500969,0 0.84375,-0.2355333 0.84375,-0.59375 l 0,-2.5 c 0,-0.316078 -0.523585,-0.71875 -1.0625,-0.71875 -0.456973,0 -0.915736,0.14106 -0.9375,0.5625 C 14.949276,3.3190986 13.433544,3 12.125,3 z M 4.03125,13.8125 4,14 l 0.03125,0 0,-0.1875 z M 4.03125,14 4,18 20,18 20,17 5,17 5,14 4.03125,14 z"
       id="path3938"
       inkscape:connector-curvature="0" />
  </g>
</svg>
