<?xml version="1.0" encoding="UTF-8" standalone="no"?>
<!-- Created with Inkscape (http://www.inkscape.org/) -->

<svg
   xmlns:i="http://ns.adobe.com/AdobeIllustrator/10.0/"
   xmlns:dc="http://purl.org/dc/elements/1.1/"
   xmlns:cc="http://creativecommons.org/ns#"
   xmlns:rdf="http://www.w3.org/1999/02/22-rdf-syntax-ns#"
   xmlns:svg="http://www.w3.org/2000/svg"
   xmlns="http://www.w3.org/2000/svg"
   xmlns:xlink="http://www.w3.org/1999/xlink"
   xmlns:sodipodi="http://sodipodi.sourceforge.net/DTD/sodipodi-0.dtd"
   xmlns:inkscape="http://www.inkscape.org/namespaces/inkscape"
   width="24"
   height="24"
   id="svg2"
   sodipodi:version="0.32"
   inkscape:version="0.48.0 r9654"
   version="1.0"
   sodipodi:docname="distributor-logo-debian.svg"
   inkscape:output_extension="org.inkscape.output.svg.inkscape"
   style="display:inline">
  <defs
     id="defs4">
    <linearGradient
       inkscape:collect="always"
       id="linearGradient3327">
      <stop
         style="stop-color:#000000;stop-opacity:1;"
         offset="0"
         id="stop3330" />
      <stop
         style="stop-color:#000000;stop-opacity:0;"
         offset="1"
         id="stop3333" />
    </linearGradient>
    <linearGradient
       inkscape:collect="always"
       xlink:href="#linearGradient3327"
       id="linearGradient3335"
       x1="11.375"
       y1="22"
       x2="11.375"
       y2="-9.817296"
       gradientUnits="userSpaceOnUse" />
    <linearGradient
       inkscape:collect="always"
       xlink:href="#linearGradient3700"
       id="linearGradient3181"
       x1="-3.0607977"
       y1="27.258198"
       x2="-3.0607977"
       y2="7.2536583"
       gradientUnits="userSpaceOnUse"
       gradientTransform="translate(12.119372,-7.2581977)" />
    <inkscape:perspective
       sodipodi:type="inkscape:persp3d"
       inkscape:vp_x="0 : 11 : 1"
       inkscape:vp_y="0 : 1000 : 0"
       inkscape:vp_z="22 : 11 : 1"
       inkscape:persp3d-origin="11 : 7.3333333 : 1"
       id="perspective2531" />
    <linearGradient
       id="ButtonShadow"
       gradientTransform="scale(0.9883037,1.0118347)"
       x1="9.3550024"
       y1="21.742682"
       x2="9.3550024"
       y2="0.49362123"
       gradientUnits="userSpaceOnUse">
      <stop
         id="stop3277"
         offset="0"
         style="stop-color:#000000;stop-opacity:0.70588237;" />
      <stop
         id="stop3279"
         offset="1"
         style="stop-color:#000000;stop-opacity:0.15686275;" />
    </linearGradient>
    <linearGradient
       inkscape:collect="always"
       id="linearGradient3232">
      <stop
         style="stop-color:#000000;stop-opacity:1;"
         offset="0"
         id="stop3234" />
      <stop
         style="stop-color:#000000;stop-opacity:0;"
         offset="1"
         id="stop3236" />
    </linearGradient>
    <linearGradient
       gradientUnits="userSpaceOnUse"
       y2="-6.0004225"
       x2="11"
       y1="14.805666"
       x1="11"
       id="linearGradient3221"
       xlink:href="#linearGradient3232"
       inkscape:collect="always" />
    <linearGradient
       id="ButtonColor"
       x1="10.31979"
       y1="21"
       x2="10.31979"
       y2="0.99929649"
       gradientUnits="userSpaceOnUse">
      <stop
         style="stop-color:#29669f;stop-opacity:1;"
         offset="0"
         id="stop3189" />
      <stop
         style="stop-color:#88b6e0;stop-opacity:1;"
         offset="1"
         id="stop3191" />
    </linearGradient>
    <linearGradient
       inkscape:collect="always"
       xlink:href="#ButtonShadow"
       id="linearGradient38042"
       gradientUnits="userSpaceOnUse"
       gradientTransform="scale(0.9883037,1.0118347)"
       x1="9.3550024"
       y1="21.742682"
       x2="9.3550024"
       y2="0.49362123" />
    <filter
       inkscape:collect="always"
       id="filter3194"
       x="-0.18000001"
       width="1.36"
       y="-0.18000001"
       height="1.36"
       color-interpolation-filters="sRGB">
      <feGaussianBlur
         inkscape:collect="always"
         stdDeviation="1.2"
         id="feGaussianBlur3196" />
    </filter>
    <clipPath
       clipPathUnits="userSpaceOnUse"
       id="clipPath2849">
      <rect
         ry="2"
         rx="2"
         y="1"
         x="1"
         height="20"
         width="20"
         id="rect2851"
         style="fill:#ffffff;fill-opacity:1;fill-rule:evenodd;stroke:none;display:inline" />
    </clipPath>
    <inkscape:perspective
       id="perspective3807"
       inkscape:persp3d-origin="0.5 : 0.33333333 : 1"
       inkscape:vp_z="1 : 0.5 : 1"
       inkscape:vp_y="0 : 1000 : 0"
       inkscape:vp_x="0 : 0.5 : 1"
       sodipodi:type="inkscape:persp3d" />
    <linearGradient
       inkscape:collect="always"
       xlink:href="#linearGradient3700"
       id="linearGradient3617"
       gradientUnits="userSpaceOnUse"
       x1="48"
       y1="90"
       x2="48"
       y2="5.9877172" />
    <linearGradient
       id="linearGradient3700">
      <stop
         style="stop-color:#d70751;stop-opacity:1;"
         offset="0"
         id="stop3702" />
      <stop
         style="stop-color:#e7466b;stop-opacity:1;"
         offset="1"
         id="stop3704" />
    </linearGradient>
    <linearGradient
       gradientTransform="translate(-102,-51)"
       y2="5.9877172"
       x2="48"
       y1="90"
       x1="48"
       gradientUnits="userSpaceOnUse"
       id="linearGradient3817"
       xlink:href="#linearGradient3700"
       inkscape:collect="always" />
    <linearGradient
       inkscape:collect="always"
       xlink:href="#linearGradient3831"
       id="linearGradient3845"
       x1="11"
       y1="19.5"
       x2="21"
       y2="19.5"
       gradientUnits="userSpaceOnUse"
       spreadMethod="reflect"
       gradientTransform="translate(1,-1)" />
    <linearGradient
       id="linearGradient3831">
      <stop
         style="stop-color:#ffffff;stop-opacity:1;"
         offset="0"
         id="stop3833" />
      <stop
         id="stop3821"
         offset="0.75"
         style="stop-color:#ffffff;stop-opacity:0.49803922;" />
      <stop
         style="stop-color:#ffffff;stop-opacity:0;"
         offset="1"
         id="stop3835" />
    </linearGradient>
    <linearGradient
       y2="16"
       x2="10"
       y1="1"
       x1="10"
       gradientUnits="userSpaceOnUse"
       id="linearGradient3084"
       xlink:href="#linearGradient3823"
       inkscape:collect="always" />
    <linearGradient
       id="linearGradient3823">
      <stop
         id="stop3825"
         offset="0"
         style="stop-color:#ffffff;stop-opacity:1;" />
      <stop
         id="stop3829"
         offset="1"
         style="stop-color:#ffffff;stop-opacity:0;" />
    </linearGradient>
    <linearGradient
       y2="16"
       x2="10"
       y1="1"
       x1="10"
       gradientUnits="userSpaceOnUse"
       id="linearGradient3078"
       xlink:href="#linearGradient3823"
       inkscape:collect="always"
       gradientTransform="translate(1,-1)" />
  </defs>
  <sodipodi:namedview
     id="base"
     pagecolor="#ffffff"
     bordercolor="#e7e7e7"
     borderopacity="1"
     inkscape:pageopacity="0.0"
     inkscape:pageshadow="2"
     inkscape:zoom="12.24237"
     inkscape:cx="-34.051104"
     inkscape:cy="4.6801348"
     inkscape:document-units="px"
     inkscape:current-layer="layer1"
     showgrid="true"
     inkscape:showpageshadow="false"
     showguides="false"
     inkscape:guide-bbox="true"
     inkscape:window-width="1920"
     inkscape:window-height="1026"
     inkscape:window-x="0"
     inkscape:window-y="25"
     inkscape:window-maximized="1">
    <sodipodi:guide
       orientation="1,0"
       position="0,112"
       id="guide2383" />
    <sodipodi:guide
       orientation="0,1"
       position="26.278146,128"
       id="guide2385" />
    <sodipodi:guide
       orientation="1,0"
       position="128,54.082119"
       id="guide2387" />
    <sodipodi:guide
       orientation="0,1"
       position="78.156291,0"
       id="guide2389" />
    <sodipodi:guide
       orientation="0,1"
       position="60.863576,64.084768"
       id="guide2391" />
    <inkscape:grid
       type="xygrid"
       id="grid3672"
       visible="true"
       enabled="true"
       empspacing="8"
       snapvisiblegridlinesonly="true" />
  </sodipodi:namedview>
  <metadata
     id="metadata7">
    <rdf:RDF>
      <cc:Work
         rdf:about="">
        <dc:format>image/svg+xml</dc:format>
        <dc:type
           rdf:resource="http://purl.org/dc/dcmitype/StillImage" />
      </cc:Work>
    </rdf:RDF>
  </metadata>
  <g
     inkscape:label="Button"
     inkscape:groupmode="layer"
     id="layer1"
     transform="translate(0,2)">
    <g
       style="display:inline"
       id="g3337"
       transform="translate(1,-1)">
      <rect
         ry="2.5"
         rx="2.5"
         y="0.5"
         x="0.5"
         height="21.5"
         width="21"
         id="rect3371"
         style="opacity:0.3;fill:url(#linearGradient3335);fill-opacity:1;stroke:none;display:inline" />
      <rect
         style="opacity:0.5;fill:#000000;fill-opacity:1;stroke:none;display:inline"
         id="rect2553"
         width="20"
         height="20"
         x="1"
         y="2"
         rx="2.3809524"
         ry="2.3255813" />
    </g>
    <rect
       style="fill:url(#linearGradient3181);fill-opacity:1.0;fill-rule:evenodd;stroke:none;display:inline"
       id="rect3173"
       width="20"
       height="20"
       x="2"
       y="0"
       rx="2"
       ry="2" />
    <path
       style="opacity:0.3;fill:url(#linearGradient3078);fill-opacity:1;fill-rule:evenodd;stroke:none;display:inline"
       d="M 4,0 C 2.892,0 2,0.892 2,2 l 0,16 c 0,1.108 0.892,2 2,2 l 16,0 c 1.108,0 2,-0.892 2,-2 L 22,2 C 22,0.892 21.108,0 20,0 L 4,0 z m 0,1.03125 16,0 c 0.5497,0 0.96875,0.4190495 0.96875,0.96875 l 0,16 c 0,0.5497 -0.41905,0.96875 -0.96875,0.96875 l -16,0 C 3.4502995,18.96875 3.03125,18.5497 3.03125,18 l 0,-16 C 3.03125,1.4502995 3.4502995,1.03125 4,1.03125 z"
       id="rect3050"
       inkscape:connector-curvature="0" />
    <path
       id="path3235"
       d="M 4,20 C 2.892,20 2,19.108 2,18 l 0,-1 c 0,1.108 0.892,2 2,2 l 16,0 c 1.108,0 2,-0.892 2,-2 l 0,1 c 0,1.108 -0.892,2 -2,2 L 4,20 z"
       style="opacity:0.2;fill:url(#linearGradient3845);fill-opacity:1;fill-rule:evenodd;stroke:none;display:inline"
       inkscape:connector-curvature="0" />
  </g>
  <g
     inkscape:groupmode="layer"
     id="layer2"
     inkscape:label="Highlight"
     transform="translate(0,2)"
     sodipodi:insensitive="true">
    <rect
       style="opacity:0.15;fill:#ffffff;fill-opacity:1;fill-rule:nonzero;stroke:none;display:inline;filter:url(#filter3194)"
       id="rect2410"
       width="16"
       height="16"
       x="3"
       y="3"
       rx="2"
       ry="2"
       clip-path="url(#clipPath2849)"
       transform="translate(1,-1)" />
  </g>
  <g
     inkscape:groupmode="layer"
     id="layer3"
     inkscape:label="Symbol"
     transform="translate(0,2)">
    <path
       i:knockout="Off"
       d="m 17.241939,9.2760954 c 0.01709,0.458721 -0.133857,0.681625 -0.270371,1.0757916 l -0.245499,0.122085 c -0.200691,0.389989 0.01993,0.247587 -0.123795,0.557642 -0.313662,0.278536 -0.950479,0.871304 -1.154397,0.925606 -0.149046,-0.0032 0.100821,-0.175818 0.133478,-0.243221 -0.419419,0.28784 -0.336636,0.43214 -0.9782,0.607388 l -0.01861,-0.04196 c -1.5816,0.744284 -3.77875,-0.730421 -3.74989,-2.7422611 -0.0167,0.1275904 -0.04804,0.095694 -0.08297,0.1469587 -0.08164,-1.0349708 0.478088,-2.0744973 1.422111,-2.4996116 0.923327,-0.4568222 2.005764,-0.2696125 2.666694,0.3472684 -0.363027,-0.4758091 -1.086234,-0.980288 -1.942728,-0.9335805 -0.839406,0.013675 -1.62489,0.54701 -1.886907,1.1262964 -0.429861,0.2705616 -0.479986,1.0435139 -0.667196,1.185155 -0.252334,1.8531107 0.474101,2.6534037 1.703115,3.5953387 0.192906,0.13025 0.0543,0.150185 0.08012,0.249296 -0.408215,-0.191006 -0.781875,-0.479605 -1.089461,-0.832951 0.163287,0.238665 0.339294,0.470683 0.566947,0.652956 -0.385244,-0.130059 -0.899596,-0.932819 -1.049402,-0.965477 0.663589,1.188192 2.691947,2.083799 3.754638,1.639319 -0.491758,0.01822 -1.116233,0.01009 -1.668369,-0.194045 -0.232588,-0.119426 -0.54758,-0.366445 -0.491189,-0.412583 1.449833,0.541313 2.94713,0.409735 4.201397,-0.595616 0.319358,-0.248726 0.667956,-0.671563 0.768775,-0.677258 -0.151704,0.228221 0.02601,0.109744 -0.09057,0.311194 0.317459,-0.512834 -0.138414,-0.208855 0.328471,-0.885545 l 0.172401,0.237335 c -0.06456,-0.426064 0.528782,-0.942884 0.468404,-1.616155 0.136135,-0.2058171 0.151704,0.2217649 0.0073,0.695297 0.200311,-0.5253662 0.05298,-0.6098569 0.104242,-1.0435146 0.05525,0.1458184 0.128731,0.3005609 0.166134,0.4545431 -0.130628,-0.5078968 0.133477,-0.8549753 0.199173,-1.1502191 -0.06494,-0.028485 -0.20145,0.2244236 -0.232969,-0.3751797 0.0047,-0.2604985 0.07272,-0.1365147 0.09873,-0.2006897 -0.05088,-0.029429 -0.185122,-0.2291704 -0.266575,-0.6121341 0.05867,-0.090185 0.15797,0.2333476 0.238474,0.246449 -0.05183,-0.3043586 -0.140881,-0.5365673 -0.144678,-0.7702947 -0.235435,-0.491758 -0.08334,0.065695 -0.27398,-0.2111324 -0.250625,-0.7811171 0.207717,-0.1813239 0.238856,-0.5359978 0.379356,0.5496677 0.595615,1.4021743 0.695295,1.7551387 -0.07594,-0.4304306 -0.198411,-0.84757 -0.348218,-1.2510395 0.11563,0.0488 -0.18588,-0.8853535 0.150186,-0.266764 C 18.272326,4.8312873 17.097234,3.5990451 16.015937,3.0210866 16.147894,3.1420331 16.314788,3.2939272 16.25517,3.31785 15.717084,2.9979231 15.811639,2.9726706 15.734553,2.8374847 15.296906,2.6591991 15.267667,2.8521047 14.978118,2.8378739 14.152193,2.3996582 13.993083,2.4461758 13.233043,2.1720064 l 0.03455,0.1617673 C 12.720586,2.1515016 12.630209,2.4025101 12.039151,2.3341628 12.00326,2.3062541 12.228638,2.2323934 12.414329,2.205622 11.885357,2.275492 11.91004,2.1011953 11.392462,2.2248033 11.519863,2.1353738 11.655048,2.0759475 11.790994,2 11.359803,2.0261991 10.761151,2.251005 10.945891,2.046325 10.242435,2.3603674 8.9929145,2.80105 8.2917325,3.4585628 L 8.269708,3.3112247 C 7.9484504,3.6968471 6.8686727,4.4629634 6.7826622,4.9628853 l -0.086011,0.019937 C 6.5297569,5.2659066 6.4213423,5.5865937 6.288814,5.8776611 6.0702761,6.250372 5.9683177,6.0212006 5.999456,6.0796806 5.5694051,6.9515541 5.3554242,7.6840643 5.171062,8.2851852 c 0.1313893,0.1965134 0.00321,1.1832578 0.052785,1.9729178 -0.2156894,3.900646 2.7375159,7.68756 5.96565,8.561712 C 11.662647,18.989368 12.366108,18.983292 12.96457,19 12.258642,18.797981 12.167506,18.893105 11.479424,18.653301 10.9833,18.419384 10.874696,18.15262 10.52306,17.847502 l 0.139173,0.245878 C 9.9730128,17.84939 10.261422,17.791481 9.7005528,17.613954 L 9.8492196,17.4201 C 9.6257442,17.40301 9.2574006,17.04378 9.1567709,16.84423 l -0.2445507,0.0097 C 8.618685,16.49203 8.4620451,16.230582 8.4736267,16.027993 l -0.078984,0.140882 C 8.3052135,16.015273 7.3141039,14.809802 7.8282662,15.090426 7.7327629,15.003462 7.6057408,14.948594 7.4680871,14.698159 L 7.572704,14.578733 C 7.3256855,14.260324 7.1174006,13.852297 7.1333504,13.716351 7.2653081,13.894449 7.3568239,13.927865 7.4475812,13.958433 6.8227263,12.408352 6.7875996,13.873189 6.3146388,12.380632 l 0.099871,-0.008 C 6.3379912,12.256688 6.2910958,12.131565 6.2295784,12.008341 l 0.043671,-0.433848 C 5.8236429,11.055014 6.1475581,9.3634812 6.2126824,8.4359762 6.2572979,8.0588992 6.5880509,7.6573289 6.8392457,7.0275364 L 6.6862127,7.0013376 C 6.9789895,6.490973 8.3574299,4.9509542 8.9961454,5.029939 9.3054397,4.6414692 8.9346243,5.0284279 8.8740599,4.9308281 9.5535972,4.2277468 9.7671994,4.4341334 10.22573,4.3074919 c 0.494226,-0.2933464 -0.424355,0.11468 -0.190058,-0.1118318 0.854975,-0.2181591 0.605679,-0.496315 1.720773,-0.6070077 0.117719,0.066829 -0.27284,0.1032878 -0.370811,0.1900572 0.712003,-0.3485973 2.25354,-0.2690429 3.255283,0.1932854 1.161423,0.5432123 2.467144,2.1481655 2.518788,3.6581849 l 0.05867,0.015763 c -0.02962,0.6003617 0.0919,1.2947088 -0.119049,1.9322854 l 0.142592,-0.3020797"
       id="path2536"
       style="fill:#ffffff;display:inline" />
  </g>
</svg>
