<?xml version="1.0" encoding="UTF-8" standalone="no"?>
<!-- Created with Inkscape (http://www.inkscape.org/) -->

<svg
   xmlns:dc="http://purl.org/dc/elements/1.1/"
   xmlns:cc="http://creativecommons.org/ns#"
   xmlns:rdf="http://www.w3.org/1999/02/22-rdf-syntax-ns#"
   xmlns:svg="http://www.w3.org/2000/svg"
   xmlns="http://www.w3.org/2000/svg"
   xmlns:xlink="http://www.w3.org/1999/xlink"
   xmlns:sodipodi="http://sodipodi.sourceforge.net/DTD/sodipodi-0.dtd"
   xmlns:inkscape="http://www.inkscape.org/namespaces/inkscape"
   width="24"
   height="24"
   id="svg2"
   sodipodi:version="0.32"
   inkscape:version="0.48.0 r9654"
   version="1.0"
   sodipodi:docname="distributor-logo-archlinux.svg"
   inkscape:output_extension="org.inkscape.output.svg.inkscape"
   style="display:inline">
  <defs
     id="defs4">
    <linearGradient
       inkscape:collect="always"
       id="linearGradient3327">
      <stop
         style="stop-color:#000000;stop-opacity:1;"
         offset="0"
         id="stop3330" />
      <stop
         style="stop-color:#000000;stop-opacity:0;"
         offset="1"
         id="stop3333" />
    </linearGradient>
    <linearGradient
       inkscape:collect="always"
       xlink:href="#linearGradient3327"
       id="linearGradient3335"
       x1="11.375"
       y1="22"
       x2="11.375"
       y2="-9.817296"
       gradientUnits="userSpaceOnUse" />
    <linearGradient
       inkscape:collect="always"
       xlink:href="#linearGradient3903"
       id="linearGradient3181"
       x1="-3.0607977"
       y1="27.258198"
       x2="-3.0607977"
       y2="7.2536583"
       gradientUnits="userSpaceOnUse"
       gradientTransform="translate(12.119372,-7.2581977)" />
    <inkscape:perspective
       sodipodi:type="inkscape:persp3d"
       inkscape:vp_x="0 : 11 : 1"
       inkscape:vp_y="0 : 1000 : 0"
       inkscape:vp_z="22 : 11 : 1"
       inkscape:persp3d-origin="11 : 7.3333333 : 1"
       id="perspective2531" />
    <linearGradient
       id="ButtonShadow"
       gradientTransform="scale(0.9883037,1.0118347)"
       x1="9.3550024"
       y1="21.742682"
       x2="9.3550024"
       y2="0.49362123"
       gradientUnits="userSpaceOnUse">
      <stop
         id="stop3277"
         offset="0"
         style="stop-color:#000000;stop-opacity:0.70588237;" />
      <stop
         id="stop3279"
         offset="1"
         style="stop-color:#000000;stop-opacity:0.15686275;" />
    </linearGradient>
    <linearGradient
       inkscape:collect="always"
       id="linearGradient3232">
      <stop
         style="stop-color:#000000;stop-opacity:1;"
         offset="0"
         id="stop3234" />
      <stop
         style="stop-color:#000000;stop-opacity:0;"
         offset="1"
         id="stop3236" />
    </linearGradient>
    <linearGradient
       gradientUnits="userSpaceOnUse"
       y2="-6.0004225"
       x2="11"
       y1="14.805666"
       x1="11"
       id="linearGradient3221"
       xlink:href="#linearGradient3232"
       inkscape:collect="always" />
    <linearGradient
       id="ButtonColor"
       x1="10.31979"
       y1="21"
       x2="10.31979"
       y2="0.99929649"
       gradientUnits="userSpaceOnUse">
      <stop
         style="stop-color:#29669f;stop-opacity:1;"
         offset="0"
         id="stop3189" />
      <stop
         style="stop-color:#88b6e0;stop-opacity:1;"
         offset="1"
         id="stop3191" />
    </linearGradient>
    <linearGradient
       inkscape:collect="always"
       xlink:href="#ButtonShadow"
       id="linearGradient38042"
       gradientUnits="userSpaceOnUse"
       gradientTransform="scale(0.9883037,1.0118347)"
       x1="9.3550024"
       y1="21.742682"
       x2="9.3550024"
       y2="0.49362123" />
    <filter
       inkscape:collect="always"
       id="filter3194"
       x="-0.18000001"
       width="1.36"
       y="-0.18000001"
       height="1.36"
       color-interpolation-filters="sRGB">
      <feGaussianBlur
         inkscape:collect="always"
         stdDeviation="1.2"
         id="feGaussianBlur3196" />
    </filter>
    <clipPath
       clipPathUnits="userSpaceOnUse"
       id="clipPath2849">
      <rect
         ry="2"
         rx="2"
         y="1"
         x="1"
         height="20"
         width="20"
         id="rect2851"
         style="fill:#ffffff;fill-opacity:1;fill-rule:evenodd;stroke:none;display:inline" />
    </clipPath>
    <inkscape:perspective
       id="perspective3953"
       inkscape:persp3d-origin="0.5 : 0.33333333 : 1"
       inkscape:vp_z="1 : 0.5 : 1"
       inkscape:vp_y="0 : 1000 : 0"
       inkscape:vp_x="0 : 0.5 : 1"
       sodipodi:type="inkscape:persp3d" />
    <linearGradient
       inkscape:collect="always"
       xlink:href="#linearGradient3903"
       id="linearGradient3909"
       x1="48"
       y1="90"
       x2="48"
       y2="5.9464455"
       gradientUnits="userSpaceOnUse" />
    <linearGradient
       id="linearGradient3903">
      <stop
         style="stop-color:#1793d1;stop-opacity:1;"
         offset="0"
         id="stop3905" />
      <stop
         style="stop-color:#6dc4ef;stop-opacity:1;"
         offset="1"
         id="stop3907" />
    </linearGradient>
    <linearGradient
       gradientTransform="translate(-83,-28)"
       y2="5.9464455"
       x2="48"
       y1="90"
       x1="48"
       gradientUnits="userSpaceOnUse"
       id="linearGradient3962"
       xlink:href="#linearGradient3903"
       inkscape:collect="always" />
    <inkscape:perspective
       id="perspective3972"
       inkscape:persp3d-origin="0.5 : 0.33333333 : 1"
       inkscape:vp_z="1 : 0.5 : 1"
       inkscape:vp_y="0 : 1000 : 0"
       inkscape:vp_x="0 : 0.5 : 1"
       sodipodi:type="inkscape:persp3d" />
    <linearGradient
       inkscape:collect="always"
       xlink:href="#path1082_2_-8"
       id="linearGradient3060-4"
       gradientUnits="userSpaceOnUse"
       gradientTransform="matrix(-0.03315858,0,0,0.03315672,29.991561,-0.07043061)"
       x1="541.33502"
       y1="104.50665"
       x2="606.91248"
       y2="303.14029" />
    <linearGradient
       gradientTransform="translate(287,-83)"
       x1="112.49854"
       y1="6.1372099"
       x2="112.49853"
       y2="129.3468"
       id="path1082_2_-8"
       gradientUnits="userSpaceOnUse">
      <stop
         style="stop-color:#ffffff;stop-opacity:0"
         offset="0"
         id="stop193-9" />
      <stop
         style="stop-color:#ffffff;stop-opacity:0.60465115;"
         offset="1"
         id="stop195-6" />
      <midPointStop
         offset="0"
         style="stop-color:#FFFFFF"
         id="midPointStop197-7" />
      <midPointStop
         offset="0.5"
         style="stop-color:#FFFFFF"
         id="midPointStop199-4" />
      <midPointStop
         offset="1"
         style="stop-color:#000000"
         id="midPointStop201-8" />
    </linearGradient>
    <radialGradient
       inkscape:collect="always"
       xlink:href="#linearGradient3919"
       id="radialGradient3925"
       cx="48"
       cy="71.995491"
       fx="48"
       fy="71.995491"
       r="32.993801"
       gradientTransform="matrix(1,0,0,1.0001879,0,-0.00901697)"
       gradientUnits="userSpaceOnUse" />
    <linearGradient
       id="linearGradient3919">
      <stop
         style="stop-color:#fafafa;stop-opacity:1;"
         offset="0"
         id="stop3921" />
      <stop
         style="stop-color:#f0f0f0;stop-opacity:1;"
         offset="1"
         id="stop3923" />
    </linearGradient>
    <radialGradient
       r="32.993801"
       fy="71.995491"
       fx="48"
       cy="71.995491"
       cx="48"
       gradientTransform="matrix(0.24242424,0,0,0.24246979,0.36833182,-2.1385516)"
       gradientUnits="userSpaceOnUse"
       id="radialGradient3990"
       xlink:href="#linearGradient3919"
       inkscape:collect="always" />
    <linearGradient
       inkscape:collect="always"
       xlink:href="#path1082_2_-8"
       id="linearGradient3700"
       gradientUnits="userSpaceOnUse"
       gradientTransform="matrix(-0.03315858,0,0,0.03315672,29.991561,0.45695415)"
       x1="541.33502"
       y1="104.50665"
       x2="606.91248"
       y2="303.14029" />
    <radialGradient
       inkscape:collect="always"
       xlink:href="#linearGradient3919"
       id="radialGradient3702"
       gradientUnits="userSpaceOnUse"
       gradientTransform="matrix(0.24242424,0,0,0.24246979,0.36833182,-1.6111668)"
       cx="48"
       cy="71.995491"
       fx="48"
       fy="71.995491"
       r="32.993801" />
    <linearGradient
       inkscape:collect="always"
       xlink:href="#linearGradient3831"
       id="linearGradient3845"
       x1="11"
       y1="19.5"
       x2="21"
       y2="19.5"
       gradientUnits="userSpaceOnUse"
       spreadMethod="reflect"
       gradientTransform="translate(1,-1)" />
    <linearGradient
       id="linearGradient3831">
      <stop
         style="stop-color:#ffffff;stop-opacity:1;"
         offset="0"
         id="stop3833" />
      <stop
         id="stop3821"
         offset="0.75"
         style="stop-color:#ffffff;stop-opacity:0.49803922;" />
      <stop
         style="stop-color:#ffffff;stop-opacity:0;"
         offset="1"
         id="stop3835" />
    </linearGradient>
    <linearGradient
       y2="16"
       x2="10"
       y1="1"
       x1="10"
       gradientUnits="userSpaceOnUse"
       id="linearGradient3084"
       xlink:href="#linearGradient3823"
       inkscape:collect="always" />
    <linearGradient
       id="linearGradient3823">
      <stop
         id="stop3825"
         offset="0"
         style="stop-color:#ffffff;stop-opacity:1;" />
      <stop
         id="stop3829"
         offset="1"
         style="stop-color:#ffffff;stop-opacity:0;" />
    </linearGradient>
    <linearGradient
       y2="16"
       x2="10"
       y1="1"
       x1="10"
       gradientUnits="userSpaceOnUse"
       id="linearGradient3078"
       xlink:href="#linearGradient3823"
       inkscape:collect="always"
       gradientTransform="translate(1,-1)" />
  </defs>
  <sodipodi:namedview
     id="base"
     pagecolor="#ffffff"
     bordercolor="#e7e7e7"
     borderopacity="1"
     inkscape:pageopacity="0.0"
     inkscape:pageshadow="2"
     inkscape:zoom="30.651859"
     inkscape:cx="7.3767716"
     inkscape:cy="9.6706809"
     inkscape:document-units="px"
     inkscape:current-layer="layer1"
     showgrid="true"
     inkscape:showpageshadow="false"
     showguides="false"
     inkscape:guide-bbox="true"
     inkscape:window-width="1920"
     inkscape:window-height="1026"
     inkscape:window-x="0"
     inkscape:window-y="25"
     inkscape:window-maximized="1"
     inkscape:snap-global="false">
    <sodipodi:guide
       orientation="1,0"
       position="0,112"
       id="guide2383" />
    <sodipodi:guide
       orientation="0,1"
       position="26.278146,128"
       id="guide2385" />
    <sodipodi:guide
       orientation="1,0"
       position="128,54.082119"
       id="guide2387" />
    <sodipodi:guide
       orientation="0,1"
       position="78.156291,0"
       id="guide2389" />
    <sodipodi:guide
       orientation="0,1"
       position="60.863576,64.084768"
       id="guide2391" />
    <inkscape:grid
       type="xygrid"
       id="grid3672"
       visible="true"
       enabled="true"
       empspacing="8"
       snapvisiblegridlinesonly="true" />
  </sodipodi:namedview>
  <metadata
     id="metadata7">
    <rdf:RDF>
      <cc:Work
         rdf:about="">
        <dc:format>image/svg+xml</dc:format>
        <dc:type
           rdf:resource="http://purl.org/dc/dcmitype/StillImage" />
        <dc:title />
      </cc:Work>
    </rdf:RDF>
  </metadata>
  <g
     inkscape:label="Button"
     inkscape:groupmode="layer"
     id="layer1"
     transform="translate(0,2)">
    <g
       style="display:inline"
       id="g3337"
       transform="translate(1,-1)">
      <rect
         ry="2.5"
         rx="2.5"
         y="0.5"
         x="0.5"
         height="21.5"
         width="21"
         id="rect3371"
         style="opacity:0.3;fill:url(#linearGradient3335);fill-opacity:1;stroke:none;display:inline" />
      <rect
         style="opacity:0.5;fill:#000000;fill-opacity:1;stroke:none;display:inline"
         id="rect2553"
         width="20"
         height="20"
         x="1"
         y="2"
         rx="2.3809524"
         ry="2.3255813" />
    </g>
    <rect
       style="fill:url(#linearGradient3181);fill-opacity:1;fill-rule:evenodd;stroke:none;display:inline"
       id="rect3173"
       width="20"
       height="20"
       x="2"
       y="0"
       rx="2"
       ry="2" />
    <path
       style="opacity:0.4;fill:url(#linearGradient3078);fill-opacity:1;fill-rule:evenodd;stroke:none;display:inline"
       d="M 4,0 C 2.892,0 2,0.892 2,2 l 0,16 c 0,1.108 0.892,2 2,2 l 16,0 c 1.108,0 2,-0.892 2,-2 L 22,2 C 22,0.892 21.108,0 20,0 L 4,0 z m 0,1.03125 16,0 c 0.5497,0 0.96875,0.4190495 0.96875,0.96875 l 0,16 c 0,0.5497 -0.41905,0.96875 -0.96875,0.96875 l -16,0 C 3.4502995,18.96875 3.03125,18.5497 3.03125,18 l 0,-16 C 3.03125,1.4502995 3.4502995,1.03125 4,1.03125 z"
       id="rect3050"
       inkscape:connector-curvature="0" />
    <path
       id="path3235"
       d="M 4,20 C 2.892,20 2,19.108 2,18 l 0,-1 c 0,1.108 0.892,2 2,2 l 16,0 c 1.108,0 2,-0.892 2,-2 l 0,1 c 0,1.108 -0.892,2 -2,2 L 4,20 z"
       style="opacity:0.2;fill:url(#linearGradient3845);fill-opacity:1;fill-rule:evenodd;stroke:none;display:inline"
       inkscape:connector-curvature="0" />
  </g>
  <g
     inkscape:groupmode="layer"
     id="layer2"
     inkscape:label="Highlight"
     transform="translate(0,2)"
     sodipodi:insensitive="true">
    <rect
       style="opacity:0.15;fill:#ffffff;fill-opacity:1;fill-rule:nonzero;stroke:none;display:inline;filter:url(#filter3194)"
       id="rect2410"
       width="16"
       height="16"
       x="3"
       y="3"
       rx="2"
       ry="2"
       clip-path="url(#clipPath2849)"
       transform="translate(1,-1)" />
  </g>
  <g
     inkscape:groupmode="layer"
     id="layer3"
     inkscape:label="Symbol"
     transform="translate(0,2)"
     sodipodi:insensitive="true">
    <path
       style="opacity:0.05;fill:#000000;fill-opacity:1;fill-rule:evenodd;stroke:none"
       d="M 11.75,1.5586348 C 11.081294,1.7417796 10.976336,2.5237433 10.721648,3.0791071 10.224777,4.3627409 9.6927036,5.6740333 9.125,6.9023848 8.9711947,7.2658083 8.6968541,7.7978768 8.4827538,8.2318098 6.7842748,11.573486 4.8987923,14.826972 3.125,18.121135 c -0.1794065,0.363979 -0.1143637,0.856322 0.21875,1.125 0.2818236,0.300063 0.7767951,0.323471 1.125,0.125 1.9567564,-1.066462 3.9778431,-2.219695 6.1875,-2.625 0.468866,-0.182212 0.784619,-0.704293 0.625,-1.1875 -0.184964,-0.903956 -0.13983,-2.022439 0.577079,-2.686212 0.831474,-0.01261 0.959928,1.190534 1.015085,1.848914 0.08831,0.532754 -0.218431,0.996123 -0.02966,1.493548 0.200296,0.486225 0.738269,0.623227 1.213925,0.698244 1.975931,0.500294 3.763192,1.53203 5.536075,2.489256 0.363979,0.179406 0.856322,0.114364 1.125,-0.21875 0.300063,-0.281824 0.323471,-0.776795 0.125,-1.125 -0.4676,-0.895117 -0.955053,-1.827979 -1.468754,-2.6875 C 19.0729,15.22989 19.05845,14.960865 19,14.683635 17.780264,12.311097 16.453391,9.9195888 15.273841,7.4977 14.393847,5.7606342 13.653682,3.8968984 12.875,2.1523848 12.743413,1.6803661 12.21114,1.5003701 11.75,1.5586348 z"
       id="path3685"
       inkscape:connector-curvature="0" />
    <path
       sodipodi:type="inkscape:offset"
       inkscape:radius="0.49996784"
       inkscape:original="M 12 2 C 11.287853 3.7459942 10.855383 4.8996567 10.0625 6.59375 C 10.548636 7.109054 11.155947 7.6972463 12.125 8.375 C 11.083173 7.946294 10.374832 7.5091378 9.84375 7.0625 C 8.8290113 9.1799068 7.2262213 12.203133 4 18 C 6.5357013 16.536096 8.5118753 15.625626 10.34375 15.28125 C 10.26509 14.94293 10.215713 14.56934 10.21875 14.1875 L 10.21875 14.125 C 10.25898 12.500442 11.092657 11.258926 12.09375 11.34375 C 13.094846 11.42857 13.883985 12.81294 13.84375 14.4375 C 13.83615 14.743188 13.810243 15.039753 13.75 15.3125 C 15.561984 15.666956 17.498605 16.555901 20 18 C 19.506773 17.091936 19.076672 16.279589 18.65625 15.5 C 17.994021 14.986728 17.283973 14.316926 15.875 13.59375 C 16.843445 13.845393 17.553262 14.14423 18.09375 14.46875 C 13.819231 6.5103305 13.465829 5.4398832 12 2 z "
       style="opacity:0.15;fill:#000000;fill-opacity:1;fill-rule:evenodd;stroke:none"
       id="path3681"
       d="M 11.875,1.5 A 0.50001784,0.50001784 0 0 0 11.53125,1.8125 C 10.816749,3.5642652 10.41053,4.6966173 9.625,6.375 a 0.50001784,0.50001784 0 0 0 -0.0625,0.25 0.50001784,0.50001784 0 0 0 0,0.0625 0.50001784,0.50001784 0 0 0 -0.15625,0.15625 C 8.4000284,8.9433845 6.7870182,11.956193 3.5625,17.75 A 0.50001784,0.50001784 0 0 0 4.25,18.4375 c 2.5160286,-1.452547 4.448713,-2.329374 6.1875,-2.65625 a 0.50001784,0.50001784 0 0 0 0.40625,-0.625 c -0.07073,-0.304196 -0.127674,-0.632601 -0.125,-0.96875 l 0,-0.0625 c 0.01808,-0.729986 0.228659,-1.347021 0.5,-1.75 0.271341,-0.402979 0.559312,-0.555351 0.84375,-0.53125 0.283558,0.02402 0.610791,0.252781 0.875,0.71875 0.264209,0.465969 0.424277,1.147114 0.40625,1.875 -0.0071,0.285498 -0.04346,0.553556 -0.09375,0.78125 a 0.50001784,0.50001784 0 0 0 0.40625,0.59375 c 1.72329,0.337106 3.612184,1.192349 6.09375,2.625 A 0.50001784,0.50001784 0 0 0 20.4375,17.75 c -0.49172,-0.90529 -0.922072,-1.718083 -1.34375,-2.5 a 0.50001784,0.50001784 0 0 0 -0.125,-0.15625 C 18.839809,14.993812 18.644835,14.86709 18.5,14.75 a 0.50001784,0.50001784 0 0 0 0.03125,-0.53125 C 14.260138,6.2666745 13.937882,5.2601344 12.46875,1.8125 A 0.50001784,0.50001784 0 0 0 11.875,1.5 z"
       transform="translate(0,0.52738476)" />
    <path
       style="opacity:0.3;fill:#000000;fill-opacity:1;fill-rule:evenodd;stroke:none"
       d="m 12.00319,2.5273828 c -0.712147,1.7459942 -1.14168,2.8880805 -1.934563,4.5821738 0.486136,0.515304 1.082846,1.1154015 2.051899,1.7931552 C 11.078699,8.4740058 10.368043,8.0435956 9.8369607,7.5969578 8.822222,9.7143646 7.2324193,12.730516 4.006198,18.527383 c 2.5357013,-1.463904 4.5013333,-2.366419 6.333208,-2.710795 -0.07866,-0.33832 -0.123384,-0.704282 -0.120347,-1.086122 l 0.003,-0.08123 c 0.04023,-1.624558 0.885328,-2.873843 1.886421,-2.789019 1.001096,0.08482 1.779235,1.471341 1.739,3.095901 -0.0076,0.305688 -0.04205,0.59976 -0.102293,0.872507 1.811984,0.354456 3.756597,1.254661 6.257992,2.69876 -0.493227,-0.908064 -0.933472,-1.726616 -1.353894,-2.506205 -0.662229,-0.513272 -1.352965,-1.181299 -2.761938,-1.904475 0.968445,0.251643 1.661842,0.541971 2.20233,0.866491 C 13.815158,7.0247763 13.469014,5.967266 12.003185,2.5273828 z"
       id="path3675"
       inkscape:connector-curvature="0" />
    <path
       id="path2518"
       d="M 12.003185,2.0273828 C 11.291038,3.773377 10.86151,4.9154633 10.068627,6.6095566 10.554763,7.1248606 11.151473,7.7249581 12.120526,8.4027118 11.078699,7.9740058 10.297055,7.6500774 9.7659728,7.2034396 8.7512341,9.3208464 7.2324193,12.230516 4.006198,18.027383 c 2.5357013,-1.463904 4.5013333,-2.366419 6.333208,-2.710795 -0.07866,-0.33832 -0.123384,-0.704282 -0.120347,-1.086122 l 0.003,-0.08123 c 0.04023,-1.624558 0.885328,-2.873843 1.886421,-2.789019 1.001096,0.08482 1.779235,1.471341 1.739,3.095901 -0.0076,0.305688 -0.04205,0.59976 -0.102293,0.872507 1.811984,0.354456 3.756597,1.254661 6.257992,2.69876 -0.493227,-0.908064 -0.933472,-1.726616 -1.353894,-2.506205 -0.662229,-0.513272 -1.352965,-1.181299 -2.761938,-1.904475 0.968445,0.251643 1.590854,0.453236 2.131342,0.777756 C 13.74417,6.4360415 13.469014,5.467266 12.003185,2.0273828 z"
       style="fill:url(#radialGradient3702);fill-opacity:1;fill-rule:evenodd;stroke:none"
       sodipodi:nodetypes="ccccccccsscccccc"
       inkscape:connector-curvature="0" />
    <path
       style="fill:#ffffff;fill-opacity:1;fill-rule:evenodd;stroke:none"
       d="M 16.508014,11.536191 C 13.040246,6.8294276 12.236451,3.0359207 12.032854,2.1302439 13.882665,6.3969004 13.87003,6.449223 16.508014,11.536191 z"
       id="path2522"
       sodipodi:nodetypes="ccc"
       inkscape:connector-curvature="0" />
    <path
       id="path2520"
       d="m 12.033275,2.0995903 c -0.08831,0.2170936 -0.174106,0.4282807 -0.255736,0.628808 -0.09104,0.2236412 -0.178714,0.4375443 -0.26476,0.6468597 -0.08604,0.2093173 -0.171197,0.4121427 -0.255735,0.6137646 -0.08454,0.2016305 -0.1692,0.4011602 -0.255734,0.6017299 -0.08653,0.2005617 -0.175755,0.4016177 -0.267771,0.6077474 -0.09201,0.2061353 -0.187842,0.4195011 -0.288829,0.6378334 -0.100997,0.2183339 -0.205466,0.4427993 -0.318917,0.6799552 -0.01539,0.032186 -0.03247,0.069691 -0.04814,0.1022941 0.484587,0.5132734 1.079491,1.1103427 2.042872,1.7841292 -1.0386,-0.4273775 -1.800238,-0.7333636 -2.3307873,-1.1785165 -0.027795,0.056745 6.489e-4,-0.016871 -0.027994,0.041247 -0.100056,0.2030351 -0.2104747,0.4220958 -0.3219253,0.6438509 -0.00464,0.00937 -0.00736,0.017678 -0.012027,0.027078 -0.028248,0.056167 -0.052189,0.1049764 -0.081232,0.1624671 -0.0044,0.00883 -0.010613,0.018213 -0.01504,0.027078 C 8.8705262,9.0505932 8.3007102,10.155058 7.5684542,11.525691 9.5963636,10.382597 11.785092,8.7351472 15.757998,10.153746 15.558673,9.7762296 15.376502,9.4245476 15.204406,9.0916926 15.032313,8.7588262 14.871486,8.4447523 14.723022,8.1499852 14.574569,7.8552233 14.436233,7.5798255 14.307828,7.3165891 14.179425,7.0533581 14.061732,6.8027118 13.949798,6.5644269 13.83786,6.3261455 13.73294,6.0983549 13.633892,5.8784546 13.534836,5.6585556 13.440841,5.4456931 13.351078,5.2376121 13.261308,5.0295195 13.176385,4.8266798 13.092334,4.6238475 13.008276,4.4210087 12.92454,4.2202638 12.842617,4.0161004 12.815212,3.9478199 12.785806,3.8774216 12.758374,3.8085035 12.532401,3.2783123 12.301332,2.7292609 12.033289,2.0995903 l -1.4e-5,0 z"
       style="fill:url(#linearGradient3700);fill-opacity:1;fill-rule:evenodd;stroke:none"
       sodipodi:nodetypes="cssssssscccsssssccssssssssscc"
       inkscape:connector-curvature="0" />
  </g>
</svg>
