<?xml version="1.0" encoding="UTF-8" standalone="no"?>
<!-- Created with Inkscape (http://www.inkscape.org/) -->

<svg
   xmlns:dc="http://purl.org/dc/elements/1.1/"
   xmlns:cc="http://creativecommons.org/ns#"
   xmlns:rdf="http://www.w3.org/1999/02/22-rdf-syntax-ns#"
   xmlns:svg="http://www.w3.org/2000/svg"
   xmlns="http://www.w3.org/2000/svg"
   xmlns:xlink="http://www.w3.org/1999/xlink"
   xmlns:sodipodi="http://sodipodi.sourceforge.net/DTD/sodipodi-0.dtd"
   xmlns:inkscape="http://www.inkscape.org/namespaces/inkscape"
   width="24"
   height="24"
   id="svg2"
   sodipodi:version="0.32"
   inkscape:version="0.48.1 r9760"
   version="1.0"
   sodipodi:docname="distributor-logo-fedora.svg"
   inkscape:output_extension="org.inkscape.output.svg.inkscape"
   style="display:inline">
  <defs
     id="defs4">
    <linearGradient
       inkscape:collect="always"
       id="linearGradient3327">
      <stop
         style="stop-color:#000000;stop-opacity:1;"
         offset="0"
         id="stop3330" />
      <stop
         style="stop-color:#000000;stop-opacity:0;"
         offset="1"
         id="stop3333" />
    </linearGradient>
    <linearGradient
       inkscape:collect="always"
       xlink:href="#linearGradient3327"
       id="linearGradient3335"
       x1="11.375"
       y1="22"
       x2="11.375"
       y2="-9.817296"
       gradientUnits="userSpaceOnUse" />
    <radialGradient
       gradientUnits="userSpaceOnUse"
       id="radial-gradient"
       fy="133.10451"
       fx="115.8989"
       r="154.62019"
       cy="133.10451"
       cx="115.8989">
      <stop
         id="translucent-stop-color"
         offset="0"
         style="stop-color:#003364;stop-opacity:0;" />
      <stop
         id="opaque-blue-stop-color"
         offset="1"
         style="stop-color:#0067c8;stop-opacity:1;" />
    </radialGradient>
    <radialGradient
       inkscape:collect="always"
       xlink:href="#radialGradient3897"
       id="radialGradient3222"
       gradientUnits="userSpaceOnUse"
       cx="126.15849"
       cy="126.15498"
       fx="126.15849"
       fy="126.15498"
       r="154.62019"
       gradientTransform="matrix(0.06421524,0,0,0.06421702,3.8987014,1.8987031)" />
    <linearGradient
       inkscape:collect="always"
       xlink:href="#linearGradient3925"
       id="linearGradient3181"
       x1="-3.0607977"
       y1="27.258198"
       x2="-3.0607977"
       y2="7.2536583"
       gradientUnits="userSpaceOnUse"
       gradientTransform="translate(12.119372,-7.2581977)" />
    <filter
       inkscape:collect="always"
       id="filter8716"
       x="-0.26983511"
       width="1.5396702"
       y="-0.54066074"
       height="2.0813215"
       color-interpolation-filters="sRGB">
      <feGaussianBlur
         inkscape:collect="always"
         stdDeviation="2.0210388"
         id="feGaussianBlur8718" />
    </filter>
    <inkscape:perspective
       sodipodi:type="inkscape:persp3d"
       inkscape:vp_x="0 : 11 : 1"
       inkscape:vp_y="0 : 1000 : 0"
       inkscape:vp_z="22 : 11 : 1"
       inkscape:persp3d-origin="11 : 7.3333333 : 1"
       id="perspective2531" />
    <linearGradient
       id="ButtonShadow"
       gradientTransform="scale(0.9883037,1.0118347)"
       x1="9.3550024"
       y1="21.742682"
       x2="9.3550024"
       y2="0.49362123"
       gradientUnits="userSpaceOnUse">
      <stop
         id="stop3277"
         offset="0"
         style="stop-color:#000000;stop-opacity:0.60784316;" />
      <stop
         style="stop-color:#000000;stop-opacity:0.39215686;"
         offset="0.64112431"
         id="stop3285" />
      <stop
         id="stop3279"
         offset="1"
         style="stop-color:#000000;stop-opacity:0.18039216;" />
    </linearGradient>
    <linearGradient
       inkscape:collect="always"
       id="linearGradient3232">
      <stop
         style="stop-color:#000000;stop-opacity:1;"
         offset="0"
         id="stop3234" />
      <stop
         style="stop-color:#000000;stop-opacity:0;"
         offset="1"
         id="stop3236" />
    </linearGradient>
    <linearGradient
       gradientUnits="userSpaceOnUse"
       y2="-6.0004225"
       x2="11"
       y1="14.805666"
       x1="11"
       id="linearGradient3221"
       xlink:href="#linearGradient3232"
       inkscape:collect="always" />
    <linearGradient
       id="ButtonColor"
       x1="10.31979"
       y1="21"
       x2="10.31979"
       y2="0.99929649"
       gradientUnits="userSpaceOnUse">
      <stop
         style="stop-color:#011326;stop-opacity:1;"
         offset="0"
         id="stop3189" />
      <stop
         style="stop-color:#03274c;stop-opacity:1;"
         offset="1"
         id="stop3191" />
    </linearGradient>
    <linearGradient
       inkscape:collect="always"
       xlink:href="#ButtonShadow"
       id="linearGradient38042"
       gradientUnits="userSpaceOnUse"
       gradientTransform="scale(0.9883037,1.0118347)"
       x1="9.3550024"
       y1="21.742682"
       x2="9.3550024"
       y2="0.49362123" />
    <linearGradient
       inkscape:collect="always"
       xlink:href="#linearGradient3831"
       id="linearGradient3845"
       x1="11"
       y1="19.5"
       x2="21"
       y2="19.5"
       gradientUnits="userSpaceOnUse"
       spreadMethod="reflect"
       gradientTransform="translate(1,-1)" />
    <linearGradient
       id="linearGradient3831">
      <stop
         style="stop-color:#ffffff;stop-opacity:1;"
         offset="0"
         id="stop3833" />
      <stop
         id="stop3821"
         offset="0.75"
         style="stop-color:#ffffff;stop-opacity:0.49803922;" />
      <stop
         style="stop-color:#ffffff;stop-opacity:0;"
         offset="1"
         id="stop3835" />
    </linearGradient>
    <linearGradient
       y2="16"
       x2="10"
       y1="1"
       x1="10"
       gradientUnits="userSpaceOnUse"
       id="linearGradient3084"
       xlink:href="#linearGradient3823"
       inkscape:collect="always" />
    <linearGradient
       id="linearGradient3823">
      <stop
         id="stop3825"
         offset="0"
         style="stop-color:#ffffff;stop-opacity:1;" />
      <stop
         id="stop3829"
         offset="1"
         style="stop-color:#ffffff;stop-opacity:0;" />
    </linearGradient>
    <linearGradient
       y2="16"
       x2="10"
       y1="1"
       x1="10"
       gradientUnits="userSpaceOnUse"
       id="linearGradient3078"
       xlink:href="#linearGradient3823"
       inkscape:collect="always"
       gradientTransform="translate(1,-1)" />
    <radialGradient
       r="154.62019"
       fy="133.10451"
       fx="115.8989"
       cy="133.10451"
       cx="115.8989"
       gradientTransform="matrix(0.25364919,0,0,0.25365619,-94,-57.999993)"
       gradientUnits="userSpaceOnUse"
       id="radialGradient2877"
       xlink:href="#radialGradient3897"
       inkscape:collect="always" />
    <radialGradient
       gradientUnits="userSpaceOnUse"
       id="radialGradient3897"
       fy="133.10451"
       fx="115.8989"
       r="154.62019"
       cy="133.10451"
       cx="115.8989">
      <stop
         id="stop3899"
         offset="0"
         style="stop-color:#294172;stop-opacity:0.37404579;" />
      <stop
         id="stop3901"
         offset="1"
         style="stop-color:#294172;stop-opacity:1" />
    </radialGradient>
    <linearGradient
       inkscape:collect="always"
       xlink:href="#linearGradient3925"
       id="linearGradient3931"
       x1="64"
       y1="88"
       x2="64"
       y2="8"
       gradientUnits="userSpaceOnUse" />
    <linearGradient
       id="linearGradient3925">
      <stop
         style="stop-color:#3c6eb4;stop-opacity:1;"
         offset="0"
         id="stop3927" />
      <stop
         style="stop-color:#81a4d5;stop-opacity:1;"
         offset="1"
         id="stop3929" />
    </linearGradient>
    <linearGradient
       gradientTransform="translate(-110,-74)"
       y2="8"
       x2="64"
       y1="88"
       x1="64"
       gradientUnits="userSpaceOnUse"
       id="linearGradient3983"
       xlink:href="#linearGradient3925"
       inkscape:collect="always" />
  </defs>
  <sodipodi:namedview
     id="base"
     pagecolor="#ffffff"
     bordercolor="#e7e7e7"
     borderopacity="1"
     inkscape:pageopacity="0.0"
     inkscape:pageshadow="2"
     inkscape:zoom="10.513038"
     inkscape:cx="-2.1232146"
     inkscape:cy="4.7927948"
     inkscape:document-units="px"
     inkscape:current-layer="layer1"
     showgrid="true"
     inkscape:showpageshadow="false"
     showguides="false"
     inkscape:guide-bbox="true"
     inkscape:window-width="1920"
     inkscape:window-height="1028"
     inkscape:window-x="0"
     inkscape:window-y="25"
     inkscape:window-maximized="1">
    <sodipodi:guide
       orientation="1,0"
       position="0,112"
       id="guide2383" />
    <sodipodi:guide
       orientation="0,1"
       position="26.278146,128"
       id="guide2385" />
    <sodipodi:guide
       orientation="1,0"
       position="128,54.082119"
       id="guide2387" />
    <sodipodi:guide
       orientation="0,1"
       position="78.156291,0"
       id="guide2389" />
    <sodipodi:guide
       orientation="0,1"
       position="60.863576,64.084768"
       id="guide2391" />
    <inkscape:grid
       type="xygrid"
       id="grid3672"
       visible="true"
       enabled="true"
       empspacing="8"
       snapvisiblegridlinesonly="true" />
  </sodipodi:namedview>
  <metadata
     id="metadata7">
    <rdf:RDF>
      <cc:Work
         rdf:about="">
        <dc:format>image/svg+xml</dc:format>
        <dc:type
           rdf:resource="http://purl.org/dc/dcmitype/StillImage" />
      </cc:Work>
    </rdf:RDF>
  </metadata>
  <g
     inkscape:label="Button"
     inkscape:groupmode="layer"
     id="layer1"
     transform="translate(0,2)">
    <g
       style="display:inline"
       id="g3337"
       transform="translate(1,-1)">
      <rect
         ry="2.5"
         rx="2.5"
         y="0.5"
         x="0.5"
         height="21.5"
         width="21"
         id="rect3371"
         style="opacity:0.3;fill:url(#linearGradient3335);fill-opacity:1;stroke:none;display:inline" />
      <rect
         style="opacity:0.5;fill:#000000;fill-opacity:1;stroke:none;display:inline"
         id="rect2553"
         width="20"
         height="20"
         x="1"
         y="2"
         rx="2.3809524"
         ry="2.3255813" />
    </g>
    <rect
       style="fill:url(#linearGradient3181);fill-opacity:1;fill-rule:evenodd;stroke:none;display:inline"
       id="rect3173"
       width="20"
       height="20"
       x="2"
       y="0"
       rx="2"
       ry="2" />
  </g>
  <g
     inkscape:groupmode="layer"
     id="layer4"
     inkscape:label="Logo"
     transform="translate(0,2)">
    <path
       style="fill:url(#radialGradient3222);fill-opacity:1;display:inline"
       d="M 12,1.8987014 C 7.5278579,1.8987014 3.9017837,5.5282483 3.8987014,10 l 0,5.139261 0,1.113929 0,0.227849 c 0,0.897624 0.7226358,1.62026 1.6202597,1.62026 l 0.227849,0 6.2531899,0 C 16.472591,18.099437 20.101299,14.473164 20.101299,10 20.101299,5.5254869 16.474197,1.8987014 12,1.8987014 z"
       id="speech-bubble"
       inkscape:connector-curvature="0" />
    <path
       id="f-script-path"
       style="fill:#5484c6;fill-opacity:1;display:inline"
       d="m 14.378758,3.8190487 c -2.100095,0 -3.802378,1.7023932 -3.802378,3.8024181 0,7.064e-4 0,0.00167 0,0.00263 l 0,2.0124972 -2.0062764,0 c -3.21e-4,0 -3.21e-4,0 -5.137e-4,0 -2.1000312,0 -3.8023132,1.694109 -3.8023132,3.794006 0,2.100217 1.7023463,3.802545 3.8023132,3.802545 2.0997741,0 3.8021201,-1.702328 3.8021201,-3.802545 0,-7.72e-4 0,-0.0015 0,-0.0027 l 0,-2.020845 2.006213,0 c 4.5e-4,0 6.43e-4,0 8.1e-4,0 2.099775,0 3.802122,-1.685761 3.802122,-3.7856574 0,-2.100025 -1.702347,-3.8024181 -3.802122,-3.8024181 z m -3.802377,9.6151503 c -0.0016,1.106523 -0.899656,2.00357 -2.0067911,2.00357 -1.1082909,0 -2.0150744,-0.898524 -2.0150744,-2.006846 0,-1.108706 0.9067835,-2.023863 2.0150744,-2.023863 8.993e-4,0 0.0018,0 0.00263,0 l 1.7196201,0 c 5.78e-4,0 8.99e-4,0 0.0013,0 0.156557,0 0.28351,0.1267 0.28351,0.283005 0,3.2e-4 -1.92e-4,3.2e-4 -1.92e-4,7.06e-4 l 0,1.743428 -6.5e-5,0 z m 3.802185,-3.797602 c -6.43e-4,0 -0.0013,0 -0.0019,0 l -1.720775,0 c -3.86e-4,0 -8.11e-4,0 -0.0011,0 -0.156556,0 -0.283189,-0.126636 -0.283189,-0.283326 l 0,-6.4e-5 0,-1.7350153 c 0.0019,-1.1071656 0.899656,-2.003892 2.006856,-2.003892 1.108291,0 2.015267,0.8985887 2.015267,2.0071029 0,1.1083856 -0.906976,2.0151944 -2.015267,2.0151944 z"
       inkscape:connector-curvature="0" />
    <path
       d="m 10.576381,9.636597 0,-2.0125615 c 0,-8.992e-4 0,-0.00186 0,-0.00263 0,-2.100025 1.702282,-3.802418 3.802377,-3.802418 0.318572,0 0.54493,0.035897 0.839807,0.1130862 0.430049,0.1127649 0.781243,0.4650596 0.781435,0.8751495 1.93e-4,0.4957552 -0.359669,0.8561413 -0.897472,0.8561413 -0.256219,0 -0.348817,-0.049062 -0.723962,-0.049062 -1.1072,0 -2.004993,0.8967264 -2.006856,2.003892 l 0,1.7349515 0,6.4e-5 c 0,0.15669 0.126632,0.283326 0.283189,0.283326 1.93e-4,0 6.43e-4,0 0.0011,0 l 1.317826,0 c 0.491117,0 0.887711,0.3932 0.888096,0.885617 0,0.492608 -0.397171,0.88491 -0.888096,0.88491 l -1.602043,0 0,2.020845 c 0,0.0011 0,0.0019 0,0.003 0,2.099831 -1.702346,3.802161 -3.80212,3.802161 -0.3186361,0 -0.5449947,-0.0359 -0.8398712,-0.11315 -0.4300495,-0.112701 -0.781371,-0.465189 -0.7815637,-0.87515 0,-0.495627 0.3596054,-0.856141 0.8976649,-0.856141 0.2559619,0 0.3488172,0.04913 0.72377,0.04913 1.1071993,0 2.00525,-0.89679 2.006983,-2.00357 0,0 0,-1.74375 0,-1.74407 0,-0.156369 -0.126953,-0.283005 -0.28351,-0.283005 -1.93e-4,0 -3.85e-4,0 -7.06e-4,0 l -1.3177614,0 c -0.4912466,0 -0.8881611,-0.391916 -0.8881611,-0.884653 -1.283e-4,-0.495499 0.4010242,-0.88581 0.8974723,-0.88581 l 1.5924742,0 0,-6.4e-5 z"
       style="fill:#ffffff;display:inline"
       id="blue-inifity-connectors"
       inkscape:connector-curvature="0" />
    <path
       style="opacity:0.25;fill:url(#linearGradient3078);fill-opacity:1;fill-rule:evenodd;stroke:none;display:inline"
       d="M 4,0 C 2.892,0 2,0.892 2,2 l 0,16 c 0,1.108 0.892,2 2,2 l 16,0 c 1.108,0 2,-0.892 2,-2 L 22,2 C 22,0.892 21.108,0 20,0 L 4,0 z m 0,1.03125 16,0 c 0.5497,0 0.96875,0.4190495 0.96875,0.96875 l 0,16 c 0,0.5497 -0.41905,0.96875 -0.96875,0.96875 l -16,0 C 3.4502995,18.96875 3.03125,18.5497 3.03125,18 l 0,-16 C 3.03125,1.4502995 3.4502995,1.03125 4,1.03125 z"
       id="rect3050"
       inkscape:connector-curvature="0" />
    <path
       id="path3235"
       d="M 4,20 C 2.892,20 2,19.108 2,18 l 0,-1 c 0,1.108 0.892,2 2,2 l 16,0 c 1.108,0 2,-0.892 2,-2 l 0,1 c 0,1.108 -0.892,2 -2,2 L 4,20 z"
       style="opacity:0.15;fill:url(#linearGradient3845);fill-opacity:1;fill-rule:evenodd;stroke:none;display:inline"
       inkscape:connector-curvature="0" />
  </g>
</svg>
