<?xml version="1.0" encoding="UTF-8" standalone="no"?>
<!-- Created with Inkscape (http://www.inkscape.org/) -->

<svg
   xmlns:dc="http://purl.org/dc/elements/1.1/"
   xmlns:cc="http://creativecommons.org/ns#"
   xmlns:rdf="http://www.w3.org/1999/02/22-rdf-syntax-ns#"
   xmlns:svg="http://www.w3.org/2000/svg"
   xmlns="http://www.w3.org/2000/svg"
   xmlns:xlink="http://www.w3.org/1999/xlink"
   xmlns:sodipodi="http://sodipodi.sourceforge.net/DTD/sodipodi-0.dtd"
   xmlns:inkscape="http://www.inkscape.org/namespaces/inkscape"
   width="24"
   height="24"
   id="svg2"
   sodipodi:version="0.32"
   inkscape:version="0.48.1 r9760"
   version="1.0"
   sodipodi:docname="folder-remote.svg"
   inkscape:output_extension="org.inkscape.output.svg.inkscape"
   style="display:inline">
  <defs
     id="defs4">
    <linearGradient
       gradientUnits="userSpaceOnUse"
       y2="20.137329"
       x2="11.794092"
       y1="3.2126782"
       x1="11.794092"
       gradientTransform="scale(1.0598527,0.9435274)"
       id="linearGradient3317">
      <stop
         id="stop3319"
         offset="0"
         style="stop-color:#c6953a;stop-opacity:1" />
      <stop
         id="stop3321"
         offset="1"
         style="stop-color:#ab7a1f;stop-opacity:1" />
    </linearGradient>
    <linearGradient
       inkscape:collect="always"
       xlink:href="#linearGradient3317"
       id="linearGradient3361"
       x1="48.035713"
       y1="25.910715"
       x2="48.035713"
       y2="85.821426"
       gradientUnits="userSpaceOnUse"
       gradientTransform="matrix(0.2195263,0,0,0.2195263,1.3370719,0.1776143)" />
    <linearGradient
       id="linearGradient3348">
      <stop
         style="stop-color:#ddbf8b;stop-opacity:1;"
         offset="0"
         id="stop3350" />
      <stop
         id="stop3356"
         offset="0.71691591"
         style="stop-color:#c29856;stop-opacity:1;" />
      <stop
         style="stop-color:#a2773a;stop-opacity:1;"
         offset="1"
         id="stop3352" />
    </linearGradient>
    <linearGradient
       id="linearGradient3187">
      <stop
         style="stop-color:#c29656;stop-opacity:1;"
         offset="0"
         id="stop3189" />
      <stop
         style="stop-color:#ddbf8b;stop-opacity:1;"
         offset="1"
         id="stop3191" />
    </linearGradient>
    <linearGradient
       inkscape:collect="always"
       xlink:href="#linearGradient3348"
       id="linearGradient3640"
       x1="6.9332814"
       y1="3"
       x2="6.9349904"
       y2="6.4254756"
       gradientUnits="userSpaceOnUse"
       gradientTransform="translate(31,-3)" />
    <linearGradient
       inkscape:collect="always"
       xlink:href="#linearGradient3187"
       id="linearGradient3668"
       x1="10.871767"
       y1="24.123091"
       x2="10.871767"
       y2="6.1230297"
       gradientUnits="userSpaceOnUse"
       gradientTransform="translate(-0.7400389,-4.1230297)" />
    <linearGradient
       inkscape:collect="always"
       xlink:href="#linearGradient3831"
       id="linearGradient3845"
       x1="11"
       y1="19.5"
       x2="21"
       y2="19.5"
       gradientUnits="userSpaceOnUse"
       spreadMethod="reflect"
       gradientTransform="translate(1,-1)" />
    <linearGradient
       id="linearGradient3831">
      <stop
         style="stop-color:#ffffff;stop-opacity:1;"
         offset="0"
         id="stop3833" />
      <stop
         id="stop3821"
         offset="0.75"
         style="stop-color:#ffffff;stop-opacity:0.49803922;" />
      <stop
         style="stop-color:#ffffff;stop-opacity:0;"
         offset="1"
         id="stop3835" />
    </linearGradient>
    <linearGradient
       id="linearGradient3823">
      <stop
         id="stop3825"
         offset="0"
         style="stop-color:#ffffff;stop-opacity:1;" />
      <stop
         id="stop3829"
         offset="1"
         style="stop-color:#ffffff;stop-opacity:0;" />
    </linearGradient>
    <linearGradient
       y2="16"
       x2="10"
       y1="5"
       x1="10"
       gradientUnits="userSpaceOnUse"
       id="linearGradient3078"
       xlink:href="#linearGradient3823"
       inkscape:collect="always"
       gradientTransform="translate(1,-1)" />
    <linearGradient
       inkscape:collect="always"
       xlink:href="#linearGradient3348"
       id="linearGradient3822"
       x1="8"
       y1="2"
       x2="8"
       y2="4"
       gradientUnits="userSpaceOnUse" />
    <linearGradient
       inkscape:collect="always"
       xlink:href="#linearGradient3831-1"
       id="linearGradient3845-9"
       x1="11"
       y1="19.5"
       x2="21"
       y2="19.5"
       gradientUnits="userSpaceOnUse"
       spreadMethod="reflect"
       gradientTransform="translate(1,-1)" />
    <linearGradient
       id="linearGradient3831-1">
      <stop
         style="stop-color:#ffffff;stop-opacity:1;"
         offset="0"
         id="stop3833-2" />
      <stop
         id="stop3821-4"
         offset="0.75"
         style="stop-color:#ffffff;stop-opacity:0.49803922;" />
      <stop
         style="stop-color:#ffffff;stop-opacity:0;"
         offset="1"
         id="stop3835-9" />
    </linearGradient>
    <linearGradient
       y2="16"
       x2="10"
       y1="5"
       x1="10"
       gradientUnits="userSpaceOnUse"
       id="linearGradient3078-0"
       xlink:href="#linearGradient3823-1"
       inkscape:collect="always"
       gradientTransform="translate(1,-1)" />
    <linearGradient
       id="linearGradient3823-1">
      <stop
         id="stop3825-4"
         offset="0"
         style="stop-color:#ffffff;stop-opacity:1;" />
      <stop
         id="stop3829-4"
         offset="1"
         style="stop-color:#ffffff;stop-opacity:0;" />
    </linearGradient>
    <linearGradient
       inkscape:collect="always"
       xlink:href="#linearGradient3187-2"
       id="linearGradient3668-3"
       x1="10.871767"
       y1="24.123091"
       x2="10.871767"
       y2="6.1230297"
       gradientUnits="userSpaceOnUse"
       gradientTransform="translate(-0.7400389,-4.1230297)" />
    <linearGradient
       id="linearGradient3187-2">
      <stop
         style="stop-color:#c29656;stop-opacity:1;"
         offset="0"
         id="stop3189-5" />
      <stop
         style="stop-color:#ddbf8b;stop-opacity:1;"
         offset="1"
         id="stop3191-1" />
    </linearGradient>
    <linearGradient
       id="linearGradient3348-2">
      <stop
         style="stop-color:#ddbf8b;stop-opacity:1;"
         offset="0"
         id="stop3350-6" />
      <stop
         id="stop3356-0"
         offset="0.71691591"
         style="stop-color:#c29856;stop-opacity:1;" />
      <stop
         style="stop-color:#a2773a;stop-opacity:1;"
         offset="1"
         id="stop3352-6" />
    </linearGradient>
    <linearGradient
       gradientUnits="userSpaceOnUse"
       y2="20.137329"
       x2="11.794092"
       y1="3.2126782"
       x1="11.794092"
       gradientTransform="scale(1.0598527,0.9435274)"
       id="linearGradient3317-6">
      <stop
         id="stop3319-8"
         offset="0"
         style="stop-color:#c6953a;stop-opacity:1" />
      <stop
         id="stop3321-0"
         offset="1"
         style="stop-color:#ab7a1f;stop-opacity:1" />
    </linearGradient>
    <linearGradient
       y2="85.821426"
       x2="48.035713"
       y1="25.910715"
       x1="48.035713"
       gradientTransform="matrix(0.2195263,0,0,0.2195263,1.3370719,0.1776143)"
       gradientUnits="userSpaceOnUse"
       id="linearGradient3861"
       xlink:href="#linearGradient3317-6"
       inkscape:collect="always" />
    <linearGradient
       inkscape:collect="always"
       id="linearGradient3327">
      <stop
         style="stop-color:#000000;stop-opacity:1;"
         offset="0"
         id="stop3330" />
      <stop
         style="stop-color:#000000;stop-opacity:0;"
         offset="1"
         id="stop3333" />
    </linearGradient>
    <linearGradient
       y2="-11"
       x2="11.375"
       y1="20"
       x1="11.375"
       gradientTransform="translate(1,3)"
       gradientUnits="userSpaceOnUse"
       id="linearGradient3842"
       xlink:href="#linearGradient3327"
       inkscape:collect="always" />
    <linearGradient
       inkscape:collect="always"
       xlink:href="#linearGradient3348-2"
       id="linearGradient3943"
       gradientUnits="userSpaceOnUse"
       gradientTransform="translate(0,-2)"
       x1="8"
       y1="2"
       x2="8"
       y2="4" />
    <linearGradient
       inkscape:collect="always"
       xlink:href="#linearGradient3348-2"
       id="linearGradient3947"
       gradientUnits="userSpaceOnUse"
       gradientTransform="translate(0,-2)"
       x1="8"
       y1="2"
       x2="8"
       y2="4" />
    <linearGradient
       gradientUnits="userSpaceOnUse"
       y2="20.137329"
       x2="11.794092"
       y1="3.2126782"
       x1="11.794092"
       gradientTransform="scale(1.0598527,0.9435274)"
       id="linearGradient3317-0">
      <stop
         id="stop3319-7"
         offset="0"
         style="stop-color:#c29556;stop-opacity:1;" />
      <stop
         id="stop3321-1"
         offset="1"
         style="stop-color:#aa7932;stop-opacity:1;" />
    </linearGradient>
    <linearGradient
       y2="32.397678"
       x2="48.071056"
       y1="73.765587"
       x1="48.071056"
       gradientUnits="userSpaceOnUse"
       id="linearGradient3248"
       xlink:href="#linearGradient3699-7"
       inkscape:collect="always"
       gradientTransform="translate(0,-2)" />
    <linearGradient
       id="linearGradient3699-7">
      <stop
         style="stop-color:#aa7932;stop-opacity:0.78431374;"
         offset="0"
         id="stop3701-4" />
      <stop
         style="stop-color:#aa7932;stop-opacity:0.39215687;"
         offset="1"
         id="stop3703-1" />
    </linearGradient>
  </defs>
  <sodipodi:namedview
     id="base"
     pagecolor="#7e7e7e"
     bordercolor="#e40000"
     borderopacity="1"
     inkscape:pageopacity="1"
     inkscape:pageshadow="2"
     inkscape:zoom="18.602289"
     inkscape:cx="-8.0253186"
     inkscape:cy="5.2270176"
     inkscape:document-units="px"
     inkscape:current-layer="layer2"
     showgrid="true"
     inkscape:showpageshadow="false"
     showguides="true"
     inkscape:guide-bbox="true"
     inkscape:window-width="1920"
     inkscape:window-height="1028"
     inkscape:window-x="0"
     inkscape:window-y="25"
     inkscape:window-maximized="1"
     borderlayer="true">
    <sodipodi:guide
       orientation="1,0"
       position="0,112"
       id="guide2383" />
    <sodipodi:guide
       orientation="0,1"
       position="26.278146,128"
       id="guide2385" />
    <sodipodi:guide
       orientation="1,0"
       position="128,54.082119"
       id="guide2387" />
    <sodipodi:guide
       orientation="0,1"
       position="78.156291,0"
       id="guide2389" />
    <inkscape:grid
       type="xygrid"
       id="grid3672"
       visible="true"
       enabled="true"
       empspacing="8"
       snapvisiblegridlinesonly="true" />
  </sodipodi:namedview>
  <metadata
     id="metadata7">
    <rdf:RDF>
      <cc:Work
         rdf:about="">
        <dc:format>image/svg+xml</dc:format>
        <dc:type
           rdf:resource="http://purl.org/dc/dcmitype/StillImage" />
        <dc:title />
      </cc:Work>
    </rdf:RDF>
  </metadata>
  <g
     inkscape:groupmode="layer"
     id="layer2"
     inkscape:label="Button"
     transform="translate(0,2)">
    <path
       style="opacity:0.29999999999999999;fill:url(#linearGradient3842);fill-opacity:1;stroke:none;display:inline"
       d="M 4.5 1.5 C 3.4030029 1.5 2.5 2.4030029 2.5 3.5 L 2.5 4 C 1.8885192 4.4549066 1.5 5.175925 1.5 6 L 1.5 20.5 C 1.5 21.885 2.615 23 4 23 L 20 23 C 21.385 23 22.5 21.885 22.5 20.5 L 22.5 6 C 22.5 5.134375 22.071045 4.3858887 21.40625 3.9375 C 21.160346 3.1111944 20.401594 2.5 19.5 2.5 L 12.125 2.5 C 11.775318 1.9321758 11.212848 1.5 10.5 1.5 L 4.5 1.5 z "
       transform="translate(0,-2)"
       id="rect3371" />
    <rect
       ry="2"
       rx="2"
       y="5"
       x="2"
       height="16"
       width="20"
       id="rect5478"
       style="opacity:0.4;fill:#000000;fill-opacity:1;fill-rule:nonzero;stroke:none" />
    <rect
       style="fill:url(#linearGradient3861);fill-opacity:1;fill-rule:nonzero;stroke:none;display:inline"
       id="rect3352"
       width="16.464474"
       height="13.759596"
       x="3.6499383"
       y="5.2580805"
       rx="1.3171579"
       ry="1.3171579" />
    <path
       inkscape:connector-curvature="0"
       style="color:#000000;fill:#c4995a;fill-opacity:1;fill-rule:nonzero;stroke:none;stroke-width:2;marker:none;visibility:visible;display:inline;overflow:visible;enable-background:accumulate"
       d="M 4.5,0 C 3.669,0 3,0.669 3,1.5 l 0,1 0,1 0,2 C 3,6.331 3.669,7 4.5,7 l 15,0 C 20.331,7 21,6.331 21,5.5 l 0,-3 C 21,1.669 20.331,1 19.5,1 L 11.90625,1 C 11.702994,0.4129833 11.157875,0 10.5,0 l -6,0 z"
       id="rect3043" />
    <path
       style="color:#000000;fill:#000000;fill-opacity:1;fill-rule:nonzero;stroke:none;stroke-width:2;marker:none;visibility:visible;display:inline;overflow:visible;enable-background:accumulate;opacity:0.1"
       d="M 4,1 C 3.648898,1 3.317465,1.0923738 3.03125,1.25 3.018314,1.3295389 3,1.4166943 3,1.5 l 0,1 0,1 0,2 C 3,6.331 3.669,7 4.5,7 l 15,0 C 20.331,7 21,6.331 21,5.5 l 0,-3 C 21,1.669 20.331,1 19.5,1 L 11.90625,1 4,1 z"
       id="path3050"
       inkscape:connector-curvature="0" />
    <rect
       style="fill:url(#linearGradient3668-3);fill-opacity:1;fill-rule:nonzero;stroke:none;display:inline"
       id="rect3660"
       width="20"
       height="17.999996"
       x="2"
       y="2"
       rx="2"
       ry="2" />
    <path
       style="opacity:0.2;fill:url(#linearGradient3078-0);fill-opacity:1;fill-rule:evenodd;stroke:none;display:inline"
       d="M 4,2 C 2.892,2 2,2.892 2,4 l 0,14 c 0,1.108 0.892,2 2,2 l 16,0 c 1.108,0 2,-0.892 2,-2 L 22,4 C 22,2.892 21.108,2 20,2 z m 0,1.03125 16,0 c 0.5497,0 0.96875,0.4190495 0.96875,0.96875 l 0,14 c 0,0.5497 -0.41905,0.96875 -0.96875,0.96875 l -16,0 C 3.4502995,18.96875 3.03125,18.5497 3.03125,18 l 0,-14 C 3.03125,3.4502995 3.4502995,3.03125 4,3.03125 z"
       id="rect3050"
       inkscape:connector-curvature="0"
       sodipodi:nodetypes="ssssssssssssssssss" />
    <path
       id="path3235"
       d="M 4,20 C 2.892,20 2,19.108 2,18 l 0,-1 c 0,1.108 0.892,2 2,2 l 16,0 c 1.108,0 2,-0.892 2,-2 l 0,1 c 0,1.108 -0.892,2 -2,2 z"
       style="opacity:0.2;fill:url(#linearGradient3845-9);fill-opacity:1;fill-rule:evenodd;stroke:none;display:inline"
       inkscape:connector-curvature="0"
       sodipodi:nodetypes="sscsscsss" />
    <path
       sodipodi:type="inkscape:offset"
       inkscape:radius="0.26516506"
       inkscape:original="M 11 6.5 C 8.0600375 6.5000001 5.1156827 7.6343172 2.875 9.875 C 2.6862781 10.065313 2.6862781 10.372187 2.875 10.5625 L 4.28125 11.96875 C 4.4715629 12.157472 4.7784371 12.157472 4.96875 11.96875 C 6.5083327 10.429167 8.6464853 9.5 11 9.5 C 13.353515 9.4999999 15.491667 10.429167 17.03125 11.96875 C 17.221563 12.157472 17.528437 12.157472 17.71875 11.96875 L 19.125 10.5625 C 19.313722 10.372187 19.313722 10.065313 19.125 9.875 C 16.884318 7.6343174 13.939962 6.4999999 11 6.5 z M 11 10.5 C 8.9340057 10.5 7.0713835 11.366116 5.71875 12.71875 C 5.5300281 12.909063 5.5300281 13.215937 5.71875 13.40625 L 7.125 14.8125 C 7.3153129 15.001222 7.6221871 15.001222 7.8125 14.8125 C 8.6307314 13.994269 9.7529418 13.5 11 13.5 C 12.247058 13.5 13.369269 13.994269 14.1875 14.8125 C 14.377813 15.001222 14.684687 15.001222 14.875 14.8125 L 16.28125 13.40625 C 16.469972 13.215937 16.469972 12.909063 16.28125 12.71875 C 14.928616 11.366116 13.065994 10.5 11 10.5 z M 11 14.5 C 10.041515 14.5 9.1636673 14.898833 8.53125 15.53125 C 8.3425281 15.721563 8.3425281 16.028437 8.53125 16.21875 L 10.65625 18.34375 C 10.846563 18.532472 11.153437 18.532472 11.34375 18.34375 L 13.46875 16.21875 C 13.657472 16.028437 13.657472 15.721563 13.46875 15.53125 C 12.836333 14.898833 11.958485 14.5 11 14.5 z "
       style="opacity:0.15;fill:#ffffff;fill-opacity:1;fill-rule:nonzero;stroke:none;display:inline"
       id="path3254"
       d="m 11,6.25 c -3.0081677,1e-7 -6.0213294,1.1463293 -8.3125,3.4375 -0.2890738,0.291511 -0.2890738,0.770989 0,1.0625 l 1.40625,1.40625 c 0.2915109,0.289074 0.7709891,0.289074 1.0625,0 C 6.6467534,10.665746 8.7162767,9.75 11,9.75 c 2.283724,-10e-8 4.353246,0.915746 5.84375,2.40625 0.291511,0.289074 0.770989,0.289074 1.0625,0 L 19.3125,10.75 c 0.289074,-0.291511 0.289074,-0.7709891 0,-1.0625 C 17.02133,7.3963294 14.008167,6.2499999 11,6.25 z m 0,4 c -2.1401035,0 -4.0700718,0.882571 -5.46875,2.28125 -0.2890738,0.291511 -0.2890738,0.770989 0,1.0625 L 6.9375,15 c 0.2915109,0.289074 0.7709891,0.289074 1.0625,0 0.7702666,-0.770266 1.8230069,-1.25 3,-1.25 1.176993,0 2.229734,0.479734 3,1.25 0.291511,0.289074 0.770989,0.289074 1.0625,0 l 1.40625,-1.40625 c 0.289074,-0.291511 0.289074,-0.770989 0,-1.0625 C 15.070071,11.132571 13.140103,10.25 11,10.25 z m 0,4 c -1.0320432,0 -1.976493,0.413993 -2.65625,1.09375 -0.2890738,0.291511 -0.2890738,0.770989 0,1.0625 l 2.125,2.125 c 0.291511,0.289074 0.770989,0.289074 1.0625,0 l 2.125,-2.125 c 0.289074,-0.291511 0.289074,-0.770989 0,-1.0625 C 12.976493,14.663993 12.032043,14.25 11,14.25 z"
       transform="translate(1,-1)" />
    <path
       style="fill:#bd8e48;fill-opacity:1;fill-rule:nonzero;stroke:none;display:inline"
       d="m 12,6 c -2.816124,1e-7 -5.63415,1.0716496 -7.78125,3.21875 L 5.625,10.625 C 7.254,8.996 9.516,8 12,8 c 2.484,-1e-7 4.746,0.996 6.375,2.625 L 19.78125,9.21875 C 17.63415,7.0716498 14.816124,5.9999999 12,6 z m 0,4 c -1.932,0 -3.6705,0.7955 -4.9375,2.0625 l 1.40625,1.40625 C 9.37375,12.56375 10.62,12 12,12 c 1.38,0 2.62625,0.56375 3.53125,1.46875 L 16.9375,12.0625 C 15.6705,10.7955 13.932,10 12,10 z m 0,4 c -0.828,0 -1.582,0.332 -2.125,0.875 L 12,17 14.125,14.875 C 13.582,14.332 12.828,14 12,14 z"
       id="path2427"
       inkscape:connector-curvature="0" />
    <path
       style="opacity:0.2;fill:#000000;fill-opacity:1;fill-rule:nonzero;stroke:none;display:inline"
       d="m 12,6 c -2.816124,1e-7 -5.63415,1.0716496 -7.78125,3.21875 L 5.625,10.625 C 7.254,8.996 9.516,8 12,8 c 2.484,-1e-7 4.746,0.996 6.375,2.625 L 19.78125,9.21875 C 17.63415,7.0716498 14.816124,5.9999999 12,6 z m 0,0.40625 c 2.587453,-1e-7 5.157948,0.963257 7.1875,2.84375 l -0.84375,0.84375 C 16.667577,8.554991 14.4484,7.5937499 12,7.59375 c -2.4484,0 -4.667577,0.961241 -6.34375,2.5 L 4.8125,9.25 C 6.842052,7.3695068 9.412547,6.4062501 12,6.40625 z M 12,10 c -1.932,0 -3.6705,0.7955 -4.9375,2.0625 l 1.40625,1.40625 C 9.37375,12.56375 10.62,12 12,12 c 1.38,0 2.62625,0.56375 3.53125,1.46875 L 16.9375,12.0625 C 15.6705,10.7955 13.932,10 12,10 z m 0,0.40625 c 1.678202,0 3.179016,0.652307 4.34375,1.6875 L 15.5,12.9375 c -0.945167,-0.817033 -2.153841,-1.34375 -3.5,-1.34375 -1.346159,0 -2.554833,0.526717 -3.5,1.34375 L 7.65625,12.09375 C 8.820984,11.058557 10.321798,10.40625 12,10.40625 z M 12,14 c -0.828,0 -1.582,0.332 -2.125,0.875 L 12,17 14.125,14.875 C 13.582,14.332 12.828,14 12,14 z m 0,0.40625 c 0.576374,0 1.069819,0.217531 1.5,0.53125 l -1.5,1.5 -1.5,-1.5 c 0.430181,-0.313719 0.923626,-0.53125 1.5,-0.53125 z"
       id="path3258"
       inkscape:connector-curvature="0" />
    <path
       style="opacity:0.2;fill:#000000;fill-opacity:1;fill-rule:nonzero;stroke:none;display:inline"
       d="m 12,6 c -2.816124,1e-7 -5.63415,1.0716496 -7.78125,3.21875 L 4.75,9.75 C 6.821856,7.926812 9.404796,7.0000001 12,7 c 2.595204,-1e-7 5.178144,0.9268121 7.25,2.75 L 19.78125,9.21875 C 17.63415,7.0716498 14.816124,5.9999999 12,6 z m 0,4 c -1.932,0 -3.6705,0.7955 -4.9375,2.0625 l 0.53125,0.53125 C 8.796595,11.609349 10.325319,11 12,11 c 1.674681,0 3.203405,0.609349 4.40625,1.59375 L 16.9375,12.0625 C 15.6705,10.7955 13.932,10 12,10 z m 0,4 c -0.828,0 -1.582,0.332 -2.125,0.875 l 0.5625,0.5625 C 10.89416,15.159711 11.427114,15 12,15 c 0.572886,0 1.10584,0.159711 1.5625,0.4375 L 14.125,14.875 C 13.582,14.332 12.828,14 12,14 z"
       id="path3634"
       inkscape:connector-curvature="0" />
    <path
       style="opacity:0.15;fill:#ffffff;fill-opacity:1;fill-rule:nonzero;stroke:none;display:inline"
       d="M 12,8 C 9.516,8 7.254,8.996 5.625,10.625 L 4.75,9.75 C 4.573631,9.905201 4.387186,10.050314 4.21875,10.21875 L 5.625,11.625 C 7.254,9.996 9.516,9 12,9 c 2.484,0 4.746,0.996 6.375,2.625 l 1.40625,-1.40625 C 19.612814,10.050314 19.426369,9.905201 19.25,9.75 l -0.875,0.875 C 16.746,8.996 14.484,7.9999999 12,8 z m 0,4 c -1.38,0 -2.62625,0.56375 -3.53125,1.46875 l -0.875,-0.875 C 7.40893,12.745006 7.231249,12.893751 7.0625,13.0625 l 1.40625,1.40625 C 9.37375,13.56375 10.62,13 12,13 c 1.38,0 2.62625,0.56375 3.53125,1.46875 L 16.9375,13.0625 c -0.168749,-0.168749 -0.34643,-0.317494 -0.53125,-0.46875 l -0.875,0.875 C 14.62625,12.56375 13.38,12 12,12 z m -1.5625,3.4375 C 10.234144,15.561203 10.042303,15.707697 9.875,15.875 L 12,18 14.125,15.875 C 13.957697,15.707697 13.765856,15.561203 13.5625,15.4375 L 12,17 10.4375,15.4375 z"
       id="path3854"
       inkscape:connector-curvature="0" />
    <rect
       style="color:#000000;fill:#bd8e48;fill-opacity:1;fill-rule:nonzero;stroke:none;stroke-width:2;marker:none;visibility:visible;display:inline;overflow:visible;enable-background:accumulate"
       id="rect3884"
       width="8"
       height="8"
       x="32"
       y="0"
       transform="translate(0,-2)" />
  </g>
  <g
     inkscape:groupmode="layer"
     id="layer4"
     inkscape:label="Symbol"
     transform="translate(0,2)"
     sodipodi:insensitive="true" />
</svg>
