<?xml version="1.0" encoding="UTF-8" standalone="no"?>
<!-- Created with Inkscape (http://www.inkscape.org/) -->

<svg
   xmlns:dc="http://purl.org/dc/elements/1.1/"
   xmlns:cc="http://creativecommons.org/ns#"
   xmlns:rdf="http://www.w3.org/1999/02/22-rdf-syntax-ns#"
   xmlns:svg="http://www.w3.org/2000/svg"
   xmlns="http://www.w3.org/2000/svg"
   xmlns:xlink="http://www.w3.org/1999/xlink"
   xmlns:sodipodi="http://sodipodi.sourceforge.net/DTD/sodipodi-0.dtd"
   xmlns:inkscape="http://www.inkscape.org/namespaces/inkscape"
   width="24"
   height="24"
   id="svg2"
   sodipodi:version="0.32"
   inkscape:version="0.48.1 r9760"
   version="1.0"
   sodipodi:docname="folder-system.svg"
   inkscape:output_extension="org.inkscape.output.svg.inkscape"
   style="display:inline">
  <defs
     id="defs4">
    <linearGradient
       inkscape:collect="always"
       xlink:href="#linearGradient3831-1"
       id="linearGradient3845-9"
       x1="11"
       y1="19.5"
       x2="21"
       y2="19.5"
       gradientUnits="userSpaceOnUse"
       spreadMethod="reflect"
       gradientTransform="translate(1,-1)" />
    <linearGradient
       id="linearGradient3831-1">
      <stop
         style="stop-color:#ffffff;stop-opacity:1;"
         offset="0"
         id="stop3833-2" />
      <stop
         id="stop3821-4"
         offset="0.75"
         style="stop-color:#ffffff;stop-opacity:0.49803922;" />
      <stop
         style="stop-color:#ffffff;stop-opacity:0;"
         offset="1"
         id="stop3835-9" />
    </linearGradient>
    <linearGradient
       y2="16"
       x2="10"
       y1="5"
       x1="10"
       gradientUnits="userSpaceOnUse"
       id="linearGradient3078-0"
       xlink:href="#linearGradient3823-1"
       inkscape:collect="always"
       gradientTransform="translate(1,-1)" />
    <linearGradient
       id="linearGradient3823-1">
      <stop
         id="stop3825-4"
         offset="0"
         style="stop-color:#ffffff;stop-opacity:1;" />
      <stop
         id="stop3829-4"
         offset="1"
         style="stop-color:#ffffff;stop-opacity:0;" />
    </linearGradient>
    <linearGradient
       inkscape:collect="always"
       xlink:href="#linearGradient3187-2"
       id="linearGradient3668-3"
       x1="10.871767"
       y1="24.123091"
       x2="10.871767"
       y2="6.1230297"
       gradientUnits="userSpaceOnUse"
       gradientTransform="translate(-0.7400389,-4.1230297)" />
    <linearGradient
       id="linearGradient3187-2">
      <stop
         style="stop-color:#c29656;stop-opacity:1;"
         offset="0"
         id="stop3189-5" />
      <stop
         style="stop-color:#ddbf8b;stop-opacity:1;"
         offset="1"
         id="stop3191-1" />
    </linearGradient>
    <linearGradient
       gradientUnits="userSpaceOnUse"
       y2="20.137329"
       x2="11.794092"
       y1="3.2126782"
       x1="11.794092"
       gradientTransform="scale(1.0598527,0.9435274)"
       id="linearGradient3317-6">
      <stop
         id="stop3319-8"
         offset="0"
         style="stop-color:#c6953a;stop-opacity:1" />
      <stop
         id="stop3321-0"
         offset="1"
         style="stop-color:#ab7a1f;stop-opacity:1" />
    </linearGradient>
    <linearGradient
       y2="85.821426"
       x2="48.035713"
       y1="25.910715"
       x1="48.035713"
       gradientTransform="matrix(0.2195263,0,0,0.2195263,1.3370719,0.1776143)"
       gradientUnits="userSpaceOnUse"
       id="linearGradient3861"
       xlink:href="#linearGradient3317-6"
       inkscape:collect="always" />
    <linearGradient
       inkscape:collect="always"
       id="linearGradient3327">
      <stop
         style="stop-color:#000000;stop-opacity:1;"
         offset="0"
         id="stop3330" />
      <stop
         style="stop-color:#000000;stop-opacity:0;"
         offset="1"
         id="stop3333" />
    </linearGradient>
    <linearGradient
       y2="-11"
       x2="11.375"
       y1="20"
       x1="11.375"
       gradientTransform="translate(1,3)"
       gradientUnits="userSpaceOnUse"
       id="linearGradient3842"
       xlink:href="#linearGradient3327"
       inkscape:collect="always" />
  </defs>
  <sodipodi:namedview
     id="base"
     pagecolor="#7e7e7e"
     bordercolor="#e40000"
     borderopacity="1"
     inkscape:pageopacity="1"
     inkscape:pageshadow="2"
     inkscape:zoom="18.602289"
     inkscape:cx="5.5402779"
     inkscape:cy="11.983355"
     inkscape:document-units="px"
     inkscape:current-layer="layer4"
     showgrid="true"
     inkscape:showpageshadow="false"
     showguides="true"
     inkscape:guide-bbox="true"
     inkscape:window-width="1920"
     inkscape:window-height="1030"
     inkscape:window-x="0"
     inkscape:window-y="25"
     inkscape:window-maximized="1"
     borderlayer="true"
     inkscape:snap-global="false">
    <sodipodi:guide
       orientation="1,0"
       position="0,112"
       id="guide2383" />
    <sodipodi:guide
       orientation="0,1"
       position="26.278146,128"
       id="guide2385" />
    <sodipodi:guide
       orientation="1,0"
       position="128,54.082119"
       id="guide2387" />
    <sodipodi:guide
       orientation="0,1"
       position="78.156291,0"
       id="guide2389" />
    <inkscape:grid
       type="xygrid"
       id="grid3672"
       visible="true"
       enabled="true"
       empspacing="8"
       snapvisiblegridlinesonly="true" />
  </sodipodi:namedview>
  <metadata
     id="metadata7">
    <rdf:RDF>
      <cc:Work
         rdf:about="">
        <dc:format>image/svg+xml</dc:format>
        <dc:type
           rdf:resource="http://purl.org/dc/dcmitype/StillImage" />
        <dc:title></dc:title>
      </cc:Work>
    </rdf:RDF>
  </metadata>
  <g
     inkscape:groupmode="layer"
     id="layer2"
     inkscape:label="Button"
     transform="translate(0,2)"
     sodipodi:insensitive="true">
    <path
       style="opacity:0.3;fill:url(#linearGradient3842);fill-opacity:1;stroke:none;display:inline"
       d="m 4.5,1.5 c -1.0969971,0 -2,0.9030029 -2,2 l 0,0.5 c -0.6114808,0.4549066 -1,1.175925 -1,2 l 0,14.5 C 1.5,21.885 2.615,23 4,23 l 16,0 c 1.385,0 2.5,-1.115 2.5,-2.5 L 22.5,6 C 22.5,5.134375 22.071045,4.3858887 21.40625,3.9375 21.160346,3.1111944 20.401594,2.5 19.5,2.5 l -7.375,0 C 11.775318,1.9321758 11.212848,1.5 10.5,1.5 l -6,0 z"
       transform="translate(0,-2)"
       id="rect3371"
       inkscape:connector-curvature="0" />
    <rect
       ry="2"
       rx="2"
       y="5"
       x="2"
       height="16"
       width="20"
       id="rect5478"
       style="opacity:0.4;fill:#000000;fill-opacity:1;fill-rule:nonzero;stroke:none" />
    <rect
       style="fill:url(#linearGradient3861);fill-opacity:1;fill-rule:nonzero;stroke:none;display:inline"
       id="rect3352"
       width="16.464474"
       height="13.759596"
       x="3.6499383"
       y="5.2580805"
       rx="1.3171579"
       ry="1.3171579" />
    <path
       inkscape:connector-curvature="0"
       style="color:#000000;fill:#c4995a;fill-opacity:1;fill-rule:nonzero;stroke:none;stroke-width:2;marker:none;visibility:visible;display:inline;overflow:visible;enable-background:accumulate"
       d="M 4.5,0 C 3.669,0 3,0.669 3,1.5 l 0,1 0,1 0,2 C 3,6.331 3.669,7 4.5,7 l 15,0 C 20.331,7 21,6.331 21,5.5 l 0,-3 C 21,1.669 20.331,1 19.5,1 L 11.90625,1 C 11.702994,0.4129833 11.157875,0 10.5,0 l -6,0 z"
       id="rect3043" />
    <path
       style="opacity:0.1;color:#000000;fill:#000000;fill-opacity:1;fill-rule:nonzero;stroke:none;stroke-width:2;marker:none;visibility:visible;display:inline;overflow:visible;enable-background:accumulate"
       d="M 4,1 C 3.648898,1 3.317465,1.0923738 3.03125,1.25 3.018314,1.3295389 3,1.4166943 3,1.5 l 0,1 0,1 0,2 C 3,6.331 3.669,7 4.5,7 l 15,0 C 20.331,7 21,6.331 21,5.5 l 0,-3 C 21,1.669 20.331,1 19.5,1 L 11.90625,1 4,1 z"
       id="path3050"
       inkscape:connector-curvature="0" />
    <rect
       style="fill:url(#linearGradient3668-3);fill-opacity:1;fill-rule:nonzero;stroke:none;display:inline"
       id="rect3660"
       width="20"
       height="17.999996"
       x="2"
       y="2"
       rx="2"
       ry="2" />
    <path
       style="opacity:0.2;fill:url(#linearGradient3078-0);fill-opacity:1;fill-rule:evenodd;stroke:none;display:inline"
       d="M 4,2 C 2.892,2 2,2.892 2,4 l 0,14 c 0,1.108 0.892,2 2,2 l 16,0 c 1.108,0 2,-0.892 2,-2 L 22,4 C 22,2.892 21.108,2 20,2 z m 0,1.03125 16,0 c 0.5497,0 0.96875,0.4190495 0.96875,0.96875 l 0,14 c 0,0.5497 -0.41905,0.96875 -0.96875,0.96875 l -16,0 C 3.4502995,18.96875 3.03125,18.5497 3.03125,18 l 0,-14 C 3.03125,3.4502995 3.4502995,3.03125 4,3.03125 z"
       id="rect3050"
       inkscape:connector-curvature="0"
       sodipodi:nodetypes="ssssssssssssssssss" />
    <path
       id="path3235"
       d="M 4,20 C 2.892,20 2,19.108 2,18 l 0,-1 c 0,1.108 0.892,2 2,2 l 16,0 c 1.108,0 2,-0.892 2,-2 l 0,1 c 0,1.108 -0.892,2 -2,2 z"
       style="opacity:0.2;fill:url(#linearGradient3845-9);fill-opacity:1;fill-rule:evenodd;stroke:none;display:inline"
       inkscape:connector-curvature="0"
       sodipodi:nodetypes="sscsscsss" />
    <rect
       style="color:#000000;fill:#bd8e48;fill-opacity:1;fill-rule:nonzero;stroke:none;stroke-width:2;marker:none;visibility:visible;display:inline;overflow:visible;enable-background:accumulate"
       id="rect3884"
       width="8"
       height="8"
       x="32"
       y="0"
       transform="translate(0,-2)" />
  </g>
  <g
     inkscape:groupmode="layer"
     id="layer4"
     inkscape:label="Symbol"
     transform="translate(0,2)">
    <path
       style="opacity:0.15;fill:#ffffff;fill-opacity:1;display:inline;overflow:visible"
       d="m 15.18775,3.90625 c -0.7686,0 -1.329966,0.4644195 -1.71875,1.0625 C 13.192496,4.9237181 12.911789,4.875 12.594,4.875 11.674649,4.8751184 10.757118,5.0951036 9.93775,5.5 9.7586158,5.588889 9.6558607,5.785009 9.56275,5.9375 9.475987,5.9384103 9.4223183,5.926003 9.37525,5.9375 9.1345465,5.996299 9.1664494,6.010508 9.12525,6.03125 9.088804,6.049599 9.078401,6.074501 8.969,6.15625 l -0.03125,0 C 8.0877428,6.8160973 7.4499889,7.7186239 7.06275,8.71875 6.97041,8.706657 6.9079984,8.625 6.81275,8.625 5.6027038,8.625 4.594,9.634301 4.594,10.84375 c 0,1.209449 1.0087048,2.21875 2.21875,2.21875 0.1098545,0 0.1753443,-0.108994 0.28125,-0.125 0.3933175,0.990099 1.00652,1.879812 1.84375,2.53125 -0.049379,-0.03856 -0.039,0.0063 0.09375,0.09375 0.080381,0.05295 0.2691424,0.03237 0.4375,0.0625 0.077469,0.158723 0.2249863,0.39409 0.4375,0.5 0.836438,0.418741 1.767102,0.625 2.6875,0.625 0.285085,0 0.528277,-0.05457 0.78125,-0.09375 0.369472,0.744815 1.002415,1.34375 1.875,1.34375 1.213368,0 2.21875,-1.010218 2.21875,-2.21875 0,-0.409693 -0.237747,-0.73028 -0.4375,-1.0625 0.815058,-0.922394 1.376051,-2.076658 1.5,-3.3125 0.01994,-0.201189 -0.07546,-0.446739 -0.15625,-0.59375 0.07516,-0.149028 0.174007,-0.372858 0.15625,-0.5625 -0.120407,-1.237079 -0.639113,-2.438423 -1.46875,-3.375 0.106668,-0.2555051 0.3125,-0.4595788 0.3125,-0.75 0,-1.1910203 -0.966162,-2.21875 -2.1875,-2.21875 z m 0,0.96875 c 0.67945,0 1.21875,0.5711075 1.21875,1.25 0,0.6788933 -0.5393,1.21875 -1.21875,1.21875 -0.67945,0 -1.21875,-0.5398567 -1.21875,-1.21875 0,-0.6788925 0.5393,-1.25 1.21875,-1.25 z M 12.594,5.84375 c 0.276143,0 0.578797,0.042416 0.875,0.09375 0.04651,0.00806 0.0625,0.046839 0.0625,0.09375 0,0.00158 9.9e-5,0.030761 0,0.03125 9.9e-5,0.9415031 0.771426,1.71875 1.71875,1.71875 0.324724,0 0.654571,-0.098535 0.9375,-0.28125 0.04002,-0.02586 0.09334,-0.0354 0.125,0 0.701667,0.780325 1.148905,1.805086 1.25,2.84375 0.0026,0.02734 -0.01286,0.04224 -0.03125,0.0625 -0.01839,0.0203 -0.06642,0.03125 -0.09375,0.03125 l -1.84375,0 c -0.0475,0 -0.1175,-0.04674 -0.125,-0.09375 -0.223236,-1.399864 -1.451211,-2.4375 -2.875,-2.4375 -0.387073,0 -0.755826,0.062686 -1.125,0.21875 -0.04376,0.018395 -0.09972,0.00887 -0.125,-0.03125 l -1,-1.5625 C 10.3295,6.508039 10.3365,6.463857 10.344,6.4375 10.3514,6.411142 10.3507,6.387197 10.37525,6.375 11.066592,6.0333684 11.835688,5.8438477 12.594,5.84375 z m -3,1.03125 c 0.012978,-0.00317 0.017827,-0.0024 0.03125,0 0.026845,0.00472 0.047946,0.039486 0.0625,0.0625 l 1,1.5625 c 0.02547,0.040422 0.0046,0.093629 -0.03125,0.125 -0.636859,0.554734 -1,1.35122 -1,2.1875 0,0.830085 0.369728,1.632959 1,2.1875 0.03588,0.03157 0.05691,0.08478 0.03125,0.125 L 9.6565,14.6875 C 9.641843,14.71041 9.620846,14.7454 9.594,14.75 9.567051,14.75472 9.55304,14.73557 9.5315,14.71875 8.7284426,14.093901 8.1072832,13.215597 7.81275,12.25 7.801144,12.211847 7.812826,12.18094 7.844,12.15625 8.2527072,11.832614 8.50025,11.323473 8.50025,10.8125 8.50025,10.301527 8.2526087,9.792385 7.844,9.46875 7.812616,9.443968 7.801144,9.413058 7.81275,9.375 8.1096438,8.401241 8.7184129,7.5324773 9.5315,6.90625 9.542172,6.897946 9.581023,6.87817 9.594,6.875 z m 3,2 c 0.953951,0 1.758161,0.696367 1.90625,1.625 0.03482,0.218245 0.137946,0.238376 0.21875,0.34375 -0.079,0.11157 -0.191946,0.116396 -0.21875,0.28125 -0.149402,0.917363 -0.962267,1.625 -1.90625,1.625 -0.294709,0 -0.553858,-0.0276 -0.78125,-0.125 -0.09816,-0.04177 -0.205735,-0.01777 -0.3125,-0.03125 -0.06222,-0.113076 -0.124529,-0.229597 -0.21875,-0.3125 -0.423552,-0.37266 -0.65625,-0.925815 -0.65625,-1.46875 0,-0.556335 0.227796,-1.095546 0.65625,-1.46875 C 11.37071,9.265794 11.439755,9.165959 11.50025,9.0625 11.618079,9.051238 11.737498,9.076017 11.844,9.03125 12.085992,8.928951 12.311333,8.875 12.594,8.875 z M 6.56275,9.59375 c 0.08198,-0.016802 0.1630796,0 0.25,0 0.6953633,0 1.25,0.55514 1.25,1.25 0,0.694861 -0.5546367,1.25 -1.25,1.25 -0.6953634,0 -1.25,-0.555139 -1.25,-1.25 0,-0.608002 0.4261401,-1.132388 1,-1.25 z m 9.03125,1.625 1.84375,0 c 0.02734,-10e-5 0.07526,0.01089 0.09375,0.03125 0.01849,0.02036 0.03395,0.03526 0.03125,0.0625 -0.111323,1.109958 -0.620992,2.167971 -1.40625,2.96875 -0.02999,0.03058 -0.08714,0.01977 -0.125,0 -0.249001,-0.129806 -0.511991,-0.1875 -0.78125,-0.1875 -0.868553,0 -1.58759,0.63707 -1.6875,1.5 -0.005,0.04239 -0.05166,0.08635 -0.09375,0.09375 -0.299844,0.05321 -0.590498,0.09375 -0.875,0.09375 -0.767064,0 -1.55325,-0.18244 -2.25,-0.53125 -0.02448,-0.0122 -0.02395,-0.03614 -0.03125,-0.0625 -0.0073,-0.02646 -0.01466,-0.07064 0,-0.09375 l 1,-1.5625 c 0.02567,-0.0398 0.08134,-0.04983 0.125,-0.03125 0.373304,0.159899 0.764654,0.21875 1.15625,0.21875 1.419856,0 2.648716,-1.04806 2.875,-2.4375 0.0076,-0.04662 0.07769,-0.0624 0.125,-0.0625 z m -0.34375,3.3125 c 0.695364,0 1.25,0.558724 1.25,1.25 0,0.691277 -0.554636,1.25 -1.25,1.25 -0.695364,0 -1.28125,-0.558723 -1.28125,-1.25 0,-0.691276 0.585886,-1.25 1.28125,-1.25 z"
       id="path3943"
       inkscape:connector-curvature="0" />
    <path
       style="fill:#bd8e48;fill-opacity:1;display:inline;overflow:visible"
       d="m 15.191446,4.8855118 c -0.67945,0 -1.229621,0.5507033 -1.229621,1.2295958 0,0.6788933 0.550171,1.2295966 1.229621,1.2295966 0.67945,0 1.229621,-0.5507033 1.229621,-1.2295966 0,-0.6788925 -0.550171,-1.2295958 -1.229621,-1.2295958 z m -2.596822,0.9630406 c -0.758312,9.77e-5 -1.527135,0.1914797 -2.218477,0.5331113 -0.02458,0.012197 -0.03992,0.033831 -0.0473,0.060189 -0.0075,0.026357 -0.0059,0.05418 0.0086,0.077391 l 0.997455,1.5778385 c 0.02528,0.040123 0.07662,0.057086 0.120382,0.038691 0.369174,-0.1560643 0.752261,-0.2321615 1.139334,-0.2321615 1.423789,0 2.665944,1.0550298 2.88918,2.4548943 0.0075,0.04701 0.04709,0.08169 0.09459,0.08169 l 1.874528,0 c 0.02733,0 0.0547,-0.0098 0.07309,-0.0301 0.01839,-0.02026 0.02836,-0.04575 0.0258,-0.07309 -0.101095,-1.0386637 -0.545151,-2.0443084 -1.246818,-2.8246335 -0.03166,-0.0354 -0.08466,-0.03876 -0.124682,-0.0129 -0.282929,0.1827146 -0.603941,0.2794535 -0.928665,0.2794535 -0.947324,0 -1.715351,-0.7696134 -1.71545,-1.7111165 9.9e-5,-4.886e-4 0,-0.03282 0,-0.034397 0,-0.046911 -0.03518,-0.090819 -0.08169,-0.098883 -0.296203,-0.051334 -0.583731,-0.085984 -0.859874,-0.085984 z M 9.5850621,6.8803813 c -0.012977,0.00317 -0.02802,0.00889 -0.038692,0.017194 C 8.733283,7.5238026 8.1235148,8.404506 7.826621,9.3782647 c -0.011606,0.038058 -0.00129,0.078401 0.030094,0.1031833 0.4086087,0.323635 0.6535047,0.821806 0.6535047,1.332779 0,0.510973 -0.2447975,1.009143 -0.6535047,1.332779 -0.031174,0.02469 -0.0417,0.06503 -0.030094,0.103183 0.2945332,0.965597 0.8994954,1.842942 1.7025528,2.467791 0.02154,0.01682 0.04614,0.02622 0.073089,0.0215 0.026846,-0.0046 0.049834,-0.02438 0.064491,-0.04729 l 1.0060532,-1.573539 c 0.02566,-0.04022 0.01869,-0.09311 -0.01719,-0.12468 -0.630272,-0.554541 -0.9931558,-1.349658 -0.9931558,-2.179743 0,-0.83628 0.3648948,-1.6336041 1.0017538,-2.1883381 0.0359,-0.031371 0.04697,-0.084257 0.0215,-0.1246792 L 9.6882518,6.9233704 c -0.014554,-0.023014 -0.037646,-0.038271 -0.064491,-0.042994 -0.013423,-0.0024 -0.025714,-0.00317 -0.038692,0 z M 6.8119667,9.580334 c -0.6953634,0 -1.2597167,0.564831 -1.2597167,1.259691 0,0.694861 0.5643533,1.255392 1.2597167,1.255392 0.6953633,0 1.2597166,-0.560531 1.2597166,-1.255392 0,-0.69486 -0.5643533,-1.259691 -1.2597166,-1.259691 z m 10.6409503,1.625131 -1.874527,0.0043 c -0.04731,9.9e-5 -0.09131,0.03507 -0.09889,0.08169 -0.226284,1.38944 -1.465024,2.437696 -2.88488,2.437696 -0.391596,0 -0.778928,-0.08086 -1.152232,-0.240759 -0.04366,-0.01858 -0.09471,-0.0054 -0.120383,0.0344 l -1.006052,1.577838 c -0.01466,0.02311 -0.01588,0.05093 -0.0086,0.07739 0.0073,0.02636 0.02281,0.04799 0.04729,0.06019 0.69675,0.34881 1.47291,0.533112 2.239974,0.533112 0.284502,0 0.581528,-0.02848 0.881372,-0.08169 0.04209,-0.0074 0.07238,-0.0393 0.07739,-0.08169 0.09991,-0.86293 0.8297,-1.513349 1.698253,-1.513349 0.269259,0 0.546383,0.06796 0.795384,0.197766 0.03786,0.01977 0.08179,0.01339 0.111783,-0.01719 0.785258,-0.800779 1.281675,-1.85655 1.392998,-2.966508 0.0027,-0.02724 -0.0073,-0.05273 -0.02579,-0.07309 -0.01849,-0.02036 -0.04575,-0.0302 -0.07309,-0.0301 z m -2.214178,3.323349 c -0.695364,0 -1.259716,0.559817 -1.259716,1.251093 0,0.691277 0.564352,1.251093 1.259716,1.251093 0.695364,0 1.259716,-0.559816 1.259716,-1.251093 0,-0.691276 -0.564352,-1.251093 -1.259716,-1.251093 z"
       id="path3324"
       inkscape:connector-curvature="0" />
    <path
       style="opacity:0.2;fill:#000000;fill-opacity:1;display:inline;overflow:visible"
       d="m 15.18775,4.875 c -0.67945,0 -1.21875,0.5711075 -1.21875,1.25 0,0.6788933 0.5393,1.21875 1.21875,1.21875 0.67945,0 1.21875,-0.5398567 1.21875,-1.21875 0,-0.6788925 -0.5393,-1.25 -1.21875,-1.25 z m 0,0.46875 c 0.414439,0 0.75,0.3528141 0.75,0.78125 0,0.4284369 -0.321059,0.75 -0.75,0.75 -0.428941,0 -0.75,-0.3215631 -0.75,-0.75 0,-0.4284359 0.335561,-0.78125 0.75,-0.78125 z m -2.59375,0.5 c -0.758312,9.77e-5 -1.527408,0.1896184 -2.21875,0.53125 -0.02458,0.012197 -0.02387,0.036142 -0.03125,0.0625 -0.0075,0.026357 -0.0145,0.070539 0,0.09375 l 1,1.5625 c 0.02528,0.040123 0.08124,0.049645 0.125,0.03125 0.369174,-0.1560643 0.737927,-0.21875 1.125,-0.21875 1.423789,0 2.651764,1.037636 2.875,2.4375 0.0075,0.04701 0.0775,0.09375 0.125,0.09375 l 1.84375,0 c 0.02733,0 0.07536,-0.01095 0.09375,-0.03125 0.01839,-0.02026 0.03381,-0.03516 0.03125,-0.0625 -0.101095,-1.038664 -0.548333,-2.063425 -1.25,-2.84375 -0.03166,-0.0354 -0.08498,-0.02586 -0.125,0 -0.282929,0.1827146 -0.612776,0.28125 -0.9375,0.28125 -0.947324,0 -1.718651,-0.7772469 -1.71875,-1.71875 9.9e-5,-4.886e-4 0,-0.029673 0,-0.03125 0,-0.046911 -0.01599,-0.085686 -0.0625,-0.09375 C 13.172797,5.886166 12.870143,5.84375 12.594,5.84375 z m 0,0.46875 c 0.154803,0 0.342506,0.035908 0.53125,0.0625 0.07754,0.5071643 0.290597,0.9489129 0.65625,1.28125 C 13.410986,7.5177484 13.007391,7.4375 12.594,7.4375 c -0.323566,0 -0.647476,0.093023 -0.96875,0.1875 l -0.625,-0.96875 C 11.517948,6.4578626 12.056813,6.3125692 12.594,6.3125 z m -3,0.5625 C 9.581023,6.87817 9.542172,6.897946 9.5315,6.90625 8.7184129,7.5324773 8.1096438,8.401241 7.81275,9.375 7.801144,9.413058 7.812616,9.443968 7.844,9.46875 c 0.4086087,0.323635 0.65625,0.832777 0.65625,1.34375 0,0.510973 -0.2475428,1.020114 -0.65625,1.34375 -0.031174,0.02469 -0.042856,0.0556 -0.03125,0.09375 0.2945332,0.965597 0.9156926,1.843901 1.71875,2.46875 0.02154,0.01682 0.035551,0.03597 0.0625,0.03125 0.026846,-0.0046 0.047843,-0.03959 0.0625,-0.0625 l 1.03125,-1.5625 c 0.02566,-0.04022 0.0046,-0.09343 -0.03125,-0.125 -0.630272,-0.554541 -1,-1.357415 -1,-2.1875 0,-0.83628 0.363141,-1.632766 1,-2.1875 0.0359,-0.031371 0.05672,-0.084578 0.03125,-0.125 l -1,-1.5625 C 9.673196,6.914486 9.652095,6.879723 9.62525,6.875 9.611827,6.8726 9.606978,6.87183 9.594,6.875 z m -0.0625,0.71875 0.625,0.9375 C 9.5632682,9.156726 9.18775,9.947445 9.18775,10.8125 c 0,0.862681 0.3797331,1.655618 0.96875,2.28125 l -0.625,0.9375 C 9.0018747,13.533008 8.5485757,12.954033 8.31275,12.28125 8.6973681,11.876522 8.969,11.37261 8.969,10.8125 8.969,10.252339 8.6973023,9.748451 8.31275,9.34375 8.5496785,8.6642 8.9996049,8.089997 9.5315,7.59375 z M 16.094,8 c 0.458337,0.568671 0.733432,1.251853 0.875,1.96875 l -1.15625,0 C 15.61083,9.207213 15.177135,8.571625 14.56275,8.125 14.783541,8.200601 15.004731,8.25 15.25025,8.25 15.549496,8.25 15.8186,8.120118 16.094,8 z M 6.56275,9.59375 c -0.5738599,0.117612 -1,0.641998 -1,1.25 0,0.694861 0.5546366,1.25 1.25,1.25 0.6953633,0 1.25,-0.555139 1.25,-1.25 0,-0.69486 -0.5546367,-1.25 -1.25,-1.25 -0.08692,0 -0.16802,-0.016802 -0.25,0 z m 0.25,0.46875 c 0.4436571,0 0.78125,0.33805 0.78125,0.78125 0,0.443201 -0.3375924,0.78125 -0.78125,0.78125 -0.4436577,0 -0.78125,-0.338049 -0.78125,-0.78125 0,-0.4432 0.3375928,-0.78125 0.78125,-0.78125 z m 8.78125,1.15625 c -0.04731,9.9e-5 -0.11742,0.01588 -0.125,0.0625 -0.226284,1.38944 -1.455144,2.4375 -2.875,2.4375 -0.391596,0 -0.782946,-0.05885 -1.15625,-0.21875 -0.04366,-0.01858 -0.09933,-0.0085 -0.125,0.03125 l -1,1.5625 c -0.01466,0.02311 -0.0073,0.06729 0,0.09375 0.0073,0.02636 0.0068,0.0503 0.03125,0.0625 0.69675,0.34881 1.482936,0.53125 2.25,0.53125 0.284502,0 0.575156,-0.04054 0.875,-0.09375 0.04209,-0.0074 0.08874,-0.05136 0.09375,-0.09375 0.09991,-0.86293 0.818947,-1.5 1.6875,-1.5 0.269259,0 0.532249,0.05769 0.78125,0.1875 0.03786,0.01977 0.09501,0.03058 0.125,0 0.785258,-0.800779 1.294927,-1.858792 1.40625,-2.96875 0.0027,-0.02724 -0.01276,-0.04214 -0.03125,-0.0625 -0.01849,-0.02036 -0.06641,-0.03135 -0.09375,-0.03125 l -1.84375,0 z m 0.21875,0.46875 1.15625,0 c -0.16249,0.776163 -0.524734,1.498622 -1.0625,2.09375 -0.217564,-0.06874 -0.435834,-0.15625 -0.65625,-0.15625 -0.996702,0 -1.816125,0.683754 -2.0625,1.625 -0.210032,0.03217 -0.41199,0.0625 -0.59375,0.0625 -0.551054,0 -1.099432,-0.141888 -1.625,-0.34375 L 11.594,14 c 0.334731,0.09739 0.673233,0.1875 1,0.1875 1.526241,0 2.816076,-1.065286 3.21875,-2.5 z m 0.3125,2.125 c 0.06312,0.0037 0.08874,0.04356 0.125,0.0625 -0.05866,-0.03058 -0.127361,-0.0068 -0.1875,-0.03125 0.01824,-0.0015 0.04944,-0.03203 0.0625,-0.03125 z m -0.875,0.71875 c -0.695364,0 -1.28125,0.558724 -1.28125,1.25 0,0.691277 0.585886,1.25 1.28125,1.25 0.695364,0 1.25,-0.558723 1.25,-1.25 0,-0.691276 -0.554636,-1.25 -1.25,-1.25 z m 0,0.46875 c 0.442033,0 0.78125,0.342939 0.78125,0.78125 0,0.438313 -0.339217,0.78125 -0.78125,0.78125 -0.442033,0 -0.8125,-0.35719 -0.8125,-0.78125 0,-0.424059 0.370467,-0.78125 0.8125,-0.78125 z"
       id="path3927"
       inkscape:connector-curvature="0" />
    <path
       style="opacity:0.2;fill:#000000;fill-opacity:1;display:inline;overflow:visible"
       d="m 15.18775,4.875 c -0.67945,0 -1.21875,0.5711075 -1.21875,1.25 0,0.1697233 0.03155,0.3216522 0.09375,0.46875 0.192373,-0.4277807 0.625212,-0.71875 1.125,-0.71875 0.499788,0 0.932627,0.2909693 1.125,0.71875 0.06219,-0.1470978 0.09375,-0.2990267 0.09375,-0.46875 0,-0.6788925 -0.5393,-1.25 -1.21875,-1.25 z M 12.594,5.84375 c -0.758312,9.77e-5 -1.527408,0.1896184 -2.21875,0.53125 -0.02458,0.012197 -0.02387,0.036142 -0.03125,0.0625 -0.0075,0.026357 -0.0145,0.070539 0,0.09375 l 0.4375,0.6875 c 0.581666,-0.2296259 1.197774,-0.3749208 1.8125,-0.375 0.276143,0 0.578797,0.042416 0.875,0.09375 0.04651,0.00806 0.0625,0.046839 0.0625,0.09375 0,0.00158 9.9e-5,0.030761 0,0.03125 4.9e-5,0.4707515 0.189565,0.9086588 0.5,1.21875 0.01265,0.00723 0.01872,0.023842 0.03125,0.03125 0.0056,0.00535 0.02555,-0.00527 0.03125,0 0.13809,0.083236 0.283671,0.177109 0.40625,0.28125 0.01191,0.00594 0.01919,0.025579 0.03125,0.03125 0.221154,0.103973 0.458236,0.15625 0.71875,0.15625 0.324724,0 0.654571,-0.098535 0.9375,-0.28125 0.04002,-0.02586 0.09334,-0.0354 0.125,0 0.497745,0.553543 0.854488,1.225834 1.0625,1.9375 l 0.0625,0 c 0.02733,0 0.07536,-0.01095 0.09375,-0.03125 0.01839,-0.02026 0.03381,-0.03516 0.03125,-0.0625 -0.09968,-1.024122 -0.534035,-2.036916 -1.21875,-2.8125 -0.169608,0.475882 -0.621769,0.8125 -1.15625,0.8125 -0.648091,0 -1.171164,-0.4895855 -1.21875,-1.125 -0.272953,-0.3033673 -0.437454,-0.7184511 -0.4375,-1.15625 9.9e-5,-4.886e-4 0,-0.029673 0,-0.03125 0,-0.046911 -0.01599,-0.085686 -0.0625,-0.09375 C 13.172797,5.886166 12.870143,5.84375 12.594,5.84375 z m -3,1.03125 C 9.581023,6.87817 9.542172,6.897946 9.5315,6.90625 8.7184129,7.5324773 8.1096438,8.401241 7.81275,9.375 7.801144,9.413058 7.812616,9.443968 7.844,9.46875 7.9234517,9.531679 7.9962747,9.612562 8.06275,9.6875 8.3977397,8.984966 8.9110212,8.384133 9.5315,7.90625 9.542172,7.897946 9.581023,7.87817 9.594,7.875 c 0.012978,-0.00317 0.017827,-0.0024 0.03125,0 0.026845,0.00472 0.047946,0.039486 0.0625,0.0625 L 10.344,8.96875 C 10.443542,8.849249 10.537291,8.728837 10.6565,8.625 10.6924,8.593629 10.71322,8.540422 10.68775,8.5 l -1,-1.5625 C 9.673196,6.914486 9.652095,6.879723 9.62525,6.875 9.611827,6.8726 9.606978,6.87183 9.594,6.875 z M 6.56275,9.59375 c -0.5738599,0.117612 -1,0.641998 -1,1.25 0,0.173715 0.029977,0.349735 0.09375,0.5 0.1913195,-0.452003 0.6347274,-0.75 1.15625,-0.75 0.5215225,0 0.9649305,0.297997 1.15625,0.75 0.063773,-0.150265 0.09375,-0.326285 0.09375,-0.5 0,-0.06548 -0.02159,-0.124696 -0.03125,-0.1875 C 7.97287,10.59336 7.9121015,10.522689 7.844,10.46875 7.812616,10.44397 7.801144,10.41306 7.81275,10.375 c 0.016183,-0.05308 0.044475,-0.103751 0.0625,-0.15625 -0.2176985,-0.377261 -0.5959112,-0.625 -1.0625,-0.625 -0.08692,0 -0.16802,-0.016802 -0.25,0 z m 1.875,1.71875 c -0.072712,0.229917 -0.212832,0.442205 -0.375,0.625 -0.014013,0.186641 -0.1007423,0.345209 -0.1875,0.5 0.057726,0.164933 0.1122142,0.341824 0.1875,0.5 0.2754245,-0.310457 0.4375,-0.713383 0.4375,-1.125 0,-0.16926 -0.011708,-0.339428 -0.0625,-0.5 z m 1.28125,0 c -0.028587,0.162897 -0.0625,0.33233 -0.0625,0.5 0,0.679743 0.2532602,1.323807 0.6875,1.84375 L 10.68775,13.125 C 10.71341,13.08478 10.69238,13.03157 10.6565,13 10.152594,12.556642 9.8322691,11.958339 9.719,11.3125 z m 5.75,0.03125 c -0.252119,1.358969 -1.476024,2.375 -2.875,2.375 -0.391596,0 -0.782946,-0.05885 -1.15625,-0.21875 -0.04366,-0.01858 -0.09933,-0.0085 -0.125,0.03125 l -1,1.5625 c -0.01466,0.02311 -0.0073,0.06729 0,0.09375 0.0073,0.02636 0.0068,0.0503 0.03125,0.0625 0.131929,0.06605 0.269228,0.102134 0.40625,0.15625 l 0.5625,-0.875 c 0.02567,-0.0398 0.08134,-0.04983 0.125,-0.03125 0.373304,0.159899 0.764654,0.21875 1.15625,0.21875 1.419856,0 2.648716,-1.04806 2.875,-2.4375 0.0076,-0.04662 0.07769,-0.0624 0.125,-0.0625 l 1.78125,0 c 0.07964,-0.265697 0.12278,-0.536178 0.15625,-0.8125 -0.01839,0.0203 -0.06642,0.03125 -0.09375,0.03125 l -1.84375,0 c -0.0475,0 -0.1175,-0.04674 -0.125,-0.09375 z m -0.21875,3.75 c -0.511826,0 -0.966296,0.231635 -1.28125,0.59375 -0.0024,0.0313 0,0.06184 0,0.09375 0,0.172819 0.02998,0.350306 0.09375,0.5 0.191319,-0.449081 0.665977,-0.75 1.1875,-0.75 0.521523,0 0.964931,0.300919 1.15625,0.75 0.06377,-0.149694 0.09375,-0.327181 0.09375,-0.5 0,-0.246555 -0.09483,-0.462576 -0.21875,-0.65625 -0.04448,0.04919 -0.07848,0.108807 -0.125,0.15625 -0.02999,0.03058 -0.08714,0.01977 -0.125,0 -0.249001,-0.129806 -0.511991,-0.1875 -0.78125,-0.1875 z"
       id="path3922"
       inkscape:connector-curvature="0" />
    <path
       style="opacity:0.15;fill:#ffffff;fill-opacity:1;display:inline;overflow:visible"
       d="m 14.06275,6.625 c -0.0622,0.1470977 -0.09375,0.3302769 -0.09375,0.5 0,0.031333 -0.0023,0.063004 0,0.09375 0.314042,0.3490355 0.774432,0.5625 1.28125,0.5625 0.324724,0 0.654571,-0.098535 0.9375,-0.28125 0.04002,-0.02586 0.09334,-0.0354 0.125,0 0.0098,0.010925 0.02153,0.020238 0.03125,0.03125 0.046,-0.1290749 0.0625,-0.2613999 0.0625,-0.40625 0,-0.1697231 -0.03155,-0.3529023 -0.09375,-0.5 -0.192191,0.4282246 -0.62489,0.71875 -1.125,0.71875 -0.50011,0 -0.932809,-0.2905254 -1.125,-0.71875 z M 10.7815,7.21875 C 10.645636,7.272385 10.506155,7.310312 10.37525,7.375 10.35067,7.387197 10.35138,7.411142 10.344,7.4375 c -0.0075,0.026357 -0.0145,0.070539 0,0.09375 l 1,1.5625 c 0.02528,0.040123 0.08124,0.049645 0.125,0.03125 0.369174,-0.156064 0.737927,-0.21875 1.125,-0.21875 1.402851,0 2.625698,1.005866 2.875,2.375 0.0076,-0.04662 0.07769,-0.0624 0.125,-0.0625 l 1.84375,0 c 0.02734,-10e-5 0.07526,0.01089 0.09375,0.03125 -0.03173,-0.269328 -0.08005,-0.551805 -0.15625,-0.8125 l -1.78125,0 c -0.0475,0 -0.1175,-0.04674 -0.125,-0.09375 C 15.359804,9.659005 15.030292,9.061609 14.5315,8.625 14.519437,8.619329 14.512157,8.599692 14.50025,8.59375 14.353743,8.520645 14.212964,8.422467 14.094,8.3125 c -0.0057,-0.00527 -0.02562,0.00535 -0.03125,0 -0.01253,-0.00741 -0.0186,-0.024024 -0.03125,-0.03125 -0.429983,-0.245681 -0.918834,-0.375 -1.4375,-0.375 -0.387073,0 -0.755826,0.062686 -1.125,0.21875 -0.04376,0.018395 -0.09972,0.00887 -0.125,-0.03125 l -0.5625,-0.875 z m -0.4375,1.75 c -0.4322472,0.518916 -0.6875,1.164007 -0.6875,1.84375 0,0.166428 0.034095,0.33804 0.0625,0.5 C 9.8329963,10.662924 10.147328,10.068513 10.6565,9.625 10.6924,9.593629 10.71322,9.540422 10.68775,9.5 L 10.344,8.96875 z M 8.06275,9.6875 c -0.080059,0.167899 -0.1271922,0.355596 -0.1875,0.53125 0.076168,0.131996 0.1321836,0.281028 0.15625,0.4375 0.1766242,0.189447 0.3292627,0.412868 0.40625,0.65625 0.050782,-0.160572 0.0625,-0.33074 0.0625,-0.5 0,-0.411617 -0.1621021,-0.814543 -0.4375,-1.125 z M 5.6565,11.34375 c -0.063773,0.150668 -0.09375,0.326285 -0.09375,0.5 0,0.694861 0.5546366,1.25 1.25,1.25 0.472847,0 0.847068,-0.271882 1.0625,-0.65625 C 7.853911,12.37653 7.831581,12.311735 7.81275,12.25 7.801144,12.21185 7.812826,12.18094 7.844,12.15625 7.923471,12.09332 7.9962682,12.012438 8.06275,11.9375 c 0.00236,-0.03146 0,-0.06168 0,-0.09375 0,-0.173715 -0.029977,-0.349332 -0.09375,-0.5 -0.1913195,0.450794 -0.6347275,0.75 -1.15625,0.75 -0.5215226,0 -0.9649305,-0.299206 -1.15625,-0.75 z m 11.71875,0.875 c -0.229853,0.76683 -0.652823,1.485387 -1.21875,2.0625 -0.02999,0.03058 -0.08714,0.01977 -0.125,0 -0.249001,-0.129806 -0.511991,-0.1875 -0.78125,-0.1875 -0.868553,0 -1.58759,0.63707 -1.6875,1.5 -0.005,0.04239 -0.05166,0.08635 -0.09375,0.09375 -0.299844,0.05321 -0.590498,0.09375 -0.875,0.09375 -0.621821,0 -1.257123,-0.143315 -1.84375,-0.375 l -0.4375,0.6875 c -0.01466,0.02311 -0.0073,0.06729 0,0.09375 0.0073,0.02636 0.0068,0.0503 0.03125,0.0625 0.69675,0.34881 1.482936,0.53125 2.25,0.53125 0.284502,0 0.575156,-0.04054 0.875,-0.09375 0.04209,-0.0074 0.08874,-0.05136 0.09375,-0.09375 0.04103,-0.354418 0.186737,-0.653867 0.40625,-0.90625 0.04881,-0.646926 0.61798,-1.15625 1.28125,-1.15625 0.447351,0 0.807727,0.244414 1.03125,0.59375 0.706218,-0.781097 1.176523,-1.768303 1.28125,-2.8125 0.0027,-0.02724 -0.01276,-0.04214 -0.03125,-0.0625 -0.01849,-0.02036 -0.06641,-0.03135 -0.09375,-0.03125 l -0.0625,0 z M 8.06275,12.9375 C 7.9962682,13.012438 7.9234708,13.093321 7.844,13.15625 7.812826,13.18094 7.801144,13.211847 7.81275,13.25 8.1072832,14.215597 8.7284426,15.093901 9.5315,15.71875 9.55304,15.73557 9.567051,15.75472 9.594,15.75 9.620846,15.7454 9.641843,15.71041 9.6565,15.6875 L 10.68775,14.125 C 10.71341,14.08478 10.69238,14.03157 10.6565,14 10.542347,13.899564 10.440043,13.771248 10.344,13.65625 L 9.6565,14.6875 C 9.641843,14.71041 9.620846,14.7454 9.594,14.75 9.567051,14.75472 9.55304,14.73557 9.5315,14.71875 8.918675,14.241919 8.3949352,13.635421 8.06275,12.9375 z m 6,3.34375 c -0.06377,0.149694 -0.09375,0.327181 -0.09375,0.5 0,0.691277 0.585886,1.25 1.28125,1.25 0.695364,0 1.25,-0.558723 1.25,-1.25 0,-0.172819 -0.02998,-0.350306 -0.09375,-0.5 -0.191319,0.449081 -0.634727,0.75 -1.15625,0.75 -0.521523,0 -0.996181,-0.300919 -1.1875,-0.75 z"
       id="path3934"
       inkscape:connector-curvature="0" />
  </g>
</svg>
