<?xml version="1.0" encoding="UTF-8" standalone="no"?>
<!-- Created with Inkscape (http://www.inkscape.org/) -->

<svg
   xmlns:dc="http://purl.org/dc/elements/1.1/"
   xmlns:cc="http://creativecommons.org/ns#"
   xmlns:rdf="http://www.w3.org/1999/02/22-rdf-syntax-ns#"
   xmlns:svg="http://www.w3.org/2000/svg"
   xmlns="http://www.w3.org/2000/svg"
   xmlns:xlink="http://www.w3.org/1999/xlink"
   xmlns:sodipodi="http://sodipodi.sourceforge.net/DTD/sodipodi-0.dtd"
   xmlns:inkscape="http://www.inkscape.org/namespaces/inkscape"
   width="24"
   height="24"
   id="svg2"
   sodipodi:version="0.32"
   inkscape:version="0.48.1 r9760"
   version="1.0"
   sodipodi:docname="folder-templates.svg"
   inkscape:output_extension="org.inkscape.output.svg.inkscape"
   style="display:inline">
  <defs
     id="defs4">
    <linearGradient
       inkscape:collect="always"
       xlink:href="#linearGradient3831-1"
       id="linearGradient3845-9"
       x1="11"
       y1="19.5"
       x2="21"
       y2="19.5"
       gradientUnits="userSpaceOnUse"
       spreadMethod="reflect"
       gradientTransform="translate(1,-1)" />
    <linearGradient
       id="linearGradient3831-1">
      <stop
         style="stop-color:#ffffff;stop-opacity:1;"
         offset="0"
         id="stop3833-2" />
      <stop
         id="stop3821-4"
         offset="0.75"
         style="stop-color:#ffffff;stop-opacity:0.49803922;" />
      <stop
         style="stop-color:#ffffff;stop-opacity:0;"
         offset="1"
         id="stop3835-9" />
    </linearGradient>
    <linearGradient
       y2="16"
       x2="10"
       y1="5"
       x1="10"
       gradientUnits="userSpaceOnUse"
       id="linearGradient3078-0"
       xlink:href="#linearGradient3823-1"
       inkscape:collect="always"
       gradientTransform="translate(1,-1)" />
    <linearGradient
       id="linearGradient3823-1">
      <stop
         id="stop3825-4"
         offset="0"
         style="stop-color:#ffffff;stop-opacity:1;" />
      <stop
         id="stop3829-4"
         offset="1"
         style="stop-color:#ffffff;stop-opacity:0;" />
    </linearGradient>
    <linearGradient
       inkscape:collect="always"
       xlink:href="#linearGradient3187-2"
       id="linearGradient3668-3"
       x1="10.871767"
       y1="24.123091"
       x2="10.871767"
       y2="6.1230297"
       gradientUnits="userSpaceOnUse"
       gradientTransform="translate(-0.7400389,-4.1230297)" />
    <linearGradient
       id="linearGradient3187-2">
      <stop
         style="stop-color:#c29656;stop-opacity:1;"
         offset="0"
         id="stop3189-5" />
      <stop
         style="stop-color:#ddbf8b;stop-opacity:1;"
         offset="1"
         id="stop3191-1" />
    </linearGradient>
    <linearGradient
       gradientUnits="userSpaceOnUse"
       y2="20.137329"
       x2="11.794092"
       y1="3.2126782"
       x1="11.794092"
       gradientTransform="scale(1.0598527,0.9435274)"
       id="linearGradient3317-6">
      <stop
         id="stop3319-8"
         offset="0"
         style="stop-color:#c6953a;stop-opacity:1" />
      <stop
         id="stop3321-0"
         offset="1"
         style="stop-color:#ab7a1f;stop-opacity:1" />
    </linearGradient>
    <linearGradient
       y2="85.821426"
       x2="48.035713"
       y1="25.910715"
       x1="48.035713"
       gradientTransform="matrix(0.2195263,0,0,0.2195263,1.3370719,0.1776143)"
       gradientUnits="userSpaceOnUse"
       id="linearGradient3861"
       xlink:href="#linearGradient3317-6"
       inkscape:collect="always" />
    <linearGradient
       inkscape:collect="always"
       id="linearGradient3327">
      <stop
         style="stop-color:#000000;stop-opacity:1;"
         offset="0"
         id="stop3330" />
      <stop
         style="stop-color:#000000;stop-opacity:0;"
         offset="1"
         id="stop3333" />
    </linearGradient>
    <linearGradient
       y2="-11"
       x2="11.375"
       y1="20"
       x1="11.375"
       gradientTransform="translate(1,3)"
       gradientUnits="userSpaceOnUse"
       id="linearGradient3842"
       xlink:href="#linearGradient3327"
       inkscape:collect="always" />
  </defs>
  <sodipodi:namedview
     id="base"
     pagecolor="#7e7e7e"
     bordercolor="#e40000"
     borderopacity="1"
     inkscape:pageopacity="1"
     inkscape:pageshadow="2"
     inkscape:zoom="18.602289"
     inkscape:cx="23.172517"
     inkscape:cy="11.822084"
     inkscape:document-units="px"
     inkscape:current-layer="layer4"
     showgrid="true"
     inkscape:showpageshadow="false"
     showguides="true"
     inkscape:guide-bbox="true"
     inkscape:window-width="1920"
     inkscape:window-height="1030"
     inkscape:window-x="0"
     inkscape:window-y="25"
     inkscape:window-maximized="1"
     borderlayer="true">
    <sodipodi:guide
       orientation="1,0"
       position="0,112"
       id="guide2383" />
    <sodipodi:guide
       orientation="0,1"
       position="26.278146,128"
       id="guide2385" />
    <sodipodi:guide
       orientation="1,0"
       position="128,54.082119"
       id="guide2387" />
    <sodipodi:guide
       orientation="0,1"
       position="78.156291,0"
       id="guide2389" />
    <inkscape:grid
       type="xygrid"
       id="grid3672"
       visible="true"
       enabled="true"
       empspacing="8"
       snapvisiblegridlinesonly="true" />
  </sodipodi:namedview>
  <metadata
     id="metadata7">
    <rdf:RDF>
      <cc:Work
         rdf:about="">
        <dc:format>image/svg+xml</dc:format>
        <dc:type
           rdf:resource="http://purl.org/dc/dcmitype/StillImage" />
        <dc:title></dc:title>
      </cc:Work>
    </rdf:RDF>
  </metadata>
  <g
     inkscape:groupmode="layer"
     id="layer2"
     inkscape:label="Button"
     transform="translate(0,2)"
     sodipodi:insensitive="true">
    <path
       style="opacity:0.3;fill:url(#linearGradient3842);fill-opacity:1;stroke:none;display:inline"
       d="m 4.5,1.5 c -1.0969971,0 -2,0.9030029 -2,2 l 0,0.5 c -0.6114808,0.4549066 -1,1.175925 -1,2 l 0,14.5 C 1.5,21.885 2.615,23 4,23 l 16,0 c 1.385,0 2.5,-1.115 2.5,-2.5 L 22.5,6 C 22.5,5.134375 22.071045,4.3858887 21.40625,3.9375 21.160346,3.1111944 20.401594,2.5 19.5,2.5 l -7.375,0 C 11.775318,1.9321758 11.212848,1.5 10.5,1.5 l -6,0 z"
       transform="translate(0,-2)"
       id="rect3371"
       inkscape:connector-curvature="0" />
    <rect
       ry="2"
       rx="2"
       y="5"
       x="2"
       height="16"
       width="20"
       id="rect5478"
       style="opacity:0.4;fill:#000000;fill-opacity:1;fill-rule:nonzero;stroke:none" />
    <rect
       style="fill:url(#linearGradient3861);fill-opacity:1;fill-rule:nonzero;stroke:none;display:inline"
       id="rect3352"
       width="16.464474"
       height="13.759596"
       x="3.6499383"
       y="5.2580805"
       rx="1.3171579"
       ry="1.3171579" />
    <path
       inkscape:connector-curvature="0"
       style="color:#000000;fill:#c4995a;fill-opacity:1;fill-rule:nonzero;stroke:none;stroke-width:2;marker:none;visibility:visible;display:inline;overflow:visible;enable-background:accumulate"
       d="M 4.5,0 C 3.669,0 3,0.669 3,1.5 l 0,1 0,1 0,2 C 3,6.331 3.669,7 4.5,7 l 15,0 C 20.331,7 21,6.331 21,5.5 l 0,-3 C 21,1.669 20.331,1 19.5,1 L 11.90625,1 C 11.702994,0.4129833 11.157875,0 10.5,0 l -6,0 z"
       id="rect3043" />
    <path
       style="opacity:0.1;color:#000000;fill:#000000;fill-opacity:1;fill-rule:nonzero;stroke:none;stroke-width:2;marker:none;visibility:visible;display:inline;overflow:visible;enable-background:accumulate"
       d="M 4,1 C 3.648898,1 3.317465,1.0923738 3.03125,1.25 3.018314,1.3295389 3,1.4166943 3,1.5 l 0,1 0,1 0,2 C 3,6.331 3.669,7 4.5,7 l 15,0 C 20.331,7 21,6.331 21,5.5 l 0,-3 C 21,1.669 20.331,1 19.5,1 L 11.90625,1 4,1 z"
       id="path3050"
       inkscape:connector-curvature="0" />
    <rect
       style="fill:url(#linearGradient3668-3);fill-opacity:1;fill-rule:nonzero;stroke:none;display:inline"
       id="rect3660"
       width="20"
       height="17.999996"
       x="2"
       y="2"
       rx="2"
       ry="2" />
    <path
       style="opacity:0.2;fill:url(#linearGradient3078-0);fill-opacity:1;fill-rule:evenodd;stroke:none;display:inline"
       d="M 4,2 C 2.892,2 2,2.892 2,4 l 0,14 c 0,1.108 0.892,2 2,2 l 16,0 c 1.108,0 2,-0.892 2,-2 L 22,4 C 22,2.892 21.108,2 20,2 z m 0,1.03125 16,0 c 0.5497,0 0.96875,0.4190495 0.96875,0.96875 l 0,14 c 0,0.5497 -0.41905,0.96875 -0.96875,0.96875 l -16,0 C 3.4502995,18.96875 3.03125,18.5497 3.03125,18 l 0,-14 C 3.03125,3.4502995 3.4502995,3.03125 4,3.03125 z"
       id="rect3050"
       inkscape:connector-curvature="0"
       sodipodi:nodetypes="ssssssssssssssssss" />
    <path
       id="path3235"
       d="M 4,20 C 2.892,20 2,19.108 2,18 l 0,-1 c 0,1.108 0.892,2 2,2 l 16,0 c 1.108,0 2,-0.892 2,-2 l 0,1 c 0,1.108 -0.892,2 -2,2 z"
       style="opacity:0.2;fill:url(#linearGradient3845-9);fill-opacity:1;fill-rule:evenodd;stroke:none;display:inline"
       inkscape:connector-curvature="0"
       sodipodi:nodetypes="sscsscsss" />
    <rect
       style="color:#000000;fill:#bd8e48;fill-opacity:1;fill-rule:nonzero;stroke:none;stroke-width:2;marker:none;visibility:visible;display:inline;overflow:visible;enable-background:accumulate"
       id="rect3884"
       width="8"
       height="8"
       x="32"
       y="0"
       transform="translate(0,-2)" />
  </g>
  <g
     inkscape:groupmode="layer"
     id="layer4"
     inkscape:label="Symbol"
     transform="translate(0,2)">
    <path
       style="opacity:0.15;fill:#ffffff;fill-opacity:1;stroke:none;display:inline"
       d="M 12,4 C 10.353111,4 9,5.3531105 9,7 9,7.377007 9.180904,7.71157 9.3125,8.0625 L 8.9375,10 8,10 a 1.0035784,1.0035784 0 0 0 -1,1 l 0,1 a 1.0035784,1.0035784 0 0 0 1,1 l 0.375,0 -0.0625,0.28125 0,0.0625 c -0.258634,1.001921 -0.373438,1.922988 -0.28125,2.71875 0.04714,0.406933 0.149905,0.786602 0.375,1.15625 C 8.631345,17.588398 9.093055,17.960322 9.625,18 a 1.0035784,1.0035784 0 0 0 1.03125,-0.75 L 11.8125,13 l 0.375,0 1.15625,4.25 A 1.0035784,1.0035784 0 0 0 15.1875,17.5 C 16.001181,16.104593 15.96249,14.530413 15.75,13 L 16,13 a 1.0035784,1.0035784 0 0 0 1,-1 l 0,-1 a 1.0035784,1.0035784 0 0 0 -1,-1 l -0.84375,0 C 14.974107,9.334844 14.813205,8.672452 14.65625,8.09375 14.803028,7.74315 15,7.407743 15,7 15,5.3531105 13.646889,4 12,4 z m 0,1 c 1.104569,0 2,0.8954307 2,2 0,0.430401 -0.143694,0.829959 -0.375,1.15625 0.232489,0.874308 0.528458,1.8484 0.78125,2.84375 L 16,11 l 0,1 -1.375,0 c 0.374502,1.799045 0.506069,3.59621 -0.3125,5 l -1.34375,-5 -1.9375,0 -1.34375,5 C 8.961903,16.94588 8.787134,15.399291 9.28125,13.53125 L 9.59375,12 8,12 8,11 9.78125,11 10.34375,8.15625 C 10.119866,7.83323 10,7.422783 10,7 10,5.8954307 10.895431,5 12,5 z m 0,1.03125 c -0.530193,0 -0.96875,0.4385566 -0.96875,0.96875 0,0.530193 0.438557,0.96875 0.96875,0.96875 0.530193,0 0.96875,-0.438557 0.96875,-0.96875 0,-0.5301934 -0.438557,-0.96875 -0.96875,-0.96875 z m 0,0.9375 c 0.02317,0 0.03125,0.00808 0.03125,0.03125 0,0.02317 -0.0081,0.03125 -0.03125,0.03125 -0.02317,0 -0.03125,-0.0081 -0.03125,-0.03125 0,-0.023168 0.0081,-0.03125 0.03125,-0.03125 z M 11.84375,9 l -0.5625,2 1.4375,0 -0.5625,-2 C 12.10449,9.004 12.052792,9 12,9 11.94721,9 11.895512,9.004 11.84375,9 z"
       id="path3763"
       inkscape:connector-curvature="0" />
    <path
       style="fill:#bd8e48;fill-opacity:1;stroke:none;display:inline"
       d="m 12,5 c -1.104569,0 -2,0.8954307 -2,2 0,0.422783 0.119866,0.83323 0.34375,1.15625 L 9.78125,11 8,11 l 0,1 1.59375,0 -0.3125,1.53125 C 8.787134,15.399291 8.961903,16.945878 9.6875,17 l 1.34375,-5 1.9375,0 1.34375,5 c 0.818569,-1.40379 0.687002,-3.200955 0.3125,-5 L 16,12 16,11 14.40625,11 C 14.153458,10.00465 13.857489,9.030558 13.625,8.15625 13.856306,7.829959 14,7.430401 14,7 14,5.8954307 13.104569,5 12,5 z m 0,1.03125 c 0.530193,0 0.96875,0.4385566 0.96875,0.96875 0,0.530193 -0.438557,0.96875 -0.96875,0.96875 C 11.469807,7.96875 11.03125,7.530193 11.03125,7 11.03125,6.4698066 11.469807,6.03125 12,6.03125 z M 11.84375,9 C 11.89551,9.004 11.947208,9 12,9 c 0.05279,0 0.104488,0.004 0.15625,0 l 0.5625,2 -1.4375,0 0.5625,-2 z"
       id="path3715"
       inkscape:connector-curvature="0" />
    <path
       style="opacity:0.2;fill:#000000;fill-opacity:1;stroke:none;display:inline"
       d="m 12,5 c -1.104569,0 -2,0.8954307 -2,2 0,0.422783 0.119866,0.83323 0.34375,1.15625 L 9.78125,11 8,11 l 0,1 1.59375,0 -0.3125,1.53125 C 8.787134,15.399291 8.961903,16.945878 9.6875,17 l 1.34375,-5 1.9375,0 1.34375,5 c 0.818569,-1.40379 0.687002,-3.200955 0.3125,-5 L 16,12 16,11 14.40625,11 C 14.153458,10.00465 13.857489,9.030558 13.625,8.15625 13.856306,7.829959 14,7.430401 14,7 14,5.8954307 13.104569,5 12,5 z m 0,0.46875 c 0.848293,0 1.53125,0.6829563 1.53125,1.53125 0,0.324857 -0.101984,0.62212 -0.28125,0.875 a 0.47424499,0.47424499 0 0 0 -0.09375,0.40625 c 0.235695,0.886366 0.532026,1.862447 0.78125,2.84375 a 0.47424499,0.47424499 0 0 0 0.46875,0.34375 l 1.125,0 0,0.0625 -0.90625,0 a 0.47424499,0.47424499 0 0 0 -0.46875,0.5625 c 0.238908,1.147674 0.361493,2.242795 0.21875,3.21875 L 13.4375,11.875 a 0.47424499,0.47424499 0 0 0 -0.46875,-0.34375 l -1.9375,0 A 0.47424499,0.47424499 0 0 0 10.5625,11.875 L 9.5,15.78125 c -0.04526,-0.536706 0.02766,-1.284425 0.25,-2.125 a 0.47424499,0.47424499 0 0 0 0,-0.03125 l 0.3125,-1.53125 a 0.47424499,0.47424499 0 0 0 -0.46875,-0.5625 l -1.125,0 0,-0.0625 1.3125,0 A 0.47424499,0.47424499 0 0 0 10.25,11.09375 L 10.8125,8.25 A 0.47424499,0.47424499 0 0 0 10.71875,7.875 C 10.556858,7.641422 10.46875,7.333154 10.46875,7 10.46875,6.1517063 11.151707,5.46875 12,5.46875 z m 0,0.09375 c -0.791686,0 -1.4375,0.6458138 -1.4375,1.4375 0,0.791686 0.645814,1.4375 1.4375,1.4375 0.791686,0 1.4375,-0.645814 1.4375,-1.4375 0,-0.7916862 -0.645814,-1.4375 -1.4375,-1.4375 z m 0,0.46875 c 0.530193,0 0.96875,0.4385566 0.96875,0.96875 0,0.530193 -0.438557,0.96875 -0.96875,0.96875 -0.530193,0 -0.96875,-0.438557 -0.96875,-0.96875 0,-0.5301934 0.438557,-0.96875 0.96875,-0.96875 z m -0.3125,2.5 A 0.47424499,0.47424499 0 0 0 11.375,8.875 l -0.5625,2 a 0.47424499,0.47424499 0 0 0 0.46875,0.59375 l 1.4375,0 A 0.47424499,0.47424499 0 0 0 13.1875,10.875 l -0.5625,-2 a 0.47424499,0.47424499 0 0 0 -0.5,-0.34375 c -0.0034,2.6e-4 -0.04826,0 -0.125,0 -0.07675,0 -0.121638,2.6e-4 -0.125,0 a 0.47424499,0.47424499 0 0 0 -0.15625,0 0.47424499,0.47424499 0 0 0 -0.03125,0 z M 11.84375,9 C 11.89551,9.004 11.947208,9 12,9 c 0.05279,0 0.104488,0.004 0.15625,0 l 0.5625,2 -1.4375,0 0.5625,-2 z"
       id="path3744"
       inkscape:connector-curvature="0" />
    <path
       style="opacity:0.2;fill:#000000;fill-opacity:1;stroke:none;display:inline"
       d="m 12,5 c -1.104569,0 -2,0.8954307 -2,2 0,0.158156 0.02978,0.317977 0.0625,0.46875 C 10.294277,6.6206362 11.078375,6 12,6 12.93198,6 13.715537,6.6373008 13.9375,7.5 13.9797,7.340771 14,7.171747 14,7 14,5.8954307 13.104569,5 12,5 z m -0.8125,2.5 c -0.09372,0.148884 -0.15625,0.313187 -0.15625,0.5 0,0.530193 0.438557,0.96875 0.96875,0.96875 0.530193,0 0.96875,-0.438557 0.96875,-0.96875 0,-0.186813 -0.06253,-0.351116 -0.15625,-0.5 C 12.640238,7.773663 12.34338,7.96875 12,7.96875 11.65662,7.96875 11.359762,7.773663 11.1875,7.5 z m 2.625,1.3125 C 13.75769,8.932842 13.700331,9.049985 13.625,9.15625 13.857489,10.030558 14.153458,11.00465 14.40625,12 L 14.625,12 16,12 16,11 14.40625,11 C 14.211958,10.234991 14.009379,9.516742 13.8125,8.8125 z M 10.21875,8.875 9.78125,11 8,11 l 0,1 1.59375,0 0.1875,0 0.5625,-2.84375 C 10.28508,9.07161 10.26285,8.970299 10.21875,8.875 z M 11.5625,11 l -0.28125,1 1.4375,0 -0.28125,-1 -0.875,0 z M 9.375,13 9.28125,13.53125 c -0.235522,0.890409 -0.305633,1.694974 -0.25,2.3125 0.04176,-0.408531 0.126471,-0.84549 0.25,-1.3125 L 9.59375,13 9.375,13 z m 5.25,0 c 0.151559,0.728064 0.224889,1.45475 0.25,2.15625 C 14.946118,14.470394 14.88885,13.73929 14.78125,13 L 14.625,13 z"
       id="path3735"
       inkscape:connector-curvature="0" />
    <path
       style="fill:#ffffff;fill-opacity:1;stroke:none;display:inline;opacity:0.15"
       d="M 12 8.03125 C 11.469807 8.03125 11.03125 8.4698066 11.03125 9 C 11.03125 9.186813 11.093782 9.3511159 11.1875 9.5 C 11.359762 9.2263369 11.65662 9.03125 12 9.03125 C 12.34338 9.03125 12.640238 9.2263369 12.8125 9.5 C 12.906218 9.3511159 12.96875 9.186813 12.96875 9 C 12.96875 8.4698066 12.530193 8.03125 12 8.03125 z M 10.0625 9.46875 C 10.016492 9.6371022 10 9.8170557 10 10 C 10 10.311997 10.094564 10.606617 10.21875 10.875 L 10.34375 10.15625 C 10.203617 9.9540663 10.117244 9.721023 10.0625 9.46875 z M 13.9375 9.5 C 13.873949 9.7398021 13.764006 9.9601617 13.625 10.15625 C 13.678802 10.35858 13.753221 10.600456 13.8125 10.8125 C 13.925983 10.563328 14 10.29023 14 10 C 14 9.827411 13.978604 9.6597591 13.9375 9.5 z M 11.84375 11 L 11.28125 13 L 11.5625 13 L 11.84375 12 C 11.89551 12.004 11.947208 12 12 12 C 12.05279 12 12.104488 12.004 12.15625 12 L 12.4375 13 L 12.71875 13 L 12.15625 11 C 12.104488 11.004 12.05279 11 12 11 C 11.947208 11 11.89551 11.004 11.84375 11 z M 8 14 L 8 15 L 9.375 15 L 9.59375 14 L 8 14 z M 11.03125 14 L 9.6875 19 C 9.3247015 18.972939 9.1038774 18.564417 9.03125 17.9375 C 8.9275966 19.112942 9.1575837 19.960474 9.6875 20 L 11.03125 15 L 12.96875 15 L 14.3125 20 C 14.780353 19.197664 14.895867 18.267498 14.875 17.28125 C 14.797969 17.897663 14.619463 18.473579 14.3125 19 L 12.96875 14 L 12.71875 14 L 11.28125 14 L 11.03125 14 z M 14.625 14 C 14.694603 14.334359 14.73297 14.668284 14.78125 15 L 16 15 L 16 14 L 14.625 14 z "
       transform="translate(0,-2)"
       id="path4293" />
  </g>
</svg>
