<?xml version="1.0" encoding="UTF-8" standalone="no"?>
<!-- Created with Inkscape (http://www.inkscape.org/) -->

<svg
   xmlns:dc="http://purl.org/dc/elements/1.1/"
   xmlns:cc="http://creativecommons.org/ns#"
   xmlns:rdf="http://www.w3.org/1999/02/22-rdf-syntax-ns#"
   xmlns:svg="http://www.w3.org/2000/svg"
   xmlns="http://www.w3.org/2000/svg"
   xmlns:xlink="http://www.w3.org/1999/xlink"
   xmlns:sodipodi="http://sodipodi.sourceforge.net/DTD/sodipodi-0.dtd"
   xmlns:inkscape="http://www.inkscape.org/namespaces/inkscape"
   width="24"
   height="24"
   id="svg2"
   sodipodi:version="0.32"
   inkscape:version="0.48.1 r9760"
   version="1.0"
   sodipodi:docname="folder-videos.svg"
   inkscape:output_extension="org.inkscape.output.svg.inkscape"
   style="display:inline">
  <defs
     id="defs4">
    <linearGradient
       inkscape:collect="always"
       xlink:href="#linearGradient3831-1"
       id="linearGradient3845-9"
       x1="11"
       y1="19.5"
       x2="21"
       y2="19.5"
       gradientUnits="userSpaceOnUse"
       spreadMethod="reflect"
       gradientTransform="translate(1,-1)" />
    <linearGradient
       id="linearGradient3831-1">
      <stop
         style="stop-color:#ffffff;stop-opacity:1;"
         offset="0"
         id="stop3833-2" />
      <stop
         id="stop3821-4"
         offset="0.75"
         style="stop-color:#ffffff;stop-opacity:0.49803922;" />
      <stop
         style="stop-color:#ffffff;stop-opacity:0;"
         offset="1"
         id="stop3835-9" />
    </linearGradient>
    <linearGradient
       y2="16"
       x2="10"
       y1="5"
       x1="10"
       gradientUnits="userSpaceOnUse"
       id="linearGradient3078-0"
       xlink:href="#linearGradient3823-1"
       inkscape:collect="always"
       gradientTransform="translate(1,-1)" />
    <linearGradient
       id="linearGradient3823-1">
      <stop
         id="stop3825-4"
         offset="0"
         style="stop-color:#ffffff;stop-opacity:1;" />
      <stop
         id="stop3829-4"
         offset="1"
         style="stop-color:#ffffff;stop-opacity:0;" />
    </linearGradient>
    <linearGradient
       inkscape:collect="always"
       xlink:href="#linearGradient3187-2"
       id="linearGradient3668-3"
       x1="10.871767"
       y1="24.123091"
       x2="10.871767"
       y2="6.1230297"
       gradientUnits="userSpaceOnUse"
       gradientTransform="translate(-0.7400389,-4.1230297)" />
    <linearGradient
       id="linearGradient3187-2">
      <stop
         style="stop-color:#c29656;stop-opacity:1;"
         offset="0"
         id="stop3189-5" />
      <stop
         style="stop-color:#ddbf8b;stop-opacity:1;"
         offset="1"
         id="stop3191-1" />
    </linearGradient>
    <linearGradient
       gradientUnits="userSpaceOnUse"
       y2="20.137329"
       x2="11.794092"
       y1="3.2126782"
       x1="11.794092"
       gradientTransform="scale(1.0598527,0.9435274)"
       id="linearGradient3317-6">
      <stop
         id="stop3319-8"
         offset="0"
         style="stop-color:#c6953a;stop-opacity:1" />
      <stop
         id="stop3321-0"
         offset="1"
         style="stop-color:#ab7a1f;stop-opacity:1" />
    </linearGradient>
    <linearGradient
       y2="85.821426"
       x2="48.035713"
       y1="25.910715"
       x1="48.035713"
       gradientTransform="matrix(0.2195263,0,0,0.2195263,1.3370719,0.1776143)"
       gradientUnits="userSpaceOnUse"
       id="linearGradient3861"
       xlink:href="#linearGradient3317-6"
       inkscape:collect="always" />
    <linearGradient
       inkscape:collect="always"
       id="linearGradient3327">
      <stop
         style="stop-color:#000000;stop-opacity:1;"
         offset="0"
         id="stop3330" />
      <stop
         style="stop-color:#000000;stop-opacity:0;"
         offset="1"
         id="stop3333" />
    </linearGradient>
    <linearGradient
       y2="-11"
       x2="11.375"
       y1="20"
       x1="11.375"
       gradientTransform="translate(1,3)"
       gradientUnits="userSpaceOnUse"
       id="linearGradient3842"
       xlink:href="#linearGradient3327"
       inkscape:collect="always" />
    <linearGradient
       gradientUnits="userSpaceOnUse"
       y2="20.137329"
       x2="11.794092"
       y1="3.2126782"
       x1="11.794092"
       gradientTransform="scale(1.0598527,0.9435274)"
       id="linearGradient3317-0">
      <stop
         id="stop3319-7"
         offset="0"
         style="stop-color:#c29556;stop-opacity:1;" />
      <stop
         id="stop3321-1"
         offset="1"
         style="stop-color:#aa7932;stop-opacity:1;" />
    </linearGradient>
  </defs>
  <sodipodi:namedview
     id="base"
     pagecolor="#7e7e7e"
     bordercolor="#e40000"
     borderopacity="1"
     inkscape:pageopacity="1"
     inkscape:pageshadow="2"
     inkscape:zoom="18.602289"
     inkscape:cx="23.172517"
     inkscape:cy="11.875841"
     inkscape:document-units="px"
     inkscape:current-layer="layer4"
     showgrid="true"
     inkscape:showpageshadow="false"
     showguides="true"
     inkscape:guide-bbox="true"
     inkscape:window-width="1920"
     inkscape:window-height="1030"
     inkscape:window-x="0"
     inkscape:window-y="25"
     inkscape:window-maximized="1"
     borderlayer="true">
    <sodipodi:guide
       orientation="1,0"
       position="0,112"
       id="guide2383" />
    <sodipodi:guide
       orientation="0,1"
       position="26.278146,128"
       id="guide2385" />
    <sodipodi:guide
       orientation="1,0"
       position="128,54.082119"
       id="guide2387" />
    <sodipodi:guide
       orientation="0,1"
       position="78.156291,0"
       id="guide2389" />
    <inkscape:grid
       type="xygrid"
       id="grid3672"
       visible="true"
       enabled="true"
       empspacing="8"
       snapvisiblegridlinesonly="true" />
  </sodipodi:namedview>
  <metadata
     id="metadata7">
    <rdf:RDF>
      <cc:Work
         rdf:about="">
        <dc:format>image/svg+xml</dc:format>
        <dc:type
           rdf:resource="http://purl.org/dc/dcmitype/StillImage" />
        <dc:title></dc:title>
      </cc:Work>
    </rdf:RDF>
  </metadata>
  <g
     inkscape:groupmode="layer"
     id="layer2"
     inkscape:label="Button"
     transform="translate(0,2)"
     sodipodi:insensitive="true">
    <path
       style="opacity:0.3;fill:url(#linearGradient3842);fill-opacity:1;stroke:none;display:inline"
       d="m 4.5,1.5 c -1.0969971,0 -2,0.9030029 -2,2 l 0,0.5 c -0.6114808,0.4549066 -1,1.175925 -1,2 l 0,14.5 C 1.5,21.885 2.615,23 4,23 l 16,0 c 1.385,0 2.5,-1.115 2.5,-2.5 L 22.5,6 C 22.5,5.134375 22.071045,4.3858887 21.40625,3.9375 21.160346,3.1111944 20.401594,2.5 19.5,2.5 l -7.375,0 C 11.775318,1.9321758 11.212848,1.5 10.5,1.5 l -6,0 z"
       transform="translate(0,-2)"
       id="rect3371"
       inkscape:connector-curvature="0" />
    <rect
       ry="2"
       rx="2"
       y="5"
       x="2"
       height="16"
       width="20"
       id="rect5478"
       style="opacity:0.4;fill:#000000;fill-opacity:1;fill-rule:nonzero;stroke:none" />
    <rect
       style="fill:url(#linearGradient3861);fill-opacity:1;fill-rule:nonzero;stroke:none;display:inline"
       id="rect3352"
       width="16.464474"
       height="13.759596"
       x="3.6499383"
       y="5.2580805"
       rx="1.3171579"
       ry="1.3171579" />
    <path
       inkscape:connector-curvature="0"
       style="color:#000000;fill:#c4995a;fill-opacity:1;fill-rule:nonzero;stroke:none;stroke-width:2;marker:none;visibility:visible;display:inline;overflow:visible;enable-background:accumulate"
       d="M 4.5,0 C 3.669,0 3,0.669 3,1.5 l 0,1 0,1 0,2 C 3,6.331 3.669,7 4.5,7 l 15,0 C 20.331,7 21,6.331 21,5.5 l 0,-3 C 21,1.669 20.331,1 19.5,1 L 11.90625,1 C 11.702994,0.4129833 11.157875,0 10.5,0 l -6,0 z"
       id="rect3043" />
    <path
       style="opacity:0.1;color:#000000;fill:#000000;fill-opacity:1;fill-rule:nonzero;stroke:none;stroke-width:2;marker:none;visibility:visible;display:inline;overflow:visible;enable-background:accumulate"
       d="M 4,1 C 3.648898,1 3.317465,1.0923738 3.03125,1.25 3.018314,1.3295389 3,1.4166943 3,1.5 l 0,1 0,1 0,2 C 3,6.331 3.669,7 4.5,7 l 15,0 C 20.331,7 21,6.331 21,5.5 l 0,-3 C 21,1.669 20.331,1 19.5,1 L 11.90625,1 4,1 z"
       id="path3050"
       inkscape:connector-curvature="0" />
    <rect
       style="fill:url(#linearGradient3668-3);fill-opacity:1;fill-rule:nonzero;stroke:none;display:inline"
       id="rect3660"
       width="20"
       height="17.999996"
       x="2"
       y="2"
       rx="2"
       ry="2" />
    <path
       style="opacity:0.2;fill:url(#linearGradient3078-0);fill-opacity:1;fill-rule:evenodd;stroke:none;display:inline"
       d="M 4,2 C 2.892,2 2,2.892 2,4 l 0,14 c 0,1.108 0.892,2 2,2 l 16,0 c 1.108,0 2,-0.892 2,-2 L 22,4 C 22,2.892 21.108,2 20,2 z m 0,1.03125 16,0 c 0.5497,0 0.96875,0.4190495 0.96875,0.96875 l 0,14 c 0,0.5497 -0.41905,0.96875 -0.96875,0.96875 l -16,0 C 3.4502995,18.96875 3.03125,18.5497 3.03125,18 l 0,-14 C 3.03125,3.4502995 3.4502995,3.03125 4,3.03125 z"
       id="rect3050"
       inkscape:connector-curvature="0"
       sodipodi:nodetypes="ssssssssssssssssss" />
    <path
       id="path3235"
       d="M 4,20 C 2.892,20 2,19.108 2,18 l 0,-1 c 0,1.108 0.892,2 2,2 l 16,0 c 1.108,0 2,-0.892 2,-2 l 0,1 c 0,1.108 -0.892,2 -2,2 z"
       style="opacity:0.2;fill:url(#linearGradient3845-9);fill-opacity:1;fill-rule:evenodd;stroke:none;display:inline"
       inkscape:connector-curvature="0"
       sodipodi:nodetypes="sscsscsss" />
    <rect
       style="color:#000000;fill:#bd8e48;fill-opacity:1;fill-rule:nonzero;stroke:none;stroke-width:2;marker:none;visibility:visible;display:inline;overflow:visible;enable-background:accumulate"
       id="rect3884"
       width="8"
       height="8"
       x="32"
       y="0"
       transform="translate(0,-2)" />
  </g>
  <g
     inkscape:groupmode="layer"
     id="layer4"
     inkscape:label="Symbol"
     transform="translate(0,2)">
    <path
       style="opacity:0.15;fill:#ffffff;fill-opacity:1;stroke:none;display:inline"
       d="M 9,5 C 6.8010906,5 5,6.8010906 5,9 c 0,1.418369 0.8570278,2.516715 1.96875,3.21875 l 0,2.8125 c 0,1.092307 0.9076934,2 2,2 l 6,0 c 0.836855,0 1.422962,-0.602528 1.71875,-1.34375 a 1.0030886,1.0030886 0 0 0 0.03125,0.03125 c -0.0077,-0.0058 0.07095,0.037 0.0625,0.03125 -0.0084,-0.0057 0.07175,0.03685 0.0625,0.03125 -0.0093,-0.0056 0.07255,0.03661 0.0625,0.03125 -0.01005,-0.0054 0.07333,0.06751 0.0625,0.0625 -0.01083,-0.005 0.07407,0.03582 0.0625,0.03125 -0.01157,-0.0046 0.105996,0.004 0.09375,0 -0.01225,-0.004 0.07534,0.03464 0.0625,0.03125 -0.01284,-0.0034 0.107084,0.03392 0.09375,0.03125 -0.01333,-0.0027 0.07621,0.0019 0.0625,0 -0.01371,-0.0019 0.107703,10e-4 0.09375,0 -0.01395,-10e-4 0.07655,0.03142 0.0625,0.03125 -0.01405,-1.72e-4 0.10776,-6.99e-4 0.09375,0 -0.01401,6.99e-4 0.107572,-0.0328 0.09375,-0.03125 -0.01382,0.0016 0.076,-0.0024 0.0625,0 -0.0135,0.0024 0.106799,-0.03436 0.09375,-0.03125 -0.0065,0.0016 0.0086,0.0061 0.03125,0 -0.0051,0.0013 0.01453,0.0048 0.03125,0 0.02508,-0.0072 0.03852,-0.03354 0.03125,-0.03125 -0.01211,0.0038 0.10523,-0.0044 0.09375,0 -0.01148,0.0044 0.07328,-0.03606 0.0625,-0.03125 -0.01078,0.0048 0.07255,-0.03642 0.0625,-0.03125 -0.01005,0.0052 0.07178,-0.06792 0.0625,-0.0625 -0.0093,0.0054 0.07101,-0.03684 0.0625,-0.03125 -0.0085,0.0056 0.07025,-0.03693 0.0625,-0.03125 -0.0077,0.0057 0.0695,-0.06818 0.0625,-0.0625 -0.007,0.0057 0.06878,-0.03687 0.0625,-0.03125 -0.0063,0.0056 0.03685,-0.03675 0.03125,-0.03125 -0.0112,0.01101 0.102466,-0.135255 0.09375,-0.125 -0.0087,0.01026 0.100352,-0.102996 0.09375,-0.09375 -0.0066,0.0092 0.06736,-0.101853 0.0625,-0.09375 -0.0049,0.0081 0.06597,-0.131927 0.0625,-0.125 -0.0035,0.0069 0.0649,-0.130792 0.0625,-0.125 -0.0024,0.0058 0.03285,-0.09851 0.03125,-0.09375 -0.0016,0.0048 0.03227,-0.128861 0.03125,-0.125 -0.001,0.0039 0.03186,-0.128135 0.03125,-0.125 -6.11e-4,0.0031 0.03159,-0.09635 0.03125,-0.09375 -3.38e-4,0.0026 1.52e-4,-0.127264 0,-0.125 -1.52e-4,0.0023 1.1e-5,-0.127139 0,-0.125 l 0,-2.75 c -4.3e-5,0.0033 -2.91e-4,-0.15981 0,-0.15625 2.91e-4,0.0036 -0.03207,-0.192084 -0.03125,-0.1875 4.11e-4,0.0023 -6.18e-4,-0.09643 0,-0.09375 6.18e-4,0.0027 -0.03214,-0.0969 -0.03125,-0.09375 8.95e-4,0.0031 -0.03251,-0.09744 -0.03125,-0.09375 0.0013,0.0037 -0.03297,-0.0668 -0.03125,-0.0625 0.0017,0.0043 -0.03355,-0.0987 -0.03125,-0.09375 0.0023,0.005 -0.06552,-0.09938 -0.0625,-0.09375 0.003,0.0056 -0.03513,-0.100077 -0.03125,-0.09375 0.0039,0.0063 -0.06741,-0.0695 -0.0625,-0.0625 0.0049,0.007 -0.0686,-0.101365 -0.0625,-0.09375 0.0061,0.0076 -0.06996,-0.07064 -0.0625,-0.0625 C 18.57,10.41435 18.49102,10.30398 18.5,10.3125 18.509,10.321 18.395604,10.24129 18.40625,10.25 18.4169,10.2587 18.30009,10.17884 18.3125,10.1875 18.32491,10.1962 18.204531,10.11668 18.21875,10.125 18.23297,10.1333 18.109003,10.05485 18.125,10.0625 18.141,10.0702 18.013597,10.0246 18.03125,10.03125 18.0489,10.03785 17.887167,9.99469 17.90625,10 17.92533,10.0053 17.761064,9.96507 17.78125,9.96875 17.864801,9.649682 18,9.344648 18,9 18,6.8010906 16.198909,5 14,5 13.033173,5 12.201911,5.4214957 11.5,6 10.798089,5.4214956 9.9668269,5 9,5 z m 0,1 c 1.035534,0 1.960878,0.5144948 2.5,1.3125 C 12.039122,6.5144948 12.964466,6 14,6 c 1.656854,0 3,1.3431458 3,3 0,0.900305 -0.403248,1.700113 -1.03125,2.25 l 0,0.90625 1.34375,-1.125 A 0.45550321,0.63989668 0 0 1 18,11.59375 l 0,2.75 a 0.45550321,0.63989668 0 0 1 -0.375,0.625 0.45550321,0.63989668 0 0 1 -0.3125,-0.0625 l -1.34375,-1.09375 0,1.21875 c 0,0.554 -0.446,1 -1,1 l -6,0 c -0.554,0 -1,-0.446 -1,-1 l 0,-3.25 C 6.8296718,11.355669 6,10.287514 6,9 6,7.3431458 7.3431458,6 9,6 z M 9,8 C 8.4477153,8 8,8.447715 8,9 8,9.541456 8.4314441,9.982916 8.96875,10 8.979496,10.000342 8.989171,10 9,10 9.5522847,10 10,9.552285 10,9 10,8.447715 9.5522847,8 9,8 z m 5,0 c -0.552285,0 -1,0.447715 -1,1 0,0.552285 0.447715,1 1,1 0.552285,0 1,-0.447715 1,-1 0,-0.552285 -0.447715,-1 -1,-1 z"
       id="path3716"
       inkscape:connector-curvature="0" />
    <path
       style="fill:#bd8e48;fill-opacity:1;stroke:none;display:inline"
       d="M 9,6 C 7.3431458,6 6,7.3431458 6,9 c 0,1.287514 0.8296718,2.355669 1.96875,2.78125 l 0,3.25 c 0,0.554 0.446,1 1,1 l 6,0 c 0.554,0 1,-0.446 1,-1 l 0,-1.21875 1.34375,1.09375 a 0.45550321,0.63989668 0 0 0 0.3125,0.0625 0.45550321,0.63989668 0 0 0 0.375,-0.625 l 0,-2.75 a 0.45550321,0.63989668 0 0 0 -0.6875,-0.5625 l -1.34375,1.125 0,-0.90625 C 16.596752,10.700113 17,9.900305 17,9 17,7.3431458 15.656854,6 14,6 12.964466,6 12.039122,6.5144948 11.5,7.3125 10.960878,6.5144948 10.035534,6 9,6 z m 0,2 c 0.5522847,0 1,0.447715 1,1 0,0.552285 -0.4477153,1 -1,1 -0.010829,0 -0.020504,3.42e-4 -0.03125,0 C 8.4314441,9.982916 8,9.541456 8,9 8,8.447715 8.4477153,8 9,8 z m 5,0 c 0.552285,0 1,0.447715 1,1 0,0.552285 -0.447715,1 -1,1 -0.552285,0 -1,-0.447715 -1,-1 0,-0.552285 0.447715,-1 1,-1 z"
       id="rect2880"
       inkscape:connector-curvature="0" />
    <path
       style="opacity:0.2;fill:#000000;fill-opacity:1;stroke:none;display:inline"
       d="M 9,6 C 7.3431458,6 6,7.3431458 6,9 c 0,1.287514 0.8296718,2.355669 1.96875,2.78125 l 0,3.25 c 0,0.554 0.446,1 1,1 l 6,0 c 0.554,0 1,-0.446 1,-1 l 0,-1.21875 1.34375,1.09375 a 0.45550321,0.63989668 0 0 0 0.3125,0.0625 0.45550321,0.63989668 0 0 0 0.375,-0.625 l 0,-2.75 a 0.45550321,0.63989668 0 0 0 -0.6875,-0.5625 l -1.34375,1.125 0,-0.90625 C 16.596752,10.700113 17,9.900305 17,9 17,7.3431458 15.656854,6 14,6 12.964466,6 12.039122,6.5144948 11.5,7.3125 10.960878,6.5144948 10.035534,6 9,6 z m 0,0.46875 c 0.8836383,0 1.670957,0.4216779 2.125,1.09375 a 0.45862999,0.45862999 0 0 0 0.75,0 C 12.329043,6.8904276 13.116361,6.46875 14,6.46875 c 1.409017,0 2.53125,1.1222331 2.53125,2.53125 0,0.763371 -0.339608,1.437453 -0.875,1.90625 A 0.45862999,0.45862999 0 0 0 15.5,11.25 l 0,0.90625 A 0.45862999,0.45862999 0 0 0 16.25,12.5 l 1.25,-1.0625 0.03125,0 c 0.008,0.01995 -0.0069,0.01095 0,0.03125 0.0059,0.0206 -0.0048,0.0104 0,0.03125 0.0038,0.02105 -0.0028,0.01004 0,0.03125 0.0017,0.02131 -7.28e-4,0.0099 0,0.03125 7.28e-4,0.02137 2.83e-4,0.0099 0,0.03125 l 0,2.75 c -1.5e-4,0.0279 0.0019,0.0034 0,0.03125 -0.0019,0.02783 0.0036,0.0036 0,0.03125 -0.0053,0.02739 0.0071,0.0042 0,0.03125 -0.0036,0.01351 0.004,0.01786 0,0.03125 C 17.52635,14.48187 17.50537,14.48704 17.5,14.5 L 16.25,13.46875 A 0.45862999,0.45862999 0 0 0 15.5,13.8125 l 0,1.21875 c 0,0.307877 -0.223373,0.53125 -0.53125,0.53125 l -6,0 c -0.3078766,0 -0.53125,-0.223373 -0.53125,-0.53125 l 0,-3.25 A 0.45862999,0.45862999 0 0 0 8.125,11.34375 C 7.1531924,10.980664 6.46875,10.090507 6.46875,9 6.46875,7.5909831 7.5909831,6.46875 9,6.46875 z m 0,1.0625 C 8.1998782,7.53125 7.53125,8.199878 7.53125,9 c 0,0.785063 0.657181,1.443939 1.4375,1.46875 0.029208,9.3e-4 0.030076,0 0.03125,0 0.8001218,0 1.46875,-0.668628 1.46875,-1.46875 C 10.46875,8.199878 9.8001218,7.53125 9,7.53125 z m 5,0 c -0.800122,0 -1.46875,0.668628 -1.46875,1.46875 0,0.800122 0.668628,1.46875 1.46875,1.46875 0.800122,0 1.46875,-0.668628 1.46875,-1.46875 C 15.46875,8.199878 14.800122,7.53125 14,7.53125 z M 9,8 c 0.5522847,0 1,0.447715 1,1 0,0.552285 -0.4477153,1 -1,1 -0.010829,0 -0.020504,3.42e-4 -0.03125,0 C 8.4314441,9.982916 8,9.541456 8,9 8,8.447715 8.4477153,8 9,8 z m 5,0 c 0.552285,0 1,0.447715 1,1 0,0.552285 -0.447715,1 -1,1 -0.552285,0 -1,-0.447715 -1,-1 0,-0.552285 0.447715,-1 1,-1 z"
       id="path3697"
       inkscape:connector-curvature="0" />
    <path
       style="fill:#000000;fill-opacity:1;stroke:none;display:inline;opacity:0.2"
       d="M 9,6 C 7.3431458,6 6,7.3431458 6,9 6,9.185232 6.0297042,9.356359 6.0625,9.53125 6.2929696,8.103416 7.507129,7 9,7 10.035534,7 10.960878,7.5144948 11.5,8.3125 12.039122,7.5144948 12.964466,7 14,7 15.492871,7 16.70703,8.103416 16.9375,9.53125 16.969183,9.358174 17,9.18259 17,9 17,7.3431458 15.656854,6 14,6 12.964466,6 12.039122,6.5144948 11.5,7.3125 10.960878,6.5144948 10.035534,6 9,6 z M 8.15625,9.5 C 8.0666305,9.649872 8,9.81268 8,10 8,10.541456 8.4314441,10.982916 8.96875,11 8.979496,11.000342 8.989171,11 9,11 9.5522847,11 10,10.552285 10,10 10,9.81268 9.9333695,9.649872 9.84375,9.5 9.6691392,9.792004 9.3649652,10 9,10 8.989171,10 8.979496,10.000342 8.96875,10 8.6207633,9.98894 8.3269817,9.778954 8.15625,9.5 z m 5,0 C 13.066631,9.649872 13,9.81268 13,10 c 0,0.552285 0.447715,1 1,1 0.552285,0 1,-0.447715 1,-1 C 15,9.81268 14.93337,9.649872 14.84375,9.5 14.669139,9.792004 14.364965,10 14,10 13.635035,10 13.330861,9.792004 13.15625,9.5 z M 17.5,10.9375 a 0.45550321,0.63989668 0 0 0 -0.1875,0.09375 l -0.90625,0.75 c -0.0087,0.01146 -0.0224,0.01992 -0.03125,0.03125 -0.119577,0.153202 -0.260064,0.309498 -0.40625,0.4375 l 0,0.90625 1.34375,-1.125 A 0.45550321,0.63989668 0 0 1 18,12.46875 l 0,-0.875 A 0.45550321,0.63989668 0 0 0 17.5,10.9375 z"
       id="path3688"
       inkscape:connector-curvature="0" />
    <path
       style="fill:#ffffff;fill-opacity:1;stroke:none;display:inline;opacity:0.15"
       d="M 9 10 C 8.4477153 10 8 10.447715 8 11 C 8 11.190781 8.0633649 11.348237 8.15625 11.5 C 8.3308608 11.207996 8.6350348 11 9 11 C 9.3649652 11 9.6691392 11.207996 9.84375 11.5 C 9.9333695 11.350128 10 11.18732 10 11 C 10 10.447715 9.5522847 10 9 10 z M 14 10 C 13.447715 10 13 10.447715 13 11 C 13 11.18732 13.066631 11.350128 13.15625 11.5 C 13.330861 11.207996 13.635035 11 14 11 C 14.364965 11 14.669139 11.207996 14.84375 11.5 C 14.933369 11.350128 15 11.18732 15 11 C 15 10.447715 14.552285 10 14 10 z M 6.0625 11.53125 C 6.0371843 11.688089 6 11.836017 6 12 C 6 13.287514 6.8296718 14.355669 7.96875 14.78125 L 7.96875 13.78125 C 6.9935486 13.416896 6.2576621 12.571996 6.0625 11.53125 z M 16.9375 11.53125 C 16.81296 12.211569 16.469388 12.811635 15.96875 13.25 L 15.96875 14.15625 L 16.375 13.8125 C 16.383846 13.801166 16.397563 13.792711 16.40625 13.78125 C 16.784602 13.282119 17 12.675229 17 12 C 17 11.836017 16.962816 11.688089 16.9375 11.53125 z M 15.96875 15.8125 L 15.96875 16.8125 L 17.3125 17.90625 A 0.45550321 0.63989668 0 0 0 17.625 17.96875 A 0.45550321 0.63989668 0 0 0 18 17.34375 L 18 16.46875 A 0.45550321 0.63989668 0 0 1 17.625 16.96875 A 0.45550321 0.63989668 0 0 1 17.3125 16.90625 L 15.96875 15.8125 z M 7.96875 17.03125 L 7.96875 18.03125 C 7.96875 18.58525 8.41475 19.03125 8.96875 19.03125 L 14.96875 19.03125 C 15.52275 19.03125 15.96875 18.58525 15.96875 18.03125 L 15.96875 17.03125 C 15.96875 17.58525 15.52275 18.03125 14.96875 18.03125 L 8.96875 18.03125 C 8.41475 18.03125 7.96875 17.58525 7.96875 17.03125 z "
       transform="translate(0,-2)"
       id="path4338" />
  </g>
</svg>
