<?xml version="1.0" encoding="UTF-8" standalone="no"?>
<!-- Created with Inkscape (http://www.inkscape.org/) -->

<svg
   xmlns:dc="http://purl.org/dc/elements/1.1/"
   xmlns:cc="http://creativecommons.org/ns#"
   xmlns:rdf="http://www.w3.org/1999/02/22-rdf-syntax-ns#"
   xmlns:svg="http://www.w3.org/2000/svg"
   xmlns="http://www.w3.org/2000/svg"
   xmlns:xlink="http://www.w3.org/1999/xlink"
   xmlns:sodipodi="http://sodipodi.sourceforge.net/DTD/sodipodi-0.dtd"
   xmlns:inkscape="http://www.inkscape.org/namespaces/inkscape"
   width="24"
   height="24"
   id="svg2"
   sodipodi:version="0.32"
   inkscape:version="0.48.1 r9760"
   version="1.0"
   sodipodi:docname="folder-wine.svg"
   inkscape:output_extension="org.inkscape.output.svg.inkscape"
   style="display:inline">
  <defs
     id="defs4">
    <linearGradient
       inkscape:collect="always"
       xlink:href="#linearGradient3831-1"
       id="linearGradient3845-9"
       x1="11"
       y1="19.5"
       x2="21"
       y2="19.5"
       gradientUnits="userSpaceOnUse"
       spreadMethod="reflect"
       gradientTransform="translate(1,-1)" />
    <linearGradient
       id="linearGradient3831-1">
      <stop
         style="stop-color:#ffffff;stop-opacity:1;"
         offset="0"
         id="stop3833-2" />
      <stop
         id="stop3821-4"
         offset="0.75"
         style="stop-color:#ffffff;stop-opacity:0.49803922;" />
      <stop
         style="stop-color:#ffffff;stop-opacity:0;"
         offset="1"
         id="stop3835-9" />
    </linearGradient>
    <linearGradient
       y2="16"
       x2="10"
       y1="5"
       x1="10"
       gradientUnits="userSpaceOnUse"
       id="linearGradient3078-0"
       xlink:href="#linearGradient3823-1"
       inkscape:collect="always"
       gradientTransform="translate(1,-1)" />
    <linearGradient
       id="linearGradient3823-1">
      <stop
         id="stop3825-4"
         offset="0"
         style="stop-color:#ffffff;stop-opacity:1;" />
      <stop
         id="stop3829-4"
         offset="1"
         style="stop-color:#ffffff;stop-opacity:0;" />
    </linearGradient>
    <linearGradient
       inkscape:collect="always"
       xlink:href="#linearGradient3187-2"
       id="linearGradient3668-3"
       x1="10.871767"
       y1="24.123091"
       x2="10.871767"
       y2="6.1230297"
       gradientUnits="userSpaceOnUse"
       gradientTransform="translate(-0.7400389,-4.1230297)" />
    <linearGradient
       id="linearGradient3187-2">
      <stop
         style="stop-color:#c29656;stop-opacity:1;"
         offset="0"
         id="stop3189-5" />
      <stop
         style="stop-color:#ddbf8b;stop-opacity:1;"
         offset="1"
         id="stop3191-1" />
    </linearGradient>
    <linearGradient
       gradientUnits="userSpaceOnUse"
       y2="20.137329"
       x2="11.794092"
       y1="3.2126782"
       x1="11.794092"
       gradientTransform="scale(1.0598527,0.9435274)"
       id="linearGradient3317-6">
      <stop
         id="stop3319-8"
         offset="0"
         style="stop-color:#c6953a;stop-opacity:1" />
      <stop
         id="stop3321-0"
         offset="1"
         style="stop-color:#ab7a1f;stop-opacity:1" />
    </linearGradient>
    <linearGradient
       y2="85.821426"
       x2="48.035713"
       y1="25.910715"
       x1="48.035713"
       gradientTransform="matrix(0.2195263,0,0,0.2195263,1.3370719,0.1776143)"
       gradientUnits="userSpaceOnUse"
       id="linearGradient3861"
       xlink:href="#linearGradient3317-6"
       inkscape:collect="always" />
    <linearGradient
       inkscape:collect="always"
       id="linearGradient3327">
      <stop
         style="stop-color:#000000;stop-opacity:1;"
         offset="0"
         id="stop3330" />
      <stop
         style="stop-color:#000000;stop-opacity:0;"
         offset="1"
         id="stop3333" />
    </linearGradient>
    <linearGradient
       y2="-11"
       x2="11.375"
       y1="20"
       x1="11.375"
       gradientTransform="translate(1,3)"
       gradientUnits="userSpaceOnUse"
       id="linearGradient3842"
       xlink:href="#linearGradient3327"
       inkscape:collect="always" />
  </defs>
  <sodipodi:namedview
     id="base"
     pagecolor="#7e7e7e"
     bordercolor="#e40000"
     borderopacity="1"
     inkscape:pageopacity="1"
     inkscape:pageshadow="2"
     inkscape:zoom="18.602289"
     inkscape:cx="14.732695"
     inkscape:cy="11.929598"
     inkscape:document-units="px"
     inkscape:current-layer="layer4"
     showgrid="true"
     inkscape:showpageshadow="false"
     showguides="true"
     inkscape:guide-bbox="true"
     inkscape:window-width="1920"
     inkscape:window-height="1030"
     inkscape:window-x="0"
     inkscape:window-y="25"
     inkscape:window-maximized="1"
     borderlayer="true">
    <sodipodi:guide
       orientation="1,0"
       position="0,112"
       id="guide2383" />
    <sodipodi:guide
       orientation="0,1"
       position="26.278146,128"
       id="guide2385" />
    <sodipodi:guide
       orientation="1,0"
       position="128,54.082119"
       id="guide2387" />
    <sodipodi:guide
       orientation="0,1"
       position="78.156291,0"
       id="guide2389" />
    <inkscape:grid
       type="xygrid"
       id="grid3672"
       visible="true"
       enabled="true"
       empspacing="8"
       snapvisiblegridlinesonly="true" />
  </sodipodi:namedview>
  <metadata
     id="metadata7">
    <rdf:RDF>
      <cc:Work
         rdf:about="">
        <dc:format>image/svg+xml</dc:format>
        <dc:type
           rdf:resource="http://purl.org/dc/dcmitype/StillImage" />
        <dc:title />
      </cc:Work>
    </rdf:RDF>
  </metadata>
  <g
     inkscape:groupmode="layer"
     id="layer2"
     inkscape:label="Button"
     transform="translate(0,2)"
     sodipodi:insensitive="true">
    <path
       style="opacity:0.3;fill:url(#linearGradient3842);fill-opacity:1;stroke:none;display:inline"
       d="m 4.5,1.5 c -1.0969971,0 -2,0.9030029 -2,2 l 0,0.5 c -0.6114808,0.4549066 -1,1.175925 -1,2 l 0,14.5 C 1.5,21.885 2.615,23 4,23 l 16,0 c 1.385,0 2.5,-1.115 2.5,-2.5 L 22.5,6 C 22.5,5.134375 22.071045,4.3858887 21.40625,3.9375 21.160346,3.1111944 20.401594,2.5 19.5,2.5 l -7.375,0 C 11.775318,1.9321758 11.212848,1.5 10.5,1.5 l -6,0 z"
       transform="translate(0,-2)"
       id="rect3371"
       inkscape:connector-curvature="0" />
    <rect
       ry="2"
       rx="2"
       y="5"
       x="2"
       height="16"
       width="20"
       id="rect5478"
       style="opacity:0.4;fill:#000000;fill-opacity:1;fill-rule:nonzero;stroke:none" />
    <rect
       style="fill:url(#linearGradient3861);fill-opacity:1;fill-rule:nonzero;stroke:none;display:inline"
       id="rect3352"
       width="16.464474"
       height="13.759596"
       x="3.6499383"
       y="5.2580805"
       rx="1.3171579"
       ry="1.3171579" />
    <path
       inkscape:connector-curvature="0"
       style="color:#000000;fill:#c4995a;fill-opacity:1;fill-rule:nonzero;stroke:none;stroke-width:2;marker:none;visibility:visible;display:inline;overflow:visible;enable-background:accumulate"
       d="M 4.5,0 C 3.669,0 3,0.669 3,1.5 l 0,1 0,1 0,2 C 3,6.331 3.669,7 4.5,7 l 15,0 C 20.331,7 21,6.331 21,5.5 l 0,-3 C 21,1.669 20.331,1 19.5,1 L 11.90625,1 C 11.702994,0.4129833 11.157875,0 10.5,0 l -6,0 z"
       id="rect3043" />
    <path
       style="opacity:0.1;color:#000000;fill:#000000;fill-opacity:1;fill-rule:nonzero;stroke:none;stroke-width:2;marker:none;visibility:visible;display:inline;overflow:visible;enable-background:accumulate"
       d="M 4,1 C 3.648898,1 3.317465,1.0923738 3.03125,1.25 3.018314,1.3295389 3,1.4166943 3,1.5 l 0,1 0,1 0,2 C 3,6.331 3.669,7 4.5,7 l 15,0 C 20.331,7 21,6.331 21,5.5 l 0,-3 C 21,1.669 20.331,1 19.5,1 L 11.90625,1 4,1 z"
       id="path3050"
       inkscape:connector-curvature="0" />
    <rect
       style="fill:url(#linearGradient3668-3);fill-opacity:1;fill-rule:nonzero;stroke:none;display:inline"
       id="rect3660"
       width="20"
       height="17.999996"
       x="2"
       y="2"
       rx="2"
       ry="2" />
    <path
       style="opacity:0.2;fill:url(#linearGradient3078-0);fill-opacity:1;fill-rule:evenodd;stroke:none;display:inline"
       d="M 4,2 C 2.892,2 2,2.892 2,4 l 0,14 c 0,1.108 0.892,2 2,2 l 16,0 c 1.108,0 2,-0.892 2,-2 L 22,4 C 22,2.892 21.108,2 20,2 z m 0,1.03125 16,0 c 0.5497,0 0.96875,0.4190495 0.96875,0.96875 l 0,14 c 0,0.5497 -0.41905,0.96875 -0.96875,0.96875 l -16,0 C 3.4502995,18.96875 3.03125,18.5497 3.03125,18 l 0,-14 C 3.03125,3.4502995 3.4502995,3.03125 4,3.03125 z"
       id="rect3050"
       inkscape:connector-curvature="0"
       sodipodi:nodetypes="ssssssssssssssssss" />
    <path
       id="path3235"
       d="M 4,20 C 2.892,20 2,19.108 2,18 l 0,-1 c 0,1.108 0.892,2 2,2 l 16,0 c 1.108,0 2,-0.892 2,-2 l 0,1 c 0,1.108 -0.892,2 -2,2 z"
       style="opacity:0.2;fill:url(#linearGradient3845-9);fill-opacity:1;fill-rule:evenodd;stroke:none;display:inline"
       inkscape:connector-curvature="0"
       sodipodi:nodetypes="sscsscsss" />
    <rect
       style="color:#000000;fill:#bd8e48;fill-opacity:1;fill-rule:nonzero;stroke:none;stroke-width:2;marker:none;visibility:visible;display:inline;overflow:visible;enable-background:accumulate"
       id="rect3884"
       width="8"
       height="8"
       x="32"
       y="0"
       transform="translate(0,-2)" />
  </g>
  <g
     inkscape:groupmode="layer"
     id="layer4"
     inkscape:label="Symbol"
     transform="translate(0,2)">
    <path
       style="fill:#bd8e48;fill-opacity:1;display:inline"
       d="M 10.718065,6.0004291 C 10.1551,6.0090461 9.4879077,6.1510744 8.6560849,6.4923667 L 7.5616025,10.24789 C 8.4434818,9.886645 9.1371173,9.721406 9.7203327,9.725956 c 0.8843493,0.0065 1.5077153,0.369281 2.0861683,0.755905 L 12.900983,6.7383355 C 12.300413,6.3353479 11.65634,5.9860651 10.718065,6.0004291 z m 2.75737,1.1338561 -1.094482,3.7615228 c 0.958265,0.644605 2.115037,1.170639 4.238851,0.227971 l 1.094482,-3.7435248 c -2.215195,0.9081868 -3.27988,0.394962 -4.238851,-0.245969 z M 9.442177,10.439866 c -0.5624843,0.01358 -1.2329362,0.159138 -2.0619804,0.497937 l -0.012093,0 -1.0823894,3.737527 c 2.2196056,-0.910464 3.2649634,-0.383663 4.2267578,0.257967 l 1.106576,-3.773522 C 11.020132,10.756349 10.379651,10.417239 9.442177,10.439866 z m 2.75737,1.085862 -1.088436,3.731528 c 0.96003,0.64583 2.021716,1.161731 4.238851,0.251968 l 1.052155,-3.641539 c -2.258946,0.766245 -3.241482,0.299499 -4.20257,-0.341957 z"
       id="path3359"
       inkscape:connector-curvature="0" />
    <path
       style="opacity:0.2;fill:#000000;fill-opacity:1;display:inline"
       d="m 10.71875,6.000001 c -0.562965,0.00862 -1.2306772,0.1587077 -2.0625,0.5 L 7.5625,10.25 C 8.4443793,9.888755 9.1355346,9.7142 9.71875,9.71875 c 0.884349,0.0065 1.515297,0.363376 2.09375,0.75 l 1.09375,-3.718749 c -0.60057,-0.4029876 -1.249225,-0.764364 -2.1875,-0.75 z m 0,0.46875 c 0.666353,-0.010201 1.157938,0.215601 1.625,0.5 L 11.53125,9.75 C 11.029686,9.471666 10.457577,9.25543 9.71875,9.25 9.2844623,9.2466 8.7951444,9.34496 8.28125,9.5 L 9.0625,6.875001 c 0.6636676,-0.2480805 1.228699,-0.3997059 1.65625,-0.40625 z m 2.75,0.65625 -1.09375,3.781249 c 0.958265,0.644605 2.126186,1.161418 4.25,0.21875 l 1.09375,-3.749999 c -2.215195,0.908187 -3.291029,0.390931 -4.25,-0.25 z M 13.75,7.843751 C 14.129936,8.052597 14.548706,8.238481 15.0625,8.3125 15.611197,8.39155 16.261095,8.26684 17,8.0625 L 16.21875,10.75 c -0.879602,0.355258 -1.562971,0.478311 -2.09375,0.40625 -0.444929,-0.06041 -0.801604,-0.290991 -1.15625,-0.5 L 13.75,7.843751 z M 9.4375,10.4375 c -0.5624843,0.01358 -1.2334558,0.161201 -2.0625,0.5 l -1.09375,3.75 c 2.2196056,-0.910464 3.2569559,-0.39163 4.21875,0.25 l 1.125,-3.78125 C 11.026084,10.752824 10.374974,10.414873 9.4375,10.4375 z m 0,0.46875 c 0.668413,-0.01613 1.164576,0.193466 1.625,0.46875 l -0.84375,2.84375 C 9.8424293,14.009837 9.4464964,13.824453 8.9375,13.75 8.3999274,13.671367 7.7259638,13.769769 7,13.96875 L 7.78125,11.3125 C 8.4431649,11.066541 9.0062159,10.916662 9.4375,10.90625 z m 2.75,0.625 L 11.125,15.25 c 0.96003,0.64583 2.001615,1.159763 4.21875,0.25 l 1.0625,-3.625 c -2.258946,0.766245 -3.257662,0.297706 -4.21875,-0.34375 z M 12.5,12.25 c 0.367266,0.199559 0.759745,0.361174 1.25,0.4375 0.544724,0.08481 1.212682,0.01951 1.96875,-0.15625 L 14.9375,15.125 c -0.921201,0.345981 -1.58239,0.449262 -2.09375,0.375 -0.425837,-0.06184 -0.778027,-0.290976 -1.125,-0.5 L 12.5,12.25 z"
       id="path3703"
       inkscape:connector-curvature="0" />
    <path
       style="fill:#ffffff;fill-opacity:1;display:inline;opacity:0.15"
       d="M 12.65625 9.59375 L 11.8125 12.46875 C 11.234047 12.082126 10.603099 11.72525 9.71875 11.71875 C 9.2136341 11.714809 8.5963289 11.857188 7.875 12.125 L 7.6875 12.84375 C 8.36576 12.596371 8.9523573 12.449213 9.4375 12.4375 C 10.374974 12.414873 11.026084 12.752824 11.625 13.15625 L 11.5625 13.3125 C 11.646883 13.36538 11.730535 13.413967 11.8125 13.46875 L 12.90625 9.75 C 12.827714 9.6973016 12.736835 9.6439185 12.65625 9.59375 z M 17.71875 10.375 C 17.606578 10.420988 17.512657 10.461133 17.40625 10.5 L 16.625 13.125 C 14.666745 13.994184 13.541407 13.600996 12.625 13.03125 L 12.4375 13.6875 C 13.328643 14.240429 14.338963 14.576233 16.40625 13.875 L 16.3125 14.25 C 16.418803 14.208403 16.513476 14.174501 16.625 14.125 L 17.71875 10.375 z M 11.375 14 L 10.5 16.9375 C 9.5869084 16.32836 8.5907158 15.833108 6.59375 16.5625 L 6.28125 17.6875 C 8.5008556 16.777036 9.5382056 17.29587 10.5 17.9375 L 11.625 14.15625 C 11.544264 14.101867 11.457873 14.051317 11.375 14 z M 16.40625 14.875 C 16.292716 14.913511 16.200995 14.936334 16.09375 14.96875 L 15.34375 17.5 C 13.314727 18.332575 12.276305 17.968572 11.375 17.40625 L 11.125 18.25 C 12.08503 18.89583 13.126615 19.409763 15.34375 18.5 L 16.40625 14.875 z "
       transform="translate(0,-2)"
       id="path4383" />
    <path
       style="fill:#000000;fill-opacity:1;display:inline;opacity:0.2"
       d="M 10.71875,6 C 10.155785,6.00862 9.488073,6.1587077 8.65625,6.5 L 7.5625,10.25 C 7.680594,10.20162 7.763547,10.1667 7.875,10.125 L 8.65625,7.5 c 0.831823,-0.3412923 1.499535,-0.49138 2.0625,-0.5 0.811792,-0.012428 1.402875,0.2600464 1.9375,0.59375 L 12.90625,6.75 C 12.30568,6.3470124 11.657025,5.985636 10.71875,6 z m 2.75,1.125 -1.09375,3.78125 c 0.0747,0.05025 0.172398,0.07694 0.25,0.125 L 13.46875,8.125 c 0.910411,0.608476 1.941533,1.103316 3.9375,0.375 l 0.3125,-1.125 c -2.215195,0.908187 -3.291029,0.390931 -4.25,-0.25 z M 9.4375,10.4375 c -0.562484,0.01358 -1.233456,0.161201 -2.0625,0.5 l -1.09375,3.75 c 0.112395,-0.0461 0.206024,-0.08606 0.3125,-0.125 L 7.375,11.9375 c 0.829044,-0.338799 1.500016,-0.48642 2.0625,-0.5 0.811099,-0.01958 1.403464,0.23337 1.9375,0.5625 l 0.25,-0.84375 C 11.026084,10.752824 10.374974,10.414873 9.4375,10.4375 z m 2.75,1.09375 L 11.125,15.25 c 0.08145,0.0548 0.166704,0.104143 0.25,0.15625 l 0.8125,-2.875 c 0.912784,0.609217 1.878215,1.0499 3.90625,0.4375 l 0.3125,-1.09375 c -2.258946,0.766245 -3.257662,0.297706 -4.21875,-0.34375 z"
       id="path4396"
       inkscape:connector-curvature="0" />
  </g>
</svg>
