<?xml version="1.0" encoding="UTF-8" standalone="no"?>
<!-- Created with Inkscape (http://www.inkscape.org/) -->

<svg
   xmlns:dc="http://purl.org/dc/elements/1.1/"
   xmlns:cc="http://creativecommons.org/ns#"
   xmlns:rdf="http://www.w3.org/1999/02/22-rdf-syntax-ns#"
   xmlns:svg="http://www.w3.org/2000/svg"
   xmlns="http://www.w3.org/2000/svg"
   xmlns:xlink="http://www.w3.org/1999/xlink"
   xmlns:sodipodi="http://sodipodi.sourceforge.net/DTD/sodipodi-0.dtd"
   xmlns:inkscape="http://www.inkscape.org/namespaces/inkscape"
   width="24"
   height="24"
   id="svg2"
   sodipodi:version="0.32"
   inkscape:version="0.48.1 r9760"
   version="1.0"
   sodipodi:docname="folder-publicshare.svg"
   inkscape:output_extension="org.inkscape.output.svg.inkscape"
   style="display:inline">
  <defs
     id="defs4">
    <linearGradient
       inkscape:collect="always"
       xlink:href="#linearGradient3831-1"
       id="linearGradient3845-9"
       x1="11"
       y1="19.5"
       x2="21"
       y2="19.5"
       gradientUnits="userSpaceOnUse"
       spreadMethod="reflect"
       gradientTransform="translate(1,-1)" />
    <linearGradient
       id="linearGradient3831-1">
      <stop
         style="stop-color:#ffffff;stop-opacity:1;"
         offset="0"
         id="stop3833-2" />
      <stop
         id="stop3821-4"
         offset="0.75"
         style="stop-color:#ffffff;stop-opacity:0.49803922;" />
      <stop
         style="stop-color:#ffffff;stop-opacity:0;"
         offset="1"
         id="stop3835-9" />
    </linearGradient>
    <linearGradient
       y2="16"
       x2="10"
       y1="5"
       x1="10"
       gradientUnits="userSpaceOnUse"
       id="linearGradient3078-0"
       xlink:href="#linearGradient3823-1"
       inkscape:collect="always"
       gradientTransform="translate(1,-1)" />
    <linearGradient
       id="linearGradient3823-1">
      <stop
         id="stop3825-4"
         offset="0"
         style="stop-color:#ffffff;stop-opacity:1;" />
      <stop
         id="stop3829-4"
         offset="1"
         style="stop-color:#ffffff;stop-opacity:0;" />
    </linearGradient>
    <linearGradient
       inkscape:collect="always"
       xlink:href="#linearGradient3187-2"
       id="linearGradient3668-3"
       x1="10.871767"
       y1="24.123091"
       x2="10.871767"
       y2="6.1230297"
       gradientUnits="userSpaceOnUse"
       gradientTransform="translate(-0.7400389,-4.1230297)" />
    <linearGradient
       id="linearGradient3187-2">
      <stop
         style="stop-color:#c29656;stop-opacity:1;"
         offset="0"
         id="stop3189-5" />
      <stop
         style="stop-color:#ddbf8b;stop-opacity:1;"
         offset="1"
         id="stop3191-1" />
    </linearGradient>
    <linearGradient
       gradientUnits="userSpaceOnUse"
       y2="20.137329"
       x2="11.794092"
       y1="3.2126782"
       x1="11.794092"
       gradientTransform="scale(1.0598527,0.9435274)"
       id="linearGradient3317-6">
      <stop
         id="stop3319-8"
         offset="0"
         style="stop-color:#c6953a;stop-opacity:1" />
      <stop
         id="stop3321-0"
         offset="1"
         style="stop-color:#ab7a1f;stop-opacity:1" />
    </linearGradient>
    <linearGradient
       y2="85.821426"
       x2="48.035713"
       y1="25.910715"
       x1="48.035713"
       gradientTransform="matrix(0.2195263,0,0,0.2195263,1.3370719,0.1776143)"
       gradientUnits="userSpaceOnUse"
       id="linearGradient3861"
       xlink:href="#linearGradient3317-6"
       inkscape:collect="always" />
    <linearGradient
       inkscape:collect="always"
       id="linearGradient3327">
      <stop
         style="stop-color:#000000;stop-opacity:1;"
         offset="0"
         id="stop3330" />
      <stop
         style="stop-color:#000000;stop-opacity:0;"
         offset="1"
         id="stop3333" />
    </linearGradient>
    <linearGradient
       y2="-11"
       x2="11.375"
       y1="20"
       x1="11.375"
       gradientTransform="translate(1,3)"
       gradientUnits="userSpaceOnUse"
       id="linearGradient3842"
       xlink:href="#linearGradient3327"
       inkscape:collect="always" />
    <linearGradient
       inkscape:collect="always"
       xlink:href="#linearGradient3699"
       id="linearGradient4419"
       gradientUnits="userSpaceOnUse"
       gradientTransform="matrix(0.20233772,0,0,0.1982564,18.677235,20.071656)"
       x1="127.99561"
       y1="272.01312"
       x2="127.99561"
       y2="39.990356" />
    <linearGradient
       id="linearGradient3699">
      <stop
         style="stop-color:#aa7932;stop-opacity:0.78431374;"
         offset="0"
         id="stop3701" />
      <stop
         style="stop-color:#aa7932;stop-opacity:0.39215687;"
         offset="1"
         id="stop3703" />
    </linearGradient>
  </defs>
  <sodipodi:namedview
     id="base"
     pagecolor="#7e7e7e"
     bordercolor="#e40000"
     borderopacity="1"
     inkscape:pageopacity="1"
     inkscape:pageshadow="2"
     inkscape:zoom="4.7064119"
     inkscape:cx="19.449431"
     inkscape:cy="18.862773"
     inkscape:document-units="px"
     inkscape:current-layer="layer4"
     showgrid="true"
     inkscape:showpageshadow="false"
     showguides="true"
     inkscape:guide-bbox="true"
     inkscape:window-width="1920"
     inkscape:window-height="1030"
     inkscape:window-x="0"
     inkscape:window-y="25"
     inkscape:window-maximized="1"
     borderlayer="true">
    <sodipodi:guide
       orientation="1,0"
       position="0,112"
       id="guide2383" />
    <sodipodi:guide
       orientation="0,1"
       position="26.278146,128"
       id="guide2385" />
    <sodipodi:guide
       orientation="1,0"
       position="128,54.082119"
       id="guide2387" />
    <sodipodi:guide
       orientation="0,1"
       position="78.156291,0"
       id="guide2389" />
    <inkscape:grid
       type="xygrid"
       id="grid3672"
       visible="true"
       enabled="true"
       empspacing="8"
       snapvisiblegridlinesonly="true" />
  </sodipodi:namedview>
  <metadata
     id="metadata7">
    <rdf:RDF>
      <cc:Work
         rdf:about="">
        <dc:format>image/svg+xml</dc:format>
        <dc:type
           rdf:resource="http://purl.org/dc/dcmitype/StillImage" />
        <dc:title />
      </cc:Work>
    </rdf:RDF>
  </metadata>
  <g
     inkscape:groupmode="layer"
     id="layer2"
     inkscape:label="Button"
     transform="translate(0,2)"
     sodipodi:insensitive="true">
    <path
       style="opacity:0.3;fill:url(#linearGradient3842);fill-opacity:1;stroke:none;display:inline"
       d="m 4.5,1.5 c -1.0969971,0 -2,0.9030029 -2,2 l 0,0.5 c -0.6114808,0.4549066 -1,1.175925 -1,2 l 0,14.5 C 1.5,21.885 2.615,23 4,23 l 16,0 c 1.385,0 2.5,-1.115 2.5,-2.5 L 22.5,6 C 22.5,5.134375 22.071045,4.3858887 21.40625,3.9375 21.160346,3.1111944 20.401594,2.5 19.5,2.5 l -7.375,0 C 11.775318,1.9321758 11.212848,1.5 10.5,1.5 l -6,0 z"
       transform="translate(0,-2)"
       id="rect3371"
       inkscape:connector-curvature="0" />
    <rect
       ry="2"
       rx="2"
       y="5"
       x="2"
       height="16"
       width="20"
       id="rect5478"
       style="opacity:0.4;fill:#000000;fill-opacity:1;fill-rule:nonzero;stroke:none" />
    <rect
       style="fill:url(#linearGradient3861);fill-opacity:1;fill-rule:nonzero;stroke:none;display:inline"
       id="rect3352"
       width="16.464474"
       height="13.759596"
       x="3.6499383"
       y="5.2580805"
       rx="1.3171579"
       ry="1.3171579" />
    <path
       inkscape:connector-curvature="0"
       style="color:#000000;fill:#c4995a;fill-opacity:1;fill-rule:nonzero;stroke:none;stroke-width:2;marker:none;visibility:visible;display:inline;overflow:visible;enable-background:accumulate"
       d="M 4.5,0 C 3.669,0 3,0.669 3,1.5 l 0,1 0,1 0,2 C 3,6.331 3.669,7 4.5,7 l 15,0 C 20.331,7 21,6.331 21,5.5 l 0,-3 C 21,1.669 20.331,1 19.5,1 L 11.90625,1 C 11.702994,0.4129833 11.157875,0 10.5,0 l -6,0 z"
       id="rect3043" />
    <path
       style="opacity:0.1;color:#000000;fill:#000000;fill-opacity:1;fill-rule:nonzero;stroke:none;stroke-width:2;marker:none;visibility:visible;display:inline;overflow:visible;enable-background:accumulate"
       d="M 4,1 C 3.648898,1 3.317465,1.0923738 3.03125,1.25 3.018314,1.3295389 3,1.4166943 3,1.5 l 0,1 0,1 0,2 C 3,6.331 3.669,7 4.5,7 l 15,0 C 20.331,7 21,6.331 21,5.5 l 0,-3 C 21,1.669 20.331,1 19.5,1 L 11.90625,1 4,1 z"
       id="path3050"
       inkscape:connector-curvature="0" />
    <rect
       style="fill:url(#linearGradient3668-3);fill-opacity:1;fill-rule:nonzero;stroke:none;display:inline"
       id="rect3660"
       width="20"
       height="17.999996"
       x="2"
       y="2"
       rx="2"
       ry="2" />
    <path
       style="opacity:0.2;fill:url(#linearGradient3078-0);fill-opacity:1;fill-rule:evenodd;stroke:none;display:inline"
       d="M 4,2 C 2.892,2 2,2.892 2,4 l 0,14 c 0,1.108 0.892,2 2,2 l 16,0 c 1.108,0 2,-0.892 2,-2 L 22,4 C 22,2.892 21.108,2 20,2 z m 0,1.03125 16,0 c 0.5497,0 0.96875,0.4190495 0.96875,0.96875 l 0,14 c 0,0.5497 -0.41905,0.96875 -0.96875,0.96875 l -16,0 C 3.4502995,18.96875 3.03125,18.5497 3.03125,18 l 0,-14 C 3.03125,3.4502995 3.4502995,3.03125 4,3.03125 z"
       id="rect3050"
       inkscape:connector-curvature="0"
       sodipodi:nodetypes="ssssssssssssssssss" />
    <path
       id="path3235"
       d="M 4,20 C 2.892,20 2,19.108 2,18 l 0,-1 c 0,1.108 0.892,2 2,2 l 16,0 c 1.108,0 2,-0.892 2,-2 l 0,1 c 0,1.108 -0.892,2 -2,2 z"
       style="opacity:0.2;fill:url(#linearGradient3845-9);fill-opacity:1;fill-rule:evenodd;stroke:none;display:inline"
       inkscape:connector-curvature="0"
       sodipodi:nodetypes="sscsscsss" />
    <rect
       style="color:#000000;fill:#bd8e48;fill-opacity:1;fill-rule:nonzero;stroke:none;stroke-width:2;marker:none;visibility:visible;display:inline;overflow:visible;enable-background:accumulate"
       id="rect3884"
       width="8"
       height="8"
       x="32"
       y="0"
       transform="translate(0,-2)" />
  </g>
  <g
     inkscape:groupmode="layer"
     id="layer4"
     inkscape:label="Symbol"
     transform="translate(0,2)">
    <path
       style="color:#000000;fill:#ffffff;fill-opacity:1;fill-rule:evenodd;stroke:none;stroke-width:1;marker:none;visibility:visible;display:inline;overflow:visible;enable-background:accumulate;opacity:0.15"
       d="M 13.6875 5.96875 C 12.98925 5.9836127 12.271161 6.1942736 11.6875 6.6875 C 10.825802 7.4156857 10.641079 8.4556865 10.59375 9 C 10.546421 9.5443135 10.609669 9.5252837 10.34375 9.75 C 10.077446 9.9750426 10.060351 9.9343317 9.5 9.90625 C 8.939649 9.8781683 7.8926119 9.8970996 7.03125 10.625 C 6.6534881 10.944231 6.3757649 11.378117 6.1875 11.84375 C 6.1819724 11.857421 6.1615636 11.86123 6.15625 11.875 C 6.1544907 11.880989 6.1592309 11.896101 6.15625 11.90625 C 6.1532691 11.916399 6.159918 11.92501 6.15625 11.9375 L 6.125 11.9375 C 6.1250037 11.937489 6.1269833 11.961028 6.125 11.96875 C 6.1126259 12.010891 6.093759 12.062452 6.09375 12.0625 C 6.0937292 12.06261 6.0937666 12.124845 6.09375 12.125 C 6.0864428 12.14902 6.0693977 12.162115 6.0625 12.1875 C 6.0139817 12.365236 6.024334 12.399053 6.03125 12.46875 C 6.0313486 12.48107 6.0305317 12.490856 6.03125 12.5 C 6.0278066 12.521604 6.0028691 12.54194 6 12.5625 C 5.9942052 12.577065 6.0026494 12.618337 6 12.625 C 5.9981601 12.629627 5.9687506 12.656243 5.96875 12.65625 C 5.9600588 12.772066 5.9592202 12.876487 5.96875 12.75 C 5.95722 12.898872 5.9652992 12.959238 5.96875 12.875 C 5.9655637 12.950862 5.9680294 12.946567 5.96875 12.90625 C 5.9663477 12.990104 5.9687253 12.961586 5.96875 12.96875 C 5.9685076 12.995433 5.968239 13.038572 5.96875 13.0625 C 5.9676956 13.007428 5.9640845 13.008519 5.96875 13.125 A 1.0440678 1.0440678 0 0 0 5.96875 13.15625 C 5.9648616 13.070008 5.9581052 13.072717 5.96875 13.21875 A 1.0440678 1.0440678 0 0 0 5.96875 13.25 C 5.9752643 13.334737 5.9854195 13.318214 6 13.375 C 6.0129041 13.477005 6.0157904 13.45887 6.03125 13.5 C 6.0385251 13.519355 6.0271734 13.555232 6.03125 13.5625 C 6.0364937 13.57291 6.0606989 13.621051 6.0625 13.625 C 6.0641364 13.695178 6.0303286 13.695129 6.0625 13.8125 C 6.0664403 13.827 6.0896616 13.829688 6.09375 13.84375 C 6.0937647 13.843907 6.0937312 13.906137 6.09375 13.90625 C 6.0937688 13.906363 6.1249769 14.093684 6.125 14.09375 A 1.0440678 1.0440678 0 0 0 6.15625 14.09375 A 1.0440678 1.0440678 0 0 0 6.15625 14.125 C 6.3425372 14.60776 6.6423992 15.046397 7.03125 15.375 C 7.8926121 16.102901 8.9396495 16.121832 9.5 16.09375 C 10.06035 16.065668 10.077446 16.024956 10.34375 16.25 C 10.609669 16.474716 10.546421 16.455686 10.59375 17 C 10.641079 17.544314 10.825802 18.584314 11.6875 19.3125 C 12.998547 20.42041 14.993186 20.254598 16.125 18.96875 C 17.257011 17.68268 17.121394 15.668595 15.8125 14.5625 C 14.954435 13.837386 13.927894 13.815634 13.375 13.84375 C 12.822106 13.871866 12.801335 13.915736 12.53125 13.6875 C 12.293932 13.486952 12.309487 13.385358 12.28125 13 C 12.309484 12.614649 12.29393 12.51305 12.53125 12.3125 C 12.801335 12.084263 12.822106 12.128134 13.375 12.15625 C 13.927894 12.184366 14.954435 12.162615 15.8125 11.4375 C 17.121435 10.331426 17.25702 8.3173306 16.125 7.03125 C 15.498203 6.3191479 14.590236 5.9495364 13.6875 5.96875 z M 13.71875 7 C 14.327009 6.987054 14.91537 7.232069 15.34375 7.71875 C 16.105317 8.583961 16.008021 9.878831 15.125 10.625 C 13.882598 11.674901 12.927166 10.584452 11.84375 11.5 C 11.296451 11.9625 11.26933 12.475907 11.21875 13 C 11.269334 13.524092 11.296451 14.0375 11.84375 14.5 C 12.927166 15.415546 13.882598 14.325099 15.125 15.375 C 16.008021 16.121206 16.105317 17.416039 15.34375 18.28125 C 14.582184 19.146461 13.258022 19.246204 12.375 18.5 C 11.132598 17.450097 12.114666 16.353048 11.03125 15.4375 C 9.947836 14.521947 8.961152 15.612402 7.71875 14.5625 C 7.442806 14.32931 7.245406 14.06203 7.125 13.75 C 7.124261 13.7479 7.125809 13.72085 7.125 13.71875 C 7.10075 13.655295 7.08021 13.59642 7.0625 13.53125 C 7.05451 13.5021 7.0692 13.46688 7.0625 13.4375 C 7.04896 13.375908 7.03905 13.31244 7.03125 13.25 C 7.02715 13.21759 7.0025 13.18877 7 13.15625 C 6.9984 13.1343 7.000991 13.11573 7 13.09375 C 6.9994 13.07877 7.000287 13.04624 7 13.03125 C 6.999374 13.00194 6.9994 12.99804 7 12.96875 C 7.000084 12.96504 6.999894 12.9412 7 12.9375 C 7.0002 12.92631 6.99953 12.91744 7 12.90625 C 7.0009 12.88428 6.9983 12.8657 7 12.84375 C 7.0022 12.81455 6.9965 12.77909 7 12.75 C 7.0003 12.7467 7.030833 12.7532 7.03125 12.75 C 7.03903 12.687557 7.04896 12.62409 7.0625 12.5625 C 7.06908 12.53329 7.0546 12.49769 7.0625 12.46875 C 7.08021 12.403574 7.10075 12.34471 7.125 12.28125 C 7.125739 12.27915 7.124191 12.252 7.125 12.25 C 7.245406 11.93797 7.442806 11.670689 7.71875 11.4375 C 8.961153 10.387598 9.947836 11.478049 11.03125 10.5625 C 12.114666 9.646952 11.132598 8.549903 12.375 7.5 C 12.761322 7.173536 13.24566 7.01007 13.71875 7 z "
       transform="translate(0,-2)"
       id="path3829" />
    <path
       inkscape:connector-curvature="0"
       style="color:#000000;fill:#bd8e48;fill-opacity:1;fill-rule:evenodd;stroke:none;stroke-width:1;marker:none;visibility:visible;display:inline;overflow:visible;enable-background:accumulate"
       d="M 13.712367,5.00058 C 13.239277,5.01065 12.7659,5.175144 12.379578,5.501608 11.137176,6.551511 12.102162,7.642334 11.018746,8.557882 9.935332,9.473431 8.97536,8.379123 7.732957,9.429025 l 0,0.0016 c -0.275944,0.233189 -0.47506,0.52194 -0.595466,0.83397 -8.09e-4,0.002 -8.61e-4,0.0044 -0.0016,0.0065 -0.02425,0.06346 -0.04497,0.127154 -0.06268,0.19233 -0.0079,0.02894 -0.01652,0.05807 -0.0231,0.08728 -7.3e-4,0.0032 -9.65e-4,0.0065 -0.0016,0.0097 -0.01354,0.06159 -0.02356,0.123423 -0.03134,0.185866 -6.8e-5,5.21e-4 6.4e-5,0.0011 0,0.0016 -4.17e-4,0.0032 -0.0013,0.0064 -0.0016,0.0097 -0.0035,0.02909 -0.006,0.05808 -0.0082,0.08728 -0.0017,0.02195 -0.004,0.04429 -0.0049,0.06626 -4.7e-4,0.01119 -0.0014,0.02275 -0.0016,0.03394 -1.06e-4,0.0037 8.4e-5,0.0076 0,0.01131 -6e-4,0.02929 -6.26e-4,0.05797 0,0.08728 2.87e-4,0.01499 0.001,0.03027 0.0016,0.04525 9.91e-4,0.02198 0.0033,0.04431 0.0049,0.06626 0.0025,0.03252 0.0058,0.06456 0.0099,0.09697 6.4e-5,5.22e-4 -6.8e-5,0.0011 0,0.0016 0.0078,0.06244 0.0178,0.124273 0.03134,0.185865 7.04e-4,0.0032 9.39e-4,0.0065 0.0016,0.0097 0.0067,0.02938 0.0151,0.05813 0.02309,0.08728 0.01771,0.06517 0.03843,0.128875 0.06268,0.19233 8.09e-4,0.0021 8.61e-4,0.0044 0.0016,0.0065 0.120406,0.31203 0.319522,0.60078 0.595466,0.83397 l 0,0.0016 c 1.242402,1.049902 2.202375,-0.04441 3.285789,0.871143 1.083416,0.915548 0.11843,2.006371 1.360832,3.056274 0.883022,0.746204 2.215767,0.648637 2.977333,-0.216574 C 16.118568,15.416598 16.02064,14.110736 15.137619,13.36453 13.895217,12.314629 12.935246,13.41055 11.85183,12.495004 11.304531,12.032504 11.280555,11.524092 11.229971,11 11.280551,10.475907 11.304531,9.967495 11.85183,9.504995 12.935246,8.589447 13.895217,9.68537 15.137619,8.635469 16.02064,7.8893 16.118568,6.583438 15.357001,5.718227 14.928621,5.231546 14.320716,4.987679 13.712457,5.000625 z"
       id="path3984-0-3-4-7" />
    <path
       style="color:#000000;fill:#000000;fill-opacity:1;fill-rule:evenodd;stroke:none;stroke-width:1;marker:none;visibility:visible;display:inline;overflow:visible;enable-background:accumulate;opacity:0.2"
       d="M 13.71875 7 C 13.24566 7.01007 12.761322 7.173536 12.375 7.5 C 11.132598 8.549903 12.114666 9.646952 11.03125 10.5625 C 9.947836 11.478049 8.961153 10.387598 7.71875 11.4375 C 7.442806 11.670689 7.245406 11.93797 7.125 12.25 C 7.124191 12.252 7.125739 12.27915 7.125 12.28125 C 7.10075 12.34471 7.08021 12.403574 7.0625 12.46875 C 7.0546 12.49769 7.06908 12.53329 7.0625 12.5625 C 7.04896 12.62409 7.03903 12.687557 7.03125 12.75 C 7.030833 12.7532 7.0003 12.7467 7 12.75 C 6.9965 12.77909 7.0022 12.81455 7 12.84375 C 6.9983 12.8657 7.0009 12.88428 7 12.90625 C 6.99953 12.91744 7.0002 12.92631 7 12.9375 C 6.999894 12.9412 7.000084 12.96504 7 12.96875 C 6.9994 12.99804 6.999374 13.00194 7 13.03125 C 7.000287 13.04624 6.9994 13.07877 7 13.09375 C 7.000991 13.11573 6.9984 13.1343 7 13.15625 C 7.0025 13.18877 7.02715 13.21759 7.03125 13.25 C 7.03905 13.31244 7.04896 13.375908 7.0625 13.4375 C 7.0692 13.46688 7.05451 13.5021 7.0625 13.53125 C 7.08021 13.59642 7.10075 13.655295 7.125 13.71875 C 7.125809 13.72085 7.124261 13.7479 7.125 13.75 C 7.245406 14.06203 7.442806 14.32931 7.71875 14.5625 C 8.961152 15.612402 9.947836 14.521947 11.03125 15.4375 C 12.114666 16.353048 11.132598 17.450097 12.375 18.5 C 13.258022 19.246204 14.582184 19.146461 15.34375 18.28125 C 16.105317 17.416039 16.008021 16.121206 15.125 15.375 C 13.882598 14.325099 12.927166 15.415546 11.84375 14.5 C 11.296451 14.0375 11.269334 13.524092 11.21875 13 C 11.26933 12.475907 11.296451 11.9625 11.84375 11.5 C 12.927166 10.584452 13.882598 11.674901 15.125 10.625 C 16.008021 9.878831 16.105317 8.583961 15.34375 7.71875 C 14.91537 7.232069 14.327009 6.987054 13.71875 7 z M 13.71875 7.5625 C 14.165132 7.5529993 14.586942 7.7309854 14.90625 8.09375 C 15.464175 8.7276045 15.398891 9.6391748 14.75 10.1875 C 14.259006 10.602418 13.985522 10.55753 13.46875 10.53125 C 12.951978 10.50497 12.159772 10.478547 11.46875 11.0625 C 10.76867 11.654109 10.705272 12.429553 10.65625 12.9375 A 0.5739352 0.5739352 0 0 0 10.65625 13.0625 C 10.705275 13.57044 10.768669 14.34589 11.46875 14.9375 C 12.159772 15.521452 12.951978 15.495029 13.46875 15.46875 C 13.985522 15.442471 14.259006 15.397582 14.75 15.8125 C 15.398914 16.360871 15.46418 17.272389 14.90625 17.90625 C 14.348213 18.540232 13.397732 18.60987 12.75 18.0625 C 12.261003 17.649268 12.262795 17.381547 12.21875 16.875 C 12.174705 16.368453 12.099562 15.585888 11.40625 15 C 10.713151 14.414288 9.9310308 14.44245 9.40625 14.46875 C 8.8814692 14.49505 8.5829319 14.538387 8.09375 14.125 C 7.8871677 13.950425 7.7406743 13.770882 7.65625 13.5625 C 7.6532685 13.555141 7.6591218 13.538692 7.65625 13.53125 C 7.6538026 13.522581 7.6562559 13.500015 7.65625 13.5 C 7.6356804 13.446176 7.6362004 13.416216 7.625 13.375 C 7.6223109 13.346403 7.6336542 13.350449 7.625 13.3125 C 7.6166027 13.274302 7.6000681 13.238077 7.59375 13.1875 C 7.5885081 13.146063 7.5703955 13.153684 7.5625 13.125 C 7.5591132 13.080944 7.5692094 13.086566 7.5625 13.0625 C 7.5641348 13.103316 7.5635244 13.084754 7.5625 13.03125 C 7.5619044 13.003366 7.5619144 12.997337 7.5625 12.96875 C 7.5682265 12.955899 7.5570816 12.949661 7.5625 12.9375 C 7.5657917 12.857146 7.5662036 12.82718 7.5625 12.875 C 7.5715637 12.854651 7.5937473 12.812521 7.59375 12.8125 C 7.6000214 12.762165 7.6165779 12.72581 7.625 12.6875 C 7.6335267 12.649648 7.6223578 12.653339 7.625 12.625 C 7.636195 12.5838 7.6356687 12.553859 7.65625 12.5 A 0.5739352 0.5739352 0 0 0 7.65625 12.46875 C 7.7404405 12.250572 7.8798735 12.055738 8.09375 11.875 C 8.5829328 11.461612 8.8814697 11.504951 9.40625 11.53125 C 9.9310303 11.557549 10.713151 11.58571 11.40625 11 C 12.099562 10.414112 12.174705 9.6315472 12.21875 9.125 C 12.262795 8.6184528 12.261003 8.3507315 12.75 7.9375 C 13.027843 7.702707 13.369433 7.5699354 13.71875 7.5625 z "
       transform="translate(0,-2)"
       id="path3813" />
    <path
       style="color:#000000;fill:#000000;fill-opacity:1;fill-rule:evenodd;stroke:none;stroke-width:1;marker:none;visibility:visible;display:inline;overflow:visible;enable-background:accumulate;opacity:0.2"
       d="M 13.71875 7 C 13.24566 7.01007 12.761322 7.173536 12.375 7.5 C 11.132598 8.549903 12.114666 9.646952 11.03125 10.5625 C 9.947836 11.478049 8.961153 10.387598 7.71875 11.4375 C 7.442806 11.670689 7.245406 11.93797 7.125 12.25 C 7.124191 12.252 7.125739 12.27915 7.125 12.28125 C 7.10075 12.34471 7.08021 12.403574 7.0625 12.46875 C 7.0546 12.49769 7.06908 12.53329 7.0625 12.5625 C 7.04896 12.62409 7.03903 12.687557 7.03125 12.75 C 7.030833 12.7532 7.0003 12.7467 7 12.75 C 6.9965 12.77909 7.0022 12.81455 7 12.84375 C 6.9983 12.8657 7.0009 12.88428 7 12.90625 C 6.99953 12.91744 7.0002 12.92631 7 12.9375 C 6.999894 12.9412 7.000084 12.96504 7 12.96875 C 6.9994 12.99804 6.999374 13.00194 7 13.03125 C 7.000287 13.04624 6.9994 13.07877 7 13.09375 C 7.000991 13.11573 6.9984 13.1343 7 13.15625 C 7.0025 13.18877 7.02715 13.21759 7.03125 13.25 C 7.03905 13.31244 7.04896 13.375908 7.0625 13.4375 C 7.078331 13.382454 7.1043875 13.335191 7.125 13.28125 C 7.125739 13.27915 7.124191 13.252 7.125 13.25 C 7.245406 12.93797 7.442806 12.670689 7.71875 12.4375 C 8.961153 11.387598 9.947836 12.478049 11.03125 11.5625 C 12.114666 10.646952 11.132598 9.549903 12.375 8.5 C 12.761322 8.173536 13.24566 8.01007 13.71875 8 C 14.327009 7.987054 14.91537 8.232069 15.34375 8.71875 C 15.558584 8.9628213 15.732789 9.239503 15.8125 9.53125 C 15.95287 8.9147335 15.797267 8.233988 15.34375 7.71875 C 14.91537 7.232069 14.327009 6.987054 13.71875 7 z M 11.3125 13.5 C 11.282221 13.667479 11.235342 13.828079 11.21875 14 C 11.269334 14.524092 11.296451 15.0375 11.84375 15.5 C 12.927166 16.415546 13.882598 15.325099 15.125 16.375 C 15.482177 16.676836 15.717154 17.049979 15.8125 17.46875 C 16.015358 16.726278 15.758926 15.910705 15.125 15.375 C 13.882598 14.325099 12.927166 15.415546 11.84375 14.5 C 11.475984 14.189216 11.374525 13.843073 11.3125 13.5 z "
       transform="translate(0,-2)"
       id="path3808" />
    <path
       style="color:#000000;fill:#ffffff;fill-opacity:1;fill-rule:evenodd;stroke:none;stroke-width:1;marker:none;visibility:visible;display:inline;overflow:visible;enable-background:accumulate;opacity:0.15"
       d="M 15.8125 9.53125 C 15.717154 9.9500159 15.482177 10.323179 15.125 10.625 C 13.882598 11.674901 12.927166 10.584452 11.84375 11.5 C 11.296451 11.9625 11.26933 12.475907 11.21875 13 C 11.235343 13.17192 11.282221 13.332521 11.3125 13.5 C 11.374525 13.156927 11.475984 12.810784 11.84375 12.5 C 12.927166 11.584452 13.882598 12.674901 15.125 11.625 C 15.758926 11.089321 16.015358 10.27372 15.8125 9.53125 z M 7.0625 13.5625 C 7.04896 13.62409 7.03903 13.687557 7.03125 13.75 C 7.030833 13.7532 7.0003 13.7467 7 13.75 C 6.9965 13.77909 7.0022 13.81455 7 13.84375 C 6.9983 13.8657 7.0009 13.88428 7 13.90625 C 6.99953 13.91744 7.0002 13.92631 7 13.9375 C 6.999894 13.9412 7.000084 13.96504 7 13.96875 C 6.9994 13.99804 6.999374 14.00194 7 14.03125 C 7.000287 14.04624 6.9994 14.07877 7 14.09375 C 7.000991 14.11573 6.9984 14.1343 7 14.15625 C 7.0025 14.18877 7.02715 14.21759 7.03125 14.25 C 7.03905 14.31244 7.04896 14.375908 7.0625 14.4375 C 7.0692 14.46688 7.05451 14.5021 7.0625 14.53125 C 7.08021 14.59642 7.10075 14.655295 7.125 14.71875 C 7.125809 14.72085 7.124261 14.7479 7.125 14.75 C 7.245406 15.06203 7.442806 15.32931 7.71875 15.5625 C 8.961152 16.612402 9.947836 15.521947 11.03125 16.4375 C 12.114666 17.353048 11.132598 18.450097 12.375 19.5 C 13.258022 20.246204 14.582184 20.146461 15.34375 19.28125 C 15.797267 18.766012 15.95287 18.085274 15.8125 17.46875 C 15.732789 17.760498 15.558584 18.037179 15.34375 18.28125 C 14.582184 19.146461 13.258022 19.246204 12.375 18.5 C 11.132598 17.450097 12.114666 16.353048 11.03125 15.4375 C 9.947836 14.521947 8.961152 15.612402 7.71875 14.5625 C 7.442806 14.32931 7.245406 14.06203 7.125 13.75 C 7.124261 13.7479 7.125809 13.72085 7.125 13.71875 C 7.1043875 13.664813 7.078331 13.617544 7.0625 13.5625 z "
       transform="translate(0,-2)"
       id="path3820" />
  </g>
</svg>
