<?xml version="1.0" encoding="UTF-8" standalone="no"?>
<!-- Created with Inkscape (http://www.inkscape.org/) -->

<svg
   xmlns:dc="http://purl.org/dc/elements/1.1/"
   xmlns:cc="http://creativecommons.org/ns#"
   xmlns:rdf="http://www.w3.org/1999/02/22-rdf-syntax-ns#"
   xmlns:svg="http://www.w3.org/2000/svg"
   xmlns="http://www.w3.org/2000/svg"
   xmlns:xlink="http://www.w3.org/1999/xlink"
   xmlns:sodipodi="http://sodipodi.sourceforge.net/DTD/sodipodi-0.dtd"
   xmlns:inkscape="http://www.inkscape.org/namespaces/inkscape"
   width="24"
   height="24"
   id="svg2"
   sodipodi:version="0.32"
   inkscape:version="0.48.1 r9760"
   version="1.0"
   sodipodi:docname="folder-music.svg"
   inkscape:output_extension="org.inkscape.output.svg.inkscape"
   style="display:inline">
  <defs
     id="defs4">
    <linearGradient
       inkscape:collect="always"
       xlink:href="#linearGradient3831-1"
       id="linearGradient3845-9"
       x1="11"
       y1="19.5"
       x2="21"
       y2="19.5"
       gradientUnits="userSpaceOnUse"
       spreadMethod="reflect"
       gradientTransform="translate(1,-1)" />
    <linearGradient
       id="linearGradient3831-1">
      <stop
         style="stop-color:#ffffff;stop-opacity:1;"
         offset="0"
         id="stop3833-2" />
      <stop
         id="stop3821-4"
         offset="0.75"
         style="stop-color:#ffffff;stop-opacity:0.49803922;" />
      <stop
         style="stop-color:#ffffff;stop-opacity:0;"
         offset="1"
         id="stop3835-9" />
    </linearGradient>
    <linearGradient
       y2="16"
       x2="10"
       y1="5"
       x1="10"
       gradientUnits="userSpaceOnUse"
       id="linearGradient3078-0"
       xlink:href="#linearGradient3823-1"
       inkscape:collect="always"
       gradientTransform="translate(1,-1)" />
    <linearGradient
       id="linearGradient3823-1">
      <stop
         id="stop3825-4"
         offset="0"
         style="stop-color:#ffffff;stop-opacity:1;" />
      <stop
         id="stop3829-4"
         offset="1"
         style="stop-color:#ffffff;stop-opacity:0;" />
    </linearGradient>
    <linearGradient
       inkscape:collect="always"
       xlink:href="#linearGradient3187-2"
       id="linearGradient3668-3"
       x1="10.871767"
       y1="24.123091"
       x2="10.871767"
       y2="6.1230297"
       gradientUnits="userSpaceOnUse"
       gradientTransform="translate(-0.7400389,-4.1230297)" />
    <linearGradient
       id="linearGradient3187-2">
      <stop
         style="stop-color:#c29656;stop-opacity:1;"
         offset="0"
         id="stop3189-5" />
      <stop
         style="stop-color:#ddbf8b;stop-opacity:1;"
         offset="1"
         id="stop3191-1" />
    </linearGradient>
    <linearGradient
       gradientUnits="userSpaceOnUse"
       y2="20.137329"
       x2="11.794092"
       y1="3.2126782"
       x1="11.794092"
       gradientTransform="scale(1.0598527,0.9435274)"
       id="linearGradient3317-6">
      <stop
         id="stop3319-8"
         offset="0"
         style="stop-color:#c6953a;stop-opacity:1" />
      <stop
         id="stop3321-0"
         offset="1"
         style="stop-color:#ab7a1f;stop-opacity:1" />
    </linearGradient>
    <linearGradient
       y2="85.821426"
       x2="48.035713"
       y1="25.910715"
       x1="48.035713"
       gradientTransform="matrix(0.2195263,0,0,0.2195263,1.3370719,0.1776143)"
       gradientUnits="userSpaceOnUse"
       id="linearGradient3861"
       xlink:href="#linearGradient3317-6"
       inkscape:collect="always" />
    <linearGradient
       inkscape:collect="always"
       id="linearGradient3327">
      <stop
         style="stop-color:#000000;stop-opacity:1;"
         offset="0"
         id="stop3330" />
      <stop
         style="stop-color:#000000;stop-opacity:0;"
         offset="1"
         id="stop3333" />
    </linearGradient>
    <linearGradient
       y2="-11"
       x2="11.375"
       y1="20"
       x1="11.375"
       gradientTransform="translate(1,3)"
       gradientUnits="userSpaceOnUse"
       id="linearGradient3842"
       xlink:href="#linearGradient3327"
       inkscape:collect="always" />
    <linearGradient
       gradientUnits="userSpaceOnUse"
       y2="20.137329"
       x2="11.794092"
       y1="3.2126782"
       x1="11.794092"
       gradientTransform="scale(1.0598527,0.9435274)"
       id="linearGradient3317-0-7">
      <stop
         id="stop3319-7-8"
         offset="0"
         style="stop-color:#c29556;stop-opacity:1;" />
      <stop
         id="stop3321-1-9"
         offset="1"
         style="stop-color:#aa7932;stop-opacity:1;" />
    </linearGradient>
    <linearGradient
       y2="75.532654"
       x2="32.661865"
       y1="32.575836"
       x1="32.661865"
       gradientTransform="matrix(0.25384827,0,0,0.24788952,-1.0915079,-0.5766772)"
       gradientUnits="userSpaceOnUse"
       id="linearGradient3900"
       xlink:href="#linearGradient3317-0"
       inkscape:collect="always" />
    <linearGradient
       gradientUnits="userSpaceOnUse"
       y2="20.137329"
       x2="11.794092"
       y1="3.2126782"
       x1="11.794092"
       gradientTransform="scale(1.0598527,0.9435274)"
       id="linearGradient3317-0">
      <stop
         id="stop3319-7"
         offset="0"
         style="stop-color:#c29556;stop-opacity:1;" />
      <stop
         id="stop3321-1"
         offset="1"
         style="stop-color:#aa7932;stop-opacity:1;" />
    </linearGradient>
  </defs>
  <sodipodi:namedview
     id="base"
     pagecolor="#7e7e7e"
     bordercolor="#e40000"
     borderopacity="1"
     inkscape:pageopacity="1"
     inkscape:pageshadow="2"
     inkscape:zoom="18.602289"
     inkscape:cx="23.172517"
     inkscape:cy="11.875841"
     inkscape:document-units="px"
     inkscape:current-layer="layer4"
     showgrid="true"
     inkscape:showpageshadow="false"
     showguides="true"
     inkscape:guide-bbox="true"
     inkscape:window-width="1920"
     inkscape:window-height="1030"
     inkscape:window-x="0"
     inkscape:window-y="25"
     inkscape:window-maximized="1"
     borderlayer="true">
    <sodipodi:guide
       orientation="1,0"
       position="0,112"
       id="guide2383" />
    <sodipodi:guide
       orientation="0,1"
       position="26.278146,128"
       id="guide2385" />
    <sodipodi:guide
       orientation="1,0"
       position="128,54.082119"
       id="guide2387" />
    <sodipodi:guide
       orientation="0,1"
       position="78.156291,0"
       id="guide2389" />
    <inkscape:grid
       type="xygrid"
       id="grid3672"
       visible="true"
       enabled="true"
       empspacing="8"
       snapvisiblegridlinesonly="true" />
  </sodipodi:namedview>
  <metadata
     id="metadata7">
    <rdf:RDF>
      <cc:Work
         rdf:about="">
        <dc:format>image/svg+xml</dc:format>
        <dc:type
           rdf:resource="http://purl.org/dc/dcmitype/StillImage" />
        <dc:title></dc:title>
      </cc:Work>
    </rdf:RDF>
  </metadata>
  <g
     inkscape:groupmode="layer"
     id="layer2"
     inkscape:label="Button"
     transform="translate(0,2)"
     sodipodi:insensitive="true">
    <path
       style="opacity:0.3;fill:url(#linearGradient3842);fill-opacity:1;stroke:none;display:inline"
       d="m 4.5,1.5 c -1.0969971,0 -2,0.9030029 -2,2 l 0,0.5 c -0.6114808,0.4549066 -1,1.175925 -1,2 l 0,14.5 C 1.5,21.885 2.615,23 4,23 l 16,0 c 1.385,0 2.5,-1.115 2.5,-2.5 L 22.5,6 C 22.5,5.134375 22.071045,4.3858887 21.40625,3.9375 21.160346,3.1111944 20.401594,2.5 19.5,2.5 l -7.375,0 C 11.775318,1.9321758 11.212848,1.5 10.5,1.5 l -6,0 z"
       transform="translate(0,-2)"
       id="rect3371"
       inkscape:connector-curvature="0" />
    <rect
       ry="2"
       rx="2"
       y="5"
       x="2"
       height="16"
       width="20"
       id="rect5478"
       style="opacity:0.4;fill:#000000;fill-opacity:1;fill-rule:nonzero;stroke:none" />
    <rect
       style="fill:url(#linearGradient3861);fill-opacity:1;fill-rule:nonzero;stroke:none;display:inline"
       id="rect3352"
       width="16.464474"
       height="13.759596"
       x="3.6499383"
       y="5.2580805"
       rx="1.3171579"
       ry="1.3171579" />
    <path
       inkscape:connector-curvature="0"
       style="color:#000000;fill:#c4995a;fill-opacity:1;fill-rule:nonzero;stroke:none;stroke-width:2;marker:none;visibility:visible;display:inline;overflow:visible;enable-background:accumulate"
       d="M 4.5,0 C 3.669,0 3,0.669 3,1.5 l 0,1 0,1 0,2 C 3,6.331 3.669,7 4.5,7 l 15,0 C 20.331,7 21,6.331 21,5.5 l 0,-3 C 21,1.669 20.331,1 19.5,1 L 11.90625,1 C 11.702994,0.4129833 11.157875,0 10.5,0 l -6,0 z"
       id="rect3043" />
    <path
       style="opacity:0.1;color:#000000;fill:#000000;fill-opacity:1;fill-rule:nonzero;stroke:none;stroke-width:2;marker:none;visibility:visible;display:inline;overflow:visible;enable-background:accumulate"
       d="M 4,1 C 3.648898,1 3.317465,1.0923738 3.03125,1.25 3.018314,1.3295389 3,1.4166943 3,1.5 l 0,1 0,1 0,2 C 3,6.331 3.669,7 4.5,7 l 15,0 C 20.331,7 21,6.331 21,5.5 l 0,-3 C 21,1.669 20.331,1 19.5,1 L 11.90625,1 4,1 z"
       id="path3050"
       inkscape:connector-curvature="0" />
    <rect
       style="fill:url(#linearGradient3668-3);fill-opacity:1;fill-rule:nonzero;stroke:none;display:inline"
       id="rect3660"
       width="20"
       height="17.999996"
       x="2"
       y="2"
       rx="2"
       ry="2" />
    <path
       style="opacity:0.2;fill:url(#linearGradient3078-0);fill-opacity:1;fill-rule:evenodd;stroke:none;display:inline"
       d="M 4,2 C 2.892,2 2,2.892 2,4 l 0,14 c 0,1.108 0.892,2 2,2 l 16,0 c 1.108,0 2,-0.892 2,-2 L 22,4 C 22,2.892 21.108,2 20,2 z m 0,1.03125 16,0 c 0.5497,0 0.96875,0.4190495 0.96875,0.96875 l 0,14 c 0,0.5497 -0.41905,0.96875 -0.96875,0.96875 l -16,0 C 3.4502995,18.96875 3.03125,18.5497 3.03125,18 l 0,-14 C 3.03125,3.4502995 3.4502995,3.03125 4,3.03125 z"
       id="rect3050"
       inkscape:connector-curvature="0"
       sodipodi:nodetypes="ssssssssssssssssss" />
    <path
       id="path3235"
       d="M 4,20 C 2.892,20 2,19.108 2,18 l 0,-1 c 0,1.108 0.892,2 2,2 l 16,0 c 1.108,0 2,-0.892 2,-2 l 0,1 c 0,1.108 -0.892,2 -2,2 z"
       style="opacity:0.2;fill:url(#linearGradient3845-9);fill-opacity:1;fill-rule:evenodd;stroke:none;display:inline"
       inkscape:connector-curvature="0"
       sodipodi:nodetypes="sscsscsss" />
    <rect
       style="color:#000000;fill:#bd8e48;fill-opacity:1;fill-rule:nonzero;stroke:none;stroke-width:2;marker:none;visibility:visible;display:inline;overflow:visible;enable-background:accumulate"
       id="rect3884"
       width="8"
       height="8"
       x="32"
       y="0"
       transform="translate(0,-2)" />
  </g>
  <g
     inkscape:groupmode="layer"
     id="layer4"
     inkscape:label="Symbol"
     transform="translate(0,2)">
    <path
       style="fill:#bd8e48;fill-opacity:1;stroke:none;display:inline"
       d="m 10.032144,5.3963235 0,6.5307975 c -0.4696717,-0.179612 -1.083429,-0.210305 -1.7168001,-0.04299 -1.1837121,0.3127 -1.9773733,1.190543 -1.7688249,1.957872 0.2085474,0.767329 1.3374632,1.137271 2.5211751,0.824572 1.0056729,-0.265666 1.7261319,-0.939264 1.7928359,-1.606158 l 0.008,0 0,-4.802842 4.221892,0.519755 0,4.650433 c -0.469671,-0.179612 -1.083428,-0.210305 -1.716801,-0.04299 -1.18371,0.312699 -1.977372,1.190541 -1.768823,1.95787 0.208547,0.76733 1.337464,1.137273 2.521175,0.824574 1.005674,-0.265667 1.726132,-0.939264 1.792836,-1.606159 l 0.008,0 0,-8.3909696 -5.894652,-0.7737696 z m 0.83639,1.5716379 4.221892,0.5900969 0,0.5275697 -4.221892,-0.5197547 0,-0.5979119 z"
       id="path3261"
       sodipodi:nodetypes="ccssscccccsssccccccccc"
       inkscape:connector-curvature="0" />
    <path
       style="opacity:0.2;fill:#000000;fill-opacity:1;stroke:none;display:inline"
       d="m 10.03125,5.4062501 0,6.5312499 C 9.561579,11.757888 8.945871,11.707685 8.3125,11.875 c -1.183712,0.3127 -1.989798,1.201421 -1.78125,1.96875 0.208547,0.767329 1.347538,1.125199 2.53125,0.8125 1.005673,-0.265666 1.745796,-0.926856 1.8125,-1.59375 l 0,-4.8125 4.21875,0.53125 0,4.65625 C 14.624079,13.257888 14.008373,13.207685 13.375,13.375 c -1.18371,0.312699 -1.989799,1.201421 -1.78125,1.96875 0.208547,0.76733 1.347539,1.125199 2.53125,0.8125 1.005674,-0.265667 1.714546,-0.926855 1.78125,-1.59375 l 0.03125,0 0,-8.40625 -5.90625,-0.75 z M 10.46875,5.90625 15.5,6.53125 15.5,7.375 A 0.43707301,0.43707301 0 0 0 15.15625,7.125 L 10.9375,6.53125 A 0.43707301,0.43707301 0 0 0 10.46875,6.8125 l 0,-0.90625 z m 0.40625,1.0625 4.21875,0.59375 0,0.53125 -4.21875,-0.53125 0,-0.59375 z M 10.46875,7.75 l 0.125,0.15625 a 0.43707301,0.43707301 0 0 0 -0.125,0.1875 l 0,-0.34375 z m 5.03125,0.5 0,0.34375 a 0.43707301,0.43707301 0 0 0 -0.125,-0.125 l 0,-0.03125 A 0.43707301,0.43707301 0 0 0 15.40625,8.40625 L 15.4375,8.375 15.46875,8.3125 A 0.43707301,0.43707301 0 0 0 15.5,8.25 z m -5.0625,3.84375 0,0.9375 0,0.03125 c -0.0542,0.377815 -0.630821,0.926641 -1.5,1.15625 C 8.418913,14.355744 7.925789,14.365846 7.5625,14.25 7.199211,14.134154 6.993472,13.924694 6.9375,13.71875 6.8818,13.513812 6.96317,13.251015 7.21875,12.96875 7.47433,12.686485 7.920807,12.448994 8.4375,12.3125 8.982381,12.168561 9.498973,12.19995 9.875,12.34375 a 0.43707301,0.43707301 0 0 0 0.5625,-0.25 z m 5.0625,1.5 0,0.8125 a 0.43707301,0.43707301 0 0 0 0,0.03125 0.43707301,0.43707301 0 0 0 -0.03125,0.09375 C 15.429716,14.921507 14.881586,15.485863 14,15.71875 13.481414,15.855744 12.988289,15.865846 12.625,15.75 12.261711,15.634154 12.055972,15.424695 12,15.21875 c -0.0557,-0.204938 0.02567,-0.467735 0.28125,-0.75 0.255581,-0.282265 0.702058,-0.519756 1.21875,-0.65625 0.544883,-0.143939 1.061473,-0.112551 1.4375,0.03125 a 0.43707301,0.43707301 0 0 0 0.5625,-0.25 z"
       id="path3665"
       inkscape:connector-curvature="0" />
    <path
       style="opacity:0.15;fill:#ffffff;fill-opacity:1;stroke:none;display:inline"
       d="m 9.875,4.4687501 a 0.93967499,0.93967499 0 0 0 -0.78125,0.9375 L 9.09375,11 C 8.7453955,10.995106 8.4296371,10.871765 8.0625,10.96875 7.3090496,11.167788 6.6880111,11.544245 6.21875,12.0625 5.7494889,12.580755 5.4162928,13.325837 5.625,14.09375 c 0.2081182,0.76575 0.8671713,1.256988 1.53125,1.46875 0.6640787,0.211762 1.4068702,0.197962 2.15625,0 0.5385852,-0.142277 0.987614,-0.410145 1.40625,-0.71875 -0.03364,0.243529 -0.100846,0.49393 -0.03125,0.75 0.208118,0.765751 0.867171,1.256988 1.53125,1.46875 0.664079,0.211762 1.406871,0.197962 2.15625,0 0.989597,-0.26142 1.695742,-0.894338 2.09375,-1.71875 A 0.93967499,0.93967499 0 0 0 16.5,15.3125 c 0.0059,-0.01281 0.02558,-0.01831 0.03125,-0.03125 A 0.93967499,0.93967499 0 0 0 16.875,14.5625 l 0,-8.40625 a 0.93967499,0.93967499 0 0 0 -0.8125,-0.9375 l -5.90625,-0.75 a 0.93967499,0.93967499 0 0 0 -0.28125,0 z m 0.15625,0.9375 5.90625,0.7499999 0,8.40625 -0.03125,0 c -0.0667,0.666895 -0.775576,1.328083 -1.78125,1.59375 -1.183711,0.312699 -2.322703,-0.04517 -2.53125,-0.8125 -0.208549,-0.767329 0.59754,-1.656051 1.78125,-1.96875 0.633373,-0.167315 1.249079,-0.117112 1.71875,0.0625 l 0,-4.65625 L 10.875,8.25 l 0,4.8125 C 10.8083,13.729394 10.068173,14.390584 9.0625,14.65625 7.8787881,14.968949 6.7397974,14.61108 6.53125,13.84375 6.3227016,13.076421 7.1287879,12.1877 8.3125,11.875 c 0.6333711,-0.167315 1.2490786,-0.117112 1.71875,0.0625 l 0,-6.53125 z M 10.875,6.96875 l 0,0.59375 4.21875,0.53125 0,-0.53125 L 10.875,6.96875 z m 0.9375,2.34375 2.34375,0.3125 0,2.875 c -0.348354,-0.0049 -0.664113,-0.128235 -1.03125,-0.03125 -0.561325,0.148284 -0.961454,0.482589 -1.375,0.8125 0.0081,-0.04919 0.05742,-0.07424 0.0625,-0.125 a 0.93967499,0.93967499 0 0 0 0,-0.09375 l 0,-3.75 z"
       id="path3676"
       inkscape:connector-curvature="0" />
    <path
       style="fill:#000000;fill-opacity:1;stroke:none;display:inline;opacity:0.2"
       d="m 10.03125,5.4062501 0,0.9999999 5.90625,0.75 0,-1 -5.90625,-0.7499999 z M 10.875,7.96875 l 0,0.28125 4.21875,0.53125 0,-0.21875 L 10.875,7.96875 z m -2.09375,3.8125 C 8.627304,11.79909 8.470843,11.83317 8.3125,11.875 c -1.183712,0.3127 -1.989798,1.201421 -1.78125,1.96875 0.02257,0.08306 0.0507,0.176613 0.09375,0.25 0.250481,-0.524384 0.880562,-1.005582 1.6875,-1.21875 0.633371,-0.167315 1.249079,-0.117112 1.71875,0.0625 l 0,-1 c -0.352254,-0.134709 -0.788162,-0.209784 -1.25,-0.15625 z m 5.0625,1.5 c -0.153946,0.01784 -0.310407,0.05192 -0.46875,0.09375 -1.18371,0.312699 -1.989799,1.201421 -1.78125,1.96875 0.02257,0.08306 0.0507,0.176613 0.09375,0.25 0.250481,-0.524383 0.880564,-1.005583 1.6875,-1.21875 0.633373,-0.167315 1.249079,-0.117112 1.71875,0.0625 l 0,-1 c -0.352253,-0.134709 -0.788161,-0.209784 -1.25,-0.15625 z"
       id="path3687"
       inkscape:connector-curvature="0" />
    <path
       style="fill:#ffffff;fill-opacity:1;stroke:none;display:inline;opacity:0.15"
       d="M 10.875 8.96875 L 10.875 9.5625 L 15.09375 10.09375 L 15.09375 9.5625 L 10.875 8.96875 z M 10.875 10.5625 L 10.875 11.25 L 15.09375 11.78125 L 15.09375 11.09375 L 10.875 10.5625 z M 10.875 15.0625 C 10.808296 15.729394 10.068173 16.390584 9.0625 16.65625 C 8.0069219 16.9351 6.9796144 16.698317 6.625 16.09375 C 6.5080456 16.338595 6.4648693 16.59951 6.53125 16.84375 C 6.7397974 17.611079 7.8787881 17.968949 9.0625 17.65625 C 10.068173 17.390584 10.808296 16.729394 10.875 16.0625 L 10.875 15.0625 z M 15.90625 16.5625 C 15.839546 17.229395 15.130674 17.890583 14.125 18.15625 C 13.069423 18.4351 12.042114 18.198318 11.6875 17.59375 C 11.570546 17.838594 11.527369 18.09951 11.59375 18.34375 C 11.802297 19.11108 12.941289 19.468949 14.125 19.15625 C 15.130674 18.890583 15.839546 18.229395 15.90625 17.5625 L 15.9375 17.5625 L 15.9375 16.5625 L 15.90625 16.5625 z "
       transform="translate(0,-2)"
       id="path4066" />
  </g>
</svg>
