<?xml version="1.0" encoding="UTF-8" standalone="no"?>
<!-- Created with Inkscape (http://www.inkscape.org/) -->

<svg
   xmlns:dc="http://purl.org/dc/elements/1.1/"
   xmlns:cc="http://creativecommons.org/ns#"
   xmlns:rdf="http://www.w3.org/1999/02/22-rdf-syntax-ns#"
   xmlns:svg="http://www.w3.org/2000/svg"
   xmlns="http://www.w3.org/2000/svg"
   xmlns:xlink="http://www.w3.org/1999/xlink"
   xmlns:sodipodi="http://sodipodi.sourceforge.net/DTD/sodipodi-0.dtd"
   xmlns:inkscape="http://www.inkscape.org/namespaces/inkscape"
   width="24"
   height="24"
   id="svg2"
   sodipodi:version="0.32"
   inkscape:version="0.48.1 r9760"
   version="1.0"
   sodipodi:docname="folder-system.svg"
   inkscape:output_extension="org.inkscape.output.svg.inkscape"
   style="display:inline">
  <defs
     id="defs4">
    <linearGradient
       inkscape:collect="always"
       xlink:href="#linearGradient3831-1"
       id="linearGradient3845-9"
       x1="11"
       y1="19.5"
       x2="21"
       y2="19.5"
       gradientUnits="userSpaceOnUse"
       spreadMethod="reflect"
       gradientTransform="translate(1,-1)" />
    <linearGradient
       id="linearGradient3831-1">
      <stop
         style="stop-color:#ffffff;stop-opacity:1;"
         offset="0"
         id="stop3833-2" />
      <stop
         id="stop3821-4"
         offset="0.75"
         style="stop-color:#ffffff;stop-opacity:0.49803922;" />
      <stop
         style="stop-color:#ffffff;stop-opacity:0;"
         offset="1"
         id="stop3835-9" />
    </linearGradient>
    <linearGradient
       y2="16"
       x2="10"
       y1="5"
       x1="10"
       gradientUnits="userSpaceOnUse"
       id="linearGradient3078-0"
       xlink:href="#linearGradient3823-1"
       inkscape:collect="always"
       gradientTransform="translate(1,-1)" />
    <linearGradient
       id="linearGradient3823-1">
      <stop
         id="stop3825-4"
         offset="0"
         style="stop-color:#ffffff;stop-opacity:1;" />
      <stop
         id="stop3829-4"
         offset="1"
         style="stop-color:#ffffff;stop-opacity:0;" />
    </linearGradient>
    <linearGradient
       inkscape:collect="always"
       xlink:href="#linearGradient3187-2"
       id="linearGradient3668-3"
       x1="10.871767"
       y1="24.123091"
       x2="10.871767"
       y2="6.1230297"
       gradientUnits="userSpaceOnUse"
       gradientTransform="translate(-0.7400389,-4.1230297)" />
    <linearGradient
       id="linearGradient3187-2">
      <stop
         style="stop-color:#c29656;stop-opacity:1;"
         offset="0"
         id="stop3189-5" />
      <stop
         style="stop-color:#ddbf8b;stop-opacity:1;"
         offset="1"
         id="stop3191-1" />
    </linearGradient>
    <linearGradient
       gradientUnits="userSpaceOnUse"
       y2="20.137329"
       x2="11.794092"
       y1="3.2126782"
       x1="11.794092"
       gradientTransform="scale(1.0598527,0.9435274)"
       id="linearGradient3317-6">
      <stop
         id="stop3319-8"
         offset="0"
         style="stop-color:#c6953a;stop-opacity:1" />
      <stop
         id="stop3321-0"
         offset="1"
         style="stop-color:#ab7a1f;stop-opacity:1" />
    </linearGradient>
    <linearGradient
       y2="85.821426"
       x2="48.035713"
       y1="25.910715"
       x1="48.035713"
       gradientTransform="matrix(0.2195263,0,0,0.2195263,1.3370719,0.1776143)"
       gradientUnits="userSpaceOnUse"
       id="linearGradient3861"
       xlink:href="#linearGradient3317-6"
       inkscape:collect="always" />
    <linearGradient
       inkscape:collect="always"
       id="linearGradient3327">
      <stop
         style="stop-color:#000000;stop-opacity:1;"
         offset="0"
         id="stop3330" />
      <stop
         style="stop-color:#000000;stop-opacity:0;"
         offset="1"
         id="stop3333" />
    </linearGradient>
    <linearGradient
       y2="-11"
       x2="11.375"
       y1="20"
       x1="11.375"
       gradientTransform="translate(1,3)"
       gradientUnits="userSpaceOnUse"
       id="linearGradient3842"
       xlink:href="#linearGradient3327"
       inkscape:collect="always" />
  </defs>
  <sodipodi:namedview
     id="base"
     pagecolor="#7e7e7e"
     bordercolor="#e40000"
     borderopacity="1"
     inkscape:pageopacity="1"
     inkscape:pageshadow="2"
     inkscape:zoom="18.602289"
     inkscape:cx="5.5940347"
     inkscape:cy="11.983355"
     inkscape:document-units="px"
     inkscape:current-layer="layer4"
     showgrid="true"
     inkscape:showpageshadow="false"
     showguides="true"
     inkscape:guide-bbox="true"
     inkscape:window-width="1920"
     inkscape:window-height="1030"
     inkscape:window-x="0"
     inkscape:window-y="25"
     inkscape:window-maximized="1"
     borderlayer="true"
     inkscape:snap-global="false">
    <sodipodi:guide
       orientation="1,0"
       position="0,112"
       id="guide2383" />
    <sodipodi:guide
       orientation="0,1"
       position="26.278146,128"
       id="guide2385" />
    <sodipodi:guide
       orientation="1,0"
       position="128,54.082119"
       id="guide2387" />
    <sodipodi:guide
       orientation="0,1"
       position="78.156291,0"
       id="guide2389" />
    <inkscape:grid
       type="xygrid"
       id="grid3672"
       visible="true"
       enabled="true"
       empspacing="8"
       snapvisiblegridlinesonly="true" />
  </sodipodi:namedview>
  <metadata
     id="metadata7">
    <rdf:RDF>
      <cc:Work
         rdf:about="">
        <dc:format>image/svg+xml</dc:format>
        <dc:type
           rdf:resource="http://purl.org/dc/dcmitype/StillImage" />
        <dc:title></dc:title>
      </cc:Work>
    </rdf:RDF>
  </metadata>
  <g
     inkscape:groupmode="layer"
     id="layer2"
     inkscape:label="Button"
     transform="translate(0,2)"
     sodipodi:insensitive="true">
    <path
       style="opacity:0.3;fill:url(#linearGradient3842);fill-opacity:1;stroke:none;display:inline"
       d="m 4.5,1.5 c -1.0969971,0 -2,0.9030029 -2,2 l 0,0.5 c -0.6114808,0.4549066 -1,1.175925 -1,2 l 0,14.5 C 1.5,21.885 2.615,23 4,23 l 16,0 c 1.385,0 2.5,-1.115 2.5,-2.5 L 22.5,6 C 22.5,5.134375 22.071045,4.3858887 21.40625,3.9375 21.160346,3.1111944 20.401594,2.5 19.5,2.5 l -7.375,0 C 11.775318,1.9321758 11.212848,1.5 10.5,1.5 l -6,0 z"
       transform="translate(0,-2)"
       id="rect3371"
       inkscape:connector-curvature="0" />
    <rect
       ry="2"
       rx="2"
       y="5"
       x="2"
       height="16"
       width="20"
       id="rect5478"
       style="opacity:0.4;fill:#000000;fill-opacity:1;fill-rule:nonzero;stroke:none" />
    <rect
       style="fill:url(#linearGradient3861);fill-opacity:1;fill-rule:nonzero;stroke:none;display:inline"
       id="rect3352"
       width="16.464474"
       height="13.759596"
       x="3.6499383"
       y="5.2580805"
       rx="1.3171579"
       ry="1.3171579" />
    <path
       inkscape:connector-curvature="0"
       style="color:#000000;fill:#c4995a;fill-opacity:1;fill-rule:nonzero;stroke:none;stroke-width:2;marker:none;visibility:visible;display:inline;overflow:visible;enable-background:accumulate"
       d="M 4.5,0 C 3.669,0 3,0.669 3,1.5 l 0,1 0,1 0,2 C 3,6.331 3.669,7 4.5,7 l 15,0 C 20.331,7 21,6.331 21,5.5 l 0,-3 C 21,1.669 20.331,1 19.5,1 L 11.90625,1 C 11.702994,0.4129833 11.157875,0 10.5,0 l -6,0 z"
       id="rect3043" />
    <path
       style="opacity:0.1;color:#000000;fill:#000000;fill-opacity:1;fill-rule:nonzero;stroke:none;stroke-width:2;marker:none;visibility:visible;display:inline;overflow:visible;enable-background:accumulate"
       d="M 4,1 C 3.648898,1 3.317465,1.0923738 3.03125,1.25 3.018314,1.3295389 3,1.4166943 3,1.5 l 0,1 0,1 0,2 C 3,6.331 3.669,7 4.5,7 l 15,0 C 20.331,7 21,6.331 21,5.5 l 0,-3 C 21,1.669 20.331,1 19.5,1 L 11.90625,1 4,1 z"
       id="path3050"
       inkscape:connector-curvature="0" />
    <rect
       style="fill:url(#linearGradient3668-3);fill-opacity:1;fill-rule:nonzero;stroke:none;display:inline"
       id="rect3660"
       width="20"
       height="17.999996"
       x="2"
       y="2"
       rx="2"
       ry="2" />
    <path
       style="opacity:0.2;fill:url(#linearGradient3078-0);fill-opacity:1;fill-rule:evenodd;stroke:none;display:inline"
       d="M 4,2 C 2.892,2 2,2.892 2,4 l 0,14 c 0,1.108 0.892,2 2,2 l 16,0 c 1.108,0 2,-0.892 2,-2 L 22,4 C 22,2.892 21.108,2 20,2 z m 0,1.03125 16,0 c 0.5497,0 0.96875,0.4190495 0.96875,0.96875 l 0,14 c 0,0.5497 -0.41905,0.96875 -0.96875,0.96875 l -16,0 C 3.4502995,18.96875 3.03125,18.5497 3.03125,18 l 0,-14 C 3.03125,3.4502995 3.4502995,3.03125 4,3.03125 z"
       id="rect3050"
       inkscape:connector-curvature="0"
       sodipodi:nodetypes="ssssssssssssssssss" />
    <path
       id="path3235"
       d="M 4,20 C 2.892,20 2,19.108 2,18 l 0,-1 c 0,1.108 0.892,2 2,2 l 16,0 c 1.108,0 2,-0.892 2,-2 l 0,1 c 0,1.108 -0.892,2 -2,2 z"
       style="opacity:0.2;fill:url(#linearGradient3845-9);fill-opacity:1;fill-rule:evenodd;stroke:none;display:inline"
       inkscape:connector-curvature="0"
       sodipodi:nodetypes="sscsscsss" />
    <rect
       style="color:#000000;fill:#bd8e48;fill-opacity:1;fill-rule:nonzero;stroke:none;stroke-width:2;marker:none;visibility:visible;display:inline;overflow:visible;enable-background:accumulate"
       id="rect3884"
       width="8"
       height="8"
       x="32"
       y="0"
       transform="translate(0,-2)" />
  </g>
  <g
     inkscape:groupmode="layer"
     id="layer4"
     inkscape:label="Symbol"
     transform="translate(0,2)">
    <path
       style="fill:#ffffff;fill-opacity:1;fill-rule:nonzero;stroke:none;stroke-width:1;marker:none;visibility:visible;display:block;overflow:visible;enable-background:accumulate;opacity:0.15"
       d="M 11.3125 7.03125 C 10.594758 7.03125 10.130711 7.6255192 10.0625 8.25 C 9.5542445 7.8217999 8.7524047 7.8100929 8.28125 8.28125 L 7.28125 9.28125 C 6.8100605 9.7523829 6.8217788 10.554257 7.25 11.0625 C 6.6255169 11.130711 6.03125 11.594756 6.03125 12.3125 L 6.03125 13.6875 C 6.03125 14.405244 6.6255169 14.869289 7.25 14.9375 C 6.8218191 15.445749 6.8100995 16.247596 7.28125 16.71875 L 8.28125 17.71875 C 8.5606352 17.998114 8.9458074 18.096054 9.21875 18.09375 C 9.4380484 18.091892 9.7892517 17.972098 10.0625 17.75 C 10.130711 18.374482 10.594754 18.96875 11.3125 18.96875 L 12.6875 18.96875 C 13.405244 18.96875 13.869289 18.374485 13.9375 17.75 C 14.44578 18.17834 15.247673 18.189824 15.71875 17.71875 L 16.71875 16.71875 C 17.189757 16.247635 17.178268 15.445792 16.75 14.9375 C 17.374487 14.86929 17.96875 14.405253 17.96875 13.6875 L 17.96875 12.3125 C 17.96875 11.594751 17.374483 11.13071 16.75 11.0625 C 17.178339 10.55422 17.189826 9.7523257 16.71875 9.28125 L 15.71875 8.28125 C 15.247617 7.8100573 14.445742 7.821779 13.9375 8.25 C 13.869289 7.6255126 13.405247 7.03125 12.6875 7.03125 L 11.3125 7.03125 z M 11.3125 8 L 12.6875 8 C 12.884271 8 13.03125 8.1748626 13.03125 8.375 L 13.03125 9.0625 C 13.383095 9.156245 13.723648 9.2898526 14.03125 9.46875 L 14.53125 8.96875 C 14.672768 8.8272317 14.89211 8.8295925 15.03125 8.96875 L 16.03125 9.96875 C 16.17039 10.10789 16.172801 10.327232 16.03125 10.46875 L 15.53125 10.96875 C 15.710148 11.276351 15.843754 11.616904 15.9375 11.96875 L 16.625 11.96875 C 16.825135 11.96875 17 12.115726 17 12.3125 L 17 13.6875 C 17 13.884272 16.825135 14.03125 16.625 14.03125 L 15.9375 14.03125 C 15.84376 14.383095 15.710147 14.723649 15.53125 15.03125 L 16.03125 15.53125 C 16.172767 15.672769 16.170358 15.89211 16.03125 16.03125 L 15.03125 17.03125 C 14.892109 17.17039 14.672767 17.1728 14.53125 17.03125 L 14.03125 16.53125 C 13.723649 16.710148 13.383094 16.843755 13.03125 16.9375 L 13.03125 17.625 C 13.03125 17.825138 12.884272 18 12.6875 18 L 11.3125 18 C 11.115726 18 10.96875 17.825136 10.96875 17.625 L 10.96875 16.9375 C 10.616906 16.84375 10.276352 16.710148 9.96875 16.53125 L 9.46875 17.03125 C 9.397992 17.10201 9.3103191 17.124224 9.21875 17.125 C 9.12718 17.125773 9.0383192 17.100814 8.96875 17.03125 L 7.96875 16.03125 C 7.829611 15.89211 7.8272502 15.672769 7.96875 15.53125 L 8.46875 15.03125 C 8.2898534 14.723649 8.1562475 14.383095 8.0625 14.03125 L 7.375 14.03125 C 7.1748627 14.03125 7 13.884273 7 13.6875 L 7 12.3125 C 7 12.115727 7.1748627 11.96875 7.375 11.96875 L 8.0625 11.96875 C 8.1562475 11.616904 8.2898534 11.276351 8.46875 10.96875 L 7.96875 10.46875 C 7.8272317 10.327232 7.8295934 10.10789 7.96875 9.96875 L 8.96875 8.96875 C 9.1078883 8.829611 9.3272326 8.8272471 9.46875 8.96875 L 9.96875 9.46875 C 10.276352 9.2898526 10.616906 9.1562449 10.96875 9.0625 L 10.96875 8.375 C 10.96875 8.1748626 11.115726 8 11.3125 8 z M 12 11.5 C 11.165585 11.5 10.5 12.165584 10.5 13 C 10.5 13.834415 11.165585 14.5 12 14.5 C 12.834416 14.5 13.5 13.834415 13.5 13 C 13.5 12.165584 12.834416 11.5 12 11.5 z M 12 12.46875 C 12.319064 12.46875 12.53125 12.680936 12.53125 13 C 12.53125 13.319062 12.319063 13.53125 12 13.53125 C 11.680939 13.53125 11.46875 13.319061 11.46875 13 C 11.46875 12.680937 11.680938 12.46875 12 12.46875 z "
       transform="translate(0,-2)"
       id="path3887" />
    <path
       style="opacity:0.15;fill:#ffffff;fill-opacity:1;fill-rule:nonzero;stroke:none;stroke-width:1;marker:none;visibility:visible;display:block;overflow:visible;enable-background:accumulate"
       d="m -8.84375,3.96875 c -0.811449,0 -1.4375,0.7409429 -1.4375,1.46875 l 0,0.0625 -0.0625,-0.03125 c -0.0067,-0.00666 -0.02442,0.00653 -0.03125,0 -0.503171,-0.4805589 -1.424833,-0.6064201 -2,-0.03125 l -1.1875,1.1875 c -0.575199,0.57513 -0.449349,1.496843 0.03125,2 l -0.03125,0.03125 0.0625,0.0625 -0.0625,0 c -0.727811,0 -1.46875,0.62605 -1.46875,1.4375 l 0,1.6875 c 0,0.81145 0.74094,1.4375 1.46875,1.4375 l 0.0625,0 -0.0625,0.0625 0.03125,0.03125 c -0.480547,0.503166 -0.606408,1.424839 -0.03125,2 l 1.1875,1.1875 c 0.30707,0.307069 0.649187,0.440723 1.03125,0.4375 0.532365,-0.0045 0.831465,-0.331922 0.96875,-0.46875 l 0.03125,0 0.0625,-0.03125 0,0.0625 c 0,0.727808 0.626048,1.46875 1.4375,1.46875 l 1.6875,0 c 0.811452,0 1.4375,-0.740937 1.4375,-1.46875 l 0,-0.0625 0.0625,0.03125 0.03125,0 c 0.503167,0.480557 1.424839,0.606407 2,0.03125 l 1.1875,-1.1875 c 0.575202,-0.57513 0.44934,-1.496847 -0.03125,-2 -0.00653,-0.0068 0.00666,-0.02459 0,-0.03125 L -2.5,13.28125 l 0.0625,0 c 0.727816,0 1.46875,-0.62604 1.46875,-1.4375 l 0,-1.6875 c 0,-0.811458 -0.740938,-1.4375 -1.46875,-1.4375 l -0.0625,0 0.03125,-0.0625 0,-0.03125 c 0.480555,-0.503168 0.606407,-1.4248391 0.03125,-2 L -3.625,5.4375 c -0.57513,-0.5751988 -1.496844,-0.4493511 -2,0.03125 L -5.65625,5.4375 -5.71875,5.5 l 0,-0.0625 c 0,-0.7278157 -0.626047,-1.46875 -1.4375,-1.46875 l -1.6875,0 z m 0,1.03125 1.6875,0 C -6.920123,5 -6.75,5.197335 -6.75,5.4375 l 0,0.84375 c 0.422215,0.112494 0.818377,0.285323 1.1875,0.5 l 0.625,-0.59375 c 0.169821,-0.169822 0.426781,-0.198239 0.59375,-0.03125 l 1.1875,1.1875 c 0.166967,0.166968 0.138551,0.423928 -0.03125,0.59375 l -0.59375,0.625 c 0.214676,0.369121 0.387505,0.765284 0.5,1.1875 l 0.84375,0 C -2.197338,9.75 -2,9.920121 -2,10.15625 l 0,1.6875 C -2,12.079878 -2.197338,12.25 -2.4375,12.25 l -0.84375,0 c -0.112494,0.422215 -0.285324,0.818379 -0.5,1.1875 l 0.59375,0.625 c 0.169821,0.169823 0.198239,0.426782 0.03125,0.59375 l -1.1875,1.1875 c -0.166969,0.166968 -0.423929,0.138551 -0.59375,-0.03125 l -0.625,-0.59375 c -0.369121,0.214678 -0.765286,0.387506 -1.1875,0.5 l 0,0.84375 C -6.75,16.802665 -6.920122,17 -7.15625,17 l -1.6875,0 C -9.07988,17 -9.25,16.802664 -9.25,16.5625 l 0,-0.84375 c -0.422214,-0.112494 -0.818378,-0.285323 -1.1875,-0.5 l -0.625,0.59375 c -0.08491,0.08491 -0.171367,0.155319 -0.28125,0.15625 -0.109884,9.27e-4 -0.229017,-0.04152 -0.3125,-0.125 l -1.1875,-1.1875 c -0.166967,-0.166968 -0.13855,-0.423927 0.03125,-0.59375 l 0.59375,-0.625 c -0.214676,-0.369121 -0.387503,-0.765285 -0.5,-1.1875 l -0.84375,0 C -13.802665,12.25 -14,12.079879 -14,11.84375 l 0,-1.6875 C -14,9.920121 -13.802665,9.75 -13.5625,9.75 l 0.84375,0 c 0.112497,-0.422216 0.285324,-0.818379 0.5,-1.1875 l -0.59375,-0.625 c -0.169822,-0.169822 -0.198238,-0.426782 -0.03125,-0.59375 l 1.1875,-1.1875 c 0.166966,-0.166967 0.423929,-0.13855 0.59375,0.03125 l 0.625,0.59375 c 0.369122,-0.214677 0.765286,-0.387506 1.1875,-0.5 l 0,-0.84375 C -9.25,5.197335 -9.07988,5 -8.84375,5 z M -8,9.1875 c -1.001299,0 -1.8125,0.8112 -1.8125,1.8125 0,1.001299 0.811201,1.8125 1.8125,1.8125 1.0013,0 1.8125,-0.811201 1.8125,-1.8125 0,-1.0013 -0.8112,-1.8125 -1.8125,-1.8125 z m 0,1.03125 c 0.443576,0 0.78125,0.337675 0.78125,0.78125 0,0.443575 -0.337675,0.78125 -0.78125,0.78125 -0.443574,0 -0.78125,-0.337676 -0.78125,-0.78125 0,-0.443575 0.337676,-0.78125 0.78125,-0.78125 z"
       id="path3856"
       inkscape:connector-curvature="0" />
    <path
       d="m -8.828482,17 c -0.23613,0 -0.427326,-0.195881 -0.427326,-0.436045 l 0,-0.845928 c -0.422214,-0.112494 -0.825641,-0.282414 -1.194763,-0.497091 l -0.601744,0.601742 c -0.08491,0.08491 -0.186626,0.129883 -0.296509,0.130814 -0.109884,9.27e-4 -0.221748,-0.03861 -0.305231,-0.122093 l -1.177324,-1.177322 c -0.166967,-0.166968 -0.1611,-0.43192 0.0087,-0.601743 l 0.601743,-0.601742 c -0.214676,-0.369121 -0.384596,-0.772549 -0.497093,-1.194764 l -0.845926,0 c -0.240165,0 -0.436046,-0.191195 -0.436046,-0.427324 l 0,-1.656972 c 0,-0.2361288 0.195881,-0.4273245 0.436046,-0.4273245 l 0.845926,0 c 0.112497,-0.4222156 0.282417,-0.8256435 0.497093,-1.1947645 l -0.601743,-0.601742 c -0.169822,-0.169822 -0.175688,-0.434774 -0.0087,-0.601742 l 1.177324,-1.177323 c 0.166966,-0.166967 0.431919,-0.1611 0.60174,0.0087 l 0.601744,0.601742 c 0.369122,-0.214677 0.772549,-0.384597 1.194763,-0.497091 l 0,-0.845928 c 0,-0.240165 0.191196,-0.436045 0.427326,-0.436045 l 1.656972,0 c 0.236127,0 0.427323,0.19588 0.427323,0.436045 l 0,0.845928 c 0.422215,0.112494 0.825641,0.282414 1.194764,0.497091 L -4.94768,6.177336 c 0.169821,-0.169822 0.434774,-0.175689 0.601743,-0.0087 l 1.177321,1.177323 c 0.166967,0.166968 0.161101,0.43192 -0.0087,0.601742 l -0.601741,0.601742 c 0.214676,0.369121 0.384595,0.7725489 0.49709,1.1947645 l 0.845929,0 c 0.240162,0 0.436045,0.1911951 0.436045,0.4273245 l 0,1.656972 c 0,0.236128 -0.195883,0.427324 -0.436045,0.427324 l -0.845929,0 c -0.112494,0.422215 -0.282413,0.825643 -0.497089,1.194764 l 0.601741,0.601742 c 0.169821,0.169823 0.175689,0.434775 0.0087,0.601743 l -1.177321,1.177322 c -0.166969,0.166968 -0.431922,0.161101 -0.601743,-0.0087 l -0.601744,-0.601743 c -0.369121,0.214678 -0.772549,0.384598 -1.194763,0.497092 l 0,0.845927 c 0,0.240165 -0.191196,0.436046 -0.427324,0.436046 l -1.656971,0 z m 0.828485,-4.186034 c 1.0013,0 1.813949,-0.812649 1.813949,-1.813948 0,-1.0012995 -0.812649,-1.8139482 -1.813949,-1.8139482 -1.001299,0 -1.813949,0.8126487 -1.813949,1.8139482 0,1.001299 0.81265,1.813948 1.813949,1.813948 z"
       id="rect3267"
       style="opacity:1;fill:#bd8e48;fill-opacity:1;fill-rule:nonzero;stroke:none;stroke-width:1;marker:none;visibility:visible;display:block;overflow:visible;enable-background:accumulate"
       inkscape:connector-curvature="0" />
    <path
       style="opacity:0.2;fill:#000000;fill-opacity:1;fill-rule:nonzero;stroke:none;stroke-width:1;marker:none;visibility:visible;display:block;overflow:visible;enable-background:accumulate"
       d="M -8.84375,5 C -9.07988,5 -9.25,5.197335 -9.25,5.4375 l 0,0.84375 c -0.422214,0.112494 -0.818378,0.285323 -1.1875,0.5 l -0.625,-0.59375 c -0.169821,-0.1698 -0.426784,-0.198217 -0.59375,-0.03125 l -1.1875,1.1875 c -0.166988,0.166968 -0.138572,0.423928 0.03125,0.59375 l 0.59375,0.625 c -0.214676,0.369121 -0.387503,0.765284 -0.5,1.1875 l -0.84375,0 C -13.802665,9.75 -14,9.920121 -14,10.15625 l 0,1.6875 c 0,0.236129 0.197335,0.40625 0.4375,0.40625 l 0.84375,0 c 0.112497,0.422215 0.285324,0.818379 0.5,1.1875 l -0.59375,0.625 c -0.1698,0.169823 -0.198217,0.426782 -0.03125,0.59375 l 1.1875,1.1875 c 0.08348,0.08348 0.202616,0.125927 0.3125,0.125 0.109883,-9.31e-4 0.19634,-0.07134 0.28125,-0.15625 l 0.625,-0.59375 c 0.369122,0.214677 0.765286,0.387506 1.1875,0.5 l 0,0.84375 C -9.25,16.802664 -9.07988,17 -8.84375,17 l 1.6875,0 C -6.920122,17 -6.75,16.802665 -6.75,16.5625 l 0,-0.84375 c 0.422214,-0.112494 0.818379,-0.285322 1.1875,-0.5 l 0.625,0.59375 c 0.169821,0.169801 0.426781,0.198218 0.59375,0.03125 l 1.1875,-1.1875 c 0.166989,-0.166968 0.138571,-0.423927 -0.03125,-0.59375 l -0.59375,-0.625 c 0.214676,-0.369121 0.387506,-0.765285 0.5,-1.1875 l 0.84375,0 C -2.197338,12.25 -2,12.079878 -2,11.84375 l 0,-1.6875 C -2,9.920121 -2.197338,9.75 -2.4375,9.75 l -0.84375,0 c -0.112495,-0.422216 -0.285324,-0.818379 -0.5,-1.1875 l 0.59375,-0.625 c 0.169801,-0.169822 0.198217,-0.426782 0.03125,-0.59375 l -1.1875,-1.1875 C -4.510719,5.989261 -4.767679,6.017678 -4.9375,6.1875 l -0.625,0.59375 C -5.931623,6.566573 -6.327785,6.393744 -6.75,6.28125 l 0,-0.84375 C -6.75,5.197335 -6.920123,5 -7.15625,5 l -1.6875,0 z m 0.125,0.53125 1.4375,0 0,0.75 a 0.52059784,0.52059784 0 0 0 0.40625,0.5 c 0.372324,0.099201 0.728341,0.2431574 1.0625,0.4375 a 0.52059784,0.52059784 0 0 0 0.59375,-0.0625 l 0.5625,-0.5625 1.0625,1.0625 -0.5625,0.5625 a 0.52059784,0.52059784 0 0 0 -0.0625,0.59375 c 0.194341,0.334157 0.338298,0.690174 0.4375,1.0625 a 0.52059784,0.52059784 0 0 0 0.5,0.40625 l 0.75,0 0,1.4375 -0.75,0 a 0.52059784,0.52059784 0 0 0 -0.5,0.40625 c -0.099201,0.372324 -0.243159,0.728343 -0.4375,1.0625 a 0.52059784,0.52059784 0 0 0 0.0625,0.59375 l 0.5625,0.5625 -1.0625,1.0625 -0.5625,-0.5625 a 0.52059784,0.52059784 0 0 0 -0.59375,-0.0625 c -0.334154,0.194342 -0.690175,0.338298 -1.0625,0.4375 a 0.52059784,0.52059784 0 0 0 -0.40625,0.5 l 0,0.75 -1.4375,0 0,-0.75 a 0.52059784,0.52059784 0 0 0 -0.40625,-0.5 c -0.372324,-0.0992 -0.728343,-0.243158 -1.0625,-0.4375 a 0.52059784,0.52059784 0 0 0 -0.59375,0.0625 l -0.5625,0.5625 -1.0625,-1.0625 0.5625,-0.5625 a 0.52059784,0.52059784 0 0 0 0.0625,-0.59375 c -0.19434,-0.334155 -0.338295,-0.690172 -0.4375,-1.0625 a 0.52059784,0.52059784 0 0 0 -0.5,-0.40625 l -0.75,0 0,-1.4375 0.75,0 a 0.52059784,0.52059784 0 0 0 0.5,-0.40625 c 0.0992,-0.372329 0.24316,-0.728345 0.4375,-1.0625 a 0.52059784,0.52059784 0 0 0 -0.0625,-0.59375 l -0.5625,-0.5625 1.0625,-1.0625 0.5625,0.5625 a 0.52059784,0.52059784 0 0 0 0.59375,0.0625 c 0.334157,-0.1943419 0.690176,-0.3382987 1.0625,-0.4375 a 0.52059784,0.52059784 0 0 0 0.40625,-0.5 l 0,-0.75 z M -8,8.65625 c -1.282445,0 -2.34375,1.061304 -2.34375,2.34375 0,1.282445 1.061305,2.34375 2.34375,2.34375 1.282446,0 2.34375,-1.061305 2.34375,-2.34375 0,-1.282445 -1.061304,-2.34375 -2.34375,-2.34375 z m 0,0.53125 c 1.0013,0 1.8125,0.8112 1.8125,1.8125 0,1.001299 -0.8112,1.8125 -1.8125,1.8125 -1.001299,0 -1.8125,-0.811201 -1.8125,-1.8125 0,-1.0013 0.811201,-1.8125 1.8125,-1.8125 z"
       id="path3845"
       inkscape:connector-curvature="0" />
    <path
       style="opacity:0.2;fill:#000000;fill-opacity:1;fill-rule:nonzero;stroke:none;stroke-width:1;marker:none;visibility:visible;display:block;overflow:visible;enable-background:accumulate"
       d="M -8.84375,5 C -9.07988,5 -9.25,5.197335 -9.25,5.4375 l 0,0.84375 c -0.422214,0.112494 -0.818378,0.285323 -1.1875,0.5 l -0.625,-0.59375 c -0.169821,-0.1698 -0.426784,-0.198217 -0.59375,-0.03125 l -1.1875,1.1875 c -0.166988,0.166968 -0.138572,0.423928 0.03125,0.59375 l 0.1875,0.1875 0.96875,-0.96875 c 0.166966,-0.166967 0.423929,-0.13855 0.59375,0.03125 l 0.625,0.59375 c 0.369122,-0.214677 0.765286,-0.387506 1.1875,-0.5 l 0,-0.84375 C -9.25,6.197335 -9.07988,6 -8.84375,6 l 1.6875,0 C -6.920123,6 -6.75,6.197335 -6.75,6.4375 l 0,0.84375 c 0.422215,0.112494 0.818377,0.285323 1.1875,0.5 L -4.9375,7.1875 C -4.767679,7.017678 -4.510719,6.989261 -4.34375,7.15625 L -3.375,8.125 -3.1875,7.9375 c 0.169801,-0.169822 0.198217,-0.426782 0.03125,-0.59375 l -1.1875,-1.1875 C -4.510719,5.989261 -4.767679,6.017678 -4.9375,6.1875 l -0.625,0.59375 C -5.931623,6.566573 -6.327785,6.393744 -6.75,6.28125 l 0,-0.84375 C -6.75,5.197335 -6.920123,5 -7.15625,5 l -1.6875,0 z m -3.6875,4.21875 c -0.06766,0.171612 -0.139645,0.351644 -0.1875,0.53125 l -0.84375,0 C -13.802665,9.75 -14,9.920121 -14,10.15625 l 0,1 c 0,-0.236129 0.197335,-0.40625 0.4375,-0.40625 l 0.84375,0 c 0.112497,-0.422216 0.285324,-0.818379 0.5,-1.1875 l -0.3125,-0.34375 z m 9.0625,0 -0.3125,0.34375 c 0.214676,0.369121 0.387505,0.765284 0.5,1.1875 l 0.84375,0 C -2.197338,10.75 -2,10.920121 -2,11.15625 l 0,-1 C -2,9.920121 -2.197338,9.75 -2.4375,9.75 l -0.84375,0 C -3.329104,9.570394 -3.401088,9.390362 -3.46875,9.21875 z M -9.75,11.5 c -0.043307,0.155264 -0.0625,0.330985 -0.0625,0.5 0,1.001299 0.811201,1.8125 1.8125,1.8125 1.0013,0 1.8125,-0.811201 1.8125,-1.8125 0,-0.169015 -0.019193,-0.344736 -0.0625,-0.5 -0.213257,0.76457 -0.917715,1.3125 -1.75,1.3125 -0.832284,0 -1.536742,-0.54793 -1.75,-1.3125 z m -2.78125,2.28125 -0.28125,0.28125 c -0.1698,0.169823 -0.198217,0.426782 -0.03125,0.59375 l 0.21875,0.21875 0.40625,-0.4375 c -0.123355,-0.212101 -0.221103,-0.424439 -0.3125,-0.65625 z m 9.0625,0 c -0.091396,0.231811 -0.189145,0.444149 -0.3125,0.65625 l 0.40625,0.4375 0.21875,-0.21875 c 0.166989,-0.166968 0.138571,-0.423927 -0.03125,-0.59375 l -0.28125,-0.28125 z"
       id="path3072"
       inkscape:connector-curvature="0" />
    <path
       style="opacity:0.15;fill:#ffffff;fill-opacity:1;fill-rule:nonzero;stroke:none;stroke-width:1;marker:none;visibility:visible;display:block;overflow:visible;enable-background:accumulate"
       d="m -12.625,8.125 -0.21875,0.21875 c -0.166988,0.166968 -0.138572,0.423928 0.03125,0.59375 l 0.28125,0.28125 c 0.0914,-0.231811 0.189145,-0.444149 0.3125,-0.65625 L -12.625,8.125 z m 9.25,0 -0.40625,0.4375 c 0.123355,0.212101 0.221104,0.424439 0.3125,0.65625 L -3.1875,8.9375 C -3.017699,8.767678 -2.989283,8.510718 -3.15625,8.34375 L -3.375,8.125 z M -8,9.1875 c -1.001299,0 -1.8125,0.811201 -1.8125,1.8125 0,0.169015 0.019193,0.344736 0.0625,0.5 0.213258,-0.76457 0.917716,-1.3125 1.75,-1.3125 0.832285,0 1.536743,0.54793 1.75,1.3125 0.043307,-0.155264 0.0625,-0.330985 0.0625,-0.5 0,-1.001299 -0.8112,-1.8125 -1.8125,-1.8125 z m -6,2.65625 0,1 c 0,0.236129 0.197335,0.40625 0.4375,0.40625 l 0.84375,0 c 0.04786,0.179606 0.119838,0.359638 0.1875,0.53125 l 0.3125,-0.34375 c -0.214676,-0.369121 -0.387503,-0.765285 -0.5,-1.1875 l -0.84375,0 C -13.802665,12.25 -14,12.079879 -14,11.84375 z m 12,0 C -2,12.079878 -2.197338,12.25 -2.4375,12.25 l -0.84375,0 c -0.112494,0.422215 -0.285324,0.818379 -0.5,1.1875 l 0.3125,0.34375 c 0.067661,-0.171612 0.139646,-0.351644 0.1875,-0.53125 l 0.84375,0 C -2.197338,13.25 -2,13.079878 -2,12.84375 l 0,-1 z m -10.625,3.03125 -0.1875,0.1875 c -0.1698,0.169823 -0.198217,0.426782 -0.03125,0.59375 l 1.1875,1.1875 c 0.08348,0.08348 0.202616,0.125927 0.3125,0.125 0.109883,-9.31e-4 0.19634,-0.07134 0.28125,-0.15625 l 0.625,-0.59375 c 0.369122,0.214677 0.765286,0.387506 1.1875,0.5 l 0,0.84375 C -9.25,17.802664 -9.07988,18 -8.84375,18 l 1.6875,0 C -6.920122,18 -6.75,17.802665 -6.75,17.5625 l 0,-0.84375 c 0.422214,-0.112494 0.818379,-0.285322 1.1875,-0.5 l 0.625,0.59375 c 0.169821,0.169801 0.426781,0.198218 0.59375,0.03125 l 1.1875,-1.1875 C -2.989261,15.489282 -3.017679,15.232323 -3.1875,15.0625 L -3.375,14.875 -4.34375,15.84375 c -0.166969,0.166968 -0.423929,0.138551 -0.59375,-0.03125 l -0.625,-0.59375 c -0.369121,0.214678 -0.765286,0.387506 -1.1875,0.5 l 0,0.84375 C -6.75,16.802665 -6.920122,17 -7.15625,17 l -1.6875,0 C -9.07988,17 -9.25,16.802664 -9.25,16.5625 l 0,-0.84375 c -0.422214,-0.112494 -0.818378,-0.285323 -1.1875,-0.5 l -0.625,0.59375 c -0.08491,0.08491 -0.171367,0.155319 -0.28125,0.15625 -0.109884,9.27e-4 -0.229017,-0.04152 -0.3125,-0.125 L -12.625,14.875 z"
       id="path3859"
       inkscape:connector-curvature="0" />
    <path
       inkscape:connector-curvature="0"
       style="opacity:1;fill:#bd8e48;fill-opacity:1;fill-rule:nonzero;stroke:none;stroke-width:1;marker:none;visibility:visible;display:block;overflow:visible;enable-background:accumulate"
       id="path3864"
       d="m 11.309596,16 c -0.196774,0 -0.356105,-0.163235 -0.356105,-0.363371 l 0,-0.704939 C 10.601647,14.83794 10.265458,14.696345 9.9578564,14.517447 l -0.501453,0.501452 c -0.070758,0.07076 -0.1555216,0.108235 -0.2470907,0.109011 -0.09157,7.73e-4 -0.1847898,-0.03218 -0.254359,-0.101744 L 7.973851,14.045065 C 7.834712,13.905925 7.8396012,13.685132 7.981101,13.543613 L 8.4825532,13.042162 C 8.3036566,12.734561 8.1620568,12.398371 8.0683093,12.046526 l -0.7049379,0 C 7.1632341,12.046526 7,11.887196 7,11.690423 l 0,-1.38081 C 7,10.11284 7.1632341,9.9535099 7.3633714,9.9535099 l 0.7049379,0 C 8.1620568,9.6016638 8.3036566,9.2654741 8.4825532,8.9578735 L 7.9811011,8.4564221 C 7.8395828,8.3149039 7.8346944,8.0941107 7.973851,7.9549708 L 8.9549537,6.9738689 C 9.094092,6.8347299 9.314886,6.839619 9.4564034,6.9811219 l 0.501453,0.5014484 C 10.265458,7.3036729 10.601647,7.162073 10.953491,7.0683281 l 0,-0.7049396 c 0,-0.2001374 0.159331,-0.3633705 0.356105,-0.3633705 l 1.38081,0 c 0.196771,0 0.356102,0.1632331 0.356102,0.3633705 l 0,0.7049396 c 0.351845,0.093745 0.688034,0.2353448 0.995636,0.4142422 L 14.543596,6.981119 c 0.141518,-0.1415183 0.362312,-0.1464075 0.501452,-0.00725 l 0.9811,0.9811019 c 0.13914,0.1391399 0.134251,0.3599331 -0.0073,0.5014513 L 15.5174,8.9578766 c 0.178898,0.3076006 0.320497,0.6437903 0.414243,0.9956364 l 0.704939,0 c 0.200135,0 0.363371,0.159329 0.363371,0.356103 l 0,1.38081 c 0,0.196772 -0.163236,0.356103 -0.363371,0.356103 l -0.704939,0 c -0.09374,0.351845 -0.235345,0.688035 -0.414242,0.995636 l 0.501451,0.501451 c 0.141517,0.141519 0.146408,0.362312 0.0073,0.501452 l -0.9811,0.981101 c -0.139141,0.13914 -0.359935,0.13425 -0.501452,-0.0073 l -0.501453,-0.501452 c -0.307601,0.178898 -0.643791,0.320498 -0.995635,0.414243 l 0,0.704938 c 0,0.200138 -0.159331,0.363372 -0.356103,0.363372 l -1.380809,0 z M 12,12.51164 c 0.834416,0 1.511623,-0.677207 1.511623,-1.511622 0,-0.834416 -0.677207,-1.5116226 -1.511623,-1.5116226 -0.834415,0 -1.511623,0.6772066 -1.511623,1.5116226 0,0.834415 0.677208,1.511622 1.511623,1.511622 z" />
    <path
       style="opacity:0.2;fill:#000000;fill-opacity:1;fill-rule:nonzero;stroke:none;stroke-width:1;marker:none;visibility:visible;display:block;overflow:visible;enable-background:accumulate"
       d="M 11.3125 8 C 11.115726 8 10.96875 8.1748626 10.96875 8.375 L 10.96875 9.0625 C 10.616906 9.1562449 10.276352 9.2898526 9.96875 9.46875 L 9.46875 8.96875 C 9.3272326 8.8272471 9.1078883 8.829611 8.96875 8.96875 L 7.96875 9.96875 C 7.8295934 10.10789 7.8272317 10.327232 7.96875 10.46875 L 8.46875 10.96875 C 8.2898534 11.276351 8.1562475 11.616904 8.0625 11.96875 L 7.375 11.96875 C 7.1748627 11.96875 7 12.115727 7 12.3125 L 7 13.6875 C 7 13.884273 7.1748627 14.03125 7.375 14.03125 L 8.0625 14.03125 C 8.1562475 14.383095 8.2898534 14.723649 8.46875 15.03125 L 7.96875 15.53125 C 7.8272502 15.672769 7.829611 15.89211 7.96875 16.03125 L 8.96875 17.03125 C 9.0383192 17.100814 9.12718 17.125773 9.21875 17.125 C 9.3103191 17.124224 9.397992 17.10201 9.46875 17.03125 L 9.96875 16.53125 C 10.276352 16.710148 10.616906 16.84375 10.96875 16.9375 L 10.96875 17.625 C 10.96875 17.825136 11.115726 18 11.3125 18 L 12.6875 18 C 12.884272 18 13.03125 17.825138 13.03125 17.625 L 13.03125 16.9375 C 13.383094 16.843755 13.723649 16.710148 14.03125 16.53125 L 14.53125 17.03125 C 14.672767 17.1728 14.892109 17.17039 15.03125 17.03125 L 16.03125 16.03125 C 16.170358 15.89211 16.172767 15.672769 16.03125 15.53125 L 15.53125 15.03125 C 15.710147 14.723649 15.84376 14.383095 15.9375 14.03125 L 16.625 14.03125 C 16.825135 14.03125 17 13.884272 17 13.6875 L 17 12.3125 C 17 12.115726 16.825135 11.96875 16.625 11.96875 L 15.9375 11.96875 C 15.843754 11.616904 15.710148 11.276351 15.53125 10.96875 L 16.03125 10.46875 C 16.172801 10.327232 16.17039 10.10789 16.03125 9.96875 L 15.03125 8.96875 C 14.89211 8.8295925 14.672768 8.8272317 14.53125 8.96875 L 14.03125 9.46875 C 13.723648 9.2898526 13.383095 9.156245 13.03125 9.0625 L 13.03125 8.375 C 13.03125 8.1748626 12.884271 8 12.6875 8 L 11.3125 8 z M 11.40625 8.4375 L 12.59375 8.4375 L 12.59375 9.0625 A 0.44254648 0.44254648 0 0 0 12.90625 9.5 C 13.225664 9.5851041 13.544826 9.6880743 13.8125 9.84375 A 0.44254648 0.44254648 0 0 0 14.34375 9.78125 L 14.78125 9.34375 L 15.65625 10.21875 L 15.21875 10.65625 A 0.44254648 0.44254648 0 0 0 15.15625 11.1875 C 15.311925 11.45517 15.414894 11.774333 15.5 12.09375 A 0.44254648 0.44254648 0 0 0 15.9375 12.40625 L 16.5625 12.40625 L 16.5625 13.59375 L 15.9375 13.59375 A 0.44254648 0.44254648 0 0 0 15.5 13.90625 C 15.414903 14.225656 15.311927 14.544824 15.15625 14.8125 A 0.44254648 0.44254648 0 0 0 15.21875 15.34375 L 15.65625 15.78125 L 14.78125 16.65625 L 14.34375 16.21875 A 0.44254648 0.44254648 0 0 0 13.8125 16.15625 C 13.544829 16.311925 13.225664 16.414896 12.90625 16.5 A 0.44254648 0.44254648 0 0 0 12.59375 16.9375 L 12.59375 17.5625 L 11.40625 17.5625 L 11.40625 16.9375 A 0.44254648 0.44254648 0 0 0 11.09375 16.5 C 10.774328 16.414889 10.45517 16.311924 10.1875 16.15625 A 0.44254648 0.44254648 0 0 0 9.65625 16.21875 L 9.21875 16.65625 L 8.34375 15.78125 L 8.78125 15.34375 A 0.44254648 0.44254648 0 0 0 8.84375 14.8125 C 8.6880759 14.544829 8.5851073 14.225667 8.5 13.90625 A 0.44254648 0.44254648 0 0 0 8.0625 13.59375 L 7.4375 13.59375 L 7.4375 12.40625 L 8.0625 12.40625 A 0.44254648 0.44254648 0 0 0 8.5 12.09375 C 8.5851073 11.774332 8.6880759 11.455171 8.84375 11.1875 A 0.44254648 0.44254648 0 0 0 8.78125 10.65625 L 8.34375 10.21875 L 9.21875 9.34375 L 9.65625 9.78125 A 0.44254648 0.44254648 0 0 0 10.1875 9.84375 C 10.455173 9.6880745 10.774337 9.5851041 11.09375 9.5 A 0.44254648 0.44254648 0 0 0 11.40625 9.0625 L 11.40625 8.4375 z M 12 11.0625 C 10.930273 11.0625 10.0625 11.930271 10.0625 13 C 10.0625 14.069728 10.930272 14.9375 12 14.9375 C 13.069729 14.9375 13.9375 14.069727 13.9375 13 C 13.9375 11.930272 13.069728 11.0625 12 11.0625 z M 12 11.5 C 12.834416 11.5 13.5 12.165584 13.5 13 C 13.5 13.834415 12.834416 14.5 12 14.5 C 11.165585 14.5 10.5 13.834415 10.5 13 C 10.5 12.165584 11.165585 11.5 12 11.5 z "
       transform="translate(0,-2)"
       id="path3871" />
    <path
       style="opacity:0.2;fill:#000000;fill-opacity:1;fill-rule:nonzero;stroke:none;stroke-width:1;marker:none;visibility:visible;display:block;overflow:visible;enable-background:accumulate"
       d="M 11.3125 8 C 11.115726 8 10.96875 8.1748626 10.96875 8.375 L 10.96875 9.0625 C 10.616906 9.1562449 10.276352 9.2898526 9.96875 9.46875 L 9.46875 8.96875 C 9.3272326 8.8272471 9.1078883 8.829611 8.96875 8.96875 L 7.96875 9.96875 C 7.8295934 10.10789 7.8272317 10.327232 7.96875 10.46875 L 8.21875 10.71875 L 8.96875 9.96875 C 9.1078883 9.829611 9.3272326 9.8272471 9.46875 9.96875 L 9.96875 10.46875 C 10.276352 10.289853 10.616906 10.156245 10.96875 10.0625 L 10.96875 9.375 C 10.96875 9.1748626 11.115726 9 11.3125 9 L 12.6875 9 C 12.884271 9 13.03125 9.1748626 13.03125 9.375 L 13.03125 10.0625 C 13.383095 10.156245 13.723648 10.289853 14.03125 10.46875 L 14.53125 9.96875 C 14.672768 9.8272317 14.89211 9.8295925 15.03125 9.96875 L 15.78125 10.71875 L 16.03125 10.46875 C 16.172801 10.327232 16.17039 10.10789 16.03125 9.96875 L 15.03125 8.96875 C 14.89211 8.8295925 14.672768 8.8272317 14.53125 8.96875 L 14.03125 9.46875 C 13.723648 9.2898526 13.383095 9.156245 13.03125 9.0625 L 13.03125 8.375 C 13.03125 8.1748626 12.884271 8 12.6875 8 L 11.3125 8 z M 8.15625 11.65625 C 8.1213846 11.755082 8.0896147 11.866985 8.0625 11.96875 L 7.375 11.96875 C 7.1748627 11.96875 7 12.115727 7 12.3125 L 7 13.3125 C 7 13.115727 7.1748627 12.96875 7.375 12.96875 L 8.0625 12.96875 C 8.1562475 12.616904 8.2898534 12.27635 8.46875 11.96875 L 8.15625 11.65625 z M 15.84375 11.65625 L 15.53125 11.96875 C 15.710148 12.27635 15.843754 12.616904 15.9375 12.96875 L 16.625 12.96875 C 16.825135 12.96875 17 13.115726 17 13.3125 L 17 12.3125 C 17 12.115726 16.825135 11.96875 16.625 11.96875 L 15.9375 11.96875 C 15.910386 11.866985 15.878615 11.755082 15.84375 11.65625 z M 10.5625 13.5 C 10.508902 13.654864 10.5 13.826981 10.5 14 C 10.5 14.834415 11.165585 15.5 12 15.5 C 12.834416 15.5 13.5 14.834415 13.5 14 C 13.5 13.826981 13.491097 13.654864 13.4375 13.5 C 13.232613 14.091998 12.661397 14.5 12 14.5 C 11.338603 14.5 10.767387 14.091998 10.5625 13.5 z M 8.15625 15.34375 L 7.96875 15.53125 C 7.8272502 15.672769 7.829611 15.89211 7.96875 16.03125 L 8.21875 16.28125 L 8.46875 16.03125 C 8.3415958 15.812617 8.2419298 15.586625 8.15625 15.34375 z M 15.84375 15.34375 C 15.758071 15.586625 15.658404 15.812617 15.53125 16.03125 L 15.78125 16.28125 L 16.03125 16.03125 C 16.170358 15.89211 16.172767 15.672769 16.03125 15.53125 L 15.84375 15.34375 z "
       transform="translate(0,-2)"
       id="path3866" />
    <path
       style="fill:#ffffff;fill-opacity:1;fill-rule:nonzero;stroke:none;stroke-width:1;marker:none;visibility:visible;display:block;overflow:visible;enable-background:accumulate;opacity:0.15"
       d="M 8.21875 10.71875 L 7.96875 10.96875 C 7.8295934 11.10789 7.8272317 11.327232 7.96875 11.46875 L 8.15625 11.65625 C 8.2419298 11.413375 8.3415958 11.187383 8.46875 10.96875 L 8.21875 10.71875 z M 15.78125 10.71875 L 15.53125 10.96875 C 15.658405 11.187383 15.758071 11.413375 15.84375 11.65625 L 16.03125 11.46875 C 16.172801 11.327232 16.17039 11.10789 16.03125 10.96875 L 15.78125 10.71875 z M 12 11.5 C 11.165585 11.5 10.5 12.165584 10.5 13 C 10.5 13.173018 10.508902 13.345136 10.5625 13.5 C 10.767387 12.908001 11.338603 12.5 12 12.5 C 12.661397 12.5 13.232613 12.908001 13.4375 13.5 C 13.491097 13.345136 13.5 13.173018 13.5 13 C 13.5 12.165584 12.834416 11.5 12 11.5 z M 7 13.6875 L 7 14.6875 C 7 14.884273 7.1748627 15.03125 7.375 15.03125 L 8.0625 15.03125 C 8.0896147 15.133014 8.1213846 15.244918 8.15625 15.34375 L 8.46875 15.03125 C 8.2898534 14.723649 8.1562475 14.383095 8.0625 14.03125 L 7.375 14.03125 C 7.1748627 14.03125 7 13.884273 7 13.6875 z M 17 13.6875 C 17 13.884272 16.825135 14.03125 16.625 14.03125 L 15.9375 14.03125 C 15.84376 14.383095 15.710147 14.723649 15.53125 15.03125 L 15.84375 15.34375 C 15.878615 15.244918 15.910388 15.133014 15.9375 15.03125 L 16.625 15.03125 C 16.825135 15.03125 17 14.884272 17 14.6875 L 17 13.6875 z M 8.21875 16.28125 L 7.96875 16.53125 C 7.8272502 16.672769 7.829611 16.89211 7.96875 17.03125 L 8.96875 18.03125 C 9.0383192 18.100814 9.12718 18.125773 9.21875 18.125 C 9.3103191 18.124224 9.397992 18.10201 9.46875 18.03125 L 9.96875 17.53125 C 10.276352 17.710148 10.616906 17.84375 10.96875 17.9375 L 10.96875 18.625 C 10.96875 18.825136 11.115726 19 11.3125 19 L 12.6875 19 C 12.884272 19 13.03125 18.825138 13.03125 18.625 L 13.03125 17.9375 C 13.383094 17.843755 13.723649 17.710148 14.03125 17.53125 L 14.53125 18.03125 C 14.672767 18.1728 14.892109 18.17039 15.03125 18.03125 L 16.03125 17.03125 C 16.170358 16.89211 16.172767 16.672769 16.03125 16.53125 L 15.78125 16.28125 L 15.03125 17.03125 C 14.892109 17.17039 14.672767 17.1728 14.53125 17.03125 L 14.03125 16.53125 C 13.723649 16.710148 13.383094 16.843755 13.03125 16.9375 L 13.03125 17.625 C 13.03125 17.825138 12.884272 18 12.6875 18 L 11.3125 18 C 11.115726 18 10.96875 17.825136 10.96875 17.625 L 10.96875 16.9375 C 10.616906 16.84375 10.276352 16.710148 9.96875 16.53125 L 9.46875 17.03125 C 9.397992 17.10201 9.3103191 17.124224 9.21875 17.125 C 9.12718 17.125773 9.0383192 17.100814 8.96875 17.03125 L 8.21875 16.28125 z "
       transform="translate(0,-2)"
       id="path3878" />
  </g>
</svg>
