<?xml version="1.0" encoding="UTF-8" standalone="no"?>
<!-- Created with Inkscape (http://www.inkscape.org/) -->

<svg
   xmlns:dc="http://purl.org/dc/elements/1.1/"
   xmlns:cc="http://creativecommons.org/ns#"
   xmlns:rdf="http://www.w3.org/1999/02/22-rdf-syntax-ns#"
   xmlns:svg="http://www.w3.org/2000/svg"
   xmlns="http://www.w3.org/2000/svg"
   xmlns:xlink="http://www.w3.org/1999/xlink"
   xmlns:sodipodi="http://sodipodi.sourceforge.net/DTD/sodipodi-0.dtd"
   xmlns:inkscape="http://www.inkscape.org/namespaces/inkscape"
   width="22"
   height="22"
   id="svg2"
   sodipodi:version="0.32"
   inkscape:version="0.48.1 r9760"
   version="1.0"
   sodipodi:docname="start-here-archlinux.svg"
   inkscape:output_extension="org.inkscape.output.svg.inkscape"
   style="display:inline">
  <defs
     id="defs4">
    <linearGradient
       id="linearGradient3722">
      <stop
         id="stop3724"
         offset="0"
         style="stop-color:#aaaaaa;stop-opacity:1;" />
      <stop
         id="stop3726"
         offset="1"
         style="stop-color:#f0f0f0;stop-opacity:1;" />
    </linearGradient>
    <linearGradient
       id="linearGradient3295">
      <stop
         style="stop-color:#559829;stop-opacity:1;"
         offset="0"
         id="stop3297" />
      <stop
         style="stop-color:#86c837;stop-opacity:1;"
         offset="1"
         id="stop3299" />
    </linearGradient>
    <linearGradient
       id="linearGradient3287">
      <stop
         style="stop-color:#cd0000;stop-opacity:1;"
         offset="0"
         id="stop3289" />
      <stop
         style="stop-color:#e55300;stop-opacity:1;"
         offset="1"
         id="stop3291" />
    </linearGradient>
    <linearGradient
       id="linearGradient3279">
      <stop
         style="stop-color:#f08e00;stop-opacity:1;"
         offset="0"
         id="stop3281" />
      <stop
         style="stop-color:#ffd200;stop-opacity:1;"
         offset="1"
         id="stop3283" />
    </linearGradient>
    <linearGradient
       id="linearGradient3271">
      <stop
         style="stop-color:#395d93;stop-opacity:1;"
         offset="0"
         id="stop3273" />
      <stop
         style="stop-color:#6e92c7;stop-opacity:1;"
         offset="1"
         id="stop3275" />
    </linearGradient>
    <linearGradient
       inkscape:collect="always"
       id="linearGradient3327">
      <stop
         style="stop-color:#000000;stop-opacity:1;"
         offset="0"
         id="stop3330" />
      <stop
         style="stop-color:#000000;stop-opacity:0;"
         offset="1"
         id="stop3333" />
    </linearGradient>
    <linearGradient
       inkscape:collect="always"
       xlink:href="#linearGradient3327"
       id="linearGradient3335"
       x1="11.375"
       y1="22"
       x2="11.375"
       y2="-9.817296"
       gradientUnits="userSpaceOnUse" />
    <inkscape:perspective
       sodipodi:type="inkscape:persp3d"
       inkscape:vp_x="0 : 11 : 1"
       inkscape:vp_y="0 : 1000 : 0"
       inkscape:vp_z="22 : 11 : 1"
       inkscape:persp3d-origin="11 : 7.3333333 : 1"
       id="perspective102" />
    <linearGradient
       id="linearGradient4081">
      <stop
         style="stop-color:#aaaaaa;stop-opacity:1;"
         offset="0"
         id="stop4083" />
      <stop
         style="stop-color:#f0f0f0;stop-opacity:1;"
         offset="1"
         id="stop4085" />
    </linearGradient>
    <linearGradient
       id="linearGradient4057">
      <stop
         style="stop-color:#816647;stop-opacity:1;"
         offset="0"
         id="stop4059" />
      <stop
         style="stop-color:#a6845d;stop-opacity:1;"
         offset="1"
         id="stop4061" />
    </linearGradient>
    <linearGradient
       id="linearGradient3929">
      <stop
         style="stop-color:#000000;stop-opacity:1;"
         offset="0"
         id="stop3931" />
      <stop
         style="stop-color:#000000;stop-opacity:0;"
         offset="1"
         id="stop3933" />
    </linearGradient>
    <linearGradient
       inkscape:collect="always"
       xlink:href="#linearGradient3929"
       id="linearGradient4051"
       x1="9.494998"
       y1="15.516565"
       x2="9.494998"
       y2="-4.1786065"
       gradientUnits="userSpaceOnUse" />
    <linearGradient
       inkscape:collect="always"
       xlink:href="#linearGradient4057"
       id="linearGradient4063"
       x1="9.17138"
       y1="21.000002"
       x2="9.17138"
       y2="0.97239029"
       gradientUnits="userSpaceOnUse" />
    <linearGradient
       inkscape:collect="always"
       xlink:href="#linearGradient4081"
       id="linearGradient4089"
       x1="6.101758"
       y1="154.58195"
       x2="6.101758"
       y2="36.995476"
       gradientUnits="userSpaceOnUse" />
    <linearGradient
       inkscape:collect="always"
       xlink:href="#linearGradient4081"
       id="linearGradient4103"
       gradientUnits="userSpaceOnUse"
       x1="6.101758"
       y1="154.58195"
       x2="6.101758"
       y2="36.995476" />
    <linearGradient
       inkscape:collect="always"
       xlink:href="#linearGradient4081"
       id="linearGradient4105"
       gradientUnits="userSpaceOnUse"
       x1="6.101758"
       y1="154.58195"
       x2="6.101758"
       y2="36.995476" />
    <linearGradient
       inkscape:collect="always"
       xlink:href="#linearGradient4081"
       id="linearGradient4107"
       gradientUnits="userSpaceOnUse"
       x1="6.101758"
       y1="154.58195"
       x2="6.101758"
       y2="36.995476" />
    <linearGradient
       inkscape:collect="always"
       xlink:href="#linearGradient4081"
       id="linearGradient4109"
       gradientUnits="userSpaceOnUse"
       x1="6.101758"
       y1="154.58195"
       x2="6.101758"
       y2="36.995476" />
    <linearGradient
       inkscape:collect="always"
       xlink:href="#linearGradient4081"
       id="linearGradient4111"
       gradientUnits="userSpaceOnUse"
       x1="6.101758"
       y1="154.58195"
       x2="6.101758"
       y2="36.995476" />
    <linearGradient
       inkscape:collect="always"
       xlink:href="#linearGradient4081"
       id="linearGradient4113"
       gradientUnits="userSpaceOnUse"
       x1="6.101758"
       y1="154.58195"
       x2="6.101758"
       y2="36.995476" />
    <linearGradient
       inkscape:collect="always"
       xlink:href="#linearGradient4081"
       id="linearGradient4115"
       gradientUnits="userSpaceOnUse"
       x1="6.101758"
       y1="154.58195"
       x2="6.101758"
       y2="36.995476" />
    <linearGradient
       inkscape:collect="always"
       xlink:href="#linearGradient4081"
       id="linearGradient4117"
       gradientUnits="userSpaceOnUse"
       x1="6.101758"
       y1="154.58195"
       x2="6.101758"
       y2="36.995476" />
    <linearGradient
       inkscape:collect="always"
       xlink:href="#linearGradient4081"
       id="linearGradient4119"
       gradientUnits="userSpaceOnUse"
       x1="6.101758"
       y1="154.58195"
       x2="6.101758"
       y2="36.995476" />
    <linearGradient
       inkscape:collect="always"
       xlink:href="#linearGradient4081"
       id="linearGradient4121"
       gradientUnits="userSpaceOnUse"
       x1="6.101758"
       y1="154.58195"
       x2="6.101758"
       y2="36.995476" />
    <linearGradient
       inkscape:collect="always"
       xlink:href="#linearGradient4081"
       id="linearGradient4123"
       gradientUnits="userSpaceOnUse"
       x1="6.101758"
       y1="154.58195"
       x2="6.101758"
       y2="36.995476" />
    <linearGradient
       inkscape:collect="always"
       xlink:href="#linearGradient4081"
       id="linearGradient4125"
       gradientUnits="userSpaceOnUse"
       x1="6.101758"
       y1="154.58195"
       x2="6.101758"
       y2="36.995476" />
    <linearGradient
       inkscape:collect="always"
       xlink:href="#linearGradient4081"
       id="linearGradient4127"
       gradientUnits="userSpaceOnUse"
       x1="6.101758"
       y1="154.58195"
       x2="6.101758"
       y2="36.995476" />
    <linearGradient
       inkscape:collect="always"
       xlink:href="#linearGradient4081"
       id="linearGradient4129"
       gradientUnits="userSpaceOnUse"
       x1="6.101758"
       y1="154.58195"
       x2="6.101758"
       y2="36.995476" />
    <linearGradient
       inkscape:collect="always"
       xlink:href="#linearGradient4081"
       id="linearGradient4132"
       gradientUnits="userSpaceOnUse"
       x1="6.101758"
       y1="154.58195"
       x2="6.101758"
       y2="36.995476"
       gradientTransform="matrix(0.1317916,0,0,0.1317916,11.619896,-1.9882468)" />
    <linearGradient
       inkscape:collect="always"
       xlink:href="#linearGradient4081"
       id="linearGradient4141"
       gradientUnits="userSpaceOnUse"
       x1="6.101758"
       y1="154.58195"
       x2="6.101758"
       y2="36.995476"
       gradientTransform="matrix(0.1317916,0,0,0.1317916,11.619896,-1.9882468)" />
    <linearGradient
       inkscape:collect="always"
       xlink:href="#linearGradient4081"
       id="linearGradient4148"
       gradientUnits="userSpaceOnUse"
       x1="6.101758"
       y1="154.58195"
       x2="6.101758"
       y2="36.995476"
       gradientTransform="matrix(0.1317916,0,0,0.1317916,11.619896,-1.9882468)" />
    <linearGradient
       inkscape:collect="always"
       xlink:href="#linearGradient4081"
       id="linearGradient4158"
       gradientUnits="userSpaceOnUse"
       x1="6.101758"
       y1="154.58195"
       x2="6.101758"
       y2="36.995476"
       gradientTransform="matrix(0.1317916,0,0,0.1317916,11.619896,-1.9882468)" />
    <linearGradient
       inkscape:collect="always"
       xlink:href="#linearGradient4081"
       id="linearGradient4180"
       gradientUnits="userSpaceOnUse"
       x1="6.101758"
       y1="154.58195"
       x2="6.101758"
       y2="36.995476" />
    <linearGradient
       inkscape:collect="always"
       xlink:href="#linearGradient4081"
       id="linearGradient4182"
       gradientUnits="userSpaceOnUse"
       gradientTransform="matrix(0.1317916,0,0,0.1317916,11.619896,-1.9882468)"
       x1="6.101758"
       y1="154.58195"
       x2="6.101758"
       y2="36.995476" />
    <linearGradient
       inkscape:collect="always"
       xlink:href="#linearGradient4081"
       id="linearGradient4184"
       gradientUnits="userSpaceOnUse"
       x1="6.101758"
       y1="154.58195"
       x2="6.101758"
       y2="36.995476" />
    <linearGradient
       inkscape:collect="always"
       xlink:href="#linearGradient4081"
       id="linearGradient4186"
       gradientUnits="userSpaceOnUse"
       gradientTransform="matrix(0.1317916,0,0,0.1317916,11.619896,-1.9882468)"
       x1="6.101758"
       y1="154.58195"
       x2="6.101758"
       y2="36.995476" />
    <linearGradient
       inkscape:collect="always"
       xlink:href="#linearGradient4081"
       id="linearGradient2480"
       gradientUnits="userSpaceOnUse"
       gradientTransform="matrix(0.1256322,0,0,0.1256322,11.921746,-1.0005124)"
       x1="6.101758"
       y1="154.58195"
       x2="6.101758"
       y2="36.995476" />
    <linearGradient
       inkscape:collect="always"
       xlink:href="#linearGradient4081"
       id="linearGradient2483"
       gradientUnits="userSpaceOnUse"
       gradientTransform="matrix(0.1256322,0,0,0.1256322,11.921746,-1.0005124)"
       x1="6.101758"
       y1="154.58195"
       x2="6.101758"
       y2="36.995476" />
    <linearGradient
       inkscape:collect="always"
       xlink:href="#linearGradient4081"
       id="linearGradient2489"
       gradientUnits="userSpaceOnUse"
       gradientTransform="matrix(0.1256322,0,0,0.1256322,11.921746,-1.0005124)"
       x1="6.101758"
       y1="154.58195"
       x2="6.101758"
       y2="36.995476" />
    <linearGradient
       inkscape:collect="always"
       xlink:href="#linearGradient4081"
       id="linearGradient2495"
       gradientUnits="userSpaceOnUse"
       gradientTransform="matrix(0.1256322,0,0,0.1256322,11.921746,-1.0005124)"
       x1="6.101758"
       y1="154.58195"
       x2="6.101758"
       y2="36.995476" />
    <linearGradient
       inkscape:collect="always"
       xlink:href="#linearGradient4081"
       id="linearGradient2498"
       gradientUnits="userSpaceOnUse"
       gradientTransform="matrix(0.1256322,0,0,0.1256322,11.921746,-1.0005124)"
       x1="6.101758"
       y1="154.58195"
       x2="6.101758"
       y2="36.995476" />
    <linearGradient
       inkscape:collect="always"
       xlink:href="#linearGradient4081"
       id="linearGradient2501"
       gradientUnits="userSpaceOnUse"
       gradientTransform="matrix(0.1256322,0,0,0.1256322,11.921746,-1.0005124)"
       x1="6.101758"
       y1="154.58195"
       x2="6.101758"
       y2="36.995476" />
    <linearGradient
       inkscape:collect="always"
       xlink:href="#linearGradient4081"
       id="linearGradient2504"
       gradientUnits="userSpaceOnUse"
       gradientTransform="matrix(0.1256322,0,0,0.1256322,11.921746,-1.0005124)"
       x1="6.101758"
       y1="154.58195"
       x2="6.101758"
       y2="36.995476" />
    <linearGradient
       inkscape:collect="always"
       xlink:href="#linearGradient4081"
       id="linearGradient2506"
       gradientUnits="userSpaceOnUse"
       x1="6.101758"
       y1="154.58195"
       x2="6.101758"
       y2="36.995476" />
    <linearGradient
       inkscape:collect="always"
       xlink:href="#linearGradient4081"
       id="linearGradient2508"
       gradientUnits="userSpaceOnUse"
       gradientTransform="matrix(0.1317916,0,0,0.1317916,11.619896,-1.9882468)"
       x1="6.101758"
       y1="154.58195"
       x2="6.101758"
       y2="36.995476" />
    <linearGradient
       inkscape:collect="always"
       xlink:href="#linearGradient4081"
       id="linearGradient2510"
       gradientUnits="userSpaceOnUse"
       gradientTransform="matrix(0.1317916,0,0,0.1317916,11.619896,-1.9882468)"
       x1="6.101758"
       y1="154.58195"
       x2="6.101758"
       y2="36.995476" />
    <clipPath
       clipPathUnits="userSpaceOnUse"
       id="clipPath4974">
      <path
         id="path4976"
         d="M 16.625,2 C 15.93281,2.046173 15.13978,2.350316 14.5,2.875 C 13.716105,3.517873 13.079371,5.1522168 13.25,6.0625 C 13.337976,6.531842 13.692147,7.1029241 14.03125,7.28125 C 14.662734,7.613335 15.813682,7.0624791 16.875,5.9375 C 18.021489,4.722239 18.547995,3.383178 18.15625,2.625 C 17.915497,2.159052 17.31719,1.953827 16.625,2 z M 10.96875,2.71875 C 10.005789,2.719616 9.496306,3.3967078 9.5,4.6875 C 9.502528,5.57142 9.81322,6.3666318 10.21875,6.5625 C 10.520262,6.708131 10.527801,6.6945361 10.90625,6.5625 C 11.533114,6.343793 12.122053,4.8839409 12,3.90625 C 11.900109,3.106091 11.556193,2.7182209 10.96875,2.71875 z M 7.15625,4.03125 C 6.976067,4.0573035 6.795347,4.173262 6.625,4.34375 C 6.281636,4.687396 6.277056,4.8747068 6.28125,5.53125 C 6.286196,6.305553 6.475145,6.7277249 7,7.28125 C 7.392601,7.695296 7.675716,7.7200481 8.03125,7.34375 C 8.416388,6.936117 8.535971,6.296057 8.40625,5.59375 C 8.208416,4.5226825 7.696799,3.9530895 7.15625,4.03125 z M 4.46875,6.375 C 4.281799,6.4054104 4.1133,6.5115553 3.9375,6.6875 C 3.476154,7.14923 3.798831,8.4188978 4.53125,9.0625 C 5.405425,9.830669 6.111327,9.1273309 5.8125,7.78125 C 5.599846,6.8233425 5.029603,6.2837687 4.46875,6.375 z M 12.5,8.0625 C 11.88094,8.0518483 11.187196,8.1034691 10.46875,8.25 C 8.61799,8.627471 7.13709,9.3254488 6.1875,10.28125 C 5.640611,10.831715 5.327697,11.341306 5.0625,12.125 C 4.420581,14.021963 5.609396,16.720678 7.875,18.5625 C 8.719088,19.248703 9.234152,19.555813 10.09375,19.84375 C 10.539486,19.993058 10.892913,20.027742 11.71875,20 C 12.665466,19.968192 12.858002,19.925916 13.46875,19.625 C 14.363786,19.184011 15.378303,18.163965 15.8125,17.28125 C 16.077385,16.74275 16.119821,16.512622 16.09375,16.0625 C 16.049227,15.293922 15.751092,15.084744 14.78125,15.09375 C 13.39673,15.106604 12.815494,15.427682 12.53125,16.40625 C 12.31656,17.145368 12.079212,17.40625 11.59375,17.40625 C 10.824382,17.40625 10.03125,16.794459 10.03125,16.15625 C 10.03125,15.712256 10.746563,15.05048 12.53125,13.84375 C 15.045366,12.14381 15.909739,11.109639 15.78125,9.96875 C 15.64852,8.7901993 14.35718,8.0944552 12.5,8.0625 z"
         style="fill:#ffffff;fill-opacity:1;stroke:none;stroke-width:0.5;stroke-miterlimit:4;stroke-dasharray:none;stroke-opacity:1" />
    </clipPath>
    <clipPath
       clipPathUnits="userSpaceOnUse"
       id="clipPath4995">
      <path
         style="opacity:1;fill:#ffffff;fill-opacity:1;fill-rule:nonzero;stroke:none;stroke-width:1;stroke-linecap:square;stroke-linejoin:miter;stroke-miterlimit:4;stroke-dasharray:none;stroke-dashoffset:0;stroke-opacity:0;display:inline"
         d="M 30,0 L 30,22 L 52,22 L 52,0 L 30,0 z M 46.625,2 C 47.31719,1.953827 47.915497,2.159052 48.15625,2.625 C 48.547995,3.383178 48.021489,4.722239 46.875,5.9375 C 45.813682,7.0624791 44.662734,7.613335 44.03125,7.28125 C 43.692147,7.1029241 43.337976,6.531842 43.25,6.0625 C 43.079371,5.1522168 43.716105,3.517873 44.5,2.875 C 45.13978,2.350316 45.93281,2.046173 46.625,2 z M 40.96875,2.71875 C 41.556193,2.7182209 41.900109,3.106091 42,3.90625 C 42.122053,4.8839409 41.533114,6.343793 40.90625,6.5625 C 40.527801,6.6945361 40.520262,6.708131 40.21875,6.5625 C 39.81322,6.3666318 39.502528,5.57142 39.5,4.6875 C 39.496306,3.3967078 40.005789,2.719616 40.96875,2.71875 z M 37.15625,4.03125 C 37.696799,3.9530895 38.208416,4.5226825 38.40625,5.59375 C 38.535971,6.296057 38.416388,6.936117 38.03125,7.34375 C 37.675716,7.7200481 37.392601,7.695296 37,7.28125 C 36.475145,6.7277249 36.286196,6.305553 36.28125,5.53125 C 36.277056,4.8747068 36.281636,4.687396 36.625,4.34375 C 36.795347,4.173262 36.976067,4.0573035 37.15625,4.03125 z M 34.46875,6.375 C 35.029603,6.2837687 35.599846,6.8233425 35.8125,7.78125 C 36.111327,9.1273309 35.405425,9.830669 34.53125,9.0625 C 33.798831,8.4188978 33.476154,7.14923 33.9375,6.6875 C 34.1133,6.5115553 34.281799,6.4054104 34.46875,6.375 z M 42.5,8.0625 C 44.35718,8.0944552 45.64852,8.7901993 45.78125,9.96875 C 45.909739,11.109639 45.045366,12.14381 42.53125,13.84375 C 40.746563,15.05048 40.03125,15.712256 40.03125,16.15625 C 40.03125,16.794459 40.824382,17.40625 41.59375,17.40625 C 42.079212,17.40625 42.31656,17.145368 42.53125,16.40625 C 42.815494,15.427682 43.39673,15.106604 44.78125,15.09375 C 45.751092,15.084744 46.049227,15.293922 46.09375,16.0625 C 46.119821,16.512622 46.077385,16.74275 45.8125,17.28125 C 45.378303,18.163965 44.363786,19.184011 43.46875,19.625 C 42.858002,19.925916 42.665466,19.968192 41.71875,20 C 40.892913,20.027742 40.539486,19.993058 40.09375,19.84375 C 39.234152,19.555813 38.719088,19.248703 37.875,18.5625 C 35.609396,16.720678 34.420581,14.021963 35.0625,12.125 C 35.327697,11.341306 35.640611,10.831715 36.1875,10.28125 C 37.13709,9.3254488 38.61799,8.627471 40.46875,8.25 C 41.187196,8.1034691 41.88094,8.0518483 42.5,8.0625 z"
         id="path4997" />
    </clipPath>
    <linearGradient
       inkscape:collect="always"
       xlink:href="#StandardGradient-1"
       id="linearGradient5065"
       gradientUnits="userSpaceOnUse"
       x1="10"
       y1="3"
       x2="10"
       y2="7" />
    <linearGradient
       inkscape:collect="always"
       xlink:href="#StandardGradient-1"
       id="linearGradient5068"
       gradientUnits="userSpaceOnUse"
       x1="16"
       y1="2"
       x2="16"
       y2="7" />
    <linearGradient
       inkscape:collect="always"
       xlink:href="#StandardGradient-1"
       id="linearGradient5071"
       gradientUnits="userSpaceOnUse"
       x1="6"
       y1="4"
       x2="6"
       y2="8" />
    <linearGradient
       inkscape:collect="always"
       xlink:href="#StandardGradient-1"
       id="linearGradient5074"
       gradientUnits="userSpaceOnUse"
       x1="4"
       y1="7"
       x2="4"
       y2="9" />
    <linearGradient
       inkscape:collect="always"
       xlink:href="#StandardGradient-1"
       id="linearGradient5077"
       gradientUnits="userSpaceOnUse"
       x1="12"
       y1="8"
       x2="12"
       y2="20.041595" />
    <inkscape:perspective
       id="perspective4374"
       inkscape:persp3d-origin="0.5 : 0.33333333 : 1"
       inkscape:vp_z="1 : 0.5 : 1"
       inkscape:vp_y="0 : 1000 : 0"
       inkscape:vp_x="0 : 0.5 : 1"
       sodipodi:type="inkscape:persp3d" />
    <linearGradient
       inkscape:collect="always"
       xlink:href="#StandardGradient-1"
       id="linearGradient3833-8"
       x1="54"
       y1="3.5"
       x2="59"
       y2="3.5"
       gradientUnits="userSpaceOnUse"
       gradientTransform="translate(-53,53)" />
    <linearGradient
       id="StandardGradient-1"
       gradientTransform="matrix(0.9984539,0,0,0.9984539,-0.0459776,0.05767558)"
       x1="10.710332"
       y1="1.9963325"
       x2="10.710332"
       y2="18.974037"
       gradientUnits="userSpaceOnUse">
      <stop
         style="stop-color:#000000;stop-opacity:0.86274511;"
         offset="0"
         id="stop3277-4" />
      <stop
         style="stop-color:#000000;stop-opacity:0.47058824;"
         offset="1"
         id="stop3279-3" />
    </linearGradient>
    <linearGradient
       y2="3.5"
       x2="59"
       y1="3.5"
       x1="54"
       gradientTransform="translate(-45,53)"
       gradientUnits="userSpaceOnUse"
       id="linearGradient3829-0"
       xlink:href="#SpecificGradient-5"
       inkscape:collect="always" />
    <linearGradient
       id="SpecificGradient-5"
       x1="10.761708"
       y1="3.9999998"
       x2="10.761708"
       y2="18.011395"
       gradientUnits="userSpaceOnUse">
      <stop
         style="stop-color:#a50000;stop-opacity:1;"
         offset="0"
         id="stop3292-8" />
      <stop
         style="stop-color:#e73800;stop-opacity:1;"
         offset="1"
         id="stop3294-0" />
    </linearGradient>
    <linearGradient
       inkscape:collect="always"
       xlink:href="#StandardGradient-1"
       id="linearGradient3738"
       gradientUnits="userSpaceOnUse"
       x1="12"
       y1="8"
       x2="12"
       y2="20.041595" />
    <linearGradient
       inkscape:collect="always"
       xlink:href="#StandardGradient-1"
       id="linearGradient3741"
       gradientUnits="userSpaceOnUse"
       x1="12"
       y1="8"
       x2="12"
       y2="20.041595"
       gradientTransform="translate(-30,0)" />
    <linearGradient
       inkscape:collect="always"
       xlink:href="#StandardGradient-1"
       id="linearGradient3747"
       gradientUnits="userSpaceOnUse"
       x1="12"
       y1="8"
       x2="12"
       y2="20.041595"
       gradientTransform="translate(0,1)" />
    <linearGradient
       inkscape:collect="always"
       xlink:href="#StandardGradient-1"
       id="linearGradient3751"
       gradientUnits="userSpaceOnUse"
       x1="12"
       y1="8"
       x2="12"
       y2="20.041595" />
    <clipPath
       clipPathUnits="userSpaceOnUse"
       id="clipPath3758">
      <path
         style="fill:#ff00ff;fill-opacity:1;stroke:none;display:inline"
         d="m -30,0 0,22 22,0 0,-22 -22,0 z m 16.625,2 c 0.69219,-0.046173 1.290497,0.159052 1.53125,0.625 0.391745,0.758178 -0.134761,2.097239 -1.28125,3.3125 -1.061318,1.124979 -2.212266,1.675835 -2.84375,1.34375 C -16.307853,7.102924 -16.66202,6.531842 -16.75,6.0625 -16.920629,5.152217 -16.283895,3.517873 -15.5,2.875 -14.86022,2.350316 -14.06719,2.046173 -13.375,2 z m -5.65625,0.71875 c 0.587443,-5.29e-4 0.93136,0.387341 1.03125,1.1875 0.122053,0.977691 -0.466886,2.437543 -1.09375,2.65625 -0.378449,0.132036 -0.385988,0.145631 -0.6875,0 -0.40553,-0.195868 -0.71625,-0.99108 -0.71875,-1.875 -0.0037,-1.290792 0.505789,-1.967884 1.46875,-1.96875 z m -3.8125,1.3125 c 0.540549,-0.078161 1.052166,0.4914325 1.25,1.5625 0.129721,0.702307 0.01014,1.342367 -0.375,1.75 -0.355534,0.376298 -0.638649,0.351546 -1.03125,-0.0625 -0.524855,-0.553525 -0.71385,-0.975697 -0.71875,-1.75 -0.0042,-0.656543 3.86e-4,-0.843854 0.34375,-1.1875 0.170347,-0.170488 0.351067,-0.286447 0.53125,-0.3125 z m -2.6875,2.34375 c 0.560853,-0.091231 1.131096,0.4483425 1.34375,1.40625 0.298827,1.346081 -0.407075,2.049419 -1.28125,1.28125 -0.732419,-0.643602 -1.055096,-1.91327 -0.59375,-2.375 0.1758,-0.1759448 0.344299,-0.282089 0.53125,-0.3125 z M -17.5,8.0625 c 1.85718,0.031955 3.14852,0.7276993 3.28125,1.90625 0.128489,1.140889 -0.735884,2.17506 -3.25,3.875 -1.784687,1.20673 -2.5,1.868506 -2.5,2.3125 0,0.638209 0.793132,1.25 1.5625,1.25 0.485462,0 0.72281,-0.260882 0.9375,-1 0.284244,-0.978569 0.86548,-1.29965 2.25,-1.3125 0.969842,-0.009 1.26798,0.200172 1.3125,0.96875 0.02607,0.450123 -0.01637,0.68025 -0.28125,1.21875 -0.434197,0.882715 -1.448714,1.902761 -2.34375,2.34375 -0.610748,0.30092 -0.803284,0.34319 -1.75,0.375 -0.825837,0.02774 -1.179264,-0.0069 -1.625,-0.15625 -0.859598,-0.287937 -1.374662,-0.595047 -2.21875,-1.28125 -2.265604,-1.841822 -3.454419,-4.540537 -2.8125,-6.4375 0.265198,-0.783694 0.578111,-1.293285 1.125,-1.84375 0.94959,-0.9558013 2.43049,-1.653779 4.28125,-2.03125 0.718447,-0.146531 1.41219,-0.198152 2.03125,-0.1875 z"
         id="path3760" />
    </clipPath>
    <inkscape:perspective
       id="perspective3839"
       inkscape:persp3d-origin="0.5 : 0.33333333 : 1"
       inkscape:vp_z="1 : 0.5 : 1"
       inkscape:vp_y="0 : 1000 : 0"
       inkscape:vp_x="0 : 0.5 : 1"
       sodipodi:type="inkscape:persp3d" />
    <radialGradient
       inkscape:collect="always"
       xlink:href="#linearGradient3919"
       id="radialGradient3702"
       gradientUnits="userSpaceOnUse"
       gradientTransform="matrix(0.24242424,0,0,0.24246979,0.36833182,-1.6111668)"
       cx="48"
       cy="71.995491"
       fx="48"
       fy="71.995491"
       r="32.993801" />
    <linearGradient
       id="linearGradient3919">
      <stop
         style="stop-color:#fafafa;stop-opacity:1;"
         offset="0"
         id="stop3921" />
      <stop
         style="stop-color:#f0f0f0;stop-opacity:1;"
         offset="1"
         id="stop3923" />
    </linearGradient>
    <linearGradient
       inkscape:collect="always"
       xlink:href="#StandardGradient-1"
       id="linearGradient3745"
       x1="13"
       y1="2"
       x2="13"
       y2="18.031219"
       gradientUnits="userSpaceOnUse"
       gradientTransform="matrix(1.1252108,0,0,1.1249999,-2.5078172,-0.2808096)" />
    <linearGradient
       inkscape:collect="always"
       xlink:href="#StandardGradient-1"
       id="linearGradient3752"
       gradientUnits="userSpaceOnUse"
       gradientTransform="matrix(1.1252108,0,0,1.1249999,-2.5078172,0.7191904)"
       x1="13"
       y1="2"
       x2="13"
       y2="18.031219" />
    <linearGradient
       inkscape:collect="always"
       xlink:href="#StandardGradient-1"
       id="linearGradient3778"
       gradientUnits="userSpaceOnUse"
       gradientTransform="matrix(1.1252108,0,0,1.1249999,-2.5078172,0.7191904)"
       x1="13"
       y1="2"
       x2="13"
       y2="18.031219" />
    <linearGradient
       inkscape:collect="always"
       xlink:href="#StandardGradient-1"
       id="linearGradient3782"
       gradientUnits="userSpaceOnUse"
       gradientTransform="matrix(1.1252108,0,0,1.1249999,-2.5078172,-0.2808096)"
       x1="13"
       y1="2"
       x2="13"
       y2="18.031219" />
    <linearGradient
       inkscape:collect="always"
       xlink:href="#StandardGradient-1"
       id="linearGradient3787"
       gradientUnits="userSpaceOnUse"
       gradientTransform="matrix(1.1252108,0,0,1.1249999,-32.507817,-0.2808096)"
       x1="13"
       y1="2"
       x2="13"
       y2="18.031219" />
    <clipPath
       clipPathUnits="userSpaceOnUse"
       id="clipPath3794">
      <path
         style="fill:#ff00ff;fill-opacity:1;stroke:none;display:inline"
         d="m -30,0 0,22 22,0 0,-22 -22,0 z m 11,2 c 1.649367,3.8698681 1.971492,4.9530254 6.78125,13.90625 -0.608163,-0.365085 -1.316546,-0.591902 -2.40625,-0.875 1.585391,0.813573 2.348603,1.578819 3.09375,2.15625 0.473064,0.877037 0.976266,1.790928 1.53125,2.8125 -2.814597,-1.624611 -4.992386,-2.632487 -7.03125,-3.03125 0.06778,-0.30684 0.08525,-0.656101 0.09375,-1 0.04527,-1.82763 -0.811056,-3.37333 -1.9375,-3.46875 -1.12644,-0.09543 -2.07973,1.297372 -2.125,3.125 l 0,0.09375 c -0.0034,0.42957 0.03649,0.83814 0.125,1.21875 -2.061245,0.387423 -4.271802,1.415608 -7.125,3.0625 3.630179,-6.521475 5.326955,-9.805418 6.46875,-12.1875 0.597579,0.5024674 1.483976,0.8927058 2.65625,1.375 C -19.965389,8.4250272 -20.640495,7.7359669 -21.1875,7.15625 -20.29534,5.2503953 -19.801316,3.9642432 -19,2 z"
         id="path3796" />
    </clipPath>
    <filter
       inkscape:collect="always"
       id="filter3798">
      <feGaussianBlur
         inkscape:collect="always"
         stdDeviation="0.54000004"
         id="feGaussianBlur3800" />
    </filter>
    <linearGradient
       inkscape:collect="always"
       xlink:href="#StandardGradient-1"
       id="linearGradient9399"
       gradientUnits="userSpaceOnUse"
       gradientTransform="matrix(1.1252108,0,0,1.1249999,-2.5078172,-0.2808096)"
       x1="13"
       y1="2"
       x2="13"
       y2="18.031219" />
    <linearGradient
       inkscape:collect="always"
       xlink:href="#StandardGradient-1"
       id="linearGradient9403"
       gradientUnits="userSpaceOnUse"
       gradientTransform="matrix(1.1252108,0,0,1.1249999,-2.5078172,-0.2808096)"
       x1="13"
       y1="2"
       x2="13"
       y2="18.031219" />
  </defs>
  <sodipodi:namedview
     id="base"
     pagecolor="#ffffff"
     bordercolor="#e7e7e7"
     borderopacity="1"
     inkscape:pageopacity="0.0"
     inkscape:pageshadow="2"
     inkscape:zoom="17.355441"
     inkscape:cx="-14.787473"
     inkscape:cy="11.949843"
     inkscape:document-units="px"
     inkscape:current-layer="layer1"
     showgrid="true"
     inkscape:showpageshadow="false"
     showguides="false"
     inkscape:guide-bbox="true"
     inkscape:window-width="1920"
     inkscape:window-height="1029"
     inkscape:window-x="0"
     inkscape:window-y="25"
     inkscape:window-maximized="1">
    <sodipodi:guide
       orientation="1,0"
       position="0,112"
       id="guide2383" />
    <sodipodi:guide
       orientation="0,1"
       position="26.278146,128"
       id="guide2385" />
    <sodipodi:guide
       orientation="1,0"
       position="128,54.082119"
       id="guide2387" />
    <sodipodi:guide
       orientation="0,1"
       position="78.156291,0"
       id="guide2389" />
    <sodipodi:guide
       orientation="0,1"
       position="60.863576,64.084768"
       id="guide2391" />
    <inkscape:grid
       type="xygrid"
       id="grid3672"
       visible="true"
       enabled="true" />
  </sodipodi:namedview>
  <metadata
     id="metadata7">
    <rdf:RDF>
      <cc:Work
         rdf:about="">
        <dc:format>image/svg+xml</dc:format>
        <dc:type
           rdf:resource="http://purl.org/dc/dcmitype/StillImage" />
        <dc:title />
      </cc:Work>
    </rdf:RDF>
  </metadata>
  <g
     inkscape:groupmode="layer"
     id="layer2"
     inkscape:label="Dark background"
     sodipodi:insensitive="true"
     style="display:none">
    <rect
       y="0"
       x="0"
       height="22"
       width="22"
       id="rect4898"
       style="opacity:1;fill:#333333;fill-opacity:1;fill-rule:nonzero;stroke:none;stroke-width:1;stroke-linecap:square;stroke-linejoin:miter;stroke-miterlimit:4;stroke-dasharray:none;stroke-dashoffset:0;stroke-opacity:0;display:inline" />
  </g>
  <g
     inkscape:groupmode="layer"
     id="layer3"
     inkscape:label="Pale darkground"
     sodipodi:insensitive="true"
     style="display:none">
    <rect
       style="opacity:1;fill:#efebe7;fill-opacity:1;fill-rule:nonzero;stroke:none;stroke-width:1;stroke-linecap:square;stroke-linejoin:miter;stroke-miterlimit:4;stroke-dasharray:none;stroke-dashoffset:0;stroke-opacity:0"
       id="rect4126"
       width="22"
       height="22"
       x="0"
       y="0" />
  </g>
  <g
     inkscape:label="Button"
     inkscape:groupmode="layer"
     id="layer1"
     style="display:inline">
    <path
       style="fill:#ffffff;fill-opacity:1;fill-rule:evenodd;stroke:none;display:inline;opacity:0.15"
       d="M 10.875 1.03125 A 0.9503689 0.9503689 0 0 0 10.78125 1.0625 A 0.9503689 0.9503689 0 0 0 10.125 1.65625 C 9.3204813 3.6283439 8.8171708 4.8708257 7.9375 6.75 A 0.9503689 0.9503689 0 0 0 7.875 7.0625 A 0.9503689 0.9503689 0 0 0 7.625 7.40625 C 6.4946741 9.7644044 4.7816954 13.018279 1.15625 19.53125 A 0.9503689 0.9503689 0 0 0 2.46875 20.8125 C 5.2862094 19.186237 7.4300096 18.228825 9.3125 17.875 A 0.9503689 0.9503689 0 0 0 10.0625 16.71875 C 9.9936993 16.422884 9.9345887 16.084673 9.9375 15.71875 L 9.9375 15.65625 L 9.9375 15.625 C 9.9622209 14.886204 10.185833 14.244355 10.4375 13.875 C 10.693327 13.499539 10.877977 13.424515 11.03125 13.4375 C 11.184636 13.450493 11.43854 13.615658 11.6875 14.0625 C 11.93646 14.509342 12.143799 15.178594 12.125 15.9375 C 12.116902 16.265138 12.073688 16.557889 12.03125 16.75 A 0.9503689 0.9503689 0 0 0 12.78125 17.90625 C 14.649193 18.271584 16.753086 19.208919 19.53125 20.8125 A 0.9503689 0.9503689 0 0 0 20.84375 19.53125 C 20.287231 18.506852 19.782839 17.621985 19.3125 16.75 A 0.9503689 0.9503689 0 0 0 19.0625 16.4375 C 18.985873 16.37812 18.770405 16.255253 18.6875 16.1875 A 0.9503689 0.9503689 0 0 0 18.625 15.46875 C 13.821992 6.5280907 13.531946 5.51265 11.875 1.625 A 0.9503689 0.9503689 0 0 0 10.875 1.03125 z M 11 2 C 12.649367 5.8698681 12.971492 6.9530254 17.78125 15.90625 C 17.173087 15.541165 16.464704 15.314348 15.375 15.03125 C 16.960391 15.844823 17.723603 16.610069 18.46875 17.1875 C 18.941814 18.064537 19.445016 18.978428 20 20 C 17.185403 18.375389 15.007614 17.367513 12.96875 16.96875 C 13.036532 16.66191 13.054 16.312649 13.0625 15.96875 C 13.107772 14.14112 12.251444 12.59542 11.125 12.5 C 9.99856 12.404573 9.04527 13.797372 9 15.625 L 9 15.71875 C 8.9965823 16.14832 9.036493 16.55689 9.125 16.9375 C 7.0637547 17.324923 4.8531984 18.353108 2 20 C 5.630179 13.478525 7.3269549 10.194582 8.46875 7.8125 C 9.0663292 8.3149674 9.952726 8.7052058 11.125 9.1875 C 10.034611 8.4250272 9.3595053 7.7359669 8.8125 7.15625 C 9.7046603 5.2503953 10.198684 3.9642432 11 2 z "
       id="path9401" />
    <path
       style="fill:#d40000;fill-opacity:1;stroke:none"
       d="m -13.375,32 c -0.69219,0.04617 -1.48522,0.350316 -2.125,0.875 -0.783895,0.642873 -1.420629,2.277217 -1.25,3.1875 0.08798,0.469342 0.442147,1.040424 0.78125,1.21875 0.631484,0.332085 1.782432,-0.218771 2.84375,-1.34375 1.146489,-1.215261 1.672995,-2.554322 1.28125,-3.3125 C -12.084503,32.159052 -12.68281,31.953827 -13.375,32 z m -5.65625,0.71875 c -0.962961,8.66e-4 -1.472444,0.677958 -1.46875,1.96875 0.0025,0.88392 0.31322,1.679132 0.71875,1.875 0.301512,0.145631 0.309051,0.132036 0.6875,0 0.626864,-0.218707 1.215803,-1.678559 1.09375,-2.65625 -0.09989,-0.800159 -0.443807,-1.188029 -1.03125,-1.1875 z m -3.8125,1.3125 c -0.180183,0.02605 -0.360903,0.142012 -0.53125,0.3125 -0.343364,0.343646 -0.347944,0.530957 -0.34375,1.1875 0.0049,0.774303 0.193895,1.196475 0.71875,1.75 0.392601,0.414046 0.675716,0.438798 1.03125,0.0625 0.385138,-0.407633 0.504721,-1.047693 0.375,-1.75 -0.197834,-1.071067 -0.709451,-1.64066 -1.25,-1.5625 z m -2.6875,2.34375 c -0.186951,0.03041 -0.35545,0.136555 -0.53125,0.3125 -0.461346,0.46173 -0.138669,1.731398 0.59375,2.375 0.874175,0.768169 1.580077,0.06483 1.28125,-1.28125 -0.212654,-0.957908 -0.782897,-1.497481 -1.34375,-1.40625 z M -17.5,38.0625 c -0.61906,-0.01065 -1.312804,0.04097 -2.03125,0.1875 -1.85076,0.377471 -3.33166,1.075449 -4.28125,2.03125 -0.546889,0.550465 -0.859803,1.060056 -1.125,1.84375 -0.641919,1.896963 0.546896,4.595678 2.8125,6.4375 0.844088,0.686203 1.359152,0.993313 2.21875,1.28125 0.445736,0.149308 0.799163,0.183992 1.625,0.15625 0.946716,-0.03181 1.139252,-0.07408 1.75,-0.375 0.895036,-0.440989 1.909553,-1.461035 2.34375,-2.34375 0.264885,-0.5385 0.307321,-0.768628 0.28125,-1.21875 -0.04452,-0.768578 -0.342658,-0.977756 -1.3125,-0.96875 -1.38452,0.01285 -1.965756,0.333932 -2.25,1.3125 -0.21469,0.739118 -0.452038,1 -0.9375,1 -0.769368,0 -1.5625,-0.611791 -1.5625,-1.25 0,-0.443994 0.715313,-1.10577 2.5,-2.3125 2.514116,-1.69994 3.378489,-2.734111 3.25,-3.875 -0.13273,-1.178551 -1.42407,-1.874295 -3.28125,-1.90625 z"
       id="path4951" />
    <rect
       style="fill:#000000;fill-opacity:1;stroke:none;display:inline"
       id="rect2824-6"
       width="5"
       height="5"
       x="24"
       y="1" />
    <text
       xml:space="preserve"
       style="font-size:2px;font-style:normal;font-variant:normal;font-weight:normal;font-stretch:normal;text-align:start;line-height:125%;writing-mode:lr-tb;text-anchor:start;fill:#000000;fill-opacity:1;stroke:none;display:inline;font-family:Liberation Sans;-inkscape-font-specification:Liberation Sans"
       x="30"
       y="4"
       id="text3598-5"
       sodipodi:linespacing="125%"><tspan
         sodipodi:role="line"
         id="tspan3600-1"
         x="30"
         y="4">Opacity : 50%</tspan></text>
    <rect
       y="9"
       x="24"
       height="5"
       width="5"
       id="rect3602-3"
       style="fill:#ffffff;fill-opacity:1;stroke:#000000;stroke-width:0.1;stroke-miterlimit:4;stroke-dasharray:none;display:inline" />
    <text
       sodipodi:linespacing="125%"
       id="text3604-4"
       y="12"
       x="30"
       style="font-size:2px;font-style:normal;font-variant:normal;font-weight:normal;font-stretch:normal;text-align:start;line-height:125%;writing-mode:lr-tb;text-anchor:start;fill:#000000;fill-opacity:1;stroke:none;display:inline;font-family:Liberation Sans;-inkscape-font-specification:Liberation Sans"
       xml:space="preserve"><tspan
         y="12"
         x="30"
         id="tspan3606-5"
         sodipodi:role="line">Opacity : 30%</tspan></text>
    <rect
       style="fill:#ffffff;fill-opacity:1;stroke:#000000;stroke-width:0.1;stroke-miterlimit:4;stroke-dasharray:none;display:inline"
       id="rect3608-6"
       width="5"
       height="5"
       x="24"
       y="17" />
    <text
       xml:space="preserve"
       style="font-size:2px;font-style:normal;font-variant:normal;font-weight:normal;font-stretch:normal;text-align:start;line-height:125%;writing-mode:lr-tb;text-anchor:start;fill:#000000;fill-opacity:1;stroke:none;display:inline;font-family:Liberation Sans;-inkscape-font-specification:Liberation Sans"
       x="30"
       y="19"
       id="text3610-7"
       sodipodi:linespacing="125%"><tspan
         sodipodi:role="line"
         x="30"
         y="19"
         id="tspan3648-4">Glow : 6</tspan><tspan
         sodipodi:role="line"
         x="30"
         y="21.5"
         id="tspan3641-3">Opacity : 30%</tspan></text>
    <rect
       y="0"
       x="-30"
       height="22"
       width="22"
       id="rect3756-5"
       style="fill:#ff00ff;fill-opacity:1;stroke:none;display:inline" />
    <rect
       y="54"
       x="1"
       height="5"
       width="5"
       id="rect3825-6"
       style="fill:url(#linearGradient3833-8);fill-opacity:1;stroke:none;display:inline"
       transform="matrix(0,1,1,0,0,0)" />
    <rect
       transform="matrix(0,1,1,0,0,0)"
       style="fill:url(#linearGradient3829-0);fill-opacity:1;stroke:none;display:inline"
       id="rect3808-2"
       width="5"
       height="5"
       x="9"
       y="54" />
    <path
       id="path2518"
       d="M 10.998296,1.999996 C 10.19698,3.9642392 9.713671,5.2490862 8.8215107,7.1549409 9.368516,7.7346578 10.03994,8.4097674 11.130329,9.1722402 9.958055,8.689946 9.07854,8.3255266 8.4809608,7.8230592 7.3391657,10.205141 5.630179,13.478519 2,19.999994 4.8531984,18.353102 7.0649487,17.337773 9.126194,16.95035 9.037687,16.56974 8.9873607,16.158033 8.9907784,15.728463 l 0.0034,-0.09138 c 0.04527,-1.827628 0.9961806,-3.233073 2.1226206,-3.137646 1.126444,0.09542 2.002014,1.655258 1.956742,3.482888 -0.0085,0.343899 -0.04732,0.67473 -0.115102,0.98157 2.038864,0.398763 4.226963,1.411494 7.04156,3.036105 -0.554984,-1.021572 -1.050352,-1.942443 -1.523416,-2.81948 -0.745147,-0.577431 -1.522371,-1.328961 -3.107762,-2.142534 1.089704,0.283098 1.790045,0.50989 2.398208,0.874975 C 12.957271,6.9597364 12.647663,5.8698641 10.998296,1.999996 z"
       style="fill:url(#linearGradient3745);fill-opacity:1;fill-rule:evenodd;stroke:none;display:inline"
       sodipodi:nodetypes="ccccccccsscccccc" />
    <path
       style="fill:#000000;fill-opacity:1;fill-rule:evenodd;stroke:none;display:inline;opacity:0.50000000000000000"
       d="M 11 2 C 10.198684 3.9642432 9.7046603 5.2503953 8.8125 7.15625 C 8.9021489 7.25126 9.0273707 7.3686508 9.125 7.46875 C 9.8128064 5.9445006 10.306792 4.6992418 11 3 C 12.546746 6.6290912 13.05594 8.0453022 17.0625 15.5625 C 17.313694 15.665603 17.566234 15.777174 17.78125 15.90625 C 12.971492 6.9530254 12.649367 5.8698681 11 2 z M 8.46875 7.8125 C 7.3269549 10.194582 5.630179 13.478525 2 20 C 2.2750616 19.841232 2.5176716 19.709532 2.78125 19.5625 C 5.7554921 14.185459 7.4339877 10.971284 8.46875 8.8125 C 9.0663292 9.3149674 9.952726 9.705206 11.125 10.1875 C 10.034611 9.4250274 9.3595053 8.7359669 8.8125 8.15625 C 8.8236242 8.1324862 8.8327515 8.1173232 8.84375 8.09375 C 8.7118089 8.0075569 8.5807961 7.9067126 8.46875 7.8125 z M 15.375 16.03125 C 16.960391 16.844823 17.723603 17.610069 18.46875 18.1875 C 18.700124 18.616456 18.97234 19.10592 19.21875 19.5625 C 19.483502 19.710228 19.723618 19.84047 20 20 C 19.445016 18.978428 18.941814 18.064537 18.46875 17.1875 C 18.174644 16.959591 17.85182 16.681513 17.5 16.40625 C 17.607764 16.60741 17.668626 16.696604 17.78125 16.90625 C 17.173087 16.541165 16.464704 16.314348 15.375 16.03125 z M 13.03125 16.1875 C 13.014272 16.450935 13.021637 16.729338 12.96875 16.96875 C 13.001232 16.975103 13.02994 16.993336 13.0625 17 C 13.062821 16.989372 13.062237 16.979403 13.0625 16.96875 C 13.069302 16.694166 13.063747 16.445936 13.03125 16.1875 z M 9.03125 16.34375 C 9.0237202 16.439208 9.0024288 16.526945 9 16.625 L 9 16.71875 C 8.9993182 16.80445 8.9965273 16.884577 9 16.96875 C 9.0414434 16.960479 9.0836815 16.945266 9.125 16.9375 C 9.0807465 16.747195 9.0544677 16.547949 9.03125 16.34375 z "
       id="path3747" />
    <path
       style="fill:#ffffff;fill-opacity:1;fill-rule:evenodd;stroke:none;display:inline;opacity:0.3"
       d="M 9.125 7.46875 C 9.0276483 7.6844913 8.951755 7.8622612 8.84375 8.09375 C 9.4154946 8.4672536 10.172527 8.7956361 11.125 9.1875 C 10.213315 8.5499893 9.6230696 7.9794199 9.125 7.46875 z M 11.125 12.5 C 9.99856 12.404573 9.04527 13.797372 9 15.625 L 9 15.71875 C 8.9983764 15.922823 9.0102839 16.117909 9.03125 16.3125 C 9.1728287 14.644594 10.06564 13.410256 11.125 13.5 C 12.082207 13.581084 12.847446 14.725783 13.03125 16.1875 C 13.036032 16.113307 13.060632 16.044321 13.0625 15.96875 C 13.107772 14.14112 12.251444 12.59542 11.125 12.5 z M 15.375 15.03125 C 16.334644 15.523709 16.960449 15.984107 17.5 16.40625 C 17.321422 16.072904 17.22828 15.87354 17.0625 15.5625 C 16.603204 15.373981 16.079439 15.214259 15.375 15.03125 z M 9 16.96875 C 7.1732812 17.333301 5.1969499 18.21495 2.78125 19.5625 C 2.4736032 20.118685 2.3402958 20.388672 2 21 C 4.8531984 19.353108 7.0637547 18.324923 9.125 17.9375 C 9.0541503 17.632822 9.0139342 17.306493 9 16.96875 z M 13.0625 17 C 13.052444 17.332451 13.034432 17.671415 12.96875 17.96875 C 15.007614 18.367513 17.185403 19.375389 20 21 C 19.716457 20.478075 19.476147 20.039438 19.21875 19.5625 C 16.830295 18.229773 14.872994 17.370583 13.0625 17 z "
       id="path3776" />
  </g>
</svg>
