<?xml version="1.0" encoding="UTF-8" standalone="no"?>
<!-- Created with Inkscape (http://www.inkscape.org/) -->

<svg
   xmlns:dc="http://purl.org/dc/elements/1.1/"
   xmlns:cc="http://creativecommons.org/ns#"
   xmlns:rdf="http://www.w3.org/1999/02/22-rdf-syntax-ns#"
   xmlns:svg="http://www.w3.org/2000/svg"
   xmlns="http://www.w3.org/2000/svg"
   xmlns:xlink="http://www.w3.org/1999/xlink"
   xmlns:sodipodi="http://sodipodi.sourceforge.net/DTD/sodipodi-0.dtd"
   xmlns:inkscape="http://www.inkscape.org/namespaces/inkscape"
   width="22"
   height="22"
   id="svg2"
   sodipodi:version="0.32"
   inkscape:version="0.48.1 r9760"
   version="1.0"
   sodipodi:docname="start-here-opensuse.svg"
   inkscape:output_extension="org.inkscape.output.svg.inkscape"
   style="display:inline">
  <defs
     id="defs4">
    <linearGradient
       id="linearGradient3722">
      <stop
         id="stop3724"
         offset="0"
         style="stop-color:#aaaaaa;stop-opacity:1;" />
      <stop
         id="stop3726"
         offset="1"
         style="stop-color:#f0f0f0;stop-opacity:1;" />
    </linearGradient>
    <linearGradient
       id="linearGradient3295">
      <stop
         style="stop-color:#559829;stop-opacity:1;"
         offset="0"
         id="stop3297" />
      <stop
         style="stop-color:#86c837;stop-opacity:1;"
         offset="1"
         id="stop3299" />
    </linearGradient>
    <linearGradient
       id="linearGradient3287">
      <stop
         style="stop-color:#cd0000;stop-opacity:1;"
         offset="0"
         id="stop3289" />
      <stop
         style="stop-color:#e55300;stop-opacity:1;"
         offset="1"
         id="stop3291" />
    </linearGradient>
    <linearGradient
       id="linearGradient3279">
      <stop
         style="stop-color:#f08e00;stop-opacity:1;"
         offset="0"
         id="stop3281" />
      <stop
         style="stop-color:#ffd200;stop-opacity:1;"
         offset="1"
         id="stop3283" />
    </linearGradient>
    <linearGradient
       id="linearGradient3271">
      <stop
         style="stop-color:#395d93;stop-opacity:1;"
         offset="0"
         id="stop3273" />
      <stop
         style="stop-color:#6e92c7;stop-opacity:1;"
         offset="1"
         id="stop3275" />
    </linearGradient>
    <linearGradient
       inkscape:collect="always"
       id="linearGradient3327">
      <stop
         style="stop-color:#000000;stop-opacity:1;"
         offset="0"
         id="stop3330" />
      <stop
         style="stop-color:#000000;stop-opacity:0;"
         offset="1"
         id="stop3333" />
    </linearGradient>
    <linearGradient
       inkscape:collect="always"
       xlink:href="#linearGradient3327"
       id="linearGradient3335"
       x1="11.375"
       y1="22"
       x2="11.375"
       y2="-9.817296"
       gradientUnits="userSpaceOnUse" />
    <inkscape:perspective
       sodipodi:type="inkscape:persp3d"
       inkscape:vp_x="0 : 11 : 1"
       inkscape:vp_y="0 : 1000 : 0"
       inkscape:vp_z="22 : 11 : 1"
       inkscape:persp3d-origin="11 : 7.3333333 : 1"
       id="perspective102" />
    <linearGradient
       id="linearGradient4081">
      <stop
         style="stop-color:#aaaaaa;stop-opacity:1;"
         offset="0"
         id="stop4083" />
      <stop
         style="stop-color:#f0f0f0;stop-opacity:1;"
         offset="1"
         id="stop4085" />
    </linearGradient>
    <linearGradient
       id="linearGradient4057">
      <stop
         style="stop-color:#816647;stop-opacity:1;"
         offset="0"
         id="stop4059" />
      <stop
         style="stop-color:#a6845d;stop-opacity:1;"
         offset="1"
         id="stop4061" />
    </linearGradient>
    <linearGradient
       id="linearGradient3929">
      <stop
         style="stop-color:#000000;stop-opacity:1;"
         offset="0"
         id="stop3931" />
      <stop
         style="stop-color:#000000;stop-opacity:0;"
         offset="1"
         id="stop3933" />
    </linearGradient>
    <linearGradient
       inkscape:collect="always"
       xlink:href="#linearGradient3929"
       id="linearGradient4051"
       x1="9.494998"
       y1="15.516565"
       x2="9.494998"
       y2="-4.1786065"
       gradientUnits="userSpaceOnUse" />
    <linearGradient
       inkscape:collect="always"
       xlink:href="#linearGradient4057"
       id="linearGradient4063"
       x1="9.17138"
       y1="21.000002"
       x2="9.17138"
       y2="0.97239029"
       gradientUnits="userSpaceOnUse" />
    <linearGradient
       inkscape:collect="always"
       xlink:href="#linearGradient4081"
       id="linearGradient4089"
       x1="6.101758"
       y1="154.58195"
       x2="6.101758"
       y2="36.995476"
       gradientUnits="userSpaceOnUse" />
    <linearGradient
       inkscape:collect="always"
       xlink:href="#linearGradient4081"
       id="linearGradient4103"
       gradientUnits="userSpaceOnUse"
       x1="6.101758"
       y1="154.58195"
       x2="6.101758"
       y2="36.995476" />
    <linearGradient
       inkscape:collect="always"
       xlink:href="#linearGradient4081"
       id="linearGradient4105"
       gradientUnits="userSpaceOnUse"
       x1="6.101758"
       y1="154.58195"
       x2="6.101758"
       y2="36.995476" />
    <linearGradient
       inkscape:collect="always"
       xlink:href="#linearGradient4081"
       id="linearGradient4107"
       gradientUnits="userSpaceOnUse"
       x1="6.101758"
       y1="154.58195"
       x2="6.101758"
       y2="36.995476" />
    <linearGradient
       inkscape:collect="always"
       xlink:href="#linearGradient4081"
       id="linearGradient4109"
       gradientUnits="userSpaceOnUse"
       x1="6.101758"
       y1="154.58195"
       x2="6.101758"
       y2="36.995476" />
    <linearGradient
       inkscape:collect="always"
       xlink:href="#linearGradient4081"
       id="linearGradient4111"
       gradientUnits="userSpaceOnUse"
       x1="6.101758"
       y1="154.58195"
       x2="6.101758"
       y2="36.995476" />
    <linearGradient
       inkscape:collect="always"
       xlink:href="#linearGradient4081"
       id="linearGradient4113"
       gradientUnits="userSpaceOnUse"
       x1="6.101758"
       y1="154.58195"
       x2="6.101758"
       y2="36.995476" />
    <linearGradient
       inkscape:collect="always"
       xlink:href="#linearGradient4081"
       id="linearGradient4115"
       gradientUnits="userSpaceOnUse"
       x1="6.101758"
       y1="154.58195"
       x2="6.101758"
       y2="36.995476" />
    <linearGradient
       inkscape:collect="always"
       xlink:href="#linearGradient4081"
       id="linearGradient4117"
       gradientUnits="userSpaceOnUse"
       x1="6.101758"
       y1="154.58195"
       x2="6.101758"
       y2="36.995476" />
    <linearGradient
       inkscape:collect="always"
       xlink:href="#linearGradient4081"
       id="linearGradient4119"
       gradientUnits="userSpaceOnUse"
       x1="6.101758"
       y1="154.58195"
       x2="6.101758"
       y2="36.995476" />
    <linearGradient
       inkscape:collect="always"
       xlink:href="#linearGradient4081"
       id="linearGradient4121"
       gradientUnits="userSpaceOnUse"
       x1="6.101758"
       y1="154.58195"
       x2="6.101758"
       y2="36.995476" />
    <linearGradient
       inkscape:collect="always"
       xlink:href="#linearGradient4081"
       id="linearGradient4123"
       gradientUnits="userSpaceOnUse"
       x1="6.101758"
       y1="154.58195"
       x2="6.101758"
       y2="36.995476" />
    <linearGradient
       inkscape:collect="always"
       xlink:href="#linearGradient4081"
       id="linearGradient4125"
       gradientUnits="userSpaceOnUse"
       x1="6.101758"
       y1="154.58195"
       x2="6.101758"
       y2="36.995476" />
    <linearGradient
       inkscape:collect="always"
       xlink:href="#linearGradient4081"
       id="linearGradient4127"
       gradientUnits="userSpaceOnUse"
       x1="6.101758"
       y1="154.58195"
       x2="6.101758"
       y2="36.995476" />
    <linearGradient
       inkscape:collect="always"
       xlink:href="#linearGradient4081"
       id="linearGradient4129"
       gradientUnits="userSpaceOnUse"
       x1="6.101758"
       y1="154.58195"
       x2="6.101758"
       y2="36.995476" />
    <linearGradient
       inkscape:collect="always"
       xlink:href="#linearGradient4081"
       id="linearGradient4132"
       gradientUnits="userSpaceOnUse"
       x1="6.101758"
       y1="154.58195"
       x2="6.101758"
       y2="36.995476"
       gradientTransform="matrix(0.1317916,0,0,0.1317916,11.619896,-1.9882468)" />
    <linearGradient
       inkscape:collect="always"
       xlink:href="#linearGradient4081"
       id="linearGradient4141"
       gradientUnits="userSpaceOnUse"
       x1="6.101758"
       y1="154.58195"
       x2="6.101758"
       y2="36.995476"
       gradientTransform="matrix(0.1317916,0,0,0.1317916,11.619896,-1.9882468)" />
    <linearGradient
       inkscape:collect="always"
       xlink:href="#linearGradient4081"
       id="linearGradient4148"
       gradientUnits="userSpaceOnUse"
       x1="6.101758"
       y1="154.58195"
       x2="6.101758"
       y2="36.995476"
       gradientTransform="matrix(0.1317916,0,0,0.1317916,11.619896,-1.9882468)" />
    <linearGradient
       inkscape:collect="always"
       xlink:href="#linearGradient4081"
       id="linearGradient4158"
       gradientUnits="userSpaceOnUse"
       x1="6.101758"
       y1="154.58195"
       x2="6.101758"
       y2="36.995476"
       gradientTransform="matrix(0.1317916,0,0,0.1317916,11.619896,-1.9882468)" />
    <linearGradient
       inkscape:collect="always"
       xlink:href="#linearGradient4081"
       id="linearGradient4180"
       gradientUnits="userSpaceOnUse"
       x1="6.101758"
       y1="154.58195"
       x2="6.101758"
       y2="36.995476" />
    <linearGradient
       inkscape:collect="always"
       xlink:href="#linearGradient4081"
       id="linearGradient4182"
       gradientUnits="userSpaceOnUse"
       gradientTransform="matrix(0.1317916,0,0,0.1317916,11.619896,-1.9882468)"
       x1="6.101758"
       y1="154.58195"
       x2="6.101758"
       y2="36.995476" />
    <linearGradient
       inkscape:collect="always"
       xlink:href="#linearGradient4081"
       id="linearGradient4184"
       gradientUnits="userSpaceOnUse"
       x1="6.101758"
       y1="154.58195"
       x2="6.101758"
       y2="36.995476" />
    <linearGradient
       inkscape:collect="always"
       xlink:href="#linearGradient4081"
       id="linearGradient4186"
       gradientUnits="userSpaceOnUse"
       gradientTransform="matrix(0.1317916,0,0,0.1317916,11.619896,-1.9882468)"
       x1="6.101758"
       y1="154.58195"
       x2="6.101758"
       y2="36.995476" />
    <linearGradient
       inkscape:collect="always"
       xlink:href="#linearGradient4081"
       id="linearGradient2480"
       gradientUnits="userSpaceOnUse"
       gradientTransform="matrix(0.1256322,0,0,0.1256322,11.921746,-1.0005124)"
       x1="6.101758"
       y1="154.58195"
       x2="6.101758"
       y2="36.995476" />
    <linearGradient
       inkscape:collect="always"
       xlink:href="#linearGradient4081"
       id="linearGradient2483"
       gradientUnits="userSpaceOnUse"
       gradientTransform="matrix(0.1256322,0,0,0.1256322,11.921746,-1.0005124)"
       x1="6.101758"
       y1="154.58195"
       x2="6.101758"
       y2="36.995476" />
    <linearGradient
       inkscape:collect="always"
       xlink:href="#linearGradient4081"
       id="linearGradient2489"
       gradientUnits="userSpaceOnUse"
       gradientTransform="matrix(0.1256322,0,0,0.1256322,11.921746,-1.0005124)"
       x1="6.101758"
       y1="154.58195"
       x2="6.101758"
       y2="36.995476" />
    <linearGradient
       inkscape:collect="always"
       xlink:href="#linearGradient4081"
       id="linearGradient2495"
       gradientUnits="userSpaceOnUse"
       gradientTransform="matrix(0.1256322,0,0,0.1256322,11.921746,-1.0005124)"
       x1="6.101758"
       y1="154.58195"
       x2="6.101758"
       y2="36.995476" />
    <linearGradient
       inkscape:collect="always"
       xlink:href="#linearGradient4081"
       id="linearGradient2498"
       gradientUnits="userSpaceOnUse"
       gradientTransform="matrix(0.1256322,0,0,0.1256322,11.921746,-1.0005124)"
       x1="6.101758"
       y1="154.58195"
       x2="6.101758"
       y2="36.995476" />
    <linearGradient
       inkscape:collect="always"
       xlink:href="#linearGradient4081"
       id="linearGradient2501"
       gradientUnits="userSpaceOnUse"
       gradientTransform="matrix(0.1256322,0,0,0.1256322,11.921746,-1.0005124)"
       x1="6.101758"
       y1="154.58195"
       x2="6.101758"
       y2="36.995476" />
    <linearGradient
       inkscape:collect="always"
       xlink:href="#linearGradient4081"
       id="linearGradient2504"
       gradientUnits="userSpaceOnUse"
       gradientTransform="matrix(0.1256322,0,0,0.1256322,11.921746,-1.0005124)"
       x1="6.101758"
       y1="154.58195"
       x2="6.101758"
       y2="36.995476" />
    <linearGradient
       inkscape:collect="always"
       xlink:href="#linearGradient4081"
       id="linearGradient2506"
       gradientUnits="userSpaceOnUse"
       x1="6.101758"
       y1="154.58195"
       x2="6.101758"
       y2="36.995476" />
    <linearGradient
       inkscape:collect="always"
       xlink:href="#linearGradient4081"
       id="linearGradient2508"
       gradientUnits="userSpaceOnUse"
       gradientTransform="matrix(0.1317916,0,0,0.1317916,11.619896,-1.9882468)"
       x1="6.101758"
       y1="154.58195"
       x2="6.101758"
       y2="36.995476" />
    <linearGradient
       inkscape:collect="always"
       xlink:href="#linearGradient4081"
       id="linearGradient2510"
       gradientUnits="userSpaceOnUse"
       gradientTransform="matrix(0.1317916,0,0,0.1317916,11.619896,-1.9882468)"
       x1="6.101758"
       y1="154.58195"
       x2="6.101758"
       y2="36.995476" />
    <clipPath
       clipPathUnits="userSpaceOnUse"
       id="clipPath4974">
      <path
         id="path4976"
         d="M 16.625,2 C 15.93281,2.046173 15.13978,2.350316 14.5,2.875 13.716105,3.517873 13.079371,5.1522168 13.25,6.0625 13.337976,6.531842 13.692147,7.1029241 14.03125,7.28125 14.662734,7.613335 15.813682,7.0624791 16.875,5.9375 18.021489,4.722239 18.547995,3.383178 18.15625,2.625 17.915497,2.159052 17.31719,1.953827 16.625,2 z M 10.96875,2.71875 C 10.005789,2.719616 9.496306,3.3967078 9.5,4.6875 c 0.00253,0.88392 0.31322,1.6791318 0.71875,1.875 0.301512,0.145631 0.309051,0.1320361 0.6875,0 C 11.533114,6.343793 12.122053,4.8839409 12,3.90625 11.900109,3.106091 11.556193,2.7182209 10.96875,2.71875 z m -3.8125,1.3125 C 6.976067,4.0573035 6.795347,4.173262 6.625,4.34375 6.281636,4.687396 6.277056,4.8747068 6.28125,5.53125 6.286196,6.305553 6.475145,6.7277249 7,7.28125 7.392601,7.695296 7.675716,7.7200481 8.03125,7.34375 8.416388,6.936117 8.535971,6.296057 8.40625,5.59375 8.208416,4.5226825 7.696799,3.9530895 7.15625,4.03125 z M 4.46875,6.375 C 4.281799,6.4054104 4.1133,6.5115553 3.9375,6.6875 3.476154,7.14923 3.798831,8.4188978 4.53125,9.0625 5.405425,9.830669 6.111327,9.1273309 5.8125,7.78125 5.599846,6.8233425 5.029603,6.2837687 4.46875,6.375 z M 12.5,8.0625 C 11.88094,8.0518483 11.187196,8.1034691 10.46875,8.25 8.61799,8.627471 7.13709,9.3254488 6.1875,10.28125 5.640611,10.831715 5.327697,11.341306 5.0625,12.125 c -0.641919,1.896963 0.546896,4.595678 2.8125,6.4375 0.844088,0.686203 1.359152,0.993313 2.21875,1.28125 0.445736,0.149308 0.799163,0.183992 1.625,0.15625 0.946716,-0.03181 1.139252,-0.07408 1.75,-0.375 0.895036,-0.440989 1.909553,-1.461035 2.34375,-2.34375 0.264885,-0.5385 0.307321,-0.768628 0.28125,-1.21875 -0.04452,-0.768578 -0.342658,-0.977756 -1.3125,-0.96875 -1.38452,0.01285 -1.965756,0.333932 -2.25,1.3125 -0.21469,0.739118 -0.452038,1 -0.9375,1 -0.769368,0 -1.5625,-0.611791 -1.5625,-1.25 0,-0.443994 0.715313,-1.10577 2.5,-2.3125 2.514116,-1.69994 3.378489,-2.734111 3.25,-3.875 C 15.64852,8.7901993 14.35718,8.0944552 12.5,8.0625 z"
         style="fill:#ffffff;fill-opacity:1;stroke:none" />
    </clipPath>
    <clipPath
       clipPathUnits="userSpaceOnUse"
       id="clipPath4995">
      <path
         style="fill:#ffffff;fill-opacity:1;fill-rule:nonzero;stroke:none;display:inline"
         d="M 30,0 30,22 52,22 52,0 30,0 z M 46.625,2 C 47.31719,1.953827 47.915497,2.159052 48.15625,2.625 48.547995,3.383178 48.021489,4.722239 46.875,5.9375 45.813682,7.0624791 44.662734,7.613335 44.03125,7.28125 43.692147,7.1029241 43.337976,6.531842 43.25,6.0625 43.079371,5.1522168 43.716105,3.517873 44.5,2.875 45.13978,2.350316 45.93281,2.046173 46.625,2 z m -5.65625,0.71875 c 0.587443,-5.291e-4 0.931359,0.387341 1.03125,1.1875 0.122053,0.9776909 -0.466886,2.437543 -1.09375,2.65625 -0.378449,0.1320361 -0.385988,0.145631 -0.6875,0 C 39.81322,6.3666318 39.502528,5.57142 39.5,4.6875 39.496306,3.3967078 40.005789,2.719616 40.96875,2.71875 z m -3.8125,1.3125 c 0.540549,-0.078161 1.052166,0.4914325 1.25,1.5625 0.129721,0.702307 0.01014,1.342367 -0.375,1.75 C 37.675716,7.7200481 37.392601,7.695296 37,7.28125 36.475145,6.7277249 36.286196,6.305553 36.28125,5.53125 36.277056,4.8747068 36.281636,4.687396 36.625,4.34375 36.795347,4.173262 36.976067,4.0573035 37.15625,4.03125 z M 34.46875,6.375 C 35.029603,6.2837687 35.599846,6.8233425 35.8125,7.78125 36.111327,9.1273309 35.405425,9.830669 34.53125,9.0625 33.798831,8.4188978 33.476154,7.14923 33.9375,6.6875 34.1133,6.5115553 34.281799,6.4054104 34.46875,6.375 z M 42.5,8.0625 c 1.85718,0.031955 3.14852,0.7276993 3.28125,1.90625 0.128489,1.140889 -0.735884,2.17506 -3.25,3.875 -1.784687,1.20673 -2.5,1.868506 -2.5,2.3125 0,0.638209 0.793132,1.25 1.5625,1.25 0.485462,0 0.72281,-0.260882 0.9375,-1 0.284244,-0.978568 0.86548,-1.299646 2.25,-1.3125 0.969842,-0.009 1.267977,0.200172 1.3125,0.96875 0.02607,0.450122 -0.01637,0.68025 -0.28125,1.21875 -0.434197,0.882715 -1.448714,1.902761 -2.34375,2.34375 -0.610748,0.300916 -0.803284,0.343192 -1.75,0.375 -0.825837,0.02774 -1.179264,-0.0069 -1.625,-0.15625 C 39.234152,19.555813 38.719088,19.248703 37.875,18.5625 35.609396,16.720678 34.420581,14.021963 35.0625,12.125 35.327697,11.341306 35.640611,10.831715 36.1875,10.28125 37.13709,9.3254488 38.61799,8.627471 40.46875,8.25 41.187196,8.1034691 41.88094,8.0518483 42.5,8.0625 z"
         id="path4997" />
    </clipPath>
    <linearGradient
       inkscape:collect="always"
       xlink:href="#StandardGradient-1"
       id="linearGradient5065"
       gradientUnits="userSpaceOnUse"
       x1="10"
       y1="3"
       x2="10"
       y2="7" />
    <linearGradient
       inkscape:collect="always"
       xlink:href="#StandardGradient-1"
       id="linearGradient5068"
       gradientUnits="userSpaceOnUse"
       x1="16"
       y1="2"
       x2="16"
       y2="7" />
    <linearGradient
       inkscape:collect="always"
       xlink:href="#StandardGradient-1"
       id="linearGradient5071"
       gradientUnits="userSpaceOnUse"
       x1="6"
       y1="4"
       x2="6"
       y2="8" />
    <linearGradient
       inkscape:collect="always"
       xlink:href="#StandardGradient-1"
       id="linearGradient5074"
       gradientUnits="userSpaceOnUse"
       x1="4"
       y1="7"
       x2="4"
       y2="9" />
    <linearGradient
       inkscape:collect="always"
       xlink:href="#StandardGradient-1"
       id="linearGradient5077"
       gradientUnits="userSpaceOnUse"
       x1="12"
       y1="8"
       x2="12"
       y2="20.041595" />
    <inkscape:perspective
       id="perspective4374"
       inkscape:persp3d-origin="0.5 : 0.33333333 : 1"
       inkscape:vp_z="1 : 0.5 : 1"
       inkscape:vp_y="0 : 1000 : 0"
       inkscape:vp_x="0 : 0.5 : 1"
       sodipodi:type="inkscape:persp3d" />
    <linearGradient
       inkscape:collect="always"
       xlink:href="#StandardGradient-1"
       id="linearGradient3833-8"
       x1="54"
       y1="3.5"
       x2="59"
       y2="3.5"
       gradientUnits="userSpaceOnUse"
       gradientTransform="translate(-53,53)" />
    <linearGradient
       id="StandardGradient-1"
       gradientTransform="matrix(0.9984539,0,0,0.9984539,-0.0459776,0.05767558)"
       x1="10.710332"
       y1="1.9963325"
       x2="10.710332"
       y2="18.974037"
       gradientUnits="userSpaceOnUse">
      <stop
         style="stop-color:#000000;stop-opacity:0.86274511;"
         offset="0"
         id="stop3277-4" />
      <stop
         style="stop-color:#000000;stop-opacity:0.47058824;"
         offset="1"
         id="stop3279-3" />
    </linearGradient>
    <linearGradient
       y2="3.5"
       x2="59"
       y1="3.5"
       x1="54"
       gradientTransform="translate(-45,53)"
       gradientUnits="userSpaceOnUse"
       id="linearGradient3829-0"
       xlink:href="#SpecificGradient-5"
       inkscape:collect="always" />
    <linearGradient
       id="SpecificGradient-5"
       x1="10.761708"
       y1="3.9999998"
       x2="10.761708"
       y2="18.011395"
       gradientUnits="userSpaceOnUse">
      <stop
         style="stop-color:#a50000;stop-opacity:1;"
         offset="0"
         id="stop3292-8" />
      <stop
         style="stop-color:#e73800;stop-opacity:1;"
         offset="1"
         id="stop3294-0" />
    </linearGradient>
    <linearGradient
       inkscape:collect="always"
       xlink:href="#StandardGradient-1"
       id="linearGradient3738"
       gradientUnits="userSpaceOnUse"
       x1="12"
       y1="8"
       x2="12"
       y2="20.041595" />
    <linearGradient
       inkscape:collect="always"
       xlink:href="#StandardGradient-1"
       id="linearGradient3741"
       gradientUnits="userSpaceOnUse"
       x1="12"
       y1="8"
       x2="12"
       y2="20.041595"
       gradientTransform="translate(-30,0)" />
    <linearGradient
       inkscape:collect="always"
       xlink:href="#StandardGradient-1"
       id="linearGradient3747"
       gradientUnits="userSpaceOnUse"
       x1="12"
       y1="8"
       x2="12"
       y2="20.041595"
       gradientTransform="translate(0,1)" />
    <linearGradient
       inkscape:collect="always"
       xlink:href="#StandardGradient-1"
       id="linearGradient3751"
       gradientUnits="userSpaceOnUse"
       x1="12"
       y1="8"
       x2="12"
       y2="20.041595" />
    <clipPath
       clipPathUnits="userSpaceOnUse"
       id="clipPath3758">
      <path
         style="fill:#ff00ff;fill-opacity:1;stroke:none;display:inline"
         d="m -30,0 0,22 22,0 0,-22 -22,0 z m 16.625,2 c 0.69219,-0.046173 1.290497,0.159052 1.53125,0.625 0.391745,0.758178 -0.134761,2.097239 -1.28125,3.3125 -1.061318,1.124979 -2.212266,1.675835 -2.84375,1.34375 C -16.307853,7.102924 -16.66202,6.531842 -16.75,6.0625 -16.920629,5.152217 -16.283895,3.517873 -15.5,2.875 -14.86022,2.350316 -14.06719,2.046173 -13.375,2 z m -5.65625,0.71875 c 0.587443,-5.29e-4 0.93136,0.387341 1.03125,1.1875 0.122053,0.977691 -0.466886,2.437543 -1.09375,2.65625 -0.378449,0.132036 -0.385988,0.145631 -0.6875,0 -0.40553,-0.195868 -0.71625,-0.99108 -0.71875,-1.875 -0.0037,-1.290792 0.505789,-1.967884 1.46875,-1.96875 z m -3.8125,1.3125 c 0.540549,-0.078161 1.052166,0.4914325 1.25,1.5625 0.129721,0.702307 0.01014,1.342367 -0.375,1.75 -0.355534,0.376298 -0.638649,0.351546 -1.03125,-0.0625 -0.524855,-0.553525 -0.71385,-0.975697 -0.71875,-1.75 -0.0042,-0.656543 3.86e-4,-0.843854 0.34375,-1.1875 0.170347,-0.170488 0.351067,-0.286447 0.53125,-0.3125 z m -2.6875,2.34375 c 0.560853,-0.091231 1.131096,0.4483425 1.34375,1.40625 0.298827,1.346081 -0.407075,2.049419 -1.28125,1.28125 -0.732419,-0.643602 -1.055096,-1.91327 -0.59375,-2.375 0.1758,-0.1759448 0.344299,-0.282089 0.53125,-0.3125 z M -17.5,8.0625 c 1.85718,0.031955 3.14852,0.7276993 3.28125,1.90625 0.128489,1.140889 -0.735884,2.17506 -3.25,3.875 -1.784687,1.20673 -2.5,1.868506 -2.5,2.3125 0,0.638209 0.793132,1.25 1.5625,1.25 0.485462,0 0.72281,-0.260882 0.9375,-1 0.284244,-0.978569 0.86548,-1.29965 2.25,-1.3125 0.969842,-0.009 1.26798,0.200172 1.3125,0.96875 0.02607,0.450123 -0.01637,0.68025 -0.28125,1.21875 -0.434197,0.882715 -1.448714,1.902761 -2.34375,2.34375 -0.610748,0.30092 -0.803284,0.34319 -1.75,0.375 -0.825837,0.02774 -1.179264,-0.0069 -1.625,-0.15625 -0.859598,-0.287937 -1.374662,-0.595047 -2.21875,-1.28125 -2.265604,-1.841822 -3.454419,-4.540537 -2.8125,-6.4375 0.265198,-0.783694 0.578111,-1.293285 1.125,-1.84375 0.94959,-0.9558013 2.43049,-1.653779 4.28125,-2.03125 0.718447,-0.146531 1.41219,-0.198152 2.03125,-0.1875 z"
         id="path3760" />
    </clipPath>
    <inkscape:perspective
       id="perspective2885"
       inkscape:persp3d-origin="0.5 : 0.33333333 : 1"
       inkscape:vp_z="1 : 0.5 : 1"
       inkscape:vp_y="0 : 1000 : 0"
       inkscape:vp_x="0 : 0.5 : 1"
       sodipodi:type="inkscape:persp3d" />
    <linearGradient
       inkscape:collect="always"
       xlink:href="#StandardGradient-1"
       id="linearGradient3748"
       x1="11.682116"
       y1="4.0050025"
       x2="11.682116"
       y2="22.007736"
       gradientUnits="userSpaceOnUse" />
    <linearGradient
       inkscape:collect="always"
       xlink:href="#StandardGradient-1"
       id="linearGradient3754"
       gradientUnits="userSpaceOnUse"
       x1="11.682116"
       y1="4.0050025"
       x2="11.682116"
       y2="22.007736"
       gradientTransform="translate(0,-1)" />
    <linearGradient
       inkscape:collect="always"
       xlink:href="#StandardGradient-1"
       id="linearGradient3756"
       gradientUnits="userSpaceOnUse"
       x1="11.682116"
       y1="4.0050025"
       x2="11.682116"
       y2="22.007736" />
    <linearGradient
       inkscape:collect="always"
       xlink:href="#StandardGradient-1"
       id="linearGradient3761"
       gradientUnits="userSpaceOnUse"
       x1="11.682116"
       y1="4.0050025"
       x2="11.682116"
       y2="22.007736"
       gradientTransform="translate(0,1)" />
    <linearGradient
       inkscape:collect="always"
       xlink:href="#StandardGradient-1"
       id="linearGradient3765"
       gradientUnits="userSpaceOnUse"
       gradientTransform="translate(0,-2)"
       x1="11.682116"
       y1="4.0050025"
       x2="11.682116"
       y2="22.007736" />
    <linearGradient
       inkscape:collect="always"
       xlink:href="#StandardGradient-1"
       id="linearGradient3772"
       gradientUnits="userSpaceOnUse"
       x1="11.682116"
       y1="4.0050025"
       x2="11.682116"
       y2="22.007736"
       gradientTransform="translate(-30,-2)" />
    <clipPath
       clipPathUnits="userSpaceOnUse"
       id="clipPath3777">
      <path
         style="fill:#ff00ff;fill-opacity:1;stroke:none;display:inline"
         d="m -30,0 0,22 22,0 0,-22 -22,0 z m 11,2 c 4.970563,0 9,4.0294373 9,9 0,4.970563 -4.029437,9 -9,9 -4.970563,0 -9,-4.029437 -9,-9 0,-4.9705627 4.029437,-9 9,-9 z m 3.40625,2.59375 c -0.662627,0 -1.21875,0.5561234 -1.21875,1.21875 0,0.6626266 0.556123,1.1875 1.21875,1.1875 0.662626,0 1.1875,-0.5248734 1.1875,-1.1875 0,-0.6626266 -0.524874,-1.21875 -1.1875,-1.21875 z M -18.8125,5.8125 c -0.789629,0 -1.516908,0.1847419 -2.1875,0.5 l 1.1875,2.09375 c 0.309436,-0.117838 0.649361,-0.21875 1,-0.21875 1.411968,0 2.589001,1.047078 2.78125,2.40625 l 2.40625,0 c -0.08653,-1.117324 -0.507643,-2.127889 -1.1875,-2.9375 -0.239332,0.101285 -0.505156,0.15625 -0.78125,0.15625 -1.052344,0 -1.88972,-0.8427942 -1.96875,-1.875 -0.39254,-0.095233 -0.82804,-0.125 -1.25,-0.125 z m -2.90625,0.875 c -0.908089,0.6136603 -1.58993,1.51742 -1.96875,2.5625 0.528411,0.402097 0.875,1.035249 0.875,1.75 0,0.721558 -0.369223,1.348577 -0.90625,1.75 0.373016,1.020043 1.088341,1.887647 1.96875,2.5 l 1.1875,-2.0625 c -0.63848,-0.513522 -1.03125,-1.304975 -1.03125,-2.1875 0,-0.90818 0.423125,-1.706856 1.09375,-2.21875 L -21.71875,6.6875 z M -25,9.59375 c -0.773064,0 -1.40625,0.633185 -1.40625,1.40625 0,0.773065 0.633186,1.40625 1.40625,1.40625 0.773064,0 1.40625,-0.633185 1.40625,-1.40625 0,-0.773065 -0.633186,-1.40625 -1.40625,-1.40625 z m 8.96875,1.8125 c -0.192249,1.359172 -1.369282,2.40625 -2.78125,2.40625 -0.367204,0 -0.709816,-0.09009 -1.03125,-0.21875 l -1.25,2.09375 c 0.688532,0.336532 1.463705,0.5 2.28125,0.5 0.42196,0 0.85746,-0.02977 1.25,-0.125 0.07903,-1.032206 0.916406,-1.875 1.96875,-1.875 0.276094,0 0.541918,0.05497 0.78125,0.15625 0.679857,-0.809612 1.10098,-1.820176 1.1875,-2.9375 l -2.40625,0 z M -15.59375,15 c -0.662627,0 -1.21875,0.524874 -1.21875,1.1875 0,0.662627 0.556123,1.21875 1.21875,1.21875 0.662626,0 1.1875,-0.556123 1.1875,-1.21875 0,-0.662626 -0.524874,-1.1875 -1.1875,-1.1875 z"
         id="path3779" />
    </clipPath>
    <inkscape:perspective
       id="perspective2996"
       inkscape:persp3d-origin="0.5 : 0.33333333 : 1"
       inkscape:vp_z="1 : 0.5 : 1"
       inkscape:vp_y="0 : 1000 : 0"
       inkscape:vp_x="0 : 0.5 : 1"
       sodipodi:type="inkscape:persp3d" />
    <radialGradient
       inkscape:collect="always"
       xlink:href="#radial-gradient"
       id="radialGradient3222"
       gradientUnits="userSpaceOnUse"
       cx="126.15849"
       cy="126.15498"
       fx="126.15849"
       fy="126.15498"
       r="154.62019"
       gradientTransform="matrix(0.07926537,0,0,0.07926756,1,1.0000022)" />
    <radialGradient
       gradientUnits="userSpaceOnUse"
       id="radial-gradient"
       fy="133.10451"
       fx="115.8989"
       r="154.62019"
       cy="133.10451"
       cx="115.8989">
      <stop
         id="translucent-stop-color"
         offset="0"
         style="stop-color:#003364;stop-opacity:0;" />
      <stop
         id="opaque-blue-stop-color"
         offset="1"
         style="stop-color:#0067c8;stop-opacity:1;" />
    </radialGradient>
    <radialGradient
       r="154.62019"
       fy="126.15498"
       fx="126.15849"
       cy="126.15498"
       cx="126.15849"
       gradientTransform="matrix(0.07134324,0,0,0.07134521,1.9994442,-28.000554)"
       gradientUnits="userSpaceOnUse"
       id="radialGradient3007"
       xlink:href="#radial-gradient"
       inkscape:collect="always" />
    <radialGradient
       inkscape:collect="always"
       xlink:href="#radial-gradient"
       id="radialGradient3038"
       gradientUnits="userSpaceOnUse"
       gradientTransform="matrix(0.07134324,0,0,0.07134521,1.9994442,1.999446)"
       cx="126.15849"
       cy="126.15498"
       fx="126.15849"
       fy="126.15498"
       r="154.62019" />
    <linearGradient
       inkscape:collect="always"
       xlink:href="#StandardGradient-1"
       id="linearGradient3818"
       x1="10.92316"
       y1="2.0768402"
       x2="10.699805"
       y2="19.985998"
       gradientUnits="userSpaceOnUse" />
    <linearGradient
       inkscape:collect="always"
       xlink:href="#StandardGradient-1"
       id="linearGradient3825"
       gradientUnits="userSpaceOnUse"
       x1="10.92316"
       y1="2.0768402"
       x2="10.699805"
       y2="19.985998"
       gradientTransform="translate(0,1)" />
    <linearGradient
       inkscape:collect="always"
       xlink:href="#StandardGradient-1"
       id="linearGradient3837"
       gradientUnits="userSpaceOnUse"
       x1="10.92316"
       y1="2.0768402"
       x2="10.699805"
       y2="19.985998" />
    <linearGradient
       inkscape:collect="always"
       xlink:href="#StandardGradient-1"
       id="linearGradient3842"
       gradientUnits="userSpaceOnUse"
       x1="10.92316"
       y1="2.0768402"
       x2="10.699805"
       y2="19.985998"
       gradientTransform="translate(0,1)" />
    <linearGradient
       inkscape:collect="always"
       xlink:href="#StandardGradient-1"
       id="linearGradient3846"
       gradientUnits="userSpaceOnUse"
       x1="10.92316"
       y1="2.0768402"
       x2="10.699805"
       y2="19.985998" />
    <linearGradient
       inkscape:collect="always"
       xlink:href="#StandardGradient-1"
       id="linearGradient3851"
       gradientUnits="userSpaceOnUse"
       x1="10.92316"
       y1="2.0768402"
       x2="10.699805"
       y2="19.985998"
       gradientTransform="translate(-30,0)" />
    <clipPath
       clipPathUnits="userSpaceOnUse"
       id="clipPath3856">
      <path
         style="fill:#ff00ff;fill-opacity:1;stroke:none;display:inline"
         d="m -30,0 0,22 22,0 0,-22 -22,0 z m 11,2 c 4.97084,0 9,4.028809 9,9 0,4.969693 -4.030944,8.9979 -9,9 l -6.9375,0 -0.25,0 C -27.184761,20 -28,19.184761 -28,18.1875 l 0,-0.25 0,-1.21875 L -28,11 c 0.0034,-4.968123 4.031443,-9 9,-9 z m 2.65625,2.125 c -2.333209,0 -4.25,1.885618 -4.25,4.21875 l 0,0.03125 0,2.21875 -1.75,0 -0.46875,0 c -2.333138,0 -4.21875,1.885761 -4.21875,4.21875 0,2.007481 1.404487,3.663585 3.28125,4.09375 0.03197,0.0073 0.06151,0.02465 0.09375,0.03125 0.0503,0.01225 0.10818,-0.01 0.15625,0 0.221105,0.04578 0.426535,0.09375 0.6875,0.09375 2.332853,0 4.21875,-1.885835 4.21875,-4.21875 l 0,-2.25 1.78125,0 0.46875,0 c 2.332853,0 4.21875,-1.885762 4.21875,-4.21875 0,-2.0169393 -1.422278,-3.6735962 -3.3125,-4.09375 -0.09429,-0.024682 -0.16407,-0.045276 -0.25,-0.0625 -0.212649,-0.042623 -0.40418,-0.0625 -0.65625,-0.0625 z m 0,2 c 1.231313,0 2.21875,0.987189 2.21875,2.21875 0,1.231419 -0.987437,2.25 -2.21875,2.25 l -0.03125,0 -0.4375,0 -1.46875,0 c -0.08697,0 -0.16184,-0.03682 -0.21875,-0.09375 -0.05691,-0.05693 -0.09375,-0.13171 -0.09375,-0.21875 l 0,-1.9375 c 2.6e-4,-0.1537579 0.03262,-0.2925375 0.0625,-0.4375 0.02988,-0.1449625 0.06849,-0.2730613 0.125,-0.40625 0.05651,-0.1331887 0.10733,-0.2878135 0.1875,-0.40625 0.400841,-0.5921826 1.106188,-0.96875 1.875,-0.96875 z m -6.46875,6.4375 0.4375,0 1.46875,0 c 0.173935,0 0.3125,0.138774 0.3125,0.3125 l 0,1.9375 c -0.0016,1.07568 -0.766229,1.979933 -1.78125,2.1875 -0.14501,0.02965 -0.283738,0.03125 -0.4375,0.03125 -0.224593,0 -0.317594,-0.01663 -0.4375,-0.03125 -1.017713,-0.207908 -1.8125,-1.11007 -1.8125,-2.1875 0,-1.231774 1.018687,-2.25 2.25,-2.25 z"
         id="path3858" />
    </clipPath>
    <inkscape:perspective
       id="perspective3040"
       inkscape:persp3d-origin="0.5 : 0.33333333 : 1"
       inkscape:vp_z="1 : 0.5 : 1"
       inkscape:vp_y="0 : 1000 : 0"
       inkscape:vp_x="0 : 0.5 : 1"
       sodipodi:type="inkscape:persp3d" />
    <linearGradient
       inkscape:collect="always"
       xlink:href="#linearGradient4209"
       id="linearGradient2873"
       gradientUnits="userSpaceOnUse"
       gradientTransform="matrix(0.25834462,0,0,0.25834462,-0.3758467,-32.375846)"
       x1="29.158056"
       y1="64.280525"
       x2="49.614868"
       y2="39.964417" />
    <linearGradient
       inkscape:collect="always"
       id="linearGradient4209">
      <stop
         style="stop-color:#000000;stop-opacity:1;"
         offset="0"
         id="stop4211" />
      <stop
         style="stop-color:#000000;stop-opacity:0;"
         offset="1"
         id="stop4213" />
    </linearGradient>
    <linearGradient
       id="linearGradient3312">
      <stop
         offset="0"
         style="stop-color:#b8f778;stop-opacity:1;"
         id="stop3314" />
      <stop
         offset="1"
         style="stop-color:#73b82e;stop-opacity:1;"
         id="stop3316" />
    </linearGradient>
    <linearGradient
       inkscape:collect="always"
       xlink:href="#linearGradient3312"
       id="linearGradient3102"
       gradientUnits="userSpaceOnUse"
       gradientTransform="matrix(0.25834462,0,0,0.25834462,-0.3758467,-2.375846)"
       x1="32"
       y1="24"
       x2="48"
       y2="72" />
    <linearGradient
       inkscape:collect="always"
       xlink:href="#StandardGradient-1"
       id="linearGradient3883"
       gradientUnits="userSpaceOnUse"
       gradientTransform="matrix(0.25834462,0,0,0.25834462,-0.3758467,-1.375846)"
       x1="32"
       y1="24"
       x2="48"
       y2="72" />
    <linearGradient
       inkscape:collect="always"
       xlink:href="#StandardGradient-1"
       id="linearGradient3885"
       gradientUnits="userSpaceOnUse"
       gradientTransform="matrix(0.25834462,0,0,0.25834462,-0.3758467,-2.375846)"
       x1="32"
       y1="24"
       x2="48"
       y2="72" />
    <linearGradient
       inkscape:collect="always"
       xlink:href="#StandardGradient-1"
       id="linearGradient3890"
       gradientUnits="userSpaceOnUse"
       gradientTransform="matrix(0.25834462,0,0,0.25834462,-0.3758467,-1.375846)"
       x1="32"
       y1="24"
       x2="48"
       y2="72" />
    <linearGradient
       inkscape:collect="always"
       xlink:href="#StandardGradient-1"
       id="linearGradient3894"
       gradientUnits="userSpaceOnUse"
       gradientTransform="matrix(0.25834462,0,0,0.25834462,-0.3758467,-2.375846)"
       x1="32"
       y1="24"
       x2="48"
       y2="72" />
    <linearGradient
       inkscape:collect="always"
       xlink:href="#StandardGradient-1"
       id="linearGradient3899"
       gradientUnits="userSpaceOnUse"
       gradientTransform="matrix(0.25834462,0,0,0.25834462,-30.375847,-1.375846)"
       x1="32"
       y1="24"
       x2="48"
       y2="72" />
    <clipPath
       clipPathUnits="userSpaceOnUse"
       id="clipPath3904">
      <path
         style="fill:#ff00ff;fill-opacity:1;stroke:none;display:inline"
         d="m -30,0 0,22 22,0 0,-22 -22,0 z m 4.03125,5.09375 1.03125,0 5.15625,0 2.0625,0 1.59375,0 c 2.278886,0 4.09375,1.783613 4.09375,4.0625 l 0,3.71875 0,4.09375 -4.09375,0 -3.71875,0 c -2.278886,0 -4.0625,-1.814863 -4.0625,-4.09375 l 0,-3 0,-1.6875 c 3.89e-4,-0.541182 -0.490068,-1.031637 -1.03125,-1.03125 l -1.03125,0 0,-2.0625 z m 3.96875,1.25 0,6.53125 0,0.25 c 0,1.073869 0.870103,1.9375 1.96875,1.9375 l 4.0625,0 c 1.098647,0 2,-0.863631 2,-1.9375 l 0,-0.25 0,-3.15625 c 0,-0.936726 -0.79166,-1.71875 -1.75,-1.71875 -0.486889,0 -0.934868,0.215558 -1.25,0.53125 C -17.283882,8.215558 -17.70061,8 -18.1875,8 c -0.958339,0 -1.75,0.782024 -1.75,1.71875 l 0,2.6875 1,0 0,-2.6875 c 0,-0.401454 0.339283,-0.75 0.75,-0.75 0.410716,0 0.71875,0.348546 0.71875,0.75 l 0,2.6875 1,0 0,-2.6875 c 0,-0.401454 0.339284,-0.75 0.75,-0.75 0.410717,0 0.75,0.348546 0.75,0.75 l 0,3.15625 0,0.25 c 0,0.536935 -0.450677,0.96875 -1,0.96875 l -4.0625,0 c -0.549323,0 -1,-0.431815 -1,-0.96875 l 0,-0.25 0,-6.53125 -0.96875,0 z"
         id="path3906" />
    </clipPath>
    <clipPath
       clipPathUnits="userSpaceOnUse"
       id="clipPath3804">
      <path
         style="fill:#ff00ff;fill-opacity:1;stroke:none;display:inline"
         d="m -30,0 0,22 22,0 0,-22 -22,0 z m 3.03125,4.09375 1.03125,0 6.15625,0 2.0625,0 2.59375,0 c 2.278886,0 4.09375,1.783613 4.09375,4.0625 l 0,5.71875 0,4.09375 -5.09375,0 -4.71875,0 c -2.278886,0 -4.0625,-1.814863 -4.0625,-4.09375 l 0,-3 0,-1.6875 c 3.89e-4,-0.541182 -0.490068,-1.031637 -1.03125,-1.03125 l -1.03125,0 0,-4.0625 z M -23,6 l 0,7.875 0,0.25 c 0,1.073869 0.870103,1.9375 1.96875,1.9375 l 6.0625,0 C -13.870103,16.0625 -13,15.198869 -13,14.125 l 0,-0.25 0,-0.875 0,-2 0,-1 c 0,-1.10457 -0.895431,-2 -2,-2 -0.600847,0 -1.133385,0.268051 -1.5,0.6875 C -16.866615,8.268051 -17.399153,8 -18,8 c -1.104569,0 -2,0.89543 -2,2 l 0,3 1,0 0,-3 c 0,-0.552285 0.447715,-1 1,-1 0.552285,0 1,0.447715 1,1 l 0,1 0,2 1,0 0,-2 0,-1 c 0,-0.552285 0.447715,-1 1,-1 0.552285,0 1,0.447715 1,1 l 0,1 0,2 0,0.875 0,0.25 c 0,0.536935 -0.419427,0.96875 -0.96875,0.96875 l -6.0625,0 c -0.549323,0 -1,-0.431815 -1,-0.96875 l 0,-0.25 0,-7.875 L -23,6 z"
         id="path3806" />
    </clipPath>
    <inkscape:perspective
       id="perspective2992"
       inkscape:persp3d-origin="0.5 : 0.33333333 : 1"
       inkscape:vp_z="1 : 0.5 : 1"
       inkscape:vp_y="0 : 1000 : 0"
       inkscape:vp_x="0 : 0.5 : 1"
       sodipodi:type="inkscape:persp3d" />
    <linearGradient
       inkscape:collect="always"
       xlink:href="#linearGradient4760"
       id="linearGradient4028"
       gradientUnits="userSpaceOnUse"
       gradientTransform="matrix(0.01396833,0,0,-0.01389263,1.4222747,18.650636)"
       x1="480.53683"
       y1="974.90161"
       x2="1140.4358"
       y2="300.62057" />
    <linearGradient
       id="linearGradient4760">
      <stop
         id="stop4762"
         offset="0"
         style="stop-color:#fac45a;stop-opacity:1;" />
      <stop
         style="stop-color:#f7a909;stop-opacity:1;"
         offset="0.52493125"
         id="stop4768" />
      <stop
         id="stop4764"
         offset="1"
         style="stop-color:#d49109;stop-opacity:1" />
    </linearGradient>
    <clipPath
       clipPathUnits="userSpaceOnUse"
       id="clipPath3898">
      <path
         style="color:#000000;fill:#ff00ff;fill-opacity:1;fill-rule:nonzero;stroke:none;stroke-width:1;marker:none;visibility:visible;display:inline;overflow:visible;enable-background:accumulate"
         d="m -30,0 0,22 22,0 0,-22 -22,0 z m 14.15625,3.53125 c 0.07541,0.015768 0.1311,0.088915 0.15625,0.25 l 0.59375,3.84375 c 0.05037,0.3220315 0.338929,0.666533 0.65625,0.75 l 3.78125,1 c 0.31764,0.084175 0.355278,0.258321 0.0625,0.40625 l -3.5,1.75 c -0.293334,0.147346 -0.51802,0.549926 -0.5,0.875 l 0.21875,3.875 c 0.0183,0.326046 -0.143573,0.41966 -0.375,0.1875 L -17.46875,13.75 c -0.117426,0.125976 -0.237688,0.27579 -0.375,0.375 -1.845959,1.334081 -5.769052,3.769905 -7.875,1.5625 -1.143769,-1.198782 -1.393608,-3.233032 -1.25,-4.8125 0.14699,-1.61606 0.79202,-3.0678116 1.875,-4.28125 0.302119,-0.3385215 0.667664,-0.6002285 0.96875,-0.9375 -1.111904,1.2457797 -1.81224,2.791869 -1.875,4.46875 -0.05542,1.481303 0.125916,3.530135 1.28125,4.625 1.98382,1.880188 5.116511,0.274078 7.15625,-1.09375 C -17.801397,13.44951 -18.208776,13.388411 -18.5,13.5 l -3.625,1.40625 c -0.30513,0.117657 -0.430584,-0.02146 -0.28125,-0.3125 L -20.625,11.125 c 0.14977,-0.290981 0.08179,-0.746627 -0.125,-1 l -2.46875,-3 C -23.426306,6.872279 -23.324651,6.697639 -23,6.75 l 3.875,0.625 c 0.323881,0.052042 0.728322,-0.1330652 0.90625,-0.40625 l 2.09375,-3.25 c 0.08916,-0.13719 0.20584,-0.203268 0.28125,-0.1875 z"
         id="path3900" />
    </clipPath>
    <clipPath
       clipPathUnits="userSpaceOnUse"
       id="clipPath3935">
      <path
         style="color:#000000;fill:#ff00ff;fill-opacity:1;fill-rule:nonzero;stroke:none;stroke-width:1;marker:none;visibility:visible;display:inline;overflow:visible;enable-background:accumulate"
         d="m -30,0 0,22 22,0 0,-22 -22,0 z m 14.4375,3.28125 c 0.0908,0.018985 0.15721,0.087299 0.1875,0.28125 l 0.71875,4.625 c 0.06065,0.3877353 0.399187,0.8057528 0.78125,0.90625 l 4.5625,1.21875 c 0.382445,0.10135 0.415013,0.290639 0.0625,0.46875 l -4.21875,2.125 c -0.353182,0.17741 -0.61544,0.671102 -0.59375,1.0625 l 0.28125,4.65625 c 0.02203,0.39257 -0.190105,0.498277 -0.46875,0.21875 l -3.28125,-3.28125 c -0.141384,0.151679 -0.272173,0.349297 -0.4375,0.46875 -2.222589,1.606271 -6.933128,4.532779 -9.46875,1.875 -1.377132,-1.443369 -1.704159,-3.879525 -1.53125,-5.78125 0.17698,-1.945782 0.97731,-3.6952351 2.28125,-5.15625 0.363759,-0.4075897 0.793734,-0.7501653 1.15625,-1.15625 -1.338765,1.4999549 -2.17444,3.3872369 -2.25,5.40625 -0.06673,1.783532 0.140194,4.24425 1.53125,5.5625 2.388577,2.2638 6.169095,0.334406 8.625,-1.3125 -0.28764,-0.248919 -0.774359,-0.321856 -1.125,-0.1875 l -4.375,1.6875 c -0.367383,0.141664 -0.523553,-0.02458 -0.34375,-0.375 l 2.15625,-4.1875 c 0.180327,-0.35035 0.09273,-0.88243 -0.15625,-1.1875 l -2.96875,-3.625 c -0.249903,-0.3042834 -0.140889,-0.500545 0.25,-0.4375 l 4.6875,0.75 c 0.389962,0.06266 0.879519,-0.1710776 1.09375,-0.5 l 2.5,-3.90625 c 0.107351,-0.1651804 0.25296,-0.237735 0.34375,-0.21875 z"
         id="path3937" />
    </clipPath>
    <inkscape:perspective
       id="perspective2862"
       inkscape:persp3d-origin="0.5 : 0.33333333 : 1"
       inkscape:vp_z="1 : 0.5 : 1"
       inkscape:vp_y="0 : 1000 : 0"
       inkscape:vp_x="0 : 0.5 : 1"
       sodipodi:type="inkscape:persp3d" />
    <linearGradient
       inkscape:collect="always"
       xlink:href="#StandardGradient-1"
       id="linearGradient4006"
       gradientUnits="userSpaceOnUse"
       x1="9"
       y1="2"
       x2="9"
       y2="19.117243" />
    <clipPath
       clipPathUnits="userSpaceOnUse"
       id="clipPath4040">
      <path
         style="color:#000000;fill:#ff00ff;fill-opacity:1;fill-rule:nonzero;stroke:none;stroke-width:1;marker:none;visibility:visible;display:inline;overflow:visible;enable-background:accumulate"
         d="m 1,-1 0,22 22,0 0,-22 -22,0 z m 10.125,2.96875 c 0.141162,-0.013301 0.291118,-0.00768 0.4375,0 a 0.13191028,0.13191028 0 0 1 0.03125,0 0.13191028,0.13191028 0 0 1 0.03125,0 c 0.288345,0.1199159 0.584619,0.1497309 0.90625,0.15625 0.321631,0.00652 0.650518,-0.00584 1,0.09375 0.846522,0.2546745 1.814674,0.3103046 2.65625,0.75 1.098788,0.6412318 2.138935,1.6258949 2.4375,2.9375 0.05028,0.1879123 0.09414,0.6113297 0.125,0.90625 0.0077,0.07373 0.02765,0.1393072 0.03125,0.1875 0.0018,0.024096 -5.07e-4,0.045373 0,0.0625 2.54e-4,0.00856 3.57e-4,0.022026 0,0.03125 -1.78e-4,0.00461 9.5e-4,0.023885 0,0.03125 -0.0014,0.00597 1.35e-4,0.030945 0,0.03125 -6.8e-5,1.523e-4 -0.03118,0.031145 -0.03125,0.03125 -7.4e-5,1.051e-4 -0.03117,0.031193 -0.03125,0.03125 -8e-5,5.74e-5 -0.06241,-9.3e-6 -0.0625,0 -8.6e-5,9.3e-6 -0.06241,3.93e-5 -0.0625,0 -9.3e-5,-3.93e-5 -0.03115,-0.031162 -0.03125,-0.03125 -9.9e-5,-8.82e-5 -0.03114,1.376e-4 -0.03125,0 -2.11e-4,-2.753e-4 0.0027,-0.025831 0,-0.03125 -0.01078,-0.021676 0.0023,-0.022467 0,-0.03125 C 18.52665,7.107434 18.50485,7.089192 18.5,7.0625 18.4903,7.009117 18.4864,6.9329853 18.46875,6.8125 a 0.13191028,0.13191028 0 0 1 0,-0.03125 c 0.01007,-0.2349566 -0.154343,-0.3823405 -0.25,-0.40625 -0.04783,-0.011955 -0.04901,-0.021973 -0.0625,0 -0.01199,0.019531 -0.03082,0.1167915 0,0.25 0.0039,0.016651 -0.0055,0.012649 0,0.03125 0.287964,0.7617317 0.367688,1.5725604 0.28125,2.375 a 0.13191028,0.13191028 0 0 1 0,0.03125 0.13191028,0.13191028 0 0 1 0,0.03125 c -0.297626,0.562617 -0.435349,1.312535 -0.90625,1.875 C 17.52205,10.97978 17.5095,10.98911 17.5,11 c -0.849105,1.442812 -2.603472,2.231567 -4.25,2.0625 0.330333,0.05174 0.62061,0.13372 0.90625,0.0625 l 0.03125,0.125 0.03125,0.125 c -0.268341,0.03814 -0.654264,0.0064 -1,-0.0625 -0.03051,-0.0061 -0.06379,0.0069 -0.09375,0 -0.02229,-0.0032 -0.04025,-0.02777 -0.0625,-0.03125 -0.776653,-0.121415 -1.518914,-0.388862 -2.09375,-0.9375 -0.07572,-0.08363 -0.125628,-0.144538 -0.15625,-0.1875 -0.01531,-0.02148 -0.01913,-0.04546 -0.03125,-0.09375 -8.38e-4,-0.0085 -7.1e-5,-0.03068 0,-0.03125 7.1e-5,-5.74e-4 -2.08e-4,-0.06206 0,-0.0625 2.08e-4,-4.41e-4 0.03091,-0.03094 0.03125,-0.03125 3.41e-4,-3.11e-4 0.03078,-0.03107 0.03125,-0.03125 4.72e-4,-1.84e-4 0.03065,6.1e-5 0.03125,0 5.99e-4,-6.1e-5 0.02397,-6.03e-4 0.03125,0 0.0073,6.03e-4 0.02597,-0.0011 0.03125,0 0.04227,0.0089 0.04424,0.0204 0.0625,0.03125 0.01826,0.01085 0.04228,0.01706 0.0625,0.03125 0.04044,0.02838 0.07684,0.05662 0.125,0.09375 0.05115,0.03943 0.07903,0.08948 0.125,0.125 0.0061,0.0047 0.02541,-0.0045 0.03125,0 a 0.13191028,0.13191028 0 0 1 0.03125,0 c 0.0295,0.0095 0.0521,0.0255 0.0625,0.03125 0.0104,0.0058 0.01826,-0.0076 0.03125,0 0.02598,0.01524 0.0578,0.04192 0.09375,0.0625 0.05199,0.02976 0.102699,0.06895 0.15625,0.09375 -0.0041,-0.0081 0.0048,-0.02222 0,-0.03125 C 11.70591,12.33655 11.7002,12.31989 11.6875,12.3125 10.261983,11.483209 9.734141,9.521551 10.53125,8.09375 10.958666,7.158735 11.912135,6.4717784 12.96875,6.46875 13.61668,6.450786 14.384228,6.7041615 14.75,7.25 a 0.13191028,0.13191028 0 0 1 0,0.03125 0.13191028,0.13191028 0 0 1 0,0.03125 0.13191028,0.13191028 0 0 1 0,0.03125 0.13191028,0.13191028 0 0 1 0,0.03125 0.13191028,0.13191028 0 0 1 -0.03125,0.03125 0.13191028,0.13191028 0 0 1 -0.03125,0.03125 0.13191028,0.13191028 0 0 1 -0.03125,0 0.13191028,0.13191028 0 0 1 -0.03125,0 0.13191028,0.13191028 0 0 1 -0.03125,0 0.13191028,0.13191028 0 0 1 -0.03125,0 c -1.013495,-0.6823771 -2.535726,-0.3485615 -3.25,0.625 -0.472636,0.7044472 -0.493837,1.589098 -0.1875,2.375 0.306337,0.785902 0.911687,1.472153 1.6875,1.75 1.872935,0.593891 4.075972,-0.919115 4.3125,-2.84375 -0.0086,-0.01927 0.007,-0.043057 0,-0.0625 C 17.025092,9.003861 17.053726,8.711202 17.09375,8.4375 17.13658,8.1446133 17.166578,7.8762786 17.0625,7.65625 a 0.13191028,0.13191028 0 0 1 0,-0.03125 0.13191028,0.13191028 0 0 1 0,-0.03125 C 16.875834,5.6577139 15.174121,3.9438574 13.25,3.6875 c -0.01037,-6.801e-4 -0.02088,6.413e-4 -0.03125,0 C 12.150226,3.6214464 11.019728,3.7819519 10.125,4.375 9.234544,4.7301671 8.486567,5.4187136 7.65625,5.96875 7.646457,5.9800175 7.634698,5.9886568 7.625,6 6.497719,7.3185476 6.015599,9.156714 6.21875,10.875 c -0.040275,0.941295 0.351116,1.837477 1,2.53125 A 0.13191028,0.13191028 0 0 1 7.25,13.4375 a 0.13191028,0.13191028 0 0 1 0,0.03125 c 0.263542,0.744041 0.505429,1.503422 0.90625,2.15625 0.449741,0.722085 1.150714,1.242739 1.78125,1.875 0.00547,0.0055 0.025794,-0.0055 0.03125,0 0.866452,0.584517 1.764899,1.202035 2.78125,1.375 a 0.13191028,0.13191028 0 0 1 0.03125,0 0.13191028,0.13191028 0 0 1 0.03125,0.03125 0.13191028,0.13191028 0 0 1 0.03125,0.03125 0.13191028,0.13191028 0 0 1 0,0.03125 0.13191028,0.13191028 0 0 1 0,0.03125 0.13191028,0.13191028 0 0 1 0,0.03125 0.13191028,0.13191028 0 0 1 0,0.03125 0.13191028,0.13191028 0 0 1 -0.03125,0.03125 0.13191028,0.13191028 0 0 1 -0.03125,0.03125 0.13191028,0.13191028 0 0 1 -0.03125,0 0.13191028,0.13191028 0 0 1 -0.03125,0 C 10.506861,19.140743 8.499416,17.883588 7.15625,16.21875 5.748403,14.555058 5.020042,12.353722 5.0625,10.1875 4.955336,8.621503 5.173771,6.9016799 6.21875,5.625 6.224299,5.6116816 6.24433,5.6069964 6.25,5.59375 6.700969,4.5401227 7.529047,3.7030527 8.46875,3.09375 9.278105,2.6367211 10.136868,2.0618593 11.125,1.96875 z"
         id="path4042" />
    </clipPath>
    <inkscape:perspective
       id="perspective2869"
       inkscape:persp3d-origin="0.5 : 0.33333333 : 1"
       inkscape:vp_z="1 : 0.5 : 1"
       inkscape:vp_y="0 : 1000 : 0"
       inkscape:vp_x="0 : 0.5 : 1"
       sodipodi:type="inkscape:persp3d" />
    <linearGradient
       inkscape:collect="always"
       xlink:href="#StandardGradient-1"
       id="linearGradient4134"
       x1="13"
       y1="4"
       x2="13"
       y2="22.110771"
       gradientUnits="userSpaceOnUse" />
    <linearGradient
       inkscape:collect="always"
       xlink:href="#StandardGradient-1"
       id="linearGradient4140"
       gradientUnits="userSpaceOnUse"
       x1="13"
       y1="4"
       x2="13"
       y2="22.110771"
       gradientTransform="translate(0,-1)" />
    <linearGradient
       inkscape:collect="always"
       xlink:href="#StandardGradient-1"
       id="linearGradient4142"
       gradientUnits="userSpaceOnUse"
       x1="13"
       y1="4"
       x2="13"
       y2="22.110771" />
    <linearGradient
       inkscape:collect="always"
       xlink:href="#StandardGradient-1"
       id="linearGradient4149"
       gradientUnits="userSpaceOnUse"
       x1="13"
       y1="4"
       x2="13"
       y2="22.110771"
       gradientTransform="translate(0,-3)" />
    <linearGradient
       inkscape:collect="always"
       xlink:href="#StandardGradient-1"
       id="linearGradient4151"
       gradientUnits="userSpaceOnUse"
       x1="13"
       y1="4"
       x2="13"
       y2="22.110771" />
    <linearGradient
       inkscape:collect="always"
       xlink:href="#StandardGradient-1"
       id="linearGradient4156"
       gradientUnits="userSpaceOnUse"
       x1="13"
       y1="4"
       x2="13"
       y2="22.110771"
       gradientTransform="translate(0,1)" />
    <linearGradient
       inkscape:collect="always"
       xlink:href="#StandardGradient-1"
       id="linearGradient4160"
       gradientUnits="userSpaceOnUse"
       gradientTransform="translate(0,-2)"
       x1="13"
       y1="4"
       x2="13"
       y2="22.110771" />
    <linearGradient
       inkscape:collect="always"
       xlink:href="#StandardGradient-1"
       id="linearGradient4165"
       gradientUnits="userSpaceOnUse"
       x1="13"
       y1="4"
       x2="13"
       y2="22.110771"
       gradientTransform="translate(-30,-2)" />
    <clipPath
       clipPathUnits="userSpaceOnUse"
       id="clipPath4172">
      <path
         style="color:#000000;fill:#ff00ff;fill-opacity:1;fill-rule:nonzero;stroke:none;stroke-width:1;marker:none;visibility:visible;display:inline;overflow:visible;enable-background:accumulate"
         d="m -30,0 0,22 22,0 0,-22 -22,0 z m 11,2 c 4.970563,0 9,4.0294373 9,9 0,4.970563 -4.029437,9 -9,9 -4.970563,0 -9,-4.029437 -9,-9 0,-4.9705627 4.029437,-9 9,-9 z m 0,2 c -2.375623,0 -4.484522,1.1905403 -5.75,3 0.60247,0.1497408 1.207183,0.3020337 1.84375,0.5 L -22.875,6.3125 c 0.973395,0.121375 1.915898,0.3276032 2.875,0.53125 2.006073,0.4572276 3.103728,0.7777362 4.09375,1.25 0.891745,0.425383 1.271401,0.909673 1.8125,2.34375 0.216384,0.573479 0.59375,1.838745 0.59375,1.96875 0,0.06897 -0.737529,0.552625 -1.125,0.75 -1.099301,0.559977 -2.166057,0.619241 -3.53125,0.1875 -0.893615,-0.282612 -2.374623,-0.991718 -3.28125,-1.59375 l -0.53125,-0.34375 0.5625,1.40625 0.75,0.34375 c 1.587815,0.763512 2.901855,1.23756 3.71875,1.28125 0.785812,0.04198 1.687834,-0.200338 2.71875,-0.6875 0.274735,-0.12984 0.5052,-0.21875 0.53125,-0.21875 0.07362,0 0.01939,0.359754 -0.125,0.75 -0.151435,0.409299 -0.299849,0.563937 -1,0.90625 -1.3397,0.654974 -2.547085,0.955556 -4.375,1.09375 -0.80265,0.06067 -1.470253,0.01276 -2.6875,-0.125 -0.832245,-0.09418 -1.472158,-0.08788 -1.875,-0.03125 1.249312,1.160393 2.910438,1.875 4.75,1.875 3.865993,0 7,-3.134007 7,-7 0,-3.8659933 -3.134007,-7 -7,-7 z m 1.65625,5.0625 c -0.343324,0.00718 -0.704688,0.138966 -1,0.40625 -0.450887,0.408079 -0.572705,1.155856 -0.3125,1.71875 0.213629,0.462156 0.621677,0.76658 1.09375,0.84375 0.669427,0.109452 1.284543,-0.203887 1.5625,-0.78125 0.19013,-0.39496 0.2202,-0.658972 0.125,-1.03125 -0.188984,-0.73896 -0.813328,-1.17014 -1.46875,-1.15625 z M -17,9.84375 c 0.254505,0 0.555415,0.128264 0.59375,0.28125 0.05209,0.207895 -0.01698,0.365627 -0.21875,0.46875 -0.311555,0.159233 -0.702986,0.126959 -0.9375,-0.09375 -0.289121,-0.272111 0.03946,-0.65625 0.5625,-0.65625 z"
         id="path4174" />
    </clipPath>
    <filter
       inkscape:collect="always"
       id="filter4176"
       color-interpolation-filters="sRGB">
      <feGaussianBlur
         inkscape:collect="always"
         stdDeviation="0.54"
         id="feGaussianBlur4178" />
    </filter>
    <linearGradient
       inkscape:collect="always"
       xlink:href="#StandardGradient-1"
       id="linearGradient5746"
       gradientUnits="userSpaceOnUse"
       x1="13"
       y1="4"
       x2="13"
       y2="22.110771" />
    <linearGradient
       inkscape:collect="always"
       xlink:href="#StandardGradient-1"
       id="linearGradient5750"
       gradientUnits="userSpaceOnUse"
       x1="13"
       y1="4"
       x2="13"
       y2="22.110771"
       gradientTransform="translate(0,-2)" />
  </defs>
  <sodipodi:namedview
     id="base"
     pagecolor="#ffffff"
     bordercolor="#e7e7e7"
     borderopacity="1"
     inkscape:pageopacity="0.0"
     inkscape:pageshadow="2"
     inkscape:zoom="16.008897"
     inkscape:cx="-18.694776"
     inkscape:cy="18.327501"
     inkscape:document-units="px"
     inkscape:current-layer="layer1"
     showgrid="true"
     inkscape:showpageshadow="false"
     showguides="false"
     inkscape:guide-bbox="true"
     inkscape:window-width="1920"
     inkscape:window-height="1029"
     inkscape:window-x="0"
     inkscape:window-y="25"
     inkscape:window-maximized="1"
     inkscape:snap-global="true">
    <sodipodi:guide
       orientation="1,0"
       position="0,112"
       id="guide2383" />
    <sodipodi:guide
       orientation="0,1"
       position="26.278146,128"
       id="guide2385" />
    <sodipodi:guide
       orientation="1,0"
       position="128,54.082119"
       id="guide2387" />
    <sodipodi:guide
       orientation="0,1"
       position="78.156291,0"
       id="guide2389" />
    <sodipodi:guide
       orientation="0,1"
       position="60.863576,64.084768"
       id="guide2391" />
    <inkscape:grid
       type="xygrid"
       id="grid3672"
       visible="true"
       enabled="true"
       empspacing="8"
       snapvisiblegridlinesonly="true" />
  </sodipodi:namedview>
  <metadata
     id="metadata7">
    <rdf:RDF>
      <cc:Work
         rdf:about="">
        <dc:format>image/svg+xml</dc:format>
        <dc:type
           rdf:resource="http://purl.org/dc/dcmitype/StillImage" />
        <dc:title />
      </cc:Work>
    </rdf:RDF>
  </metadata>
  <g
     inkscape:groupmode="layer"
     id="layer2"
     inkscape:label="Dark background"
     sodipodi:insensitive="true"
     style="display:none">
    <rect
       y="0"
       x="0"
       height="22"
       width="22"
       id="rect4898"
       style="fill:#333333;fill-opacity:1;fill-rule:nonzero;stroke:none;display:inline" />
  </g>
  <g
     inkscape:groupmode="layer"
     id="layer3"
     inkscape:label="Pale darkground"
     sodipodi:insensitive="true"
     style="display:none">
    <rect
       style="fill:#efebe7;fill-opacity:1;fill-rule:nonzero;stroke:none"
       id="rect4126"
       width="22"
       height="22"
       x="0"
       y="0" />
  </g>
  <g
     inkscape:label="Button"
     inkscape:groupmode="layer"
     id="layer1"
     style="display:inline">
    <path
       style="color:#000000;fill:#ffffff;fill-opacity:1;fill-rule:nonzero;stroke:none;stroke-width:1;marker:none;visibility:visible;display:inline;overflow:visible;enable-background:accumulate;opacity:0.15"
       d="M 11 1 C 5.4882436 1 1 5.4882436 1 11 C 1 16.511757 5.4882436 21 11 21 C 16.511757 21 21 16.511757 21 11 C 21 5.4882436 16.511757 1 11 1 z M 11 2 C 15.970563 2 20 6.0294373 20 11 C 20 15.970563 15.970563 20 11 20 C 6.0294373 20 2 15.970563 2 11 C 2 6.0294373 6.0294373 2 11 2 z M 11 4 C 8.6243767 4 6.5154783 5.1905403 5.25 7 C 5.8524699 7.1497408 6.4571827 7.3020337 7.09375 7.5 L 7.125 6.3125 C 8.0983946 6.433875 9.040898 6.6401032 10 6.84375 C 12.006073 7.3009776 13.103728 7.6214862 14.09375 8.09375 C 14.985495 8.519133 15.365151 9.003423 15.90625 10.4375 C 16.122634 11.010979 16.5 12.276245 16.5 12.40625 C 16.5 12.475218 15.762471 12.958875 15.375 13.15625 C 14.275699 13.716227 13.208943 13.775491 11.84375 13.34375 C 10.950135 13.061138 9.4691271 12.352032 8.5625 11.75 L 8.03125 11.40625 L 8.59375 12.8125 L 9.34375 13.15625 C 10.931565 13.919762 12.245605 14.39381 13.0625 14.4375 C 13.848312 14.47948 14.750334 14.237162 15.78125 13.75 C 16.055985 13.62016 16.28645 13.53125 16.3125 13.53125 C 16.386122 13.53125 16.331888 13.891004 16.1875 14.28125 C 16.036065 14.690549 15.887651 14.845187 15.1875 15.1875 C 13.8478 15.842474 12.640415 16.143056 10.8125 16.28125 C 10.00985 16.341925 9.3422472 16.294006 8.125 16.15625 C 7.2927554 16.06207 6.652842 16.06837 6.25 16.125 C 7.4993118 17.285393 9.1604382 18 11 18 C 14.865993 18 18 14.865993 18 11 C 18 7.1340067 14.865993 4 11 4 z M 11 5 C 13.971007 5 16.324478 7.1732627 16.8125 10 C 16.543561 9.298584 16.295666 8.74331 15.9375 8.28125 C 15.561166 7.795752 15.060566 7.4399959 14.53125 7.1875 C 13.440531 6.6672014 12.246516 6.3371718 10.21875 5.875 C 9.7266297 5.7705078 9.1943673 5.6909496 8.6875 5.59375 C 9.4131125 5.2823833 10.160656 5 11 5 z M 12.65625 9.0625 C 12.312926 9.06968 11.951562 9.201466 11.65625 9.46875 C 11.205363 9.876829 11.083545 10.624606 11.34375 11.1875 C 11.557379 11.649656 11.965427 11.95408 12.4375 12.03125 C 13.106927 12.140702 13.722043 11.827363 14 11.25 C 14.19013 10.85504 14.2202 10.591028 14.125 10.21875 C 13.936016 9.47979 13.311672 9.04861 12.65625 9.0625 z M 13 9.84375 C 13.254505 9.84375 13.555415 9.972014 13.59375 10.125 C 13.64584 10.332895 13.576768 10.490627 13.375 10.59375 C 13.063445 10.752983 12.672014 10.720709 12.4375 10.5 C 12.148379 10.227889 12.476958 9.84375 13 9.84375 z "
       id="path5748" />
    <path
       style="color:#000000;fill:url(#linearGradient4134);fill-opacity:1;fill-rule:nonzero;stroke:none;stroke-width:1;marker:none;visibility:visible;display:inline;overflow:visible;enable-background:accumulate"
       d="m 11,4 c -4.9705627,0 -9,4.0294373 -9,9 0,4.970563 4.0294373,9 9,9 4.970563,0 9,-4.029437 9,-9 0,-4.9705627 -4.029437,-9 -9,-9 z m 0,2 c 3.865993,0 7,3.1340067 7,7 0,3.865993 -3.134007,7 -7,7 -1.8395618,0 -3.5006882,-0.714607 -4.75,-1.875 0.402842,-0.05663 1.0427554,-0.06293 1.875,0.03125 1.2172472,0.137756 1.88485,0.185675 2.6875,0.125 1.827915,-0.138194 3.0353,-0.438776 4.375,-1.09375 0.700151,-0.342313 0.848565,-0.496951 1,-0.90625 0.144388,-0.390246 0.198622,-0.75 0.125,-0.75 -0.02605,0 -0.256515,0.08891 -0.53125,0.21875 -1.030916,0.487162 -1.932938,0.72948 -2.71875,0.6875 -0.816895,-0.04369 -2.130935,-0.517738 -3.71875,-1.28125 L 8.59375,14.8125 8.03125,13.40625 8.5625,13.75 c 0.9066271,0.602032 2.387635,1.311138 3.28125,1.59375 1.365193,0.431741 2.431949,0.372477 3.53125,-0.1875 0.387471,-0.197375 1.125,-0.681032 1.125,-0.75 0,-0.130005 -0.377366,-1.395271 -0.59375,-1.96875 -0.541099,-1.434077 -0.920755,-1.918367 -1.8125,-2.34375 C 13.103728,9.6214862 12.006073,9.3009776 10,8.84375 9.040898,8.6401032 8.0983946,8.433875 7.125,8.3125 L 7.09375,9.5 C 6.4571827,9.3020337 5.8524699,9.1497408 5.25,9 6.5154783,7.1905403 8.6243767,6 11,6 z m 1.65625,5.0625 c 0.655422,-0.01389 1.279766,0.41729 1.46875,1.15625 0.0952,0.372278 0.06513,0.63629 -0.125,1.03125 -0.277957,0.577363 -0.893073,0.890702 -1.5625,0.78125 -0.472073,-0.07717 -0.880121,-0.381594 -1.09375,-0.84375 -0.260205,-0.562894 -0.138387,-1.310671 0.3125,-1.71875 0.295312,-0.267284 0.656676,-0.39907 1,-0.40625 z M 13,11.84375 c -0.523042,0 -0.851621,0.384139 -0.5625,0.65625 0.234514,0.220709 0.625945,0.252983 0.9375,0.09375 0.201768,-0.103123 0.27084,-0.260855 0.21875,-0.46875 C 13.555415,11.972014 13.254505,11.84375 13,11.84375 z"
       transform="translate(0,-2)"
       id="path4124" />
    <rect
       style="fill:#000000;fill-opacity:1;stroke:none;display:inline"
       id="rect2824-6"
       width="5"
       height="5"
       x="24"
       y="1" />
    <text
       xml:space="preserve"
       style="font-size:2px;font-style:normal;font-variant:normal;font-weight:normal;font-stretch:normal;text-align:start;line-height:125%;writing-mode:lr-tb;text-anchor:start;fill:#000000;fill-opacity:1;stroke:none;display:inline;font-family:Liberation Sans;-inkscape-font-specification:Liberation Sans"
       x="30"
       y="4"
       id="text3598-5"
       sodipodi:linespacing="125%"><tspan
         sodipodi:role="line"
         id="tspan3600-1"
         x="30"
         y="4">Opacity : 50%</tspan></text>
    <rect
       y="9"
       x="24"
       height="5"
       width="5"
       id="rect3602-3"
       style="fill:#ffffff;fill-opacity:1;stroke:#000000;stroke-width:0.1;stroke-miterlimit:4;stroke-dasharray:none;display:inline" />
    <text
       sodipodi:linespacing="125%"
       id="text3604-4"
       y="12"
       x="30"
       style="font-size:2px;font-style:normal;font-variant:normal;font-weight:normal;font-stretch:normal;text-align:start;line-height:125%;writing-mode:lr-tb;text-anchor:start;fill:#000000;fill-opacity:1;stroke:none;display:inline;font-family:Liberation Sans;-inkscape-font-specification:Liberation Sans"
       xml:space="preserve"><tspan
         y="12"
         x="30"
         id="tspan3606-5"
         sodipodi:role="line">Opacity : 30%</tspan></text>
    <rect
       style="fill:#ffffff;fill-opacity:1;stroke:#000000;stroke-width:0.1;stroke-miterlimit:4;stroke-dasharray:none;display:inline"
       id="rect3608-6"
       width="5"
       height="5"
       x="24"
       y="17" />
    <text
       xml:space="preserve"
       style="font-size:2px;font-style:normal;font-variant:normal;font-weight:normal;font-stretch:normal;text-align:start;line-height:125%;writing-mode:lr-tb;text-anchor:start;fill:#000000;fill-opacity:1;stroke:none;display:inline;font-family:Liberation Sans;-inkscape-font-specification:Liberation Sans"
       x="30"
       y="19"
       id="text3610-7"
       sodipodi:linespacing="125%"><tspan
         sodipodi:role="line"
         x="30"
         y="19"
         id="tspan3648-4">Glow : 6</tspan><tspan
         sodipodi:role="line"
         x="30"
         y="21.5"
         id="tspan3641-3">Opacity : 30%</tspan></text>
    <rect
       y="54"
       x="1"
       height="5"
       width="5"
       id="rect3825-6"
       style="fill:url(#linearGradient3833-8);fill-opacity:1;stroke:none;display:inline"
       transform="matrix(0,1,1,0,0,0)" />
    <rect
       transform="matrix(0,1,1,0,0,0)"
       style="fill:url(#linearGradient3829-0);fill-opacity:1;stroke:none;display:inline"
       id="rect3808-2"
       width="5"
       height="5"
       x="9"
       y="54" />
    <rect
       style="color:#000000;fill:#ff00ff;fill-opacity:1;fill-rule:nonzero;stroke:none;stroke-width:1;marker:none;visibility:visible;display:inline;overflow:visible;enable-background:accumulate"
       id="rect3812"
       width="22"
       height="22"
       x="-30"
       y="0" />
    <rect
       y="0"
       x="-30"
       height="22"
       width="22"
       id="rect4069"
       style="color:#000000;fill:#ff00ff;fill-opacity:1;fill-rule:nonzero;stroke:none;stroke-width:1;marker:none;visibility:visible;display:inline;overflow:visible;enable-background:accumulate" />
    <path
       style="opacity:0.5;color:#000000;fill:#000000;fill-opacity:1;fill-rule:nonzero;stroke:none;stroke-width:1;marker:none;visibility:visible;display:inline;overflow:visible;enable-background:accumulate"
       d="M 11,4 C 6.0294373,4 2,8.0294373 2,13 2,13.171564 2.021776,13.330805 2.03125,13.5 2.2962571,8.7672791 6.2010014,5 11,5 15.798999,5 19.703743,8.7672791 19.96875,13.5 19.978224,13.330805 20,13.171564 20,13 20,8.0294373 15.970563,4 11,4 z M 7.125,8.3125 7.09375,9.5 C 6.684589,9.3727549 6.2969535,9.2884568 5.90625,9.1875 5.6651355,9.4412819 5.4509062,9.7127318 5.25,10 c 0.6024699,0.149741 1.2071827,0.302034 1.84375,0.5 L 7.125,9.3125 C 8.0983946,9.433875 9.040898,9.6401032 10,9.84375 c 2.006073,0.457228 3.103728,0.777736 4.09375,1.25 0.891745,0.425383 1.271401,0.909673 1.8125,2.34375 0.108192,0.286739 0.253611,0.751998 0.375,1.15625 C 16.3734,14.52456 16.5,14.425607 16.5,14.40625 16.5,14.276245 16.122634,13.010979 15.90625,12.4375 15.365151,11.003423 14.985495,10.519133 14.09375,10.09375 13.103728,9.6214862 12.006073,9.3009776 10,8.84375 9.040898,8.6401032 8.0983946,8.433875 7.125,8.3125 z m 5.53125,3.75 c -0.08007,0.0017 -0.169034,0.01588 -0.25,0.03125 -0.09129,0.125404 -0.103764,0.279179 0.03125,0.40625 0.234514,0.220709 0.625945,0.252983 0.9375,0.09375 0.100884,-0.05156 0.182772,-0.10919 0.21875,-0.1875 0.004,-0.0087 -0.0032,-0.02223 0,-0.03125 -0.267611,-0.215528 -0.595568,-0.319746 -0.9375,-0.3125 z m -1.34375,0.96875 c -0.134942,0.375619 -0.136235,0.793935 0.03125,1.15625 0.213629,0.462156 0.621677,0.76658 1.09375,0.84375 C 13.106927,15.140702 13.722043,14.827363 14,14.25 14.19013,13.85504 14.2202,13.591028 14.125,13.21875 14.11044,13.16181 14.08205,13.115719 14.0625,13.0625 14.03858,13.12597 14.03391,13.179561 14,13.25 13.722043,13.827363 13.106927,14.140702 12.4375,14.03125 11.965427,13.95408 11.557379,13.649656 11.34375,13.1875 11.32104,13.13838 11.32942,13.082838 11.3125,13.03125 z M 17.96875,13.5 C 17.712221,17.132486 14.697768,20 11,20 9.785195,20 8.6482135,19.67086 7.65625,19.125 7.0688461,19.08305 6.5664719,19.080512 6.25,19.125 7.4993118,20.285393 9.1604382,21 11,21 c 3.865993,0 7,-3.134007 7,-7 0,-0.168225 -0.01958,-0.334745 -0.03125,-0.5 z m -9.9375,0.90625 0.5625,1.40625 0.75,0.34375 c 1.587815,0.763512 2.901855,1.23756 3.71875,1.28125 0.785812,0.04198 1.687834,-0.200338 2.71875,-0.6875 0.09998,-0.04725 0.106965,-0.05965 0.1875,-0.09375 0.08916,-0.107381 0.16041,-0.217319 0.21875,-0.375 0.144388,-0.390246 0.198622,-0.75 0.125,-0.75 -0.211722,0.169526 -0.635013,0.470915 -0.9375,0.625 -1.099301,0.559977 -2.166057,0.619241 -3.53125,0.1875 -0.79374,-0.251026 -2.0310506,-0.824915 -2.9375,-1.375 L 8.59375,14.8125 8.5625,14.75 8.03125,14.40625 z"
       transform="translate(0,-2)"
       id="path4136" />
    <path
       style="opacity:0.3;color:#000000;fill:#ffffff;fill-opacity:1;fill-rule:nonzero;stroke:none;stroke-width:1;marker:none;visibility:visible;display:inline;overflow:visible;enable-background:accumulate"
       d="M 11,6 C 8.6243767,6 6.5154783,7.1905403 5.25,9 5.4652254,9.0534932 5.6891021,9.1313895 5.90625,9.1875 7.1838798,7.8427478 9.0015286,7 11,7 14.697768,7 17.712221,9.8675139 17.96875,13.5 17.98042,13.334745 18,13.168225 18,13 18,9.1340067 14.865993,6 11,6 z m 1.65625,5.0625 c -0.343324,0.0072 -0.704688,0.138966 -1,0.40625 -0.411541,0.372468 -0.520761,1.022921 -0.34375,1.5625 0.0747,-0.207944 0.183083,-0.417087 0.34375,-0.5625 0.226439,-0.204948 0.483802,-0.324474 0.75,-0.375 0.104201,-0.143137 0.314959,-0.25 0.59375,-0.25 0.254505,0 0.555415,0.128264 0.59375,0.28125 0.02315,0.0924 0.02573,0.17781 0,0.25 -0.0032,0.009 0.004,0.02255 0,0.03125 0.197864,0.164382 0.369835,0.386918 0.46875,0.65625 0.110221,-0.292395 0.140722,-0.537866 0.0625,-0.84375 -0.188984,-0.73896 -0.813328,-1.17014 -1.46875,-1.15625 z M 13,12.84375 c -0.523042,0 -0.851621,0.384139 -0.5625,0.65625 0.234514,0.220709 0.625945,0.252983 0.9375,0.09375 0.201768,-0.103123 0.27084,-0.260855 0.21875,-0.46875 C 13.555415,12.972014 13.254505,12.84375 13,12.84375 z M 8.03125,13.40625 8.5625,14.75 c 0.1013289,0.06729 0.2296934,0.149534 0.34375,0.21875 l 0.4375,0.1875 c 1.587815,0.763512 2.901855,1.23756 3.71875,1.28125 0.785812,0.04198 1.687834,-0.200338 2.71875,-0.6875 0.274735,-0.12984 0.5052,-0.21875 0.53125,-0.21875 0.05948,-0.04763 0.1875,-0.109873 0.1875,-0.125 0,-0.065 -0.09736,-0.408248 -0.21875,-0.8125 -0.236177,0.177336 -0.62753,0.420522 -0.90625,0.5625 -1.099301,0.559977 -2.166057,0.619241 -3.53125,0.1875 C 10.950135,15.061138 9.4691271,14.352032 8.5625,13.75 L 8.03125,13.40625 z m -6,0.09375 C 2.021776,13.669195 2,13.828436 2,14 c 0,4.970563 4.0294373,9 9,9 4.970563,0 9,-4.029437 9,-9 0,-0.171564 -0.02178,-0.330805 -0.03125,-0.5 C 19.703743,18.232721 15.798999,22 11,22 6.2010014,22 2.2962571,18.232721 2.03125,13.5 z m 14.28125,3.03125 c -0.01657,0 -0.202978,0.0654 -0.34375,0.125 -0.14228,0.171353 -0.350829,0.320812 -0.78125,0.53125 -1.3397,0.654974 -2.547085,0.955556 -4.375,1.09375 -0.80265,0.06067 -1.4702528,0.01276 -2.6875,-0.125 C 7.2927554,18.06207 6.652842,18.06837 6.25,18.125 c 0.4242946,0.394096 0.8960973,0.719272 1.40625,1 0.1603117,0.01145 0.2903151,0.01106 0.46875,0.03125 1.2172472,0.137756 1.88485,0.185675 2.6875,0.125 1.827915,-0.138194 3.0353,-0.438776 4.375,-1.09375 0.700151,-0.342313 0.848565,-0.496951 1,-0.90625 0.144388,-0.390246 0.198622,-0.75 0.125,-0.75 z"
       transform="translate(0,-2)"
       id="path4154" />
  </g>
</svg>
