<?xml version="1.0" encoding="UTF-8" standalone="no"?>
<!-- Created with Inkscape (http://www.inkscape.org/) -->

<svg
   xmlns:dc="http://purl.org/dc/elements/1.1/"
   xmlns:cc="http://creativecommons.org/ns#"
   xmlns:rdf="http://www.w3.org/1999/02/22-rdf-syntax-ns#"
   xmlns:svg="http://www.w3.org/2000/svg"
   xmlns="http://www.w3.org/2000/svg"
   xmlns:xlink="http://www.w3.org/1999/xlink"
   xmlns:sodipodi="http://sodipodi.sourceforge.net/DTD/sodipodi-0.dtd"
   xmlns:inkscape="http://www.inkscape.org/namespaces/inkscape"
   width="22"
   height="22"
   id="svg2"
   sodipodi:version="0.32"
   inkscape:version="0.48.1 r9760"
   version="1.0"
   sodipodi:docname="start-here-fedora.svg"
   inkscape:output_extension="org.inkscape.output.svg.inkscape"
   style="display:inline">
  <defs
     id="defs4">
    <linearGradient
       id="linearGradient3722">
      <stop
         id="stop3724"
         offset="0"
         style="stop-color:#aaaaaa;stop-opacity:1;" />
      <stop
         id="stop3726"
         offset="1"
         style="stop-color:#f0f0f0;stop-opacity:1;" />
    </linearGradient>
    <linearGradient
       id="linearGradient3295">
      <stop
         style="stop-color:#559829;stop-opacity:1;"
         offset="0"
         id="stop3297" />
      <stop
         style="stop-color:#86c837;stop-opacity:1;"
         offset="1"
         id="stop3299" />
    </linearGradient>
    <linearGradient
       id="linearGradient3287">
      <stop
         style="stop-color:#cd0000;stop-opacity:1;"
         offset="0"
         id="stop3289" />
      <stop
         style="stop-color:#e55300;stop-opacity:1;"
         offset="1"
         id="stop3291" />
    </linearGradient>
    <linearGradient
       id="linearGradient3279">
      <stop
         style="stop-color:#f08e00;stop-opacity:1;"
         offset="0"
         id="stop3281" />
      <stop
         style="stop-color:#ffd200;stop-opacity:1;"
         offset="1"
         id="stop3283" />
    </linearGradient>
    <linearGradient
       id="linearGradient3271">
      <stop
         style="stop-color:#395d93;stop-opacity:1;"
         offset="0"
         id="stop3273" />
      <stop
         style="stop-color:#6e92c7;stop-opacity:1;"
         offset="1"
         id="stop3275" />
    </linearGradient>
    <linearGradient
       inkscape:collect="always"
       id="linearGradient3327">
      <stop
         style="stop-color:#000000;stop-opacity:1;"
         offset="0"
         id="stop3330" />
      <stop
         style="stop-color:#000000;stop-opacity:0;"
         offset="1"
         id="stop3333" />
    </linearGradient>
    <linearGradient
       inkscape:collect="always"
       xlink:href="#linearGradient3327"
       id="linearGradient3335"
       x1="11.375"
       y1="22"
       x2="11.375"
       y2="-9.817296"
       gradientUnits="userSpaceOnUse" />
    <inkscape:perspective
       sodipodi:type="inkscape:persp3d"
       inkscape:vp_x="0 : 11 : 1"
       inkscape:vp_y="0 : 1000 : 0"
       inkscape:vp_z="22 : 11 : 1"
       inkscape:persp3d-origin="11 : 7.3333333 : 1"
       id="perspective102" />
    <linearGradient
       id="linearGradient4081">
      <stop
         style="stop-color:#aaaaaa;stop-opacity:1;"
         offset="0"
         id="stop4083" />
      <stop
         style="stop-color:#f0f0f0;stop-opacity:1;"
         offset="1"
         id="stop4085" />
    </linearGradient>
    <linearGradient
       id="linearGradient4057">
      <stop
         style="stop-color:#816647;stop-opacity:1;"
         offset="0"
         id="stop4059" />
      <stop
         style="stop-color:#a6845d;stop-opacity:1;"
         offset="1"
         id="stop4061" />
    </linearGradient>
    <linearGradient
       id="linearGradient3929">
      <stop
         style="stop-color:#000000;stop-opacity:1;"
         offset="0"
         id="stop3931" />
      <stop
         style="stop-color:#000000;stop-opacity:0;"
         offset="1"
         id="stop3933" />
    </linearGradient>
    <linearGradient
       inkscape:collect="always"
       xlink:href="#linearGradient3929"
       id="linearGradient4051"
       x1="9.494998"
       y1="15.516565"
       x2="9.494998"
       y2="-4.1786065"
       gradientUnits="userSpaceOnUse" />
    <linearGradient
       inkscape:collect="always"
       xlink:href="#linearGradient4057"
       id="linearGradient4063"
       x1="9.17138"
       y1="21.000002"
       x2="9.17138"
       y2="0.97239029"
       gradientUnits="userSpaceOnUse" />
    <linearGradient
       inkscape:collect="always"
       xlink:href="#linearGradient4081"
       id="linearGradient4089"
       x1="6.101758"
       y1="154.58195"
       x2="6.101758"
       y2="36.995476"
       gradientUnits="userSpaceOnUse" />
    <linearGradient
       inkscape:collect="always"
       xlink:href="#linearGradient4081"
       id="linearGradient4103"
       gradientUnits="userSpaceOnUse"
       x1="6.101758"
       y1="154.58195"
       x2="6.101758"
       y2="36.995476" />
    <linearGradient
       inkscape:collect="always"
       xlink:href="#linearGradient4081"
       id="linearGradient4105"
       gradientUnits="userSpaceOnUse"
       x1="6.101758"
       y1="154.58195"
       x2="6.101758"
       y2="36.995476" />
    <linearGradient
       inkscape:collect="always"
       xlink:href="#linearGradient4081"
       id="linearGradient4107"
       gradientUnits="userSpaceOnUse"
       x1="6.101758"
       y1="154.58195"
       x2="6.101758"
       y2="36.995476" />
    <linearGradient
       inkscape:collect="always"
       xlink:href="#linearGradient4081"
       id="linearGradient4109"
       gradientUnits="userSpaceOnUse"
       x1="6.101758"
       y1="154.58195"
       x2="6.101758"
       y2="36.995476" />
    <linearGradient
       inkscape:collect="always"
       xlink:href="#linearGradient4081"
       id="linearGradient4111"
       gradientUnits="userSpaceOnUse"
       x1="6.101758"
       y1="154.58195"
       x2="6.101758"
       y2="36.995476" />
    <linearGradient
       inkscape:collect="always"
       xlink:href="#linearGradient4081"
       id="linearGradient4113"
       gradientUnits="userSpaceOnUse"
       x1="6.101758"
       y1="154.58195"
       x2="6.101758"
       y2="36.995476" />
    <linearGradient
       inkscape:collect="always"
       xlink:href="#linearGradient4081"
       id="linearGradient4115"
       gradientUnits="userSpaceOnUse"
       x1="6.101758"
       y1="154.58195"
       x2="6.101758"
       y2="36.995476" />
    <linearGradient
       inkscape:collect="always"
       xlink:href="#linearGradient4081"
       id="linearGradient4117"
       gradientUnits="userSpaceOnUse"
       x1="6.101758"
       y1="154.58195"
       x2="6.101758"
       y2="36.995476" />
    <linearGradient
       inkscape:collect="always"
       xlink:href="#linearGradient4081"
       id="linearGradient4119"
       gradientUnits="userSpaceOnUse"
       x1="6.101758"
       y1="154.58195"
       x2="6.101758"
       y2="36.995476" />
    <linearGradient
       inkscape:collect="always"
       xlink:href="#linearGradient4081"
       id="linearGradient4121"
       gradientUnits="userSpaceOnUse"
       x1="6.101758"
       y1="154.58195"
       x2="6.101758"
       y2="36.995476" />
    <linearGradient
       inkscape:collect="always"
       xlink:href="#linearGradient4081"
       id="linearGradient4123"
       gradientUnits="userSpaceOnUse"
       x1="6.101758"
       y1="154.58195"
       x2="6.101758"
       y2="36.995476" />
    <linearGradient
       inkscape:collect="always"
       xlink:href="#linearGradient4081"
       id="linearGradient4125"
       gradientUnits="userSpaceOnUse"
       x1="6.101758"
       y1="154.58195"
       x2="6.101758"
       y2="36.995476" />
    <linearGradient
       inkscape:collect="always"
       xlink:href="#linearGradient4081"
       id="linearGradient4127"
       gradientUnits="userSpaceOnUse"
       x1="6.101758"
       y1="154.58195"
       x2="6.101758"
       y2="36.995476" />
    <linearGradient
       inkscape:collect="always"
       xlink:href="#linearGradient4081"
       id="linearGradient4129"
       gradientUnits="userSpaceOnUse"
       x1="6.101758"
       y1="154.58195"
       x2="6.101758"
       y2="36.995476" />
    <linearGradient
       inkscape:collect="always"
       xlink:href="#linearGradient4081"
       id="linearGradient4132"
       gradientUnits="userSpaceOnUse"
       x1="6.101758"
       y1="154.58195"
       x2="6.101758"
       y2="36.995476"
       gradientTransform="matrix(0.1317916,0,0,0.1317916,11.619896,-1.9882468)" />
    <linearGradient
       inkscape:collect="always"
       xlink:href="#linearGradient4081"
       id="linearGradient4141"
       gradientUnits="userSpaceOnUse"
       x1="6.101758"
       y1="154.58195"
       x2="6.101758"
       y2="36.995476"
       gradientTransform="matrix(0.1317916,0,0,0.1317916,11.619896,-1.9882468)" />
    <linearGradient
       inkscape:collect="always"
       xlink:href="#linearGradient4081"
       id="linearGradient4148"
       gradientUnits="userSpaceOnUse"
       x1="6.101758"
       y1="154.58195"
       x2="6.101758"
       y2="36.995476"
       gradientTransform="matrix(0.1317916,0,0,0.1317916,11.619896,-1.9882468)" />
    <linearGradient
       inkscape:collect="always"
       xlink:href="#linearGradient4081"
       id="linearGradient4158"
       gradientUnits="userSpaceOnUse"
       x1="6.101758"
       y1="154.58195"
       x2="6.101758"
       y2="36.995476"
       gradientTransform="matrix(0.1317916,0,0,0.1317916,11.619896,-1.9882468)" />
    <linearGradient
       inkscape:collect="always"
       xlink:href="#linearGradient4081"
       id="linearGradient4180"
       gradientUnits="userSpaceOnUse"
       x1="6.101758"
       y1="154.58195"
       x2="6.101758"
       y2="36.995476" />
    <linearGradient
       inkscape:collect="always"
       xlink:href="#linearGradient4081"
       id="linearGradient4182"
       gradientUnits="userSpaceOnUse"
       gradientTransform="matrix(0.1317916,0,0,0.1317916,11.619896,-1.9882468)"
       x1="6.101758"
       y1="154.58195"
       x2="6.101758"
       y2="36.995476" />
    <linearGradient
       inkscape:collect="always"
       xlink:href="#linearGradient4081"
       id="linearGradient4184"
       gradientUnits="userSpaceOnUse"
       x1="6.101758"
       y1="154.58195"
       x2="6.101758"
       y2="36.995476" />
    <linearGradient
       inkscape:collect="always"
       xlink:href="#linearGradient4081"
       id="linearGradient4186"
       gradientUnits="userSpaceOnUse"
       gradientTransform="matrix(0.1317916,0,0,0.1317916,11.619896,-1.9882468)"
       x1="6.101758"
       y1="154.58195"
       x2="6.101758"
       y2="36.995476" />
    <linearGradient
       inkscape:collect="always"
       xlink:href="#linearGradient4081"
       id="linearGradient2480"
       gradientUnits="userSpaceOnUse"
       gradientTransform="matrix(0.1256322,0,0,0.1256322,11.921746,-1.0005124)"
       x1="6.101758"
       y1="154.58195"
       x2="6.101758"
       y2="36.995476" />
    <linearGradient
       inkscape:collect="always"
       xlink:href="#linearGradient4081"
       id="linearGradient2483"
       gradientUnits="userSpaceOnUse"
       gradientTransform="matrix(0.1256322,0,0,0.1256322,11.921746,-1.0005124)"
       x1="6.101758"
       y1="154.58195"
       x2="6.101758"
       y2="36.995476" />
    <linearGradient
       inkscape:collect="always"
       xlink:href="#linearGradient4081"
       id="linearGradient2489"
       gradientUnits="userSpaceOnUse"
       gradientTransform="matrix(0.1256322,0,0,0.1256322,11.921746,-1.0005124)"
       x1="6.101758"
       y1="154.58195"
       x2="6.101758"
       y2="36.995476" />
    <linearGradient
       inkscape:collect="always"
       xlink:href="#linearGradient4081"
       id="linearGradient2495"
       gradientUnits="userSpaceOnUse"
       gradientTransform="matrix(0.1256322,0,0,0.1256322,11.921746,-1.0005124)"
       x1="6.101758"
       y1="154.58195"
       x2="6.101758"
       y2="36.995476" />
    <linearGradient
       inkscape:collect="always"
       xlink:href="#linearGradient4081"
       id="linearGradient2498"
       gradientUnits="userSpaceOnUse"
       gradientTransform="matrix(0.1256322,0,0,0.1256322,11.921746,-1.0005124)"
       x1="6.101758"
       y1="154.58195"
       x2="6.101758"
       y2="36.995476" />
    <linearGradient
       inkscape:collect="always"
       xlink:href="#linearGradient4081"
       id="linearGradient2501"
       gradientUnits="userSpaceOnUse"
       gradientTransform="matrix(0.1256322,0,0,0.1256322,11.921746,-1.0005124)"
       x1="6.101758"
       y1="154.58195"
       x2="6.101758"
       y2="36.995476" />
    <linearGradient
       inkscape:collect="always"
       xlink:href="#linearGradient4081"
       id="linearGradient2504"
       gradientUnits="userSpaceOnUse"
       gradientTransform="matrix(0.1256322,0,0,0.1256322,11.921746,-1.0005124)"
       x1="6.101758"
       y1="154.58195"
       x2="6.101758"
       y2="36.995476" />
    <linearGradient
       inkscape:collect="always"
       xlink:href="#linearGradient4081"
       id="linearGradient2506"
       gradientUnits="userSpaceOnUse"
       x1="6.101758"
       y1="154.58195"
       x2="6.101758"
       y2="36.995476" />
    <linearGradient
       inkscape:collect="always"
       xlink:href="#linearGradient4081"
       id="linearGradient2508"
       gradientUnits="userSpaceOnUse"
       gradientTransform="matrix(0.1317916,0,0,0.1317916,11.619896,-1.9882468)"
       x1="6.101758"
       y1="154.58195"
       x2="6.101758"
       y2="36.995476" />
    <linearGradient
       inkscape:collect="always"
       xlink:href="#linearGradient4081"
       id="linearGradient2510"
       gradientUnits="userSpaceOnUse"
       gradientTransform="matrix(0.1317916,0,0,0.1317916,11.619896,-1.9882468)"
       x1="6.101758"
       y1="154.58195"
       x2="6.101758"
       y2="36.995476" />
    <clipPath
       clipPathUnits="userSpaceOnUse"
       id="clipPath4974">
      <path
         id="path4976"
         d="M 16.625,2 C 15.93281,2.046173 15.13978,2.350316 14.5,2.875 13.716105,3.517873 13.079371,5.1522168 13.25,6.0625 13.337976,6.531842 13.692147,7.1029241 14.03125,7.28125 14.662734,7.613335 15.813682,7.0624791 16.875,5.9375 18.021489,4.722239 18.547995,3.383178 18.15625,2.625 17.915497,2.159052 17.31719,1.953827 16.625,2 z M 10.96875,2.71875 C 10.005789,2.719616 9.496306,3.3967078 9.5,4.6875 c 0.00253,0.88392 0.31322,1.6791318 0.71875,1.875 0.301512,0.145631 0.309051,0.1320361 0.6875,0 C 11.533114,6.343793 12.122053,4.8839409 12,3.90625 11.900109,3.106091 11.556193,2.7182209 10.96875,2.71875 z m -3.8125,1.3125 C 6.976067,4.0573035 6.795347,4.173262 6.625,4.34375 6.281636,4.687396 6.277056,4.8747068 6.28125,5.53125 6.286196,6.305553 6.475145,6.7277249 7,7.28125 7.392601,7.695296 7.675716,7.7200481 8.03125,7.34375 8.416388,6.936117 8.535971,6.296057 8.40625,5.59375 8.208416,4.5226825 7.696799,3.9530895 7.15625,4.03125 z M 4.46875,6.375 C 4.281799,6.4054104 4.1133,6.5115553 3.9375,6.6875 3.476154,7.14923 3.798831,8.4188978 4.53125,9.0625 5.405425,9.830669 6.111327,9.1273309 5.8125,7.78125 5.599846,6.8233425 5.029603,6.2837687 4.46875,6.375 z M 12.5,8.0625 C 11.88094,8.0518483 11.187196,8.1034691 10.46875,8.25 8.61799,8.627471 7.13709,9.3254488 6.1875,10.28125 5.640611,10.831715 5.327697,11.341306 5.0625,12.125 c -0.641919,1.896963 0.546896,4.595678 2.8125,6.4375 0.844088,0.686203 1.359152,0.993313 2.21875,1.28125 0.445736,0.149308 0.799163,0.183992 1.625,0.15625 0.946716,-0.03181 1.139252,-0.07408 1.75,-0.375 0.895036,-0.440989 1.909553,-1.461035 2.34375,-2.34375 0.264885,-0.5385 0.307321,-0.768628 0.28125,-1.21875 -0.04452,-0.768578 -0.342658,-0.977756 -1.3125,-0.96875 -1.38452,0.01285 -1.965756,0.333932 -2.25,1.3125 -0.21469,0.739118 -0.452038,1 -0.9375,1 -0.769368,0 -1.5625,-0.611791 -1.5625,-1.25 0,-0.443994 0.715313,-1.10577 2.5,-2.3125 2.514116,-1.69994 3.378489,-2.734111 3.25,-3.875 C 15.64852,8.7901993 14.35718,8.0944552 12.5,8.0625 z"
         style="fill:#ffffff;fill-opacity:1;stroke:none" />
    </clipPath>
    <clipPath
       clipPathUnits="userSpaceOnUse"
       id="clipPath4995">
      <path
         style="fill:#ffffff;fill-opacity:1;fill-rule:nonzero;stroke:none;display:inline"
         d="M 30,0 30,22 52,22 52,0 30,0 z M 46.625,2 C 47.31719,1.953827 47.915497,2.159052 48.15625,2.625 48.547995,3.383178 48.021489,4.722239 46.875,5.9375 45.813682,7.0624791 44.662734,7.613335 44.03125,7.28125 43.692147,7.1029241 43.337976,6.531842 43.25,6.0625 43.079371,5.1522168 43.716105,3.517873 44.5,2.875 45.13978,2.350316 45.93281,2.046173 46.625,2 z m -5.65625,0.71875 c 0.587443,-5.291e-4 0.931359,0.387341 1.03125,1.1875 0.122053,0.9776909 -0.466886,2.437543 -1.09375,2.65625 -0.378449,0.1320361 -0.385988,0.145631 -0.6875,0 C 39.81322,6.3666318 39.502528,5.57142 39.5,4.6875 39.496306,3.3967078 40.005789,2.719616 40.96875,2.71875 z m -3.8125,1.3125 c 0.540549,-0.078161 1.052166,0.4914325 1.25,1.5625 0.129721,0.702307 0.01014,1.342367 -0.375,1.75 C 37.675716,7.7200481 37.392601,7.695296 37,7.28125 36.475145,6.7277249 36.286196,6.305553 36.28125,5.53125 36.277056,4.8747068 36.281636,4.687396 36.625,4.34375 36.795347,4.173262 36.976067,4.0573035 37.15625,4.03125 z M 34.46875,6.375 C 35.029603,6.2837687 35.599846,6.8233425 35.8125,7.78125 36.111327,9.1273309 35.405425,9.830669 34.53125,9.0625 33.798831,8.4188978 33.476154,7.14923 33.9375,6.6875 34.1133,6.5115553 34.281799,6.4054104 34.46875,6.375 z M 42.5,8.0625 c 1.85718,0.031955 3.14852,0.7276993 3.28125,1.90625 0.128489,1.140889 -0.735884,2.17506 -3.25,3.875 -1.784687,1.20673 -2.5,1.868506 -2.5,2.3125 0,0.638209 0.793132,1.25 1.5625,1.25 0.485462,0 0.72281,-0.260882 0.9375,-1 0.284244,-0.978568 0.86548,-1.299646 2.25,-1.3125 0.969842,-0.009 1.267977,0.200172 1.3125,0.96875 0.02607,0.450122 -0.01637,0.68025 -0.28125,1.21875 -0.434197,0.882715 -1.448714,1.902761 -2.34375,2.34375 -0.610748,0.300916 -0.803284,0.343192 -1.75,0.375 -0.825837,0.02774 -1.179264,-0.0069 -1.625,-0.15625 C 39.234152,19.555813 38.719088,19.248703 37.875,18.5625 35.609396,16.720678 34.420581,14.021963 35.0625,12.125 35.327697,11.341306 35.640611,10.831715 36.1875,10.28125 37.13709,9.3254488 38.61799,8.627471 40.46875,8.25 41.187196,8.1034691 41.88094,8.0518483 42.5,8.0625 z"
         id="path4997" />
    </clipPath>
    <linearGradient
       inkscape:collect="always"
       xlink:href="#StandardGradient-1"
       id="linearGradient5065"
       gradientUnits="userSpaceOnUse"
       x1="10"
       y1="3"
       x2="10"
       y2="7" />
    <linearGradient
       inkscape:collect="always"
       xlink:href="#StandardGradient-1"
       id="linearGradient5068"
       gradientUnits="userSpaceOnUse"
       x1="16"
       y1="2"
       x2="16"
       y2="7" />
    <linearGradient
       inkscape:collect="always"
       xlink:href="#StandardGradient-1"
       id="linearGradient5071"
       gradientUnits="userSpaceOnUse"
       x1="6"
       y1="4"
       x2="6"
       y2="8" />
    <linearGradient
       inkscape:collect="always"
       xlink:href="#StandardGradient-1"
       id="linearGradient5074"
       gradientUnits="userSpaceOnUse"
       x1="4"
       y1="7"
       x2="4"
       y2="9" />
    <linearGradient
       inkscape:collect="always"
       xlink:href="#StandardGradient-1"
       id="linearGradient5077"
       gradientUnits="userSpaceOnUse"
       x1="12"
       y1="8"
       x2="12"
       y2="20.041595" />
    <inkscape:perspective
       id="perspective4374"
       inkscape:persp3d-origin="0.5 : 0.33333333 : 1"
       inkscape:vp_z="1 : 0.5 : 1"
       inkscape:vp_y="0 : 1000 : 0"
       inkscape:vp_x="0 : 0.5 : 1"
       sodipodi:type="inkscape:persp3d" />
    <linearGradient
       inkscape:collect="always"
       xlink:href="#StandardGradient-1"
       id="linearGradient3833-8"
       x1="54"
       y1="3.5"
       x2="59"
       y2="3.5"
       gradientUnits="userSpaceOnUse"
       gradientTransform="translate(-53,53)" />
    <linearGradient
       id="StandardGradient-1"
       gradientTransform="matrix(0.9984539,0,0,0.9984539,-0.0459776,0.05767558)"
       x1="10.710332"
       y1="1.9963325"
       x2="10.710332"
       y2="18.974037"
       gradientUnits="userSpaceOnUse">
      <stop
         style="stop-color:#000000;stop-opacity:0.86274511;"
         offset="0"
         id="stop3277-4" />
      <stop
         style="stop-color:#000000;stop-opacity:0.47058824;"
         offset="1"
         id="stop3279-3" />
    </linearGradient>
    <linearGradient
       y2="3.5"
       x2="59"
       y1="3.5"
       x1="54"
       gradientTransform="translate(-45,53)"
       gradientUnits="userSpaceOnUse"
       id="linearGradient3829-0"
       xlink:href="#SpecificGradient-5"
       inkscape:collect="always" />
    <linearGradient
       id="SpecificGradient-5"
       x1="10.761708"
       y1="3.9999998"
       x2="10.761708"
       y2="18.011395"
       gradientUnits="userSpaceOnUse">
      <stop
         style="stop-color:#a50000;stop-opacity:1;"
         offset="0"
         id="stop3292-8" />
      <stop
         style="stop-color:#e73800;stop-opacity:1;"
         offset="1"
         id="stop3294-0" />
    </linearGradient>
    <linearGradient
       inkscape:collect="always"
       xlink:href="#StandardGradient-1"
       id="linearGradient3738"
       gradientUnits="userSpaceOnUse"
       x1="12"
       y1="8"
       x2="12"
       y2="20.041595" />
    <linearGradient
       inkscape:collect="always"
       xlink:href="#StandardGradient-1"
       id="linearGradient3741"
       gradientUnits="userSpaceOnUse"
       x1="12"
       y1="8"
       x2="12"
       y2="20.041595"
       gradientTransform="translate(-30,0)" />
    <linearGradient
       inkscape:collect="always"
       xlink:href="#StandardGradient-1"
       id="linearGradient3747"
       gradientUnits="userSpaceOnUse"
       x1="12"
       y1="8"
       x2="12"
       y2="20.041595"
       gradientTransform="translate(0,1)" />
    <linearGradient
       inkscape:collect="always"
       xlink:href="#StandardGradient-1"
       id="linearGradient3751"
       gradientUnits="userSpaceOnUse"
       x1="12"
       y1="8"
       x2="12"
       y2="20.041595" />
    <clipPath
       clipPathUnits="userSpaceOnUse"
       id="clipPath3758">
      <path
         style="fill:#ff00ff;fill-opacity:1;stroke:none;display:inline"
         d="m -30,0 0,22 22,0 0,-22 -22,0 z m 16.625,2 c 0.69219,-0.046173 1.290497,0.159052 1.53125,0.625 0.391745,0.758178 -0.134761,2.097239 -1.28125,3.3125 -1.061318,1.124979 -2.212266,1.675835 -2.84375,1.34375 C -16.307853,7.102924 -16.66202,6.531842 -16.75,6.0625 -16.920629,5.152217 -16.283895,3.517873 -15.5,2.875 -14.86022,2.350316 -14.06719,2.046173 -13.375,2 z m -5.65625,0.71875 c 0.587443,-5.29e-4 0.93136,0.387341 1.03125,1.1875 0.122053,0.977691 -0.466886,2.437543 -1.09375,2.65625 -0.378449,0.132036 -0.385988,0.145631 -0.6875,0 -0.40553,-0.195868 -0.71625,-0.99108 -0.71875,-1.875 -0.0037,-1.290792 0.505789,-1.967884 1.46875,-1.96875 z m -3.8125,1.3125 c 0.540549,-0.078161 1.052166,0.4914325 1.25,1.5625 0.129721,0.702307 0.01014,1.342367 -0.375,1.75 -0.355534,0.376298 -0.638649,0.351546 -1.03125,-0.0625 -0.524855,-0.553525 -0.71385,-0.975697 -0.71875,-1.75 -0.0042,-0.656543 3.86e-4,-0.843854 0.34375,-1.1875 0.170347,-0.170488 0.351067,-0.286447 0.53125,-0.3125 z m -2.6875,2.34375 c 0.560853,-0.091231 1.131096,0.4483425 1.34375,1.40625 0.298827,1.346081 -0.407075,2.049419 -1.28125,1.28125 -0.732419,-0.643602 -1.055096,-1.91327 -0.59375,-2.375 0.1758,-0.1759448 0.344299,-0.282089 0.53125,-0.3125 z M -17.5,8.0625 c 1.85718,0.031955 3.14852,0.7276993 3.28125,1.90625 0.128489,1.140889 -0.735884,2.17506 -3.25,3.875 -1.784687,1.20673 -2.5,1.868506 -2.5,2.3125 0,0.638209 0.793132,1.25 1.5625,1.25 0.485462,0 0.72281,-0.260882 0.9375,-1 0.284244,-0.978569 0.86548,-1.29965 2.25,-1.3125 0.969842,-0.009 1.26798,0.200172 1.3125,0.96875 0.02607,0.450123 -0.01637,0.68025 -0.28125,1.21875 -0.434197,0.882715 -1.448714,1.902761 -2.34375,2.34375 -0.610748,0.30092 -0.803284,0.34319 -1.75,0.375 -0.825837,0.02774 -1.179264,-0.0069 -1.625,-0.15625 -0.859598,-0.287937 -1.374662,-0.595047 -2.21875,-1.28125 -2.265604,-1.841822 -3.454419,-4.540537 -2.8125,-6.4375 0.265198,-0.783694 0.578111,-1.293285 1.125,-1.84375 0.94959,-0.9558013 2.43049,-1.653779 4.28125,-2.03125 0.718447,-0.146531 1.41219,-0.198152 2.03125,-0.1875 z"
         id="path3760" />
    </clipPath>
    <inkscape:perspective
       id="perspective2885"
       inkscape:persp3d-origin="0.5 : 0.33333333 : 1"
       inkscape:vp_z="1 : 0.5 : 1"
       inkscape:vp_y="0 : 1000 : 0"
       inkscape:vp_x="0 : 0.5 : 1"
       sodipodi:type="inkscape:persp3d" />
    <linearGradient
       inkscape:collect="always"
       xlink:href="#StandardGradient-1"
       id="linearGradient3748"
       x1="11.682116"
       y1="4.0050025"
       x2="11.682116"
       y2="22.007736"
       gradientUnits="userSpaceOnUse" />
    <linearGradient
       inkscape:collect="always"
       xlink:href="#StandardGradient-1"
       id="linearGradient3754"
       gradientUnits="userSpaceOnUse"
       x1="11.682116"
       y1="4.0050025"
       x2="11.682116"
       y2="22.007736"
       gradientTransform="translate(0,-1)" />
    <linearGradient
       inkscape:collect="always"
       xlink:href="#StandardGradient-1"
       id="linearGradient3756"
       gradientUnits="userSpaceOnUse"
       x1="11.682116"
       y1="4.0050025"
       x2="11.682116"
       y2="22.007736" />
    <linearGradient
       inkscape:collect="always"
       xlink:href="#StandardGradient-1"
       id="linearGradient3761"
       gradientUnits="userSpaceOnUse"
       x1="11.682116"
       y1="4.0050025"
       x2="11.682116"
       y2="22.007736"
       gradientTransform="translate(0,1)" />
    <linearGradient
       inkscape:collect="always"
       xlink:href="#StandardGradient-1"
       id="linearGradient3765"
       gradientUnits="userSpaceOnUse"
       gradientTransform="translate(0,-2)"
       x1="11.682116"
       y1="4.0050025"
       x2="11.682116"
       y2="22.007736" />
    <linearGradient
       inkscape:collect="always"
       xlink:href="#StandardGradient-1"
       id="linearGradient3772"
       gradientUnits="userSpaceOnUse"
       x1="11.682116"
       y1="4.0050025"
       x2="11.682116"
       y2="22.007736"
       gradientTransform="translate(-30,-2)" />
    <clipPath
       clipPathUnits="userSpaceOnUse"
       id="clipPath3777">
      <path
         style="fill:#ff00ff;fill-opacity:1;stroke:none;display:inline"
         d="m -30,0 0,22 22,0 0,-22 -22,0 z m 11,2 c 4.970563,0 9,4.0294373 9,9 0,4.970563 -4.029437,9 -9,9 -4.970563,0 -9,-4.029437 -9,-9 0,-4.9705627 4.029437,-9 9,-9 z m 3.40625,2.59375 c -0.662627,0 -1.21875,0.5561234 -1.21875,1.21875 0,0.6626266 0.556123,1.1875 1.21875,1.1875 0.662626,0 1.1875,-0.5248734 1.1875,-1.1875 0,-0.6626266 -0.524874,-1.21875 -1.1875,-1.21875 z M -18.8125,5.8125 c -0.789629,0 -1.516908,0.1847419 -2.1875,0.5 l 1.1875,2.09375 c 0.309436,-0.117838 0.649361,-0.21875 1,-0.21875 1.411968,0 2.589001,1.047078 2.78125,2.40625 l 2.40625,0 c -0.08653,-1.117324 -0.507643,-2.127889 -1.1875,-2.9375 -0.239332,0.101285 -0.505156,0.15625 -0.78125,0.15625 -1.052344,0 -1.88972,-0.8427942 -1.96875,-1.875 -0.39254,-0.095233 -0.82804,-0.125 -1.25,-0.125 z m -2.90625,0.875 c -0.908089,0.6136603 -1.58993,1.51742 -1.96875,2.5625 0.528411,0.402097 0.875,1.035249 0.875,1.75 0,0.721558 -0.369223,1.348577 -0.90625,1.75 0.373016,1.020043 1.088341,1.887647 1.96875,2.5 l 1.1875,-2.0625 c -0.63848,-0.513522 -1.03125,-1.304975 -1.03125,-2.1875 0,-0.90818 0.423125,-1.706856 1.09375,-2.21875 L -21.71875,6.6875 z M -25,9.59375 c -0.773064,0 -1.40625,0.633185 -1.40625,1.40625 0,0.773065 0.633186,1.40625 1.40625,1.40625 0.773064,0 1.40625,-0.633185 1.40625,-1.40625 0,-0.773065 -0.633186,-1.40625 -1.40625,-1.40625 z m 8.96875,1.8125 c -0.192249,1.359172 -1.369282,2.40625 -2.78125,2.40625 -0.367204,0 -0.709816,-0.09009 -1.03125,-0.21875 l -1.25,2.09375 c 0.688532,0.336532 1.463705,0.5 2.28125,0.5 0.42196,0 0.85746,-0.02977 1.25,-0.125 0.07903,-1.032206 0.916406,-1.875 1.96875,-1.875 0.276094,0 0.541918,0.05497 0.78125,0.15625 0.679857,-0.809612 1.10098,-1.820176 1.1875,-2.9375 l -2.40625,0 z M -15.59375,15 c -0.662627,0 -1.21875,0.524874 -1.21875,1.1875 0,0.662627 0.556123,1.21875 1.21875,1.21875 0.662626,0 1.1875,-0.556123 1.1875,-1.21875 0,-0.662626 -0.524874,-1.1875 -1.1875,-1.1875 z"
         id="path3779" />
    </clipPath>
    <inkscape:perspective
       id="perspective2996"
       inkscape:persp3d-origin="0.5 : 0.33333333 : 1"
       inkscape:vp_z="1 : 0.5 : 1"
       inkscape:vp_y="0 : 1000 : 0"
       inkscape:vp_x="0 : 0.5 : 1"
       sodipodi:type="inkscape:persp3d" />
    <radialGradient
       inkscape:collect="always"
       xlink:href="#radial-gradient"
       id="radialGradient3222"
       gradientUnits="userSpaceOnUse"
       cx="126.15849"
       cy="126.15498"
       fx="126.15849"
       fy="126.15498"
       r="154.62019"
       gradientTransform="matrix(0.07926537,0,0,0.07926756,1,1.0000022)" />
    <radialGradient
       gradientUnits="userSpaceOnUse"
       id="radial-gradient"
       fy="133.10451"
       fx="115.8989"
       r="154.62019"
       cy="133.10451"
       cx="115.8989">
      <stop
         id="translucent-stop-color"
         offset="0"
         style="stop-color:#003364;stop-opacity:0;" />
      <stop
         id="opaque-blue-stop-color"
         offset="1"
         style="stop-color:#0067c8;stop-opacity:1;" />
    </radialGradient>
    <radialGradient
       r="154.62019"
       fy="126.15498"
       fx="126.15849"
       cy="126.15498"
       cx="126.15849"
       gradientTransform="matrix(0.07134324,0,0,0.07134521,1.9994442,-28.000554)"
       gradientUnits="userSpaceOnUse"
       id="radialGradient3007"
       xlink:href="#radial-gradient"
       inkscape:collect="always" />
    <radialGradient
       inkscape:collect="always"
       xlink:href="#radial-gradient"
       id="radialGradient3038"
       gradientUnits="userSpaceOnUse"
       gradientTransform="matrix(0.07134324,0,0,0.07134521,1.9994442,1.999446)"
       cx="126.15849"
       cy="126.15498"
       fx="126.15849"
       fy="126.15498"
       r="154.62019" />
    <linearGradient
       inkscape:collect="always"
       xlink:href="#StandardGradient-1"
       id="linearGradient3818"
       x1="10.92316"
       y1="2.0768402"
       x2="10.699805"
       y2="19.985998"
       gradientUnits="userSpaceOnUse" />
    <linearGradient
       inkscape:collect="always"
       xlink:href="#StandardGradient-1"
       id="linearGradient3825"
       gradientUnits="userSpaceOnUse"
       x1="10.92316"
       y1="2.0768402"
       x2="10.699805"
       y2="19.985998"
       gradientTransform="translate(0,1)" />
    <linearGradient
       inkscape:collect="always"
       xlink:href="#StandardGradient-1"
       id="linearGradient3837"
       gradientUnits="userSpaceOnUse"
       x1="10.92316"
       y1="2.0768402"
       x2="10.699805"
       y2="19.985998" />
    <linearGradient
       inkscape:collect="always"
       xlink:href="#StandardGradient-1"
       id="linearGradient3842"
       gradientUnits="userSpaceOnUse"
       x1="10.92316"
       y1="2.0768402"
       x2="10.699805"
       y2="19.985998"
       gradientTransform="translate(0,1)" />
    <linearGradient
       inkscape:collect="always"
       xlink:href="#StandardGradient-1"
       id="linearGradient3846"
       gradientUnits="userSpaceOnUse"
       x1="10.92316"
       y1="2.0768402"
       x2="10.699805"
       y2="19.985998" />
    <linearGradient
       inkscape:collect="always"
       xlink:href="#StandardGradient-1"
       id="linearGradient3851"
       gradientUnits="userSpaceOnUse"
       x1="10.92316"
       y1="2.0768402"
       x2="10.699805"
       y2="19.985998"
       gradientTransform="translate(-30,0)" />
    <clipPath
       clipPathUnits="userSpaceOnUse"
       id="clipPath3856">
      <path
         style="fill:#ff00ff;fill-opacity:1;stroke:none;display:inline"
         d="m -30,0 0,22 22,0 0,-22 -22,0 z m 11,2 c 4.97084,0 9,4.028809 9,9 0,4.969693 -4.030944,8.9979 -9,9 l -6.9375,0 -0.25,0 C -27.184761,20 -28,19.184761 -28,18.1875 l 0,-0.25 0,-1.21875 L -28,11 c 0.0034,-4.968123 4.031443,-9 9,-9 z m 2.65625,2.125 c -2.333209,0 -4.25,1.885618 -4.25,4.21875 l 0,0.03125 0,2.21875 -1.75,0 -0.46875,0 c -2.333138,0 -4.21875,1.885761 -4.21875,4.21875 0,2.007481 1.404487,3.663585 3.28125,4.09375 0.03197,0.0073 0.06151,0.02465 0.09375,0.03125 0.0503,0.01225 0.10818,-0.01 0.15625,0 0.221105,0.04578 0.426535,0.09375 0.6875,0.09375 2.332853,0 4.21875,-1.885835 4.21875,-4.21875 l 0,-2.25 1.78125,0 0.46875,0 c 2.332853,0 4.21875,-1.885762 4.21875,-4.21875 0,-2.0169393 -1.422278,-3.6735962 -3.3125,-4.09375 -0.09429,-0.024682 -0.16407,-0.045276 -0.25,-0.0625 -0.212649,-0.042623 -0.40418,-0.0625 -0.65625,-0.0625 z m 0,2 c 1.231313,0 2.21875,0.987189 2.21875,2.21875 0,1.231419 -0.987437,2.25 -2.21875,2.25 l -0.03125,0 -0.4375,0 -1.46875,0 c -0.08697,0 -0.16184,-0.03682 -0.21875,-0.09375 -0.05691,-0.05693 -0.09375,-0.13171 -0.09375,-0.21875 l 0,-1.9375 c 2.6e-4,-0.1537579 0.03262,-0.2925375 0.0625,-0.4375 0.02988,-0.1449625 0.06849,-0.2730613 0.125,-0.40625 0.05651,-0.1331887 0.10733,-0.2878135 0.1875,-0.40625 0.400841,-0.5921826 1.106188,-0.96875 1.875,-0.96875 z m -6.46875,6.4375 0.4375,0 1.46875,0 c 0.173935,0 0.3125,0.138774 0.3125,0.3125 l 0,1.9375 c -0.0016,1.07568 -0.766229,1.979933 -1.78125,2.1875 -0.14501,0.02965 -0.283738,0.03125 -0.4375,0.03125 -0.224593,0 -0.317594,-0.01663 -0.4375,-0.03125 -1.017713,-0.207908 -1.8125,-1.11007 -1.8125,-2.1875 0,-1.231774 1.018687,-2.25 2.25,-2.25 z"
         id="path3858" />
    </clipPath>
    <filter
       inkscape:collect="always"
       id="filter3860">
      <feGaussianBlur
         inkscape:collect="always"
         stdDeviation="0.54"
         id="feGaussianBlur3862" />
    </filter>
    <linearGradient
       inkscape:collect="always"
       xlink:href="#StandardGradient-1"
       id="linearGradient7853"
       gradientUnits="userSpaceOnUse"
       x1="10.92316"
       y1="2.0768402"
       x2="10.699805"
       y2="19.985998" />
    <linearGradient
       inkscape:collect="always"
       xlink:href="#StandardGradient-1"
       id="linearGradient7857"
       gradientUnits="userSpaceOnUse"
       x1="11.547812"
       y1="2.514097"
       x2="10.699805"
       y2="19.985998" />
  </defs>
  <sodipodi:namedview
     id="base"
     pagecolor="#ffffff"
     bordercolor="#e7e7e7"
     borderopacity="1"
     inkscape:pageopacity="0.0"
     inkscape:pageshadow="2"
     inkscape:zoom="16.008898"
     inkscape:cx="-25.212569"
     inkscape:cy="8.4246354"
     inkscape:document-units="px"
     inkscape:current-layer="layer1"
     showgrid="true"
     inkscape:showpageshadow="false"
     showguides="false"
     inkscape:guide-bbox="true"
     inkscape:window-width="1920"
     inkscape:window-height="1029"
     inkscape:window-x="0"
     inkscape:window-y="25"
     inkscape:window-maximized="1"
     inkscape:snap-global="false">
    <sodipodi:guide
       orientation="1,0"
       position="0,112"
       id="guide2383" />
    <sodipodi:guide
       orientation="0,1"
       position="26.278146,128"
       id="guide2385" />
    <sodipodi:guide
       orientation="1,0"
       position="128,54.082119"
       id="guide2387" />
    <sodipodi:guide
       orientation="0,1"
       position="78.156291,0"
       id="guide2389" />
    <sodipodi:guide
       orientation="0,1"
       position="60.863576,64.084768"
       id="guide2391" />
    <inkscape:grid
       type="xygrid"
       id="grid3672"
       visible="true"
       enabled="true"
       empspacing="8"
       snapvisiblegridlinesonly="true" />
  </sodipodi:namedview>
  <metadata
     id="metadata7">
    <rdf:RDF>
      <cc:Work
         rdf:about="">
        <dc:format>image/svg+xml</dc:format>
        <dc:type
           rdf:resource="http://purl.org/dc/dcmitype/StillImage" />
        <dc:title />
      </cc:Work>
    </rdf:RDF>
  </metadata>
  <g
     inkscape:groupmode="layer"
     id="layer2"
     inkscape:label="Dark background"
     sodipodi:insensitive="true"
     style="display:none">
    <rect
       y="0"
       x="0"
       height="22"
       width="22"
       id="rect4898"
       style="fill:#333333;fill-opacity:1;fill-rule:nonzero;stroke:none;display:inline" />
  </g>
  <g
     inkscape:groupmode="layer"
     id="layer3"
     inkscape:label="Pale darkground"
     sodipodi:insensitive="true"
     style="display:none">
    <rect
       style="fill:#efebe7;fill-opacity:1;fill-rule:nonzero;stroke:none"
       id="rect4126"
       width="22"
       height="22"
       x="0"
       y="0" />
  </g>
  <g
     inkscape:label="Button"
     inkscape:groupmode="layer"
     id="layer1"
     style="display:inline">
    <path
       style="fill:#ffffff;fill-opacity:1;display:inline;opacity:0.15"
       d="M 11 1 C 5.4865503 1 1.0037994 5.4878342 1 11 L 1 16.71875 L 1 17.9375 L 1 18.1875 C 1 19.733682 2.2663175 21 3.8125 21 L 4.0625 21 L 11 21 C 16.513168 20.99767 21 16.514335 21 11 C 21 5.484572 16.515068 1 11 1 z M 11 2 C 15.97084 2 20 6.028809 20 11 C 20 15.969693 15.969056 19.99793 11 20 L 4.0625 20 L 3.8125 20 C 2.8152385 20 2 19.184761 2 18.1875 L 2 17.9375 L 2 16.71875 L 2 11 C 2.0034244 6.031877 6.031443 2 11 2 z M 13.65625 4.125 C 11.323041 4.125 9.40625 6.010618 9.40625 8.34375 L 9.40625 8.375 L 9.40625 10.59375 L 7.65625 10.59375 L 7.1875 10.59375 C 4.8543619 10.59375 2.96875 12.479511 2.96875 14.8125 C 2.96875 16.819981 4.373237 18.476085 6.25 18.90625 C 6.2819689 18.913577 6.3115089 18.930903 6.34375 18.9375 C 6.3940501 18.949755 6.4519336 18.927549 6.5 18.9375 C 6.7211055 18.983276 6.9265346 19.03125 7.1875 19.03125 C 9.5203526 19.03125 11.40625 17.145415 11.40625 14.8125 L 11.40625 12.5625 L 13.1875 12.5625 L 13.65625 12.5625 C 15.989103 12.5625 17.875 10.676738 17.875 8.34375 C 17.875 6.3268107 16.452722 4.6701538 14.5625 4.25 C 14.468213 4.2253181 14.398433 4.2047244 14.3125 4.1875 C 14.099851 4.1448769 13.90832 4.125 13.65625 4.125 z M 13.65625 6.125 C 14.887563 6.125 15.875 7.112189 15.875 8.34375 C 15.875 9.575169 14.887563 10.59375 13.65625 10.59375 L 13.625 10.59375 L 13.1875 10.59375 L 11.71875 10.59375 C 11.631782 10.59375 11.556914 10.556933 11.5 10.5 C 11.443086 10.443067 11.40625 10.368291 11.40625 10.28125 L 11.40625 8.34375 C 11.406512 8.1899921 11.438873 8.0512125 11.46875 7.90625 C 11.498625 7.7612875 11.537239 7.6331887 11.59375 7.5 C 11.650262 7.3668113 11.701082 7.2121865 11.78125 7.09375 C 12.182091 6.5015674 12.887438 6.125 13.65625 6.125 z M 10.40625 10.28125 C 10.40625 10.652497 10.566241 11.003654 10.78125 11.21875 C 10.975851 11.41342 11.295667 11.533099 11.625 11.5625 L 11.40625 11.5625 A 1.0073228 1.0073228 0 0 0 10.40625 12.5625 L 10.40625 12.875 C 10.40625 12.200345 9.8520916 11.649314 9.1875 11.59375 L 9.40625 11.59375 A 1.0073228 1.0073228 0 0 0 10.40625 10.59375 L 10.40625 10.28125 z M 7.1875 12.5625 L 7.625 12.5625 L 9.09375 12.5625 C 9.2676847 12.5625 9.40625 12.701274 9.40625 12.875 L 9.40625 14.8125 C 9.4046925 15.88818 8.640021 16.792433 7.625 17 C 7.47999 17.029645 7.3412625 17.03125 7.1875 17.03125 C 6.9629074 17.03125 6.8699061 17.014623 6.75 17 C 5.7322865 16.792092 4.9375 15.88993 4.9375 14.8125 C 4.9375 13.580726 5.9561869 12.5625 7.1875 12.5625 z "
       id="path7855" />
    <rect
       style="fill:#000000;fill-opacity:1;stroke:none;display:inline"
       id="rect2824-6"
       width="5"
       height="5"
       x="24"
       y="1" />
    <text
       xml:space="preserve"
       style="font-size:2px;font-style:normal;font-variant:normal;font-weight:normal;font-stretch:normal;text-align:start;line-height:125%;writing-mode:lr-tb;text-anchor:start;fill:#000000;fill-opacity:1;stroke:none;display:inline;font-family:Liberation Sans;-inkscape-font-specification:Liberation Sans"
       x="30"
       y="4"
       id="text3598-5"
       sodipodi:linespacing="125%"><tspan
         sodipodi:role="line"
         id="tspan3600-1"
         x="30"
         y="4">Opacity : 50%</tspan></text>
    <rect
       y="9"
       x="24"
       height="5"
       width="5"
       id="rect3602-3"
       style="fill:#ffffff;fill-opacity:1;stroke:#000000;stroke-width:0.1;stroke-miterlimit:4;stroke-dasharray:none;display:inline" />
    <text
       sodipodi:linespacing="125%"
       id="text3604-4"
       y="12"
       x="30"
       style="font-size:2px;font-style:normal;font-variant:normal;font-weight:normal;font-stretch:normal;text-align:start;line-height:125%;writing-mode:lr-tb;text-anchor:start;fill:#000000;fill-opacity:1;stroke:none;display:inline;font-family:Liberation Sans;-inkscape-font-specification:Liberation Sans"
       xml:space="preserve"><tspan
         y="12"
         x="30"
         id="tspan3606-5"
         sodipodi:role="line">Opacity : 30%</tspan></text>
    <rect
       style="fill:#ffffff;fill-opacity:1;stroke:#000000;stroke-width:0.1;stroke-miterlimit:4;stroke-dasharray:none;display:inline"
       id="rect3608-6"
       width="5"
       height="5"
       x="24"
       y="17" />
    <text
       xml:space="preserve"
       style="font-size:2px;font-style:normal;font-variant:normal;font-weight:normal;font-stretch:normal;text-align:start;line-height:125%;writing-mode:lr-tb;text-anchor:start;fill:#000000;fill-opacity:1;stroke:none;display:inline;font-family:Liberation Sans;-inkscape-font-specification:Liberation Sans"
       x="30"
       y="19"
       id="text3610-7"
       sodipodi:linespacing="125%"><tspan
         sodipodi:role="line"
         x="30"
         y="19"
         id="tspan3648-4">Glow : 6</tspan><tspan
         sodipodi:role="line"
         x="30"
         y="21.5"
         id="tspan3641-3">Opacity : 30%</tspan></text>
    <rect
       y="0"
       x="-30"
       height="22"
       width="22"
       id="rect3756-5"
       style="fill:#ff00ff;fill-opacity:1;stroke:none;display:inline" />
    <rect
       y="54"
       x="1"
       height="5"
       width="5"
       id="rect3825-6"
       style="fill:url(#linearGradient3833-8);fill-opacity:1;stroke:none;display:inline"
       transform="matrix(0,1,1,0,0,0)" />
    <rect
       transform="matrix(0,1,1,0,0,0)"
       style="fill:url(#linearGradient3829-0);fill-opacity:1;stroke:none;display:inline"
       id="rect3808-2"
       width="5"
       height="5"
       x="9"
       y="54" />
    <path
       style="fill:url(#radialGradient3007);display:inline"
       d="m 11,-28.000556 c -4.968557,0 -8.9971314,4.032433 -9.0005558,9.000556 l 0,5.709728 0,1.237576 0,0.253141 c 0,0.997261 0.8028496,1.800111 1.8001111,1.800111 l 0.2531407,0 6.947304,0 c 4.969056,-0.00207 9.000556,-4.030863 9.000556,-9.000556 0,-4.971191 -4.029716,-9.000556 -9.000556,-9.000556 z"
       id="speech-bubble" />
    <path
       id="f-script-path"
       style="fill:#0b6fd1;fill-opacity:1;display:inline"
       d="m 13.642804,-25.867047 c -2.333209,0 -4.2244476,1.891362 -4.2244476,4.224493 0,7.85e-4 0,0.0019 0,0.0029 l 0,2.235887 -2.2289768,0 c -3.567e-4,0 -3.567e-4,0 -5.707e-4,0 -2.3331381,0 -4.2243761,1.882158 -4.2243761,4.215147 0,2.333345 1.8913094,4.224634 4.2243761,4.224634 2.3328526,0 4.2241621,-1.891289 4.2241621,-4.224634 0,-8.57e-4 0,-0.0016 0,-0.003 l 0,-2.245163 2.228905,0 c 5e-4,0 7.14e-4,0 9.01e-4,0 2.332853,0 4.224163,-1.872883 4.224163,-4.205871 0,-2.333131 -1.89131,-4.224493 -4.224163,-4.224493 z M 9.4183564,-15.1846 c -0.00178,1.229349 -0.9995187,2.22597 -2.2295475,2.22597 -1.2313131,0 -2.2387509,-0.998261 -2.2387509,-2.229609 0,-1.231774 1.0074378,-2.248515 2.2387509,-2.248515 9.99e-4,0 0.002,0 0.00293,0 l 1.9105006,0 c 6.421e-4,0 9.991e-4,0 0.00143,0 0.1739348,0 0.3149804,0.140764 0.3149804,0.314418 0,3.57e-4 -2.141e-4,3.57e-4 -2.141e-4,7.85e-4 l 0,1.936951 -7.13e-5,0 z m 4.2242336,-4.219142 c -7.14e-4,0 -0.0014,0 -0.0021,0 l -1.911785,0 c -4.28e-4,0 -9e-4,0 -0.0012,0 -0.173935,0 -0.314623,-0.140693 -0.314623,-0.314775 l 0,-7.1e-5 0,-1.927605 c 0.0021,-1.230063 0.999519,-2.226327 2.229619,-2.226327 1.231313,0 2.238965,0.998333 2.238965,2.229894 0,1.231419 -1.007652,2.238884 -2.238965,2.238884 z" />
    <path
       d="m 9.4183564,-19.403742 0,-2.235958 c 0,-9.99e-4 0,-0.0021 0,-0.0029 0,-2.333132 1.8912386,-4.224493 4.2244476,-4.224493 0.353934,0 0.605418,0.03988 0.933027,0.125639 0.477785,0.125282 0.867962,0.516682 0.868175,0.972293 2.15e-4,0.550784 -0.399593,0.951174 -0.997093,0.951174 -0.284659,0 -0.387536,-0.05451 -0.804323,-0.05451 -1.2301,0 -2.22755,0.996264 -2.229619,2.226327 l 0,1.927534 0,7.2e-5 c 0,0.174082 0.140688,0.314774 0.314623,0.314774 2.14e-4,0 7.14e-4,0 0.0012,0 l 1.464106,0 c 0.545633,0 0.986249,0.436847 0.986677,0.983922 0,0.547289 -0.441258,0.983137 -0.986677,0.983137 l -1.779871,0 0,2.245162 c 0,0.0013 0,0.0021 0,0.0033 0,2.332915 -1.8913096,4.224207 -4.2241622,4.224207 -0.3540053,0 -0.6054901,-0.03988 -0.9330983,-0.12571 -0.4778156,-0.125204 -0.8681345,-0.516819 -0.8683485,-0.972286 0,-0.550643 0.3995222,-0.951175 0.9973071,-0.951175 0.2843741,0 0.3875365,0.05458 0.8041097,0.05458 1.2301002,0 2.2278355,-0.996336 2.2297616,-2.22597 0,0 0,-1.937308 0,-1.937665 0,-0.173726 -0.1410457,-0.314418 -0.3149804,-0.314418 -2.14e-4,0 -4.281e-4,0 -7.848e-4,0 l -1.4640346,0 c -0.5457757,0 -0.9867484,-0.43542 -0.9867484,-0.982852 -1.426e-4,-0.5505 0.4455385,-0.984136 0.9970932,-0.984136 l 1.7692409,0 0,-7.1e-5 z"
       style="fill:#ffffff;display:inline"
       id="blue-inifity-connectors" />
    <path
       style="fill:url(#linearGradient3818);display:inline;fill-opacity:1"
       d="M 11 2 C 6.031443 2 2.0034244 6.031877 2 11 L 2 16.71875 L 2 17.9375 L 2 18.1875 C 2 19.184761 2.8152385 20 3.8125 20 L 4.0625 20 L 11 20 C 15.969056 19.99793 20 15.969693 20 11 C 20 6.028809 15.97084 2 11 2 z M 13.65625 4.125 C 13.90832 4.125 14.099851 4.1448769 14.3125 4.1875 C 14.398433 4.2047244 14.468213 4.2253181 14.5625 4.25 C 16.452722 4.6701538 17.875 6.3268107 17.875 8.34375 C 17.875 10.676738 15.989103 12.5625 13.65625 12.5625 L 13.1875 12.5625 L 11.40625 12.5625 L 11.40625 14.8125 C 11.40625 17.145415 9.5203526 19.03125 7.1875 19.03125 C 6.9265346 19.03125 6.7211055 18.983276 6.5 18.9375 C 6.4519336 18.927549 6.3940501 18.949755 6.34375 18.9375 C 6.3115089 18.930903 6.2819689 18.913577 6.25 18.90625 C 4.373237 18.476085 2.96875 16.819981 2.96875 14.8125 C 2.96875 12.479511 4.8543619 10.59375 7.1875 10.59375 L 7.65625 10.59375 L 9.40625 10.59375 L 9.40625 8.375 L 9.40625 8.34375 C 9.40625 6.010618 11.323041 4.125 13.65625 4.125 z M 13.65625 6.125 C 12.887438 6.125 12.182091 6.5015674 11.78125 7.09375 C 11.701082 7.2121865 11.650262 7.3668113 11.59375 7.5 C 11.537239 7.6331887 11.498625 7.7612875 11.46875 7.90625 C 11.438873 8.0512125 11.406512 8.1899921 11.40625 8.34375 L 11.40625 10.28125 C 11.40625 10.368291 11.443086 10.443067 11.5 10.5 C 11.556914 10.556933 11.631782 10.59375 11.71875 10.59375 L 13.1875 10.59375 L 13.625 10.59375 L 13.65625 10.59375 C 14.887563 10.59375 15.875 9.575169 15.875 8.34375 C 15.875 7.112189 14.887563 6.125 13.65625 6.125 z M 7.1875 12.5625 C 5.9561869 12.5625 4.9375 13.580726 4.9375 14.8125 C 4.9375 15.88993 5.7322865 16.792092 6.75 17 C 6.8699061 17.014623 6.9629074 17.03125 7.1875 17.03125 C 7.3412625 17.03125 7.47999 17.029645 7.625 17 C 8.640021 16.792433 9.4046925 15.88818 9.40625 14.8125 L 9.40625 12.875 C 9.40625 12.701274 9.2676847 12.5625 9.09375 12.5625 L 7.625 12.5625 L 7.1875 12.5625 z "
       id="path3032" />
    <path
       style="fill:#000000;fill-opacity:1;display:inline;opacity:0.4"
       d="M 14.5625 4.25 C 15.040285 4.375282 15.437287 4.763139 15.4375 5.21875 C 15.437715 5.769534 15.035 6.1875 14.4375 6.1875 C 14.152841 6.1875 14.073037 6.125 13.65625 6.125 C 14.887563 6.125 15.875 7.112189 15.875 8.34375 C 15.875 9.575169 14.887563 10.59375 13.65625 10.59375 L 13.625 10.59375 L 13.1875 10.59375 C 13.733133 10.59375 14.187072 11.046675 14.1875 11.59375 C 14.1875 12.141039 13.732919 12.5625 13.1875 12.5625 L 13.65625 12.5625 C 15.989103 12.5625 17.875 10.676738 17.875 8.34375 C 17.875 6.3268107 16.452722 4.6701538 14.5625 4.25 z M 7.1875 10.59375 C 4.8543619 10.59375 2.96875 12.479511 2.96875 14.8125 C 2.96875 16.819981 4.373237 18.476085 6.25 18.90625 C 5.7721844 18.781046 5.375214 18.392967 5.375 17.9375 C 5.375 17.386857 5.7772151 17 6.375 17 C 6.5060557 17 6.6475049 16.9875 6.75 17 C 5.7322865 16.792092 4.9375 15.88993 4.9375 14.8125 C 4.9375 13.580726 5.9561869 12.5625 7.1875 12.5625 L 7.625 12.5625 C 7.0792243 12.5625 6.65625 12.141182 6.65625 11.59375 C 6.6561074 11.04325 7.1046953 10.59375 7.65625 10.59375 L 7.1875 10.59375 z "
       id="path3034" />
    <path
       style="fill:#000000;display:inline;fill-opacity:1;opacity:0.5"
       d="M 11 2 C 6.031443 2 2.0034244 6.031877 2 11 L 2 12 C 2.0034244 7.031877 6.031443 3 11 3 C 15.799266 3 19.70376 6.7667541 19.96875 11.5 C 19.978227 11.330836 20 11.171534 20 11 C 20 6.028809 15.97084 2 11 2 z M 13.65625 6.125 C 12.887438 6.125 12.182091 6.5015674 11.78125 7.09375 C 11.701082 7.2121865 11.650262 7.3668113 11.59375 7.5 C 11.537239 7.6331887 11.498625 7.7612875 11.46875 7.90625 C 11.438873 8.0512125 11.406512 8.1899921 11.40625 8.34375 L 11.40625 9.34375 C 11.40651 9.1899921 11.43887 9.0512125 11.46875 8.90625 C 11.49863 8.7612875 11.53724 8.6331887 11.59375 8.5 C 11.650262 8.3668113 11.70108 8.2121865 11.78125 8.09375 C 12.182091 7.5015674 12.887438 7.125 13.65625 7.125 C 14.710666 7.125 15.582682 7.8623783 15.8125 8.84375 C 15.851056 8.678013 15.875 8.520662 15.875 8.34375 C 15.875 7.112189 14.887563 6.125 13.65625 6.125 z M 17.8125 8.78125 C 17.588827 10.902417 15.837373 12.5625 13.65625 12.5625 L 13.1875 12.5625 L 11.40625 12.5625 L 11.40625 13.5625 L 13.1875 13.5625 L 13.65625 13.5625 C 15.989103 13.5625 17.875 11.676738 17.875 9.34375 C 17.875 9.1542273 17.836824 8.9636835 17.8125 8.78125 z M 7.1875 12.5625 C 5.9561869 12.5625 4.9375 13.580726 4.9375 14.8125 C 4.9375 14.981509 4.9630943 15.15412 5 15.3125 C 5.2364022 14.324455 6.1330837 13.5625 7.1875 13.5625 L 7.625 13.5625 L 9.09375 13.5625 C 9.2676847 13.5625 9.40625 13.701274 9.40625 13.875 L 9.40625 12.875 C 9.40625 12.701274 9.2676847 12.5625 9.09375 12.5625 L 7.625 12.5625 L 7.1875 12.5625 z M 11.40625 14.8125 C 11.40625 17.145415 9.5203526 19.03125 7.1875 19.03125 C 6.9265346 19.03125 6.7211055 18.983276 6.5 18.9375 C 6.4519336 18.927549 6.3940501 18.949755 6.34375 18.9375 C 6.3115089 18.930903 6.2819689 18.913577 6.25 18.90625 C 4.549588 18.516506 3.2629373 17.127021 3.03125 15.375 C 3.0156923 15.52256 2.96875 15.660761 2.96875 15.8125 C 2.96875 17.819981 4.373237 19.476085 6.25 19.90625 C 6.2819689 19.913577 6.3115089 19.930903 6.34375 19.9375 C 6.3940501 19.94975 6.451934 19.9275 6.5 19.9375 C 6.6105528 19.96039 6.7321339 19.982285 6.84375 20 L 7.46875 20 C 9.666312 19.851789 11.40625 18.04821 11.40625 15.8125 L 11.40625 14.8125 z "
       id="path3821" />
    <path
       style="fill:#ffffff;fill-opacity:1;display:inline;opacity:0.3"
       d="M 13.65625 4.125 C 11.323041 4.125 9.40625 6.010618 9.40625 8.34375 L 9.40625 8.375 L 9.40625 9.34375 C 9.40625 7.010618 11.323041 5.125 13.65625 5.125 C 13.90832 5.125 14.099851 5.144877 14.3125 5.1875 C 14.39843 5.204724 14.468213 5.225318 14.5625 5.25 C 16.275106 5.6306738 17.57796 7.0221891 17.8125 8.78125 C 17.82806 8.6336905 17.875 8.4954891 17.875 8.34375 C 17.875 6.3268107 16.452722 4.6701538 14.5625 4.25 C 14.468213 4.225318 14.39843 4.204724 14.3125 4.1875 C 14.099851 4.144877 13.90832 4.125 13.65625 4.125 z M 15.8125 8.84375 C 15.582682 9.8316469 14.710666 10.59375 13.65625 10.59375 L 13.625 10.59375 L 13.1875 10.59375 L 11.71875 10.59375 C 11.631782 10.59375 11.55691 10.55693 11.5 10.5 C 11.44309 10.443067 11.40625 10.36829 11.40625 10.28125 L 11.40625 11.28125 C 11.40625 11.36829 11.44309 11.443067 11.5 11.5 C 11.55691 11.55693 11.631782 11.59375 11.71875 11.59375 L 13.1875 11.59375 L 13.625 11.59375 L 13.65625 11.59375 C 14.887563 11.59375 15.875 10.575169 15.875 9.34375 C 15.875 9.1668176 15.851056 9.0083923 15.8125 8.84375 z M 7.1875 10.59375 C 4.8543619 10.59375 2.96875 12.479511 2.96875 14.8125 C 2.96875 15.001134 3.0072215 15.193297 3.03125 15.375 C 3.2548917 13.253832 5.0061107 11.59375 7.1875 11.59375 L 7.65625 11.59375 L 9.40625 11.59375 L 9.40625 10.59375 L 7.65625 10.59375 L 7.1875 10.59375 z M 19.96875 11.5 C 19.703648 16.231861 15.797544 19.997972 11 20 L 7.46875 20 C 7.3732038 20.006444 7.2847022 20.03125 7.1875 20.03125 C 7.0570173 20.03125 6.9553661 20.017715 6.84375 20 L 4.0625 20 L 3.8125 20 C 2.8152385 20 2 19.184761 2 18.1875 L 2 18.9375 L 2 19.1875 C 2 20.184761 2.8152385 21 3.8125 21 L 4.0625 21 L 11 21 C 15.969056 20.9979 20 16.969693 20 12 C 20 11.828414 19.978223 11.669213 19.96875 11.5 z M 9.40625 14.8125 C 9.4046925 15.88818 8.640021 16.792433 7.625 17 C 7.47999 17.02965 7.3412625 17.03125 7.1875 17.03125 C 6.9629074 17.03125 6.8699061 17.01462 6.75 17 C 5.8919278 16.824705 5.198368 16.163794 5 15.3125 C 4.9603394 15.478262 4.9375 15.635537 4.9375 15.8125 C 4.9375 16.88993 5.7322865 17.792092 6.75 18 C 6.8699061 18.01462 6.9629074 18.03125 7.1875 18.03125 C 7.3412625 18.03125 7.47999 18.02965 7.625 18 C 8.640021 17.792433 9.4046925 16.88818 9.40625 15.8125 L 9.40625 14.8125 z "
       id="path3840" />
  </g>
</svg>
