<?xml version="1.0" encoding="UTF-8" standalone="no"?>
<!-- Created with Inkscape (http://www.inkscape.org/) -->

<svg
   xmlns:dc="http://purl.org/dc/elements/1.1/"
   xmlns:cc="http://creativecommons.org/ns#"
   xmlns:rdf="http://www.w3.org/1999/02/22-rdf-syntax-ns#"
   xmlns:svg="http://www.w3.org/2000/svg"
   xmlns="http://www.w3.org/2000/svg"
   xmlns:xlink="http://www.w3.org/1999/xlink"
   xmlns:sodipodi="http://sodipodi.sourceforge.net/DTD/sodipodi-0.dtd"
   xmlns:inkscape="http://www.inkscape.org/namespaces/inkscape"
   width="22"
   height="22"
   id="svg2"
   sodipodi:version="0.32"
   inkscape:version="0.48.1 r9760"
   version="1.0"
   sodipodi:docname="start-here-mandriva.svg"
   inkscape:output_extension="org.inkscape.output.svg.inkscape"
   style="display:inline">
  <defs
     id="defs4">
    <linearGradient
       id="linearGradient3722">
      <stop
         id="stop3724"
         offset="0"
         style="stop-color:#aaaaaa;stop-opacity:1;" />
      <stop
         id="stop3726"
         offset="1"
         style="stop-color:#f0f0f0;stop-opacity:1;" />
    </linearGradient>
    <linearGradient
       id="linearGradient3295">
      <stop
         style="stop-color:#559829;stop-opacity:1;"
         offset="0"
         id="stop3297" />
      <stop
         style="stop-color:#86c837;stop-opacity:1;"
         offset="1"
         id="stop3299" />
    </linearGradient>
    <linearGradient
       id="linearGradient3287">
      <stop
         style="stop-color:#cd0000;stop-opacity:1;"
         offset="0"
         id="stop3289" />
      <stop
         style="stop-color:#e55300;stop-opacity:1;"
         offset="1"
         id="stop3291" />
    </linearGradient>
    <linearGradient
       id="linearGradient3279">
      <stop
         style="stop-color:#f08e00;stop-opacity:1;"
         offset="0"
         id="stop3281" />
      <stop
         style="stop-color:#ffd200;stop-opacity:1;"
         offset="1"
         id="stop3283" />
    </linearGradient>
    <linearGradient
       id="linearGradient3271">
      <stop
         style="stop-color:#395d93;stop-opacity:1;"
         offset="0"
         id="stop3273" />
      <stop
         style="stop-color:#6e92c7;stop-opacity:1;"
         offset="1"
         id="stop3275" />
    </linearGradient>
    <linearGradient
       inkscape:collect="always"
       id="linearGradient3327">
      <stop
         style="stop-color:#000000;stop-opacity:1;"
         offset="0"
         id="stop3330" />
      <stop
         style="stop-color:#000000;stop-opacity:0;"
         offset="1"
         id="stop3333" />
    </linearGradient>
    <linearGradient
       inkscape:collect="always"
       xlink:href="#linearGradient3327"
       id="linearGradient3335"
       x1="11.375"
       y1="22"
       x2="11.375"
       y2="-9.817296"
       gradientUnits="userSpaceOnUse" />
    <inkscape:perspective
       sodipodi:type="inkscape:persp3d"
       inkscape:vp_x="0 : 11 : 1"
       inkscape:vp_y="0 : 1000 : 0"
       inkscape:vp_z="22 : 11 : 1"
       inkscape:persp3d-origin="11 : 7.3333333 : 1"
       id="perspective102" />
    <linearGradient
       id="linearGradient4081">
      <stop
         style="stop-color:#aaaaaa;stop-opacity:1;"
         offset="0"
         id="stop4083" />
      <stop
         style="stop-color:#f0f0f0;stop-opacity:1;"
         offset="1"
         id="stop4085" />
    </linearGradient>
    <linearGradient
       id="linearGradient4057">
      <stop
         style="stop-color:#816647;stop-opacity:1;"
         offset="0"
         id="stop4059" />
      <stop
         style="stop-color:#a6845d;stop-opacity:1;"
         offset="1"
         id="stop4061" />
    </linearGradient>
    <linearGradient
       id="linearGradient3929">
      <stop
         style="stop-color:#000000;stop-opacity:1;"
         offset="0"
         id="stop3931" />
      <stop
         style="stop-color:#000000;stop-opacity:0;"
         offset="1"
         id="stop3933" />
    </linearGradient>
    <linearGradient
       inkscape:collect="always"
       xlink:href="#linearGradient3929"
       id="linearGradient4051"
       x1="9.494998"
       y1="15.516565"
       x2="9.494998"
       y2="-4.1786065"
       gradientUnits="userSpaceOnUse" />
    <linearGradient
       inkscape:collect="always"
       xlink:href="#linearGradient4057"
       id="linearGradient4063"
       x1="9.17138"
       y1="21.000002"
       x2="9.17138"
       y2="0.97239029"
       gradientUnits="userSpaceOnUse" />
    <linearGradient
       inkscape:collect="always"
       xlink:href="#linearGradient4081"
       id="linearGradient4089"
       x1="6.101758"
       y1="154.58195"
       x2="6.101758"
       y2="36.995476"
       gradientUnits="userSpaceOnUse" />
    <linearGradient
       inkscape:collect="always"
       xlink:href="#linearGradient4081"
       id="linearGradient4103"
       gradientUnits="userSpaceOnUse"
       x1="6.101758"
       y1="154.58195"
       x2="6.101758"
       y2="36.995476" />
    <linearGradient
       inkscape:collect="always"
       xlink:href="#linearGradient4081"
       id="linearGradient4105"
       gradientUnits="userSpaceOnUse"
       x1="6.101758"
       y1="154.58195"
       x2="6.101758"
       y2="36.995476" />
    <linearGradient
       inkscape:collect="always"
       xlink:href="#linearGradient4081"
       id="linearGradient4107"
       gradientUnits="userSpaceOnUse"
       x1="6.101758"
       y1="154.58195"
       x2="6.101758"
       y2="36.995476" />
    <linearGradient
       inkscape:collect="always"
       xlink:href="#linearGradient4081"
       id="linearGradient4109"
       gradientUnits="userSpaceOnUse"
       x1="6.101758"
       y1="154.58195"
       x2="6.101758"
       y2="36.995476" />
    <linearGradient
       inkscape:collect="always"
       xlink:href="#linearGradient4081"
       id="linearGradient4111"
       gradientUnits="userSpaceOnUse"
       x1="6.101758"
       y1="154.58195"
       x2="6.101758"
       y2="36.995476" />
    <linearGradient
       inkscape:collect="always"
       xlink:href="#linearGradient4081"
       id="linearGradient4113"
       gradientUnits="userSpaceOnUse"
       x1="6.101758"
       y1="154.58195"
       x2="6.101758"
       y2="36.995476" />
    <linearGradient
       inkscape:collect="always"
       xlink:href="#linearGradient4081"
       id="linearGradient4115"
       gradientUnits="userSpaceOnUse"
       x1="6.101758"
       y1="154.58195"
       x2="6.101758"
       y2="36.995476" />
    <linearGradient
       inkscape:collect="always"
       xlink:href="#linearGradient4081"
       id="linearGradient4117"
       gradientUnits="userSpaceOnUse"
       x1="6.101758"
       y1="154.58195"
       x2="6.101758"
       y2="36.995476" />
    <linearGradient
       inkscape:collect="always"
       xlink:href="#linearGradient4081"
       id="linearGradient4119"
       gradientUnits="userSpaceOnUse"
       x1="6.101758"
       y1="154.58195"
       x2="6.101758"
       y2="36.995476" />
    <linearGradient
       inkscape:collect="always"
       xlink:href="#linearGradient4081"
       id="linearGradient4121"
       gradientUnits="userSpaceOnUse"
       x1="6.101758"
       y1="154.58195"
       x2="6.101758"
       y2="36.995476" />
    <linearGradient
       inkscape:collect="always"
       xlink:href="#linearGradient4081"
       id="linearGradient4123"
       gradientUnits="userSpaceOnUse"
       x1="6.101758"
       y1="154.58195"
       x2="6.101758"
       y2="36.995476" />
    <linearGradient
       inkscape:collect="always"
       xlink:href="#linearGradient4081"
       id="linearGradient4125"
       gradientUnits="userSpaceOnUse"
       x1="6.101758"
       y1="154.58195"
       x2="6.101758"
       y2="36.995476" />
    <linearGradient
       inkscape:collect="always"
       xlink:href="#linearGradient4081"
       id="linearGradient4127"
       gradientUnits="userSpaceOnUse"
       x1="6.101758"
       y1="154.58195"
       x2="6.101758"
       y2="36.995476" />
    <linearGradient
       inkscape:collect="always"
       xlink:href="#linearGradient4081"
       id="linearGradient4129"
       gradientUnits="userSpaceOnUse"
       x1="6.101758"
       y1="154.58195"
       x2="6.101758"
       y2="36.995476" />
    <linearGradient
       inkscape:collect="always"
       xlink:href="#linearGradient4081"
       id="linearGradient4132"
       gradientUnits="userSpaceOnUse"
       x1="6.101758"
       y1="154.58195"
       x2="6.101758"
       y2="36.995476"
       gradientTransform="matrix(0.1317916,0,0,0.1317916,11.619896,-1.9882468)" />
    <linearGradient
       inkscape:collect="always"
       xlink:href="#linearGradient4081"
       id="linearGradient4141"
       gradientUnits="userSpaceOnUse"
       x1="6.101758"
       y1="154.58195"
       x2="6.101758"
       y2="36.995476"
       gradientTransform="matrix(0.1317916,0,0,0.1317916,11.619896,-1.9882468)" />
    <linearGradient
       inkscape:collect="always"
       xlink:href="#linearGradient4081"
       id="linearGradient4148"
       gradientUnits="userSpaceOnUse"
       x1="6.101758"
       y1="154.58195"
       x2="6.101758"
       y2="36.995476"
       gradientTransform="matrix(0.1317916,0,0,0.1317916,11.619896,-1.9882468)" />
    <linearGradient
       inkscape:collect="always"
       xlink:href="#linearGradient4081"
       id="linearGradient4158"
       gradientUnits="userSpaceOnUse"
       x1="6.101758"
       y1="154.58195"
       x2="6.101758"
       y2="36.995476"
       gradientTransform="matrix(0.1317916,0,0,0.1317916,11.619896,-1.9882468)" />
    <linearGradient
       inkscape:collect="always"
       xlink:href="#linearGradient4081"
       id="linearGradient4180"
       gradientUnits="userSpaceOnUse"
       x1="6.101758"
       y1="154.58195"
       x2="6.101758"
       y2="36.995476" />
    <linearGradient
       inkscape:collect="always"
       xlink:href="#linearGradient4081"
       id="linearGradient4182"
       gradientUnits="userSpaceOnUse"
       gradientTransform="matrix(0.1317916,0,0,0.1317916,11.619896,-1.9882468)"
       x1="6.101758"
       y1="154.58195"
       x2="6.101758"
       y2="36.995476" />
    <linearGradient
       inkscape:collect="always"
       xlink:href="#linearGradient4081"
       id="linearGradient4184"
       gradientUnits="userSpaceOnUse"
       x1="6.101758"
       y1="154.58195"
       x2="6.101758"
       y2="36.995476" />
    <linearGradient
       inkscape:collect="always"
       xlink:href="#linearGradient4081"
       id="linearGradient4186"
       gradientUnits="userSpaceOnUse"
       gradientTransform="matrix(0.1317916,0,0,0.1317916,11.619896,-1.9882468)"
       x1="6.101758"
       y1="154.58195"
       x2="6.101758"
       y2="36.995476" />
    <linearGradient
       inkscape:collect="always"
       xlink:href="#linearGradient4081"
       id="linearGradient2480"
       gradientUnits="userSpaceOnUse"
       gradientTransform="matrix(0.1256322,0,0,0.1256322,11.921746,-1.0005124)"
       x1="6.101758"
       y1="154.58195"
       x2="6.101758"
       y2="36.995476" />
    <linearGradient
       inkscape:collect="always"
       xlink:href="#linearGradient4081"
       id="linearGradient2483"
       gradientUnits="userSpaceOnUse"
       gradientTransform="matrix(0.1256322,0,0,0.1256322,11.921746,-1.0005124)"
       x1="6.101758"
       y1="154.58195"
       x2="6.101758"
       y2="36.995476" />
    <linearGradient
       inkscape:collect="always"
       xlink:href="#linearGradient4081"
       id="linearGradient2489"
       gradientUnits="userSpaceOnUse"
       gradientTransform="matrix(0.1256322,0,0,0.1256322,11.921746,-1.0005124)"
       x1="6.101758"
       y1="154.58195"
       x2="6.101758"
       y2="36.995476" />
    <linearGradient
       inkscape:collect="always"
       xlink:href="#linearGradient4081"
       id="linearGradient2495"
       gradientUnits="userSpaceOnUse"
       gradientTransform="matrix(0.1256322,0,0,0.1256322,11.921746,-1.0005124)"
       x1="6.101758"
       y1="154.58195"
       x2="6.101758"
       y2="36.995476" />
    <linearGradient
       inkscape:collect="always"
       xlink:href="#linearGradient4081"
       id="linearGradient2498"
       gradientUnits="userSpaceOnUse"
       gradientTransform="matrix(0.1256322,0,0,0.1256322,11.921746,-1.0005124)"
       x1="6.101758"
       y1="154.58195"
       x2="6.101758"
       y2="36.995476" />
    <linearGradient
       inkscape:collect="always"
       xlink:href="#linearGradient4081"
       id="linearGradient2501"
       gradientUnits="userSpaceOnUse"
       gradientTransform="matrix(0.1256322,0,0,0.1256322,11.921746,-1.0005124)"
       x1="6.101758"
       y1="154.58195"
       x2="6.101758"
       y2="36.995476" />
    <linearGradient
       inkscape:collect="always"
       xlink:href="#linearGradient4081"
       id="linearGradient2504"
       gradientUnits="userSpaceOnUse"
       gradientTransform="matrix(0.1256322,0,0,0.1256322,11.921746,-1.0005124)"
       x1="6.101758"
       y1="154.58195"
       x2="6.101758"
       y2="36.995476" />
    <linearGradient
       inkscape:collect="always"
       xlink:href="#linearGradient4081"
       id="linearGradient2506"
       gradientUnits="userSpaceOnUse"
       x1="6.101758"
       y1="154.58195"
       x2="6.101758"
       y2="36.995476" />
    <linearGradient
       inkscape:collect="always"
       xlink:href="#linearGradient4081"
       id="linearGradient2508"
       gradientUnits="userSpaceOnUse"
       gradientTransform="matrix(0.1317916,0,0,0.1317916,11.619896,-1.9882468)"
       x1="6.101758"
       y1="154.58195"
       x2="6.101758"
       y2="36.995476" />
    <linearGradient
       inkscape:collect="always"
       xlink:href="#linearGradient4081"
       id="linearGradient2510"
       gradientUnits="userSpaceOnUse"
       gradientTransform="matrix(0.1317916,0,0,0.1317916,11.619896,-1.9882468)"
       x1="6.101758"
       y1="154.58195"
       x2="6.101758"
       y2="36.995476" />
    <clipPath
       clipPathUnits="userSpaceOnUse"
       id="clipPath4974">
      <path
         id="path4976"
         d="M 16.625,2 C 15.93281,2.046173 15.13978,2.350316 14.5,2.875 13.716105,3.517873 13.079371,5.1522168 13.25,6.0625 13.337976,6.531842 13.692147,7.1029241 14.03125,7.28125 14.662734,7.613335 15.813682,7.0624791 16.875,5.9375 18.021489,4.722239 18.547995,3.383178 18.15625,2.625 17.915497,2.159052 17.31719,1.953827 16.625,2 z M 10.96875,2.71875 C 10.005789,2.719616 9.496306,3.3967078 9.5,4.6875 c 0.00253,0.88392 0.31322,1.6791318 0.71875,1.875 0.301512,0.145631 0.309051,0.1320361 0.6875,0 C 11.533114,6.343793 12.122053,4.8839409 12,3.90625 11.900109,3.106091 11.556193,2.7182209 10.96875,2.71875 z m -3.8125,1.3125 C 6.976067,4.0573035 6.795347,4.173262 6.625,4.34375 6.281636,4.687396 6.277056,4.8747068 6.28125,5.53125 6.286196,6.305553 6.475145,6.7277249 7,7.28125 7.392601,7.695296 7.675716,7.7200481 8.03125,7.34375 8.416388,6.936117 8.535971,6.296057 8.40625,5.59375 8.208416,4.5226825 7.696799,3.9530895 7.15625,4.03125 z M 4.46875,6.375 C 4.281799,6.4054104 4.1133,6.5115553 3.9375,6.6875 3.476154,7.14923 3.798831,8.4188978 4.53125,9.0625 5.405425,9.830669 6.111327,9.1273309 5.8125,7.78125 5.599846,6.8233425 5.029603,6.2837687 4.46875,6.375 z M 12.5,8.0625 C 11.88094,8.0518483 11.187196,8.1034691 10.46875,8.25 8.61799,8.627471 7.13709,9.3254488 6.1875,10.28125 5.640611,10.831715 5.327697,11.341306 5.0625,12.125 c -0.641919,1.896963 0.546896,4.595678 2.8125,6.4375 0.844088,0.686203 1.359152,0.993313 2.21875,1.28125 0.445736,0.149308 0.799163,0.183992 1.625,0.15625 0.946716,-0.03181 1.139252,-0.07408 1.75,-0.375 0.895036,-0.440989 1.909553,-1.461035 2.34375,-2.34375 0.264885,-0.5385 0.307321,-0.768628 0.28125,-1.21875 -0.04452,-0.768578 -0.342658,-0.977756 -1.3125,-0.96875 -1.38452,0.01285 -1.965756,0.333932 -2.25,1.3125 -0.21469,0.739118 -0.452038,1 -0.9375,1 -0.769368,0 -1.5625,-0.611791 -1.5625,-1.25 0,-0.443994 0.715313,-1.10577 2.5,-2.3125 2.514116,-1.69994 3.378489,-2.734111 3.25,-3.875 C 15.64852,8.7901993 14.35718,8.0944552 12.5,8.0625 z"
         style="fill:#ffffff;fill-opacity:1;stroke:none" />
    </clipPath>
    <clipPath
       clipPathUnits="userSpaceOnUse"
       id="clipPath4995">
      <path
         style="fill:#ffffff;fill-opacity:1;fill-rule:nonzero;stroke:none;display:inline"
         d="M 30,0 30,22 52,22 52,0 30,0 z M 46.625,2 C 47.31719,1.953827 47.915497,2.159052 48.15625,2.625 48.547995,3.383178 48.021489,4.722239 46.875,5.9375 45.813682,7.0624791 44.662734,7.613335 44.03125,7.28125 43.692147,7.1029241 43.337976,6.531842 43.25,6.0625 43.079371,5.1522168 43.716105,3.517873 44.5,2.875 45.13978,2.350316 45.93281,2.046173 46.625,2 z m -5.65625,0.71875 c 0.587443,-5.291e-4 0.931359,0.387341 1.03125,1.1875 0.122053,0.9776909 -0.466886,2.437543 -1.09375,2.65625 -0.378449,0.1320361 -0.385988,0.145631 -0.6875,0 C 39.81322,6.3666318 39.502528,5.57142 39.5,4.6875 39.496306,3.3967078 40.005789,2.719616 40.96875,2.71875 z m -3.8125,1.3125 c 0.540549,-0.078161 1.052166,0.4914325 1.25,1.5625 0.129721,0.702307 0.01014,1.342367 -0.375,1.75 C 37.675716,7.7200481 37.392601,7.695296 37,7.28125 36.475145,6.7277249 36.286196,6.305553 36.28125,5.53125 36.277056,4.8747068 36.281636,4.687396 36.625,4.34375 36.795347,4.173262 36.976067,4.0573035 37.15625,4.03125 z M 34.46875,6.375 C 35.029603,6.2837687 35.599846,6.8233425 35.8125,7.78125 36.111327,9.1273309 35.405425,9.830669 34.53125,9.0625 33.798831,8.4188978 33.476154,7.14923 33.9375,6.6875 34.1133,6.5115553 34.281799,6.4054104 34.46875,6.375 z M 42.5,8.0625 c 1.85718,0.031955 3.14852,0.7276993 3.28125,1.90625 0.128489,1.140889 -0.735884,2.17506 -3.25,3.875 -1.784687,1.20673 -2.5,1.868506 -2.5,2.3125 0,0.638209 0.793132,1.25 1.5625,1.25 0.485462,0 0.72281,-0.260882 0.9375,-1 0.284244,-0.978568 0.86548,-1.299646 2.25,-1.3125 0.969842,-0.009 1.267977,0.200172 1.3125,0.96875 0.02607,0.450122 -0.01637,0.68025 -0.28125,1.21875 -0.434197,0.882715 -1.448714,1.902761 -2.34375,2.34375 -0.610748,0.300916 -0.803284,0.343192 -1.75,0.375 -0.825837,0.02774 -1.179264,-0.0069 -1.625,-0.15625 C 39.234152,19.555813 38.719088,19.248703 37.875,18.5625 35.609396,16.720678 34.420581,14.021963 35.0625,12.125 35.327697,11.341306 35.640611,10.831715 36.1875,10.28125 37.13709,9.3254488 38.61799,8.627471 40.46875,8.25 41.187196,8.1034691 41.88094,8.0518483 42.5,8.0625 z"
         id="path4997" />
    </clipPath>
    <linearGradient
       inkscape:collect="always"
       xlink:href="#StandardGradient-1"
       id="linearGradient5065"
       gradientUnits="userSpaceOnUse"
       x1="10"
       y1="3"
       x2="10"
       y2="7" />
    <linearGradient
       inkscape:collect="always"
       xlink:href="#StandardGradient-1"
       id="linearGradient5068"
       gradientUnits="userSpaceOnUse"
       x1="16"
       y1="2"
       x2="16"
       y2="7" />
    <linearGradient
       inkscape:collect="always"
       xlink:href="#StandardGradient-1"
       id="linearGradient5071"
       gradientUnits="userSpaceOnUse"
       x1="6"
       y1="4"
       x2="6"
       y2="8" />
    <linearGradient
       inkscape:collect="always"
       xlink:href="#StandardGradient-1"
       id="linearGradient5074"
       gradientUnits="userSpaceOnUse"
       x1="4"
       y1="7"
       x2="4"
       y2="9" />
    <linearGradient
       inkscape:collect="always"
       xlink:href="#StandardGradient-1"
       id="linearGradient5077"
       gradientUnits="userSpaceOnUse"
       x1="12"
       y1="8"
       x2="12"
       y2="20.041595" />
    <inkscape:perspective
       id="perspective4374"
       inkscape:persp3d-origin="0.5 : 0.33333333 : 1"
       inkscape:vp_z="1 : 0.5 : 1"
       inkscape:vp_y="0 : 1000 : 0"
       inkscape:vp_x="0 : 0.5 : 1"
       sodipodi:type="inkscape:persp3d" />
    <linearGradient
       inkscape:collect="always"
       xlink:href="#StandardGradient-1"
       id="linearGradient3833-8"
       x1="54"
       y1="3.5"
       x2="59"
       y2="3.5"
       gradientUnits="userSpaceOnUse"
       gradientTransform="translate(-53,53)" />
    <linearGradient
       id="StandardGradient-1"
       gradientTransform="matrix(0.9984539,0,0,0.9984539,-0.0459776,0.05767558)"
       x1="10.710332"
       y1="1.9963325"
       x2="10.710332"
       y2="18.974037"
       gradientUnits="userSpaceOnUse">
      <stop
         style="stop-color:#000000;stop-opacity:0.86274511;"
         offset="0"
         id="stop3277-4" />
      <stop
         style="stop-color:#000000;stop-opacity:0.47058824;"
         offset="1"
         id="stop3279-3" />
    </linearGradient>
    <linearGradient
       y2="3.5"
       x2="59"
       y1="3.5"
       x1="54"
       gradientTransform="translate(-45,53)"
       gradientUnits="userSpaceOnUse"
       id="linearGradient3829-0"
       xlink:href="#SpecificGradient-5"
       inkscape:collect="always" />
    <linearGradient
       id="SpecificGradient-5"
       x1="10.761708"
       y1="3.9999998"
       x2="10.761708"
       y2="18.011395"
       gradientUnits="userSpaceOnUse">
      <stop
         style="stop-color:#a50000;stop-opacity:1;"
         offset="0"
         id="stop3292-8" />
      <stop
         style="stop-color:#e73800;stop-opacity:1;"
         offset="1"
         id="stop3294-0" />
    </linearGradient>
    <linearGradient
       inkscape:collect="always"
       xlink:href="#StandardGradient-1"
       id="linearGradient3738"
       gradientUnits="userSpaceOnUse"
       x1="12"
       y1="8"
       x2="12"
       y2="20.041595" />
    <linearGradient
       inkscape:collect="always"
       xlink:href="#StandardGradient-1"
       id="linearGradient3741"
       gradientUnits="userSpaceOnUse"
       x1="12"
       y1="8"
       x2="12"
       y2="20.041595"
       gradientTransform="translate(-30,0)" />
    <linearGradient
       inkscape:collect="always"
       xlink:href="#StandardGradient-1"
       id="linearGradient3747"
       gradientUnits="userSpaceOnUse"
       x1="12"
       y1="8"
       x2="12"
       y2="20.041595"
       gradientTransform="translate(0,1)" />
    <linearGradient
       inkscape:collect="always"
       xlink:href="#StandardGradient-1"
       id="linearGradient3751"
       gradientUnits="userSpaceOnUse"
       x1="12"
       y1="8"
       x2="12"
       y2="20.041595" />
    <clipPath
       clipPathUnits="userSpaceOnUse"
       id="clipPath3758">
      <path
         style="fill:#ff00ff;fill-opacity:1;stroke:none;display:inline"
         d="m -30,0 0,22 22,0 0,-22 -22,0 z m 16.625,2 c 0.69219,-0.046173 1.290497,0.159052 1.53125,0.625 0.391745,0.758178 -0.134761,2.097239 -1.28125,3.3125 -1.061318,1.124979 -2.212266,1.675835 -2.84375,1.34375 C -16.307853,7.102924 -16.66202,6.531842 -16.75,6.0625 -16.920629,5.152217 -16.283895,3.517873 -15.5,2.875 -14.86022,2.350316 -14.06719,2.046173 -13.375,2 z m -5.65625,0.71875 c 0.587443,-5.29e-4 0.93136,0.387341 1.03125,1.1875 0.122053,0.977691 -0.466886,2.437543 -1.09375,2.65625 -0.378449,0.132036 -0.385988,0.145631 -0.6875,0 -0.40553,-0.195868 -0.71625,-0.99108 -0.71875,-1.875 -0.0037,-1.290792 0.505789,-1.967884 1.46875,-1.96875 z m -3.8125,1.3125 c 0.540549,-0.078161 1.052166,0.4914325 1.25,1.5625 0.129721,0.702307 0.01014,1.342367 -0.375,1.75 -0.355534,0.376298 -0.638649,0.351546 -1.03125,-0.0625 -0.524855,-0.553525 -0.71385,-0.975697 -0.71875,-1.75 -0.0042,-0.656543 3.86e-4,-0.843854 0.34375,-1.1875 0.170347,-0.170488 0.351067,-0.286447 0.53125,-0.3125 z m -2.6875,2.34375 c 0.560853,-0.091231 1.131096,0.4483425 1.34375,1.40625 0.298827,1.346081 -0.407075,2.049419 -1.28125,1.28125 -0.732419,-0.643602 -1.055096,-1.91327 -0.59375,-2.375 0.1758,-0.1759448 0.344299,-0.282089 0.53125,-0.3125 z M -17.5,8.0625 c 1.85718,0.031955 3.14852,0.7276993 3.28125,1.90625 0.128489,1.140889 -0.735884,2.17506 -3.25,3.875 -1.784687,1.20673 -2.5,1.868506 -2.5,2.3125 0,0.638209 0.793132,1.25 1.5625,1.25 0.485462,0 0.72281,-0.260882 0.9375,-1 0.284244,-0.978569 0.86548,-1.29965 2.25,-1.3125 0.969842,-0.009 1.26798,0.200172 1.3125,0.96875 0.02607,0.450123 -0.01637,0.68025 -0.28125,1.21875 -0.434197,0.882715 -1.448714,1.902761 -2.34375,2.34375 -0.610748,0.30092 -0.803284,0.34319 -1.75,0.375 -0.825837,0.02774 -1.179264,-0.0069 -1.625,-0.15625 -0.859598,-0.287937 -1.374662,-0.595047 -2.21875,-1.28125 -2.265604,-1.841822 -3.454419,-4.540537 -2.8125,-6.4375 0.265198,-0.783694 0.578111,-1.293285 1.125,-1.84375 0.94959,-0.9558013 2.43049,-1.653779 4.28125,-2.03125 0.718447,-0.146531 1.41219,-0.198152 2.03125,-0.1875 z"
         id="path3760" />
    </clipPath>
    <inkscape:perspective
       id="perspective2885"
       inkscape:persp3d-origin="0.5 : 0.33333333 : 1"
       inkscape:vp_z="1 : 0.5 : 1"
       inkscape:vp_y="0 : 1000 : 0"
       inkscape:vp_x="0 : 0.5 : 1"
       sodipodi:type="inkscape:persp3d" />
    <linearGradient
       inkscape:collect="always"
       xlink:href="#StandardGradient-1"
       id="linearGradient3748"
       x1="11.682116"
       y1="4.0050025"
       x2="11.682116"
       y2="22.007736"
       gradientUnits="userSpaceOnUse" />
    <linearGradient
       inkscape:collect="always"
       xlink:href="#StandardGradient-1"
       id="linearGradient3754"
       gradientUnits="userSpaceOnUse"
       x1="11.682116"
       y1="4.0050025"
       x2="11.682116"
       y2="22.007736"
       gradientTransform="translate(0,-1)" />
    <linearGradient
       inkscape:collect="always"
       xlink:href="#StandardGradient-1"
       id="linearGradient3756"
       gradientUnits="userSpaceOnUse"
       x1="11.682116"
       y1="4.0050025"
       x2="11.682116"
       y2="22.007736" />
    <linearGradient
       inkscape:collect="always"
       xlink:href="#StandardGradient-1"
       id="linearGradient3761"
       gradientUnits="userSpaceOnUse"
       x1="11.682116"
       y1="4.0050025"
       x2="11.682116"
       y2="22.007736"
       gradientTransform="translate(0,1)" />
    <linearGradient
       inkscape:collect="always"
       xlink:href="#StandardGradient-1"
       id="linearGradient3765"
       gradientUnits="userSpaceOnUse"
       gradientTransform="translate(0,-2)"
       x1="11.682116"
       y1="4.0050025"
       x2="11.682116"
       y2="22.007736" />
    <linearGradient
       inkscape:collect="always"
       xlink:href="#StandardGradient-1"
       id="linearGradient3772"
       gradientUnits="userSpaceOnUse"
       x1="11.682116"
       y1="4.0050025"
       x2="11.682116"
       y2="22.007736"
       gradientTransform="translate(-30,-2)" />
    <clipPath
       clipPathUnits="userSpaceOnUse"
       id="clipPath3777">
      <path
         style="fill:#ff00ff;fill-opacity:1;stroke:none;display:inline"
         d="m -30,0 0,22 22,0 0,-22 -22,0 z m 11,2 c 4.970563,0 9,4.0294373 9,9 0,4.970563 -4.029437,9 -9,9 -4.970563,0 -9,-4.029437 -9,-9 0,-4.9705627 4.029437,-9 9,-9 z m 3.40625,2.59375 c -0.662627,0 -1.21875,0.5561234 -1.21875,1.21875 0,0.6626266 0.556123,1.1875 1.21875,1.1875 0.662626,0 1.1875,-0.5248734 1.1875,-1.1875 0,-0.6626266 -0.524874,-1.21875 -1.1875,-1.21875 z M -18.8125,5.8125 c -0.789629,0 -1.516908,0.1847419 -2.1875,0.5 l 1.1875,2.09375 c 0.309436,-0.117838 0.649361,-0.21875 1,-0.21875 1.411968,0 2.589001,1.047078 2.78125,2.40625 l 2.40625,0 c -0.08653,-1.117324 -0.507643,-2.127889 -1.1875,-2.9375 -0.239332,0.101285 -0.505156,0.15625 -0.78125,0.15625 -1.052344,0 -1.88972,-0.8427942 -1.96875,-1.875 -0.39254,-0.095233 -0.82804,-0.125 -1.25,-0.125 z m -2.90625,0.875 c -0.908089,0.6136603 -1.58993,1.51742 -1.96875,2.5625 0.528411,0.402097 0.875,1.035249 0.875,1.75 0,0.721558 -0.369223,1.348577 -0.90625,1.75 0.373016,1.020043 1.088341,1.887647 1.96875,2.5 l 1.1875,-2.0625 c -0.63848,-0.513522 -1.03125,-1.304975 -1.03125,-2.1875 0,-0.90818 0.423125,-1.706856 1.09375,-2.21875 L -21.71875,6.6875 z M -25,9.59375 c -0.773064,0 -1.40625,0.633185 -1.40625,1.40625 0,0.773065 0.633186,1.40625 1.40625,1.40625 0.773064,0 1.40625,-0.633185 1.40625,-1.40625 0,-0.773065 -0.633186,-1.40625 -1.40625,-1.40625 z m 8.96875,1.8125 c -0.192249,1.359172 -1.369282,2.40625 -2.78125,2.40625 -0.367204,0 -0.709816,-0.09009 -1.03125,-0.21875 l -1.25,2.09375 c 0.688532,0.336532 1.463705,0.5 2.28125,0.5 0.42196,0 0.85746,-0.02977 1.25,-0.125 0.07903,-1.032206 0.916406,-1.875 1.96875,-1.875 0.276094,0 0.541918,0.05497 0.78125,0.15625 0.679857,-0.809612 1.10098,-1.820176 1.1875,-2.9375 l -2.40625,0 z M -15.59375,15 c -0.662627,0 -1.21875,0.524874 -1.21875,1.1875 0,0.662627 0.556123,1.21875 1.21875,1.21875 0.662626,0 1.1875,-0.556123 1.1875,-1.21875 0,-0.662626 -0.524874,-1.1875 -1.1875,-1.1875 z"
         id="path3779" />
    </clipPath>
    <inkscape:perspective
       id="perspective2996"
       inkscape:persp3d-origin="0.5 : 0.33333333 : 1"
       inkscape:vp_z="1 : 0.5 : 1"
       inkscape:vp_y="0 : 1000 : 0"
       inkscape:vp_x="0 : 0.5 : 1"
       sodipodi:type="inkscape:persp3d" />
    <radialGradient
       inkscape:collect="always"
       xlink:href="#radial-gradient"
       id="radialGradient3222"
       gradientUnits="userSpaceOnUse"
       cx="126.15849"
       cy="126.15498"
       fx="126.15849"
       fy="126.15498"
       r="154.62019"
       gradientTransform="matrix(0.07926537,0,0,0.07926756,1,1.0000022)" />
    <radialGradient
       gradientUnits="userSpaceOnUse"
       id="radial-gradient"
       fy="133.10451"
       fx="115.8989"
       r="154.62019"
       cy="133.10451"
       cx="115.8989">
      <stop
         id="translucent-stop-color"
         offset="0"
         style="stop-color:#003364;stop-opacity:0;" />
      <stop
         id="opaque-blue-stop-color"
         offset="1"
         style="stop-color:#0067c8;stop-opacity:1;" />
    </radialGradient>
    <radialGradient
       r="154.62019"
       fy="126.15498"
       fx="126.15849"
       cy="126.15498"
       cx="126.15849"
       gradientTransform="matrix(0.07134324,0,0,0.07134521,1.9994442,-28.000554)"
       gradientUnits="userSpaceOnUse"
       id="radialGradient3007"
       xlink:href="#radial-gradient"
       inkscape:collect="always" />
    <radialGradient
       inkscape:collect="always"
       xlink:href="#radial-gradient"
       id="radialGradient3038"
       gradientUnits="userSpaceOnUse"
       gradientTransform="matrix(0.07134324,0,0,0.07134521,1.9994442,1.999446)"
       cx="126.15849"
       cy="126.15498"
       fx="126.15849"
       fy="126.15498"
       r="154.62019" />
    <linearGradient
       inkscape:collect="always"
       xlink:href="#StandardGradient-1"
       id="linearGradient3818"
       x1="10.92316"
       y1="2.0768402"
       x2="10.699805"
       y2="19.985998"
       gradientUnits="userSpaceOnUse" />
    <linearGradient
       inkscape:collect="always"
       xlink:href="#StandardGradient-1"
       id="linearGradient3825"
       gradientUnits="userSpaceOnUse"
       x1="10.92316"
       y1="2.0768402"
       x2="10.699805"
       y2="19.985998"
       gradientTransform="translate(0,1)" />
    <linearGradient
       inkscape:collect="always"
       xlink:href="#StandardGradient-1"
       id="linearGradient3837"
       gradientUnits="userSpaceOnUse"
       x1="10.92316"
       y1="2.0768402"
       x2="10.699805"
       y2="19.985998" />
    <linearGradient
       inkscape:collect="always"
       xlink:href="#StandardGradient-1"
       id="linearGradient3842"
       gradientUnits="userSpaceOnUse"
       x1="10.92316"
       y1="2.0768402"
       x2="10.699805"
       y2="19.985998"
       gradientTransform="translate(0,1)" />
    <linearGradient
       inkscape:collect="always"
       xlink:href="#StandardGradient-1"
       id="linearGradient3846"
       gradientUnits="userSpaceOnUse"
       x1="10.92316"
       y1="2.0768402"
       x2="10.699805"
       y2="19.985998" />
    <linearGradient
       inkscape:collect="always"
       xlink:href="#StandardGradient-1"
       id="linearGradient3851"
       gradientUnits="userSpaceOnUse"
       x1="10.92316"
       y1="2.0768402"
       x2="10.699805"
       y2="19.985998"
       gradientTransform="translate(-30,0)" />
    <clipPath
       clipPathUnits="userSpaceOnUse"
       id="clipPath3856">
      <path
         style="fill:#ff00ff;fill-opacity:1;stroke:none;display:inline"
         d="m -30,0 0,22 22,0 0,-22 -22,0 z m 11,2 c 4.97084,0 9,4.028809 9,9 0,4.969693 -4.030944,8.9979 -9,9 l -6.9375,0 -0.25,0 C -27.184761,20 -28,19.184761 -28,18.1875 l 0,-0.25 0,-1.21875 L -28,11 c 0.0034,-4.968123 4.031443,-9 9,-9 z m 2.65625,2.125 c -2.333209,0 -4.25,1.885618 -4.25,4.21875 l 0,0.03125 0,2.21875 -1.75,0 -0.46875,0 c -2.333138,0 -4.21875,1.885761 -4.21875,4.21875 0,2.007481 1.404487,3.663585 3.28125,4.09375 0.03197,0.0073 0.06151,0.02465 0.09375,0.03125 0.0503,0.01225 0.10818,-0.01 0.15625,0 0.221105,0.04578 0.426535,0.09375 0.6875,0.09375 2.332853,0 4.21875,-1.885835 4.21875,-4.21875 l 0,-2.25 1.78125,0 0.46875,0 c 2.332853,0 4.21875,-1.885762 4.21875,-4.21875 0,-2.0169393 -1.422278,-3.6735962 -3.3125,-4.09375 -0.09429,-0.024682 -0.16407,-0.045276 -0.25,-0.0625 -0.212649,-0.042623 -0.40418,-0.0625 -0.65625,-0.0625 z m 0,2 c 1.231313,0 2.21875,0.987189 2.21875,2.21875 0,1.231419 -0.987437,2.25 -2.21875,2.25 l -0.03125,0 -0.4375,0 -1.46875,0 c -0.08697,0 -0.16184,-0.03682 -0.21875,-0.09375 -0.05691,-0.05693 -0.09375,-0.13171 -0.09375,-0.21875 l 0,-1.9375 c 2.6e-4,-0.1537579 0.03262,-0.2925375 0.0625,-0.4375 0.02988,-0.1449625 0.06849,-0.2730613 0.125,-0.40625 0.05651,-0.1331887 0.10733,-0.2878135 0.1875,-0.40625 0.400841,-0.5921826 1.106188,-0.96875 1.875,-0.96875 z m -6.46875,6.4375 0.4375,0 1.46875,0 c 0.173935,0 0.3125,0.138774 0.3125,0.3125 l 0,1.9375 c -0.0016,1.07568 -0.766229,1.979933 -1.78125,2.1875 -0.14501,0.02965 -0.283738,0.03125 -0.4375,0.03125 -0.224593,0 -0.317594,-0.01663 -0.4375,-0.03125 -1.017713,-0.207908 -1.8125,-1.11007 -1.8125,-2.1875 0,-1.231774 1.018687,-2.25 2.25,-2.25 z"
         id="path3858" />
    </clipPath>
    <inkscape:perspective
       id="perspective3040"
       inkscape:persp3d-origin="0.5 : 0.33333333 : 1"
       inkscape:vp_z="1 : 0.5 : 1"
       inkscape:vp_y="0 : 1000 : 0"
       inkscape:vp_x="0 : 0.5 : 1"
       sodipodi:type="inkscape:persp3d" />
    <linearGradient
       inkscape:collect="always"
       xlink:href="#linearGradient4209"
       id="linearGradient2873"
       gradientUnits="userSpaceOnUse"
       gradientTransform="matrix(0.25834462,0,0,0.25834462,-0.3758467,-32.375846)"
       x1="29.158056"
       y1="64.280525"
       x2="49.614868"
       y2="39.964417" />
    <linearGradient
       inkscape:collect="always"
       id="linearGradient4209">
      <stop
         style="stop-color:#000000;stop-opacity:1;"
         offset="0"
         id="stop4211" />
      <stop
         style="stop-color:#000000;stop-opacity:0;"
         offset="1"
         id="stop4213" />
    </linearGradient>
    <linearGradient
       inkscape:collect="always"
       xlink:href="#linearGradient3312"
       id="linearGradient2876"
       gradientUnits="userSpaceOnUse"
       gradientTransform="matrix(0.25834462,0,0,0.25834462,-0.3758467,-32.375846)"
       x1="32"
       y1="24"
       x2="48"
       y2="72" />
    <linearGradient
       id="linearGradient3312">
      <stop
         offset="0"
         style="stop-color:#b8f778;stop-opacity:1;"
         id="stop3314" />
      <stop
         offset="1"
         style="stop-color:#73b82e;stop-opacity:1;"
         id="stop3316" />
    </linearGradient>
    <linearGradient
       inkscape:collect="always"
       xlink:href="#linearGradient3312"
       id="linearGradient3102"
       gradientUnits="userSpaceOnUse"
       gradientTransform="matrix(0.25834462,0,0,0.25834462,-0.3758467,-2.375846)"
       x1="32"
       y1="24"
       x2="48"
       y2="72" />
    <linearGradient
       inkscape:collect="always"
       xlink:href="#StandardGradient-1"
       id="linearGradient3883"
       gradientUnits="userSpaceOnUse"
       gradientTransform="matrix(0.25834462,0,0,0.25834462,-0.3758467,-1.375846)"
       x1="32"
       y1="24"
       x2="48"
       y2="72" />
    <linearGradient
       inkscape:collect="always"
       xlink:href="#StandardGradient-1"
       id="linearGradient3885"
       gradientUnits="userSpaceOnUse"
       gradientTransform="matrix(0.25834462,0,0,0.25834462,-0.3758467,-2.375846)"
       x1="32"
       y1="24"
       x2="48"
       y2="72" />
    <linearGradient
       inkscape:collect="always"
       xlink:href="#StandardGradient-1"
       id="linearGradient3890"
       gradientUnits="userSpaceOnUse"
       gradientTransform="matrix(0.25834462,0,0,0.25834462,-0.3758467,-1.375846)"
       x1="32"
       y1="24"
       x2="48"
       y2="72" />
    <linearGradient
       inkscape:collect="always"
       xlink:href="#StandardGradient-1"
       id="linearGradient3894"
       gradientUnits="userSpaceOnUse"
       gradientTransform="matrix(0.25834462,0,0,0.25834462,-0.3758467,-2.375846)"
       x1="32"
       y1="24"
       x2="48"
       y2="72" />
    <linearGradient
       inkscape:collect="always"
       xlink:href="#StandardGradient-1"
       id="linearGradient3899"
       gradientUnits="userSpaceOnUse"
       gradientTransform="matrix(0.25834462,0,0,0.25834462,-30.375847,-1.375846)"
       x1="32"
       y1="24"
       x2="48"
       y2="72" />
    <clipPath
       clipPathUnits="userSpaceOnUse"
       id="clipPath3904">
      <path
         style="fill:#ff00ff;fill-opacity:1;stroke:none;display:inline"
         d="m -30,0 0,22 22,0 0,-22 -22,0 z m 4.03125,5.09375 1.03125,0 5.15625,0 2.0625,0 1.59375,0 c 2.278886,0 4.09375,1.783613 4.09375,4.0625 l 0,3.71875 0,4.09375 -4.09375,0 -3.71875,0 c -2.278886,0 -4.0625,-1.814863 -4.0625,-4.09375 l 0,-3 0,-1.6875 c 3.89e-4,-0.541182 -0.490068,-1.031637 -1.03125,-1.03125 l -1.03125,0 0,-2.0625 z m 3.96875,1.25 0,6.53125 0,0.25 c 0,1.073869 0.870103,1.9375 1.96875,1.9375 l 4.0625,0 c 1.098647,0 2,-0.863631 2,-1.9375 l 0,-0.25 0,-3.15625 c 0,-0.936726 -0.79166,-1.71875 -1.75,-1.71875 -0.486889,0 -0.934868,0.215558 -1.25,0.53125 C -17.283882,8.215558 -17.70061,8 -18.1875,8 c -0.958339,0 -1.75,0.782024 -1.75,1.71875 l 0,2.6875 1,0 0,-2.6875 c 0,-0.401454 0.339283,-0.75 0.75,-0.75 0.410716,0 0.71875,0.348546 0.71875,0.75 l 0,2.6875 1,0 0,-2.6875 c 0,-0.401454 0.339284,-0.75 0.75,-0.75 0.410717,0 0.75,0.348546 0.75,0.75 l 0,3.15625 0,0.25 c 0,0.536935 -0.450677,0.96875 -1,0.96875 l -4.0625,0 c -0.549323,0 -1,-0.431815 -1,-0.96875 l 0,-0.25 0,-6.53125 -0.96875,0 z"
         id="path3906" />
    </clipPath>
    <linearGradient
       inkscape:collect="always"
       xlink:href="#StandardGradient-1"
       id="linearGradient3000"
       gradientUnits="userSpaceOnUse"
       gradientTransform="matrix(0.25834462,0,0,0.25834462,-0.3758467,-0.375846)"
       x1="44.033611"
       y1="20.808817"
       x2="44.033611"
       y2="71.277855" />
    <clipPath
       clipPathUnits="userSpaceOnUse"
       id="clipPath3804">
      <path
         style="fill:#ff00ff;fill-opacity:1;stroke:none;display:inline"
         d="m -30,0 0,22 22,0 0,-22 -22,0 z m 3.03125,4.09375 1.03125,0 6.15625,0 2.0625,0 2.59375,0 c 2.278886,0 4.09375,1.783613 4.09375,4.0625 l 0,5.71875 0,4.09375 -5.09375,0 -4.71875,0 c -2.278886,0 -4.0625,-1.814863 -4.0625,-4.09375 l 0,-3 0,-1.6875 c 3.89e-4,-0.541182 -0.490068,-1.031637 -1.03125,-1.03125 l -1.03125,0 0,-4.0625 z M -23,6 l 0,7.875 0,0.25 c 0,1.073869 0.870103,1.9375 1.96875,1.9375 l 6.0625,0 C -13.870103,16.0625 -13,15.198869 -13,14.125 l 0,-0.25 0,-0.875 0,-2 0,-1 c 0,-1.10457 -0.895431,-2 -2,-2 -0.600847,0 -1.133385,0.268051 -1.5,0.6875 C -16.866615,8.268051 -17.399153,8 -18,8 c -1.104569,0 -2,0.89543 -2,2 l 0,3 1,0 0,-3 c 0,-0.552285 0.447715,-1 1,-1 0.552285,0 1,0.447715 1,1 l 0,1 0,2 1,0 0,-2 0,-1 c 0,-0.552285 0.447715,-1 1,-1 0.552285,0 1,0.447715 1,1 l 0,1 0,2 0,0.875 0,0.25 c 0,0.536935 -0.419427,0.96875 -0.96875,0.96875 l -6.0625,0 c -0.549323,0 -1,-0.431815 -1,-0.96875 l 0,-0.25 0,-7.875 L -23,6 z"
         id="path3806" />
    </clipPath>
    <inkscape:perspective
       id="perspective2992"
       inkscape:persp3d-origin="0.5 : 0.33333333 : 1"
       inkscape:vp_z="1 : 0.5 : 1"
       inkscape:vp_y="0 : 1000 : 0"
       inkscape:vp_x="0 : 0.5 : 1"
       sodipodi:type="inkscape:persp3d" />
    <linearGradient
       inkscape:collect="always"
       xlink:href="#linearGradient4760"
       id="linearGradient4028"
       gradientUnits="userSpaceOnUse"
       gradientTransform="matrix(0.01396833,0,0,-0.01389263,1.4222747,18.650636)"
       x1="480.53683"
       y1="974.90161"
       x2="1140.4358"
       y2="300.62057" />
    <linearGradient
       id="linearGradient4760">
      <stop
         id="stop4762"
         offset="0"
         style="stop-color:#fac45a;stop-opacity:1;" />
      <stop
         style="stop-color:#f7a909;stop-opacity:1;"
         offset="0.52493125"
         id="stop4768" />
      <stop
         id="stop4764"
         offset="1"
         style="stop-color:#d49109;stop-opacity:1" />
    </linearGradient>
    <linearGradient
       y2="300.62057"
       x2="1140.4358"
       y1="974.90161"
       x1="480.53683"
       gradientTransform="matrix(0.01396833,0,0,-0.01389263,1.4222747,18.650636)"
       gradientUnits="userSpaceOnUse"
       id="linearGradient3003"
       xlink:href="#linearGradient4760"
       inkscape:collect="always" />
    <linearGradient
       inkscape:collect="always"
       xlink:href="#linearGradient4760"
       id="linearGradient3865"
       gradientUnits="userSpaceOnUse"
       gradientTransform="matrix(0.01396833,0,0,-0.01389263,1.4222747,-1.349364)"
       x1="480.53683"
       y1="974.90161"
       x2="1140.4358"
       y2="300.62057" />
    <linearGradient
       inkscape:collect="always"
       xlink:href="#linearGradient4760"
       id="linearGradient3867"
       gradientUnits="userSpaceOnUse"
       gradientTransform="matrix(0.01396833,0,0,-0.01389263,1.4222747,18.650636)"
       x1="480.53683"
       y1="974.90161"
       x2="1140.4358"
       y2="300.62057" />
    <linearGradient
       inkscape:collect="always"
       xlink:href="#StandardGradient-1"
       id="linearGradient3870"
       gradientUnits="userSpaceOnUse"
       gradientTransform="matrix(0.01681827,0,0,-0.01672714,-0.89306121,21.472134)"
       x1="685.67432"
       y1="1054.5618"
       x2="685.67432"
       y2="190.7944" />
    <linearGradient
       inkscape:collect="always"
       xlink:href="#StandardGradient-1"
       id="linearGradient3876"
       gradientUnits="userSpaceOnUse"
       gradientTransform="matrix(0.01396833,0,0,-0.01389263,1.4222747,19.650636)"
       x1="685.67432"
       y1="1054.5618"
       x2="685.67432"
       y2="190.7944" />
    <linearGradient
       inkscape:collect="always"
       xlink:href="#StandardGradient-1"
       id="linearGradient3878"
       gradientUnits="userSpaceOnUse"
       gradientTransform="matrix(0.01396833,0,0,-0.01389263,1.4222747,20.650636)"
       x1="685.67432"
       y1="1054.5618"
       x2="685.67432"
       y2="190.7944" />
    <linearGradient
       inkscape:collect="always"
       xlink:href="#StandardGradient-1"
       id="linearGradient3884"
       gradientUnits="userSpaceOnUse"
       gradientTransform="matrix(0.01396833,0,0,-0.01389263,1.4222747,21.650636)"
       x1="685.67432"
       y1="1054.5618"
       x2="685.67432"
       y2="190.7944" />
    <linearGradient
       inkscape:collect="always"
       xlink:href="#StandardGradient-1"
       id="linearGradient3888"
       gradientUnits="userSpaceOnUse"
       gradientTransform="matrix(0.01396833,0,0,-0.01389263,1.4222747,18.650636)"
       x1="685.67432"
       y1="1054.5618"
       x2="685.67432"
       y2="190.7944" />
    <linearGradient
       inkscape:collect="always"
       xlink:href="#StandardGradient-1"
       id="linearGradient3893"
       gradientUnits="userSpaceOnUse"
       gradientTransform="matrix(0.01396833,0,0,-0.01389263,-28.577725,18.650636)"
       x1="685.67432"
       y1="1054.5618"
       x2="685.67432"
       y2="190.7944" />
    <clipPath
       clipPathUnits="userSpaceOnUse"
       id="clipPath3898">
      <path
         style="color:#000000;fill:#ff00ff;fill-opacity:1;fill-rule:nonzero;stroke:none;stroke-width:1;marker:none;visibility:visible;display:inline;overflow:visible;enable-background:accumulate"
         d="m -30,0 0,22 22,0 0,-22 -22,0 z m 14.15625,3.53125 c 0.07541,0.015768 0.1311,0.088915 0.15625,0.25 l 0.59375,3.84375 c 0.05037,0.3220315 0.338929,0.666533 0.65625,0.75 l 3.78125,1 c 0.31764,0.084175 0.355278,0.258321 0.0625,0.40625 l -3.5,1.75 c -0.293334,0.147346 -0.51802,0.549926 -0.5,0.875 l 0.21875,3.875 c 0.0183,0.326046 -0.143573,0.41966 -0.375,0.1875 L -17.46875,13.75 c -0.117426,0.125976 -0.237688,0.27579 -0.375,0.375 -1.845959,1.334081 -5.769052,3.769905 -7.875,1.5625 -1.143769,-1.198782 -1.393608,-3.233032 -1.25,-4.8125 0.14699,-1.61606 0.79202,-3.0678116 1.875,-4.28125 0.302119,-0.3385215 0.667664,-0.6002285 0.96875,-0.9375 -1.111904,1.2457797 -1.81224,2.791869 -1.875,4.46875 -0.05542,1.481303 0.125916,3.530135 1.28125,4.625 1.98382,1.880188 5.116511,0.274078 7.15625,-1.09375 C -17.801397,13.44951 -18.208776,13.388411 -18.5,13.5 l -3.625,1.40625 c -0.30513,0.117657 -0.430584,-0.02146 -0.28125,-0.3125 L -20.625,11.125 c 0.14977,-0.290981 0.08179,-0.746627 -0.125,-1 l -2.46875,-3 C -23.426306,6.872279 -23.324651,6.697639 -23,6.75 l 3.875,0.625 c 0.323881,0.052042 0.728322,-0.1330652 0.90625,-0.40625 l 2.09375,-3.25 c 0.08916,-0.13719 0.20584,-0.203268 0.28125,-0.1875 z"
         id="path3900" />
    </clipPath>
    <linearGradient
       inkscape:collect="always"
       xlink:href="#StandardGradient-1"
       id="linearGradient3911"
       gradientUnits="userSpaceOnUse"
       gradientTransform="matrix(0.01681827,0,0,-0.01672714,-0.89306121,22.472134)"
       x1="685.67432"
       y1="1054.5618"
       x2="685.67432"
       y2="190.7944" />
    <linearGradient
       inkscape:collect="always"
       xlink:href="#StandardGradient-1"
       id="linearGradient3913"
       gradientUnits="userSpaceOnUse"
       gradientTransform="matrix(0.01681827,0,0,-0.01672714,-0.89306121,21.472134)"
       x1="685.67432"
       y1="1054.5618"
       x2="685.67432"
       y2="190.7944" />
    <linearGradient
       inkscape:collect="always"
       xlink:href="#StandardGradient-1"
       id="linearGradient3918"
       gradientUnits="userSpaceOnUse"
       gradientTransform="matrix(0.01681827,0,0,-0.01672714,-0.89306121,22.472134)"
       x1="685.67432"
       y1="1054.5618"
       x2="685.67432"
       y2="190.7944" />
    <linearGradient
       inkscape:collect="always"
       xlink:href="#StandardGradient-1"
       id="linearGradient3922"
       gradientUnits="userSpaceOnUse"
       gradientTransform="matrix(0.01681827,0,0,-0.01672714,-0.89306121,21.472134)"
       x1="685.67432"
       y1="1054.5618"
       x2="685.67432"
       y2="190.7944" />
    <linearGradient
       inkscape:collect="always"
       xlink:href="#StandardGradient-1"
       id="linearGradient3927"
       gradientUnits="userSpaceOnUse"
       gradientTransform="matrix(0.01681827,0,0,-0.01672714,-30.893061,21.472134)"
       x1="685.67432"
       y1="1054.5618"
       x2="685.67432"
       y2="190.7944" />
    <clipPath
       clipPathUnits="userSpaceOnUse"
       id="clipPath3935">
      <path
         style="color:#000000;fill:#ff00ff;fill-opacity:1;fill-rule:nonzero;stroke:none;stroke-width:1;marker:none;visibility:visible;display:inline;overflow:visible;enable-background:accumulate"
         d="m -30,0 0,22 22,0 0,-22 -22,0 z m 14.4375,3.28125 c 0.0908,0.018985 0.15721,0.087299 0.1875,0.28125 l 0.71875,4.625 c 0.06065,0.3877353 0.399187,0.8057528 0.78125,0.90625 l 4.5625,1.21875 c 0.382445,0.10135 0.415013,0.290639 0.0625,0.46875 l -4.21875,2.125 c -0.353182,0.17741 -0.61544,0.671102 -0.59375,1.0625 l 0.28125,4.65625 c 0.02203,0.39257 -0.190105,0.498277 -0.46875,0.21875 l -3.28125,-3.28125 c -0.141384,0.151679 -0.272173,0.349297 -0.4375,0.46875 -2.222589,1.606271 -6.933128,4.532779 -9.46875,1.875 -1.377132,-1.443369 -1.704159,-3.879525 -1.53125,-5.78125 0.17698,-1.945782 0.97731,-3.6952351 2.28125,-5.15625 0.363759,-0.4075897 0.793734,-0.7501653 1.15625,-1.15625 -1.338765,1.4999549 -2.17444,3.3872369 -2.25,5.40625 -0.06673,1.783532 0.140194,4.24425 1.53125,5.5625 2.388577,2.2638 6.169095,0.334406 8.625,-1.3125 -0.28764,-0.248919 -0.774359,-0.321856 -1.125,-0.1875 l -4.375,1.6875 c -0.367383,0.141664 -0.523553,-0.02458 -0.34375,-0.375 l 2.15625,-4.1875 c 0.180327,-0.35035 0.09273,-0.88243 -0.15625,-1.1875 l -2.96875,-3.625 c -0.249903,-0.3042834 -0.140889,-0.500545 0.25,-0.4375 l 4.6875,0.75 c 0.389962,0.06266 0.879519,-0.1710776 1.09375,-0.5 l 2.5,-3.90625 c 0.107351,-0.1651804 0.25296,-0.237735 0.34375,-0.21875 z"
         id="path3937" />
    </clipPath>
    <filter
       inkscape:collect="always"
       id="filter3939">
      <feGaussianBlur
         inkscape:collect="always"
         stdDeviation="0.536022"
         id="feGaussianBlur3941" />
    </filter>
    <linearGradient
       inkscape:collect="always"
       xlink:href="#StandardGradient-1"
       id="linearGradient5757"
       gradientUnits="userSpaceOnUse"
       gradientTransform="matrix(0.01681827,0,0,-0.01672714,-0.89306121,21.472134)"
       x1="685.67432"
       y1="1054.5618"
       x2="685.67432"
       y2="190.7944" />
    <linearGradient
       inkscape:collect="always"
       xlink:href="#StandardGradient-1"
       id="linearGradient5761"
       gradientUnits="userSpaceOnUse"
       gradientTransform="matrix(0.01681827,0,0,-0.01672714,-0.89306121,21.472134)"
       x1="685.67432"
       y1="1054.5618"
       x2="685.67432"
       y2="190.7944" />
  </defs>
  <sodipodi:namedview
     id="base"
     pagecolor="#ffffff"
     bordercolor="#e7e7e7"
     borderopacity="1"
     inkscape:pageopacity="0.0"
     inkscape:pageshadow="2"
     inkscape:zoom="16.008897"
     inkscape:cx="-18.694776"
     inkscape:cy="10.83167"
     inkscape:document-units="px"
     inkscape:current-layer="layer1"
     showgrid="true"
     inkscape:showpageshadow="false"
     showguides="false"
     inkscape:guide-bbox="true"
     inkscape:window-width="1920"
     inkscape:window-height="1029"
     inkscape:window-x="0"
     inkscape:window-y="25"
     inkscape:window-maximized="1"
     inkscape:snap-global="true">
    <sodipodi:guide
       orientation="1,0"
       position="0,112"
       id="guide2383" />
    <sodipodi:guide
       orientation="0,1"
       position="26.278146,128"
       id="guide2385" />
    <sodipodi:guide
       orientation="1,0"
       position="128,54.082119"
       id="guide2387" />
    <sodipodi:guide
       orientation="0,1"
       position="78.156291,0"
       id="guide2389" />
    <sodipodi:guide
       orientation="0,1"
       position="60.863576,64.084768"
       id="guide2391" />
    <inkscape:grid
       type="xygrid"
       id="grid3672"
       visible="true"
       enabled="true"
       empspacing="8"
       snapvisiblegridlinesonly="true" />
  </sodipodi:namedview>
  <metadata
     id="metadata7">
    <rdf:RDF>
      <cc:Work
         rdf:about="">
        <dc:format>image/svg+xml</dc:format>
        <dc:type
           rdf:resource="http://purl.org/dc/dcmitype/StillImage" />
        <dc:title />
      </cc:Work>
    </rdf:RDF>
  </metadata>
  <g
     inkscape:groupmode="layer"
     id="layer2"
     inkscape:label="Dark background"
     sodipodi:insensitive="true"
     style="display:none">
    <rect
       y="0"
       x="0"
       height="22"
       width="22"
       id="rect4898"
       style="fill:#333333;fill-opacity:1;fill-rule:nonzero;stroke:none;display:inline" />
  </g>
  <g
     inkscape:groupmode="layer"
     id="layer3"
     inkscape:label="Pale darkground"
     sodipodi:insensitive="true"
     style="display:none">
    <rect
       style="fill:#efebe7;fill-opacity:1;fill-rule:nonzero;stroke:none"
       id="rect4126"
       width="22"
       height="22"
       x="0"
       y="0" />
  </g>
  <g
     inkscape:label="Button"
     inkscape:groupmode="layer"
     id="layer1"
     style="display:inline">
    <path
       style="fill:#ffffff;fill-opacity:1;stroke:none;display:inline;opacity:0.15"
       d="M 14.125 2.25 C 13.676738 2.3161497 13.446616 2.6349685 13.25 2.9375 L 10.75 6.8125 C 10.699859 6.8138133 10.556694 6.8902532 10.65625 6.90625 L 5.96875 6.15625 C 5.8005091 6.1291152 5.620383 6.1168769 5.40625 6.15625 A 1.0169625 1.0169625 0 0 0 3.71875 5.125 C 3.4330458 5.4450414 3.0028463 5.7878452 2.5625 6.28125 C 1.1276808 7.8889101 0.22829964 9.8648163 0.03125 12.03125 C -0.15921856 14.126108 0.096383219 16.795091 1.8125 18.59375 C 2.6192881 19.439406 3.6873719 19.876756 4.71875 19.96875 C 5.7501281 20.060744 6.775027 19.861403 7.75 19.53125 C 9.6146034 18.899843 11.285348 17.791474 12.4375 16.96875 L 15.03125 19.5625 C 15.169079 19.700766 15.319589 19.841273 15.5625 19.9375 C 15.805411 20.033727 16.190075 20.068827 16.53125 19.90625 C 16.872425 19.743673 17.073625 19.424892 17.15625 19.1875 C 17.238875 18.950108 17.229516 18.754342 17.21875 18.5625 L 16.9375 13.90625 C 16.94049 13.96021 16.972394 13.893936 17 13.84375 C 17.013803 13.818657 17.025791 13.787265 17.03125 13.78125 L 21.21875 11.6875 C 21.377209 11.607437 21.519242 11.527916 21.6875 11.34375 C 21.855758 11.159584 22.059766 10.788689 22 10.375 C 21.940234 9.9613108 21.663481 9.6944585 21.46875 9.5625 C 21.274019 9.4305415 21.105419 9.3882494 20.9375 9.34375 L 16.4375 8.125 C 16.446559 8.0869589 16.335205 7.9766231 16.34375 8.03125 L 15.625 3.40625 C 15.595184 3.2153055 15.546707 2.9863888 15.375 2.75 C 15.203293 2.5136112 14.892193 2.3305831 14.65625 2.28125 C 14.453234 2.2387975 14.274421 2.2279501 14.125 2.25 z M 14.4375 3.28125 C 14.5283 3.3002353 14.594715 3.3685488 14.625 3.5625 L 15.34375 8.1875 C 15.404398 8.5752353 15.742937 8.9932528 16.125 9.09375 L 20.6875 10.3125 C 21.069945 10.41385 21.102513 10.603139 20.75 10.78125 L 16.53125 12.90625 C 16.178068 13.08366 15.91581 13.577352 15.9375 13.96875 L 16.21875 18.625 C 16.240781 19.01757 16.028645 19.123277 15.75 18.84375 L 12.46875 15.5625 C 12.327366 15.714179 12.196577 15.911797 12.03125 16.03125 C 9.8086612 17.637521 5.0981223 20.564029 2.5625 17.90625 C 1.1853683 16.462881 0.85834149 14.026725 1.03125 12.125 C 1.2082301 10.179218 2.00856 8.4297649 3.3125 6.96875 C 3.6762594 6.5611603 4.1062341 6.2185847 4.46875 5.8125 C 3.1299853 7.3124549 2.2943151 9.1997369 2.21875 11.21875 C 2.1520194 13.002282 2.3589445 15.463 3.75 16.78125 C 6.1385774 19.04505 9.919095 17.115656 12.375 15.46875 C 12.08736 15.219831 11.600641 15.146894 11.25 15.28125 L 6.875 16.96875 C 6.5076149 17.110414 6.3514474 16.944168 6.53125 16.59375 L 8.6875 12.40625 C 8.8678274 12.0559 8.7802308 11.52382 8.53125 11.21875 L 5.5625 7.59375 C 5.312597 7.2894666 5.421611 7.0932053 5.8125 7.15625 L 10.5 7.90625 C 10.889962 7.9689102 11.379519 7.7351724 11.59375 7.40625 L 14.09375 3.5 C 14.201101 3.3348196 14.34671 3.262265 14.4375 3.28125 z M 4.46875 7.6875 C 4.543806 7.9276656 4.6617341 8.1044767 4.78125 8.25 L 7.75 11.875 C 7.7174801 11.835154 7.7208229 11.958587 7.75 11.96875 L 5.625 16.125 C 5.5642321 16.243431 5.5346329 16.410321 5.5 16.5625 C 5.1328628 16.441438 4.7545468 16.331735 4.4375 16.03125 C 3.4684867 15.112953 3.1875125 12.920125 3.25 11.25 C 3.2983349 9.9585471 3.7851926 8.7846032 4.46875 7.6875 z "
       id="path5759" />
    <rect
       style="fill:#000000;fill-opacity:1;stroke:none;display:inline"
       id="rect2824-6"
       width="5"
       height="5"
       x="24"
       y="1" />
    <text
       xml:space="preserve"
       style="font-size:2px;font-style:normal;font-variant:normal;font-weight:normal;font-stretch:normal;text-align:start;line-height:125%;writing-mode:lr-tb;text-anchor:start;fill:#000000;fill-opacity:1;stroke:none;display:inline;font-family:Liberation Sans;-inkscape-font-specification:Liberation Sans"
       x="30"
       y="4"
       id="text3598-5"
       sodipodi:linespacing="125%"><tspan
         sodipodi:role="line"
         id="tspan3600-1"
         x="30"
         y="4">Opacity : 50%</tspan></text>
    <rect
       y="9"
       x="24"
       height="5"
       width="5"
       id="rect3602-3"
       style="fill:#ffffff;fill-opacity:1;stroke:#000000;stroke-width:0.1;stroke-miterlimit:4;stroke-dasharray:none;display:inline" />
    <text
       sodipodi:linespacing="125%"
       id="text3604-4"
       y="12"
       x="30"
       style="font-size:2px;font-style:normal;font-variant:normal;font-weight:normal;font-stretch:normal;text-align:start;line-height:125%;writing-mode:lr-tb;text-anchor:start;fill:#000000;fill-opacity:1;stroke:none;display:inline;font-family:Liberation Sans;-inkscape-font-specification:Liberation Sans"
       xml:space="preserve"><tspan
         y="12"
         x="30"
         id="tspan3606-5"
         sodipodi:role="line">Opacity : 30%</tspan></text>
    <rect
       style="fill:#ffffff;fill-opacity:1;stroke:#000000;stroke-width:0.1;stroke-miterlimit:4;stroke-dasharray:none;display:inline"
       id="rect3608-6"
       width="5"
       height="5"
       x="24"
       y="17" />
    <text
       xml:space="preserve"
       style="font-size:2px;font-style:normal;font-variant:normal;font-weight:normal;font-stretch:normal;text-align:start;line-height:125%;writing-mode:lr-tb;text-anchor:start;fill:#000000;fill-opacity:1;stroke:none;display:inline;font-family:Liberation Sans;-inkscape-font-specification:Liberation Sans"
       x="30"
       y="19"
       id="text3610-7"
       sodipodi:linespacing="125%"><tspan
         sodipodi:role="line"
         x="30"
         y="19"
         id="tspan3648-4">Glow : 6</tspan><tspan
         sodipodi:role="line"
         x="30"
         y="21.5"
         id="tspan3641-3">Opacity : 30%</tspan></text>
    <rect
       y="54"
       x="1"
       height="5"
       width="5"
       id="rect3825-6"
       style="fill:url(#linearGradient3833-8);fill-opacity:1;stroke:none;display:inline"
       transform="matrix(0,1,1,0,0,0)" />
    <rect
       transform="matrix(0,1,1,0,0,0)"
       style="fill:url(#linearGradient3829-0);fill-opacity:1;stroke:none;display:inline"
       id="rect3808-2"
       width="5"
       height="5"
       x="9"
       y="54" />
    <rect
       style="color:#000000;fill:#ff00ff;fill-opacity:1;fill-rule:nonzero;stroke:none;stroke-width:1;marker:none;visibility:visible;display:inline;overflow:visible;enable-background:accumulate"
       id="rect3812"
       width="22"
       height="22"
       x="-30"
       y="0" />
    <path
       style="fill:url(#linearGradient3870);fill-opacity:1;stroke:none;display:inline"
       d="m 14.439014,3.2679549 c -0.09079,-0.018985 -0.231283,0.060575 -0.338634,0.2257554 l -2.520935,3.913094 c -0.214231,0.3289224 -0.701189,0.551797 -1.091151,0.4891368 L 5.8226814,7.143423 C 5.4317924,7.0803783 5.3093972,7.2906504 5.5593002,7.5949338 L 8.5317465,11.20702 c 0.2489808,0.30507 0.330831,0.85368 0.1505036,1.20403 l -2.1446765,4.176474 c -0.1798026,0.350418 -0.028752,0.517923 0.3386331,0.376259 l 4.3646063,-1.693165 c 0.350641,-0.134356 0.841136,-0.06079 1.128776,0.188129 C 9.913684,17.105653 6.141834,19.039455 3.7532566,16.775655 2.3622011,15.457405 2.143864,12.990552 2.2105946,11.20702 2.2861597,9.1880069 3.1293841,7.3264712 4.4681488,5.8265163 4.1056329,6.232601 3.6655053,6.5477038 3.3017459,6.9552935 1.9978059,8.4163084 1.2211717,10.16426 1.0441916,12.110042 c -0.17290851,1.901725 0.1279045,4.351021 1.5050362,5.79439 2.5356223,2.657779 7.2591394,-0.275024 9.4817282,-1.881295 0.165327,-0.119453 0.310127,-0.299833 0.451511,-0.451512 l 3.273453,3.273454 c 0.278645,0.279527 0.473542,0.166814 0.451511,-0.225756 L 15.94405,13.953712 c -0.02169,-0.391398 0.248832,-0.876116 0.602014,-1.053526 l 4.214102,-2.10705 c 0.352513,-0.178111 0.307195,-0.387787 -0.07525,-0.489137 L 16.132179,9.09997 C 15.750116,8.9994728 15.402683,8.5846836 15.342035,8.1969483 L 14.627143,3.5689622 C 14.596858,3.375011 14.529814,3.2869402 14.439014,3.2679549 z"
       id="path3066" />
    <path
       d="m 14.306141,-16.203364 c -0.0503,-0.32217 -0.237615,-0.361347 -0.415935,-0.08697 l -2.118058,3.264643 c -0.177928,0.273185 -0.588417,0.455581 -0.912298,0.403539 l -3.8568519,-0.617791 c -0.3246509,-0.05236 -0.4198037,0.112502 -0.2122482,0.365223 l 2.4668889,3.012812 c 0.2067897,0.253373 0.2544214,0.697021 0.1046514,0.988002 l -1.7829861,3.457152 c -0.1493341,0.291037 -0.021392,0.43159 0.283737,0.313933 l 3.6437659,-1.402934 c 0.305932,-0.117225 0.745336,-0.02486 0.977124,0.205778 l 2.754443,2.755409 c 0.231427,0.23216 0.405891,0.155319 0.387593,-0.170727 l -0.215391,-3.880322 c -0.01802,-0.325074 0.205615,-0.712539 0.498949,-0.859885 l 3.486494,-1.754167 c 0.292778,-0.147929 0.272521,-0.336507 -0.04512,-0.420682 l -3.776055,-0.994671 c -0.317321,-0.08347 -0.617806,-0.416515 -0.668177,-0.738546 l -0.600527,-3.839798 z"
       style="fill:url(#linearGradient3865);fill-opacity:1;stroke:none;display:inline"
       id="path3861" />
    <path
       d="m 4.8937828,-13.407847 c -1.0829805,1.213438 -1.7104637,2.665162 -1.8574536,4.281222 -0.1436083,1.579468 0.1114098,3.622934 1.2551793,4.821716 2.105948,2.207405 6.0191455,-0.247734 7.8651045,-1.581815 0.366165,-0.264558 0.619887,-0.681878 0.983776,-0.944797 -1.947701,1.407602 -5.635186,3.695274 -7.8651483,1.581802 -1.155334,-1.094865 -1.3239287,-3.132246 -1.2685059,-4.613549 0.06276,-1.676881 0.7589307,-3.243595 1.8708348,-4.489375 -0.3010858,0.337272 -0.6816682,0.606274 -0.9837868,0.944796"
       style="fill:#ff0000;fill-opacity:1;fill-rule:nonzero;stroke:none;display:inline"
       id="path3863" />
    <path
       style="fill:#000000;fill-opacity:1;stroke:none;display:inline;opacity:0.5"
       d="M 14.4375 3.28125 C 14.34671 3.262265 14.201101 3.3348196 14.09375 3.5 L 11.59375 7.40625 C 11.379519 7.7351724 10.889962 7.9689102 10.5 7.90625 L 5.8125 7.15625 C 5.421611 7.0932053 5.312597 7.2894666 5.5625 7.59375 L 6.0625 8.1875 L 10.5 8.90625 C 10.889962 8.9689102 11.379519 8.7351724 11.59375 8.40625 L 14.09375 4.5 C 14.201101 4.3348196 14.34671 4.262265 14.4375 4.28125 C 14.5283 4.3002353 14.594715 4.3685488 14.625 4.5625 L 15.34375 9.1875 C 15.404398 9.5752353 15.742937 9.9932528 16.125 10.09375 L 20.03125 11.125 L 20.75 10.78125 C 21.102513 10.603139 21.069945 10.41385 20.6875 10.3125 L 16.125 9.09375 C 15.742937 8.9932528 15.404398 8.5752353 15.34375 8.1875 L 14.625 3.5625 C 14.594715 3.3685488 14.5283 3.3002353 14.4375 3.28125 z M 4.46875 5.8125 C 4.1062341 6.2185847 3.6762594 6.5611603 3.3125 6.96875 C 2.00856 8.4297649 1.2082301 10.179218 1.03125 12.125 C 0.98802287 12.600431 0.97459636 13.105396 1 13.625 C 1.0074749 13.452226 1.0162021 13.290504 1.03125 13.125 C 1.1789279 11.501377 1.7780557 10.015113 2.71875 8.71875 C 3.1092522 7.6597498 3.7013298 6.6723193 4.46875 5.8125 z M 8.65625 12.4375 L 6.53125 16.59375 C 6.3577405 16.931903 6.5039721 17.084721 6.84375 16.96875 L 6.875 16.96875 L 8.6875 13.40625 C 8.8293305 13.130694 8.7925454 12.743391 8.65625 12.4375 z M 2.21875 12.65625 C 2.2019238 14.390352 2.4647857 16.563302 3.75 17.78125 C 4.5543075 18.543541 5.5163096 18.830898 6.53125 18.8125 C 8.4659316 18.373782 10.439806 17.143632 11.75 16.21875 C 11.576764 16.20324 11.399022 16.224149 11.25 16.28125 L 10.59375 16.53125 C 9.633999 17.047136 8.615203 17.484914 7.59375 17.6875 C 7.5506169 17.696055 7.5118115 17.711056 7.46875 17.71875 L 6.875 17.96875 C 6.5994612 18.074998 6.4525999 18.000803 6.46875 17.8125 C 5.4768854 17.818176 4.5377712 17.527869 3.75 16.78125 C 2.7067084 15.792562 2.3172111 14.164273 2.21875 12.65625 z M 15.96875 14.65625 C 15.94092 14.759505 15.932078 14.8709 15.9375 14.96875 L 16.1875 18.875 C 16.207027 18.813596 16.224258 18.723143 16.21875 18.625 L 15.96875 14.65625 z "
       id="path3907" />
    <path
       style="fill:#ffffff;fill-opacity:1;stroke:none;display:inline;opacity:0.3"
       d="M 4.46875 6.8125 C 4.1062341 7.2185847 3.6762594 7.5611603 3.3125 7.96875 C 3.0966093 8.2106472 2.9054025 8.4615257 2.71875 8.71875 C 2.428021 9.5071758 2.2509989 10.357096 2.21875 11.21875 C 2.2071447 11.528929 2.208442 11.876872 2.21875 12.21875 C 2.2943151 10.199737 3.1299853 8.3124549 4.46875 6.8125 z M 5.59375 8.15625 C 5.4061343 8.2030553 5.3750728 8.3655375 5.5625 8.59375 L 8.53125 12.21875 C 8.5844032 12.283877 8.6192555 12.354472 8.65625 12.4375 L 8.6875 12.40625 C 8.8678274 12.0559 8.7802308 11.52382 8.53125 11.21875 L 6.0625 8.1875 L 5.8125 8.15625 C 5.7147778 8.1404888 5.6562886 8.1406482 5.59375 8.15625 z M 20.03125 11.125 L 16.53125 12.90625 C 16.178068 13.08366 15.91581 13.577352 15.9375 13.96875 L 15.96875 14.625 C 16.057299 14.324487 16.273975 14.035484 16.53125 13.90625 L 20.75 11.78125 C 21.102513 11.603139 21.069945 11.41385 20.6875 11.3125 L 20.03125 11.125 z M 1 13.6875 C 0.93287989 15.486362 1.3201583 17.604154 2.5625 18.90625 C 5.0981223 21.564029 9.8086612 18.637521 12.03125 17.03125 C 12.196577 16.911797 12.327366 16.714179 12.46875 16.5625 L 15.75 19.84375 C 16.028645 20.123277 16.240781 20.01757 16.21875 19.625 L 16.1875 18.875 C 16.128918 19.059213 15.958984 19.053395 15.75 18.84375 L 12.46875 15.5625 C 12.327366 15.714179 12.196577 15.911797 12.03125 16.03125 C 11.949208 16.090542 11.838621 16.156191 11.75 16.21875 C 11.984379 16.239735 12.209607 16.325622 12.375 16.46875 C 10.746074 17.561092 8.5304101 18.776261 6.53125 18.8125 C 5.0516333 19.148025 3.6207736 19.015507 2.5625 17.90625 C 1.5432271 16.837952 1.0843638 15.228035 1 13.6875 z M 11.53125 15.21875 C 11.431463 15.226858 11.33766 15.247661 11.25 15.28125 L 6.875 16.96875 L 6.84375 16.96875 L 6.53125 17.59375 C 6.4862993 17.681355 6.4741334 17.749732 6.46875 17.8125 C 6.7926242 17.810647 7.1368107 17.778061 7.46875 17.71875 C 7.5118115 17.711056 7.5506169 17.696055 7.59375 17.6875 L 10.59375 16.53125 C 11.22524 16.191811 11.840384 15.827258 12.375 15.46875 C 12.15927 15.282061 11.830612 15.194427 11.53125 15.21875 z "
       id="path3916" />
  </g>
</svg>
