<?xml version="1.0" encoding="UTF-8" standalone="no"?>
<!-- Created with Inkscape (http://www.inkscape.org/) -->

<svg
   xmlns:dc="http://purl.org/dc/elements/1.1/"
   xmlns:cc="http://creativecommons.org/ns#"
   xmlns:rdf="http://www.w3.org/1999/02/22-rdf-syntax-ns#"
   xmlns:svg="http://www.w3.org/2000/svg"
   xmlns="http://www.w3.org/2000/svg"
   xmlns:xlink="http://www.w3.org/1999/xlink"
   xmlns:sodipodi="http://sodipodi.sourceforge.net/DTD/sodipodi-0.dtd"
   xmlns:inkscape="http://www.inkscape.org/namespaces/inkscape"
   width="22"
   height="22"
   id="svg2"
   sodipodi:version="0.32"
   inkscape:version="0.48.1 r9760"
   version="1.0"
   sodipodi:docname="start-here-gentoo.svg"
   inkscape:output_extension="org.inkscape.output.svg.inkscape"
   style="display:inline">
  <defs
     id="defs4">
    <linearGradient
       id="linearGradient3722">
      <stop
         id="stop3724"
         offset="0"
         style="stop-color:#aaaaaa;stop-opacity:1;" />
      <stop
         id="stop3726"
         offset="1"
         style="stop-color:#f0f0f0;stop-opacity:1;" />
    </linearGradient>
    <linearGradient
       id="linearGradient3295">
      <stop
         style="stop-color:#559829;stop-opacity:1;"
         offset="0"
         id="stop3297" />
      <stop
         style="stop-color:#86c837;stop-opacity:1;"
         offset="1"
         id="stop3299" />
    </linearGradient>
    <linearGradient
       id="linearGradient3287">
      <stop
         style="stop-color:#cd0000;stop-opacity:1;"
         offset="0"
         id="stop3289" />
      <stop
         style="stop-color:#e55300;stop-opacity:1;"
         offset="1"
         id="stop3291" />
    </linearGradient>
    <linearGradient
       id="linearGradient3279">
      <stop
         style="stop-color:#f08e00;stop-opacity:1;"
         offset="0"
         id="stop3281" />
      <stop
         style="stop-color:#ffd200;stop-opacity:1;"
         offset="1"
         id="stop3283" />
    </linearGradient>
    <linearGradient
       id="linearGradient3271">
      <stop
         style="stop-color:#395d93;stop-opacity:1;"
         offset="0"
         id="stop3273" />
      <stop
         style="stop-color:#6e92c7;stop-opacity:1;"
         offset="1"
         id="stop3275" />
    </linearGradient>
    <linearGradient
       inkscape:collect="always"
       id="linearGradient3327">
      <stop
         style="stop-color:#000000;stop-opacity:1;"
         offset="0"
         id="stop3330" />
      <stop
         style="stop-color:#000000;stop-opacity:0;"
         offset="1"
         id="stop3333" />
    </linearGradient>
    <linearGradient
       inkscape:collect="always"
       xlink:href="#linearGradient3327"
       id="linearGradient3335"
       x1="11.375"
       y1="22"
       x2="11.375"
       y2="-9.817296"
       gradientUnits="userSpaceOnUse" />
    <inkscape:perspective
       sodipodi:type="inkscape:persp3d"
       inkscape:vp_x="0 : 11 : 1"
       inkscape:vp_y="0 : 1000 : 0"
       inkscape:vp_z="22 : 11 : 1"
       inkscape:persp3d-origin="11 : 7.3333333 : 1"
       id="perspective102" />
    <linearGradient
       id="linearGradient4081">
      <stop
         style="stop-color:#aaaaaa;stop-opacity:1;"
         offset="0"
         id="stop4083" />
      <stop
         style="stop-color:#f0f0f0;stop-opacity:1;"
         offset="1"
         id="stop4085" />
    </linearGradient>
    <linearGradient
       id="linearGradient4057">
      <stop
         style="stop-color:#816647;stop-opacity:1;"
         offset="0"
         id="stop4059" />
      <stop
         style="stop-color:#a6845d;stop-opacity:1;"
         offset="1"
         id="stop4061" />
    </linearGradient>
    <linearGradient
       id="linearGradient3929">
      <stop
         style="stop-color:#000000;stop-opacity:1;"
         offset="0"
         id="stop3931" />
      <stop
         style="stop-color:#000000;stop-opacity:0;"
         offset="1"
         id="stop3933" />
    </linearGradient>
    <linearGradient
       inkscape:collect="always"
       xlink:href="#linearGradient3929"
       id="linearGradient4051"
       x1="9.494998"
       y1="15.516565"
       x2="9.494998"
       y2="-4.1786065"
       gradientUnits="userSpaceOnUse" />
    <linearGradient
       inkscape:collect="always"
       xlink:href="#linearGradient4057"
       id="linearGradient4063"
       x1="9.17138"
       y1="21.000002"
       x2="9.17138"
       y2="0.97239029"
       gradientUnits="userSpaceOnUse" />
    <linearGradient
       inkscape:collect="always"
       xlink:href="#linearGradient4081"
       id="linearGradient4089"
       x1="6.101758"
       y1="154.58195"
       x2="6.101758"
       y2="36.995476"
       gradientUnits="userSpaceOnUse" />
    <linearGradient
       inkscape:collect="always"
       xlink:href="#linearGradient4081"
       id="linearGradient4103"
       gradientUnits="userSpaceOnUse"
       x1="6.101758"
       y1="154.58195"
       x2="6.101758"
       y2="36.995476" />
    <linearGradient
       inkscape:collect="always"
       xlink:href="#linearGradient4081"
       id="linearGradient4105"
       gradientUnits="userSpaceOnUse"
       x1="6.101758"
       y1="154.58195"
       x2="6.101758"
       y2="36.995476" />
    <linearGradient
       inkscape:collect="always"
       xlink:href="#linearGradient4081"
       id="linearGradient4107"
       gradientUnits="userSpaceOnUse"
       x1="6.101758"
       y1="154.58195"
       x2="6.101758"
       y2="36.995476" />
    <linearGradient
       inkscape:collect="always"
       xlink:href="#linearGradient4081"
       id="linearGradient4109"
       gradientUnits="userSpaceOnUse"
       x1="6.101758"
       y1="154.58195"
       x2="6.101758"
       y2="36.995476" />
    <linearGradient
       inkscape:collect="always"
       xlink:href="#linearGradient4081"
       id="linearGradient4111"
       gradientUnits="userSpaceOnUse"
       x1="6.101758"
       y1="154.58195"
       x2="6.101758"
       y2="36.995476" />
    <linearGradient
       inkscape:collect="always"
       xlink:href="#linearGradient4081"
       id="linearGradient4113"
       gradientUnits="userSpaceOnUse"
       x1="6.101758"
       y1="154.58195"
       x2="6.101758"
       y2="36.995476" />
    <linearGradient
       inkscape:collect="always"
       xlink:href="#linearGradient4081"
       id="linearGradient4115"
       gradientUnits="userSpaceOnUse"
       x1="6.101758"
       y1="154.58195"
       x2="6.101758"
       y2="36.995476" />
    <linearGradient
       inkscape:collect="always"
       xlink:href="#linearGradient4081"
       id="linearGradient4117"
       gradientUnits="userSpaceOnUse"
       x1="6.101758"
       y1="154.58195"
       x2="6.101758"
       y2="36.995476" />
    <linearGradient
       inkscape:collect="always"
       xlink:href="#linearGradient4081"
       id="linearGradient4119"
       gradientUnits="userSpaceOnUse"
       x1="6.101758"
       y1="154.58195"
       x2="6.101758"
       y2="36.995476" />
    <linearGradient
       inkscape:collect="always"
       xlink:href="#linearGradient4081"
       id="linearGradient4121"
       gradientUnits="userSpaceOnUse"
       x1="6.101758"
       y1="154.58195"
       x2="6.101758"
       y2="36.995476" />
    <linearGradient
       inkscape:collect="always"
       xlink:href="#linearGradient4081"
       id="linearGradient4123"
       gradientUnits="userSpaceOnUse"
       x1="6.101758"
       y1="154.58195"
       x2="6.101758"
       y2="36.995476" />
    <linearGradient
       inkscape:collect="always"
       xlink:href="#linearGradient4081"
       id="linearGradient4125"
       gradientUnits="userSpaceOnUse"
       x1="6.101758"
       y1="154.58195"
       x2="6.101758"
       y2="36.995476" />
    <linearGradient
       inkscape:collect="always"
       xlink:href="#linearGradient4081"
       id="linearGradient4127"
       gradientUnits="userSpaceOnUse"
       x1="6.101758"
       y1="154.58195"
       x2="6.101758"
       y2="36.995476" />
    <linearGradient
       inkscape:collect="always"
       xlink:href="#linearGradient4081"
       id="linearGradient4129"
       gradientUnits="userSpaceOnUse"
       x1="6.101758"
       y1="154.58195"
       x2="6.101758"
       y2="36.995476" />
    <linearGradient
       inkscape:collect="always"
       xlink:href="#linearGradient4081"
       id="linearGradient4132"
       gradientUnits="userSpaceOnUse"
       x1="6.101758"
       y1="154.58195"
       x2="6.101758"
       y2="36.995476"
       gradientTransform="matrix(0.1317916,0,0,0.1317916,11.619896,-1.9882468)" />
    <linearGradient
       inkscape:collect="always"
       xlink:href="#linearGradient4081"
       id="linearGradient4141"
       gradientUnits="userSpaceOnUse"
       x1="6.101758"
       y1="154.58195"
       x2="6.101758"
       y2="36.995476"
       gradientTransform="matrix(0.1317916,0,0,0.1317916,11.619896,-1.9882468)" />
    <linearGradient
       inkscape:collect="always"
       xlink:href="#linearGradient4081"
       id="linearGradient4148"
       gradientUnits="userSpaceOnUse"
       x1="6.101758"
       y1="154.58195"
       x2="6.101758"
       y2="36.995476"
       gradientTransform="matrix(0.1317916,0,0,0.1317916,11.619896,-1.9882468)" />
    <linearGradient
       inkscape:collect="always"
       xlink:href="#linearGradient4081"
       id="linearGradient4158"
       gradientUnits="userSpaceOnUse"
       x1="6.101758"
       y1="154.58195"
       x2="6.101758"
       y2="36.995476"
       gradientTransform="matrix(0.1317916,0,0,0.1317916,11.619896,-1.9882468)" />
    <linearGradient
       inkscape:collect="always"
       xlink:href="#linearGradient4081"
       id="linearGradient4180"
       gradientUnits="userSpaceOnUse"
       x1="6.101758"
       y1="154.58195"
       x2="6.101758"
       y2="36.995476" />
    <linearGradient
       inkscape:collect="always"
       xlink:href="#linearGradient4081"
       id="linearGradient4182"
       gradientUnits="userSpaceOnUse"
       gradientTransform="matrix(0.1317916,0,0,0.1317916,11.619896,-1.9882468)"
       x1="6.101758"
       y1="154.58195"
       x2="6.101758"
       y2="36.995476" />
    <linearGradient
       inkscape:collect="always"
       xlink:href="#linearGradient4081"
       id="linearGradient4184"
       gradientUnits="userSpaceOnUse"
       x1="6.101758"
       y1="154.58195"
       x2="6.101758"
       y2="36.995476" />
    <linearGradient
       inkscape:collect="always"
       xlink:href="#linearGradient4081"
       id="linearGradient4186"
       gradientUnits="userSpaceOnUse"
       gradientTransform="matrix(0.1317916,0,0,0.1317916,11.619896,-1.9882468)"
       x1="6.101758"
       y1="154.58195"
       x2="6.101758"
       y2="36.995476" />
    <linearGradient
       inkscape:collect="always"
       xlink:href="#linearGradient4081"
       id="linearGradient2480"
       gradientUnits="userSpaceOnUse"
       gradientTransform="matrix(0.1256322,0,0,0.1256322,11.921746,-1.0005124)"
       x1="6.101758"
       y1="154.58195"
       x2="6.101758"
       y2="36.995476" />
    <linearGradient
       inkscape:collect="always"
       xlink:href="#linearGradient4081"
       id="linearGradient2483"
       gradientUnits="userSpaceOnUse"
       gradientTransform="matrix(0.1256322,0,0,0.1256322,11.921746,-1.0005124)"
       x1="6.101758"
       y1="154.58195"
       x2="6.101758"
       y2="36.995476" />
    <linearGradient
       inkscape:collect="always"
       xlink:href="#linearGradient4081"
       id="linearGradient2489"
       gradientUnits="userSpaceOnUse"
       gradientTransform="matrix(0.1256322,0,0,0.1256322,11.921746,-1.0005124)"
       x1="6.101758"
       y1="154.58195"
       x2="6.101758"
       y2="36.995476" />
    <linearGradient
       inkscape:collect="always"
       xlink:href="#linearGradient4081"
       id="linearGradient2495"
       gradientUnits="userSpaceOnUse"
       gradientTransform="matrix(0.1256322,0,0,0.1256322,11.921746,-1.0005124)"
       x1="6.101758"
       y1="154.58195"
       x2="6.101758"
       y2="36.995476" />
    <linearGradient
       inkscape:collect="always"
       xlink:href="#linearGradient4081"
       id="linearGradient2498"
       gradientUnits="userSpaceOnUse"
       gradientTransform="matrix(0.1256322,0,0,0.1256322,11.921746,-1.0005124)"
       x1="6.101758"
       y1="154.58195"
       x2="6.101758"
       y2="36.995476" />
    <linearGradient
       inkscape:collect="always"
       xlink:href="#linearGradient4081"
       id="linearGradient2501"
       gradientUnits="userSpaceOnUse"
       gradientTransform="matrix(0.1256322,0,0,0.1256322,11.921746,-1.0005124)"
       x1="6.101758"
       y1="154.58195"
       x2="6.101758"
       y2="36.995476" />
    <linearGradient
       inkscape:collect="always"
       xlink:href="#linearGradient4081"
       id="linearGradient2504"
       gradientUnits="userSpaceOnUse"
       gradientTransform="matrix(0.1256322,0,0,0.1256322,11.921746,-1.0005124)"
       x1="6.101758"
       y1="154.58195"
       x2="6.101758"
       y2="36.995476" />
    <linearGradient
       inkscape:collect="always"
       xlink:href="#linearGradient4081"
       id="linearGradient2506"
       gradientUnits="userSpaceOnUse"
       x1="6.101758"
       y1="154.58195"
       x2="6.101758"
       y2="36.995476" />
    <linearGradient
       inkscape:collect="always"
       xlink:href="#linearGradient4081"
       id="linearGradient2508"
       gradientUnits="userSpaceOnUse"
       gradientTransform="matrix(0.1317916,0,0,0.1317916,11.619896,-1.9882468)"
       x1="6.101758"
       y1="154.58195"
       x2="6.101758"
       y2="36.995476" />
    <linearGradient
       inkscape:collect="always"
       xlink:href="#linearGradient4081"
       id="linearGradient2510"
       gradientUnits="userSpaceOnUse"
       gradientTransform="matrix(0.1317916,0,0,0.1317916,11.619896,-1.9882468)"
       x1="6.101758"
       y1="154.58195"
       x2="6.101758"
       y2="36.995476" />
    <clipPath
       clipPathUnits="userSpaceOnUse"
       id="clipPath4974">
      <path
         id="path4976"
         d="M 16.625,2 C 15.93281,2.046173 15.13978,2.350316 14.5,2.875 13.716105,3.517873 13.079371,5.1522168 13.25,6.0625 13.337976,6.531842 13.692147,7.1029241 14.03125,7.28125 14.662734,7.613335 15.813682,7.0624791 16.875,5.9375 18.021489,4.722239 18.547995,3.383178 18.15625,2.625 17.915497,2.159052 17.31719,1.953827 16.625,2 z M 10.96875,2.71875 C 10.005789,2.719616 9.496306,3.3967078 9.5,4.6875 c 0.00253,0.88392 0.31322,1.6791318 0.71875,1.875 0.301512,0.145631 0.309051,0.1320361 0.6875,0 C 11.533114,6.343793 12.122053,4.8839409 12,3.90625 11.900109,3.106091 11.556193,2.7182209 10.96875,2.71875 z m -3.8125,1.3125 C 6.976067,4.0573035 6.795347,4.173262 6.625,4.34375 6.281636,4.687396 6.277056,4.8747068 6.28125,5.53125 6.286196,6.305553 6.475145,6.7277249 7,7.28125 7.392601,7.695296 7.675716,7.7200481 8.03125,7.34375 8.416388,6.936117 8.535971,6.296057 8.40625,5.59375 8.208416,4.5226825 7.696799,3.9530895 7.15625,4.03125 z M 4.46875,6.375 C 4.281799,6.4054104 4.1133,6.5115553 3.9375,6.6875 3.476154,7.14923 3.798831,8.4188978 4.53125,9.0625 5.405425,9.830669 6.111327,9.1273309 5.8125,7.78125 5.599846,6.8233425 5.029603,6.2837687 4.46875,6.375 z M 12.5,8.0625 C 11.88094,8.0518483 11.187196,8.1034691 10.46875,8.25 8.61799,8.627471 7.13709,9.3254488 6.1875,10.28125 5.640611,10.831715 5.327697,11.341306 5.0625,12.125 c -0.641919,1.896963 0.546896,4.595678 2.8125,6.4375 0.844088,0.686203 1.359152,0.993313 2.21875,1.28125 0.445736,0.149308 0.799163,0.183992 1.625,0.15625 0.946716,-0.03181 1.139252,-0.07408 1.75,-0.375 0.895036,-0.440989 1.909553,-1.461035 2.34375,-2.34375 0.264885,-0.5385 0.307321,-0.768628 0.28125,-1.21875 -0.04452,-0.768578 -0.342658,-0.977756 -1.3125,-0.96875 -1.38452,0.01285 -1.965756,0.333932 -2.25,1.3125 -0.21469,0.739118 -0.452038,1 -0.9375,1 -0.769368,0 -1.5625,-0.611791 -1.5625,-1.25 0,-0.443994 0.715313,-1.10577 2.5,-2.3125 2.514116,-1.69994 3.378489,-2.734111 3.25,-3.875 C 15.64852,8.7901993 14.35718,8.0944552 12.5,8.0625 z"
         style="fill:#ffffff;fill-opacity:1;stroke:none" />
    </clipPath>
    <clipPath
       clipPathUnits="userSpaceOnUse"
       id="clipPath4995">
      <path
         style="fill:#ffffff;fill-opacity:1;fill-rule:nonzero;stroke:none;display:inline"
         d="M 30,0 30,22 52,22 52,0 30,0 z M 46.625,2 C 47.31719,1.953827 47.915497,2.159052 48.15625,2.625 48.547995,3.383178 48.021489,4.722239 46.875,5.9375 45.813682,7.0624791 44.662734,7.613335 44.03125,7.28125 43.692147,7.1029241 43.337976,6.531842 43.25,6.0625 43.079371,5.1522168 43.716105,3.517873 44.5,2.875 45.13978,2.350316 45.93281,2.046173 46.625,2 z m -5.65625,0.71875 c 0.587443,-5.291e-4 0.931359,0.387341 1.03125,1.1875 0.122053,0.9776909 -0.466886,2.437543 -1.09375,2.65625 -0.378449,0.1320361 -0.385988,0.145631 -0.6875,0 C 39.81322,6.3666318 39.502528,5.57142 39.5,4.6875 39.496306,3.3967078 40.005789,2.719616 40.96875,2.71875 z m -3.8125,1.3125 c 0.540549,-0.078161 1.052166,0.4914325 1.25,1.5625 0.129721,0.702307 0.01014,1.342367 -0.375,1.75 C 37.675716,7.7200481 37.392601,7.695296 37,7.28125 36.475145,6.7277249 36.286196,6.305553 36.28125,5.53125 36.277056,4.8747068 36.281636,4.687396 36.625,4.34375 36.795347,4.173262 36.976067,4.0573035 37.15625,4.03125 z M 34.46875,6.375 C 35.029603,6.2837687 35.599846,6.8233425 35.8125,7.78125 36.111327,9.1273309 35.405425,9.830669 34.53125,9.0625 33.798831,8.4188978 33.476154,7.14923 33.9375,6.6875 34.1133,6.5115553 34.281799,6.4054104 34.46875,6.375 z M 42.5,8.0625 c 1.85718,0.031955 3.14852,0.7276993 3.28125,1.90625 0.128489,1.140889 -0.735884,2.17506 -3.25,3.875 -1.784687,1.20673 -2.5,1.868506 -2.5,2.3125 0,0.638209 0.793132,1.25 1.5625,1.25 0.485462,0 0.72281,-0.260882 0.9375,-1 0.284244,-0.978568 0.86548,-1.299646 2.25,-1.3125 0.969842,-0.009 1.267977,0.200172 1.3125,0.96875 0.02607,0.450122 -0.01637,0.68025 -0.28125,1.21875 -0.434197,0.882715 -1.448714,1.902761 -2.34375,2.34375 -0.610748,0.300916 -0.803284,0.343192 -1.75,0.375 -0.825837,0.02774 -1.179264,-0.0069 -1.625,-0.15625 C 39.234152,19.555813 38.719088,19.248703 37.875,18.5625 35.609396,16.720678 34.420581,14.021963 35.0625,12.125 35.327697,11.341306 35.640611,10.831715 36.1875,10.28125 37.13709,9.3254488 38.61799,8.627471 40.46875,8.25 41.187196,8.1034691 41.88094,8.0518483 42.5,8.0625 z"
         id="path4997" />
    </clipPath>
    <linearGradient
       inkscape:collect="always"
       xlink:href="#StandardGradient-1"
       id="linearGradient5065"
       gradientUnits="userSpaceOnUse"
       x1="10"
       y1="3"
       x2="10"
       y2="7" />
    <linearGradient
       inkscape:collect="always"
       xlink:href="#StandardGradient-1"
       id="linearGradient5068"
       gradientUnits="userSpaceOnUse"
       x1="16"
       y1="2"
       x2="16"
       y2="7" />
    <linearGradient
       inkscape:collect="always"
       xlink:href="#StandardGradient-1"
       id="linearGradient5071"
       gradientUnits="userSpaceOnUse"
       x1="6"
       y1="4"
       x2="6"
       y2="8" />
    <linearGradient
       inkscape:collect="always"
       xlink:href="#StandardGradient-1"
       id="linearGradient5074"
       gradientUnits="userSpaceOnUse"
       x1="4"
       y1="7"
       x2="4"
       y2="9" />
    <linearGradient
       inkscape:collect="always"
       xlink:href="#StandardGradient-1"
       id="linearGradient5077"
       gradientUnits="userSpaceOnUse"
       x1="12"
       y1="8"
       x2="12"
       y2="20.041595" />
    <inkscape:perspective
       id="perspective4374"
       inkscape:persp3d-origin="0.5 : 0.33333333 : 1"
       inkscape:vp_z="1 : 0.5 : 1"
       inkscape:vp_y="0 : 1000 : 0"
       inkscape:vp_x="0 : 0.5 : 1"
       sodipodi:type="inkscape:persp3d" />
    <linearGradient
       inkscape:collect="always"
       xlink:href="#StandardGradient-1"
       id="linearGradient3833-8"
       x1="54"
       y1="3.5"
       x2="59"
       y2="3.5"
       gradientUnits="userSpaceOnUse"
       gradientTransform="translate(-53,53)" />
    <linearGradient
       id="StandardGradient-1"
       gradientTransform="matrix(0.9984539,0,0,0.9984539,-0.0459776,0.05767558)"
       x1="10.710332"
       y1="1.9963325"
       x2="10.710332"
       y2="18.974037"
       gradientUnits="userSpaceOnUse">
      <stop
         style="stop-color:#000000;stop-opacity:0.86274511;"
         offset="0"
         id="stop3277-4" />
      <stop
         style="stop-color:#000000;stop-opacity:0.47058824;"
         offset="1"
         id="stop3279-3" />
    </linearGradient>
    <linearGradient
       y2="3.5"
       x2="59"
       y1="3.5"
       x1="54"
       gradientTransform="translate(-45,53)"
       gradientUnits="userSpaceOnUse"
       id="linearGradient3829-0"
       xlink:href="#SpecificGradient-5"
       inkscape:collect="always" />
    <linearGradient
       id="SpecificGradient-5"
       x1="10.761708"
       y1="3.9999998"
       x2="10.761708"
       y2="18.011395"
       gradientUnits="userSpaceOnUse">
      <stop
         style="stop-color:#a50000;stop-opacity:1;"
         offset="0"
         id="stop3292-8" />
      <stop
         style="stop-color:#e73800;stop-opacity:1;"
         offset="1"
         id="stop3294-0" />
    </linearGradient>
    <linearGradient
       inkscape:collect="always"
       xlink:href="#StandardGradient-1"
       id="linearGradient3738"
       gradientUnits="userSpaceOnUse"
       x1="12"
       y1="8"
       x2="12"
       y2="20.041595" />
    <linearGradient
       inkscape:collect="always"
       xlink:href="#StandardGradient-1"
       id="linearGradient3741"
       gradientUnits="userSpaceOnUse"
       x1="12"
       y1="8"
       x2="12"
       y2="20.041595"
       gradientTransform="translate(-30,0)" />
    <linearGradient
       inkscape:collect="always"
       xlink:href="#StandardGradient-1"
       id="linearGradient3747"
       gradientUnits="userSpaceOnUse"
       x1="12"
       y1="8"
       x2="12"
       y2="20.041595"
       gradientTransform="translate(0,1)" />
    <linearGradient
       inkscape:collect="always"
       xlink:href="#StandardGradient-1"
       id="linearGradient3751"
       gradientUnits="userSpaceOnUse"
       x1="12"
       y1="8"
       x2="12"
       y2="20.041595" />
    <clipPath
       clipPathUnits="userSpaceOnUse"
       id="clipPath3758">
      <path
         style="fill:#ff00ff;fill-opacity:1;stroke:none;display:inline"
         d="m -30,0 0,22 22,0 0,-22 -22,0 z m 16.625,2 c 0.69219,-0.046173 1.290497,0.159052 1.53125,0.625 0.391745,0.758178 -0.134761,2.097239 -1.28125,3.3125 -1.061318,1.124979 -2.212266,1.675835 -2.84375,1.34375 C -16.307853,7.102924 -16.66202,6.531842 -16.75,6.0625 -16.920629,5.152217 -16.283895,3.517873 -15.5,2.875 -14.86022,2.350316 -14.06719,2.046173 -13.375,2 z m -5.65625,0.71875 c 0.587443,-5.29e-4 0.93136,0.387341 1.03125,1.1875 0.122053,0.977691 -0.466886,2.437543 -1.09375,2.65625 -0.378449,0.132036 -0.385988,0.145631 -0.6875,0 -0.40553,-0.195868 -0.71625,-0.99108 -0.71875,-1.875 -0.0037,-1.290792 0.505789,-1.967884 1.46875,-1.96875 z m -3.8125,1.3125 c 0.540549,-0.078161 1.052166,0.4914325 1.25,1.5625 0.129721,0.702307 0.01014,1.342367 -0.375,1.75 -0.355534,0.376298 -0.638649,0.351546 -1.03125,-0.0625 -0.524855,-0.553525 -0.71385,-0.975697 -0.71875,-1.75 -0.0042,-0.656543 3.86e-4,-0.843854 0.34375,-1.1875 0.170347,-0.170488 0.351067,-0.286447 0.53125,-0.3125 z m -2.6875,2.34375 c 0.560853,-0.091231 1.131096,0.4483425 1.34375,1.40625 0.298827,1.346081 -0.407075,2.049419 -1.28125,1.28125 -0.732419,-0.643602 -1.055096,-1.91327 -0.59375,-2.375 0.1758,-0.1759448 0.344299,-0.282089 0.53125,-0.3125 z M -17.5,8.0625 c 1.85718,0.031955 3.14852,0.7276993 3.28125,1.90625 0.128489,1.140889 -0.735884,2.17506 -3.25,3.875 -1.784687,1.20673 -2.5,1.868506 -2.5,2.3125 0,0.638209 0.793132,1.25 1.5625,1.25 0.485462,0 0.72281,-0.260882 0.9375,-1 0.284244,-0.978569 0.86548,-1.29965 2.25,-1.3125 0.969842,-0.009 1.26798,0.200172 1.3125,0.96875 0.02607,0.450123 -0.01637,0.68025 -0.28125,1.21875 -0.434197,0.882715 -1.448714,1.902761 -2.34375,2.34375 -0.610748,0.30092 -0.803284,0.34319 -1.75,0.375 -0.825837,0.02774 -1.179264,-0.0069 -1.625,-0.15625 -0.859598,-0.287937 -1.374662,-0.595047 -2.21875,-1.28125 -2.265604,-1.841822 -3.454419,-4.540537 -2.8125,-6.4375 0.265198,-0.783694 0.578111,-1.293285 1.125,-1.84375 0.94959,-0.9558013 2.43049,-1.653779 4.28125,-2.03125 0.718447,-0.146531 1.41219,-0.198152 2.03125,-0.1875 z"
         id="path3760" />
    </clipPath>
    <inkscape:perspective
       id="perspective2885"
       inkscape:persp3d-origin="0.5 : 0.33333333 : 1"
       inkscape:vp_z="1 : 0.5 : 1"
       inkscape:vp_y="0 : 1000 : 0"
       inkscape:vp_x="0 : 0.5 : 1"
       sodipodi:type="inkscape:persp3d" />
    <linearGradient
       inkscape:collect="always"
       xlink:href="#StandardGradient-1"
       id="linearGradient3748"
       x1="11.682116"
       y1="4.0050025"
       x2="11.682116"
       y2="22.007736"
       gradientUnits="userSpaceOnUse"
       gradientTransform="translate(-30,-2)" />
    <linearGradient
       inkscape:collect="always"
       xlink:href="#StandardGradient-1"
       id="linearGradient3754"
       gradientUnits="userSpaceOnUse"
       x1="11.682116"
       y1="4.0050025"
       x2="11.682116"
       y2="22.007736"
       gradientTransform="translate(0,-1)" />
    <linearGradient
       inkscape:collect="always"
       xlink:href="#StandardGradient-1"
       id="linearGradient3756"
       gradientUnits="userSpaceOnUse"
       x1="11.682116"
       y1="4.0050025"
       x2="11.682116"
       y2="22.007736" />
    <linearGradient
       inkscape:collect="always"
       xlink:href="#StandardGradient-1"
       id="linearGradient3761"
       gradientUnits="userSpaceOnUse"
       x1="11.682116"
       y1="4.0050025"
       x2="11.682116"
       y2="22.007736"
       gradientTransform="translate(0,1)" />
    <linearGradient
       inkscape:collect="always"
       xlink:href="#StandardGradient-1"
       id="linearGradient3765"
       gradientUnits="userSpaceOnUse"
       gradientTransform="translate(0,-2)"
       x1="11.682116"
       y1="4.0050025"
       x2="11.682116"
       y2="22.007736" />
    <linearGradient
       inkscape:collect="always"
       xlink:href="#StandardGradient-1"
       id="linearGradient3772"
       gradientUnits="userSpaceOnUse"
       x1="11.682116"
       y1="4.0050025"
       x2="11.682116"
       y2="22.007736"
       gradientTransform="translate(-30,-2)" />
    <clipPath
       clipPathUnits="userSpaceOnUse"
       id="clipPath3777">
      <path
         style="fill:#ff00ff;fill-opacity:1;stroke:none;display:inline"
         d="m -30,0 0,22 22,0 0,-22 -22,0 z m 11,2 c 4.970563,0 9,4.0294373 9,9 0,4.970563 -4.029437,9 -9,9 -4.970563,0 -9,-4.029437 -9,-9 0,-4.9705627 4.029437,-9 9,-9 z m 3.40625,2.59375 c -0.662627,0 -1.21875,0.5561234 -1.21875,1.21875 0,0.6626266 0.556123,1.1875 1.21875,1.1875 0.662626,0 1.1875,-0.5248734 1.1875,-1.1875 0,-0.6626266 -0.524874,-1.21875 -1.1875,-1.21875 z M -18.8125,5.8125 c -0.789629,0 -1.516908,0.1847419 -2.1875,0.5 l 1.1875,2.09375 c 0.309436,-0.117838 0.649361,-0.21875 1,-0.21875 1.411968,0 2.589001,1.047078 2.78125,2.40625 l 2.40625,0 c -0.08653,-1.117324 -0.507643,-2.127889 -1.1875,-2.9375 -0.239332,0.101285 -0.505156,0.15625 -0.78125,0.15625 -1.052344,0 -1.88972,-0.8427942 -1.96875,-1.875 -0.39254,-0.095233 -0.82804,-0.125 -1.25,-0.125 z m -2.90625,0.875 c -0.908089,0.6136603 -1.58993,1.51742 -1.96875,2.5625 0.528411,0.402097 0.875,1.035249 0.875,1.75 0,0.721558 -0.369223,1.348577 -0.90625,1.75 0.373016,1.020043 1.088341,1.887647 1.96875,2.5 l 1.1875,-2.0625 c -0.63848,-0.513522 -1.03125,-1.304975 -1.03125,-2.1875 0,-0.90818 0.423125,-1.706856 1.09375,-2.21875 L -21.71875,6.6875 z M -25,9.59375 c -0.773064,0 -1.40625,0.633185 -1.40625,1.40625 0,0.773065 0.633186,1.40625 1.40625,1.40625 0.773064,0 1.40625,-0.633185 1.40625,-1.40625 0,-0.773065 -0.633186,-1.40625 -1.40625,-1.40625 z m 8.96875,1.8125 c -0.192249,1.359172 -1.369282,2.40625 -2.78125,2.40625 -0.367204,0 -0.709816,-0.09009 -1.03125,-0.21875 l -1.25,2.09375 c 0.688532,0.336532 1.463705,0.5 2.28125,0.5 0.42196,0 0.85746,-0.02977 1.25,-0.125 0.07903,-1.032206 0.916406,-1.875 1.96875,-1.875 0.276094,0 0.541918,0.05497 0.78125,0.15625 0.679857,-0.809612 1.10098,-1.820176 1.1875,-2.9375 l -2.40625,0 z M -15.59375,15 c -0.662627,0 -1.21875,0.524874 -1.21875,1.1875 0,0.662627 0.556123,1.21875 1.21875,1.21875 0.662626,0 1.1875,-0.556123 1.1875,-1.21875 0,-0.662626 -0.524874,-1.1875 -1.1875,-1.1875 z"
         id="path3779" />
    </clipPath>
    <filter
       inkscape:collect="always"
       id="filter3781"
       color-interpolation-filters="sRGB">
      <feGaussianBlur
         inkscape:collect="always"
         stdDeviation="0.54"
         id="feGaussianBlur3783" />
    </filter>
    <linearGradient
       gradientTransform="matrix(1.237124,0,0,1.237124,-1037.425,-1010.413)"
       gradientUnits="userSpaceOnUse"
       y2="1340.5599"
       x2="1099.6853"
       y1="-313.5238"
       x1="783.86316"
       id="linearGradient2994"
       xlink:href="#linearGradient3004"
       inkscape:collect="always" />
    <linearGradient
       id="linearGradient3004">
      <stop
         style="stop-color:#ffffff;stop-opacity:1;"
         offset="0"
         id="stop3006" />
      <stop
         id="stop7609"
         offset="0.34214258"
         style="stop-color:#ffffff;stop-opacity:1;" />
      <stop
         id="stop7599"
         offset="0.51998252"
         style="stop-color:#bebdf3;stop-opacity:1;" />
      <stop
         style="stop-color:#8f82f9;stop-opacity:1;"
         offset="0.75408828"
         id="stop7611" />
      <stop
         id="stop7613"
         offset="0.8711412"
         style="stop-color:#9f99c7;stop-opacity:1;" />
      <stop
         style="stop-color:#524c76;stop-opacity:1;"
         offset="1"
         id="stop3008" />
    </linearGradient>
    <linearGradient
       gradientTransform="matrix(1.237124,0,0,1.237124,-161.0905,-377.3414)"
       gradientUnits="userSpaceOnUse"
       y2="269.70941"
       x2="368.62137"
       y1="697.43707"
       x1="464.01675"
       id="linearGradient2986"
       xlink:href="#linearGradient3004"
       inkscape:collect="always" />
    <linearGradient
       id="linearGradient4150">
      <stop
         style="stop-color:#ffffff;stop-opacity:1;"
         offset="0"
         id="stop4152" />
      <stop
         id="stop4154"
         offset="0.34214258"
         style="stop-color:#ffffff;stop-opacity:1;" />
      <stop
         id="stop4156"
         offset="0.51998252"
         style="stop-color:#bebdf3;stop-opacity:1;" />
      <stop
         style="stop-color:#8f82f9;stop-opacity:1;"
         offset="0.75408828"
         id="stop4158" />
      <stop
         id="stop4160"
         offset="0.8711412"
         style="stop-color:#9f99c7;stop-opacity:1;" />
      <stop
         style="stop-color:#524c76;stop-opacity:1;"
         offset="1"
         id="stop4162" />
    </linearGradient>
    <radialGradient
       gradientUnits="userSpaceOnUse"
       gradientTransform="matrix(3.287367,0,0,2.519654,111.6891,-642.7214)"
       r="31.94874"
       fy="320.08572"
       fx="49.529819"
       cy="320.08572"
       cx="49.529819"
       id="radialGradient5851"
       xlink:href="#linearGradient3004"
       inkscape:collect="always" />
    <linearGradient
       id="linearGradient4165">
      <stop
         style="stop-color:#ffffff;stop-opacity:1;"
         offset="0"
         id="stop4167" />
      <stop
         id="stop4169"
         offset="0.34214258"
         style="stop-color:#ffffff;stop-opacity:1;" />
      <stop
         id="stop4171"
         offset="0.51998252"
         style="stop-color:#bebdf3;stop-opacity:1;" />
      <stop
         style="stop-color:#8f82f9;stop-opacity:1;"
         offset="0.75408828"
         id="stop4173" />
      <stop
         id="stop4175"
         offset="0.8711412"
         style="stop-color:#9f99c7;stop-opacity:1;" />
      <stop
         style="stop-color:#524c76;stop-opacity:1;"
         offset="1"
         id="stop4177" />
    </linearGradient>
    <radialGradient
       r="218.02184"
       fy="590.5899"
       fx="332.72311"
       cy="590.5899"
       cx="332.72311"
       gradientTransform="matrix(-0.0660395,4.190266,-3.573754,-0.05626827,2168.154,-1171.421)"
       gradientUnits="userSpaceOnUse"
       id="radialGradient3228"
       xlink:href="#linearGradient3004"
       inkscape:collect="always" />
    <linearGradient
       id="linearGradient4180-3">
      <stop
         style="stop-color:#ffffff;stop-opacity:1;"
         offset="0"
         id="stop4182" />
      <stop
         id="stop4184"
         offset="0.34214258"
         style="stop-color:#ffffff;stop-opacity:1;" />
      <stop
         id="stop4186"
         offset="0.51998252"
         style="stop-color:#bebdf3;stop-opacity:1;" />
      <stop
         style="stop-color:#8f82f9;stop-opacity:1;"
         offset="0.75408828"
         id="stop4188" />
      <stop
         id="stop4190"
         offset="0.8711412"
         style="stop-color:#9f99c7;stop-opacity:1;" />
      <stop
         style="stop-color:#524c76;stop-opacity:1;"
         offset="1"
         id="stop4192" />
    </linearGradient>
    <radialGradient
       inkscape:collect="always"
       xlink:href="#linearGradient3004"
       id="radialGradient3224"
       gradientUnits="userSpaceOnUse"
       gradientTransform="matrix(-0.0660395,4.190266,-3.573754,-0.05626827,2168.154,-1171.421)"
       cx="332.72311"
       cy="590.5899"
       fx="332.72311"
       fy="590.5899"
       r="218.02184" />
    <radialGradient
       inkscape:collect="always"
       xlink:href="#linearGradient3004"
       id="radialGradient3227"
       gradientUnits="userSpaceOnUse"
       gradientTransform="matrix(-0.00169739,0.10770081,-0.09185484,-0.00144624,59.424717,-27.764552)"
       cx="332.72311"
       cy="590.5899"
       fx="332.72311"
       fy="590.5899"
       r="218.02184" />
    <linearGradient
       inkscape:collect="always"
       xlink:href="#linearGradient3004"
       id="linearGradient3229"
       gradientUnits="userSpaceOnUse"
       gradientTransform="matrix(1.237124,0,0,1.237124,-161.0905,-377.3414)"
       x1="464.01675"
       y1="697.43707"
       x2="368.62137"
       y2="269.70941" />
    <radialGradient
       inkscape:collect="always"
       xlink:href="#linearGradient3004"
       id="radialGradient3231"
       gradientUnits="userSpaceOnUse"
       gradientTransform="matrix(3.287367,0,0,2.519654,111.6891,-642.7214)"
       cx="49.529819"
       cy="320.08572"
       fx="49.529819"
       fy="320.08572"
       r="31.94874" />
    <radialGradient
       inkscape:collect="always"
       xlink:href="#linearGradient3004"
       id="radialGradient3234"
       gradientUnits="userSpaceOnUse"
       gradientTransform="matrix(0.08449394,0,0,0.06476171,6.5681813,5.824413)"
       cx="49.529819"
       cy="320.08572"
       fx="49.529819"
       fy="320.08572"
       r="31.94874" />
    <linearGradient
       inkscape:collect="always"
       xlink:href="#linearGradient3004"
       id="linearGradient3237"
       gradientUnits="userSpaceOnUse"
       gradientTransform="matrix(0.03179733,0,0,0.03179733,-0.44296911,-7.3546258)"
       x1="464.01675"
       y1="697.43707"
       x2="368.62137"
       y2="269.70941" />
    <linearGradient
       inkscape:collect="always"
       xlink:href="#linearGradient3004"
       id="linearGradient3239"
       gradientUnits="userSpaceOnUse"
       gradientTransform="matrix(1.237124,0,0,1.237124,-1037.425,-1010.413)"
       x1="783.86316"
       y1="-313.5238"
       x2="1099.6853"
       y2="1340.5599" />
    <linearGradient
       inkscape:collect="always"
       xlink:href="#linearGradient3004"
       id="linearGradient3242"
       gradientUnits="userSpaceOnUse"
       gradientTransform="matrix(0.03179733,0,0,0.03179733,-22.967062,-3.626225)"
       x1="783.86316"
       y1="-313.5238"
       x2="1099.6853"
       y2="1340.5599" />
    <linearGradient
       inkscape:collect="always"
       xlink:href="#StandardGradient-1"
       id="linearGradient4019"
       x1="11.81854"
       y1="2.1399267"
       x2="11.81854"
       y2="18.821463"
       gradientUnits="userSpaceOnUse" />
    <linearGradient
       inkscape:collect="always"
       xlink:href="#StandardGradient-1"
       id="linearGradient4025"
       gradientUnits="userSpaceOnUse"
       x1="11.81854"
       y1="2.1399267"
       x2="11.81854"
       y2="18.821463"
       gradientTransform="translate(0,1)" />
    <linearGradient
       inkscape:collect="always"
       xlink:href="#StandardGradient-1"
       id="linearGradient4027"
       gradientUnits="userSpaceOnUse"
       x1="11.81854"
       y1="2.1399267"
       x2="11.81854"
       y2="18.821463" />
    <linearGradient
       inkscape:collect="always"
       xlink:href="#StandardGradient-1"
       id="linearGradient4032"
       gradientUnits="userSpaceOnUse"
       x1="11.81854"
       y1="2.1399267"
       x2="11.81854"
       y2="18.821463"
       gradientTransform="translate(0,1)" />
    <linearGradient
       inkscape:collect="always"
       xlink:href="#StandardGradient-1"
       id="linearGradient4036"
       gradientUnits="userSpaceOnUse"
       x1="11.81854"
       y1="2.1399267"
       x2="11.81854"
       y2="18.821463" />
    <linearGradient
       inkscape:collect="always"
       xlink:href="#StandardGradient-1"
       id="linearGradient4043"
       gradientUnits="userSpaceOnUse"
       x1="11.81854"
       y1="2.1399267"
       x2="11.81854"
       y2="18.821463" />
    <linearGradient
       inkscape:collect="always"
       xlink:href="#StandardGradient-1"
       id="linearGradient4047"
       gradientUnits="userSpaceOnUse"
       x1="11.81854"
       y1="2.1399267"
       x2="11.81854"
       y2="18.821463" />
  </defs>
  <sodipodi:namedview
     id="base"
     pagecolor="#ffffff"
     bordercolor="#e7e7e7"
     borderopacity="1"
     inkscape:pageopacity="0.0"
     inkscape:pageshadow="2"
     inkscape:zoom="16.008898"
     inkscape:cx="8.9424645"
     inkscape:cy="4.0662967"
     inkscape:document-units="px"
     inkscape:current-layer="layer1"
     showgrid="true"
     inkscape:showpageshadow="false"
     showguides="false"
     inkscape:guide-bbox="true"
     inkscape:window-width="1920"
     inkscape:window-height="1029"
     inkscape:window-x="0"
     inkscape:window-y="25"
     inkscape:window-maximized="1"
     inkscape:snap-global="false">
    <sodipodi:guide
       orientation="1,0"
       position="0,112"
       id="guide2383" />
    <sodipodi:guide
       orientation="0,1"
       position="26.278146,128"
       id="guide2385" />
    <sodipodi:guide
       orientation="1,0"
       position="128,54.082119"
       id="guide2387" />
    <sodipodi:guide
       orientation="0,1"
       position="78.156291,0"
       id="guide2389" />
    <sodipodi:guide
       orientation="0,1"
       position="60.863576,64.084768"
       id="guide2391" />
    <inkscape:grid
       type="xygrid"
       id="grid3672"
       visible="true"
       enabled="true"
       empspacing="8"
       snapvisiblegridlinesonly="true" />
  </sodipodi:namedview>
  <metadata
     id="metadata7">
    <rdf:RDF>
      <cc:Work
         rdf:about="">
        <dc:format>image/svg+xml</dc:format>
        <dc:type
           rdf:resource="http://purl.org/dc/dcmitype/StillImage" />
        <dc:title></dc:title>
      </cc:Work>
    </rdf:RDF>
  </metadata>
  <g
     inkscape:groupmode="layer"
     id="layer2"
     inkscape:label="Dark background"
     sodipodi:insensitive="true"
     style="display:none">
    <rect
       y="0"
       x="0"
       height="22"
       width="22"
       id="rect4898"
       style="fill:#333333;fill-opacity:1;fill-rule:nonzero;stroke:none;display:inline" />
  </g>
  <g
     inkscape:groupmode="layer"
     id="layer3"
     inkscape:label="Pale darkground"
     sodipodi:insensitive="true"
     style="display:none">
    <rect
       style="fill:#efebe7;fill-opacity:1;fill-rule:nonzero;stroke:none"
       id="rect4126"
       width="22"
       height="22"
       x="0"
       y="0" />
  </g>
  <g
     inkscape:label="Button"
     inkscape:groupmode="layer"
     id="layer1"
     style="display:inline">
    <path
       style="fill:#ffffff;fill-opacity:1;fill-rule:evenodd;stroke:none;opacity:0.15"
       d="M 10.21875 1.03125 C 8.1188912 1.1303602 6.2942296 2.0803866 5 3.28125 C 3.7057704 4.4821134 2.819207 5.8809996 2.9375 7.34375 C 3.0053134 8.1822961 3.5022913 8.7436803 4.03125 9.21875 C 4.5602087 9.6938197 5.1811257 10.079035 5.78125 10.40625 C 6.1120067 10.586593 6.360487 10.704469 6.65625 10.84375 C 6.3011627 11.146673 5.9120364 11.464468 5.53125 11.8125 C 4.617634 12.647528 3.7872679 13.378899 3.21875 14.28125 C 2.6502321 15.183601 2.3953195 16.367432 2.8125 17.5 C 3.2610973 18.717858 4.1869506 19.502037 5.1875 19.75 C 6.1880494 19.997963 7.1769964 19.848481 8.15625 19.65625 C 10.876804 19.119678 14.110679 17.287386 16.75 15.28125 C 18.06966 14.278182 19.224437 13.212777 20.0625 12.21875 C 20.900563 11.224723 21.58946 10.319778 21.375 9.125 C 21.234179 8.340469 20.807449 7.710926 20.25 7.03125 C 19.692551 6.351574 18.961722 5.674265 18.1875 5 C 16.639056 3.6514701 14.854598 2.3992404 13.40625 1.6875 C 12.431561 1.2085221 11.341453 0.97842592 10.21875 1.03125 z M 10.25 2 C 11.203703 1.9551275 12.143718 2.1570661 12.96875 2.5625 C 15.609642 3.8602746 20.076986 7.4781292 20.40625 9.3125 C 20.813177 11.579536 12.825522 17.729604 7.96875 18.6875 C 6.0845492 19.057376 4.4829968 19.1462 3.75 17.15625 C 3.1145839 15.431213 4.3735768 14.189142 6.1875 12.53125 C 6.9407292 11.842811 7.5338865 11.356693 8.4375 10.59375 C 8.4894776 10.541772 4.0471864 8.9927472 3.90625 7.25 C 3.7613833 5.4586524 6.6186568 2.171394 10.25 2 z M 11 5.15625 C 10.242825 5.2271794 9.6881072 5.791301 9.625 6.90625 C 9.5557575 8.1138947 11.849286 8.9748108 12.5625 8.71875 C 15.185334 7.777086 13.850834 6.1228757 12.5625 5.5 C 11.972596 5.2147976 11.454305 5.113692 11 5.15625 z M 11.09375 6.125 C 11.33447 6.10245 11.656562 6.1485232 12.125 6.375 C 12.581447 6.5956803 13.059379 7.1244947 13.09375 7.25 C 13.110935 7.3127526 13.118286 7.2383418 13.0625 7.3125 C 13.008481 7.3843093 12.758763 7.560654 12.25 7.75 C 12.204093 7.7541417 12.10765 7.7717785 12 7.75 C 11.7847 7.706443 11.494322 7.5936152 11.25 7.46875 C 11.005678 7.3438848 10.789106 7.2094922 10.6875 7.09375 C 10.585894 6.9780078 10.594618 6.9536132 10.59375 6.96875 C 10.616628 6.564549 10.739071 6.3693057 10.8125 6.28125 C 10.885929 6.1931943 10.934441 6.1399235 11.09375 6.125 z "
       id="path4045" />
    <rect
       y="54"
       x="1"
       height="5"
       width="5"
       id="rect3825-6"
       style="fill:url(#linearGradient3833-8);fill-opacity:1;stroke:none;display:inline"
       transform="matrix(0,1,1,0,0,0)" />
    <rect
       transform="matrix(0,1,1,0,0,0)"
       style="fill:url(#linearGradient3829-0);fill-opacity:1;stroke:none;display:inline"
       id="rect3808-2"
       width="5"
       height="5"
       x="9"
       y="54" />
    <path
       style="fill:url(#linearGradient4019);fill-opacity:1;fill-rule:evenodd;stroke:none"
       d="m 10.248434,1.9970684 c -3.6313432,0.171394 -6.4740754,3.4651138 -6.3292087,5.2564614 0.1409364,1.7427472 4.557516,3.2735382 4.5055384,3.3255162 -0.9036135,0.762943 -1.49954,1.278265 -2.2527692,1.966704 -1.8139232,1.657892 -3.0669765,2.887776 -2.4315604,4.612813 0.7329968,1.98995 2.3352717,1.90748 4.2194725,1.537604 C 12.816679,17.738271 20.810701,11.594544 20.403774,9.3275078 20.07451,7.493137 15.606952,3.8669748 12.96606,2.5692002 12.141028,2.1637663 11.202137,1.9521959 10.248434,1.9970684 z m 0.750923,3.1467252 c 0.454305,-0.042558 0.983459,0.07238 1.573363,0.3575824 1.288334,0.6228757 2.622834,2.2765777 0,3.2182417 C 11.859506,8.9756785 9.5713014,8.1035921 9.6405439,6.8959474 9.7036511,5.7809984 10.242182,5.214723 10.999357,5.1437936 z"
       id="path2975"
       inkscape:connector-curvature="0" />
    <path
       style="fill:#000000;fill-opacity:1;fill-rule:evenodd;stroke:none;opacity:0.5"
       d="M 10.25 2 C 6.6186568 2.171394 3.7613833 5.4586524 3.90625 7.25 C 3.9142504 7.3489289 3.9660436 7.4339189 4 7.53125 C 4.4967146 5.6984052 7.0725747 3.1499697 10.25 3 C 11.203703 2.9551275 12.143718 3.1570661 12.96875 3.5625 C 15.462658 4.7880444 19.584 8.0914268 20.3125 10 C 20.395456 9.7518959 20.441432 9.5085042 20.40625 9.3125 C 20.076986 7.4781292 15.609642 3.8602746 12.96875 2.5625 C 12.143718 2.1570661 11.203703 1.9551275 10.25 2 z M 9.71875 7.34375 C 9.6777877 7.5097549 9.6364078 7.7047015 9.625 7.90625 C 9.5557575 9.1138947 11.849286 9.9748108 12.5625 9.71875 C 14.028423 9.1924464 14.244973 8.448116 13.9375 7.78125 C 13.739833 8.124438 13.308999 8.4507379 12.5625 8.71875 C 11.938438 8.9428032 10.120091 8.3161996 9.71875 7.34375 z M 7.6875 11.25 C 7.1895772 11.67794 6.6879285 12.073867 6.1875 12.53125 C 4.5202912 14.055048 3.3450244 15.232557 3.65625 16.75 C 3.9075281 15.678161 4.9037205 14.7046 6.1875 13.53125 C 6.9407292 12.842811 7.5338865 12.356693 8.4375 11.59375 C 8.4510402 11.58021 8.1258617 11.441852 7.6875 11.25 z "
       id="path4021" />
    <path
       style="fill:#ffffff;fill-opacity:1;fill-rule:evenodd;stroke:none;opacity:0.3"
       d="M 11 5.15625 C 10.242825 5.2271794 9.6881072 5.791301 9.625 6.90625 C 9.6163447 7.0572056 9.6614156 7.2048286 9.71875 7.34375 C 9.9043879 6.5914299 10.379699 6.2143575 11 6.15625 C 11.454305 6.113692 11.972596 6.2147976 12.5625 6.5 C 13.130774 6.7747455 13.694841 7.2549573 13.9375 7.78125 C 14.434338 6.9186424 13.484154 5.9455957 12.5625 5.5 C 11.972596 5.2147976 11.454305 5.113692 11 5.15625 z M 4 7.5625 C 3.9352217 7.8125823 3.8888758 8.0351593 3.90625 8.25 C 4.0104723 9.5387594 6.4430992 10.705379 7.6875 11.25 C 7.9390349 11.033818 8.134227 10.849811 8.4375 10.59375 C 8.486229 10.545021 4.6011576 9.1668475 4 7.5625 z M 20.3125 10 C 19.435967 12.621534 12.405614 17.812422 7.96875 18.6875 C 6.0845492 19.057376 4.4829968 19.1462 3.75 17.15625 C 3.6986061 17.016725 3.6836379 16.883535 3.65625 16.75 C 3.5524833 17.192622 3.564291 17.652084 3.75 18.15625 C 4.4829968 20.1462 6.0845492 20.057376 7.96875 19.6875 C 12.825522 18.729604 20.813177 12.579536 20.40625 10.3125 C 20.387924 10.210405 20.355436 10.112486 20.3125 10 z "
       id="path4030" />
  </g>
</svg>
