<?xml version="1.0" encoding="UTF-8" standalone="no"?>
<!-- Created with Inkscape (http://www.inkscape.org/) -->

<svg
   xmlns:dc="http://purl.org/dc/elements/1.1/"
   xmlns:cc="http://creativecommons.org/ns#"
   xmlns:rdf="http://www.w3.org/1999/02/22-rdf-syntax-ns#"
   xmlns:svg="http://www.w3.org/2000/svg"
   xmlns="http://www.w3.org/2000/svg"
   xmlns:xlink="http://www.w3.org/1999/xlink"
   xmlns:sodipodi="http://sodipodi.sourceforge.net/DTD/sodipodi-0.dtd"
   xmlns:inkscape="http://www.inkscape.org/namespaces/inkscape"
   width="22"
   height="22"
   id="svg2"
   sodipodi:version="0.32"
   inkscape:version="0.48.0 r9654"
   version="1.0"
   sodipodi:docname="user-trash.svg"
   inkscape:output_extension="org.inkscape.output.svg.inkscape"
   style="display:inline">
  <defs
     id="defs4">
    <linearGradient
       inkscape:collect="always"
       xlink:href="#linearGradient4368"
       id="linearGradient3669"
       gradientUnits="userSpaceOnUse"
       x1="60.413662"
       y1="106.16137"
       x2="46.921165"
       y2="110.65887" />
    <linearGradient
       inkscape:collect="always"
       xlink:href="#linearGradient4360"
       id="linearGradient3667"
       gradientUnits="userSpaceOnUse"
       x1="43.245415"
       y1="104.21532"
       x2="48.193569"
       y2="93.471298" />
    <linearGradient
       inkscape:collect="always"
       xlink:href="#linearGradient4360"
       id="linearGradient3665"
       gradientUnits="userSpaceOnUse"
       x1="66.740204"
       y1="63.588692"
       x2="75.281227"
       y2="80.814972" />
    <linearGradient
       inkscape:collect="always"
       xlink:href="#linearGradient4368"
       id="linearGradient3663"
       gradientUnits="userSpaceOnUse"
       x1="52.105541"
       y1="76.541229"
       x2="61.130371"
       y2="68.295815" />
    <linearGradient
       id="linearGradient4368">
      <stop
         style="stop-color:#828282;stop-opacity:1;"
         offset="0"
         id="stop4370" />
      <stop
         style="stop-color:#5a5a5a;stop-opacity:1;"
         offset="1"
         id="stop4372" />
    </linearGradient>
    <linearGradient
       inkscape:collect="always"
       xlink:href="#linearGradient4368"
       id="linearGradient3661"
       gradientUnits="userSpaceOnUse"
       x1="82.855774"
       y1="87.433334"
       x2="86.748848"
       y2="97.972473" />
    <linearGradient
       id="linearGradient4360">
      <stop
         style="stop-color:#6e6e6e;stop-opacity:1;"
         offset="0"
         id="stop4362" />
      <stop
         style="stop-color:#8c8c8c;stop-opacity:1;"
         offset="1"
         id="stop4364" />
    </linearGradient>
    <linearGradient
       inkscape:collect="always"
       xlink:href="#linearGradient4360"
       id="linearGradient3659"
       gradientUnits="userSpaceOnUse"
       x1="87.228699"
       y1="103.55167"
       x2="69.920662"
       y2="103.55167" />
    <linearGradient
       id="linearGradient7105">
      <stop
         style="stop-color:#515151;stop-opacity:1;"
         offset="0"
         id="stop7107" />
      <stop
         id="stop7113"
         offset="1"
         style="stop-color:#1b1b1b;stop-opacity:1;" />
    </linearGradient>
    <radialGradient
       inkscape:collect="always"
       xlink:href="#linearGradient7105"
       id="radialGradient3354"
       cx="65.547707"
       cy="32.811893"
       fx="65.547707"
       fy="32.811893"
       r="51.413425"
       gradientTransform="matrix(0.1465701,0,0,8.0251288e-2,1.4499666,4.3830053)"
       gradientUnits="userSpaceOnUse" />
    <linearGradient
       id="linearGradient7097">
      <stop
         style="stop-color:#919191;stop-opacity:1;"
         offset="0"
         id="stop7099" />
      <stop
         style="stop-color:#ffffff;stop-opacity:1;"
         offset="1"
         id="stop7101" />
    </linearGradient>
    <linearGradient
       id="linearGradient7175">
      <stop
         id="stop7177"
         offset="0"
         style="stop-color:#000000;stop-opacity:1;" />
      <stop
         id="stop7179"
         offset="1"
         style="stop-color:#000000;stop-opacity:0;" />
    </linearGradient>
    <linearGradient
       inkscape:collect="always"
       id="linearGradient7155">
      <stop
         style="stop-color:#ffffff;stop-opacity:1;"
         offset="0"
         id="stop7157" />
      <stop
         style="stop-color:#ffffff;stop-opacity:0;"
         offset="1"
         id="stop7159" />
    </linearGradient>
    <linearGradient
       id="linearGradient3172">
      <stop
         style="stop-color:#a0a0a0;stop-opacity:1;"
         offset="0"
         id="stop3174" />
      <stop
         id="stop3188"
         offset="0.1362071"
         style="stop-color:#dcdcdc;stop-opacity:1;" />
      <stop
         id="stop3180"
         offset="0.3023597"
         style="stop-color:#f5f5f5;stop-opacity:1;" />
      <stop
         style="stop-color:#dcdcdc;stop-opacity:1;"
         offset="0.61225069"
         id="stop3190" />
      <stop
         style="stop-color:#b4b4b4;stop-opacity:1;"
         offset="1"
         id="stop3176" />
    </linearGradient>
    <linearGradient
       inkscape:collect="always"
       id="linearGradient3327">
      <stop
         style="stop-color:#000000;stop-opacity:1;"
         offset="0"
         id="stop3330" />
      <stop
         style="stop-color:#000000;stop-opacity:0;"
         offset="1"
         id="stop3333" />
    </linearGradient>
    <linearGradient
       inkscape:collect="always"
       xlink:href="#linearGradient3327"
       id="linearGradient3335"
       x1="11.375"
       y1="22"
       x2="11.375"
       y2="-9.817296"
       gradientUnits="userSpaceOnUse" />
    <linearGradient
       inkscape:collect="always"
       xlink:href="#linearGradient3172"
       id="linearGradient3181"
       x1="-3.0607977"
       y1="27.258198"
       x2="-3.0607977"
       y2="7.2536583"
       gradientUnits="userSpaceOnUse"
       gradientTransform="matrix(0,1,-1,0,28.258198,11.119372)" />
    <inkscape:perspective
       sodipodi:type="inkscape:persp3d"
       inkscape:vp_x="0 : 11 : 1"
       inkscape:vp_y="0 : 1000 : 0"
       inkscape:vp_z="22 : 11 : 1"
       inkscape:persp3d-origin="11 : 7.3333333 : 1"
       id="perspective2531" />
    <linearGradient
       id="ButtonShadow"
       gradientTransform="scale(0.9883037,1.0118347)"
       x1="9.3550024"
       y1="21.742682"
       x2="9.3550024"
       y2="0.49362123"
       gradientUnits="userSpaceOnUse">
      <stop
         id="stop3277"
         offset="0"
         style="stop-color:#000000;stop-opacity:0.70588237;" />
      <stop
         id="stop3279"
         offset="1"
         style="stop-color:#000000;stop-opacity:0.15686275;" />
    </linearGradient>
    <linearGradient
       inkscape:collect="always"
       id="linearGradient3232">
      <stop
         style="stop-color:#000000;stop-opacity:1;"
         offset="0"
         id="stop3234" />
      <stop
         style="stop-color:#000000;stop-opacity:0;"
         offset="1"
         id="stop3236" />
    </linearGradient>
    <linearGradient
       gradientUnits="userSpaceOnUse"
       y2="-6.0004225"
       x2="11"
       y1="14.805666"
       x1="11"
       id="linearGradient3221"
       xlink:href="#linearGradient3232"
       inkscape:collect="always" />
    <linearGradient
       id="ButtonColor"
       x1="10.31979"
       y1="21"
       x2="10.31979"
       y2="0.99929649"
       gradientUnits="userSpaceOnUse">
      <stop
         style="stop-color:#000000;stop-opacity:0.15294118;"
         offset="0"
         id="stop3189" />
      <stop
         style="stop-color:#ffffff;stop-opacity:0;"
         offset="1"
         id="stop3191" />
    </linearGradient>
    <linearGradient
       inkscape:collect="always"
       xlink:href="#ButtonShadow"
       id="linearGradient38042"
       gradientUnits="userSpaceOnUse"
       gradientTransform="scale(0.9883037,1.0118347)"
       x1="9.3550024"
       y1="21.742682"
       x2="9.3550024"
       y2="0.49362123" />
    <linearGradient
       inkscape:collect="always"
       xlink:href="#ButtonColor"
       id="linearGradient4303"
       gradientUnits="userSpaceOnUse"
       gradientTransform="translate(11.119372,-6.258198)"
       x1="-3.0607977"
       y1="27.258198"
       x2="-3.0607977"
       y2="7.2536583" />
    <linearGradient
       inkscape:collect="always"
       xlink:href="#linearGradient7097"
       id="linearGradient4347"
       gradientUnits="userSpaceOnUse"
       x1="48.22263"
       y1="13.313221"
       x2="48.22263"
       y2="47.795158" />
    <linearGradient
       inkscape:collect="always"
       xlink:href="#linearGradient7155"
       id="linearGradient4369"
       gradientUnits="userSpaceOnUse"
       gradientTransform="matrix(0.1689854,0,0,0.1689854,-9.1486043,0.1550765)"
       x1="26.98472"
       y1="5"
       x2="26.98472"
       y2="110.74494" />
    <linearGradient
       inkscape:collect="always"
       xlink:href="#linearGradient7155"
       id="linearGradient4371"
       gradientUnits="userSpaceOnUse"
       gradientTransform="matrix(6.8361656e-2,0,0,-0.1689854,-12.165668,21.785214)"
       spreadMethod="reflect"
       x1="26.98472"
       y1="54.295403"
       x2="26.98472"
       y2="96.039551" />
    <linearGradient
       inkscape:collect="always"
       xlink:href="#linearGradient7155"
       id="linearGradient4373"
       gradientUnits="userSpaceOnUse"
       gradientTransform="matrix(8.4084129e-2,0,0,-0.1689854,-18.299613,21.785214)"
       x1="26.98472"
       y1="5"
       x2="26.98472"
       y2="68.695473" />
    <linearGradient
       inkscape:collect="always"
       xlink:href="#linearGradient7175"
       id="linearGradient4375"
       gradientUnits="userSpaceOnUse"
       gradientTransform="matrix(0.2287308,0,0,-0.1689854,-19.269799,21.785214)"
       x1="26.98472"
       y1="5"
       x2="26.98472"
       y2="70.167" />
    <linearGradient
       inkscape:collect="always"
       xlink:href="#linearGradient7175"
       id="linearGradient4377"
       gradientUnits="userSpaceOnUse"
       gradientTransform="matrix(0.1847079,0,0,-0.1689854,-12.946607,21.844927)"
       x1="26.98472"
       y1="5"
       x2="26.98472"
       y2="120.63893" />
    <linearGradient
       inkscape:collect="always"
       xlink:href="#linearGradient7155"
       id="linearGradient4379"
       gradientUnits="userSpaceOnUse"
       gradientTransform="matrix(3.3772233e-2,0,0,0.1689854,-2.2527661,0.1550765)"
       x1="26.98472"
       y1="5"
       x2="26.98472"
       y2="68.695473" />
    <linearGradient
       inkscape:collect="always"
       xlink:href="#linearGradient7175"
       id="linearGradient4381"
       gradientUnits="userSpaceOnUse"
       gradientTransform="matrix(6.6862799e-2,0,0,0.1689854,-4.1694296,0.2147903)"
       x1="26.98472"
       y1="5"
       x2="26.98472"
       y2="176.64893" />
    <linearGradient
       inkscape:collect="always"
       xlink:href="#linearGradient7155"
       id="linearGradient4383"
       gradientUnits="userSpaceOnUse"
       gradientTransform="matrix(2.1194256e-2,0,0,0.1689854,-18.016531,0.1550765)"
       x1="26.98472"
       y1="5"
       x2="26.98472"
       y2="110.67213" />
    <linearGradient
       inkscape:collect="always"
       xlink:href="#linearGradient4360"
       id="linearGradient4457"
       gradientUnits="userSpaceOnUse"
       x1="87.228699"
       y1="103.55167"
       x2="69.920662"
       y2="103.55167" />
    <linearGradient
       inkscape:collect="always"
       xlink:href="#linearGradient4368"
       id="linearGradient4459"
       gradientUnits="userSpaceOnUse"
       x1="82.855774"
       y1="87.433334"
       x2="86.748848"
       y2="97.972473" />
    <linearGradient
       inkscape:collect="always"
       xlink:href="#linearGradient4368"
       id="linearGradient4461"
       gradientUnits="userSpaceOnUse"
       x1="52.105541"
       y1="76.541229"
       x2="61.130371"
       y2="68.295815" />
    <linearGradient
       inkscape:collect="always"
       xlink:href="#linearGradient4360"
       id="linearGradient4463"
       gradientUnits="userSpaceOnUse"
       x1="66.740204"
       y1="63.588692"
       x2="75.281227"
       y2="80.814972" />
    <linearGradient
       inkscape:collect="always"
       xlink:href="#linearGradient4360"
       id="linearGradient4465"
       gradientUnits="userSpaceOnUse"
       x1="43.245415"
       y1="104.21532"
       x2="48.193569"
       y2="93.471298" />
    <linearGradient
       inkscape:collect="always"
       xlink:href="#linearGradient4368"
       id="linearGradient4467"
       gradientUnits="userSpaceOnUse"
       x1="60.413662"
       y1="106.16137"
       x2="46.921165"
       y2="110.65887" />
    <linearGradient
       inkscape:collect="always"
       xlink:href="#linearGradient3831"
       id="linearGradient3845"
       x1="11"
       y1="19.5"
       x2="21"
       y2="19.5"
       gradientUnits="userSpaceOnUse"
       spreadMethod="reflect" />
    <linearGradient
       id="linearGradient3831">
      <stop
         style="stop-color:#ffffff;stop-opacity:1;"
         offset="0"
         id="stop3833" />
      <stop
         id="stop3821"
         offset="0.75"
         style="stop-color:#ffffff;stop-opacity:0.49803922;" />
      <stop
         style="stop-color:#ffffff;stop-opacity:0;"
         offset="1"
         id="stop3835" />
    </linearGradient>
    <linearGradient
       y2="16"
       x2="10"
       y1="1"
       x1="10"
       gradientUnits="userSpaceOnUse"
       id="linearGradient3084"
       xlink:href="#linearGradient3823"
       inkscape:collect="always" />
    <linearGradient
       id="linearGradient3823">
      <stop
         id="stop3825"
         offset="0"
         style="stop-color:#ffffff;stop-opacity:1;" />
      <stop
         id="stop3829"
         offset="1"
         style="stop-color:#ffffff;stop-opacity:0;" />
    </linearGradient>
    <linearGradient
       y2="16"
       x2="10"
       y1="1"
       x1="10"
       gradientUnits="userSpaceOnUse"
       id="linearGradient3101"
       xlink:href="#linearGradient3823"
       inkscape:collect="always" />
  </defs>
  <sodipodi:namedview
     id="base"
     pagecolor="#ffffff"
     bordercolor="#e7e7e7"
     borderopacity="1"
     inkscape:pageopacity="0.0"
     inkscape:pageshadow="2"
     inkscape:zoom="16.008898"
     inkscape:cx="1.6173201"
     inkscape:cy="1.0523267"
     inkscape:document-units="px"
     inkscape:current-layer="layer1"
     showgrid="true"
     inkscape:showpageshadow="false"
     showguides="false"
     inkscape:guide-bbox="true"
     inkscape:window-width="1266"
     inkscape:window-height="960"
     inkscape:window-x="7"
     inkscape:window-y="57"
     inkscape:window-maximized="0">
    <sodipodi:guide
       orientation="1,0"
       position="0,112"
       id="guide2383" />
    <sodipodi:guide
       orientation="0,1"
       position="26.278146,128"
       id="guide2385" />
    <sodipodi:guide
       orientation="1,0"
       position="128,54.082119"
       id="guide2387" />
    <sodipodi:guide
       orientation="0,1"
       position="78.156291,0"
       id="guide2389" />
    <sodipodi:guide
       orientation="0,1"
       position="60.863576,64.084768"
       id="guide2391" />
    <inkscape:grid
       type="xygrid"
       id="grid3672"
       visible="true"
       enabled="true" />
  </sodipodi:namedview>
  <metadata
     id="metadata7">
    <rdf:RDF>
      <cc:Work
         rdf:about="">
        <dc:format>image/svg+xml</dc:format>
        <dc:type
           rdf:resource="http://purl.org/dc/dcmitype/StillImage" />
      </cc:Work>
    </rdf:RDF>
  </metadata>
  <g
     inkscape:groupmode="layer"
     id="layer2"
     inkscape:label="Shadow"
     style="display:inline"
     sodipodi:insensitive="true">
    <g
       style="display:inline"
       id="g3337">
      <rect
         ry="2.5"
         rx="2.5"
         y="0.5"
         x="0.5"
         height="21.5"
         width="21"
         id="rect3371"
         style="opacity:0.3;fill:url(#linearGradient3335);fill-opacity:1;stroke:none;stroke-width:1.00000012;stroke-linecap:round;stroke-linejoin:miter;stroke-miterlimit:4;stroke-dasharray:none;stroke-opacity:1;display:inline" />
      <rect
         style="opacity:0.5;fill:#000000;fill-opacity:1;stroke:none;stroke-width:1.00000012;stroke-linecap:round;stroke-linejoin:miter;stroke-miterlimit:4;stroke-dasharray:none;stroke-opacity:1;display:inline"
         id="rect2553"
         width="20"
         height="20"
         x="1"
         y="2"
         rx="2.3809524"
         ry="2.3255813" />
    </g>
  </g>
  <g
     inkscape:groupmode="layer"
     id="layer3"
     inkscape:label="Interior"
     sodipodi:insensitive="true">
    <rect
       style="fill:url(#radialGradient3354);fill-opacity:1;fill-rule:evenodd;stroke:none;display:inline"
       id="rect3344"
       width="17.614883"
       height="12.137208"
       x="2.249861"
       y="1.689316" />
  </g>
  <g
     inkscape:label="Button"
     inkscape:groupmode="layer"
     id="layer1">
    <path
       style="fill:url(#linearGradient3181);fill-opacity:1;fill-rule:evenodd;stroke:none;display:inline"
       d="M 3,1 C 1.892,1 1,1.892 1,3 l 0,16 c 0,1.108 0.892,2 2,2 l 16,0 c 1.108,0 2,-0.892 2,-2 L 21,3 C 21,1.892 20.108,1 19,1 L 3,1 z m 8,1.5 c 4.14,0 7.5,1.346438 7.5,3 -1e-6,1.6535618 -3.359999,3 -7.5,3 -4.1400008,10e-8 -7.5,-1.346438 -7.5,-3 10e-8,-1.6535622 3.3599994,-3 7.5,-3 z"
       id="rect3173"
       inkscape:connector-curvature="0" />
    <g
       id="g4359"
       transform="translate(20,0)">
      <path
         id="rect7153"
         d="m -6.1875,1 0,1.75 c 1.2912865,0.210493 2.4042168,0.5572383 3.21875,1 l 0,-2.75 -3.21875,0 z m 3.21875,6.375 c -0.3332555,0.2441167 -0.7522506,0.4609324 -1.21875,0.65625 -0.5832201,0.2441869 -1.2533275,0.4415388 -2,0.59375 l 0,12.3125 3.21875,0 0,-13.5625 z"
         style="opacity:0.6;fill:url(#linearGradient4369);fill-opacity:1;fill-rule:evenodd;stroke:none"
         inkscape:connector-curvature="0" />
      <path
         id="rect7163"
         d="m -10.96875,1 0,1.625 c 0.426402,-0.046882 0.859381,-0.077656 1.3125,-0.09375 l 0,-1.53125 -1.3125,0 z m 0,7.875 0,12.0625 1.3125,0 0,-12 c -0.444082,-0.0059 -0.891275,-0.02527 -1.3125,-0.0625 z"
         style="opacity:0.3;fill:url(#linearGradient4371);fill-opacity:1;fill-rule:evenodd;stroke:none"
         inkscape:connector-curvature="0" />
      <path
         id="rect7167"
         d="m -16.8125,1 0,4.375 c 0.08904,-0.3066068 0.262806,-0.6087707 0.53125,-0.875 0.271395,-0.2691566 0.609534,-0.5284564 1.03125,-0.75 l 0,-2.75 -1.5625,0 z m 0,5.15625 0,14.78125 1.5625,0 0,-13.1875 c -0.421711,-0.2216276 -0.75984,-0.4499853 -1.03125,-0.71875 -0.268459,-0.2658419 -0.442216,-0.5700177 -0.53125,-0.875 z"
         style="opacity:0.4;fill:url(#linearGradient4373);fill-opacity:1;fill-rule:evenodd;stroke:none"
         inkscape:connector-curvature="0" />
      <path
         id="rect7171"
         d="m -15.28125,1 0,2.875 c 0.993486,-0.6073915 2.546169,-1.0557156 4.34375,-1.25 l 0,-1.625 -4.34375,0 z m 0,6.125 0,13.8125 4.34375,0 0,-12.5625 c -1.807035,-0.1953062 -3.350725,-0.6378032 -4.34375,-1.25 z"
         style="opacity:0.15;fill:url(#linearGradient4375);fill-opacity:1;fill-rule:evenodd;stroke:none"
         inkscape:connector-curvature="0" />
      <path
         id="rect7185"
         d="m -9.71875,1.0625 0,1.46875 C -9.4769144,2.521841 -9.2479875,2.5 -9,2.5 c 0.9882971,0 1.9169502,0.079814 2.78125,0.21875 l 0,-1.65625 -3.5,0 z m 3.5,7.21875 C -7.0830498,8.4201865 -8.0117029,8.5 -9,8.5 -9.2479875,8.5 -9.4769144,8.478159 -9.71875,8.46875 l 0,12.53125 3.5,0 0,-12.71875 z"
         style="opacity:0.1;fill:url(#linearGradient4377);fill-opacity:1;fill-rule:evenodd;stroke:none"
         inkscape:connector-curvature="0" />
      <rect
         y="1.0000038"
         x="-1.6620901"
         height="19.940283"
         width="0.64131582"
         id="rect7189"
         style="opacity:0.4;fill:url(#linearGradient4379);fill-opacity:1;fill-rule:evenodd;stroke:none" />
      <path
         id="rect7193"
         d="m -3,1.0625 0,2.65625 c 0.5986128,0.3200586 1.0407103,0.6931375 1.28125,1.09375 l 0,-3.75 -1.28125,0 z m 1.28125,5.125 C -1.957117,6.5888261 -2.402445,6.960419 -3,7.28125 L -3,21 l 1.28125,0 0,-14.8125 z"
         style="opacity:0.1;fill:url(#linearGradient4381);fill-opacity:1;fill-rule:evenodd;stroke:none"
         inkscape:connector-curvature="0" />
      <rect
         style="opacity:0.4;fill:url(#linearGradient4383);fill-opacity:1;fill-rule:evenodd;stroke:none"
         id="rect7197"
         width="0.4024671"
         height="19.940283"
         x="-17.645844"
         y="1.0000038" />
    </g>
    <path
       style="fill:url(#linearGradient4303);fill-opacity:1;fill-rule:evenodd;stroke:none;display:inline"
       d="M 3,1 C 1.892,1 1,1.892 1,3 l 0,16 c 0,1.108 0.892,2 2,2 l 16,0 c 1.108,0 2,-0.892 2,-2 L 21,3 C 21,1.892 20.108,1 19,1 L 3,1 z m 8,1.5 c 0.5175,0 1.011914,0.022575 1.5,0.0625 1.46707,0.1190155 2.794375,0.4058496 3.8125,0.8125 0.67875,0.2716524 1.214063,0.6099893 1.59375,0.96875 C 18.285938,4.7020967 18.5,5.0866095 18.5,5.5 c -1e-6,1.6535618 -3.359999,3 -7.5,3 -4.140001,10e-8 -7.5,-1.346438 -7.5,-3 C 3.5,5.349773 3.540219,5.2068115 3.59375,5.0625 3.604643,5.031774 3.611769,4.999166 3.625,4.96875 3.62867,4.96066 3.62088,4.945303 3.625,4.9375 3.646867,4.891732 3.691727,4.857506 3.71875,4.8125 3.757044,4.74677 3.794229,4.6890954 3.84375,4.625 c 0.00454,-0.00582 -0.00462,-0.025444 0,-0.03125 0.073081,-0.093866 0.155078,-0.1603098 0.25,-0.25 C 4.473437,3.9849893 5.00875,3.6466524 5.6875,3.375 6.705625,2.9683495 8.03293,2.6815155 9.5,2.5625 9.988086,2.5225745 10.4825,2.5 11,2.5 z"
       id="rect4237"
       inkscape:connector-curvature="0" />
    <path
       sodipodi:type="arc"
       style="fill:none;stroke:url(#linearGradient4347);stroke-width:2.70465183;stroke-linecap:round;stroke-linejoin:round;stroke-miterlimit:4;stroke-opacity:1;stroke-dasharray:none;stroke-dashoffset:0;display:inline"
       id="path7095"
       sodipodi:cx="62.964985"
       sodipodi:cy="30.55419"
       sodipodi:rx="40.477489"
       sodipodi:ry="16.240969"
       d="m 103.44247,30.55419 a 40.477489,16.240969 0 1 1 -80.954975,0 40.477489,16.240969 0 1 1 80.954975,0 z"
       transform="matrix(0.1852882,0,0,0.1844461,-0.666667,-0.1311844)" />
    <path
       style="opacity:0.5;fill:url(#linearGradient3101);fill-opacity:1;fill-rule:evenodd;stroke:none;display:inline"
       d="M 3,1 C 1.892,1 1,1.892 1,3 l 0,16 c 0,1.108 0.892,2 2,2 l 16,0 c 1.108,0 2,-0.892 2,-2 L 21,3 C 21,1.892 20.108,1 19,1 L 3,1 z m 0,1.03125 16,0 c 0.5497,0 0.96875,0.4190495 0.96875,0.96875 l 0,16 c 0,0.5497 -0.41905,0.96875 -0.96875,0.96875 l -16,0 C 2.4502995,19.96875 2.03125,19.5497 2.03125,19 l 0,-16 C 2.03125,2.4502995 2.4502995,2.03125 3,2.03125 z"
       id="rect3050"
       inkscape:connector-curvature="0" />
    <path
       id="path3235"
       d="M 3,21 C 1.892,21 1,20.108 1,19 l 0,-1 c 0,1.108 0.892,2 2,2 l 16,0 c 1.108,0 2,-0.892 2,-2 l 0,1 c 0,1.108 -0.892,2 -2,2 L 3,21 z"
       style="opacity:0.3;fill:url(#linearGradient3845);fill-opacity:1;fill-rule:evenodd;stroke:none;display:inline"
       inkscape:connector-curvature="0" />
  </g>
  <g
     inkscape:groupmode="layer"
     id="layer4"
     inkscape:label="Logo"
     sodipodi:insensitive="true">
    <g
       style="display:inline"
       id="g3350"
       transform="matrix(0.1803837,0,0,0.1803837,-0.5441398,-1.4184362)">
      <path
         id="path3292"
         d="M 66.740086,106.88012 L 73.071814,95.523018 L 73.101915,99.676589 L 86.427635,99.646497 C 88.808744,99.394152 90.89635,98.42642 92.408155,96.606557 C 87.583165,106.47486 86.193436,113.45741 76.182487,113.46163 L 73.101915,113.46163 L 73.071814,118.0767 L 66.740086,106.88012 z"
         style="fill:url(#linearGradient4457);fill-opacity:1;stroke:none;stroke-width:0.99999982;stroke-opacity:1;display:inline" />
      <path
         id="path3290"
         d="M 81.240116,97.921419 L 75.359939,87.086023 L 87.240708,79.892529 L 92.99042,91.410143 C 93.164509,94.166487 88.713503,98.002136 85.950864,97.972298 L 81.240116,97.921419 z"
         style="fill:url(#linearGradient4459);fill-opacity:1;stroke:none;stroke-width:0.99999982;stroke-opacity:1;display:inline" />
      <path
         id="path3288"
         d="M 45.109433,73.919728 L 51.179457,64.824076 C 57.066824,62.631747 60.477162,67.364655 62.629537,70.348059 L 56.90992,81.323911 L 45.109433,73.919728 z"
         style="fill:url(#linearGradient4461);fill-opacity:1;stroke:none;stroke-width:0.99999982;stroke-opacity:1;display:inline" />
      <path
         id="path3286"
         d="M 69.091143,78.447225 C 67.870278,75.569484 66.239058,72.277738 64.199221,69.415642 C 62.37298,66.853249 60.166412,64.617611 58.494792,63.618783 L 73.84747,63.588691 C 76.604624,63.836176 77.944304,65.443291 79.406529,67.641929 L 81.614094,71.524613 L 85.025807,69.347505 L 78.603783,80.784879 L 64.756273,80.814973 L 69.091143,78.447225 z"
         style="fill:url(#linearGradient4463);fill-opacity:1;stroke:none;stroke-width:0.99999982;stroke-opacity:1;display:inline" />
      <path
         id="path3284"
         d="M 47.846903,82.693623 L 55.189677,93.425017 L 51.458047,91.599488 L 45.541795,103.53795 C 44.705728,105.78131 44.640966,108.08109 45.595821,110.24564 C 38.913802,101.52661 33.282944,97.168778 37.743998,88.208213 L 39.117915,85.451445 L 34.999999,83.36621 L 47.846903,82.693623 z"
         style="fill:url(#linearGradient4465);fill-opacity:1;stroke:none;stroke-width:0.99999982;stroke-opacity:1;display:inline" />
      <path
         id="path4068"
         d="M 49.529355,99.666566 L 63.067708,99.236984 L 62.992286,113.0772 L 50.117576,113.08576 C 47.572499,112.01224 46.124014,106.31842 47.382843,103.85948 L 49.529355,99.666566 z"
         style="fill:url(#linearGradient4467);fill-opacity:1;stroke:none;stroke-width:0.99999982;stroke-opacity:1;display:inline" />
    </g>
  </g>
</svg>
