<?xml version="1.0" encoding="UTF-8" standalone="no"?>
<!-- Created with Inkscape (http://www.inkscape.org/) -->

<svg
   xmlns:dc="http://purl.org/dc/elements/1.1/"
   xmlns:cc="http://creativecommons.org/ns#"
   xmlns:rdf="http://www.w3.org/1999/02/22-rdf-syntax-ns#"
   xmlns:svg="http://www.w3.org/2000/svg"
   xmlns="http://www.w3.org/2000/svg"
   xmlns:xlink="http://www.w3.org/1999/xlink"
   xmlns:sodipodi="http://sodipodi.sourceforge.net/DTD/sodipodi-0.dtd"
   xmlns:inkscape="http://www.inkscape.org/namespaces/inkscape"
   width="24"
   height="24"
   id="svg2"
   sodipodi:version="0.32"
   inkscape:version="0.48.1 r9760"
   version="1.0"
   sodipodi:docname="user-home.svg"
   inkscape:output_extension="org.inkscape.output.svg.inkscape"
   style="display:inline">
  <defs
     id="defs4">
    <linearGradient
       gradientUnits="userSpaceOnUse"
       y2="20.137329"
       x2="11.794092"
       y1="3.2126782"
       x1="11.794092"
       gradientTransform="scale(1.0598527,0.9435274)"
       id="linearGradient3317">
      <stop
         id="stop3319"
         offset="0"
         style="stop-color:#c6953a;stop-opacity:1" />
      <stop
         id="stop3321"
         offset="1"
         style="stop-color:#ab7a1f;stop-opacity:1" />
    </linearGradient>
    <linearGradient
       inkscape:collect="always"
       xlink:href="#linearGradient3317"
       id="linearGradient3361"
       x1="48.035713"
       y1="25.910715"
       x2="48.035713"
       y2="85.821426"
       gradientUnits="userSpaceOnUse"
       gradientTransform="matrix(0.2195263,0,0,0.2195263,1.3370719,0.1776143)" />
    <linearGradient
       id="linearGradient3348">
      <stop
         style="stop-color:#ddbf8b;stop-opacity:1;"
         offset="0"
         id="stop3350" />
      <stop
         id="stop3356"
         offset="0.71691591"
         style="stop-color:#c29856;stop-opacity:1;" />
      <stop
         style="stop-color:#a2773a;stop-opacity:1;"
         offset="1"
         id="stop3352" />
    </linearGradient>
    <linearGradient
       id="linearGradient3187">
      <stop
         style="stop-color:#c29656;stop-opacity:1;"
         offset="0"
         id="stop3189" />
      <stop
         style="stop-color:#ddbf8b;stop-opacity:1;"
         offset="1"
         id="stop3191" />
    </linearGradient>
    <linearGradient
       inkscape:collect="always"
       xlink:href="#linearGradient3348"
       id="linearGradient3640"
       x1="6.9332814"
       y1="3"
       x2="6.9349904"
       y2="6.4254756"
       gradientUnits="userSpaceOnUse"
       gradientTransform="translate(31,-3)" />
    <linearGradient
       inkscape:collect="always"
       xlink:href="#linearGradient3187"
       id="linearGradient3668"
       x1="10.871767"
       y1="24.123091"
       x2="10.871767"
       y2="6.1230297"
       gradientUnits="userSpaceOnUse"
       gradientTransform="translate(-0.7400389,-4.1230297)" />
    <linearGradient
       inkscape:collect="always"
       xlink:href="#linearGradient3831"
       id="linearGradient3845"
       x1="11"
       y1="19.5"
       x2="21"
       y2="19.5"
       gradientUnits="userSpaceOnUse"
       spreadMethod="reflect"
       gradientTransform="translate(1,-1)" />
    <linearGradient
       id="linearGradient3831">
      <stop
         style="stop-color:#ffffff;stop-opacity:1;"
         offset="0"
         id="stop3833" />
      <stop
         id="stop3821"
         offset="0.75"
         style="stop-color:#ffffff;stop-opacity:0.49803922;" />
      <stop
         style="stop-color:#ffffff;stop-opacity:0;"
         offset="1"
         id="stop3835" />
    </linearGradient>
    <linearGradient
       id="linearGradient3823">
      <stop
         id="stop3825"
         offset="0"
         style="stop-color:#ffffff;stop-opacity:1;" />
      <stop
         id="stop3829"
         offset="1"
         style="stop-color:#ffffff;stop-opacity:0;" />
    </linearGradient>
    <linearGradient
       y2="16"
       x2="10"
       y1="5"
       x1="10"
       gradientUnits="userSpaceOnUse"
       id="linearGradient3078"
       xlink:href="#linearGradient3823"
       inkscape:collect="always"
       gradientTransform="translate(1,-1)" />
    <linearGradient
       inkscape:collect="always"
       xlink:href="#linearGradient3348"
       id="linearGradient3822"
       x1="8"
       y1="2"
       x2="8"
       y2="4"
       gradientUnits="userSpaceOnUse" />
    <linearGradient
       inkscape:collect="always"
       xlink:href="#linearGradient3831-1"
       id="linearGradient3845-9"
       x1="11"
       y1="19.5"
       x2="21"
       y2="19.5"
       gradientUnits="userSpaceOnUse"
       spreadMethod="reflect"
       gradientTransform="translate(1,-1)" />
    <linearGradient
       id="linearGradient3831-1">
      <stop
         style="stop-color:#ffffff;stop-opacity:1;"
         offset="0"
         id="stop3833-2" />
      <stop
         id="stop3821-4"
         offset="0.75"
         style="stop-color:#ffffff;stop-opacity:0.49803922;" />
      <stop
         style="stop-color:#ffffff;stop-opacity:0;"
         offset="1"
         id="stop3835-9" />
    </linearGradient>
    <linearGradient
       y2="16"
       x2="10"
       y1="5"
       x1="10"
       gradientUnits="userSpaceOnUse"
       id="linearGradient3078-0"
       xlink:href="#linearGradient3823-1"
       inkscape:collect="always"
       gradientTransform="translate(1,-1)" />
    <linearGradient
       id="linearGradient3823-1">
      <stop
         id="stop3825-4"
         offset="0"
         style="stop-color:#ffffff;stop-opacity:1;" />
      <stop
         id="stop3829-4"
         offset="1"
         style="stop-color:#ffffff;stop-opacity:0;" />
    </linearGradient>
    <linearGradient
       inkscape:collect="always"
       xlink:href="#linearGradient3187-2"
       id="linearGradient3668-3"
       x1="10.871767"
       y1="24.123091"
       x2="10.871767"
       y2="6.1230297"
       gradientUnits="userSpaceOnUse"
       gradientTransform="translate(-0.7400389,-4.1230297)" />
    <linearGradient
       id="linearGradient3187-2">
      <stop
         style="stop-color:#c29656;stop-opacity:1;"
         offset="0"
         id="stop3189-5" />
      <stop
         style="stop-color:#ddbf8b;stop-opacity:1;"
         offset="1"
         id="stop3191-1" />
    </linearGradient>
    <linearGradient
       id="linearGradient3348-2">
      <stop
         style="stop-color:#ddbf8b;stop-opacity:1;"
         offset="0"
         id="stop3350-6" />
      <stop
         id="stop3356-0"
         offset="0.71691591"
         style="stop-color:#c29856;stop-opacity:1;" />
      <stop
         style="stop-color:#a2773a;stop-opacity:1;"
         offset="1"
         id="stop3352-6" />
    </linearGradient>
    <linearGradient
       gradientUnits="userSpaceOnUse"
       y2="20.137329"
       x2="11.794092"
       y1="3.2126782"
       x1="11.794092"
       gradientTransform="scale(1.0598527,0.9435274)"
       id="linearGradient3317-6">
      <stop
         id="stop3319-8"
         offset="0"
         style="stop-color:#c6953a;stop-opacity:1" />
      <stop
         id="stop3321-0"
         offset="1"
         style="stop-color:#ab7a1f;stop-opacity:1" />
    </linearGradient>
    <linearGradient
       y2="85.821426"
       x2="48.035713"
       y1="25.910715"
       x1="48.035713"
       gradientTransform="matrix(0.2195263,0,0,0.2195263,1.3370719,0.1776143)"
       gradientUnits="userSpaceOnUse"
       id="linearGradient3861"
       xlink:href="#linearGradient3317-6"
       inkscape:collect="always" />
    <linearGradient
       inkscape:collect="always"
       id="linearGradient3327">
      <stop
         style="stop-color:#000000;stop-opacity:1;"
         offset="0"
         id="stop3330" />
      <stop
         style="stop-color:#000000;stop-opacity:0;"
         offset="1"
         id="stop3333" />
    </linearGradient>
    <linearGradient
       y2="-11"
       x2="11.375"
       y1="20"
       x1="11.375"
       gradientTransform="translate(1,3)"
       gradientUnits="userSpaceOnUse"
       id="linearGradient3842"
       xlink:href="#linearGradient3327"
       inkscape:collect="always" />
    <linearGradient
       inkscape:collect="always"
       xlink:href="#linearGradient3348-2"
       id="linearGradient3943"
       gradientUnits="userSpaceOnUse"
       gradientTransform="translate(0,-2)"
       x1="8"
       y1="2"
       x2="8"
       y2="4" />
    <linearGradient
       inkscape:collect="always"
       xlink:href="#linearGradient3348-2"
       id="linearGradient3947"
       gradientUnits="userSpaceOnUse"
       gradientTransform="translate(0,-2)"
       x1="8"
       y1="2"
       x2="8"
       y2="4" />
    <linearGradient
       gradientUnits="userSpaceOnUse"
       y2="20.137329"
       x2="11.794092"
       y1="3.2126782"
       x1="11.794092"
       gradientTransform="scale(1.0598527,0.9435274)"
       id="linearGradient3317-0">
      <stop
         id="stop3319-7"
         offset="0"
         style="stop-color:#c29556;stop-opacity:1;" />
      <stop
         id="stop3321-1"
         offset="1"
         style="stop-color:#aa7932;stop-opacity:1;" />
    </linearGradient>
    <linearGradient
       y2="32.397678"
       x2="48.071056"
       y1="73.765587"
       x1="48.071056"
       gradientUnits="userSpaceOnUse"
       id="linearGradient3248"
       xlink:href="#linearGradient3699-7"
       inkscape:collect="always"
       gradientTransform="translate(0,-2)" />
    <linearGradient
       id="linearGradient3699-7">
      <stop
         style="stop-color:#aa7932;stop-opacity:0.78431374;"
         offset="0"
         id="stop3701-4" />
      <stop
         style="stop-color:#aa7932;stop-opacity:0.39215687;"
         offset="1"
         id="stop3703-1" />
    </linearGradient>
    <linearGradient
       gradientUnits="userSpaceOnUse"
       y2="20.137329"
       x2="11.794092"
       y1="3.2126782"
       x1="11.794092"
       gradientTransform="scale(1.0598527,0.9435274)"
       id="linearGradient3317-0-7">
      <stop
         id="stop3319-7-7"
         offset="0"
         style="stop-color:#c29556;stop-opacity:1;" />
      <stop
         id="stop3321-1-4"
         offset="1"
         style="stop-color:#aa7932;stop-opacity:1;" />
    </linearGradient>
  </defs>
  <sodipodi:namedview
     id="base"
     pagecolor="#7e7e7e"
     bordercolor="#e40000"
     borderopacity="1"
     inkscape:pageopacity="1"
     inkscape:pageshadow="2"
     inkscape:zoom="18.602289"
     inkscape:cx="-8.0253186"
     inkscape:cy="5.1732608"
     inkscape:document-units="px"
     inkscape:current-layer="layer2"
     showgrid="true"
     inkscape:showpageshadow="false"
     showguides="true"
     inkscape:guide-bbox="true"
     inkscape:window-width="1920"
     inkscape:window-height="1028"
     inkscape:window-x="0"
     inkscape:window-y="25"
     inkscape:window-maximized="1"
     borderlayer="true">
    <sodipodi:guide
       orientation="1,0"
       position="0,112"
       id="guide2383" />
    <sodipodi:guide
       orientation="0,1"
       position="26.278146,128"
       id="guide2385" />
    <sodipodi:guide
       orientation="1,0"
       position="128,54.082119"
       id="guide2387" />
    <sodipodi:guide
       orientation="0,1"
       position="78.156291,0"
       id="guide2389" />
    <inkscape:grid
       type="xygrid"
       id="grid3672"
       visible="true"
       enabled="true"
       empspacing="8"
       snapvisiblegridlinesonly="true" />
  </sodipodi:namedview>
  <metadata
     id="metadata7">
    <rdf:RDF>
      <cc:Work
         rdf:about="">
        <dc:format>image/svg+xml</dc:format>
        <dc:type
           rdf:resource="http://purl.org/dc/dcmitype/StillImage" />
        <dc:title />
      </cc:Work>
    </rdf:RDF>
  </metadata>
  <g
     inkscape:groupmode="layer"
     id="layer2"
     inkscape:label="Button"
     transform="translate(0,2)">
    <path
       style="opacity:0.29999999999999999;fill:url(#linearGradient3842);fill-opacity:1;stroke:none;display:inline"
       d="M 4.5 1.5 C 3.4030029 1.5 2.5 2.4030029 2.5 3.5 L 2.5 4 C 1.8885192 4.4549066 1.5 5.175925 1.5 6 L 1.5 20.5 C 1.5 21.885 2.615 23 4 23 L 20 23 C 21.385 23 22.5 21.885 22.5 20.5 L 22.5 6 C 22.5 5.134375 22.071045 4.3858887 21.40625 3.9375 C 21.160346 3.1111944 20.401594 2.5 19.5 2.5 L 12.125 2.5 C 11.775318 1.9321758 11.212848 1.5 10.5 1.5 L 4.5 1.5 z "
       transform="translate(0,-2)"
       id="rect3371" />
    <rect
       ry="2"
       rx="2"
       y="5"
       x="2"
       height="16"
       width="20"
       id="rect5478"
       style="opacity:0.4;fill:#000000;fill-opacity:1;fill-rule:nonzero;stroke:none" />
    <rect
       style="fill:url(#linearGradient3861);fill-opacity:1;fill-rule:nonzero;stroke:none;display:inline"
       id="rect3352"
       width="16.464474"
       height="13.759596"
       x="3.6499383"
       y="5.2580805"
       rx="1.3171579"
       ry="1.3171579" />
    <path
       inkscape:connector-curvature="0"
       style="color:#000000;fill:#c4995a;fill-opacity:1;fill-rule:nonzero;stroke:none;stroke-width:2;marker:none;visibility:visible;display:inline;overflow:visible;enable-background:accumulate"
       d="M 4.5,0 C 3.669,0 3,0.669 3,1.5 l 0,1 0,1 0,2 C 3,6.331 3.669,7 4.5,7 l 15,0 C 20.331,7 21,6.331 21,5.5 l 0,-3 C 21,1.669 20.331,1 19.5,1 L 11.90625,1 C 11.702994,0.4129833 11.157875,0 10.5,0 l -6,0 z"
       id="rect3043" />
    <path
       style="color:#000000;fill:#000000;fill-opacity:1;fill-rule:nonzero;stroke:none;stroke-width:2;marker:none;visibility:visible;display:inline;overflow:visible;enable-background:accumulate;opacity:0.1"
       d="M 4,1 C 3.648898,1 3.317465,1.0923738 3.03125,1.25 3.018314,1.3295389 3,1.4166943 3,1.5 l 0,1 0,1 0,2 C 3,6.331 3.669,7 4.5,7 l 15,0 C 20.331,7 21,6.331 21,5.5 l 0,-3 C 21,1.669 20.331,1 19.5,1 L 11.90625,1 4,1 z"
       id="path3050"
       inkscape:connector-curvature="0" />
    <rect
       style="fill:url(#linearGradient3668-3);fill-opacity:1;fill-rule:nonzero;stroke:none;display:inline"
       id="rect3660"
       width="20"
       height="17.999996"
       x="2"
       y="2"
       rx="2"
       ry="2" />
    <path
       style="opacity:0.2;fill:url(#linearGradient3078-0);fill-opacity:1;fill-rule:evenodd;stroke:none;display:inline"
       d="M 4,2 C 2.892,2 2,2.892 2,4 l 0,14 c 0,1.108 0.892,2 2,2 l 16,0 c 1.108,0 2,-0.892 2,-2 L 22,4 C 22,2.892 21.108,2 20,2 z m 0,1.03125 16,0 c 0.5497,0 0.96875,0.4190495 0.96875,0.96875 l 0,14 c 0,0.5497 -0.41905,0.96875 -0.96875,0.96875 l -16,0 C 3.4502995,18.96875 3.03125,18.5497 3.03125,18 l 0,-14 C 3.03125,3.4502995 3.4502995,3.03125 4,3.03125 z"
       id="rect3050"
       inkscape:connector-curvature="0"
       sodipodi:nodetypes="ssssssssssssssssss" />
    <path
       id="path3235"
       d="M 4,20 C 2.892,20 2,19.108 2,18 l 0,-1 c 0,1.108 0.892,2 2,2 l 16,0 c 1.108,0 2,-0.892 2,-2 l 0,1 c 0,1.108 -0.892,2 -2,2 z"
       style="opacity:0.2;fill:url(#linearGradient3845-9);fill-opacity:1;fill-rule:evenodd;stroke:none;display:inline"
       inkscape:connector-curvature="0"
       sodipodi:nodetypes="sscsscsss" />
    <rect
       style="color:#000000;fill:#bd8e48;fill-opacity:1;fill-rule:nonzero;stroke:none;stroke-width:2;marker:none;visibility:visible;display:inline;overflow:visible;enable-background:accumulate"
       id="rect3884"
       width="8"
       height="8"
       x="32"
       y="0"
       transform="translate(0,-2)" />
    <path
       style="opacity:0.15;fill:#ead7b4;fill-opacity:1;stroke:none;display:inline"
       d="m 11.875,5.0312501 c -0.213478,0.028854 -0.41133,0.12778 -0.5625,0.28125 l -6,6.0312499 C 5.0370347,11.622173 4.943595,12.044513 5.09375,12.40625 5.2439049,12.767987 5.6083395,12.998498 6,13 l 1,0 0,3 c 0.00198,0.534202 0.4345484,0.966765 0.96875,0.96875 l 8.03125,0 C 16.534202,16.96675 16.966765,16.534202 16.96875,16 l 0,-3.03125 1.09375,0 c 0.391661,-0.0015 0.756095,-0.232013 0.90625,-0.59375 0.150155,-0.361737 0.05672,-0.784077 -0.21875,-1.0625 L 16,8.5625 16,7.0000001 C 15.998,6.4657985 15.565452,6.0332347 15.03125,6.0312501 l -1.03125,0 c -0.164301,0.00139 -0.325571,0.044399 -0.46875,0.125 L 12.6875,5.3125001 C 12.475078,5.0975984 12.174822,4.9936635 11.875,5.0312501 z M 12,6.0000001 14,8 l 0,-0.9999999 1.03125,0 0,1.9687499 L 18.0625,12 16,12 l 0,4 -8.03125,0 0,-3.96875 -1.96875,0 6,-6.0312499 z"
       id="path3582"
       inkscape:connector-curvature="0" />
    <path
       inkscape:label="#rect2236"
       sodipodi:nodetypes="cccccccccccc"
       id="path2777"
       d="m 12,6 -6.013414,6.036146 1.990001,0 0,3.963854 L 16,16 16,12 18.058508,12 15.023164,8.969176 15.032464,7 l -1.032489,0.0084 0,0.9785219 -2,-1.9869219 z"
       style="fill:#bd8e48;fill-opacity:1;stroke:none;display:inline"
       inkscape:connector-curvature="0" />
    <path
       inkscape:connector-curvature="0"
       style="opacity:0.2;fill:#000000;fill-opacity:1;stroke:none;display:inline"
       d="m 12,6 -6,6.03125 1.96875,0 0,3.96875 L 16,16 16,12 18.0625,12 15.03125,8.96875 15.03125,7 14,7 14,8 12,6 z m 0,0.6875 1.65625,1.65625 A 0.48088507,0.48088507 0 0 0 14.46875,8 l 0,-0.53125 0.09375,0 0,1.5 a 0.48088507,0.48088507 0 0 0 0.125,0.34375 l 2.21875,2.21875 -0.90625,0 A 0.48088507,0.48088507 0 0 0 15.53125,12 l 0,3.53125 -7.09375,0 0,-3.5 A 0.48088507,0.48088507 0 0 0 7.96875,11.5625 l -0.8125,0 L 12,6.6875 z"
       id="path3952" />
    <path
       inkscape:connector-curvature="0"
       style="fill:#000000;fill-opacity:1;stroke:none;display:inline;opacity:0.2"
       d="m 12,6 -6,6.03125 1,0 L 12,7 14,9 14,8 12,6 z m 2,2 1.03125,0 0,-1 L 14,7 14,8 z m 1.03125,0.96875 0,1 L 17.0625,12 l 1,0 -3.03125,-3.03125 z"
       id="path3943" />
    <path
       style="fill:#ffffff;fill-opacity:1;stroke:none;display:inline;opacity:0.15"
       d="M 16 14 L 16 15 L 18.0625 15 L 17.0625 14 L 16 14 z M 7 14.03125 L 6 15.03125 L 7.96875 15.03125 L 7.96875 14.03125 L 7 14.03125 z M 7.96875 18 L 7.96875 19 L 16 19 L 16 18 L 7.96875 18 z "
       transform="translate(0,-2)"
       id="path3964" />
  </g>
  <g
     inkscape:groupmode="layer"
     id="layer4"
     inkscape:label="Symbol"
     transform="translate(0,2)"
     sodipodi:insensitive="true" />
</svg>
